<?xml version="1.0" encoding="UTF-8" standalone="no"?>
<svg
   width="240"
   height="223"
   id="main_svg"
   version="1.1"
   sodipodi:docname="logo.svg"
   inkscape:version="1.1.2 (0a00cf5339, 2022-02-04)"
   inkscape:export-filename="/home/jules/Bioinformatik/4.WS2324/Thesis/logo.png"
   inkscape:export-xdpi="96"
   inkscape:export-ydpi="96"
   xmlns:inkscape="http://www.inkscape.org/namespaces/inkscape"
   xmlns:sodipodi="http://sodipodi.sourceforge.net/DTD/sodipodi-0.dtd"
   xmlns="http://www.w3.org/2000/svg"
   xmlns:svg="http://www.w3.org/2000/svg"
   xmlns:xhtml="http://www.w3.org/1999/xhtml">
  <defs
     id="defs77" />
  <sodipodi:namedview
     id="namedview77"
     pagecolor="#ffffff"
     bordercolor="#000000"
     borderopacity="0.25"
     inkscape:showpageshadow="2"
     inkscape:pageopacity="0.0"
     inkscape:pagecheckerboard="0"
     inkscape:deskcolor="#d1d1d1"
     inkscape:zoom="1.3951715"
     inkscape:cx="103.92988"
     inkscape:cy="109.66394"
     inkscape:window-width="1920"
     inkscape:window-height="1008"
     inkscape:window-x="0"
     inkscape:window-y="0"
     inkscape:window-maximized="1"
     inkscape:current-layer="main_svg"
     inkscape:pageshadow="0"
     showgrid="false"
     fit-margin-top="0"
     fit-margin-left="0"
     fit-margin-right="0"
     fit-margin-bottom="0"
     objecttolerance="20"
     inkscape:snap-perpendicular="true"
     inkscape:snap-tangential="true"
     inkscape:snap-path-clip="true"
     inkscape:snap-path-mask="true" />
  <xhtml:style
     type="text/css">.d3arg { position: relative; display: flex; flex-direction: column; justify-content: center; align-items: center; background-color: white; padding: 20px 20px 60px; }.d3arg:hover .dashboard { visibility: visible; }.dashboard { display: flex; visibility: hidden; }.dashboard button { position: relative; font-size: 30px; border: 0px; background-color: white; width: 30px; height: 30px; }.dashboard button .tip { width: 120px; font-size: 12px; background-color: lightgrey; color: rgb(5, 62, 78); text-align: center; padding: 5px 0px; position: absolute; z-index: 1; top: 100%; left: 50%; margin-left: -60px; visibility: hidden; }.dashboard button:hover .desc { visibility: visible; }.dashboard path { fill: grey; }.dashboard button:hover path { fill: rgb(5, 62, 78); }.dashboard button:active path { fill: rgb(30, 235, 177); }.yaxis path { stroke: rgb(5, 62, 78); stroke-width: 3px; }.yaxis line { stroke: rgb(5, 62, 78); stroke-width: 3px; }.yaxis text { fill: rgb(5, 62, 78); }.node { fill: rgb(30, 235, 177); stroke: rgb(5, 62, 78); stroke-width: 4px; }.hiddennode { fill: lightgrey; stroke: lightgrey; stroke-width: 4px; }.underlink { stroke: rgb(255, 255, 255); stroke-width: 12px; fill: none; }.link { stroke: rgb(5, 62, 78); stroke-width: 4px; fill: none; }.hiddenlink { stroke: lightgrey; stroke-width: 4px; fill: none; }.labels { text-anchor: middle; }.label { fill: rgb(5, 62, 78); font-family: Arial; font-size: 12px; }.hiddenlabel { fill: lightgrey; font-family: Arial; font-size: 12px; }svg { display: block; }button { display: block; cursor: pointer; }.saving { display: flex; flex-direction: row; }.saving .message { display: none; }</xhtml:style>
  <text
     class="label"
     text-anchor="start"
     y="-264.60712"
     x="223.54462"
     id="text71"
     style="font-style:normal;font-variant:normal;font-weight:normal;font-stretch:normal;font-size:21.3333px;font-family:Bahnschrift;-inkscape-font-specification:'Bahnschrift, Normal';font-variant-ligatures:normal;font-variant-caps:normal;font-variant-numeric:normal;font-variant-east-asian:normal" />
  <g
     id="g23957"
     transform="translate(0.954,0.635)">
    <g
       id="g19698"
       transform="translate(-0.975,-281.09)">
      <path
         class="link"
         stroke="#053e4e"
         style="stroke:#053e4e;stroke-width:8px"
         path_type="tLb0"
         d="m 120.021,288.91 72.136,159.99951"
         id="path30-2"
         sodipodi:nodetypes="cc" />
      <path
         class="link"
         stroke="#053e4e"
         style="stroke:#053e4e;stroke-width:8px"
         path_type="tLb0"
         d="M 120.021,288.91 47.885,448.90951"
         id="path30"
         sodipodi:nodetypes="cc" />
      <path
         d="m 126.91,290 a 6.91,6.91 0 1 1 -13.82,0 6.91,6.91 0 1 1 13.82,0"
         fill="#1eebb1"
         stroke="#053e4e"
         stroke-width="4"
         id="8697789094_node17"
         class="node flag0"
         parents="18 19"
         children="15 16"
         cx="370.1100169888147"
         cy="221.01490253270345" />
      <path
         d="m 113.132,290 a 6.91,6.91 0 1 0 13.82,0 6.91,6.91 0 1 0 -13.82,0"
         fill="#1eebb1"
         stroke="#053e4e"
         stroke-width="4"
         id="8697789094_node17-7"
         class="node flag0"
         parents="18 19"
         children="15 16"
         cx="370.1100169888147"
         cy="221.01490253270345" />
      <path
         d="m 113.132,290 a 6.91,6.91 0 1 0 13.82,0 6.91,6.91 0 1 0 -13.82,0"
         fill="#1eebb1"
         stroke="#053e4e"
         stroke-width="4"
         id="8697789094_node17-2"
         class="node flag0"
         parents="18 19"
         children="15 16"
         cx="370.1100169888147"
         cy="221.01490253270345" />
      <path
         d="m 126.91,290 a 6.91,6.91 0 1 1 -13.82,0 6.91,6.91 0 1 1 13.82,0"
         fill="#1eebb1"
         stroke="#053e4e"
         stroke-width="4"
         id="8697789094_node17-7-7"
         class="node flag0"
         parents="18 19"
         children="15 16"
         cx="370.1100169888147"
         cy="221.01490253270345" />
    </g>
    <g
       id="g19690"
       transform="translate(-0.975,-281.09)">
      <path
         class="link"
         stroke="#053e4e"
         style="stroke:#053e4e;stroke-width:8px"
         path_type="tLb0"
         d="m 192.157,448.90951 -38,45.00049"
         id="path16-43"
         sodipodi:nodetypes="cc" />
      <path
         class="link"
         stroke="#053e4e"
         style="stroke:#053e4e;stroke-width:8px"
         path_type="tLb0"
         d="m 192.157,448.90951 38,45.00049"
         id="path16-5-97"
         sodipodi:nodetypes="cc" />
      <path
         d="m 161.067,493.91 a 6.91,6.91 0 1 1 -13.82,0 6.91,6.91 0 1 1 13.82,0"
         fill="#1eebb1"
         stroke="#053e4e"
         stroke-width="4"
         id="8697789094_node0-2"
         class="node flag1"
         parents="10"
         children=""
         cx="100"
         cy="700" />
      <path
         d="m 199.06747,448.91 a 6.91,6.91 0 1 1 -13.82,0 6.91,6.91 0 1 1 13.82,0"
         fill="#1eebb1"
         stroke="#053e4e"
         stroke-width="4"
         id="8697789094_node1-5"
         class="node flag1"
         parents="10"
         children=""
         cx="172.22222222222223"
         cy="700" />
      <path
         d="m 237.067,493.91 a 6.91,6.91 0 1 1 -13.82,0 6.91,6.91 0 1 1 13.82,0"
         fill="#1eebb1"
         stroke="#053e4e"
         stroke-width="4"
         id="8697789094_node10-89"
         class="node flag0"
         parents="15"
         children="0 1"
         cx="138.9754727037859"
         cy="652.1014902532703" />
    </g>
    <g
       id="g19681"
       transform="translate(-0.975,-281.09)">
      <path
         class="link"
         stroke="#053e4e"
         style="stroke:#053e4e;stroke-width:8px"
         path_type="tLb0"
         d="M 47.885,448.90951 9.885,493.91"
         id="path16"
         sodipodi:nodetypes="cc" />
      <path
         class="link"
         stroke="#053e4e"
         style="stroke:#053e4e;stroke-width:8px"
         path_type="tLb0"
         d="m 47.885,448.90951 38,45.00049"
         id="path16-5"
         sodipodi:nodetypes="cc" />
      <path
         d="m 16.795,493.91 a 6.91,6.91 0 1 1 -13.82,0 6.91,6.91 0 1 1 13.82,0"
         fill="#1eebb1"
         stroke="#053e4e"
         stroke-width="4"
         id="8697789094_node0"
         class="node flag1"
         parents="10"
         children=""
         cx="100"
         cy="700" />
      <path
         d="m 54.79547,448.91 a 6.91,6.91 0 1 1 -13.82,0 6.91,6.91 0 1 1 13.82,0"
         fill="#1eebb1"
         stroke="#053e4e"
         stroke-width="4"
         id="8697789094_node1"
         class="node flag1"
         parents="10"
         children=""
         cx="172.22222222222223"
         cy="700" />
      <path
         d="m 92.795,493.91 a 6.91,6.91 0 1 1 -13.82,0 6.91,6.91 0 1 1 13.82,0"
         fill="#1eebb1"
         stroke="#053e4e"
         stroke-width="4"
         id="8697789094_node10"
         class="node flag0"
         parents="15"
         children="0 1"
         cx="138.9754727037859"
         cy="652.1014902532703" />
    </g>
    <path
       class="link"
       stroke="#053e4e"
       style="fill:#1eebb1;fill-opacity:1;stroke:#1eebb1;stroke-width:2.15897;stroke-dasharray:none;stroke-opacity:1"
       path_type="tLb0"
       d="m 114.086,130.05828 h 60.30624"
       id="path11-5-3"
       sodipodi:nodetypes="cc" />
    <path
       class="link"
       stroke="#053e4e"
       style="fill:#1eebb1;fill-opacity:1;stroke:#1eebb1;stroke-width:2.407;stroke-dasharray:none;stroke-opacity:1"
       path_type="tLb0"
       d="m 88.004,76.268997 31.02101,22.466"
       id="path11-5-6-7-5-1-3"
       sodipodi:nodetypes="cc" />
    <text
       class="label"
       x="78.420967"
       text-anchor="start"
       y="182.96585"
       id="text70-9-4"
       style="font-style:normal;font-variant:normal;font-weight:normal;font-stretch:normal;font-size:42.6667px;font-family:Bahnschrift;-inkscape-font-specification:'Bahnschrift, Normal';font-variant-ligatures:normal;font-variant-caps:normal;font-variant-numeric:normal;font-variant-east-asian:normal;text-anchor:start;fill:#053e4e;fill-opacity:1">HGT</text>
    <path
       d="m 94.914055,76.268807 a 6.91,6.91 0 1 1 -13.82,0 6.91,6.91 0 1 1 13.82,0"
       fill="#1eebb1"
       stroke="#053e4e"
       stroke-width="4"
       id="8697789094_node11-5"
       class="node flag0"
       parents="15"
       children="2 3"
       cx="282.1746954123935"
       cy="652.1014902532703" />
    <path
       d="m 180.26361,130.05828 a 6.91,6.91 0 1 1 -13.82,0 6.91,6.91 0 1 1 13.82,0"
       fill="#1eebb1"
       stroke="#053e4e"
       stroke-width="4"
       id="8697789094_node11-5-8"
       class="node flag0"
       parents="15"
       children="2 3"
       cx="282.1746954123935"
       cy="652.1014902532703" />
    <g
       id="g22776"
       transform="translate(3.963795,-281.09)">
      <path
         class="link"
         stroke="#053e4e"
         style="fill:#1eebb1;fill-opacity:1;stroke:#1eebb1;stroke-width:2.26217;stroke-dasharray:none;stroke-opacity:1"
         path_type="tLb0"
         d="m 115.06121,379.825 v 31.12773"
         id="path11-5-8"
         sodipodi:nodetypes="cc" />
      <path
         d="m 121.97121,411.14828 a 6.910005,6.910005 0 1 1 -13.82001,0 6.910005,6.910005 0 1 1 13.82001,0"
         fill="#1eebb1"
         stroke="#053e4e"
         stroke-width="4"
         id="8697789094_node11-5-7"
         class="node flag0"
         parents="15"
         children="2 3"
         cx="282.1746954123935"
         cy="652.1014902532703" />
      <path
         d="m 121.97121,379.825 a 6.910005,6.910005 0 1 1 -13.82001,0 6.910005,6.910005 0 1 1 13.82001,0"
         fill="#1eebb1"
         stroke="#053e4e"
         stroke-width="4"
         id="8697789094_node11-5-3"
         class="node flag0"
         parents="15"
         children="2 3"
         cx="282.1746954123935"
         cy="652.1014902532703" />
    </g>
  </g>
</svg>
