<?xml version="1.0" encoding="UTF-8" standalone="no"?>
<svg
   width="513.09814pt"
   height="262.64749pt"
   viewBox="0 0 513.09814 262.64749"
   version="1.1"
   id="svg104"
   sodipodi:docname="cdf.svg"
   inkscape:version="1.3.2 (091e20e, 2023-11-25, custom)"
   inkscape:export-filename="cdf.pdf"
   inkscape:export-xdpi="96"
   inkscape:export-ydpi="96"
   xmlns:inkscape="http://www.inkscape.org/namespaces/inkscape"
   xmlns:sodipodi="http://sodipodi.sourceforge.net/DTD/sodipodi-0.dtd"
   xmlns:xlink="http://www.w3.org/1999/xlink"
   xmlns="http://www.w3.org/2000/svg"
   xmlns:svg="http://www.w3.org/2000/svg"
   xmlns:rdf="http://www.w3.org/1999/02/22-rdf-syntax-ns#"
   xmlns:cc="http://creativecommons.org/ns#"
   xmlns:dc="http://purl.org/dc/elements/1.1/">
  <sodipodi:namedview
     id="namedview104"
     pagecolor="#ffffff"
     bordercolor="#000000"
     borderopacity="0.25"
     inkscape:showpageshadow="2"
     inkscape:pageopacity="0.0"
     inkscape:pagecheckerboard="0"
     inkscape:deskcolor="#d1d1d1"
     inkscape:document-units="pt"
     inkscape:zoom="3.375"
     inkscape:cx="351.11111"
     inkscape:cy="146.37037"
     inkscape:window-width="3840"
     inkscape:window-height="2054"
     inkscape:window-x="-11"
     inkscape:window-y="-11"
     inkscape:window-maximized="1"
     inkscape:current-layer="figure_1" />
  <metadata
     id="metadata1">
    <rdf:RDF>
      <cc:Work>
        <dc:type
           rdf:resource="http://purl.org/dc/dcmitype/StillImage" />
        <dc:date>2024-05-29T19:55:39.973325</dc:date>
        <dc:format>image/svg+xml</dc:format>
        <dc:creator>
          <cc:Agent>
            <dc:title>Matplotlib v3.8.2, https://matplotlib.org/</dc:title>
          </cc:Agent>
        </dc:creator>
      </cc:Work>
    </rdf:RDF>
  </metadata>
  <defs
     id="defs1">
    <style
       type="text/css"
       id="style1">*{stroke-linejoin: round; stroke-linecap: butt}</style>
  </defs>
  <g
     id="figure_1"
     transform="translate(-24.585,-34.16)">
    <g
       id="axes_1">
      <g
         id="patch_2">
        <path
           d="M 72,256.32 H 518.4 V 34.56 H 72 Z"
           style="fill:#ffffff"
           id="path2" />
      </g>
      <g
         id="matplotlib.axis_1">
        <g
           id="xtick_1">
          <g
             id="line2d_1">
            <defs
               id="defs2">
              <path
                 id="me559c17d56"
                 d="M 0,0 V 3.5"
                 style="stroke:#000000;stroke-width:0.8" />
            </defs>
            <g
               id="g2">
              <use
                 xlink:href="#me559c17d56"
                 x="107.69968"
                 y="256.32001"
                 style="stroke:#000000;stroke-width:0.8"
                 id="use2" />
            </g>
          </g>
          <g
             id="text_1">
            <!-- 0 -->
            <g
               transform="matrix(0.16,0,0,-0.16,103.28593,274.68)"
               id="g3">
              <defs
                 id="defs3">
                <path
                   id="Bahnschrift-30"
                   d="m 1766,-47 q -650,0 -974,348 -323,349 -323,943 v 2065 q 0,604 328,947 328,344 969,344 643,0 970,-342 327,-342 327,-949 V 1244 Q 3063,641 2736,297 2409,-47 1766,-47 Z m 0,606 q 350,0 504,183 155,183 155,502 v 2065 q 0,322 -155,503 -154,182 -504,182 -350,0 -505,-182 -155,-181 -155,-503 V 1244 q 0,-319 155,-502 155,-183 505,-183 z"
                   transform="scale(0.015625)" />
              </defs>
              <use
                 xlink:href="#Bahnschrift-30"
                 id="use3" />
            </g>
          </g>
        </g>
        <g
           id="xtick_2">
          <g
             id="line2d_2">
            <g
               id="g4">
              <use
                 xlink:href="#me559c17d56"
                 x="166.37115"
                 y="256.32001"
                 style="stroke:#000000;stroke-width:0.8"
                 id="use4" />
            </g>
          </g>
          <g
             id="text_2">
            <!-- 2000 -->
            <g
               transform="matrix(0.16,0,0,-0.16,148.99741,274.68)"
               id="g8">
              <defs
                 id="defs4">
                <path
                   id="Bahnschrift-32"
                   d="m 400,0 v 553 l 1584,2113 q 138,181 214,374 77,194 77,366 v 7 q 0,271 -160,421 -159,150 -452,150 -275,0 -449,-164 -173,-164 -211,-464 v -3 H 344 v 3 q 84,588 428,911 344,324 884,324 613,0 947,-310 335,-309 335,-875 v -3 q 0,-240 -100,-505 -100,-264 -279,-504 L 1244,606 H 2963 V 0 Z"
                   transform="scale(0.015625)" />
              </defs>
              <use
                 xlink:href="#Bahnschrift-32"
                 id="use5" />
              <use
                 xlink:href="#Bahnschrift-30"
                 x="51.660156"
                 id="use6" />
              <use
                 xlink:href="#Bahnschrift-30"
                 x="106.83594"
                 id="use7" />
              <use
                 xlink:href="#Bahnschrift-30"
                 x="162.01172"
                 id="use8" />
            </g>
          </g>
        </g>
        <g
           id="xtick_3">
          <g
             id="line2d_3">
            <g
               id="g9">
              <use
                 xlink:href="#me559c17d56"
                 x="225.04263"
                 y="256.32001"
                 style="stroke:#000000;stroke-width:0.8"
                 id="use9" />
            </g>
          </g>
          <g
             id="text_3">
            <!-- 4000 -->
            <g
               transform="matrix(0.16,0,0,-0.16,207.25013,274.68)"
               id="g13">
              <defs
                 id="defs9">
                <path
                   id="Bahnschrift-34"
                   d="m 406,697 v 553 l 1525,3291 h 657 L 1100,1288 H 3328 V 697 Z M 2366,-3 v 2675 h 622 V -3 Z"
                   transform="scale(0.015625)" />
              </defs>
              <use
                 xlink:href="#Bahnschrift-34"
                 id="use10" />
              <use
                 xlink:href="#Bahnschrift-30"
                 x="56.884766"
                 id="use11" />
              <use
                 xlink:href="#Bahnschrift-30"
                 x="112.06055"
                 id="use12" />
              <use
                 xlink:href="#Bahnschrift-30"
                 x="167.23633"
                 id="use13" />
            </g>
          </g>
        </g>
        <g
           id="xtick_4">
          <g
             id="line2d_4">
            <g
               id="g14">
              <use
                 xlink:href="#me559c17d56"
                 x="283.71411"
                 y="256.32001"
                 style="stroke:#000000;stroke-width:0.8"
                 id="use14" />
            </g>
          </g>
          <g
             id="text_4">
            <!-- 6000 -->
            <g
               transform="matrix(0.16,0,0,-0.16,266.36785,274.68)"
               id="g18">
              <defs
                 id="defs14">
                <path
                   id="Bahnschrift-36"
                   d="M 1641,-47 Q 1038,-47 706,312 375,672 375,1325 v 3 q 0,294 81,623 82,330 235,637 l 987,1956 h 688 l -1160,-2266 3,113 q 163,309 579,309 534,0 827,-355 294,-354 294,-1001 v -3 Q 2909,681 2578,317 2247,-47 1641,-47 Z m 0,613 q 306,0 468,187 163,188 163,535 v 3 q 0,381 -172,589 -172,208 -491,208 -284,0 -440,-210 -156,-209 -156,-590 v -4 q 0,-346 164,-532 164,-186 464,-186 z"
                   transform="scale(0.015625)" />
              </defs>
              <use
                 xlink:href="#Bahnschrift-36"
                 id="use15" />
              <use
                 xlink:href="#Bahnschrift-30"
                 x="51.318359"
                 id="use16" />
              <use
                 xlink:href="#Bahnschrift-30"
                 x="106.49414"
                 id="use17" />
              <use
                 xlink:href="#Bahnschrift-30"
                 x="161.66992"
                 id="use18" />
            </g>
          </g>
        </g>
        <g
           id="xtick_5">
          <g
             id="line2d_5">
            <g
               id="g19">
              <use
                 xlink:href="#me559c17d56"
                 x="342.38559"
                 y="256.32001"
                 style="stroke:#000000;stroke-width:0.8"
                 id="use19" />
            </g>
          </g>
          <g
             id="text_5">
            <!-- 8000 -->
            <g
               transform="matrix(0.16,0,0,-0.16,324.64433,274.68)"
               id="g23">
              <defs
                 id="defs19">
                <path
                   id="Bahnschrift-38"
                   d="M 1800,-47 Q 1384,-47 1075,109 766,266 594,550 422,834 422,1216 v 75 q 0,340 170,640 171,300 455,453 -238,132 -385,380 -146,249 -146,524 v 109 q 0,541 351,867 352,327 933,327 581,0 932,-327 352,-326 352,-867 v -109 q 0,-282 -148,-529 -148,-246 -392,-375 287,-153 460,-453 174,-300 174,-640 v -75 Q 3178,834 3006,550 2834,266 2525,109 2216,-47 1800,-47 Z m 0,613 q 334,0 539,192 205,192 205,505 v 43 q 0,316 -205,508 -205,192 -539,192 -334,0 -539,-192 -205,-192 -205,-511 v -47 q 0,-312 205,-501 205,-189 539,-189 z m 0,2053 q 291,0 469,184 178,185 178,488 v 43 q 0,291 -178,467 -178,177 -469,177 -291,0 -469,-177 -178,-176 -178,-470 v -47 q 0,-300 178,-483 178,-182 469,-182 z"
                   transform="scale(0.015625)" />
              </defs>
              <use
                 xlink:href="#Bahnschrift-38"
                 id="use20" />
              <use
                 xlink:href="#Bahnschrift-30"
                 x="56.25"
                 id="use21" />
              <use
                 xlink:href="#Bahnschrift-30"
                 x="111.42578"
                 id="use22" />
              <use
                 xlink:href="#Bahnschrift-30"
                 x="166.60156"
                 id="use23" />
            </g>
          </g>
        </g>
        <g
           id="xtick_6">
          <g
             id="line2d_6">
            <g
               id="g24">
              <use
                 xlink:href="#me559c17d56"
                 x="401.05704"
                 y="256.32001"
                 style="stroke:#000000;stroke-width:0.8"
                 id="use24" />
            </g>
          </g>
          <g
             id="text_6">
            <!-- 10000 -->
            <g
               transform="matrix(0.16,0,0,-0.16,380.74205,274.68)"
               id="g29">
              <defs
                 id="defs24">
                <path
                   id="Bahnschrift-31"
                   d="M 1566,4544 V 0 H 928 V 3850 L 281,3453 v 660 l 647,431 z"
                   transform="scale(0.015625)" />
              </defs>
              <use
                 xlink:href="#Bahnschrift-31"
                 id="use25" />
              <use
                 xlink:href="#Bahnschrift-30"
                 x="33.251953"
                 id="use26" />
              <use
                 xlink:href="#Bahnschrift-30"
                 x="88.427734"
                 id="use27" />
              <use
                 xlink:href="#Bahnschrift-30"
                 x="143.60352"
                 id="use28" />
              <use
                 xlink:href="#Bahnschrift-30"
                 x="198.7793"
                 id="use29" />
            </g>
          </g>
        </g>
        <g
           id="xtick_7">
          <g
             id="line2d_7">
            <g
               id="g30">
              <use
                 xlink:href="#me559c17d56"
                 x="459.72852"
                 y="256.32001"
                 style="stroke:#000000;stroke-width:0.8"
                 id="use30" />
            </g>
          </g>
          <g
             id="text_7">
            <!-- 12000 -->
            <g
               transform="matrix(0.16,0,0,-0.16,439.69478,274.68)"
               id="g35">
              <use
                 xlink:href="#Bahnschrift-31"
                 id="use31" />
              <use
                 xlink:href="#Bahnschrift-32"
                 x="33.251953"
                 id="use32" />
              <use
                 xlink:href="#Bahnschrift-30"
                 x="84.912109"
                 id="use33" />
              <use
                 xlink:href="#Bahnschrift-30"
                 x="140.08789"
                 id="use34" />
              <use
                 xlink:href="#Bahnschrift-30"
                 x="195.26367"
                 id="use35" />
            </g>
          </g>
        </g>
        <g
           id="xtick_8">
          <g
             id="line2d_8">
            <g
               id="g36">
              <use
                 xlink:href="#me559c17d56"
                 x="518.40002"
                 y="256.32001"
                 style="stroke:#000000;stroke-width:0.8"
                 id="use36" />
            </g>
          </g>
          <g
             id="text_8">
            <!-- 14000 -->
            <g
               transform="matrix(0.16,0,0,-0.16,497.9475,274.68)"
               id="g41">
              <use
                 xlink:href="#Bahnschrift-31"
                 id="use37" />
              <use
                 xlink:href="#Bahnschrift-34"
                 x="33.251953"
                 id="use38" />
              <use
                 xlink:href="#Bahnschrift-30"
                 x="90.136719"
                 id="use39" />
              <use
                 xlink:href="#Bahnschrift-30"
                 x="145.3125"
                 id="use40" />
              <use
                 xlink:href="#Bahnschrift-30"
                 x="200.48828"
                 id="use41" />
            </g>
          </g>
        </g>
        <g
           id="text_9">
          <!-- χ²-like error -->
          <g
             transform="matrix(0.16,0,0,-0.16,250.94,293.3925)"
             id="g54">
            <defs
               id="defs41">
              <path
                 id="Bahnschrift-3c7"
                 d="m 2753,-1366 q -147,0 -272,63 -125,62 -228,192 -103,130 -194,323 L 600,2438 q -53,118 -119,182 -65,64 -159,64 H 94 v 607 h 322 q 150,0 273,-63 124,-62 228,-191 105,-128 192,-324 L 2569,-513 q 53,-115 134,-180 81,-66 269,-66 h 106 v -607 z m -2628,47 1225,2460 338,-547 -866,-1913 z m 1772,2103 -338,547 775,1913 h 697 z"
                 transform="scale(0.015625)" />
              <path
                 id="Bahnschrift-b2"
                 d="m 378,2597 v 441 l 422,365 q 250,213 322,320 72,108 72,240 v 0 q 0,162 -160,162 -87,0 -140,-55 -53,-54 -69,-164 v 0 H 313 v 0 q 21,332 208,496 188,164 492,164 353,0 529,-150 177,-150 177,-447 v -3 q 0,-163 -97,-307 -97,-143 -319,-362 l -240,-234 h 656 v -466 z"
                 transform="scale(0.015625)" />
              <path
                 id="Bahnschrift-2d"
                 d="M 500,1931 H 2600 V 1325 H 500 Z"
                 transform="scale(0.015625)" />
              <path
                 id="Bahnschrift-6c"
                 d="M 1138,4544 V 838 q 0,-116 51,-182 52,-65 145,-65 h 300 V -16 H 1259 Q 900,-16 700,209 500,434 500,844 v 3700 z"
                 transform="scale(0.015625)" />
              <path
                 id="Bahnschrift-69"
                 d="m 500,3906 v 638 h 638 V 3906 Z M 500,0 v 3244 h 638 V 0 Z"
                 transform="scale(0.015625)" />
              <path
                 id="Bahnschrift-6b"
                 d="m 734,475 41,756 1669,2013 h 750 z M 500,0 v 4544 h 638 V 0 Z M 2659,0 1528,1872 1938,2297 3353,0 Z"
                 transform="scale(0.015625)" />
              <path
                 id="Bahnschrift-65"
                 d="M 1828,-47 Q 1150,-47 778,331 406,709 406,1406 v 366 q 0,725 358,1122 358,397 1008,397 612,0 948,-450 336,-450 336,-1263 V 1366 H 869 v 512 h 1581 v 0 q -28,394 -205,616 -176,222 -473,222 -359,0 -559,-238 -200,-237 -200,-672 v -412 q 0,-403 214,-619 214,-216 601,-216 194,0 384,78 191,79 341,219 v 0 l 419,-418 v 0 Q 2731,206 2431,79 2131,-47 1828,-47 Z"
                 transform="scale(0.015625)" />
              <path
                 id="Bahnschrift-20"
                 transform="scale(0.015625)"
                 d="" />
              <path
                 id="Bahnschrift-72"
                 d="m 500,0 v 3244 h 638 V 0 Z m 1784,2475 q -84,103 -212,156 -128,53 -297,53 -303,0 -470,-167 -167,-167 -167,-464 l -66,625 q 147,288 386,450 239,163 526,163 222,0 402,-64 180,-64 314,-189 z"
                 transform="scale(0.015625)" />
              <path
                 id="Bahnschrift-6f"
                 d="M 1744,-47 Q 1106,-47 756,323 406,694 406,1366 v 528 q 0,665 350,1031 350,366 988,366 637,0 987,-366 350,-366 350,-1031 V 1356 Q 3081,688 2731,320 2381,-47 1744,-47 Z m 0,606 q 334,0 517,209 183,210 183,588 v 538 q 0,378 -183,584 -183,206 -517,206 -331,0 -516,-206 -184,-206 -184,-584 v -538 q 0,-378 184,-588 185,-209 516,-209 z"
                 transform="scale(0.015625)" />
            </defs>
            <use
               xlink:href="#Bahnschrift-3c7"
               id="use42" />
            <use
               xlink:href="#Bahnschrift-b2"
               x="50.537109"
               id="use43" />
            <use
               xlink:href="#Bahnschrift-2d"
               x="81.787109"
               id="use44" />
            <use
               xlink:href="#Bahnschrift-6c"
               x="129.73633"
               id="use45" />
            <use
               xlink:href="#Bahnschrift-69"
               x="158.69141"
               id="use46" />
            <use
               xlink:href="#Bahnschrift-6b"
               x="183.78906"
               id="use47" />
            <use
               xlink:href="#Bahnschrift-65"
               x="236.66992"
               id="use48" />
            <use
               xlink:href="#Bahnschrift-20"
               x="290.2832"
               id="use49" />
            <use
               xlink:href="#Bahnschrift-65"
               x="317.13867"
               id="use50" />
            <use
               xlink:href="#Bahnschrift-72"
               x="370.75195"
               id="use51" />
            <use
               xlink:href="#Bahnschrift-72"
               x="413.42773"
               id="use52" />
            <use
               xlink:href="#Bahnschrift-6f"
               x="456.10352"
               id="use53" />
            <use
               xlink:href="#Bahnschrift-72"
               x="510.5957"
               id="use54" />
          </g>
        </g>
      </g>
      <g
         id="matplotlib.axis_2">
        <g
           id="ytick_1">
          <g
             id="line2d_9">
            <defs
               id="defs54">
              <path
                 id="m489110af84"
                 d="M 0,0 H -3.5"
                 style="stroke:#000000;stroke-width:0.8" />
            </defs>
            <g
               id="g55">
              <use
                 xlink:href="#m489110af84"
                 x="72"
                 y="246.34085"
                 style="stroke:#000000;stroke-width:0.8"
                 id="use55" />
            </g>
          </g>
          <g
             id="text_10">
            <!-- 0.0 -->
            <g
               transform="matrix(0.16,0,0,-0.16,43.72,252.02085)"
               id="g58">
              <defs
                 id="defs55">
                <path
                   id="Bahnschrift-2e"
                   d="m 391,0 v 669 h 668 V 0 Z"
                   transform="scale(0.015625)" />
              </defs>
              <use
                 xlink:href="#Bahnschrift-30"
                 id="use56" />
              <use
                 xlink:href="#Bahnschrift-2e"
                 x="55.175781"
                 id="use57" />
              <use
                 xlink:href="#Bahnschrift-30"
                 x="77.832031"
                 id="use58" />
            </g>
          </g>
        </g>
        <g
           id="ytick_2">
          <g
             id="line2d_10">
            <g
               id="g59">
              <use
                 xlink:href="#m489110af84"
                 x="72"
                 y="206.00069"
                 style="stroke:#000000;stroke-width:0.8"
                 id="use59" />
            </g>
          </g>
          <g
             id="text_11">
            <!-- 0.2 -->
            <g
               transform="matrix(0.16,0,0,-0.16,44.2825,211.68068)"
               id="g62">
              <use
                 xlink:href="#Bahnschrift-30"
                 id="use60" />
              <use
                 xlink:href="#Bahnschrift-2e"
                 x="55.175781"
                 id="use61" />
              <use
                 xlink:href="#Bahnschrift-32"
                 x="77.832031"
                 id="use62" />
            </g>
          </g>
        </g>
        <g
           id="ytick_3">
          <g
             id="line2d_11">
            <g
               id="g63">
              <use
                 xlink:href="#m489110af84"
                 x="72"
                 y="165.66051"
                 style="stroke:#000000;stroke-width:0.8"
                 id="use63" />
            </g>
          </g>
          <g
             id="text_12">
            <!-- 0.4 -->
            <g
               transform="matrix(0.16,0,0,-0.16,43.445,171.34051)"
               id="g66">
              <use
                 xlink:href="#Bahnschrift-30"
                 id="use64" />
              <use
                 xlink:href="#Bahnschrift-2e"
                 x="55.175781"
                 id="use65" />
              <use
                 xlink:href="#Bahnschrift-34"
                 x="77.832031"
                 id="use66" />
            </g>
          </g>
        </g>
        <g
           id="ytick_4">
          <g
             id="line2d_12">
            <g
               id="g67">
              <use
                 xlink:href="#m489110af84"
                 x="72"
                 y="125.32034"
                 style="stroke:#000000;stroke-width:0.8"
                 id="use67" />
            </g>
          </g>
          <g
             id="text_13">
            <!-- 0.6 -->
            <g
               transform="matrix(0.16,0,0,-0.16,44.3375,131.00034)"
               id="g70">
              <use
                 xlink:href="#Bahnschrift-30"
                 id="use68" />
              <use
                 xlink:href="#Bahnschrift-2e"
                 x="55.175781"
                 id="use69" />
              <use
                 xlink:href="#Bahnschrift-36"
                 x="77.832031"
                 id="use70" />
            </g>
          </g>
        </g>
        <g
           id="ytick_5">
          <g
             id="line2d_13">
            <g
               id="g71">
              <use
                 xlink:href="#m489110af84"
                 x="72"
                 y="84.980171"
                 style="stroke:#000000;stroke-width:0.8"
                 id="use71" />
            </g>
          </g>
          <g
             id="text_14">
            <!-- 0.8 -->
            <g
               transform="matrix(0.16,0,0,-0.16,43.5475,90.66017)"
               id="g74">
              <use
                 xlink:href="#Bahnschrift-30"
                 id="use72" />
              <use
                 xlink:href="#Bahnschrift-2e"
                 x="55.175781"
                 id="use73" />
              <use
                 xlink:href="#Bahnschrift-38"
                 x="77.832031"
                 id="use74" />
            </g>
          </g>
        </g>
        <g
           id="ytick_6">
          <g
             id="line2d_14">
            <g
               id="g75">
              <use
                 xlink:href="#m489110af84"
                 x="72"
                 y="44.639999"
                 style="stroke:#000000;stroke-width:0.8"
                 id="use75" />
            </g>
          </g>
          <g
             id="text_15">
            <!-- 1.0 -->
            <g
               transform="matrix(0.16,0,0,-0.16,47.2275,50.32)"
               id="g78">
              <use
                 xlink:href="#Bahnschrift-31"
                 id="use76" />
              <use
                 xlink:href="#Bahnschrift-2e"
                 x="33.251953"
                 id="use77" />
              <use
                 xlink:href="#Bahnschrift-30"
                 x="55.908203"
                 id="use78" />
            </g>
          </g>
        </g>
        <g
           id="text_16">
          <!-- Cumulative probability -->
          <g
             transform="matrix(0,-0.16,-0.16,0,36.0625,225.65625)"
             id="g100">
            <defs
               id="defs78">
              <path
                 id="Bahnschrift-43"
                 d="m 2050,-47 q -475,0 -831,211 -356,211 -553,592 -197,382 -197,891 v 1247 q 0,512 197,893 197,382 553,593 356,211 831,211 394,0 720,-169 327,-169 547,-472 221,-303 299,-709 v 0 h -653 v 0 q -60,218 -199,382 -139,165 -327,255 -187,91 -387,91 -419,0 -674,-296 -254,-295 -254,-779 V 1647 q 0,-484 254,-778 255,-294 674,-294 297,0 559,187 263,188 354,541 v 0 h 653 v 0 Q 3538,897 3316,594 3094,291 2769,122 2444,-47 2050,-47 Z"
                 transform="scale(0.015625)" />
              <path
                 id="Bahnschrift-75"
                 d="m 2456,0 v 3244 h 635 V 0 Z M 1138,3244 V 1272 q 0,-341 173,-527 173,-186 489,-186 316,0 486,167 170,168 170,471 l 44,-678 Q 2413,300 2194,126 1975,-47 1622,-47 1084,-47 792,298 500,644 500,1272 v 1972 z"
                 transform="scale(0.015625)" />
              <path
                 id="Bahnschrift-6d"
                 d="m 4375,0 v 1966 q 0,343 -177,530 -176,188 -501,188 -297,0 -460,-181 -162,-181 -162,-512 l -128,625 q 156,325 406,500 250,175 553,175 528,0 817,-346 290,-345 290,-976 V 0 Z M 500,0 v 3244 h 638 V 0 Z m 1938,0 v 1966 q 0,343 -169,530 -169,188 -478,188 -313,0 -483,-166 -170,-165 -170,-465 l -66,625 q 150,294 392,453 242,160 536,160 513,0 794,-346 281,-345 281,-976 V 0 Z"
                 transform="scale(0.015625)" />
              <path
                 id="Bahnschrift-61"
                 d="m 2331,0 v 2056 q 0,319 -170,495 -170,177 -483,177 -190,0 -376,-58 -186,-57 -333,-167 l -466,319 q 185,222 486,345 302,124 670,124 610,0 944,-316 335,-316 335,-891 V 0 Z m -793,-47 q -597,0 -896,247 -298,247 -298,756 0,485 273,724 274,239 821,239 h 921 l 44,-513 h -962 q -247,0 -372,-111 -125,-111 -125,-339 0,-247 165,-366 166,-118 497,-118 363,0 544,78 181,78 181,244 l 66,-456 Q 2313,206 2188,122 2063,38 1902,-4 1741,-47 1538,-47 Z"
                 transform="scale(0.015625)" />
              <path
                 id="Bahnschrift-74"
                 d="M 1344,-16 Q 944,-16 764,206 584,428 584,844 v 3344 h 638 V 838 q 0,-116 47,-182 47,-65 137,-65 h 307 V -16 Z M 250,2669 v 575 h 1463 v -575 z"
                 transform="scale(0.015625)" />
              <path
                 id="Bahnschrift-76"
                 d="m 1616,928 793,2316 h 666 L 1856,0 H 1375 L 156,3244 h 666 z"
                 transform="scale(0.015625)" />
              <path
                 id="Bahnschrift-70"
                 d="m 500,-1319 v 4563 h 638 V -1319 Z M 1953,-47 q -303,0 -528,145 -225,146 -331,411 l 44,679 q 0,-210 75,-357 75,-147 217,-225 142,-78 345,-78 316,0 489,192 174,193 174,543 v 703 q 0,356 -174,553 -173,197 -489,197 -203,0 -345,-75 -142,-75 -217,-219 -75,-144 -75,-350 l -66,625 q 147,284 384,439 238,155 528,155 522,0 806,-346 285,-345 285,-976 V 1263 Q 3075,641 2781,297 2488,-47 1953,-47 Z"
                 transform="scale(0.015625)" />
              <path
                 id="Bahnschrift-62"
                 d="m 1953,-47 q -303,0 -528,145 -225,146 -331,411 l 44,679 q 0,-210 75,-357 75,-147 217,-225 142,-78 345,-78 316,0 489,192 174,193 174,543 v 703 q 0,356 -174,553 -173,197 -489,197 -203,0 -345,-75 -142,-75 -217,-219 -75,-144 -75,-350 l -66,625 q 147,284 384,439 238,155 528,155 522,0 806,-346 285,-345 285,-976 V 1263 Q 3075,641 2781,297 2488,-47 1953,-47 Z M 500,0 v 4544 h 638 V 0 Z"
                 transform="scale(0.015625)" />
              <path
                 id="Bahnschrift-79"
                 d="m 2378,3244 h 650 L 1647,-759 q -116,-335 -335,-464 -218,-130 -599,-130 H 584 v 612 h 129 q 178,0 282,72 105,72 183,247 z M 1450,-266 156,3244 H 806 L 1803,425 Z"
                 transform="scale(0.015625)" />
            </defs>
            <use
               xlink:href="#Bahnschrift-43"
               id="use79" />
            <use
               xlink:href="#Bahnschrift-75"
               x="61.865234"
               id="use80" />
            <use
               xlink:href="#Bahnschrift-6d"
               x="117.48047"
               id="use81" />
            <use
               xlink:href="#Bahnschrift-75"
               x="203.125"
               id="use82" />
            <use
               xlink:href="#Bahnschrift-6c"
               x="258.74023"
               id="use83" />
            <use
               xlink:href="#Bahnschrift-61"
               x="287.69531"
               id="use84" />
            <use
               xlink:href="#Bahnschrift-74"
               x="340.91797"
               id="use85" />
            <use
               xlink:href="#Bahnschrift-69"
               x="373.53516"
               id="use86" />
            <use
               xlink:href="#Bahnschrift-76"
               x="398.63281"
               id="use87" />
            <use
               xlink:href="#Bahnschrift-65"
               x="448.63281"
               id="use88" />
            <use
               xlink:href="#Bahnschrift-20"
               x="502.24609"
               id="use89" />
            <use
               xlink:href="#Bahnschrift-70"
               x="529.10156"
               id="use90" />
            <use
               xlink:href="#Bahnschrift-72"
               x="583.49609"
               id="use91" />
            <use
               xlink:href="#Bahnschrift-6f"
               x="626.17188"
               id="use92" />
            <use
               xlink:href="#Bahnschrift-62"
               x="680.66406"
               id="use93" />
            <use
               xlink:href="#Bahnschrift-61"
               x="735.05859"
               id="use94" />
            <use
               xlink:href="#Bahnschrift-62"
               x="788.28125"
               id="use95" />
            <use
               xlink:href="#Bahnschrift-69"
               x="842.67578"
               id="use96" />
            <use
               xlink:href="#Bahnschrift-6c"
               x="867.77344"
               id="use97" />
            <use
               xlink:href="#Bahnschrift-69"
               x="896.72852"
               id="use98" />
            <use
               xlink:href="#Bahnschrift-74"
               x="921.82617"
               id="use99" />
            <use
               xlink:href="#Bahnschrift-79"
               x="954.44336"
               id="use100" />
          </g>
        </g>
      </g>
      <g
         id="line2d_15">
        <path
           d="m 108.85195,246.24 0.58761,-0.30255 0.51278,-0.4034 0.37863,-0.70596 0.19985,-0.2017 0.15689,-0.6051 0.2193,-0.2017 0.10461,-0.30255 0.22224,-0.2017 0.17001,-1.00851 0.15785,-0.2017 0.14845,-0.6051 0.11691,-0.70595 0.1787,-0.70596 0.23973,-1.51275 0.22194,-0.80681 0.0666,-0.70595 0.10024,-0.2017 0.15812,-1.31106 0.0537,-0.4034 0.18649,-1.71445 0.0708,-0.70596 0.13518,-1.10935 0.0701,-0.4034 0.29447,-2.72296 0.23371,-2.72297 0.0773,-0.4034 0.43244,-3.52976 0.13974,-1.10936 0.41987,-3.12636 0.0633,-0.8068 0.36445,-4.43742 0.32048,-4.23572 0.0549,-0.50425 0.36987,-3.83232 0.11975,-1.31106 0.067,-0.4034 0.46544,-4.23571 0.21151,-2.92467 0.3576,-4.43742 0.20514,-3.42891 0.0427,-0.6051 0.89516,-8.16889 0.13261,-1.0085 0.12383,-1.31106 0.0982,-0.50425 0.19276,-2.52126 0.47822,-4.84082 0.13794,-1.71446 0.16924,-1.8153 0.21931,-1.51276 0.11803,-1.41191 0.38488,-4.43742 0.21307,-2.42041 0.21833,-1.2102 0.0709,-0.4034 0.12181,-0.70596 0.12736,-0.50425 0.13585,-1.4119 0.0621,-0.40341 0.19608,-2.11785 0.18681,-0.90766 0.13467,-0.8068 0.1991,-1.61361 0.55171,-2.52126 0.54428,-3.42891 0.21998,-1.41191 0.13777,-1.2102 0.2624,-1.41191 0.11026,-0.4034 0.15985,-0.80681 1.15716,-5.24422 0.0944,-0.30255 0.32907,-1.31105 0.24499,-1.31106 0.12033,-0.70595 0.20888,-0.80681 0.56319,-2.11786 0.19592,-0.8068 0.12965,-0.2017 0.14509,-0.4034 0.87278,-2.42041 0.15767,-0.50425 0.20033,-0.70596 0.14946,-1.31105 0.45751,-0.8068 0.21473,-0.40341 0.0792,-0.30255 0.26517,-1.2102 0.0731,-0.30255 0.19401,-1.00851 0.11905,-0.2017 0.2446,-0.8068 0.23884,-0.30255 0.0461,-0.2017 0.30485,-0.40341 0.0446,-0.2017 0.2085,-0.2017 0.0604,-0.30255 0.30405,-0.4034 0.29108,-0.70595 0.25305,-0.70596 0.088,-0.4034 0.3197,-0.30255 0.17134,-0.2017 0.0833,-0.30255 0.60632,-0.80681 0.12806,-0.50425 0.18745,-0.50425 0.32247,-0.6051 0.19263,-0.4034 0.008,-0.10086 0.43029,-0.30255 0.20313,-0.30255 0.0626,-0.30255 0.3254,-0.2017 0.48436,-0.6051 0.0612,-0.30255 0.18809,-0.40341 0.23157,-0.504247 0.53363,-0.302552 0.0853,-0.201701 0.40362,-0.403401 0.13009,-0.302552 0.37708,-0.302551 0.0199,-0.10085 0.37021,-0.302551 0.28097,-0.302552 0.11719,-0.302551 0.25632,-0.605103 0.0715,-0.2017 0.43254,-0.504253 0.20629,-0.2017 0.3224,-0.504253 0.12539,-0.705953 0.16789,-0.403401 0.0405,-0.201701 0.33662,-0.302551 0.10619,-0.403402 0.25075,-0.302551 0.084,-0.302552 0.16879,-0.2017 0.01,-0.201701 0.28571,-0.302552 0.50451,-0.907653 0.28126,-0.201701 0.053,-0.201701 0.58731,-0.302551 0.10919,-0.302552 0.32197,-0.302551 0.34794,-0.907654 0.0292,-0.201701 0.13135,-0.2017 0.0532,-0.201701 0.12938,-0.302552 0.0311,-0.10085 0.26834,-0.201701 0.53409,-1.109355 0.25903,-0.10085 0.60769,-0.201701 0.16782,-0.201701 0.19482,-0.705953 0.008,-0.10085 0.48963,-0.302551 0.0484,-0.100851 0.34506,-0.201701 0.58743,-0.605102 0.21325,-0.403402 0.57449,-0.302551 0.0793,-0.201701 0.37492,-0.403402 0.12845,-0.302551 0.36279,-0.504252 0.40523,-0.302551 0.69203,-1.008505 0.52554,-0.2017 0.26756,-0.302552 0.0385,-0.10085 0.60933,-0.403402 0.31871,-0.403402 0.40811,-0.2017 0.0234,-0.100851 0.18247,-0.10085 0.97779,-0.302552 0.12645,-0.2017 1.63356,-1.008505 0.24302,-0.201701 0.75454,-0.806803 0.4614,-0.302551 0.0575,-0.100851 0.57568,-0.302551 1.0848,-0.201701 0.14268,-0.403401 0.65903,-0.403402 0.0206,-0.100851 0.36967,-0.2017 0.49815,-0.605103 0.08,-0.10085 0.62673,-0.201701 0.28527,-0.403402 0.70022,-0.302551 0.11023,-0.201701 0.14602,-0.10085 1.09834,-0.403402 0.22932,-0.100851 0.65767,-0.2017 0.01,-0.100851 0.56041,-0.302551 0.88107,-0.201701 0.22784,-0.201701 0.074,-0.10085 0.49138,-0.302552 0.24232,-0.2017 0.44847,-0.302552 0.21716,-0.302551 0.11576,-0.201701 1.24039,-0.302551 0.75002,-0.806804 0.73321,-0.2017 0.63616,-0.302552 1.41716,-0.403401 0.2194,-0.201701 0.64215,-0.201701 0.26753,-0.201701 0.42164,-0.403402 0.76869,-0.302551 1.01337,-0.403402 1.23403,-0.2017 0.27076,-0.201701 1.4839,-0.504252 0.004,-0.100851 0.25636,-0.10085 2.48228,-0.403402 0.14402,-0.302551 0.61356,-0.201701 0.11275,-0.10085 1.77377,-0.705953 0.15396,-0.201701 0.36982,-0.302552 0.6256,-0.2017 2.97316,-0.806804 0.0919,-0.10085 0.45137,-0.201701 0.20873,-0.201701 1.08515,-0.201701 0.0703,-0.10085 0.59262,-0.201701 0.43136,-0.302551 0.15635,-0.201701 2.43837,-0.504252 0.0751,-0.100851 0.73222,-0.201701 2.58446,-0.605102 0.0495,-0.100851 0.52926,-0.2017 0.35733,-0.100851 1.05191,-0.201701 0.58601,-0.201701 0.0476,-0.10085 0.86273,-0.201701 2.26989,-0.504252 3.19523,-0.403402 0.17037,-0.10085 0.5042,-0.100851 1.94101,-0.2017 0.5483,-0.201701 0.0272,-0.100851 0.595,-0.10085 1.73807,-0.201701 0.81687,-0.302551 3.99915,-0.201701 1.45513,-0.201701 2.13397,-0.302551 1.0544,-0.201701 1.90128,-0.201701 0.35581,-0.10085 2.80171,-0.201701 0.11627,-0.100851 3.85189,-0.403401 1.27579,-0.302552 1.11282,-0.10085 3.36273,-0.201701 6.2486,-0.403402 4.71613,-0.2017 0.89627,-0.201701 1.17806,-0.403402 2.13616,-0.403402 2.16917,-0.2017 0.0366,-0.100851 0.5146,-0.10085 9.66158,-0.705953 0.30532,-0.100851 0.7021,-0.10085 3.64145,-0.201701 0.003,-0.10085 2.03816,-0.201701 0.033,-0.100851 0.34961,-0.10085 1.114,-0.100851 6.99411,-0.2017 2.73672,-0.201701 3.62976,-0.302552 0.23191,-0.10085 10.42294,-0.302551 1.33083,-0.201701 6.69415,-0.201701 1.01198,-0.201701 27.77697,-0.806803 1.40863,-0.100851 16.8937,-0.2017 36.32297,-0.403402 68.90392,-0.302551 13.78179,-0.100851 79.73402,-0.10085 v 0"
           clip-path="url(#p91b6e84edd)"
           style="fill:none;stroke:#5dc694;stroke-width:1.5;stroke-linecap:square"
           id="path100" />
      </g>
      <g
         id="patch_3">
        <path
           d="M 72,256.32 V 34.56"
           style="fill:none;stroke:#000000;stroke-width:0.8;stroke-linecap:square;stroke-linejoin:miter"
           id="path101" />
      </g>
      <g
         id="patch_4">
        <path
           d="M 518.4,256.32 V 34.56"
           style="fill:none;stroke:#000000;stroke-width:0.8;stroke-linecap:square;stroke-linejoin:miter"
           id="path102" />
      </g>
      <g
         id="patch_5">
        <path
           d="M 72,256.32 H 518.4"
           style="fill:none;stroke:#000000;stroke-width:0.8;stroke-linecap:square;stroke-linejoin:miter"
           id="path103" />
      </g>
      <g
         id="patch_6">
        <path
           d="M 72,34.56 H 518.4"
           style="fill:none;stroke:#000000;stroke-width:0.8;stroke-linecap:square;stroke-linejoin:miter"
           id="path104" />
      </g>
    </g>
  </g>
  <defs
     id="defs104">
    <clipPath
       id="p91b6e84edd">
      <rect
         x="72"
         y="34.560001"
         width="446.39999"
         height="221.75999"
         id="rect104" />
    </clipPath>
  </defs>
</svg>
