<?xml version="1.0" encoding="UTF-8" standalone="no"?>
<svg
   width="1163.3275pt"
   height="259.29501pt"
   viewBox="0 0 1163.3275 259.29501"
   version="1.1"
   id="svg115"
   sodipodi:docname="gfs.svg"
   inkscape:version="1.1.2 (0a00cf5339, 2022-02-04)"
   inkscape:export-filename="gfs.pdf"
   inkscape:export-xdpi="96"
   inkscape:export-ydpi="96"
   xmlns:inkscape="http://www.inkscape.org/namespaces/inkscape"
   xmlns:sodipodi="http://sodipodi.sourceforge.net/DTD/sodipodi-0.dtd"
   xmlns:xlink="http://www.w3.org/1999/xlink"
   xmlns="http://www.w3.org/2000/svg"
   xmlns:svg="http://www.w3.org/2000/svg"
   xmlns:rdf="http://www.w3.org/1999/02/22-rdf-syntax-ns#"
   xmlns:cc="http://creativecommons.org/ns#"
   xmlns:dc="http://purl.org/dc/elements/1.1/">
  <sodipodi:namedview
     id="namedview115"
     pagecolor="#ffffff"
     bordercolor="#000000"
     borderopacity="0.25"
     inkscape:showpageshadow="2"
     inkscape:pageopacity="0.0"
     inkscape:pagecheckerboard="0"
     inkscape:deskcolor="#d1d1d1"
     inkscape:document-units="pt"
     inkscape:zoom="1.35"
     inkscape:cx="781.85185"
     inkscape:cy="145.92593"
     inkscape:window-width="1920"
     inkscape:window-height="1008"
     inkscape:window-x="0"
     inkscape:window-y="0"
     inkscape:window-maximized="1"
     inkscape:current-layer="axes_1"
     inkscape:pageshadow="0"
     showgrid="false"
     fit-margin-top="0"
     fit-margin-left="0"
     fit-margin-right="0"
     fit-margin-bottom="0" />
  <metadata
     id="metadata1">
    <rdf:RDF>
      <cc:Work>
        <dc:type
           rdf:resource="http://purl.org/dc/dcmitype/StillImage" />
        <dc:date>2024-05-29T21:34:01.860816</dc:date>
        <dc:format>image/svg+xml</dc:format>
        <dc:creator>
          <cc:Agent>
            <dc:title>Matplotlib v3.8.2, https://matplotlib.org/</dc:title>
          </cc:Agent>
        </dc:creator>
      </cc:Work>
    </rdf:RDF>
  </metadata>
  <defs
     id="defs1">
    <style
       type="text/css"
       id="style1">*{stroke-linejoin: round; stroke-linecap: butt}</style>
  </defs>
  <g
     id="figure_1"
     transform="translate(-133.0725,-34.16)">
    <g
       id="axes_1">
      <g
         id="patch_2">
        <path
           d="M 180,256.32 H 1296 V 34.56 H 180 Z"
           style="fill:#ffffff"
           id="path2" />
      </g>
      <g
         id="PolyCollection_1">
        <defs
           id="defs2">
          <path
             id="m00c7641be4"
             d="m 235.83316,-45.300777 h -0.0663 l -0.0417,-1.236092 -0.0825,-1.236092 -0.15179,-1.236092 -0.26004,-1.236091 -0.41613,-1.236092 -0.62354,-1.236092 -0.87659,-1.236092 -1.15803,-1.236091 -1.43963,-1.236092 -1.6865,-1.236092 -1.86445,-1.236092 -1.94793,-1.236091 -1.92512,-1.236092 -1.79877,-1.236092 -1.58275,-1.236091 -1.29651,-1.236092 -0.96036,-1.236092 -0.59335,-1.236092 -0.21482,-1.236091 0.15261,-1.236092 0.48207,-1.236092 0.74635,-1.236092 0.92558,-1.236091 1.01494,-1.236092 1.02773,-1.236092 0.99204,-1.236092 0.94209,-1.236091 0.90706,-1.236092 0.90121,-1.236092 0.91891,-1.236092 0.9374,-1.236091 0.92807,-1.236092 0.87116,-1.236092 0.76685,-1.236092 0.63549,-1.236091 0.50747,-1.236092 0.4082,-1.236092 0.34761,-1.236092 0.31868,-1.236091 0.30489,-1.236092 0.29066,-1.236092 0.26907,-1.236092 0.243,-1.236091 0.22035,-1.236092 0.20703,-1.236096 0.20285,-1.23609 0.20211,-1.23609 0.19813,-1.23609 0.18746,-1.23609 0.17111,-1.2361 0.1524,-1.23609 0.13378,-1.23609 0.11549,-1.23609 0.0963,-1.23609 0.0754,-1.23609 0.054,-1.2361 0.0353,-1.23609 0.0229,-1.23609 0.0198,-1.23609 0.0265,-1.23609 0.0402,-1.23609 0.0558,-1.23609 0.0678,-1.2361 0.0726,-1.23609 0.0702,-1.23609 0.0633,-1.23609 0.0561,-1.23609 0.0516,-1.2361 0.0503,-1.23609 0.0511,-1.23609 0.0515,-1.23609 0.0499,-1.23609 0.0455,-1.23609 0.0394,-1.2361 0.0326,-1.23609 0.0263,-1.23609 0.0208,-1.23609 0.016,-1.23609 0.0115,-1.23609 0.007,-1.2361 0.003,-1.23609 -10e-4,-1.23609 -0.005,-1.23609 -0.007,-1.23609 -0.007,-1.2361 -0.007,-1.23609 -0.004,-1.23609 -0.001,-1.23609 0.002,-1.23609 0.006,-1.23609 0.0101,-1.2361 0.0139,-1.23609 0.017,-1.23609 0.0188,-1.23609 0.0189,-1.23609 0.0171,-1.23609 0.014,-1.2361 0.0103,-1.23609 0.007,-1.23609 h 0.016 v 0 l 0.007,1.23609 0.0103,1.23609 0.014,1.2361 0.0171,1.23609 0.0189,1.23609 0.0188,1.23609 0.017,1.23609 0.0139,1.23609 0.0101,1.2361 0.006,1.23609 0.002,1.23609 -10e-4,1.23609 -0.004,1.23609 -0.007,1.23609 -0.007,1.2361 -0.007,1.23609 -0.005,1.23609 -0.001,1.23609 0.003,1.23609 0.007,1.2361 0.0115,1.23609 0.016,1.23609 0.0208,1.23609 0.0263,1.23609 0.0326,1.23609 0.0394,1.2361 0.0455,1.23609 0.0499,1.23609 0.0515,1.23609 0.0511,1.23609 0.0503,1.23609 0.0516,1.2361 0.0561,1.23609 0.0633,1.23609 0.0702,1.23609 0.0726,1.23609 0.0678,1.2361 0.0558,1.23609 0.0402,1.23609 0.0265,1.23609 0.0198,1.23609 0.0229,1.23609 0.0353,1.23609 0.054,1.2361 0.0754,1.23609 0.0963,1.23609 0.11549,1.23609 0.13378,1.23609 0.15239,1.23609 0.17112,1.2361 0.18746,1.23609 0.19813,1.23609 0.20211,1.23609 0.20284,1.23609 0.20704,1.236096 0.22035,1.236092 0.243,1.236091 0.26907,1.236092 0.29066,1.236092 0.30489,1.236092 0.31868,1.236091 0.3476,1.236092 0.40821,1.236092 0.50747,1.236092 0.63549,1.236091 0.76685,1.236092 0.87116,1.236092 0.92807,1.236092 0.9374,1.236091 0.91891,1.236092 0.90121,1.236092 0.90706,1.236092 0.94209,1.236091 0.99204,1.236092 1.02773,1.236092 1.01493,1.236092 0.92559,1.236091 0.74635,1.236092 0.48207,1.236092 0.15261,1.236092 -0.21482,1.236091 -0.59335,1.236092 -0.96036,1.236092 -1.29652,1.236092 -1.58274,1.236091 -1.79877,1.236092 -1.92512,1.236092 -1.94793,1.236091 -1.86445,1.236092 -1.6865,1.236092 -1.43963,1.236092 -1.15803,1.236091 -0.87659,1.236092 -0.62354,1.236092 -0.41613,1.236092 -0.26004,1.236091 -0.15179,1.236092 -0.0826,1.236092 z"
             style="stroke:#575757;stroke-width:1.5" />
        </defs>
        <g
           clip-path="url(#pcb11b20afb)"
           id="g2">
          <use
             xlink:href="#m00c7641be4"
             x="0"
             y="288"
             style="fill:#6ab993;stroke:#575757;stroke-width:1.5"
             id="use2"
             width="100%"
             height="100%" />
        </g>
      </g>
      <g
         id="PolyCollection_2">
        <defs
           id="defs3">
          <path
             id="m9a1051004d"
             d="m 347.88517,-43.634627 h -0.97034 l -0.51317,-1.115499 -0.89877,-1.115498 -1.43822,-1.115499 -2.10109,-1.115499 -2.7981,-1.115499 -3.38737,-1.115499 -3.70867,-1.115499 -3.63728,-1.115498 -3.13479,-1.115499 -2.27138,-1.115499 -1.20622,-1.115499 -0.13426,-1.115499 0.77575,-1.115498 1.42465,-1.115499 1.79309,-1.115499 1.92249,-1.115499 1.88287,-1.115499 1.74469,-1.115499 1.56343,-1.115498 1.37578,-1.115499 1.20188,-1.115499 1.04932,-1.115499 0.9174,-1.115499 0.80213,-1.115499 0.70097,-1.115498 0.61564,-1.115499 0.55127,-1.115499 0.51259,-1.115499 0.49955,-1.115499 0.50528,-1.115499 0.51784,-1.115498 0.52451,-1.115499 0.51616,-1.115499 0.48934,-1.115499 0.44577,-1.115499 0.38986,-1.115498 0.3265,-1.115499 0.25962,-1.115499 0.19271,-1.115499 0.13015,-1.115499 0.0784,-1.115499 0.0448,-1.115498 0.0351,-1.115499 0.0499,-1.115499 0.0826,-1.115499 0.12072,-1.115499 0.15032,-1.115499 0.16073,-1.115498 0.14822,-1.115499 0.11663,-1.115499 0.075,-1.115502 0.0337,-1.1155 10e-4,-1.11549 -0.0177,-1.1155 -0.0206,-1.1155 -0.008,-1.1155 0.0173,-1.1155 0.0495,-1.1155 0.0804,-1.1155 0.10177,-1.1155 0.1081,-1.11549 0.0989,-1.1155 0.0786,-1.1155 0.054,-1.1155 0.0318,-1.1155 0.0164,-1.1155 0.009,-1.1155 0.009,-1.1155 0.0121,-1.1155 0.0162,-1.11549 0.0182,-1.1155 0.0171,-1.1155 0.0135,-1.1155 0.009,-1.1155 0.006,-1.1155 0.005,-1.1155 0.007,-1.1155 0.0106,-1.1155 0.0149,-1.11549 0.0187,-1.1155 0.0215,-1.1155 0.0226,-1.1155 0.0219,-1.1155 0.0194,-1.1155 0.0154,-1.1155 0.0103,-1.1155 0.005,-1.11549 3e-5,-1.1155 -0.003,-1.1155 -0.002,-1.1155 0.001,-1.1155 0.007,-1.1155 0.0127,-1.1155 0.0171,-1.1155 0.019,-1.11549 0.0181,-1.1155 0.0152,-1.1155 0.0113,-1.1155 0.008,-1.1155 h 0.0183 v 0 l 0.008,1.1155 0.0113,1.1155 0.0152,1.1155 0.0181,1.1155 0.019,1.11549 0.0171,1.1155 0.0127,1.1155 0.007,1.1155 10e-4,1.1155 -0.002,1.1155 -0.003,1.1155 3e-5,1.1155 0.005,1.11549 0.0103,1.1155 0.0154,1.1155 0.0194,1.1155 0.0219,1.1155 0.0226,1.1155 0.0215,1.1155 0.0187,1.1155 0.0149,1.11549 0.0106,1.1155 0.007,1.1155 0.005,1.1155 0.006,1.1155 0.009,1.1155 0.0135,1.1155 0.0171,1.1155 0.0182,1.1155 0.0162,1.11549 0.0121,1.1155 0.009,1.1155 0.009,1.1155 0.0164,1.1155 0.0318,1.1155 0.054,1.1155 0.0786,1.1155 0.0989,1.1155 0.1081,1.11549 0.10177,1.1155 0.0804,1.1155 0.0495,1.1155 0.0173,1.1155 -0.008,1.1155 -0.0206,1.1155 -0.0177,1.1155 10e-4,1.11549 0.0337,1.1155 0.075,1.115502 0.11664,1.115499 0.14822,1.115499 0.16073,1.115498 0.15032,1.115499 0.12072,1.115499 0.0826,1.115499 0.0499,1.115499 0.0351,1.115499 0.0448,1.115498 0.0783,1.115499 0.13016,1.115499 0.19271,1.115499 0.25962,1.115499 0.3265,1.115499 0.38986,1.115498 0.44576,1.115499 0.48935,1.115499 0.51616,1.115499 0.52451,1.115499 0.51784,1.115498 0.50528,1.115499 0.49955,1.115499 0.51259,1.115499 0.55127,1.115499 0.61564,1.115499 0.70097,1.115498 0.80213,1.115499 0.9174,1.115499 1.04932,1.115499 1.20188,1.115499 1.37578,1.115499 1.56343,1.115498 1.74469,1.115499 1.88287,1.115499 1.92249,1.115499 1.79309,1.115499 1.42465,1.115499 0.77575,1.115498 -0.13426,1.115499 -1.20622,1.115499 -2.27138,1.115499 -3.13479,1.115499 -3.63728,1.115498 -3.70867,1.115499 -3.38737,1.115499 -2.7981,1.115499 -2.10109,1.115499 -1.43822,1.115499 -0.89877,1.115498 z"
             style="stroke:#575757;stroke-width:1.5" />
        </defs>
        <g
           clip-path="url(#pcb11b20afb)"
           id="g3">
          <use
             xlink:href="#m9a1051004d"
             x="0"
             y="288"
             style="fill:#6ab993;stroke:#575757;stroke-width:1.5"
             id="use3"
             width="100%"
             height="100%" />
        </g>
      </g>
      <g
         id="PolyCollection_3">
        <defs
           id="defs4">
          <path
             id="m6761d6e24f"
             d="m 460.13414,-43.089413 h -2.26828 l -1.0338,-1.079522 -1.67618,-1.079523 -2.48588,-1.079522 -3.36264,-1.079522 -4.12985,-1.079523 -4.56993,-1.079522 -4.49307,-1.079523 -3.81448,-1.079522 -2.60284,-1.079522 -1.07165,-1.079523 0.48651,-1.079522 1.7939,-1.079523 2.66816,-1.079522 3.0583,-1.079523 3.03087,-1.079522 2.72248,-1.079522 2.28472,-1.079523 1.84159,-1.079522 1.4689,-1.079523 1.19386,-1.079522 1.00773,-1.079522 0.88328,-1.079523 0.79035,-1.079522 0.70595,-1.079523 0.61812,-1.079522 0.52512,-1.079523 0.43222,-1.079522 0.34791,-1.079522 0.28021,-1.079523 0.23362,-1.079522 0.20721,-1.079523 0.19483,-1.079522 0.18762,-1.079522 0.17762,-1.079523 0.16107,-1.079522 0.13942,-1.079523 0.1176,-1.079522 0.10086,-1.079522 0.0918,-1.079523 0.0891,-1.079522 0.0891,-1.079523 0.088,-1.079522 0.0838,-1.079523 0.0771,-1.079522 0.07,-1.079522 0.0655,-1.079523 0.0657,-1.079522 0.0722,-1.079523 0.0854,-1.079522 0.10415,-1.079522 0.1253,-1.079523 0.14414,-1.079522 0.15545,-1.079522 0.15547,-1.07952 0.14346,-1.07952 0.12212,-1.07953 0.0965,-1.07952 0.0718,-1.07952 0.0517,-1.07952 0.0372,-1.07953 0.0271,-1.07952 0.0198,-1.07952 0.0137,-1.07952 0.009,-1.07953 0.004,-1.07952 10e-4,-1.07952 -3.3e-4,-1.07952 -6.1e-4,-1.07953 0.001,-1.07952 0.005,-1.07952 0.0125,-1.07952 0.021,-1.07953 0.029,-1.07952 0.034,-1.07952 0.035,-1.07952 0.0326,-1.07953 0.0291,-1.07952 0.0274,-1.07952 0.0292,-1.07952 0.0342,-1.07953 0.0402,-1.07952 0.0441,-1.07952 0.0438,-1.07952 0.0387,-1.07952 0.0299,-1.07953 0.0194,-1.07952 0.009,-1.07952 0.001,-1.07952 -0.004,-1.07953 -0.006,-1.07952 -0.005,-1.07952 -0.002,-1.07952 0.002,-1.07953 0.006,-1.07952 0.009,-1.07952 0.01,-1.07952 0.009,-1.07953 0.007,-1.07952 0.005,-1.07952 h 0.0152 v 0 l 0.005,1.07952 0.007,1.07952 0.009,1.07953 0.01,1.07952 0.009,1.07952 0.006,1.07952 0.002,1.07953 -0.002,1.07952 -0.005,1.07952 -0.006,1.07952 -0.004,1.07953 0.001,1.07952 0.009,1.07952 0.0194,1.07952 0.0299,1.07953 0.0387,1.07952 0.0438,1.07952 0.0441,1.07952 0.0402,1.07952 0.0342,1.07953 0.0292,1.07952 0.0274,1.07952 0.0291,1.07952 0.0326,1.07953 0.035,1.07952 0.034,1.07952 0.029,1.07952 0.021,1.07953 0.0125,1.07952 0.005,1.07952 0.001,1.07952 -6e-4,1.07953 -3.4e-4,1.07952 10e-4,1.07952 0.004,1.07952 0.009,1.07953 0.0137,1.07952 0.0198,1.07952 0.0271,1.07952 0.0372,1.07953 0.0517,1.07952 0.0718,1.07952 0.0965,1.07952 0.12212,1.07953 0.14346,1.07952 0.15547,1.07952 0.15545,1.079522 0.14414,1.079522 0.1253,1.079523 0.10415,1.079522 0.0854,1.079522 0.0722,1.079523 0.0657,1.079522 0.0655,1.079523 0.07,1.079522 0.0771,1.079522 0.0838,1.079523 0.088,1.079522 0.0891,1.079523 0.0891,1.079522 0.0918,1.079523 0.10086,1.079522 0.1176,1.079522 0.13942,1.079523 0.16107,1.079522 0.17762,1.079523 0.18762,1.079522 0.19483,1.079522 0.20721,1.079523 0.23362,1.079522 0.28021,1.079523 0.34791,1.079522 0.43222,1.079522 0.52512,1.079523 0.61812,1.079522 0.70595,1.079523 0.79035,1.079522 0.88328,1.079523 1.00773,1.079522 1.19386,1.079522 1.4689,1.079523 1.84159,1.079522 2.28471,1.079523 2.72249,1.079522 3.03087,1.079522 3.0583,1.079523 2.66816,1.079522 1.7939,1.079523 0.48651,1.079522 -1.07165,1.079523 -2.60284,1.079522 -3.81448,1.079522 -4.49307,1.079523 -4.56993,1.079522 -4.12986,1.079523 -3.36263,1.079522 -2.48588,1.079522 -1.67618,1.079523 z"
             style="stroke:#575757;stroke-width:1.5" />
        </defs>
        <g
           clip-path="url(#pcb11b20afb)"
           id="g4">
          <use
             xlink:href="#m6761d6e24f"
             x="0"
             y="288"
             style="fill:#6ab993;stroke:#575757;stroke-width:1.5"
             id="use4"
             width="100%"
             height="100%" />
        </g>
      </g>
      <g
         id="PolyCollection_4">
        <defs
           id="defs5">
          <path
             id="m8160a3080b"
             d="m 572.19499,-43.747049 h -3.18998 l -2.12189,-1.29187 -3.82753,-1.291869 -5.83062,-1.29187 -7.41027,-1.291869 -7.66461,-1.291869 -6.06608,-1.29187 -2.91585,-1.291869 0.7358,-1.29187 3.69249,-1.291869 5.25509,-1.29187 5.43898,-1.291869 4.73091,-1.29187 3.69506,-1.291869 2.7193,-1.29187 1.96825,-1.291869 1.45247,-1.291869 1.11181,-1.29187 0.87215,-1.291869 0.67794,-1.29187 0.50801,-1.291869 0.37214,-1.29187 0.28999,-1.291869 0.26706,-1.29187 0.28488,-1.291869 0.31081,-1.29187 0.31712,-1.291869 0.29414,-1.29187 0.24969,-1.291869 0.19837,-1.291869 0.15116,-1.29187 0.11272,-1.291869 0.0846,-1.29187 0.0678,-1.291869 0.0617,-1.29187 0.0618,-1.291869 0.0612,-1.29187 0.0551,-1.291869 0.042,-1.29187 0.0229,-1.291869 0.002,-1.291869 -0.0134,-1.29187 -0.008,-1.291869 0.0275,-1.29187 0.0873,-1.291864 0.14958,-1.29188 0.18804,-1.29186 0.18785,-1.29187 0.15295,-1.29187 0.10144,-1.29187 0.0547,-1.29187 0.0274,-1.29187 0.0225,-1.29187 0.0331,-1.29187 0.0475,-1.29187 0.0549,-1.29187 0.0506,-1.29187 0.0356,-1.29187 0.0142,-1.29187 -0.01,-1.29187 -0.0328,-1.29187 -0.0524,-1.29187 -0.0637,-1.29187 -0.0618,-1.29187 -0.0443,-1.29186 -0.0145,-1.29187 0.0181,-1.29187 0.0427,-1.29187 0.0527,-1.29187 0.0494,-1.29187 0.04,-1.29187 0.0313,-1.29187 0.0259,-1.29187 0.0225,-1.29187 0.0188,-1.29187 0.0139,-1.29187 0.009,-1.29187 0.005,-1.29187 0.002,-1.29187 8.4e-4,-1.29187 2.8e-4,-1.29187 8e-5,-1.29186 10e-6,-1.29187 v -1.29187 l -3e-5,-1.29187 -1.2e-4,-1.29187 -4.2e-4,-1.29187 -10e-4,-1.29187 -0.003,-1.29187 -0.006,-1.29187 -0.01,-1.29187 -0.0136,-1.29187 -0.0146,-1.29187 -0.0111,-1.29187 -0.003,-1.29187 0.006,-1.29187 0.0126,-1.29187 0.0147,-1.29187 0.0127,-1.29187 0.009,-1.29186 h 0.0171 v 0 l 0.009,1.29186 0.0127,1.29187 0.0147,1.29187 0.0126,1.29187 0.006,1.29187 -0.003,1.29187 -0.0111,1.29187 -0.0146,1.29187 -0.0136,1.29187 -0.01,1.29187 -0.006,1.29187 -0.003,1.29187 -10e-4,1.29187 -4.2e-4,1.29187 -1.2e-4,1.29187 -3e-5,1.29187 v 1.29187 l 10e-6,1.29187 8e-5,1.29186 2.8e-4,1.29187 8.4e-4,1.29187 0.002,1.29187 0.005,1.29187 0.009,1.29187 0.0139,1.29187 0.0188,1.29187 0.0225,1.29187 0.0259,1.29187 0.0313,1.29187 0.04,1.29187 0.0494,1.29187 0.0526,1.29187 0.0427,1.29187 0.0181,1.29187 -0.0145,1.29187 -0.0443,1.29186 -0.0618,1.29187 -0.0637,1.29187 -0.0524,1.29187 -0.0328,1.29187 -0.01,1.29187 0.0142,1.29187 0.0356,1.29187 0.0506,1.29187 0.0549,1.29187 0.0475,1.29187 0.0331,1.29187 0.0225,1.29187 0.0274,1.29187 0.0547,1.29187 0.10144,1.29187 0.15295,1.29187 0.18785,1.29187 0.18804,1.29186 0.14957,1.29188 0.0873,1.291864 0.0274,1.29187 -0.008,1.291869 -0.0134,1.29187 0.002,1.291869 0.0229,1.291869 0.042,1.29187 0.0551,1.291869 0.0612,1.29187 0.0618,1.291869 0.0617,1.29187 0.0678,1.291869 0.0846,1.29187 0.11272,1.291869 0.15116,1.29187 0.19837,1.291869 0.24969,1.291869 0.29414,1.29187 0.31712,1.291869 0.31081,1.29187 0.28488,1.291869 0.26706,1.29187 0.28999,1.291869 0.37214,1.29187 0.50802,1.291869 0.67793,1.29187 0.87215,1.291869 1.11181,1.29187 1.45247,1.291869 1.96825,1.291869 2.7193,1.29187 3.69506,1.291869 4.73091,1.29187 5.43898,1.291869 5.25509,1.29187 3.69249,1.291869 0.7358,1.29187 -2.91585,1.291869 -6.06608,1.29187 -7.66461,1.291869 -7.41027,1.291869 -5.83062,1.29187 -3.82753,1.291869 z"
             style="stroke:#575757;stroke-width:1.5" />
        </defs>
        <g
           clip-path="url(#pcb11b20afb)"
           id="g5">
          <use
             xlink:href="#m8160a3080b"
             x="0"
             y="288"
             style="fill:#6ab993;stroke:#575757;stroke-width:1.5"
             id="use5"
             width="100%"
             height="100%" />
        </g>
      </g>
      <g
         id="PolyCollection_5">
        <defs
           id="defs6">
          <path
             id="mde8b15950b"
             d="m 684.31785,-41.76 h -4.2357 l -3.46624,-2.036364 -6.33941,-2.036363 -8.77664,-2.036364 -8.6904,-2.036364 -5.04,-2.036363 0.70057,-2.036364 5.52787,-2.036363 7.45256,-2.036364 6.7047,-2.036364 4.75348,-2.036363 2.85991,-2.036364 1.5535,-2.036364 0.85362,-2.036363 0.58686,-2.036364 0.5483,-2.036364 0.56435,-2.036363 0.53102,-2.036364 0.42622,-2.036363 0.28234,-2.036364 0.14618,-2.036364 0.0527,-2.036363 0.0113,-2.036364 0.004,-2.036364 0.002,-2.036363 -0.008,-2.036364 -0.0291,-2.036364 -0.052,-2.036363 -0.061,-2.036364 -0.034,-2.036358 0.0351,-2.03637 0.11926,-2.03636 0.17626,-2.03637 0.18105,-2.03636 0.13851,-2.03636 0.0746,-2.03637 0.0188,-2.03636 -0.0136,-2.03637 -0.0264,-2.03636 -0.03,-2.03636 -0.0259,-2.03637 -0.009,-2.03636 0.0191,-2.03636 0.0457,-2.03637 0.0588,-2.03636 0.0585,-2.03636 0.0521,-2.03637 0.0435,-2.03636 0.0326,-2.03636 0.0213,-2.03637 0.0136,-2.03636 0.0102,-2.03636 0.007,-2.03637 0.002,-2.03636 -0.003,-2.03637 -0.002,-2.03636 0.001,-2.03636 2.8e-4,-2.03637 -0.008,-2.03636 -0.0189,-2.03636 -0.0234,-2.03637 -0.0169,-2.03636 -0.002,-2.03636 0.0157,-2.03637 0.0273,-2.03636 0.0295,-2.03637 0.0238,-2.03636 0.0149,-2.03636 0.007,-2.03637 0.003,-2.03636 8.9e-4,-2.03636 2.2e-4,-2.03637 4e-5,-2.03636 10e-6,-2.03636 v -2.03637 l -10e-6,-2.03636 -4e-5,-2.03637 -2.3e-4,-2.03636 -8.5e-4,-2.03636 -0.003,-2.03637 -0.006,-2.03636 -0.0107,-2.03636 -0.0137,-2.03637 -0.0114,-2.03636 -0.003,-2.03636 0.007,-2.03637 0.0132,-2.03636 0.0128,-2.03637 0.008,-2.03636 0.003,-2.03636 -9.3e-4,-2.03637 -0.006,-2.03636 -0.0106,-2.03636 -0.0137,-2.03637 -0.0114,-2.03636 -0.003,-2.03636 0.007,-2.03637 0.0132,-2.03636 0.0129,-2.03637 0.009,-2.03636 h 0.0132 v 0 l 0.009,2.03636 0.0129,2.03637 0.0132,2.03636 0.007,2.03637 -0.003,2.03636 -0.0114,2.03636 -0.0137,2.03637 -0.0106,2.03636 -0.006,2.03636 -9.3e-4,2.03637 0.003,2.03636 0.008,2.03636 0.0128,2.03637 0.0132,2.03636 0.007,2.03637 -0.003,2.03636 -0.0114,2.03636 -0.0137,2.03637 -0.0107,2.03636 -0.006,2.03636 -0.003,2.03637 -8.5e-4,2.03636 -2.3e-4,2.03636 -4e-5,2.03637 -10e-6,2.03636 v 2.03637 l 10e-6,2.03636 4e-5,2.03636 2.2e-4,2.03637 8.9e-4,2.03636 0.003,2.03636 0.007,2.03637 0.0149,2.03636 0.0238,2.03636 0.0295,2.03637 0.0273,2.03636 0.0157,2.03637 -0.002,2.03636 -0.0169,2.03636 -0.0234,2.03637 -0.0189,2.03636 -0.008,2.03636 2.8e-4,2.03637 10e-4,2.03636 -0.002,2.03636 -0.003,2.03637 0.002,2.03636 0.007,2.03637 0.0102,2.03636 0.0136,2.03636 0.0213,2.03637 0.0326,2.03636 0.0435,2.03636 0.0521,2.03637 0.0585,2.03636 0.0588,2.03636 0.0457,2.03637 0.0191,2.03636 -0.009,2.03636 -0.0259,2.03637 -0.03,2.03636 -0.0264,2.03636 -0.0136,2.03637 0.0188,2.03636 0.0746,2.03637 0.13851,2.03636 0.18105,2.03636 0.17626,2.03637 0.11926,2.03636 0.0351,2.03637 -0.034,2.036358 -0.061,2.036364 -0.052,2.036363 -0.0291,2.036364 -0.009,2.036364 0.002,2.036363 0.004,2.036364 0.0113,2.036364 0.0527,2.036363 0.14618,2.036364 0.28234,2.036364 0.42621,2.036363 0.53103,2.036364 0.56435,2.036363 0.5483,2.036364 0.58686,2.036364 0.85362,2.036363 1.5535,2.036364 2.85991,2.036364 4.75347,2.036363 6.70471,2.036364 7.45256,2.036364 5.52787,2.036363 0.70057,2.036364 -5.04,2.036363 -8.6904,2.036364 -8.77664,2.036364 -6.33941,2.036363 z"
             style="stroke:#575757;stroke-width:1.5" />
        </defs>
        <g
           clip-path="url(#pcb11b20afb)"
           id="g6">
          <use
             xlink:href="#mde8b15950b"
             x="0"
             y="288"
             style="fill:#6ab993;stroke:#575757;stroke-width:1.5"
             id="use6"
             width="100%"
             height="100%" />
        </g>
      </g>
      <g
         id="PolyCollection_6">
        <defs
           id="defs7">
          <path
             id="m47c464a0ab"
             d="m 795.13442,-44.676519 h -2.66884 l -2.00891,-1.157786 -3.89894,-1.157786 -6.36047,-1.157786 -8.63233,-1.157786 -9.54792,-1.157786 -8.19462,-1.157786 -4.6352,-1.157786 -0.0272,-1.157786 4.04694,-1.157786 6.48719,-1.157786 7.10759,-1.157786 6.41515,-1.157785 5.1118,-1.157786 3.73875,-1.157786 2.58258,-1.157786 1.73198,-1.157786 1.16085,-1.157786 0.79388,-1.157786 0.5548,-1.157786 0.39469,-1.157786 0.29256,-1.157786 0.2383,-1.157786 0.22061,-1.157786 0.22938,-1.157786 0.25851,-1.157786 0.29887,-1.157786 0.33173,-1.157786 0.33542,-1.157786 0.29953,-1.157786 0.23122,-1.157786 0.14827,-1.157786 0.0681,-1.157786 0.003,-1.157786 -0.0387,-1.157786 -0.0463,-1.157786 -0.0148,-1.157786 0.0471,-1.157786 0.11541,-1.157786 0.16273,-1.157786 0.17572,-1.157786 0.16067,-1.157786 0.13463,-1.157786 0.11074,-1.157786 0.091,-1.157786 0.0707,-1.157786 0.0484,-1.157786 0.0308,-1.157786 0.0268,-1.15779 0.0371,-1.15778 0.0515,-1.15779 0.0555,-1.15778 0.042,-1.15779 0.0163,-1.15779 -0.007,-1.15778 -0.0146,-1.15779 -6e-4,-1.15778 0.0268,-1.15779 0.0526,-1.15778 0.0645,-1.15779 0.0595,-1.15779 0.043,-1.15778 0.0222,-1.15779 10e-4,-1.15779 -0.0177,-1.15778 -0.034,-1.15779 -0.0436,-1.15778 -0.0416,-1.15779 -0.0263,-1.15778 -0.002,-1.15779 0.0207,-1.15779 0.0333,-1.15778 0.0316,-1.15779 0.0188,-1.15778 0.003,-1.15779 -0.009,-1.15779 -0.0117,-1.15778 -0.007,-1.15779 0.002,-1.15778 0.0122,-1.15779 0.0203,-1.15779 0.0241,-1.15778 0.0227,-1.15779 0.0175,-1.15778 0.0111,-1.15779 0.006,-1.15779 0.002,-1.15778 5e-5,-1.15779 -0.002,-1.15778 -0.005,-1.15779 -0.0101,-1.15779 -0.0151,-1.15778 -0.0176,-1.15779 -0.0148,-1.15778 -0.006,-1.15779 0.005,-1.15779 0.0143,-1.15778 0.0176,-1.15779 0.0154,-1.15778 0.0105,-1.15779 h 0.0198 v 0 l 0.0105,1.15779 0.0154,1.15778 0.0176,1.15779 0.0143,1.15778 0.005,1.15779 -0.006,1.15779 -0.0148,1.15778 -0.0176,1.15779 -0.0151,1.15778 -0.0101,1.15779 -0.005,1.15779 -0.002,1.15778 6e-5,1.15779 0.002,1.15778 0.006,1.15779 0.0111,1.15779 0.0175,1.15778 0.0227,1.15779 0.0241,1.15778 0.0203,1.15779 0.0122,1.15779 0.002,1.15778 -0.007,1.15779 -0.0117,1.15778 -0.009,1.15779 0.003,1.15779 0.0187,1.15778 0.0316,1.15779 0.0333,1.15778 0.0207,1.15779 -0.002,1.15779 -0.0263,1.15778 -0.0416,1.15779 -0.0436,1.15778 -0.034,1.15779 -0.0177,1.15778 10e-4,1.15779 0.0222,1.15779 0.043,1.15778 0.0595,1.15779 0.0645,1.15779 0.0526,1.15778 0.0268,1.15779 -6e-4,1.15778 -0.0146,1.15779 -0.007,1.15778 0.0163,1.15779 0.042,1.15779 0.0555,1.15778 0.0515,1.15779 0.0371,1.15778 0.0268,1.15779 0.0308,1.157786 0.0484,1.157786 0.0707,1.157786 0.091,1.157786 0.11074,1.157786 0.13462,1.157786 0.16068,1.157786 0.17572,1.157786 0.16273,1.157786 0.11541,1.157786 0.0471,1.157786 -0.0148,1.157786 -0.0463,1.157786 -0.0387,1.157786 0.003,1.157786 0.0681,1.157786 0.14827,1.157786 0.23122,1.157786 0.29953,1.157786 0.33542,1.157786 0.33173,1.157786 0.29887,1.157786 0.25851,1.157786 0.22938,1.157786 0.22061,1.157786 0.2383,1.157786 0.29256,1.157786 0.39469,1.157786 0.5548,1.157786 0.79388,1.157786 1.16085,1.157786 1.73198,1.157786 2.58258,1.157786 3.73875,1.157786 5.11179,1.157786 6.41516,1.157785 7.10759,1.157786 6.48719,1.157786 4.04694,1.157786 -0.0272,1.157786 -4.6352,1.157786 -8.19462,1.157786 -9.54792,1.157786 -8.63233,1.157786 -6.36047,1.157786 -3.89894,1.157786 z"
             style="stroke:#575757;stroke-width:1.5" />
        </defs>
        <g
           clip-path="url(#pcb11b20afb)"
           id="g7">
          <use
             xlink:href="#m47c464a0ab"
             x="0"
             y="288"
             style="fill:#6ab993;stroke:#575757;stroke-width:1.5"
             id="use7"
             width="100%"
             height="100%" />
        </g>
      </g>
      <g
         id="PolyCollection_7">
        <defs
           id="defs8">
          <path
             id="m84c93d0289"
             d="m 906.53678,-44.439163 h -2.27356 l -1.16387,-0.909366 -1.9959,-0.909367 -3.1165,-0.909367 -4.41907,-0.909367 -5.66576,-0.909367 -6.52026,-0.909367 -6.64596,-0.909366 -5.83911,-0.909367 -4.13429,-0.909367 -1.82203,-0.909367 0.64015,-0.909367 2.78318,-0.909367 4.27458,-0.909367 4.99511,-0.909366 5.02534,-0.909367 4.56868,-0.909367 3.85943,-0.909367 3.09391,-0.909367 2.39957,-0.909367 1.83529,-0.909366 1.40841,-0.909367 1.09594,-0.909367 0.86334,-0.909367 0.67842,-0.909367 0.51974,-0.909367 0.37908,-0.909367 0.25891,-0.909366 0.16634,-0.909367 0.10686,-0.909367 0.0802,-0.909367 0.0796,-0.909367 0.0944,-0.909367 0.11281,-0.909366 0.12475,-0.909367 0.12379,-0.909367 0.10819,-0.909367 0.0814,-0.909367 0.051,-0.909367 0.026,-0.909367 0.013,-0.909366 0.0137,-0.909367 0.0246,-0.909367 0.0405,-0.909367 0.0576,-0.909367 0.0761,-0.909367 0.099,-0.909366 0.1293,-0.909367 0.16576,-0.909367 0.20189,-0.909367 0.22762,-0.909367 0.23392,-0.909367 0.21706,-0.909366 0.18055,-0.909367 0.13359,-0.909367 0.0874,-0.909367 0.0513,-0.909367 0.0303,-0.909367 0.0242,-0.909367 0.0287,-0.909366 0.0369,-0.909367 0.0418,-0.909367 0.0382,-0.90937 0.0243,-0.90936 0.003,-0.90937 -0.0209,-0.90937 -0.039,-0.90936 -0.0453,-0.90937 -0.037,-0.90937 -0.016,-0.90936 0.0115,-0.90937 0.0376,-0.90937 0.0557,-0.90936 0.0624,-0.90937 0.0581,-0.90937 0.0458,-0.90937 0.0298,-0.90936 0.0141,-0.90937 0.002,-0.90937 -0.004,-0.90936 -0.004,-0.90937 5.7e-4,-0.90937 0.007,-0.90936 0.0135,-0.90937 0.0166,-0.90937 0.0165,-0.90936 0.0144,-0.90937 0.0122,-0.90937 0.0115,-0.90936 0.0127,-0.90937 0.0154,-0.90937 0.0186,-0.90937 0.0213,-0.90936 0.0231,-0.90937 0.0235,-0.90937 0.0223,-0.90936 0.0196,-0.90937 0.0158,-0.90937 0.0117,-0.90936 0.008,-0.90937 h 0.02 v 0 l 0.008,0.90937 0.0117,0.90936 0.0158,0.90937 0.0196,0.90937 0.0223,0.90936 0.0235,0.90937 0.0231,0.90937 0.0213,0.90936 0.0186,0.90937 0.0154,0.90937 0.0127,0.90937 0.0115,0.90936 0.0122,0.90937 0.0144,0.90937 0.0165,0.90936 0.0166,0.90937 0.0135,0.90937 0.007,0.90936 5.8e-4,0.90937 -0.004,0.90937 -0.004,0.90936 0.002,0.90937 0.0141,0.90937 0.0298,0.90936 0.0458,0.90937 0.0581,0.90937 0.0624,0.90937 0.0557,0.90936 0.0376,0.90937 0.0115,0.90937 -0.016,0.90936 -0.037,0.90937 -0.0453,0.90937 -0.039,0.90936 -0.0209,0.90937 0.003,0.90937 0.0243,0.90936 0.0382,0.90937 0.0418,0.909367 0.0369,0.909367 0.0287,0.909366 0.0242,0.909367 0.0303,0.909367 0.0513,0.909367 0.0874,0.909367 0.13359,0.909367 0.18055,0.909367 0.21706,0.909366 0.23392,0.909367 0.22763,0.909367 0.20188,0.909367 0.16576,0.909367 0.1293,0.909367 0.0991,0.909366 0.0761,0.909367 0.0576,0.909367 0.0405,0.909367 0.0246,0.909367 0.0137,0.909367 0.013,0.909366 0.026,0.909367 0.051,0.909367 0.0814,0.909367 0.10819,0.909367 0.12379,0.909367 0.12475,0.909367 0.11281,0.909366 0.0944,0.909367 0.0796,0.909367 0.0802,0.909367 0.10686,0.909367 0.16634,0.909367 0.25891,0.909366 0.37908,0.909367 0.51974,0.909367 0.67842,0.909367 0.86334,0.909367 1.09594,0.909367 1.40841,0.909367 1.83529,0.909366 2.39957,0.909367 3.09391,0.909367 3.85943,0.909367 4.56868,0.909367 5.02534,0.909367 4.99511,0.909366 4.27458,0.909367 2.78318,0.909367 0.64015,0.909367 -1.82203,0.909367 -4.13429,0.909367 -5.83911,0.909367 -6.64597,0.909366 -6.52025,0.909367 -5.66576,0.909367 -4.41907,0.909367 -3.1165,0.909367 -1.99591,0.909367 z"
             style="stroke:#575757;stroke-width:1.5" />
        </defs>
        <g
           clip-path="url(#pcb11b20afb)"
           id="g8">
          <use
             xlink:href="#m84c93d0289"
             x="0"
             y="288"
             style="fill:#6ab993;stroke:#575757;stroke-width:1.5"
             id="use8"
             width="100%"
             height="100%" />
        </g>
      </g>
      <g
         id="PolyCollection_8">
        <defs
           id="defs9">
          <path
             id="me8b3f8cc13"
             d="m 1017.8503,-45.337703 h -1.7006 l -0.9428,-0.838095 -1.6813,-0.838094 -2.7219,-0.838094 -3.9936,-0.838095 -5.296,-0.838094 -6.31929,-0.838095 -6.7288,-0.838094 -6.29337,-0.838095 -4.99223,-0.838094 -3.04181,-0.838095 -0.82087,-0.838094 1.26688,-0.838094 2.92098,-0.838095 4.00502,-0.838094 4.53012,-0.838095 4.59374,-0.838094 4.31915,-0.838095 3.82169,-0.838094 3.20159,-0.838094 2.5471,-0.838095 1.9354,-0.838094 1.425,-0.838095 1.0474,-0.838094 0.8034,-0.838095 0.6668,-0.838094 0.5971,-0.838094 0.5549,-0.838095 0.5125,-0.838094 0.4589,-0.838095 0.3966,-0.838094 0.3347,-0.838095 0.2828,-0.838094 0.2456,-0.838094 0.2222,-0.838095 0.208,-0.838094 0.1975,-0.838095 0.1863,-0.838094 0.1723,-0.838095 0.1546,-0.838094 0.1331,-0.838095 0.109,-0.838094 0.086,-0.838094 0.069,-0.838095 0.062,-0.838094 0.062,-0.838095 0.064,-0.838094 0.059,-0.838095 0.042,-0.838094 0.012,-0.838094 -0.021,-0.838095 -0.042,-0.838094 -0.041,-0.838095 -0.014,-0.838094 0.033,-0.838095 0.084,-0.838094 0.1206,-0.838094 0.1328,-0.838095 0.1201,-0.838094 0.092,-0.838095 0.063,-0.838094 0.043,-0.838095 0.035,-0.838094 0.035,-0.838094 0.035,-0.838095 0.031,-0.838094 0.023,-0.838099 0.014,-0.83809 0.01,-0.8381 0.01,-0.83809 0.014,-0.83809 0.027,-0.8381 0.044,-0.83809 0.061,-0.8381 0.072,-0.83809 0.075,-0.8381 0.068,-0.83809 0.054,-0.8381 0.038,-0.83809 0.024,-0.83809 0.012,-0.8381 v -0.83809 -0.8381 l -0.01,-0.83809 -0.013,-0.8381 -0.015,-0.83809 -0.014,-0.83809 -0.012,-0.8381 -0.01,-0.83809 -0.01,-0.8381 v -0.83809 -0.8381 l 0.01,-0.83809 0.018,-0.8381 0.027,-0.83809 0.032,-0.83809 0.033,-0.8381 0.029,-0.83809 0.023,-0.8381 0.015,-0.83809 h 0.038 v 0 l 0.015,0.83809 0.023,0.8381 0.029,0.83809 0.033,0.8381 0.032,0.83809 0.027,0.83809 0.018,0.8381 0.01,0.83809 v 0.8381 0.83809 l -0.01,0.8381 -0.01,0.83809 -0.012,0.8381 -0.014,0.83809 -0.015,0.83809 -0.013,0.8381 -0.01,0.83809 v 0.8381 0.83809 l 0.012,0.8381 0.024,0.83809 0.038,0.83809 0.054,0.8381 0.068,0.83809 0.075,0.8381 0.072,0.83809 0.061,0.8381 0.044,0.83809 0.027,0.8381 0.014,0.83809 0.01,0.83809 0.01,0.8381 0.014,0.83809 0.023,0.838099 0.031,0.838094 0.035,0.838095 0.035,0.838094 0.035,0.838094 0.043,0.838095 0.063,0.838094 0.092,0.838095 0.1201,0.838094 0.1328,0.838095 0.1206,0.838094 0.084,0.838094 0.033,0.838095 -0.014,0.838094 -0.041,0.838095 -0.042,0.838094 -0.021,0.838095 0.012,0.838094 0.042,0.838094 0.059,0.838095 0.064,0.838094 0.062,0.838095 0.062,0.838094 0.069,0.838095 0.086,0.838094 0.109,0.838094 0.1331,0.838095 0.1546,0.838094 0.1723,0.838095 0.1863,0.838094 0.1975,0.838095 0.208,0.838094 0.2222,0.838095 0.2456,0.838094 0.2828,0.838094 0.3347,0.838095 0.3966,0.838094 0.4589,0.838095 0.5125,0.838094 0.5549,0.838095 0.5971,0.838094 0.6668,0.838094 0.8034,0.838095 1.0475,0.838094 1.4249,0.838095 1.9354,0.838094 2.5471,0.838095 3.2016,0.838094 3.8217,0.838094 4.3191,0.838095 4.5938,0.838094 4.5301,0.838095 4.005,0.838094 2.921,0.838095 1.2669,0.838094 -0.8209,0.838094 -3.0418,0.838095 -4.9922,0.838094 -6.2934,0.838095 -6.7288,0.838094 -6.3193,0.838095 -5.296,0.838094 -3.9936,0.838095 -2.7219,0.838094 -1.6813,0.838094 z"
             style="stroke:#575757;stroke-width:1.5" />
        </defs>
        <g
           clip-path="url(#pcb11b20afb)"
           id="g9">
          <use
             xlink:href="#me8b3f8cc13"
             x="0"
             y="288"
             style="fill:#6ab993;stroke:#575757;stroke-width:1.5"
             id="use9"
             width="100%"
             height="100%" />
        </g>
      </g>
      <g
         id="PolyCollection_9">
        <defs
           id="defs10">
          <path
             id="me9bd1ce9a0"
             d="m 1128.853,-45.59834 h -0.506 l -0.2907,-0.782135 -0.5402,-0.782135 -0.9272,-0.782136 -1.4728,-0.782135 -2.1697,-0.782135 -2.9696,-0.782135 -3.7802,-0.782135 -4.4757,-0.782135 -4.9222,-0.782135 -5.0103,-0.782135 -4.6855,-0.782136 -3.9642,-0.782135 -2.9293,-0.782135 -1.7065,-0.782135 -0.4323,-0.782135 0.7734,-0.782135 1.8216,-0.782135 2.6572,-0.782135 3.2518,-0.782136 3.5976,-0.782135 3.7052,-0.782135 3.603,-0.782135 3.3363,-0.782135 2.9615,-0.782135 2.535,-0.782135 2.1029,-0.782135 1.6973,-0.782135 1.3375,-0.782136 1.0351,-0.782135 0.7951,-0.782135 0.6152,-0.782135 0.4841,-0.782135 0.3841,-0.782135 0.2988,-0.782135 0.2189,-0.782135 0.1459,-0.782136 0.088,-0.782135 0.054,-0.782135 0.048,-0.782135 0.064,-0.782135 0.096,-0.782135 0.1328,-0.782135 0.1628,-0.782135 0.1771,-0.782136 0.1699,-0.782135 0.1425,-0.782135 0.1044,-0.782135 0.069,-0.782135 0.047,-0.782135 0.044,-0.782135 0.057,-0.782135 0.076,-0.782135 0.095,-0.782136 0.1078,-0.782135 0.1145,-0.782135 0.1165,-0.782135 0.1152,-0.782135 0.1103,-0.782135 0.1002,-0.782135 0.084,-0.782135 0.063,-0.782136 0.043,-0.782135 0.028,-0.782135 0.023,-0.782135 0.026,-0.782135 0.035,-0.782135 0.043,-0.782135 0.045,-0.782135 0.04,-0.782136 0.031,-0.782136 0.021,-0.78213 0.012,-0.78214 0.01,-0.78213 v -0.78214 l -8e-4,-0.78213 -0.01,-0.78214 -0.011,-0.78213 -0.018,-0.78214 -0.025,-0.78214 -0.031,-0.78213 -0.034,-0.78214 -0.031,-0.78213 -0.02,-0.78214 -10e-4,-0.78213 0.021,-0.78214 0.041,-0.78213 0.054,-0.78214 0.057,-0.78213 0.052,-0.78214 0.043,-0.78213 0.036,-0.78214 0.033,-0.78213 0.034,-0.78214 0.036,-0.78213 0.036,-0.78214 0.034,-0.78213 0.028,-0.78214 0.02,-0.78213 0.014,-0.78214 h 0.031 v 0 l 0.014,0.78214 0.02,0.78213 0.028,0.78214 0.034,0.78213 0.036,0.78214 0.036,0.78213 0.034,0.78214 0.033,0.78213 0.036,0.78214 0.043,0.78213 0.052,0.78214 0.057,0.78213 0.054,0.78214 0.041,0.78213 0.021,0.78214 v 0.78213 l -0.019,0.78214 -0.031,0.78213 -0.034,0.78214 -0.032,0.78213 -0.025,0.78214 -0.018,0.78214 -0.011,0.78213 -0.01,0.78214 -8e-4,0.78213 v 0.78214 l 0.01,0.78213 0.012,0.78214 0.021,0.78213 0.031,0.782136 0.04,0.782136 0.045,0.782135 0.043,0.782135 0.035,0.782135 0.026,0.782135 0.023,0.782135 0.028,0.782135 0.043,0.782135 0.063,0.782136 0.084,0.782135 0.1002,0.782135 0.1103,0.782135 0.1152,0.782135 0.1165,0.782135 0.1145,0.782135 0.1078,0.782135 0.095,0.782136 0.076,0.782135 0.057,0.782135 0.044,0.782135 0.047,0.782135 0.069,0.782135 0.1044,0.782135 0.1425,0.782135 0.1699,0.782135 0.1771,0.782136 0.1628,0.782135 0.1328,0.782135 0.096,0.782135 0.064,0.782135 0.048,0.782135 0.054,0.782135 0.088,0.782135 0.1459,0.782136 0.2189,0.782135 0.2988,0.782135 0.3841,0.782135 0.4841,0.782135 0.6152,0.782135 0.7951,0.782135 1.0351,0.782135 1.3375,0.782136 1.6973,0.782135 2.1029,0.782135 2.535,0.782135 2.9615,0.782135 3.3363,0.782135 3.603,0.782135 3.7052,0.782135 3.5976,0.782135 3.2518,0.782136 2.6572,0.782135 1.8216,0.782135 0.7734,0.782135 -0.4323,0.782135 -1.7065,0.782135 -2.9293,0.782135 -3.9642,0.782135 -4.6855,0.782136 -5.0103,0.782135 -4.9222,0.782135 -4.4757,0.782135 -3.7802,0.782135 -2.9696,0.782135 -2.1697,0.782135 -1.4728,0.782135 -0.9272,0.782136 -0.5402,0.782135 z"
             style="stroke:#575757;stroke-width:1.5" />
        </defs>
        <g
           clip-path="url(#pcb11b20afb)"
           id="g10">
          <use
             xlink:href="#me9bd1ce9a0"
             x="0"
             y="288"
             style="fill:#6ab993;stroke:#575757;stroke-width:1.5"
             id="use10"
             width="100%"
             height="100%" />
        </g>
      </g>
      <g
         id="PolyCollection_10">
        <defs
           id="defs11">
          <path
             id="me45f0dde7a"
             d="m 1240.3888,-51.367235 h -0.3776 l -0.1291,-0.496782 -0.1958,-0.496783 -0.2842,-0.496782 -0.394,-0.496782 -0.5226,-0.496783 -0.663,-0.496782 -0.8057,-0.496782 -0.938,-0.496783 -1.0477,-0.496782 -1.1239,-0.496782 -1.16,-0.496783 -1.1539,-0.496782 -1.1093,-0.496782 -1.034,-0.496783 -0.9388,-0.496782 -0.8352,-0.496782 -0.7342,-0.496783 -0.6442,-0.496782 -0.5705,-0.496782 -0.5153,-0.496782 -0.4778,-0.496783 -0.4549,-0.496782 -0.4424,-0.496782 -0.4358,-0.496783 -0.4315,-0.496782 -0.4264,-0.496782 -0.4181,-0.496783 -0.4041,-0.496782 -0.3819,-0.496782 -0.3483,-0.496783 -0.3011,-0.496782 -0.2395,-0.496782 -0.166,-0.496783 -0.086,-0.496782 -0.01,-0.496782 0.059,-0.496783 0.1074,-0.496782 0.1312,-0.496782 0.1312,-0.496783 0.1119,-0.496782 0.082,-0.496782 0.053,-0.496782 0.034,-0.496783 0.032,-0.496782 0.049,-0.496782 0.082,-0.496783 0.1276,-0.496782 0.1759,-0.496782 0.2208,-0.496783 0.2582,-0.496782 0.2873,-0.496782 0.3111,-0.496783 0.3346,-0.496782 0.3624,-0.496782 0.3981,-0.496783 0.4419,-0.496782 0.4914,-0.496782 0.5413,-0.496783 0.5851,-0.496782 0.6166,-0.496782 0.6303,-0.496783 0.6244,-0.496782 0.5999,-0.496782 0.562,-0.496782 0.5184,-0.496783 0.4786,-0.496782 0.4514,-0.496782 0.4422,-0.496783 0.4529,-0.496782 0.4801,-0.496782 0.5169,-0.496783 0.5542,-0.496782 0.5832,-0.496782 0.5974,-0.496783 0.5931,-0.496782 0.5706,-0.496782 0.5327,-0.496783 0.4842,-0.496782 0.4307,-0.496782 0.3778,-0.496783 0.3301,-0.496782 0.2912,-0.496782 0.2627,-0.496783 0.2449,-0.496782 0.2361,-0.496782 0.2335,-0.496782 0.2335,-0.496783 0.2324,-0.496782 0.2272,-0.496782 0.2166,-0.496783 0.2,-0.496782 0.178,-0.496782 0.1528,-0.496783 0.1261,-0.496782 0.1,-0.496782 0.076,-0.496783 0.056,-0.496782 0.039,-0.49678 0.026,-0.49679 h 0.081 v 0 l 0.026,0.49679 0.039,0.49678 0.056,0.496782 0.076,0.496783 0.1,0.496782 0.1261,0.496782 0.1528,0.496783 0.178,0.496782 0.2,0.496782 0.2166,0.496783 0.2272,0.496782 0.2324,0.496782 0.2335,0.496783 0.2335,0.496782 0.2361,0.496782 0.2449,0.496782 0.2627,0.496783 0.2912,0.496782 0.3301,0.496782 0.3778,0.496783 0.4307,0.496782 0.4842,0.496782 0.5327,0.496783 0.5706,0.496782 0.5931,0.496782 0.5974,0.496783 0.5832,0.496782 0.5542,0.496782 0.5169,0.496783 0.4801,0.496782 0.4529,0.496782 0.4422,0.496783 0.4514,0.496782 0.4786,0.496782 0.5184,0.496783 0.562,0.496782 0.5999,0.496782 0.6244,0.496782 0.6303,0.496783 0.6166,0.496782 0.5851,0.496782 0.5413,0.496783 0.4914,0.496782 0.4419,0.496782 0.3981,0.496783 0.3624,0.496782 0.3346,0.496782 0.3111,0.496783 0.2873,0.496782 0.2582,0.496782 0.2208,0.496783 0.1759,0.496782 0.1276,0.496782 0.082,0.496783 0.049,0.496782 0.032,0.496782 0.034,0.496783 0.053,0.496782 0.082,0.496782 0.1119,0.496782 0.1312,0.496783 0.1312,0.496782 0.1074,0.496782 0.059,0.496783 -0.01,0.496782 -0.086,0.496782 -0.166,0.496783 -0.2395,0.496782 -0.3011,0.496782 -0.3483,0.496783 -0.3819,0.496782 -0.4041,0.496782 -0.4181,0.496783 -0.4264,0.496782 -0.4315,0.496782 -0.4358,0.496783 -0.4424,0.496782 -0.4549,0.496782 -0.4778,0.496783 -0.5153,0.496782 -0.5705,0.496782 -0.6442,0.496782 -0.7342,0.496783 -0.8352,0.496782 -0.9388,0.496782 -1.034,0.496783 -1.1093,0.496782 -1.1539,0.496782 -1.16,0.496783 -1.1239,0.496782 -1.0477,0.496782 -0.938,0.496783 -0.8057,0.496782 -0.663,0.496782 -0.5226,0.496783 -0.394,0.496782 -0.2842,0.496782 -0.1958,0.496783 z"
             style="stroke:#575757;stroke-width:1.5" />
        </defs>
        <g
           clip-path="url(#pcb11b20afb)"
           id="g11">
          <use
             xlink:href="#me45f0dde7a"
             x="0"
             y="288"
             style="fill:#6ab993;stroke:#575757;stroke-width:1.5"
             id="use11"
             width="100%"
             height="100%" />
        </g>
      </g>
      <g
         id="matplotlib.axis_1">
        <g
           id="xtick_1">
          <g
             id="line2d_1">
            <defs
               id="defs12">
              <path
                 id="m9ad1d5197c"
                 d="M 0,0 V 3.5"
                 style="stroke:#000000;stroke-width:0.8" />
            </defs>
            <g
               id="g12">
              <use
                 xlink:href="#m9ad1d5197c"
                 x="235.8"
                 y="256.32001"
                 style="stroke:#000000;stroke-width:0.8"
                 id="use12"
                 width="100%"
                 height="100%" />
            </g>
          </g>
          <g
             id="text_1">
            <!-- 0 -->
            <g
               transform="matrix(0.16,0,0,-0.16,231.38625,274.68)"
               id="g13">
              <defs
                 id="defs13">
                <path
                   id="Bahnschrift-30"
                   d="m 1766,-47 q -650,0 -974,348 -323,349 -323,943 v 2065 q 0,604 328,947 328,344 969,344 643,0 970,-342 327,-342 327,-949 V 1244 Q 3063,641 2736,297 2409,-47 1766,-47 Z m 0,606 q 350,0 504,183 155,183 155,502 v 2065 q 0,322 -155,503 -154,182 -504,182 -350,0 -505,-182 -155,-181 -155,-503 V 1244 q 0,-319 155,-502 155,-183 505,-183 z"
                   transform="scale(0.015625)" />
              </defs>
              <use
                 xlink:href="#Bahnschrift-30"
                 id="use13"
                 x="0"
                 y="0"
                 width="100%"
                 height="100%" />
            </g>
          </g>
        </g>
        <g
           id="xtick_2">
          <g
             id="line2d_2">
            <g
               id="g14">
              <use
                 xlink:href="#m9ad1d5197c"
                 x="347.39999"
                 y="256.32001"
                 style="stroke:#000000;stroke-width:0.8"
                 id="use14"
                 width="100%"
                 height="100%" />
            </g>
          </g>
          <g
             id="text_2">
            <!-- 1 -->
            <g
               transform="matrix(0.16,0,0,-0.16,344.74,274.68)"
               id="g15">
              <defs
                 id="defs14">
                <path
                   id="Bahnschrift-31"
                   d="M 1566,4544 V 0 H 928 V 3850 L 281,3453 v 660 l 647,431 z"
                   transform="scale(0.015625)" />
              </defs>
              <use
                 xlink:href="#Bahnschrift-31"
                 id="use15"
                 x="0"
                 y="0"
                 width="100%"
                 height="100%" />
            </g>
          </g>
        </g>
        <g
           id="xtick_3">
          <g
             id="line2d_3">
            <g
               id="g16">
              <use
                 xlink:href="#m9ad1d5197c"
                 x="459"
                 y="256.32001"
                 style="stroke:#000000;stroke-width:0.8"
                 id="use16"
                 width="100%"
                 height="100%" />
            </g>
          </g>
          <g
             id="text_3">
            <!-- 2 -->
            <g
               transform="matrix(0.16,0,0,-0.16,454.8675,274.68)"
               id="g17">
              <defs
                 id="defs16">
                <path
                   id="Bahnschrift-32"
                   d="m 400,0 v 553 l 1584,2113 q 138,181 214,374 77,194 77,366 v 7 q 0,271 -160,421 -159,150 -452,150 -275,0 -449,-164 -173,-164 -211,-464 v -3 H 344 v 3 q 84,588 428,911 344,324 884,324 613,0 947,-310 335,-309 335,-875 v -3 q 0,-240 -100,-505 -100,-264 -279,-504 L 1244,606 H 2963 V 0 Z"
                   transform="scale(0.015625)" />
              </defs>
              <use
                 xlink:href="#Bahnschrift-32"
                 id="use17"
                 x="0"
                 y="0"
                 width="100%"
                 height="100%" />
            </g>
          </g>
        </g>
        <g
           id="xtick_4">
          <g
             id="line2d_4">
            <g
               id="g18">
              <use
                 xlink:href="#m9ad1d5197c"
                 x="570.59998"
                 y="256.32001"
                 style="stroke:#000000;stroke-width:0.8"
                 id="use18"
                 width="100%"
                 height="100%" />
            </g>
          </g>
          <g
             id="text_4">
            <!-- 3 -->
            <g
               transform="matrix(0.16,0,0,-0.16,566.37,274.68)"
               id="g19">
              <defs
                 id="defs18">
                <path
                   id="Bahnschrift-33"
                   d="M 1644,-47 Q 1259,-47 970,92 681,231 506,493 331,756 281,1131 v 0 h 650 v 0 q 44,-293 231,-429 188,-136 482,-136 315,0 490,168 175,169 175,475 v 138 q 0,341 -166,526 -165,186 -468,186 h -322 v 607 h 322 q 269,0 414,159 145,159 145,450 v 141 q 0,268 -155,415 -154,147 -438,147 -241,0 -408,-136 -167,-136 -230,-429 v 0 H 356 v 0 q 97,562 433,870 336,308 852,308 587,0 909,-310 322,-309 322,-872 v -75 q 0,-340 -185,-592 -184,-251 -521,-370 372,-78 576,-364 205,-286 205,-727 v -75 Q 2947,609 2606,281 2266,-47 1644,-47 Z"
                   transform="scale(0.015625)" />
              </defs>
              <use
                 xlink:href="#Bahnschrift-33"
                 id="use19"
                 x="0"
                 y="0"
                 width="100%"
                 height="100%" />
            </g>
          </g>
        </g>
        <g
           id="xtick_5">
          <g
             id="line2d_5">
            <g
               id="g20">
              <use
                 xlink:href="#m9ad1d5197c"
                 x="682.20001"
                 y="256.32001"
                 style="stroke:#000000;stroke-width:0.8"
                 id="use20"
                 width="100%"
                 height="100%" />
            </g>
          </g>
          <g
             id="text_5">
            <!-- 4 -->
            <g
               transform="matrix(0.16,0,0,-0.16,677.64875,274.68)"
               id="g21">
              <defs
                 id="defs20">
                <path
                   id="Bahnschrift-34"
                   d="m 406,697 v 553 l 1525,3291 h 657 L 1100,1288 H 3328 V 697 Z M 2366,-3 v 2675 h 622 V -3 Z"
                   transform="scale(0.015625)" />
              </defs>
              <use
                 xlink:href="#Bahnschrift-34"
                 id="use21"
                 x="0"
                 y="0"
                 width="100%"
                 height="100%" />
            </g>
          </g>
        </g>
        <g
           id="xtick_6">
          <g
             id="line2d_6">
            <g
               id="g22">
              <use
                 xlink:href="#m9ad1d5197c"
                 x="793.79999"
                 y="256.32001"
                 style="stroke:#000000;stroke-width:0.8"
                 id="use22"
                 width="100%"
                 height="100%" />
            </g>
          </g>
          <g
             id="text_6">
            <!-- 5 -->
            <g
               transform="matrix(0.16,0,0,-0.16,789.445,274.68)"
               id="g23">
              <defs
                 id="defs22">
                <path
                   id="Bahnschrift-35"
                   d="m 1738,-47 q -519,0 -852,298 -333,299 -417,843 v 3 h 637 v -3 q 35,-250 200,-389 166,-139 432,-139 306,0 473,204 167,205 167,577 v 381 q 0,372 -167,575 -167,203 -473,203 -166,0 -319,-94 -153,-93 -269,-262 H 569 V 4544 H 2884 V 3938 H 1206 V 2916 q 119,97 266,150 147,53 300,53 594,0 919,-364 325,-364 325,-1027 V 1347 Q 3016,681 2681,317 2347,-47 1738,-47 Z"
                   transform="scale(0.015625)" />
              </defs>
              <use
                 xlink:href="#Bahnschrift-35"
                 id="use23"
                 x="0"
                 y="0"
                 width="100%"
                 height="100%" />
            </g>
          </g>
        </g>
        <g
           id="xtick_7">
          <g
             id="line2d_7">
            <g
               id="g24">
              <use
                 xlink:href="#m9ad1d5197c"
                 x="905.40002"
                 y="256.32001"
                 style="stroke:#000000;stroke-width:0.8"
                 id="use24"
                 width="100%"
                 height="100%" />
            </g>
          </g>
          <g
             id="text_7">
            <!-- 6 -->
            <g
               transform="matrix(0.16,0,0,-0.16,901.295,274.68)"
               id="g25">
              <defs
                 id="defs24">
                <path
                   id="Bahnschrift-36"
                   d="M 1641,-47 Q 1038,-47 706,312 375,672 375,1325 v 3 q 0,294 81,623 82,330 235,637 l 987,1956 h 688 l -1160,-2266 3,113 q 163,309 579,309 534,0 827,-355 294,-354 294,-1001 v -3 Q 2909,681 2578,317 2247,-47 1641,-47 Z m 0,613 q 306,0 468,187 163,188 163,535 v 3 q 0,381 -172,589 -172,208 -491,208 -284,0 -440,-210 -156,-209 -156,-590 v -4 q 0,-346 164,-532 164,-186 464,-186 z"
                   transform="scale(0.015625)" />
              </defs>
              <use
                 xlink:href="#Bahnschrift-36"
                 id="use25"
                 x="0"
                 y="0"
                 width="100%"
                 height="100%" />
            </g>
          </g>
        </g>
        <g
           id="xtick_8">
          <g
             id="line2d_8">
            <g
               id="g26">
              <use
                 xlink:href="#m9ad1d5197c"
                 x="1017"
                 y="256.32001"
                 style="stroke:#000000;stroke-width:0.8"
                 id="use26"
                 width="100%"
                 height="100%" />
            </g>
          </g>
          <g
             id="text_8">
            <!-- 7 -->
            <g
               transform="matrix(0.16,0,0,-0.16,1012.9725,274.68)"
               id="g27">
              <defs
                 id="defs26">
                <path
                   id="Bahnschrift-37"
                   d="M 2816,4544 V 3975 L 1641,0 H 963 L 2138,3938 H 981 V 3284 H 344 v 1260 z"
                   transform="scale(0.015625)" />
              </defs>
              <use
                 xlink:href="#Bahnschrift-37"
                 id="use27"
                 x="0"
                 y="0"
                 width="100%"
                 height="100%" />
            </g>
          </g>
        </g>
        <g
           id="xtick_9">
          <g
             id="line2d_9">
            <g
               id="g28">
              <use
                 xlink:href="#m9ad1d5197c"
                 x="1128.6"
                 y="256.32001"
                 style="stroke:#000000;stroke-width:0.8"
                 id="use28"
                 width="100%"
                 height="100%" />
            </g>
          </g>
          <g
             id="text_9">
            <!-- 8 -->
            <g
               transform="matrix(0.16,0,0,-0.16,1124.1,274.68)"
               id="g29">
              <defs
                 id="defs28">
                <path
                   id="Bahnschrift-38"
                   d="M 1800,-47 Q 1384,-47 1075,109 766,266 594,550 422,834 422,1216 v 75 q 0,340 170,640 171,300 455,453 -238,132 -385,380 -146,249 -146,524 v 109 q 0,541 351,867 352,327 933,327 581,0 932,-327 352,-326 352,-867 v -109 q 0,-282 -148,-529 -148,-246 -392,-375 287,-153 460,-453 174,-300 174,-640 v -75 Q 3178,834 3006,550 2834,266 2525,109 2216,-47 1800,-47 Z m 0,613 q 334,0 539,192 205,192 205,505 v 43 q 0,316 -205,508 -205,192 -539,192 -334,0 -539,-192 -205,-192 -205,-511 v -47 q 0,-312 205,-501 205,-189 539,-189 z m 0,2053 q 291,0 469,184 178,185 178,488 v 43 q 0,291 -178,467 -178,177 -469,177 -291,0 -469,-177 -178,-176 -178,-470 v -47 q 0,-300 178,-483 178,-182 469,-182 z"
                   transform="scale(0.015625)" />
              </defs>
              <use
                 xlink:href="#Bahnschrift-38"
                 id="use29"
                 x="0"
                 y="0"
                 width="100%"
                 height="100%" />
            </g>
          </g>
        </g>
        <g
           id="xtick_10">
          <g
             id="line2d_10">
            <g
               id="g30">
              <use
                 xlink:href="#m9ad1d5197c"
                 x="1240.2"
                 y="256.32001"
                 style="stroke:#000000;stroke-width:0.8"
                 id="use30"
                 width="100%"
                 height="100%" />
            </g>
          </g>
          <g
             id="text_10">
            <!-- 9 -->
            <g
               transform="matrix(0.16,0,0,-0.16,1236.095,274.68)"
               id="g31">
              <defs
                 id="defs30">
                <path
                   id="Bahnschrift-39"
                   d="m 934,0 1144,2256 -3,-112 q -81,-147 -241,-213 -159,-65 -368,-65 -491,0 -791,364 -300,364 -300,967 v 3 q 0,663 333,1027 333,364 936,364 603,0 934,-368 331,-367 331,-1039 v -3 q 0,-278 -81,-602 -81,-323 -237,-632 L 1622,0 Z m 710,2447 q 300,0 464,203 164,203 164,572 v 3 q 0,359 -164,556 -164,197 -464,197 -303,0 -467,-197 -164,-197 -164,-559 v -3 q 0,-369 164,-571 164,-201 467,-201 z"
                   transform="scale(0.015625)" />
              </defs>
              <use
                 xlink:href="#Bahnschrift-39"
                 id="use31"
                 x="0"
                 y="0"
                 width="100%"
                 height="100%" />
            </g>
          </g>
        </g>
        <g
           id="text_11">
          <!-- GF-Class -->
          <g
             transform="matrix(0.16,0,0,-0.16,704.69875,293.3375)"
             id="g39">
            <defs
               id="defs31">
              <path
                 id="Bahnschrift-47"
                 d="M 2094,2447 H 3669 V 1653 Q 3669,1141 3470,758 3272,375 2915,164 2559,-47 2078,-47 1594,-47 1231,151 869,350 669,711 469,1072 469,1553 v 1341 q 0,512 198,893 199,382 555,593 356,211 837,211 397,0 723,-169 327,-169 549,-472 222,-303 300,-709 v 0 h -690 v 0 q -88,353 -341,540 -253,188 -541,188 -425,0 -681,-296 -256,-295 -256,-779 V 1553 q 0,-444 262,-711 263,-267 694,-267 425,0 681,281 257,282 257,785 v 197 h -922 z"
                 transform="scale(0.015625)" />
              <path
                 id="Bahnschrift-46"
                 d="m 563,0 v 4544 h 637 V 0 Z m 312,1913 v 606 h 2203 v -606 z m 0,2025 v 606 h 2547 v -606 z"
                 transform="scale(0.015625)" />
              <path
                 id="Bahnschrift-2d"
                 d="M 500,1931 H 2600 V 1325 H 500 Z"
                 transform="scale(0.015625)" />
              <path
                 id="Bahnschrift-43"
                 d="m 2050,-47 q -475,0 -831,211 -356,211 -553,592 -197,382 -197,891 v 1247 q 0,512 197,893 197,382 553,593 356,211 831,211 394,0 720,-169 327,-169 547,-472 221,-303 299,-709 v 0 h -653 v 0 q -60,218 -199,382 -139,165 -327,255 -187,91 -387,91 -419,0 -674,-296 -254,-295 -254,-779 V 1647 q 0,-484 254,-778 255,-294 674,-294 297,0 559,187 263,188 354,541 v 0 h 653 v 0 Q 3538,897 3316,594 3094,291 2769,122 2444,-47 2050,-47 Z"
                 transform="scale(0.015625)" />
              <path
                 id="Bahnschrift-6c"
                 d="M 1138,4544 V 838 q 0,-116 51,-182 52,-65 145,-65 h 300 V -16 H 1259 Q 900,-16 700,209 500,434 500,844 v 3700 z"
                 transform="scale(0.015625)" />
              <path
                 id="Bahnschrift-61"
                 d="m 2331,0 v 2056 q 0,319 -170,495 -170,177 -483,177 -190,0 -376,-58 -186,-57 -333,-167 l -466,319 q 185,222 486,345 302,124 670,124 610,0 944,-316 335,-316 335,-891 V 0 Z m -793,-47 q -597,0 -896,247 -298,247 -298,756 0,485 273,724 274,239 821,239 h 921 l 44,-513 h -962 q -247,0 -372,-111 -125,-111 -125,-339 0,-247 165,-366 166,-118 497,-118 363,0 544,78 181,78 181,244 l 66,-456 Q 2313,206 2188,122 2063,38 1902,-4 1741,-47 1538,-47 Z"
                 transform="scale(0.015625)" />
              <path
                 id="Bahnschrift-73"
                 d="M 1647,-47 Q 1216,-47 864,79 513,206 234,459 v 0 l 379,466 v 0 q 265,-200 523,-300 258,-100 511,-100 378,0 567,117 189,117 189,352 0,181 -127,256 -126,75 -331,98 -204,24 -439,40 -197,15 -391,48 -193,33 -353,119 -159,86 -254,254 -95,169 -95,454 0,515 315,771 316,257 941,257 381,0 709,-104 328,-103 616,-315 v 0 l -385,-466 v 0 q -243,157 -479,235 -236,78 -461,78 -325,0 -488,-111 -162,-111 -162,-333 0,-147 112,-211 113,-64 297,-83 185,-18 397,-34 203,-13 411,-46 208,-32 383,-126 175,-94 281,-278 106,-184 106,-503 0,-522 -339,-782 Q 2328,-47 1647,-47 Z"
                 transform="scale(0.015625)" />
            </defs>
            <use
               xlink:href="#Bahnschrift-47"
               id="use32"
               x="0"
               y="0"
               width="100%"
               height="100%" />
            <use
               xlink:href="#Bahnschrift-46"
               x="64.648438"
               id="use33"
               y="0"
               width="100%"
               height="100%" />
            <use
               xlink:href="#Bahnschrift-2d"
               x="120.55664"
               id="use34"
               y="0"
               width="100%"
               height="100%" />
            <use
               xlink:href="#Bahnschrift-43"
               x="168.50586"
               id="use35"
               y="0"
               width="100%"
               height="100%" />
            <use
               xlink:href="#Bahnschrift-6c"
               x="230.37109"
               id="use36"
               y="0"
               width="100%"
               height="100%" />
            <use
               xlink:href="#Bahnschrift-61"
               x="259.32617"
               id="use37"
               y="0"
               width="100%"
               height="100%" />
            <use
               xlink:href="#Bahnschrift-73"
               x="312.54883"
               id="use38"
               y="0"
               width="100%"
               height="100%" />
            <use
               xlink:href="#Bahnschrift-73"
               x="364.4043"
               id="use39"
               y="0"
               width="100%"
               height="100%" />
          </g>
        </g>
      </g>
      <g
         id="matplotlib.axis_2">
        <g
           id="ytick_1">
          <g
             id="line2d_11">
            <defs
               id="defs39">
              <path
                 id="ma7d243f9d0"
                 d="M 0,0 H -3.5"
                 style="stroke:#000000;stroke-width:0.8" />
            </defs>
            <g
               id="g40">
              <use
                 xlink:href="#ma7d243f9d0"
                 x="180"
                 y="237.65384"
                 style="stroke:#000000;stroke-width:0.8"
                 id="use40"
                 width="100%"
                 height="100%" />
            </g>
          </g>
          <g
             id="text_12">
            <!-- 0 -->
            <g
               transform="matrix(0.16,0,0,-0.16,164.1725,243.33383)"
               id="g41">
              <use
                 xlink:href="#Bahnschrift-30"
                 id="use41"
                 x="0"
                 y="0"
                 width="100%"
                 height="100%" />
            </g>
          </g>
        </g>
        <g
           id="ytick_2">
          <g
             id="line2d_12">
            <g
               id="g42">
              <use
                 xlink:href="#ma7d243f9d0"
                 x="180"
                 y="174.44604"
                 style="stroke:#000000;stroke-width:0.8"
                 id="use42"
                 width="100%"
                 height="100%" />
            </g>
          </g>
          <g
             id="text_13">
            <!-- 5000 -->
            <g
               transform="matrix(0.16,0,0,-0.16,137.8075,180.12605)"
               id="g46">
              <use
                 xlink:href="#Bahnschrift-35"
                 id="use43"
                 x="0"
                 y="0"
                 width="100%"
                 height="100%" />
              <use
                 xlink:href="#Bahnschrift-30"
                 x="54.443359"
                 id="use44"
                 y="0"
                 width="100%"
                 height="100%" />
              <use
                 xlink:href="#Bahnschrift-30"
                 x="109.61914"
                 id="use45"
                 y="0"
                 width="100%"
                 height="100%" />
              <use
                 xlink:href="#Bahnschrift-30"
                 x="164.79492"
                 id="use46"
                 y="0"
                 width="100%"
                 height="100%" />
            </g>
          </g>
        </g>
        <g
           id="ytick_3">
          <g
             id="line2d_13">
            <g
               id="g47">
              <use
                 xlink:href="#ma7d243f9d0"
                 x="180"
                 y="111.23827"
                 style="stroke:#000000;stroke-width:0.8"
                 id="use47"
                 width="100%"
                 height="100%" />
            </g>
          </g>
          <g
             id="text_14">
            <!-- 10000 -->
            <g
               transform="matrix(0.16,0,0,-0.16,132.37,116.91827)"
               id="g52">
              <use
                 xlink:href="#Bahnschrift-31"
                 id="use48"
                 x="0"
                 y="0"
                 width="100%"
                 height="100%" />
              <use
                 xlink:href="#Bahnschrift-30"
                 x="33.251953"
                 id="use49"
                 y="0"
                 width="100%"
                 height="100%" />
              <use
                 xlink:href="#Bahnschrift-30"
                 x="88.427734"
                 id="use50"
                 y="0"
                 width="100%"
                 height="100%" />
              <use
                 xlink:href="#Bahnschrift-30"
                 x="143.60352"
                 id="use51"
                 y="0"
                 width="100%"
                 height="100%" />
              <use
                 xlink:href="#Bahnschrift-30"
                 x="198.7793"
                 id="use52"
                 y="0"
                 width="100%"
                 height="100%" />
            </g>
          </g>
        </g>
        <g
           id="ytick_4">
          <g
             id="line2d_14">
            <g
               id="g53">
              <use
                 xlink:href="#ma7d243f9d0"
                 x="180"
                 y="48.030487"
                 style="stroke:#000000;stroke-width:0.8"
                 id="use53"
                 width="100%"
                 height="100%" />
            </g>
          </g>
          <g
             id="text_15">
            <!-- 15000 -->
            <g
               transform="matrix(0.16,0,0,-0.16,132.4875,53.710487)"
               id="g58">
              <use
                 xlink:href="#Bahnschrift-31"
                 id="use54"
                 x="0"
                 y="0"
                 width="100%"
                 height="100%" />
              <use
                 xlink:href="#Bahnschrift-35"
                 x="33.251953"
                 id="use55"
                 y="0"
                 width="100%"
                 height="100%" />
              <use
                 xlink:href="#Bahnschrift-30"
                 x="87.695312"
                 id="use56"
                 y="0"
                 width="100%"
                 height="100%" />
              <use
                 xlink:href="#Bahnschrift-30"
                 x="142.87109"
                 id="use57"
                 y="0"
                 width="100%"
                 height="100%" />
              <use
                 xlink:href="#Bahnschrift-30"
                 x="198.04688"
                 id="use58"
                 y="0"
                 width="100%"
                 height="100%" />
            </g>
          </g>
        </g>
      </g>
      <g
         id="line2d_15">
        <path
           d="m 235.8,234.91062 v -54.4219"
           clip-path="url(#pcb11b20afb)"
           style="fill:none;stroke:#575757;stroke-width:1.5;stroke-linecap:square"
           id="path58" />
      </g>
      <g
         id="line2d_16">
        <path
           d="M 235.8,221.76024 V 205.2472"
           clip-path="url(#pcb11b20afb)"
           style="fill:none;stroke:#575757;stroke-width:4.5;stroke-linecap:square"
           id="path59" />
      </g>
      <g
         id="line2d_17">
        <path
           d="M 347.4,237.08496 V 196.87217"
           clip-path="url(#pcb11b20afb)"
           style="fill:none;stroke:#575757;stroke-width:1.5;stroke-linecap:square"
           id="path60" />
      </g>
      <g
         id="line2d_18">
        <path
           d="M 347.4,232.44867 V 218.20796"
           clip-path="url(#pcb11b20afb)"
           style="fill:none;stroke:#575757;stroke-width:4.5;stroke-linecap:square"
           id="path61" />
      </g>
      <g
         id="line2d_19">
        <path
           d="M 459,237.45157 V 203.77446"
           clip-path="url(#pcb11b20afb)"
           style="fill:none;stroke:#575757;stroke-width:1.5;stroke-linecap:square"
           id="path62" />
      </g>
      <g
         id="line2d_20">
        <path
           d="M 459,234.93906 V 222.25958"
           clip-path="url(#pcb11b20afb)"
           style="fill:none;stroke:#575757;stroke-width:4.5;stroke-linecap:square"
           id="path63" />
      </g>
      <g
         id="line2d_21">
        <path
           d="M 570.6,237.61591 V 213.81186"
           clip-path="url(#pcb11b20afb)"
           style="fill:none;stroke:#575757;stroke-width:1.5;stroke-linecap:square"
           id="path64" />
      </g>
      <g
         id="line2d_22">
        <path
           d="m 570.6,235.98515 v -8.90282"
           clip-path="url(#pcb11b20afb)"
           style="fill:none;stroke:#575757;stroke-width:4.5;stroke-linecap:square"
           id="path65" />
      </g>
      <g
         id="line2d_23">
        <path
           d="M 682.2,237.65383 V 221.32094"
           clip-path="url(#pcb11b20afb)"
           style="fill:none;stroke:#575757;stroke-width:1.5;stroke-linecap:square"
           id="path66" />
      </g>
      <g
         id="line2d_24">
        <path
           d="m 682.2,236.54454 v -6.09323"
           clip-path="url(#pcb11b20afb)"
           style="fill:none;stroke:#575757;stroke-width:4.5;stroke-linecap:square"
           id="path67" />
      </g>
      <g
         id="line2d_25">
        <path
           d="M 793.8,237.57798 V 219.57641"
           clip-path="url(#pcb11b20afb)"
           style="fill:none;stroke:#575757;stroke-width:1.5;stroke-linecap:square"
           id="path68" />
      </g>
      <g
         id="line2d_26">
        <path
           d="m 793.8,235.64699 v -6.44088"
           clip-path="url(#pcb11b20afb)"
           style="fill:none;stroke:#575757;stroke-width:4.5;stroke-linecap:square"
           id="path69" />
      </g>
      <g
         id="line2d_27">
        <path
           d="M 905.4,237.52742 V 218.09735"
           clip-path="url(#pcb11b20afb)"
           style="fill:none;stroke:#575757;stroke-width:1.5;stroke-linecap:square"
           id="path70" />
      </g>
      <g
         id="line2d_28">
        <path
           d="M 905.4,235.21401 V 228.3054"
           clip-path="url(#pcb11b20afb)"
           style="fill:none;stroke:#575757;stroke-width:4.5;stroke-linecap:square"
           id="path71" />
      </g>
      <g
         id="line2d_29">
        <path
           d="M 1017,237.29987 V 218.27433"
           clip-path="url(#pcb11b20afb)"
           style="fill:none;stroke:#575757;stroke-width:1.5;stroke-linecap:square"
           id="path72" />
      </g>
      <g
         id="line2d_30">
        <path
           d="M 1017,234.55665 V 227.9546"
           clip-path="url(#pcb11b20afb)"
           style="fill:none;stroke:#575757;stroke-width:4.5;stroke-linecap:square"
           id="path73" />
      </g>
      <g
         id="line2d_31">
        <path
           d="M 1128.6,237.401 V 216.04941"
           clip-path="url(#pcb11b20afb)"
           style="fill:none;stroke:#575757;stroke-width:1.5;stroke-linecap:square"
           id="path74" />
      </g>
      <g
         id="line2d_32">
        <path
           d="M 1128.6,232.30329 V 225.657"
           clip-path="url(#pcb11b20afb)"
           style="fill:none;stroke:#575757;stroke-width:4.5;stroke-linecap:square"
           id="path75" />
      </g>
      <g
         id="line2d_33">
        <path
           d="M 1240.2,232.11683 V 191.96725"
           clip-path="url(#pcb11b20afb)"
           style="fill:none;stroke:#575757;stroke-width:1.5;stroke-linecap:square"
           id="path76" />
      </g>
      <g
         id="line2d_34">
        <path
           d="M 1240.2,222.89482 V 209.03651"
           clip-path="url(#pcb11b20afb)"
           style="fill:none;stroke:#575757;stroke-width:4.5;stroke-linecap:square"
           id="path77" />
      </g>
      <g
         id="patch_3">
        <path
           d="M 180,256.32 V 34.56"
           style="fill:none;stroke:#000000;stroke-width:0.8;stroke-linecap:square;stroke-linejoin:miter"
           id="path78" />
      </g>
      <g
         id="patch_4">
        <path
           d="M 1296,256.32 V 34.56"
           style="fill:none;stroke:#000000;stroke-width:0.8;stroke-linecap:square;stroke-linejoin:miter"
           id="path79" />
      </g>
      <g
         id="patch_5">
        <path
           d="M 180,256.32 H 1296"
           style="fill:none;stroke:#000000;stroke-width:0.8;stroke-linecap:square;stroke-linejoin:miter"
           id="path80" />
      </g>
      <g
         id="patch_6">
        <path
           d="M 180,34.56 H 1296"
           style="fill:none;stroke:#000000;stroke-width:0.8;stroke-linecap:square;stroke-linejoin:miter"
           id="path81" />
      </g>
      <g
         id="PathCollection_1">
        <defs
           id="defs81">
          <path
             id="mb7c77a814f"
             d="M 0,1.5 C 0.397805,1.5 0.77937,1.341951 1.06066,1.06066 1.341951,0.77937 1.5,0.397805 1.5,0 1.5,-0.397805 1.341951,-0.77937 1.06066,-1.06066 0.77937,-1.341951 0.397805,-1.5 0,-1.5 c -0.397805,0 -0.77937,0.158049 -1.06066,0.43934 C -1.341951,-0.77937 -1.5,-0.397805 -1.5,0 c 0,0.397805 0.158049,0.77937 0.43934,1.06066 C -0.77937,1.341951 -0.397805,1.5 0,1.5 Z"
             style="stroke:#575757" />
        </defs>
        <g
           clip-path="url(#pcb11b20afb)"
           id="g81">
          <use
             xlink:href="#mb7c77a814f"
             x="235.8"
             y="215.12659"
             style="fill:#ffffff;stroke:#575757"
             id="use81"
             width="100%"
             height="100%" />
        </g>
      </g>
      <g
         id="PathCollection_2">
        <g
           clip-path="url(#pcb11b20afb)"
           id="g82">
          <use
             xlink:href="#mb7c77a814f"
             x="347.39999"
             y="227.49634"
             style="fill:#ffffff;stroke:#575757"
             id="use82"
             width="100%"
             height="100%" />
        </g>
      </g>
      <g
         id="PathCollection_3">
        <g
           clip-path="url(#pcb11b20afb)"
           id="g83">
          <use
             xlink:href="#mb7c77a814f"
             x="459"
             y="231.8324"
             style="fill:#ffffff;stroke:#575757"
             id="use83"
             width="100%"
             height="100%" />
        </g>
      </g>
      <g
         id="PathCollection_4">
        <g
           clip-path="url(#pcb11b20afb)"
           id="g84">
          <use
             xlink:href="#mb7c77a814f"
             x="570.59998"
             y="233.55797"
             style="fill:#ffffff;stroke:#575757"
             id="use84"
             width="100%"
             height="100%" />
        </g>
      </g>
      <g
         id="PathCollection_5">
        <g
           clip-path="url(#pcb11b20afb)"
           id="g85">
          <use
             xlink:href="#mb7c77a814f"
             x="682.20001"
             y="235.18874"
             style="fill:#ffffff;stroke:#575757"
             id="use85"
             width="100%"
             height="100%" />
        </g>
      </g>
      <g
         id="PathCollection_6">
        <g
           clip-path="url(#pcb11b20afb)"
           id="g86">
          <use
             xlink:href="#mb7c77a814f"
             x="793.79999"
             y="233.78552"
             style="fill:#ffffff;stroke:#575757"
             id="use86"
             width="100%"
             height="100%" />
        </g>
      </g>
      <g
         id="PathCollection_7">
        <g
           clip-path="url(#pcb11b20afb)"
           id="g87">
          <use
             xlink:href="#mb7c77a814f"
             x="905.40002"
             y="233.3557"
             style="fill:#ffffff;stroke:#575757"
             id="use87"
             width="100%"
             height="100%" />
        </g>
      </g>
      <g
         id="PathCollection_8">
        <g
           clip-path="url(#pcb11b20afb)"
           id="g88">
          <use
             xlink:href="#mb7c77a814f"
             x="1017"
             y="232.24324"
             style="fill:#ffffff;stroke:#575757"
             id="use88"
             width="100%"
             height="100%" />
        </g>
      </g>
      <g
         id="PathCollection_9">
        <g
           clip-path="url(#pcb11b20afb)"
           id="g89">
          <use
             xlink:href="#mb7c77a814f"
             x="1128.6"
             y="229.50635"
             style="fill:#ffffff;stroke:#575757"
             id="use89"
             width="100%"
             height="100%" />
        </g>
      </g>
      <g
         id="PathCollection_10">
        <g
           clip-path="url(#pcb11b20afb)"
           id="g90">
          <use
             xlink:href="#mb7c77a814f"
             x="1240.2"
             y="216.14423"
             style="fill:#ffffff;stroke:#575757"
             id="use90"
             width="100%"
             height="100%" />
        </g>
      </g>
    </g>
  </g>
  <defs
     id="defs115">
    <clipPath
       id="pcb11b20afb">
      <rect
         x="180"
         y="34.560001"
         width="1116"
         height="221.75999"
         id="rect115" />
    </clipPath>
  </defs>
</svg>
