<?xml version="1.0" encoding="UTF-8" standalone="no"?>
<svg
   width="539.46313pt"
   height="262.64749pt"
   viewBox="0 0 539.46313 262.64749"
   version="1.1"
   id="svg106"
   sodipodi:docname="pdf.svg"
   inkscape:version="1.3.2 (091e20e, 2023-11-25, custom)"
   inkscape:export-filename="pdf.pdf"
   inkscape:export-xdpi="96"
   inkscape:export-ydpi="96"
   xmlns:inkscape="http://www.inkscape.org/namespaces/inkscape"
   xmlns:sodipodi="http://sodipodi.sourceforge.net/DTD/sodipodi-0.dtd"
   xmlns:xlink="http://www.w3.org/1999/xlink"
   xmlns="http://www.w3.org/2000/svg"
   xmlns:svg="http://www.w3.org/2000/svg"
   xmlns:rdf="http://www.w3.org/1999/02/22-rdf-syntax-ns#"
   xmlns:cc="http://creativecommons.org/ns#"
   xmlns:dc="http://purl.org/dc/elements/1.1/">
  <sodipodi:namedview
     id="namedview106"
     pagecolor="#ffffff"
     bordercolor="#000000"
     borderopacity="0.25"
     inkscape:showpageshadow="2"
     inkscape:pageopacity="0.0"
     inkscape:pagecheckerboard="0"
     inkscape:deskcolor="#d1d1d1"
     inkscape:document-units="pt"
     inkscape:zoom="3.375"
     inkscape:cx="386.37037"
     inkscape:cy="146.37037"
     inkscape:window-width="3840"
     inkscape:window-height="2054"
     inkscape:window-x="-11"
     inkscape:window-y="-11"
     inkscape:window-maximized="1"
     inkscape:current-layer="g83" />
  <metadata
     id="metadata1">
    <rdf:RDF>
      <cc:Work>
        <dc:type
           rdf:resource="http://purl.org/dc/dcmitype/StillImage" />
        <dc:date>2024-05-29T19:55:39.674691</dc:date>
        <dc:format>image/svg+xml</dc:format>
        <dc:creator>
          <cc:Agent>
            <dc:title>Matplotlib v3.8.2, https://matplotlib.org/</dc:title>
          </cc:Agent>
        </dc:creator>
      </cc:Work>
    </rdf:RDF>
  </metadata>
  <defs
     id="defs1">
    <style
       type="text/css"
       id="style1">*{stroke-linejoin: round; stroke-linecap: butt}</style>
  </defs>
  <g
     id="figure_1"
     transform="translate(1.78,-34.16)">
    <g
       id="axes_1">
      <g
         id="patch_2">
        <path
           d="M 72,256.32 H 518.4 V 34.56 H 72 Z"
           style="fill:#ffffff"
           id="path2" />
      </g>
      <g
         id="PathCollection_1">
        <defs
           id="defs2">
          <path
             id="m04a80b8d4c"
             d="m -3,3 6,-6 m -6,0 6,6"
             style="stroke:#204e66;stroke-width:1.5" />
        </defs>
        <g
           clip-path="url(#p0aa51f3bd6)"
           id="g2">
          <use
             xlink:href="#m04a80b8d4c"
             x="107.25664"
             y="44.639999"
             style="fill:#204e66;stroke:#204e66;stroke-width:1.5"
             id="use2" />
        </g>
      </g>
      <g
         id="matplotlib.axis_1">
        <g
           id="xtick_1">
          <g
             id="line2d_1">
            <defs
               id="defs3">
              <path
                 id="m84c22d7cb4"
                 d="M 0,0 V 3.5"
                 style="stroke:#000000;stroke-width:0.8" />
            </defs>
            <g
               id="g3">
              <use
                 xlink:href="#m84c22d7cb4"
                 x="94.696869"
                 y="256.32001"
                 style="stroke:#000000;stroke-width:0.8"
                 id="use3" />
            </g>
          </g>
          <g
             id="text_1">
            <!-- 0 -->
            <g
               transform="matrix(0.16,0,0,-0.16,90.283119,274.68)"
               id="g4">
              <defs
                 id="defs4">
                <path
                   id="Bahnschrift-30"
                   d="m 1766,-47 q -650,0 -974,348 -323,349 -323,943 v 2065 q 0,604 328,947 328,344 969,344 643,0 970,-342 327,-342 327,-949 V 1244 Q 3063,641 2736,297 2409,-47 1766,-47 Z m 0,606 q 350,0 504,183 155,183 155,502 v 2065 q 0,322 -155,503 -154,182 -504,182 -350,0 -505,-182 -155,-181 -155,-503 V 1244 q 0,-319 155,-502 155,-183 505,-183 z"
                   transform="scale(0.015625)" />
              </defs>
              <use
                 xlink:href="#Bahnschrift-30"
                 id="use4" />
            </g>
          </g>
        </g>
        <g
           id="xtick_2">
          <g
             id="line2d_2">
            <g
               id="g5">
              <use
                 xlink:href="#m84c22d7cb4"
                 x="155.22589"
                 y="256.32001"
                 style="stroke:#000000;stroke-width:0.8"
                 id="use5" />
            </g>
          </g>
          <g
             id="text_2">
            <!-- 2000 -->
            <g
               transform="matrix(0.16,0,0,-0.16,137.85214,274.68)"
               id="g9">
              <defs
                 id="defs5">
                <path
                   id="Bahnschrift-32"
                   d="m 400,0 v 553 l 1584,2113 q 138,181 214,374 77,194 77,366 v 7 q 0,271 -160,421 -159,150 -452,150 -275,0 -449,-164 -173,-164 -211,-464 v -3 H 344 v 3 q 84,588 428,911 344,324 884,324 613,0 947,-310 335,-309 335,-875 v -3 q 0,-240 -100,-505 -100,-264 -279,-504 L 1244,606 H 2963 V 0 Z"
                   transform="scale(0.015625)" />
              </defs>
              <use
                 xlink:href="#Bahnschrift-32"
                 id="use6" />
              <use
                 xlink:href="#Bahnschrift-30"
                 x="51.660156"
                 id="use7" />
              <use
                 xlink:href="#Bahnschrift-30"
                 x="106.83594"
                 id="use8" />
              <use
                 xlink:href="#Bahnschrift-30"
                 x="162.01172"
                 id="use9" />
            </g>
          </g>
        </g>
        <g
           id="xtick_3">
          <g
             id="line2d_3">
            <g
               id="g10">
              <use
                 xlink:href="#m84c22d7cb4"
                 x="215.75491"
                 y="256.32001"
                 style="stroke:#000000;stroke-width:0.8"
                 id="use10" />
            </g>
          </g>
          <g
             id="text_3">
            <!-- 4000 -->
            <g
               transform="matrix(0.16,0,0,-0.16,197.96241,274.68)"
               id="g14">
              <defs
                 id="defs10">
                <path
                   id="Bahnschrift-34"
                   d="m 406,697 v 553 l 1525,3291 h 657 L 1100,1288 H 3328 V 697 Z M 2366,-3 v 2675 h 622 V -3 Z"
                   transform="scale(0.015625)" />
              </defs>
              <use
                 xlink:href="#Bahnschrift-34"
                 id="use11" />
              <use
                 xlink:href="#Bahnschrift-30"
                 x="56.884766"
                 id="use12" />
              <use
                 xlink:href="#Bahnschrift-30"
                 x="112.06055"
                 id="use13" />
              <use
                 xlink:href="#Bahnschrift-30"
                 x="167.23633"
                 id="use14" />
            </g>
          </g>
        </g>
        <g
           id="xtick_4">
          <g
             id="line2d_4">
            <g
               id="g15">
              <use
                 xlink:href="#m84c22d7cb4"
                 x="276.28394"
                 y="256.32001"
                 style="stroke:#000000;stroke-width:0.8"
                 id="use15" />
            </g>
          </g>
          <g
             id="text_4">
            <!-- 6000 -->
            <g
               transform="matrix(0.16,0,0,-0.16,258.93768,274.68)"
               id="g19">
              <defs
                 id="defs15">
                <path
                   id="Bahnschrift-36"
                   d="M 1641,-47 Q 1038,-47 706,312 375,672 375,1325 v 3 q 0,294 81,623 82,330 235,637 l 987,1956 h 688 l -1160,-2266 3,113 q 163,309 579,309 534,0 827,-355 294,-354 294,-1001 v -3 Q 2909,681 2578,317 2247,-47 1641,-47 Z m 0,613 q 306,0 468,187 163,188 163,535 v 3 q 0,381 -172,589 -172,208 -491,208 -284,0 -440,-210 -156,-209 -156,-590 v -4 q 0,-346 164,-532 164,-186 464,-186 z"
                   transform="scale(0.015625)" />
              </defs>
              <use
                 xlink:href="#Bahnschrift-36"
                 id="use16" />
              <use
                 xlink:href="#Bahnschrift-30"
                 x="51.318359"
                 id="use17" />
              <use
                 xlink:href="#Bahnschrift-30"
                 x="106.49414"
                 id="use18" />
              <use
                 xlink:href="#Bahnschrift-30"
                 x="161.66992"
                 id="use19" />
            </g>
          </g>
        </g>
        <g
           id="xtick_5">
          <g
             id="line2d_5">
            <g
               id="g20">
              <use
                 xlink:href="#m84c22d7cb4"
                 x="336.81296"
                 y="256.32001"
                 style="stroke:#000000;stroke-width:0.8"
                 id="use20" />
            </g>
          </g>
          <g
             id="text_5">
            <!-- 8000 -->
            <g
               transform="matrix(0.16,0,0,-0.16,319.07169,274.68)"
               id="g24">
              <defs
                 id="defs20">
                <path
                   id="Bahnschrift-38"
                   d="M 1800,-47 Q 1384,-47 1075,109 766,266 594,550 422,834 422,1216 v 75 q 0,340 170,640 171,300 455,453 -238,132 -385,380 -146,249 -146,524 v 109 q 0,541 351,867 352,327 933,327 581,0 932,-327 352,-326 352,-867 v -109 q 0,-282 -148,-529 -148,-246 -392,-375 287,-153 460,-453 174,-300 174,-640 v -75 Q 3178,834 3006,550 2834,266 2525,109 2216,-47 1800,-47 Z m 0,613 q 334,0 539,192 205,192 205,505 v 43 q 0,316 -205,508 -205,192 -539,192 -334,0 -539,-192 -205,-192 -205,-511 v -47 q 0,-312 205,-501 205,-189 539,-189 z m 0,2053 q 291,0 469,184 178,185 178,488 v 43 q 0,291 -178,467 -178,177 -469,177 -291,0 -469,-177 -178,-176 -178,-470 v -47 q 0,-300 178,-483 178,-182 469,-182 z"
                   transform="scale(0.015625)" />
              </defs>
              <use
                 xlink:href="#Bahnschrift-38"
                 id="use21" />
              <use
                 xlink:href="#Bahnschrift-30"
                 x="56.25"
                 id="use22" />
              <use
                 xlink:href="#Bahnschrift-30"
                 x="111.42578"
                 id="use23" />
              <use
                 xlink:href="#Bahnschrift-30"
                 x="166.60156"
                 id="use24" />
            </g>
          </g>
        </g>
        <g
           id="xtick_6">
          <g
             id="line2d_6">
            <g
               id="g25">
              <use
                 xlink:href="#m84c22d7cb4"
                 x="397.34195"
                 y="256.32001"
                 style="stroke:#000000;stroke-width:0.8"
                 id="use25" />
            </g>
          </g>
          <g
             id="text_6">
            <!-- 10000 -->
            <g
               transform="matrix(0.16,0,0,-0.16,377.02696,274.68)"
               id="g30">
              <defs
                 id="defs25">
                <path
                   id="Bahnschrift-31"
                   d="M 1566,4544 V 0 H 928 V 3850 L 281,3453 v 660 l 647,431 z"
                   transform="scale(0.015625)" />
              </defs>
              <use
                 xlink:href="#Bahnschrift-31"
                 id="use26" />
              <use
                 xlink:href="#Bahnschrift-30"
                 x="33.251953"
                 id="use27" />
              <use
                 xlink:href="#Bahnschrift-30"
                 x="88.427734"
                 id="use28" />
              <use
                 xlink:href="#Bahnschrift-30"
                 x="143.60352"
                 id="use29" />
              <use
                 xlink:href="#Bahnschrift-30"
                 x="198.7793"
                 id="use30" />
            </g>
          </g>
        </g>
        <g
           id="xtick_7">
          <g
             id="line2d_7">
            <g
               id="g31">
              <use
                 xlink:href="#m84c22d7cb4"
                 x="457.87097"
                 y="256.32001"
                 style="stroke:#000000;stroke-width:0.8"
                 id="use31" />
            </g>
          </g>
          <g
             id="text_7">
            <!-- 12000 -->
            <g
               transform="matrix(0.16,0,0,-0.16,437.83723,274.68)"
               id="g36">
              <use
                 xlink:href="#Bahnschrift-31"
                 id="use32" />
              <use
                 xlink:href="#Bahnschrift-32"
                 x="33.251953"
                 id="use33" />
              <use
                 xlink:href="#Bahnschrift-30"
                 x="84.912109"
                 id="use34" />
              <use
                 xlink:href="#Bahnschrift-30"
                 x="140.08789"
                 id="use35" />
              <use
                 xlink:href="#Bahnschrift-30"
                 x="195.26367"
                 id="use36" />
            </g>
          </g>
        </g>
        <g
           id="xtick_8">
          <g
             id="line2d_8">
            <g
               id="g37">
              <use
                 xlink:href="#m84c22d7cb4"
                 x="518.40002"
                 y="256.32001"
                 style="stroke:#000000;stroke-width:0.8"
                 id="use37" />
            </g>
          </g>
          <g
             id="text_8">
            <!-- 14000 -->
            <g
               transform="matrix(0.16,0,0,-0.16,497.9475,274.68)"
               id="g42">
              <use
                 xlink:href="#Bahnschrift-31"
                 id="use38" />
              <use
                 xlink:href="#Bahnschrift-34"
                 x="33.251953"
                 id="use39" />
              <use
                 xlink:href="#Bahnschrift-30"
                 x="90.136719"
                 id="use40" />
              <use
                 xlink:href="#Bahnschrift-30"
                 x="145.3125"
                 id="use41" />
              <use
                 xlink:href="#Bahnschrift-30"
                 x="200.48828"
                 id="use42" />
            </g>
          </g>
        </g>
        <g
           id="text_9">
          <!-- χ²-like error -->
          <g
             transform="matrix(0.16,0,0,-0.16,250.94,293.3925)"
             id="g55">
            <defs
               id="defs42">
              <path
                 id="Bahnschrift-3c7"
                 d="m 2753,-1366 q -147,0 -272,63 -125,62 -228,192 -103,130 -194,323 L 600,2438 q -53,118 -119,182 -65,64 -159,64 H 94 v 607 h 322 q 150,0 273,-63 124,-62 228,-191 105,-128 192,-324 L 2569,-513 q 53,-115 134,-180 81,-66 269,-66 h 106 v -607 z m -2628,47 1225,2460 338,-547 -866,-1913 z m 1772,2103 -338,547 775,1913 h 697 z"
                 transform="scale(0.015625)" />
              <path
                 id="Bahnschrift-b2"
                 d="m 378,2597 v 441 l 422,365 q 250,213 322,320 72,108 72,240 v 0 q 0,162 -160,162 -87,0 -140,-55 -53,-54 -69,-164 v 0 H 313 v 0 q 21,332 208,496 188,164 492,164 353,0 529,-150 177,-150 177,-447 v -3 q 0,-163 -97,-307 -97,-143 -319,-362 l -240,-234 h 656 v -466 z"
                 transform="scale(0.015625)" />
              <path
                 id="Bahnschrift-2d"
                 d="M 500,1931 H 2600 V 1325 H 500 Z"
                 transform="scale(0.015625)" />
              <path
                 id="Bahnschrift-6c"
                 d="M 1138,4544 V 838 q 0,-116 51,-182 52,-65 145,-65 h 300 V -16 H 1259 Q 900,-16 700,209 500,434 500,844 v 3700 z"
                 transform="scale(0.015625)" />
              <path
                 id="Bahnschrift-69"
                 d="m 500,3906 v 638 h 638 V 3906 Z M 500,0 v 3244 h 638 V 0 Z"
                 transform="scale(0.015625)" />
              <path
                 id="Bahnschrift-6b"
                 d="m 734,475 41,756 1669,2013 h 750 z M 500,0 v 4544 h 638 V 0 Z M 2659,0 1528,1872 1938,2297 3353,0 Z"
                 transform="scale(0.015625)" />
              <path
                 id="Bahnschrift-65"
                 d="M 1828,-47 Q 1150,-47 778,331 406,709 406,1406 v 366 q 0,725 358,1122 358,397 1008,397 612,0 948,-450 336,-450 336,-1263 V 1366 H 869 v 512 h 1581 v 0 q -28,394 -205,616 -176,222 -473,222 -359,0 -559,-238 -200,-237 -200,-672 v -412 q 0,-403 214,-619 214,-216 601,-216 194,0 384,78 191,79 341,219 v 0 l 419,-418 v 0 Q 2731,206 2431,79 2131,-47 1828,-47 Z"
                 transform="scale(0.015625)" />
              <path
                 id="Bahnschrift-20"
                 transform="scale(0.015625)"
                 d="" />
              <path
                 id="Bahnschrift-72"
                 d="m 500,0 v 3244 h 638 V 0 Z m 1784,2475 q -84,103 -212,156 -128,53 -297,53 -303,0 -470,-167 -167,-167 -167,-464 l -66,625 q 147,288 386,450 239,163 526,163 222,0 402,-64 180,-64 314,-189 z"
                 transform="scale(0.015625)" />
              <path
                 id="Bahnschrift-6f"
                 d="M 1744,-47 Q 1106,-47 756,323 406,694 406,1366 v 528 q 0,665 350,1031 350,366 988,366 637,0 987,-366 350,-366 350,-1031 V 1356 Q 3081,688 2731,320 2381,-47 1744,-47 Z m 0,606 q 334,0 517,209 183,210 183,588 v 538 q 0,378 -183,584 -183,206 -517,206 -331,0 -516,-206 -184,-206 -184,-584 v -538 q 0,-378 184,-588 185,-209 516,-209 z"
                 transform="scale(0.015625)" />
            </defs>
            <use
               xlink:href="#Bahnschrift-3c7"
               id="use43" />
            <use
               xlink:href="#Bahnschrift-b2"
               x="50.537109"
               id="use44" />
            <use
               xlink:href="#Bahnschrift-2d"
               x="81.787109"
               id="use45" />
            <use
               xlink:href="#Bahnschrift-6c"
               x="129.73633"
               id="use46" />
            <use
               xlink:href="#Bahnschrift-69"
               x="158.69141"
               id="use47" />
            <use
               xlink:href="#Bahnschrift-6b"
               x="183.78906"
               id="use48" />
            <use
               xlink:href="#Bahnschrift-65"
               x="236.66992"
               id="use49" />
            <use
               xlink:href="#Bahnschrift-20"
               x="290.2832"
               id="use50" />
            <use
               xlink:href="#Bahnschrift-65"
               x="317.13867"
               id="use51" />
            <use
               xlink:href="#Bahnschrift-72"
               x="370.75195"
               id="use52" />
            <use
               xlink:href="#Bahnschrift-72"
               x="413.42773"
               id="use53" />
            <use
               xlink:href="#Bahnschrift-6f"
               x="456.10352"
               id="use54" />
            <use
               xlink:href="#Bahnschrift-72"
               x="510.5957"
               id="use55" />
          </g>
        </g>
      </g>
      <g
         id="matplotlib.axis_2">
        <g
           id="ytick_1">
          <g
             id="line2d_9">
            <defs
               id="defs55">
              <path
                 id="m4fe3309eeb"
                 d="M 0,0 H -3.5"
                 style="stroke:#000000;stroke-width:0.8" />
            </defs>
            <g
               id="g56">
              <use
                 xlink:href="#m4fe3309eeb"
                 x="72"
                 y="246.2402"
                 style="stroke:#000000;stroke-width:0.8"
                 id="use56" />
            </g>
          </g>
          <g
             id="text_10">
            <!-- 0.0000 -->
            <g
               transform="matrix(0.16,0,0,-0.16,17.2375,251.9202)"
               id="g62">
              <defs
                 id="defs56">
                <path
                   id="Bahnschrift-2e"
                   d="m 391,0 v 669 h 668 V 0 Z"
                   transform="scale(0.015625)" />
              </defs>
              <use
                 xlink:href="#Bahnschrift-30"
                 id="use57" />
              <use
                 xlink:href="#Bahnschrift-2e"
                 x="55.175781"
                 id="use58" />
              <use
                 xlink:href="#Bahnschrift-30"
                 x="77.832031"
                 id="use59" />
              <use
                 xlink:href="#Bahnschrift-30"
                 x="133.00781"
                 id="use60" />
              <use
                 xlink:href="#Bahnschrift-30"
                 x="188.18359"
                 id="use61" />
              <use
                 xlink:href="#Bahnschrift-30"
                 x="243.35938"
                 id="use62" />
            </g>
          </g>
        </g>
        <g
           id="ytick_2">
          <g
             id="line2d_10">
            <g
               id="g63">
              <use
                 xlink:href="#m4fe3309eeb"
                 x="72"
                 y="190.27896"
                 style="stroke:#000000;stroke-width:0.8"
                 id="use63" />
            </g>
          </g>
          <g
             id="text_11">
            <!-- 0.0002 -->
            <g
               transform="matrix(0.16,0,0,-0.16,17.8,195.95896)"
               id="g69">
              <use
                 xlink:href="#Bahnschrift-30"
                 id="use64" />
              <use
                 xlink:href="#Bahnschrift-2e"
                 x="55.175781"
                 id="use65" />
              <use
                 xlink:href="#Bahnschrift-30"
                 x="77.832031"
                 id="use66" />
              <use
                 xlink:href="#Bahnschrift-30"
                 x="133.00781"
                 id="use67" />
              <use
                 xlink:href="#Bahnschrift-30"
                 x="188.18359"
                 id="use68" />
              <use
                 xlink:href="#Bahnschrift-32"
                 x="243.35938"
                 id="use69" />
            </g>
          </g>
        </g>
        <g
           id="ytick_3">
          <g
             id="line2d_11">
            <g
               id="g70">
              <use
                 xlink:href="#m4fe3309eeb"
                 x="72"
                 y="134.31772"
                 style="stroke:#000000;stroke-width:0.8"
                 id="use70" />
            </g>
          </g>
          <g
             id="text_12">
            <!-- 0.0004 -->
            <g
               transform="matrix(0.16,0,0,-0.16,16.9625,139.99771)"
               id="g76">
              <use
                 xlink:href="#Bahnschrift-30"
                 id="use71" />
              <use
                 xlink:href="#Bahnschrift-2e"
                 x="55.175781"
                 id="use72" />
              <use
                 xlink:href="#Bahnschrift-30"
                 x="77.832031"
                 id="use73" />
              <use
                 xlink:href="#Bahnschrift-30"
                 x="133.00781"
                 id="use74" />
              <use
                 xlink:href="#Bahnschrift-30"
                 x="188.18359"
                 id="use75" />
              <use
                 xlink:href="#Bahnschrift-34"
                 x="243.35938"
                 id="use76" />
            </g>
          </g>
        </g>
        <g
           id="ytick_4">
          <g
             id="line2d_12">
            <g
               id="g77">
              <use
                 xlink:href="#m4fe3309eeb"
                 x="72"
                 y="78.356468"
                 style="stroke:#000000;stroke-width:0.8"
                 id="use77" />
            </g>
          </g>
          <g
             id="text_13">
            <!-- 0.0006 -->
            <g
               transform="matrix(0.16,0,0,-0.16,17.855,84.036468)"
               id="g83">
              <use
                 xlink:href="#Bahnschrift-30"
                 id="use78" />
              <use
                 xlink:href="#Bahnschrift-2e"
                 x="55.175781"
                 id="use79" />
              <use
                 xlink:href="#Bahnschrift-30"
                 x="77.832031"
                 id="use80" />
              <use
                 xlink:href="#Bahnschrift-30"
                 x="133.00781"
                 id="use81" />
              <use
                 xlink:href="#Bahnschrift-30"
                 x="188.18359"
                 id="use82" />
              <use
                 xlink:href="#Bahnschrift-36"
                 x="243.35938"
                 id="use83" />
            </g>
          </g>
        </g>
        <g
           id="text_14">
          <!-- Probability density -->
          <g
             transform="matrix(0,-0.16,-0.16,0,9.58,211.8075)"
             id="g102">
            <defs
               id="defs83">
              <path
                 id="Bahnschrift-50"
                 d="m 891,1763 v 606 h 1453 q 312,0 501,215 189,216 189,566 v 0 q 0,356 -189,572 -189,216 -501,216 H 891 v 606 h 1431 q 412,0 718,-174 307,-173 477,-486 171,-312 171,-734 v 0 q 0,-419 -171,-732 -170,-312 -477,-484 -306,-171 -718,-171 z M 563,0 v 4544 h 637 V 0 Z"
                 transform="scale(0.015625)" />
              <path
                 id="Bahnschrift-62"
                 d="m 1953,-47 q -303,0 -528,145 -225,146 -331,411 l 44,679 q 0,-210 75,-357 75,-147 217,-225 142,-78 345,-78 316,0 489,192 174,193 174,543 v 703 q 0,356 -174,553 -173,197 -489,197 -203,0 -345,-75 -142,-75 -217,-219 -75,-144 -75,-350 l -66,625 q 147,284 384,439 238,155 528,155 522,0 806,-346 285,-345 285,-976 V 1263 Q 3075,641 2781,297 2488,-47 1953,-47 Z M 500,0 v 4544 h 638 V 0 Z"
                 transform="scale(0.015625)" />
              <path
                 id="Bahnschrift-61"
                 d="m 2331,0 v 2056 q 0,319 -170,495 -170,177 -483,177 -190,0 -376,-58 -186,-57 -333,-167 l -466,319 q 185,222 486,345 302,124 670,124 610,0 944,-316 335,-316 335,-891 V 0 Z m -793,-47 q -597,0 -896,247 -298,247 -298,756 0,485 273,724 274,239 821,239 h 921 l 44,-513 h -962 q -247,0 -372,-111 -125,-111 -125,-339 0,-247 165,-366 166,-118 497,-118 363,0 544,78 181,78 181,244 l 66,-456 Q 2313,206 2188,122 2063,38 1902,-4 1741,-47 1538,-47 Z"
                 transform="scale(0.015625)" />
              <path
                 id="Bahnschrift-74"
                 d="M 1344,-16 Q 944,-16 764,206 584,428 584,844 v 3344 h 638 V 838 q 0,-116 47,-182 47,-65 137,-65 h 307 V -16 Z M 250,2669 v 575 h 1463 v -575 z"
                 transform="scale(0.015625)" />
              <path
                 id="Bahnschrift-79"
                 d="m 2378,3244 h 650 L 1647,-759 q -116,-335 -335,-464 -218,-130 -599,-130 H 584 v 612 h 129 q 178,0 282,72 105,72 183,247 z M 1450,-266 156,3244 H 806 L 1803,425 Z"
                 transform="scale(0.015625)" />
              <path
                 id="Bahnschrift-64"
                 d="m 2344,0 v 4544 h 637 V 0 Z M 1528,-56 Q 991,-56 698,289 406,634 406,1263 v 715 q 0,631 286,976 286,346 805,346 287,0 526,-150 240,-150 386,-422 l -65,-662 q 0,206 -75,353 -75,147 -218,223 -142,77 -345,77 -315,0 -489,-197 -173,-197 -173,-553 v -706 q 0,-354 173,-546 174,-192 489,-192 203,0 345,79 143,80 218,230 75,150 75,360 l 44,-685 Q 2300,291 2086,117 1872,-56 1528,-56 Z"
                 transform="scale(0.015625)" />
              <path
                 id="Bahnschrift-6e"
                 d="m 500,0 v 3244 h 638 V 0 Z m 1969,0 v 1966 q 0,343 -177,530 -176,188 -501,188 -313,0 -483,-166 -170,-165 -170,-465 l -66,625 q 150,294 392,453 242,160 536,160 528,0 817,-346 289,-345 289,-976 V 0 Z"
                 transform="scale(0.015625)" />
              <path
                 id="Bahnschrift-73"
                 d="M 1647,-47 Q 1216,-47 864,79 513,206 234,459 v 0 l 379,466 v 0 q 265,-200 523,-300 258,-100 511,-100 378,0 567,117 189,117 189,352 0,181 -127,256 -126,75 -331,98 -204,24 -439,40 -197,15 -391,48 -193,33 -353,119 -159,86 -254,254 -95,169 -95,454 0,515 315,771 316,257 941,257 381,0 709,-104 328,-103 616,-315 v 0 l -385,-466 v 0 q -243,157 -479,235 -236,78 -461,78 -325,0 -488,-111 -162,-111 -162,-333 0,-147 112,-211 113,-64 297,-83 185,-18 397,-34 203,-13 411,-46 208,-32 383,-126 175,-94 281,-278 106,-184 106,-503 0,-522 -339,-782 Q 2328,-47 1647,-47 Z"
                 transform="scale(0.015625)" />
            </defs>
            <use
               xlink:href="#Bahnschrift-50"
               id="use84" />
            <use
               xlink:href="#Bahnschrift-72"
               x="62.255859"
               id="use85" />
            <use
               xlink:href="#Bahnschrift-6f"
               x="104.93164"
               id="use86" />
            <use
               xlink:href="#Bahnschrift-62"
               x="159.42383"
               id="use87" />
            <use
               xlink:href="#Bahnschrift-61"
               x="213.81836"
               id="use88" />
            <use
               xlink:href="#Bahnschrift-62"
               x="267.04102"
               id="use89" />
            <use
               xlink:href="#Bahnschrift-69"
               x="321.43555"
               id="use90" />
            <use
               xlink:href="#Bahnschrift-6c"
               x="346.5332"
               id="use91" />
            <use
               xlink:href="#Bahnschrift-69"
               x="375.48828"
               id="use92" />
            <use
               xlink:href="#Bahnschrift-74"
               x="400.58594"
               id="use93" />
            <use
               xlink:href="#Bahnschrift-79"
               x="433.20312"
               id="use94" />
            <use
               xlink:href="#Bahnschrift-20"
               x="481.49414"
               id="use95" />
            <use
               xlink:href="#Bahnschrift-64"
               x="508.34961"
               id="use96" />
            <use
               xlink:href="#Bahnschrift-65"
               x="562.25586"
               id="use97" />
            <use
               xlink:href="#Bahnschrift-6e"
               x="615.86914"
               id="use98" />
            <use
               xlink:href="#Bahnschrift-73"
               x="671.72852"
               id="use99" />
            <use
               xlink:href="#Bahnschrift-69"
               x="723.58398"
               id="use100" />
            <use
               xlink:href="#Bahnschrift-74"
               x="748.68164"
               id="use101" />
            <use
               xlink:href="#Bahnschrift-79"
               x="781.29883"
               id="use102" />
          </g>
        </g>
      </g>
      <g
         id="line2d_13">
        <path
           d="m 94.696869,125.68457 3.480418,-34.320899 1.815871,-15.741663 1.452692,-10.752156 1.21059,-7.412963 1.05925,-5.185613 0.90794,-3.409557 0.78688,-2.152203 0.66581,-1.228783 0.57503,-0.622525 0.48423,-0.210212 0.42371,0.0494 0.45396,0.291429 0.5145,0.623191 0.60529,1.121316 0.69608,1.789041 0.81715,2.745711 0.96846,4.087835 1.15005,5.89816 1.3619,8.210793 1.75535,12.046428 2.75407,20.68359 3.96465,29.52278 2.23957,14.95934 1.93693,11.49538 1.81587,9.48595 1.75534,8.01406 1.72508,6.85277 1.72507,5.94841 1.72508,5.16271 1.75534,4.5655 1.81587,4.10783 1.8764,3.69444 1.93693,3.3222 1.99746,2.98581 2.05799,2.68011 2.14878,2.43357 2.23957,2.20008 2.36063,2.00636 2.51196,1.84126 2.69354,1.6956 2.87513,1.54588 3.11724,1.421 3.48042,1.3362 4.32782,1.40871 27.26833,8.1894 4.29756,0.8949 4.53967,0.71397 5.47788,0.62663 6.65819,0.536 5.71999,0.2499 5.44762,0.0103 14.79934,-0.125 6.20422,0.30938 31.08166,1.87491 29.23551,0.90507 20.91278,0.30307 12.01501,0.23396 63.616,0.46775 55.23273,-0.0765 53.205,0.24365 v 0"
           clip-path="url(#p0aa51f3bd6)"
           style="fill:none;stroke:#5dc694;stroke-width:1.5;stroke-linecap:square"
           id="path102" />
      </g>
      <g
         id="patch_3">
        <path
           d="M 72,256.32 V 34.56"
           style="fill:none;stroke:#000000;stroke-width:0.8;stroke-linecap:square;stroke-linejoin:miter"
           id="path103" />
      </g>
      <g
         id="patch_4">
        <path
           d="M 518.4,256.32 V 34.56"
           style="fill:none;stroke:#000000;stroke-width:0.8;stroke-linecap:square;stroke-linejoin:miter"
           id="path104" />
      </g>
      <g
         id="patch_5">
        <path
           d="M 72,256.32 H 518.4"
           style="fill:none;stroke:#000000;stroke-width:0.8;stroke-linecap:square;stroke-linejoin:miter"
           id="path105" />
      </g>
      <g
         id="patch_6">
        <path
           d="M 72,34.56 H 518.4"
           style="fill:none;stroke:#000000;stroke-width:0.8;stroke-linecap:square;stroke-linejoin:miter"
           id="path106" />
      </g>
    </g>
  </g>
  <defs
     id="defs106">
    <clipPath
       id="p0aa51f3bd6">
      <rect
         x="72"
         y="34.560001"
         width="446.39999"
         height="221.75999"
         id="rect106" />
    </clipPath>
  </defs>
</svg>
