<?xml version="1.0" encoding="UTF-8" standalone="no"?>
<svg
   width="507.4075pt"
   height="259.29501pt"
   viewBox="0 0 507.4075 259.29501"
   version="1.1"
   id="svg111"
   sodipodi:docname="fitted_gfs.svg"
   inkscape:export-filename="fitted_gfs.pdf"
   inkscape:export-xdpi="96"
   inkscape:export-ydpi="96"
   inkscape:version="1.3.2 (091e20e, 2023-11-25, custom)"
   xmlns:inkscape="http://www.inkscape.org/namespaces/inkscape"
   xmlns:sodipodi="http://sodipodi.sourceforge.net/DTD/sodipodi-0.dtd"
   xmlns:xlink="http://www.w3.org/1999/xlink"
   xmlns="http://www.w3.org/2000/svg"
   xmlns:svg="http://www.w3.org/2000/svg"
   xmlns:rdf="http://www.w3.org/1999/02/22-rdf-syntax-ns#"
   xmlns:cc="http://creativecommons.org/ns#"
   xmlns:dc="http://purl.org/dc/elements/1.1/">
  <sodipodi:namedview
     id="namedview111"
     pagecolor="#ffffff"
     bordercolor="#000000"
     borderopacity="0.25"
     inkscape:showpageshadow="2"
     inkscape:pageopacity="0.0"
     inkscape:pagecheckerboard="0"
     inkscape:deskcolor="#d1d1d1"
     inkscape:document-units="pt"
     inkscape:zoom="3.375"
     inkscape:cx="368.88889"
     inkscape:cy="146.51852"
     inkscape:window-width="3840"
     inkscape:window-height="2054"
     inkscape:window-x="-11"
     inkscape:window-y="-11"
     inkscape:window-maximized="1"
     inkscape:current-layer="axes_1" />
  <metadata
     id="metadata1">
    <rdf:RDF>
      <cc:Work>
        <dc:type
           rdf:resource="http://purl.org/dc/dcmitype/StillImage" />
        <dc:date>2024-05-31T08:06:35.434523</dc:date>
        <dc:format>image/svg+xml</dc:format>
        <dc:creator>
          <cc:Agent>
            <dc:title>Matplotlib v3.8.2, https://matplotlib.org/</dc:title>
          </cc:Agent>
        </dc:creator>
      </cc:Work>
    </rdf:RDF>
  </metadata>
  <defs
     id="defs1">
    <style
       type="text/css"
       id="style1">*{stroke-linejoin: round; stroke-linecap: butt}</style>
  </defs>
  <g
     id="figure_1"
     transform="translate(-11.3925,-34.16)">
    <g
       id="axes_1">
      <g
         id="matplotlib.axis_1">
        <g
           id="xtick_1">
          <g
             id="line2d_1">
            <defs
               id="defs2">
              <path
                 id="mb564c4b2ee"
                 d="M 0,0 V 3.5"
                 style="stroke:#000000;stroke-width:0.8" />
            </defs>
            <g
               id="g2">
              <use
                 xlink:href="#mb564c4b2ee"
                 x="92.290909"
                 y="256.32001"
                 style="stroke:#000000;stroke-width:0.8"
                 id="use2" />
            </g>
          </g>
          <g
             id="text_1">
            <!-- 1 -->
            <g
               transform="matrix(0.16,0,0,-0.16,89.630909,274.68)"
               id="g3">
              <defs
                 id="defs3">
                <path
                   id="Bahnschrift-31"
                   d="M 1566,4544 V 0 H 928 V 3850 L 281,3453 v 660 l 647,431 z"
                   transform="scale(0.015625)" />
              </defs>
              <use
                 xlink:href="#Bahnschrift-31"
                 id="use3" />
            </g>
          </g>
        </g>
        <g
           id="xtick_2">
          <g
             id="line2d_2">
            <g
               id="g4">
              <use
                 xlink:href="#mb564c4b2ee"
                 x="150.26494"
                 y="256.32001"
                 style="stroke:#000000;stroke-width:0.8"
                 id="use4" />
            </g>
          </g>
          <g
             id="text_2">
            <!-- 2 -->
            <g
               transform="matrix(0.16,0,0,-0.16,146.13243,274.68)"
               id="g5">
              <defs
                 id="defs4">
                <path
                   id="Bahnschrift-32"
                   d="m 400,0 v 553 l 1584,2113 q 138,181 214,374 77,194 77,366 v 7 q 0,271 -160,421 -159,150 -452,150 -275,0 -449,-164 -173,-164 -211,-464 v -3 H 344 v 3 q 84,588 428,911 344,324 884,324 613,0 947,-310 335,-309 335,-875 v -3 q 0,-240 -100,-505 -100,-264 -279,-504 L 1244,606 H 2963 V 0 Z"
                   transform="scale(0.015625)" />
              </defs>
              <use
                 xlink:href="#Bahnschrift-32"
                 id="use5" />
            </g>
          </g>
        </g>
        <g
           id="xtick_3">
          <g
             id="line2d_3">
            <g
               id="g6">
              <use
                 xlink:href="#mb564c4b2ee"
                 x="208.23897"
                 y="256.32001"
                 style="stroke:#000000;stroke-width:0.8"
                 id="use6" />
            </g>
          </g>
          <g
             id="text_3">
            <!-- 3 -->
            <g
               transform="matrix(0.16,0,0,-0.16,204.00896,274.68)"
               id="g7">
              <defs
                 id="defs6">
                <path
                   id="Bahnschrift-33"
                   d="M 1644,-47 Q 1259,-47 970,92 681,231 506,493 331,756 281,1131 v 0 h 650 v 0 q 44,-293 231,-429 188,-136 482,-136 315,0 490,168 175,169 175,475 v 138 q 0,341 -166,526 -165,186 -468,186 h -322 v 607 h 322 q 269,0 414,159 145,159 145,450 v 141 q 0,268 -155,415 -154,147 -438,147 -241,0 -408,-136 -167,-136 -230,-429 v 0 H 356 v 0 q 97,562 433,870 336,308 852,308 587,0 909,-310 322,-309 322,-872 v -75 q 0,-340 -185,-592 -184,-251 -521,-370 372,-78 576,-364 205,-286 205,-727 v -75 Q 2947,609 2606,281 2266,-47 1644,-47 Z"
                   transform="scale(0.015625)" />
              </defs>
              <use
                 xlink:href="#Bahnschrift-33"
                 id="use7" />
            </g>
          </g>
        </g>
        <g
           id="xtick_4">
          <g
             id="line2d_4">
            <g
               id="g8">
              <use
                 xlink:href="#mb564c4b2ee"
                 x="266.21298"
                 y="256.32001"
                 style="stroke:#000000;stroke-width:0.8"
                 id="use8" />
            </g>
          </g>
          <g
             id="text_4">
            <!-- 4 -->
            <g
               transform="matrix(0.16,0,0,-0.16,261.66174,274.68)"
               id="g9">
              <defs
                 id="defs8">
                <path
                   id="Bahnschrift-34"
                   d="m 406,697 v 553 l 1525,3291 h 657 L 1100,1288 H 3328 V 697 Z M 2366,-3 v 2675 h 622 V -3 Z"
                   transform="scale(0.015625)" />
              </defs>
              <use
                 xlink:href="#Bahnschrift-34"
                 id="use9" />
            </g>
          </g>
        </g>
        <g
           id="xtick_5">
          <g
             id="line2d_5">
            <g
               id="g10">
              <use
                 xlink:href="#mb564c4b2ee"
                 x="324.18701"
                 y="256.32001"
                 style="stroke:#000000;stroke-width:0.8"
                 id="use10" />
            </g>
          </g>
          <g
             id="text_5">
            <!-- 5 -->
            <g
               transform="matrix(0.16,0,0,-0.16,319.83201,274.68)"
               id="g11">
              <defs
                 id="defs10">
                <path
                   id="Bahnschrift-35"
                   d="m 1738,-47 q -519,0 -852,298 -333,299 -417,843 v 3 h 637 v -3 q 35,-250 200,-389 166,-139 432,-139 306,0 473,204 167,205 167,577 v 381 q 0,372 -167,575 -167,203 -473,203 -166,0 -319,-94 -153,-93 -269,-262 H 569 V 4544 H 2884 V 3938 H 1206 V 2916 q 119,97 266,150 147,53 300,53 594,0 919,-364 325,-364 325,-1027 V 1347 Q 3016,681 2681,317 2347,-47 1738,-47 Z"
                   transform="scale(0.015625)" />
              </defs>
              <use
                 xlink:href="#Bahnschrift-35"
                 id="use11" />
            </g>
          </g>
        </g>
        <g
           id="xtick_6">
          <g
             id="line2d_6">
            <g
               id="g12">
              <use
                 xlink:href="#mb564c4b2ee"
                 x="382.16104"
                 y="256.32001"
                 style="stroke:#000000;stroke-width:0.8"
                 id="use12" />
            </g>
          </g>
          <g
             id="text_6">
            <!-- 6 -->
            <g
               transform="matrix(0.16,0,0,-0.16,378.05604,274.68)"
               id="g13">
              <defs
                 id="defs12">
                <path
                   id="Bahnschrift-36"
                   d="M 1641,-47 Q 1038,-47 706,312 375,672 375,1325 v 3 q 0,294 81,623 82,330 235,637 l 987,1956 h 688 l -1160,-2266 3,113 q 163,309 579,309 534,0 827,-355 294,-354 294,-1001 v -3 Q 2909,681 2578,317 2247,-47 1641,-47 Z m 0,613 q 306,0 468,187 163,188 163,535 v 3 q 0,381 -172,589 -172,208 -491,208 -284,0 -440,-210 -156,-209 -156,-590 v -4 q 0,-346 164,-532 164,-186 464,-186 z"
                   transform="scale(0.015625)" />
              </defs>
              <use
                 xlink:href="#Bahnschrift-36"
                 id="use13" />
            </g>
          </g>
        </g>
        <g
           id="xtick_7">
          <g
             id="line2d_7">
            <g
               id="g14">
              <use
                 xlink:href="#mb564c4b2ee"
                 x="440.13507"
                 y="256.32001"
                 style="stroke:#000000;stroke-width:0.8"
                 id="use14" />
            </g>
          </g>
          <g
             id="text_7">
            <!-- 7 -->
            <g
               transform="matrix(0.16,0,0,-0.16,436.10757,274.68)"
               id="g15">
              <defs
                 id="defs14">
                <path
                   id="Bahnschrift-37"
                   d="M 2816,4544 V 3975 L 1641,0 H 963 L 2138,3938 H 981 V 3284 H 344 v 1260 z"
                   transform="scale(0.015625)" />
              </defs>
              <use
                 xlink:href="#Bahnschrift-37"
                 id="use15" />
            </g>
          </g>
        </g>
        <g
           id="xtick_8">
          <g
             id="line2d_8">
            <g
               id="g16">
              <use
                 xlink:href="#mb564c4b2ee"
                 x="498.1091"
                 y="256.32001"
                 style="stroke:#000000;stroke-width:0.8"
                 id="use16" />
            </g>
          </g>
          <g
             id="text_8">
            <!-- 8 -->
            <g
               transform="matrix(0.16,0,0,-0.16,493.60909,274.68)"
               id="g17">
              <defs
                 id="defs16">
                <path
                   id="Bahnschrift-38"
                   d="M 1800,-47 Q 1384,-47 1075,109 766,266 594,550 422,834 422,1216 v 75 q 0,340 170,640 171,300 455,453 -238,132 -385,380 -146,249 -146,524 v 109 q 0,541 351,867 352,327 933,327 581,0 932,-327 352,-326 352,-867 v -109 q 0,-282 -148,-529 -148,-246 -392,-375 287,-153 460,-453 174,-300 174,-640 v -75 Q 3178,834 3006,550 2834,266 2525,109 2216,-47 1800,-47 Z m 0,613 q 334,0 539,192 205,192 205,505 v 43 q 0,316 -205,508 -205,192 -539,192 -334,0 -539,-192 -205,-192 -205,-511 v -47 q 0,-312 205,-501 205,-189 539,-189 z m 0,2053 q 291,0 469,184 178,185 178,488 v 43 q 0,291 -178,467 -178,177 -469,177 -291,0 -469,-177 -178,-176 -178,-470 v -47 q 0,-300 178,-483 178,-182 469,-182 z"
                   transform="scale(0.015625)" />
              </defs>
              <use
                 xlink:href="#Bahnschrift-38"
                 id="use17" />
            </g>
          </g>
        </g>
        <g
           id="text_9">
          <!-- GF Class -->
          <g
             transform="matrix(0.16,0,0,-0.16,263.58625,293.3375)"
             id="g25">
            <defs
               id="defs17">
              <path
                 id="Bahnschrift-47"
                 d="M 2094,2447 H 3669 V 1653 Q 3669,1141 3470,758 3272,375 2915,164 2559,-47 2078,-47 1594,-47 1231,151 869,350 669,711 469,1072 469,1553 v 1341 q 0,512 198,893 199,382 555,593 356,211 837,211 397,0 723,-169 327,-169 549,-472 222,-303 300,-709 v 0 h -690 v 0 q -88,353 -341,540 -253,188 -541,188 -425,0 -681,-296 -256,-295 -256,-779 V 1553 q 0,-444 262,-711 263,-267 694,-267 425,0 681,281 257,282 257,785 v 197 h -922 z"
                 transform="scale(0.015625)" />
              <path
                 id="Bahnschrift-46"
                 d="m 563,0 v 4544 h 637 V 0 Z m 312,1913 v 606 h 2203 v -606 z m 0,2025 v 606 h 2547 v -606 z"
                 transform="scale(0.015625)" />
              <path
                 id="Bahnschrift-20"
                 transform="scale(0.015625)"
                 d="" />
              <path
                 id="Bahnschrift-43"
                 d="m 2050,-47 q -475,0 -831,211 -356,211 -553,592 -197,382 -197,891 v 1247 q 0,512 197,893 197,382 553,593 356,211 831,211 394,0 720,-169 327,-169 547,-472 221,-303 299,-709 v 0 h -653 v 0 q -60,218 -199,382 -139,165 -327,255 -187,91 -387,91 -419,0 -674,-296 -254,-295 -254,-779 V 1647 q 0,-484 254,-778 255,-294 674,-294 297,0 559,187 263,188 354,541 v 0 h 653 v 0 Q 3538,897 3316,594 3094,291 2769,122 2444,-47 2050,-47 Z"
                 transform="scale(0.015625)" />
              <path
                 id="Bahnschrift-6c"
                 d="M 1138,4544 V 838 q 0,-116 51,-182 52,-65 145,-65 h 300 V -16 H 1259 Q 900,-16 700,209 500,434 500,844 v 3700 z"
                 transform="scale(0.015625)" />
              <path
                 id="Bahnschrift-61"
                 d="m 2331,0 v 2056 q 0,319 -170,495 -170,177 -483,177 -190,0 -376,-58 -186,-57 -333,-167 l -466,319 q 185,222 486,345 302,124 670,124 610,0 944,-316 335,-316 335,-891 V 0 Z m -793,-47 q -597,0 -896,247 -298,247 -298,756 0,485 273,724 274,239 821,239 h 921 l 44,-513 h -962 q -247,0 -372,-111 -125,-111 -125,-339 0,-247 165,-366 166,-118 497,-118 363,0 544,78 181,78 181,244 l 66,-456 Q 2313,206 2188,122 2063,38 1902,-4 1741,-47 1538,-47 Z"
                 transform="scale(0.015625)" />
              <path
                 id="Bahnschrift-73"
                 d="M 1647,-47 Q 1216,-47 864,79 513,206 234,459 v 0 l 379,466 v 0 q 265,-200 523,-300 258,-100 511,-100 378,0 567,117 189,117 189,352 0,181 -127,256 -126,75 -331,98 -204,24 -439,40 -197,15 -391,48 -193,33 -353,119 -159,86 -254,254 -95,169 -95,454 0,515 315,771 316,257 941,257 381,0 709,-104 328,-103 616,-315 v 0 l -385,-466 v 0 q -243,157 -479,235 -236,78 -461,78 -325,0 -488,-111 -162,-111 -162,-333 0,-147 112,-211 113,-64 297,-83 185,-18 397,-34 203,-13 411,-46 208,-32 383,-126 175,-94 281,-278 106,-184 106,-503 0,-522 -339,-782 Q 2328,-47 1647,-47 Z"
                 transform="scale(0.015625)" />
            </defs>
            <use
               xlink:href="#Bahnschrift-47"
               id="use18" />
            <use
               xlink:href="#Bahnschrift-46"
               x="64.648438"
               id="use19" />
            <use
               xlink:href="#Bahnschrift-20"
               x="120.55664"
               id="use20" />
            <use
               xlink:href="#Bahnschrift-43"
               x="147.41211"
               id="use21" />
            <use
               xlink:href="#Bahnschrift-6c"
               x="209.27734"
               id="use22" />
            <use
               xlink:href="#Bahnschrift-61"
               x="238.23242"
               id="use23" />
            <use
               xlink:href="#Bahnschrift-73"
               x="291.45508"
               id="use24" />
            <use
               xlink:href="#Bahnschrift-73"
               x="343.31055"
               id="use25" />
          </g>
        </g>
      </g>
      <g
         id="matplotlib.axis_2">
        <g
           id="ytick_1">
          <g
             id="line2d_9">
            <defs
               id="defs25">
              <path
                 id="med409458b8"
                 d="M 0,0 H -3.5"
                 style="stroke:#000000;stroke-width:0.8" />
            </defs>
            <g
               id="g26">
              <use
                 xlink:href="#med409458b8"
                 x="72"
                 y="249.22667"
                 style="stroke:#000000;stroke-width:0.8"
                 id="use26" />
            </g>
          </g>
          <g
             id="text_10">
            <!-- 0 -->
            <g
               transform="matrix(0.16,0,0,-0.16,56.1725,254.90667)"
               id="g27">
              <defs
                 id="defs26">
                <path
                   id="Bahnschrift-30"
                   d="m 1766,-47 q -650,0 -974,348 -323,349 -323,943 v 2065 q 0,604 328,947 328,344 969,344 643,0 970,-342 327,-342 327,-949 V 1244 Q 3063,641 2736,297 2409,-47 1766,-47 Z m 0,606 q 350,0 504,183 155,183 155,502 v 2065 q 0,322 -155,503 -154,182 -504,182 -350,0 -505,-182 -155,-181 -155,-503 V 1244 q 0,-319 155,-502 155,-183 505,-183 z"
                   transform="scale(0.015625)" />
              </defs>
              <use
                 xlink:href="#Bahnschrift-30"
                 id="use27" />
            </g>
          </g>
        </g>
        <g
           id="ytick_2">
          <g
             id="line2d_10">
            <g
               id="g28">
              <use
                 xlink:href="#med409458b8"
                 x="72"
                 y="202.56"
                 style="stroke:#000000;stroke-width:0.8"
                 id="use28" />
            </g>
          </g>
          <g
             id="text_11">
            <!-- 500 -->
            <g
               transform="matrix(0.16,0,0,-0.16,38.635,208.24)"
               id="g31">
              <use
                 xlink:href="#Bahnschrift-35"
                 id="use29" />
              <use
                 xlink:href="#Bahnschrift-30"
                 x="54.443359"
                 id="use30" />
              <use
                 xlink:href="#Bahnschrift-30"
                 x="109.61914"
                 id="use31" />
            </g>
          </g>
        </g>
        <g
           id="ytick_3">
          <g
             id="line2d_11">
            <g
               id="g32">
              <use
                 xlink:href="#med409458b8"
                 x="72"
                 y="155.89333"
                 style="stroke:#000000;stroke-width:0.8"
                 id="use32" />
            </g>
          </g>
          <g
             id="text_12">
            <!-- 1000 -->
            <g
               transform="matrix(0.16,0,0,-0.16,33.1975,161.57333)"
               id="g36">
              <use
                 xlink:href="#Bahnschrift-31"
                 id="use33" />
              <use
                 xlink:href="#Bahnschrift-30"
                 x="33.251953"
                 id="use34" />
              <use
                 xlink:href="#Bahnschrift-30"
                 x="88.427734"
                 id="use35" />
              <use
                 xlink:href="#Bahnschrift-30"
                 x="143.60352"
                 id="use36" />
            </g>
          </g>
        </g>
        <g
           id="ytick_4">
          <g
             id="line2d_12">
            <g
               id="g37">
              <use
                 xlink:href="#med409458b8"
                 x="72"
                 y="109.22667"
                 style="stroke:#000000;stroke-width:0.8"
                 id="use37" />
            </g>
          </g>
          <g
             id="text_13">
            <!-- 1500 -->
            <g
               transform="matrix(0.16,0,0,-0.16,33.315,114.90667)"
               id="g41">
              <use
                 xlink:href="#Bahnschrift-31"
                 id="use38" />
              <use
                 xlink:href="#Bahnschrift-35"
                 x="33.251953"
                 id="use39" />
              <use
                 xlink:href="#Bahnschrift-30"
                 x="87.695312"
                 id="use40" />
              <use
                 xlink:href="#Bahnschrift-30"
                 x="142.87109"
                 id="use41" />
            </g>
          </g>
        </g>
        <g
           id="ytick_5">
          <g
             id="line2d_13">
            <g
               id="g42">
              <use
                 xlink:href="#med409458b8"
                 x="72"
                 y="62.560001"
                 style="stroke:#000000;stroke-width:0.8"
                 id="use42" />
            </g>
          </g>
          <g
             id="text_14">
            <!-- 2000 -->
            <g
               transform="matrix(0.16,0,0,-0.16,30.2525,68.24)"
               id="g46">
              <use
                 xlink:href="#Bahnschrift-32"
                 id="use43" />
              <use
                 xlink:href="#Bahnschrift-30"
                 x="51.660156"
                 id="use44" />
              <use
                 xlink:href="#Bahnschrift-30"
                 x="106.83594"
                 id="use45" />
              <use
                 xlink:href="#Bahnschrift-30"
                 x="162.01172"
                 id="use46" />
            </g>
          </g>
        </g>
        <g
           id="text_15">
          <!-- Gene Frequency -->
          <g
             transform="matrix(0,-0.16,-0.16,0,22.87,203.35)"
             id="g60">
            <defs
               id="defs46">
              <path
                 id="Bahnschrift-65"
                 d="M 1828,-47 Q 1150,-47 778,331 406,709 406,1406 v 366 q 0,725 358,1122 358,397 1008,397 612,0 948,-450 336,-450 336,-1263 V 1366 H 869 v 512 h 1581 v 0 q -28,394 -205,616 -176,222 -473,222 -359,0 -559,-238 -200,-237 -200,-672 v -412 q 0,-403 214,-619 214,-216 601,-216 194,0 384,78 191,79 341,219 v 0 l 419,-418 v 0 Q 2731,206 2431,79 2131,-47 1828,-47 Z"
                 transform="scale(0.015625)" />
              <path
                 id="Bahnschrift-6e"
                 d="m 500,0 v 3244 h 638 V 0 Z m 1969,0 v 1966 q 0,343 -177,530 -176,188 -501,188 -313,0 -483,-166 -170,-165 -170,-465 l -66,625 q 150,294 392,453 242,160 536,160 528,0 817,-346 289,-345 289,-976 V 0 Z"
                 transform="scale(0.015625)" />
              <path
                 id="Bahnschrift-72"
                 d="m 500,0 v 3244 h 638 V 0 Z m 1784,2475 q -84,103 -212,156 -128,53 -297,53 -303,0 -470,-167 -167,-167 -167,-464 l -66,625 q 147,288 386,450 239,163 526,163 222,0 402,-64 180,-64 314,-189 z"
                 transform="scale(0.015625)" />
              <path
                 id="Bahnschrift-71"
                 d="m 2344,-1319 v 4563 h 637 V -1319 Z M 1528,-56 Q 991,-56 698,289 406,634 406,1263 v 715 q 0,631 286,976 286,346 805,346 287,0 526,-150 240,-150 386,-422 l -65,-662 q 0,206 -75,353 -75,147 -218,223 -142,77 -345,77 -315,0 -489,-197 -173,-197 -173,-553 v -706 q 0,-354 173,-546 174,-192 489,-192 203,0 345,79 143,80 218,230 75,150 75,360 l 44,-685 Q 2300,291 2086,117 1872,-56 1528,-56 Z"
                 transform="scale(0.015625)" />
              <path
                 id="Bahnschrift-75"
                 d="m 2456,0 v 3244 h 635 V 0 Z M 1138,3244 V 1272 q 0,-341 173,-527 173,-186 489,-186 316,0 486,167 170,168 170,471 l 44,-678 Q 2413,300 2194,126 1975,-47 1622,-47 1084,-47 792,298 500,644 500,1272 v 1972 z"
                 transform="scale(0.015625)" />
              <path
                 id="Bahnschrift-63"
                 d="M 1809,-47 Q 1141,-47 773,322 406,691 406,1363 v 534 q 0,666 367,1030 368,364 1036,364 382,0 688,-135 306,-134 487,-384 v 0 l -459,-413 v 0 q -134,157 -319,241 -184,84 -387,84 -369,0 -572,-206 -203,-206 -203,-581 v -534 q 0,-385 203,-595 203,-209 572,-209 203,0 387,91 185,91 319,256 v 0 l 459,-443 v 0 Q 2803,219 2495,86 2188,-47 1809,-47 Z"
                 transform="scale(0.015625)" />
              <path
                 id="Bahnschrift-79"
                 d="m 2378,3244 h 650 L 1647,-759 q -116,-335 -335,-464 -218,-130 -599,-130 H 584 v 612 h 129 q 178,0 282,72 105,72 183,247 z M 1450,-266 156,3244 H 806 L 1803,425 Z"
                 transform="scale(0.015625)" />
            </defs>
            <use
               xlink:href="#Bahnschrift-47"
               id="use47" />
            <use
               xlink:href="#Bahnschrift-65"
               x="64.648438"
               id="use48" />
            <use
               xlink:href="#Bahnschrift-6e"
               x="118.26172"
               id="use49" />
            <use
               xlink:href="#Bahnschrift-65"
               x="174.12109"
               id="use50" />
            <use
               xlink:href="#Bahnschrift-20"
               x="227.73438"
               id="use51" />
            <use
               xlink:href="#Bahnschrift-46"
               x="254.58984"
               id="use52" />
            <use
               xlink:href="#Bahnschrift-72"
               x="310.49805"
               id="use53" />
            <use
               xlink:href="#Bahnschrift-65"
               x="353.17383"
               id="use54" />
            <use
               xlink:href="#Bahnschrift-71"
               x="406.78711"
               id="use55" />
            <use
               xlink:href="#Bahnschrift-75"
               x="460.69336"
               id="use56" />
            <use
               xlink:href="#Bahnschrift-65"
               x="516.30859"
               id="use57" />
            <use
               xlink:href="#Bahnschrift-6e"
               x="569.92188"
               id="use58" />
            <use
               xlink:href="#Bahnschrift-63"
               x="625.78125"
               id="use59" />
            <use
               xlink:href="#Bahnschrift-79"
               x="675.58594"
               id="use60" />
          </g>
        </g>
      </g>
      <g
         id="line2d_14">
        <path
           d="m 92.290909,205.82667 57.974021,29.96 57.97403,-0.46667 57.97403,7.28 57.97402,0.18667 57.97403,3.45333 57.97402,-3.92 57.97403,-197.68"
           clip-path="url(#p6267c0b966)"
           style="fill:none;stroke:#204e66;stroke-width:1.5;stroke-linecap:square"
           id="path60" />
      </g>
      <g
         id="line2d_15">
        <path
           d="m 92.290909,218.51222 57.974021,1.19 57.97403,17.31334 57.97403,-1.17834 57.97402,4.9 57.97403,-1.48555 57.97402,3.11111 57.97403,-84.15945"
           clip-path="url(#p6267c0b966)"
           style="fill:none;stroke:#5dc694;stroke-width:1.5;stroke-linecap:square"
           id="path61" />
      </g>
      <g
         id="line2d_16" />
      <g
         id="patch_3">
        <path
           d="M 72,256.32 V 34.56"
           style="fill:none;stroke:#000000;stroke-width:0.8;stroke-linecap:square;stroke-linejoin:miter"
           id="path62" />
      </g>
      <g
         id="patch_4">
        <path
           d="M 518.4,256.32 V 34.56"
           style="fill:none;stroke:#000000;stroke-width:0.8;stroke-linecap:square;stroke-linejoin:miter"
           id="path63" />
      </g>
      <g
         id="patch_5">
        <path
           d="M 72,256.32 H 518.4"
           style="fill:none;stroke:#000000;stroke-width:0.8;stroke-linecap:square;stroke-linejoin:miter"
           id="path64" />
      </g>
      <g
         id="patch_6">
        <path
           d="M 72,34.56 H 518.4"
           style="fill:none;stroke:#000000;stroke-width:0.8;stroke-linecap:square;stroke-linejoin:miter"
           id="path65" />
      </g>
      <g
         id="legend_1">
        <g
           id="patch_7">
          <path
             d="m 83.2,115.5675 h 174.5475 q 3.2,0 3.2,-3.2 V 45.76 q 0,-3.2 -3.2,-3.2 H 83.2 q -3.2,0 -3.2,3.2 v 66.6075 q 0,3.2 3.2,3.2 z"
             style="opacity:0.8;fill:#ffffff;stroke:#cccccc;stroke-linejoin:miter"
             id="path66" />
        </g>
        <g
           id="line2d_17">
          <path
             d="m 86.4,54.72 h 16 16"
             style="fill:none;stroke:#204e66;stroke-width:1.5;stroke-linecap:square"
             id="path67" />
        </g>
        <g
           id="text_16">
          <!-- Reference GFS -->
          <g
             transform="matrix(0.16,0,0,-0.16,131.2,60.32)"
             id="g79">
            <defs
               id="defs67">
              <path
                 id="Bahnschrift-52"
                 d="m 841,1922 v 606 h 1550 q 278,0 446,194 169,194 169,512 v 0 q 0,319 -169,513 -168,194 -446,194 H 841 v 606 h 1525 q 397,0 693,-164 297,-164 461,-458 164,-294 164,-691 v 0 q 0,-393 -166,-689 -165,-295 -460,-459 -295,-164 -692,-164 z M 563,0 v 4547 h 637 V 0 Z M 3119,0 2078,2063 2713,2206 3875,0 Z"
                 transform="scale(0.015625)" />
              <path
                 id="Bahnschrift-66"
                 d="m 594,0 v 3684 q 0,429 197,644 197,216 612,216 h 469 v -606 h -456 q -97,0 -141,-74 -44,-73 -44,-173 V 0 Z M 250,2700 v 544 h 1622 v -544 z"
                 transform="scale(0.015625)" />
              <path
                 id="Bahnschrift-53"
                 d="M 1928,-47 Q 1597,-47 1305,15 1013,78 758,203 503,328 281,516 v 0 l 397,487 v 0 q 260,-225 572,-338 313,-112 678,-112 494,0 766,184 272,185 272,516 v 3 q 0,260 -138,397 -137,138 -361,205 -223,67 -489,111 -256,44 -517,103 -261,59 -480,185 -218,127 -351,364 -133,238 -133,635 v 3 q 0,635 422,983 422,349 1190,349 366,0 716,-118 350,-117 681,-357 v 0 l -362,-507 v 0 q -260,194 -518,288 -257,94 -517,94 -465,0 -723,-186 -258,-186 -258,-527 v -3 q 0,-256 150,-391 150,-134 392,-198 243,-64 521,-120 250,-50 500,-121 250,-70 454,-203 205,-133 328,-364 124,-231 124,-603 v -6 Q 3597,641 3159,297 2722,-47 1928,-47 Z"
                 transform="scale(0.015625)" />
            </defs>
            <use
               xlink:href="#Bahnschrift-52"
               id="use67" />
            <use
               xlink:href="#Bahnschrift-65"
               x="65.185547"
               id="use68" />
            <use
               xlink:href="#Bahnschrift-66"
               x="118.79883"
               id="use69" />
            <use
               xlink:href="#Bahnschrift-65"
               x="150.48828"
               id="use70" />
            <use
               xlink:href="#Bahnschrift-72"
               x="204.10156"
               id="use71" />
            <use
               xlink:href="#Bahnschrift-65"
               x="246.77734"
               id="use72" />
            <use
               xlink:href="#Bahnschrift-6e"
               x="300.39062"
               id="use73" />
            <use
               xlink:href="#Bahnschrift-63"
               x="356.25"
               id="use74" />
            <use
               xlink:href="#Bahnschrift-65"
               x="406.05469"
               id="use75" />
            <use
               xlink:href="#Bahnschrift-20"
               x="459.66797"
               id="use76" />
            <use
               xlink:href="#Bahnschrift-47"
               x="486.52344"
               id="use77" />
            <use
               xlink:href="#Bahnschrift-46"
               x="551.17188"
               id="use78" />
            <use
               xlink:href="#Bahnschrift-53"
               x="607.08008"
               id="use79" />
          </g>
        </g>
        <g
           id="line2d_18">
          <path
             d="m 86.4,77.3775 h 16 16"
             style="fill:none;stroke:#5dc694;stroke-width:1.5;stroke-linecap:square"
             id="path79" />
        </g>
        <g
           id="text_17">
          <!-- Simulated GFS -->
          <g
             transform="matrix(0.16,0,0,-0.16,131.2,82.9775)"
             id="g92">
            <defs
               id="defs79">
              <path
                 id="Bahnschrift-69"
                 d="m 500,3906 v 638 h 638 V 3906 Z M 500,0 v 3244 h 638 V 0 Z"
                 transform="scale(0.015625)" />
              <path
                 id="Bahnschrift-6d"
                 d="m 4375,0 v 1966 q 0,343 -177,530 -176,188 -501,188 -297,0 -460,-181 -162,-181 -162,-512 l -128,625 q 156,325 406,500 250,175 553,175 528,0 817,-346 290,-345 290,-976 V 0 Z M 500,0 v 3244 h 638 V 0 Z m 1938,0 v 1966 q 0,343 -169,530 -169,188 -478,188 -313,0 -483,-166 -170,-165 -170,-465 l -66,625 q 150,294 392,453 242,160 536,160 513,0 794,-346 281,-345 281,-976 V 0 Z"
                 transform="scale(0.015625)" />
              <path
                 id="Bahnschrift-74"
                 d="M 1344,-16 Q 944,-16 764,206 584,428 584,844 v 3344 h 638 V 838 q 0,-116 47,-182 47,-65 137,-65 h 307 V -16 Z M 250,2669 v 575 h 1463 v -575 z"
                 transform="scale(0.015625)" />
              <path
                 id="Bahnschrift-64"
                 d="m 2344,0 v 4544 h 637 V 0 Z M 1528,-56 Q 991,-56 698,289 406,634 406,1263 v 715 q 0,631 286,976 286,346 805,346 287,0 526,-150 240,-150 386,-422 l -65,-662 q 0,206 -75,353 -75,147 -218,223 -142,77 -345,77 -315,0 -489,-197 -173,-197 -173,-553 v -706 q 0,-354 173,-546 174,-192 489,-192 203,0 345,79 143,80 218,230 75,150 75,360 l 44,-685 Q 2300,291 2086,117 1872,-56 1528,-56 Z"
                 transform="scale(0.015625)" />
            </defs>
            <use
               xlink:href="#Bahnschrift-53"
               id="use80" />
            <use
               xlink:href="#Bahnschrift-69"
               x="61.572266"
               id="use81" />
            <use
               xlink:href="#Bahnschrift-6d"
               x="86.669922"
               id="use82" />
            <use
               xlink:href="#Bahnschrift-75"
               x="172.31445"
               id="use83" />
            <use
               xlink:href="#Bahnschrift-6c"
               x="227.92969"
               id="use84" />
            <use
               xlink:href="#Bahnschrift-61"
               x="256.88477"
               id="use85" />
            <use
               xlink:href="#Bahnschrift-74"
               x="310.10742"
               id="use86" />
            <use
               xlink:href="#Bahnschrift-65"
               x="342.72461"
               id="use87" />
            <use
               xlink:href="#Bahnschrift-64"
               x="396.33789"
               id="use88" />
            <use
               xlink:href="#Bahnschrift-20"
               x="450.24414"
               id="use89" />
            <use
               xlink:href="#Bahnschrift-47"
               x="477.09961"
               id="use90" />
            <use
               xlink:href="#Bahnschrift-46"
               x="541.74805"
               id="use91" />
            <use
               xlink:href="#Bahnschrift-53"
               x="597.65625"
               id="use92" />
          </g>
        </g>
        <g
           id="line2d_19">
          <path
             d="m 86.4,100.1525 h 16 16"
             style="fill:none;stroke:#000000;stroke-width:1.5;stroke-linecap:square;stroke-opacity:0"
             id="path92" />
        </g>
        <g
           id="text_18">
          <!-- χ²-like error: 1179 -->
          <g
             transform="matrix(0.16,0,0,-0.16,131.2,105.7525)"
             id="g111">
            <defs
               id="defs92">
              <path
                 id="Bahnschrift-3c7"
                 d="m 2753,-1366 q -147,0 -272,63 -125,62 -228,192 -103,130 -194,323 L 600,2438 q -53,118 -119,182 -65,64 -159,64 H 94 v 607 h 322 q 150,0 273,-63 124,-62 228,-191 105,-128 192,-324 L 2569,-513 q 53,-115 134,-180 81,-66 269,-66 h 106 v -607 z m -2628,47 1225,2460 338,-547 -866,-1913 z m 1772,2103 -338,547 775,1913 h 697 z"
                 transform="scale(0.015625)" />
              <path
                 id="Bahnschrift-b2"
                 d="m 378,2597 v 441 l 422,365 q 250,213 322,320 72,108 72,240 v 0 q 0,162 -160,162 -87,0 -140,-55 -53,-54 -69,-164 v 0 H 313 v 0 q 21,332 208,496 188,164 492,164 353,0 529,-150 177,-150 177,-447 v -3 q 0,-163 -97,-307 -97,-143 -319,-362 l -240,-234 h 656 v -466 z"
                 transform="scale(0.015625)" />
              <path
                 id="Bahnschrift-2d"
                 d="M 500,1931 H 2600 V 1325 H 500 Z"
                 transform="scale(0.015625)" />
              <path
                 id="Bahnschrift-6b"
                 d="m 734,475 41,756 1669,2013 h 750 z M 500,0 v 4544 h 638 V 0 Z M 2659,0 1528,1872 1938,2297 3353,0 Z"
                 transform="scale(0.015625)" />
              <path
                 id="Bahnschrift-6f"
                 d="M 1744,-47 Q 1106,-47 756,323 406,694 406,1366 v 528 q 0,665 350,1031 350,366 988,366 637,0 987,-366 350,-366 350,-1031 V 1356 Q 3081,688 2731,320 2381,-47 1744,-47 Z m 0,606 q 334,0 517,209 183,210 183,588 v 538 q 0,378 -183,584 -183,206 -517,206 -331,0 -516,-206 -184,-206 -184,-584 v -538 q 0,-378 184,-588 185,-209 516,-209 z"
                 transform="scale(0.015625)" />
              <path
                 id="Bahnschrift-3a"
                 d="m 391,0 v 669 h 668 V 0 Z m 0,2606 v 669 h 668 v -669 z"
                 transform="scale(0.015625)" />
              <path
                 id="Bahnschrift-39"
                 d="m 934,0 1144,2256 -3,-112 q -81,-147 -241,-213 -159,-65 -368,-65 -491,0 -791,364 -300,364 -300,967 v 3 q 0,663 333,1027 333,364 936,364 603,0 934,-368 331,-367 331,-1039 v -3 q 0,-278 -81,-602 -81,-323 -237,-632 L 1622,0 Z m 710,2447 q 300,0 464,203 164,203 164,572 v 3 q 0,359 -164,556 -164,197 -464,197 -303,0 -467,-197 -164,-197 -164,-559 v -3 q 0,-369 164,-571 164,-201 467,-201 z"
                 transform="scale(0.015625)" />
            </defs>
            <use
               xlink:href="#Bahnschrift-3c7"
               id="use93" />
            <use
               xlink:href="#Bahnschrift-b2"
               x="50.537109"
               id="use94" />
            <use
               xlink:href="#Bahnschrift-2d"
               x="81.787109"
               id="use95" />
            <use
               xlink:href="#Bahnschrift-6c"
               x="129.73633"
               id="use96" />
            <use
               xlink:href="#Bahnschrift-69"
               x="158.69141"
               id="use97" />
            <use
               xlink:href="#Bahnschrift-6b"
               x="183.78906"
               id="use98" />
            <use
               xlink:href="#Bahnschrift-65"
               x="236.66992"
               id="use99" />
            <use
               xlink:href="#Bahnschrift-20"
               x="290.2832"
               id="use100" />
            <use
               xlink:href="#Bahnschrift-65"
               x="317.13867"
               id="use101" />
            <use
               xlink:href="#Bahnschrift-72"
               x="370.75195"
               id="use102" />
            <use
               xlink:href="#Bahnschrift-72"
               x="413.42773"
               id="use103" />
            <use
               xlink:href="#Bahnschrift-6f"
               x="456.10352"
               id="use104" />
            <use
               xlink:href="#Bahnschrift-72"
               x="510.5957"
               id="use105" />
            <use
               xlink:href="#Bahnschrift-3a"
               x="553.27148"
               id="use106" />
            <use
               xlink:href="#Bahnschrift-20"
               x="575.92773"
               id="use107" />
            <use
               xlink:href="#Bahnschrift-31"
               x="602.7832"
               id="use108" />
            <use
               xlink:href="#Bahnschrift-31"
               x="636.03516"
               id="use109" />
            <use
               xlink:href="#Bahnschrift-37"
               x="669.28711"
               id="use110" />
            <use
               xlink:href="#Bahnschrift-39"
               x="719.62891"
               id="use111" />
          </g>
        </g>
      </g>
    </g>
  </g>
  <defs
     id="defs111">
    <clipPath
       id="p6267c0b966">
      <rect
         x="72"
         y="34.560001"
         width="446.39999"
         height="221.75999"
         id="rect111" />
    </clipPath>
  </defs>
</svg>
