<?xml version="1.0" encoding="utf-8" standalone="no"?>
<!DOCTYPE svg PUBLIC "-//W3C//DTD SVG 1.1//EN"
  "http://www.w3.org/Graphics/SVG/1.1/DTD/svg11.dtd">
<svg xmlns:xlink="http://www.w3.org/1999/xlink" width="1080pt" height="288pt" viewBox="0 0 1080 288" xmlns="http://www.w3.org/2000/svg" version="1.1">
 <metadata>
  <rdf:RDF xmlns:dc="http://purl.org/dc/elements/1.1/" xmlns:cc="http://creativecommons.org/ns#" xmlns:rdf="http://www.w3.org/1999/02/22-rdf-syntax-ns#">
   <cc:Work>
    <dc:type rdf:resource="http://purl.org/dc/dcmitype/StillImage"/>
    <dc:date>2024-05-29T19:40:59.665645</dc:date>
    <dc:format>image/svg+xml</dc:format>
    <dc:creator>
     <cc:Agent>
      <dc:title>Matplotlib v3.8.2, https://matplotlib.org/</dc:title>
     </cc:Agent>
    </dc:creator>
   </cc:Work>
  </rdf:RDF>
 </metadata>
 <defs>
  <style type="text/css">*{stroke-linejoin: round; stroke-linecap: butt}</style>
 </defs>
 <g id="figure_1">
  <g id="patch_1">
   <path d="M 0 288 
L 1080 288 
L 1080 0 
L 0 0 
z
" style="fill: #ffffff"/>
  </g>
  <g id="axes_1">
   <g id="patch_2">
    <path d="M 74.4275 228.04 
L 1062.72 228.04 
L 1062.72 17.28 
L 74.4275 17.28 
z
" style="fill: #ffffff"/>
   </g>
   <g id="PolyCollection_1">
    <defs>
     <path id="m93b2eb63b1" d="M 119.349886 -82.372096 
L 119.349886 -69.54 
L 120.258327 -69.737094 
L 121.166768 -69.95976 
L 122.075208 -69.988303 
L 122.983649 -70.147316 
L 123.892089 -70.121105 
L 124.80053 -70.331373 
L 125.70897 -69.91337 
L 126.617411 -69.977179 
L 127.525852 -69.959032 
L 128.434292 -70.109535 
L 129.342733 -70.182236 
L 130.251173 -69.844605 
L 131.159614 -69.942815 
L 132.068054 -70.154176 
L 132.976495 -70.063436 
L 133.884936 -70.311239 
L 134.793376 -70.541002 
L 135.701817 -70.542278 
L 136.610257 -70.484882 
L 137.518698 -70.471946 
L 138.427138 -70.383757 
L 139.335579 -70.439877 
L 140.24402 -70.222321 
L 141.15246 -70.575257 
L 142.060901 -70.452267 
L 142.969341 -70.420381 
L 143.877782 -70.394507 
L 144.786222 -70.749448 
L 145.694663 -70.761473 
L 146.603104 -70.587647 
L 147.511544 -70.50529 
L 148.419985 -70.437326 
L 149.328425 -71.001076 
L 150.236866 -70.452085 
L 151.145306 -70.638119 
L 152.053747 -70.54993 
L 152.962188 -70.806296 
L 153.870628 -70.99725 
L 154.779069 -71.14666 
L 155.687509 -71.066306 
L 156.59595 -70.887743 
L 157.50439 -70.997978 
L 158.412831 -70.790262 
L 159.321272 -71.399564 
L 160.229712 -70.986864 
L 161.138153 -70.975931 
L 162.046593 -70.882641 
L 162.955034 -70.884645 
L 163.863474 -70.988139 
L 164.771915 -71.279489 
L 165.680356 -70.780969 
L 166.588796 -71.462607 
L 167.497237 -71.169253 
L 168.405677 -71.164881 
L 169.314118 -71.260904 
L 170.222558 -71.173626 
L 171.130999 -71.644086 
L 172.03944 -71.48593 
L 172.94788 -70.883734 
L 173.856321 -70.858954 
L 174.764761 -71.086531 
L 175.673202 -71.602725 
L 176.581642 -71.37861 
L 177.490083 -71.090175 
L 178.398524 -71.554987 
L 179.306964 -71.44548 
L 180.215405 -71.972606 
L 181.123845 -71.378428 
L 182.032286 -71.589059 
L 182.940727 -71.401386 
L 183.849167 -71.507066 
L 184.757608 -71.611653 
L 185.666048 -71.786026 
L 186.574489 -72.20073 
L 187.482929 -71.756144 
L 188.39137 -71.85982 
L 189.299811 -71.877676 
L 190.208251 -71.771449 
L 191.116692 -71.717516 
L 192.025132 -72.062617 
L 192.933573 -71.767076 
L 193.842013 -71.877494 
L 194.750454 -72.287461 
L 195.658895 -72.32208 
L 196.567335 -72.384031 
L 197.475776 -71.931063 
L 198.384216 -72.190708 
L 199.292657 -72.144974 
L 200.201097 -71.993196 
L 201.109538 -72.367996 
L 202.017979 -72.204192 
L 202.926419 -72.291105 
L 203.83486 -72.192895 
L 204.7433 -71.757966 
L 205.651741 -72.376378 
L 206.560181 -72.841553 
L 207.468622 -72.634384 
L 208.377063 -72.300397 
L 209.285503 -72.173581 
L 210.193944 -73.544328 
L 211.102384 -73.420244 
L 212.010825 -73.860458 
L 212.919265 -72.322262 
L 213.827706 -72.184513 
L 214.736147 -72.885101 
L 215.644587 -72.22387 
L 216.553028 -72.788349 
L 217.461468 -73.164243 
L 218.369909 -72.269058 
L 219.278349 -73.222914 
L 220.18679 -73.267737 
L 221.095231 -73.344628 
L 222.003671 -72.624909 
L 222.912112 -72.724576 
L 223.820552 -73.487661 
L 224.728993 -73.33898 
L 225.637433 -73.240223 
L 226.545874 -73.37032 
L 227.454315 -73.207062 
L 228.362755 -72.956344 
L 229.271196 -73.134361 
L 230.179636 -73.257169 
L 231.088077 -73.263182 
L 231.996517 -72.839549 
L 232.904958 -73.616846 
L 233.813399 -73.088445 
L 234.721839 -72.541458 
L 235.63028 -73.056194 
L 236.53872 -72.590472 
L 237.447161 -73.312195 
L 238.355602 -73.319484 
L 239.264042 -73.146751 
L 240.172483 -73.371777 
L 241.080923 -73.250609 
L 241.989364 -73.371777 
L 242.897804 -73.755688 
L 243.806245 -73.713781 
L 244.714686 -74.209567 
L 245.623126 -73.363213 
L 246.531567 -72.72986 
L 247.440007 -73.23913 
L 248.348448 -73.785935 
L 249.256888 -73.594617 
L 250.165329 -72.882368 
L 251.07377 -73.417693 
L 251.98221 -73.437007 
L 252.890651 -73.615024 
L 253.799091 -73.656203 
L 254.707532 -74.452996 
L 255.615972 -73.805613 
L 256.524413 -73.346268 
L 257.432854 -73.619397 
L 258.341294 -73.336611 
L 259.249735 -73.507522 
L 260.158175 -73.324403 
L 261.066616 -73.617393 
L 261.975056 -73.883962 
L 262.883497 -74.253297 
L 263.791938 -73.427897 
L 264.700378 -73.424617 
L 265.608819 -74.123565 
L 266.517259 -74.251293 
L 267.4257 -74.44917 
L 268.33414 -73.822741 
L 269.242581 -74.267145 
L 270.151022 -73.573845 
L 271.059462 -73.978346 
L 271.967903 -74.267145 
L 272.876343 -73.612473 
L 273.784784 -74.954431 
L 274.693224 -74.680209 
L 275.601665 -73.987456 
L 276.510106 -73.619944 
L 277.418546 -74.118463 
L 278.326987 -74.176952 
L 279.235427 -74.621538 
L 280.143868 -74.263865 
L 281.052308 -74.483243 
L 281.960749 -74.215398 
L 282.86919 -74.979394 
L 283.77763 -74.042847 
L 284.686071 -74.507294 
L 285.594511 -74.708451 
L 286.502952 -74.654518 
L 287.411392 -74.961537 
L 288.319833 -75.621493 
L 289.228274 -75.02367 
L 290.136714 -75.126253 
L 291.045155 -73.825109 
L 291.953595 -75.556445 
L 292.862036 -75.639167 
L 293.770476 -74.799555 
L 294.678917 -74.897765 
L 295.587358 -74.14543 
L 296.495798 -74.603682 
L 297.404239 -73.820736 
L 298.312679 -75.485748 
L 299.22112 -75.041708 
L 300.129561 -74.547562 
L 301.038001 -75.784568 
L 301.946442 -76.131673 
L 302.854882 -75.633154 
L 303.763323 -74.862234 
L 304.671763 -75.405759 
L 305.580204 -77.241135 
L 306.488645 -75.919948 
L 307.397085 -74.438602 
L 308.305526 -75.609102 
L 309.213966 -75.722982 
L 310.122407 -74.637937 
L 311.030847 -74.760745 
L 311.939288 -74.93785 
L 312.847729 -74.601495 
L 313.756169 -76.565509 
L 314.66461 -76.867245 
L 315.57305 -75.015106 
L 316.481491 -75.212619 
L 317.389931 -74.537176 
L 318.298372 -75.175631 
L 319.206813 -75.932885 
L 320.115253 -74.816136 
L 321.023694 -76.80985 
L 321.932134 -74.925825 
L 322.840575 -75.566284 
L 323.749015 -75.802971 
L 324.657456 -75.882414 
L 325.565897 -76.350505 
L 326.474337 -74.842738 
L 327.382778 -75.310282 
L 328.291218 -76.695788 
L 329.199659 -76.990599 
L 330.108099 -76.764662 
L 331.01654 -74.988322 
L 331.924981 -75.88296 
L 332.833421 -76.187611 
L 333.741862 -76.163378 
L 334.650302 -76.300944 
L 335.558743 -75.780377 
L 336.467183 -75.619124 
L 337.375624 -77.467618 
L 338.284065 -76.920632 
L 339.192505 -75.948737 
L 340.100946 -76.910064 
L 341.009386 -76.486249 
L 341.917827 -75.957848 
L 342.826267 -76.218951 
L 343.734708 -76.385853 
L 344.643149 -76.470033 
L 345.551589 -77.010824 
L 346.46003 -76.241909 
L 347.36847 -76.404438 
L 348.276911 -76.23207 
L 349.185351 -76.926462 
L 350.093792 -77.29853 
L 351.002233 -76.18998 
L 351.910673 -76.221866 
L 352.819114 -76.169026 
L 353.727554 -75.283862 
L 354.635995 -75.656476 
L 355.544435 -76.233345 
L 356.452876 -76.692872 
L 357.361317 -77.150213 
L 358.269757 -77.818003 
L 359.178198 -77.1227 
L 360.086638 -76.637846 
L 360.995079 -77.617757 
L 361.90352 -77.056194 
L 362.81196 -76.495542 
L 363.720401 -76.089401 
L 364.628841 -75.728266 
L 365.537282 -76.340301 
L 366.445722 -75.176178 
L 367.354163 -75.999937 
L 368.262604 -76.827706 
L 369.171044 -78.359342 
L 370.079485 -78.175859 
L 370.987925 -78.442246 
L 371.896366 -75.103112 
L 372.804806 -77.88706 
L 373.713247 -78.258581 
L 374.621688 -77.013011 
L 375.530128 -77.620308 
L 376.438569 -76.174674 
L 377.347009 -76.936119 
L 378.25545 -76.841918 
L 379.16389 -77.621584 
L 380.072331 -76.661897 
L 380.980772 -75.799509 
L 381.889212 -75.938716 
L 382.797653 -76.911521 
L 383.706093 -75.49832 
L 384.614534 -77.164972 
L 385.522974 -77.810533 
L 386.431415 -78.210843 
L 387.339856 -77.237855 
L 388.248296 -78.325816 
L 389.156737 -78.15363 
L 390.065177 -77.289237 
L 390.973618 -77.206333 
L 391.882058 -77.325132 
L 392.790499 -77.078606 
L 393.69894 -77.545421 
L 394.60738 -76.656978 
L 395.515821 -76.602315 
L 396.424261 -77.740747 
L 397.332702 -79.332512 
L 398.241142 -76.372187 
L 399.149583 -76.676838 
L 400.058024 -79.941631 
L 400.966464 -78.954978 
L 401.874905 -78.678934 
L 402.783345 -77.298166 
L 403.691786 -78.305773 
L 404.600226 -79.176724 
L 405.508667 -78.046127 
L 406.417108 -78.637573 
L 407.325548 -78.585279 
L 408.233989 -77.167523 
L 409.142429 -79.870753 
L 410.05087 -77.760426 
L 410.95931 -78.928193 
L 411.867751 -78.412546 
L 412.776192 -79.14338 
L 413.684632 -80.158276 
L 414.593073 -78.16274 
L 415.501513 -77.80944 
L 416.409954 -78.91471 
L 417.318394 -80.411909 
L 418.226835 -79.801514 
L 419.135276 -77.690094 
L 420.043716 -78.881548 
L 420.952157 -80.708725 
L 421.860597 -80.043485 
L 422.769038 -78.442975 
L 423.677479 -77.42644 
L 424.585919 -78.185698 
L 425.49436 -81.41569 
L 426.4028 -79.113316 
L 427.311241 -78.264958 
L 428.219681 -80.288008 
L 429.128122 -79.31502 
L 430.036563 -80.293109 
L 430.945003 -80.769764 
L 431.853444 -80.433045 
L 432.761884 -81.074597 
L 433.670325 -79.091816 
L 434.578765 -78.151079 
L 435.487206 -78.308141 
L 436.395647 -79.678341 
L 437.304087 -81.112132 
L 438.212528 -80.884008 
L 439.120968 -79.653743 
L 440.029409 -80.683216 
L 440.937849 -78.223597 
L 441.84629 -80.10252 
L 442.754731 -79.724987 
L 443.663171 -79.493583 
L 444.571612 -78.837636 
L 445.480052 -81.123429 
L 446.388493 -79.495587 
L 447.296933 -78.426576 
L 448.205374 -79.843786 
L 449.113815 -79.736648 
L 450.022255 -79.274388 
L 450.930696 -78.856768 
L 451.839136 -81.358294 
L 452.747577 -79.867108 
L 453.656017 -80.545102 
L 454.564458 -79.657934 
L 455.472899 -79.503605 
L 456.381339 -80.09177 
L 457.28978 -79.156317 
L 458.19822 -80.737513 
L 459.106661 -79.859456 
L 460.015101 -80.900771 
L 460.923542 -81.40749 
L 461.831983 -80.343216 
L 462.740423 -79.783657 
L 463.648864 -81.560909 
L 464.557304 -82.880455 
L 465.465745 -81.214715 
L 466.374185 -79.884418 
L 467.282626 -82.631742 
L 468.191067 -80.212756 
L 469.099507 -86.525151 
L 470.007948 -80.411909 
L 470.916388 -80.150259 
L 471.824829 -81.87795 
L 472.733269 -81.334061 
L 473.64171 -79.278032 
L 474.550151 -80.378383 
L 475.458591 -81.790308 
L 476.367032 -79.976615 
L 477.275472 -81.690094 
L 478.183913 -81.25644 
L 479.092354 -83.056832 
L 480.000794 -79.658663 
L 480.909235 -80.6885 
L 481.817675 -81.719976 
L 482.726116 -79.711139 
L 483.634556 -81.451949 
L 484.542997 -81.601177 
L 485.451438 -81.358294 
L 486.359878 -81.110674 
L 487.268319 -80.441062 
L 488.176759 -79.592157 
L 489.0852 -80.843376 
L 489.99364 -79.882778 
L 490.902081 -81.715421 
L 491.810522 -78.850209 
L 492.718962 -81.892162 
L 493.627403 -81.209431 
L 494.535843 -81.938443 
L 495.444284 -80.626185 
L 496.352724 -80.656795 
L 497.261165 -80.776324 
L 498.169606 -80.947599 
L 499.078046 -82.902138 
L 499.986487 -81.70795 
L 500.894927 -79.243595 
L 501.803368 -81.284318 
L 502.711808 -81.434821 
L 503.620249 -81.912023 
L 504.52869 -80.875262 
L 505.43713 -83.483015 
L 506.345571 -81.367951 
L 507.254011 -82.268967 
L 508.162452 -80.543645 
L 509.070892 -82.159278 
L 509.979333 -82.446255 
L 510.887774 -82.240725 
L 511.796214 -83.870206 
L 512.704655 -79.886787 
L 513.613095 -80.48552 
L 514.521536 -81.934252 
L 515.429976 -82.26259 
L 516.338417 -82.838365 
L 517.246858 -83.810442 
L 518.155298 -81.00718 
L 519.063739 -82.371368 
L 519.972179 -82.586555 
L 520.88062 -83.295706 
L 521.78906 -82.707723 
L 522.697501 -83.213166 
L 523.605942 -83.313927 
L 524.514382 -81.557811 
L 525.422823 -82.36663 
L 526.331263 -84.530526 
L 527.239704 -84.147344 
L 528.148144 -83.474269 
L 529.056585 -81.360298 
L 529.965026 -79.619488 
L 530.873466 -83.227925 
L 531.781907 -85.047266 
L 532.690347 -82.549749 
L 533.598788 -81.249152 
L 534.507228 -82.90232 
L 535.415669 -80.00012 
L 536.32411 -85.873577 
L 537.23255 -83.58414 
L 538.140991 -84.003218 
L 539.049431 -85.154586 
L 539.957872 -79.950013 
L 540.866313 -84.972561 
L 541.774753 -81.571841 
L 542.683194 -81.317662 
L 543.591634 -84.877084 
L 544.500075 -80.759925 
L 545.408515 -84.264867 
L 546.316956 -84.695059 
L 547.225397 -83.871664 
L 548.133837 -83.930881 
L 549.042278 -85.242228 
L 549.950718 -82.453361 
L 550.859159 -84.088491 
L 551.767599 -85.64928 
L 552.67604 -84.464567 
L 553.584481 -82.207563 
L 554.492921 -82.262225 
L 555.401362 -85.495132 
L 556.309802 -87.34144 
L 557.218243 -84.410633 
L 558.126683 -83.790581 
L 559.035124 -83.203691 
L 559.943565 -82.3229 
L 560.852005 -84.094686 
L 561.760446 -84.57298 
L 562.668886 -85.331328 
L 563.577327 -85.601541 
L 564.485767 -82.640488 
L 565.394208 -83.468621 
L 566.302649 -83.382072 
L 567.211089 -84.742433 
L 568.11953 -85.158048 
L 569.02797 -85.464704 
L 569.936411 -84.508479 
L 570.844851 -83.015471 
L 571.753292 -84.238812 
L 572.661733 -82.241636 
L 573.570173 -86.992695 
L 574.478614 -86.082205 
L 575.387054 -86.028636 
L 576.295495 -85.116505 
L 577.203935 -83.234484 
L 578.112376 -84.787256 
L 579.020817 -82.678752 
L 579.929257 -83.974064 
L 580.837698 -86.393597 
L 581.746138 -87.996112 
L 582.654579 -84.443066 
L 583.563019 -84.655338 
L 584.47146 -81.654928 
L 585.379901 -84.27252 
L 586.288341 -83.326317 
L 587.196782 -83.839595 
L 588.105222 -85.580041 
L 589.013663 -84.722755 
L 589.922103 -88.029091 
L 590.830544 -82.469031 
L 591.738985 -85.784113 
L 592.647425 -84.912433 
L 593.555866 -84.831897 
L 594.464306 -89.267555 
L 595.372747 -83.144656 
L 596.281187 -87.399018 
L 597.189628 -84.822604 
L 598.098069 -89.26628 
L 599.006509 -85.585143 
L 599.91495 -83.38517 
L 600.82339 -85.795046 
L 601.731831 -88.531255 
L 602.640272 -87.835222 
L 603.548712 -83.703486 
L 604.457153 -91.655566 
L 605.365593 -88.811126 
L 606.274034 -88.43924 
L 607.182474 -85.65347 
L 608.090915 -84.726399 
L 608.999356 -87.808438 
L 609.907796 -88.253389 
L 610.816237 -85.178091 
L 611.724677 -82.483061 
L 612.633118 -84.204921 
L 613.541558 -88.169209 
L 614.449999 -85.027952 
L 615.35844 -86.337842 
L 616.26688 -84.392413 
L 617.175321 -84.146433 
L 618.083761 -87.022031 
L 618.992202 -86.565783 
L 619.900642 -85.556536 
L 620.809083 -84.377289 
L 621.717524 -87.222459 
L 622.625964 -88.229155 
L 623.534405 -87.365492 
L 624.442845 -84.388404 
L 625.351286 -84.821876 
L 626.259726 -86.58947 
L 627.168167 -86.239996 
L 628.076608 -88.337022 
L 628.985048 -83.354923 
L 629.893489 -89.065487 
L 630.801929 -88.811854 
L 631.71037 -87.826294 
L 632.61881 -85.867564 
L 633.527251 -85.033601 
L 634.435692 -88.791994 
L 635.344132 -86.089311 
L 636.252573 -86.965546 
L 637.161013 -87.499232 
L 638.069454 -86.668002 
L 638.977894 -85.66003 
L 639.886335 -89.433911 
L 640.794776 -87.414323 
L 641.703216 -87.24068 
L 642.611657 -87.729907 
L 643.520097 -87.683444 
L 644.428538 -86.655429 
L 645.336978 -86.521142 
L 646.245419 -90.460467 
L 647.15386 -87.156864 
L 648.0623 -88.418104 
L 648.970741 -88.769582 
L 649.879181 -88.432681 
L 650.787622 -89.550159 
L 651.696062 -85.461059 
L 652.604503 -84.575531 
L 653.512944 -87.233938 
L 654.421384 -91.257807 
L 655.329825 -88.456003 
L 656.238265 -87.976615 
L 657.146706 -88.491352 
L 658.055146 -86.020618 
L 658.963587 -89.135637 
L 659.872028 -89.361939 
L 660.780468 -89.85645 
L 661.688909 -88.016519 
L 662.597349 -86.066899 
L 663.50579 -86.692782 
L 664.414231 -87.247603 
L 665.322671 -87.571204 
L 666.231112 -89.515722 
L 667.139552 -88.761565 
L 668.047993 -86.491625 
L 668.956433 -88.051867 
L 669.864874 -87.896262 
L 670.773315 -89.316751 
L 671.681755 -89.651102 
L 672.590196 -89.299259 
L 673.498636 -91.652469 
L 674.407077 -86.311422 
L 675.315517 -88.076647 
L 676.223958 -90.700252 
L 677.132399 -89.286869 
L 678.040839 -93.894713 
L 678.94928 -87.252341 
L 679.85772 -85.014469 
L 680.766161 -86.887562 
L 681.674601 -86.809577 
L 682.583042 -87.266735 
L 683.491483 -85.195583 
L 684.399923 -94.172215 
L 685.308364 -89.450856 
L 686.216804 -87.022577 
L 687.125245 -88.588286 
L 688.033685 -85.707404 
L 688.942126 -93.065852 
L 689.850567 -90.784979 
L 690.759007 -91.087808 
L 691.667448 -91.273113 
L 692.575888 -88.625821 
L 693.484329 -90.85768 
L 694.392769 -84.70417 
L 695.30121 -91.296435 
L 696.209651 -87.030412 
L 697.118091 -91.30755 
L 698.026532 -89.933159 
L 698.934972 -89.598808 
L 699.843413 -89.407855 
L 700.751853 -89.703213 
L 701.660294 -89.766621 
L 702.568735 -90.749448 
L 703.477175 -89.893256 
L 704.385616 -89.947918 
L 705.294056 -91.663948 
L 706.202497 -87.584869 
L 707.110937 -90.055967 
L 708.019378 -91.751225 
L 708.927819 -90.158003 
L 709.836259 -83.694558 
L 710.7447 -87.753594 
L 711.65314 -88.511394 
L 712.561581 -91.055375 
L 713.470021 -90.649234 
L 714.378462 -91.299715 
L 715.286903 -89.881048 
L 716.195343 -93.172443 
L 717.103784 -89.981444 
L 718.012224 -93.805978 
L 718.920665 -88.614524 
L 719.829106 -88.571523 
L 720.737546 -89.346816 
L 721.645987 -90.04467 
L 722.554427 -92.823698 
L 723.462868 -91.083435 
L 724.371308 -90.820874 
L 725.279749 -90.808301 
L 726.18819 -89.71615 
L 727.09663 -87.443659 
L 728.005071 -92.871983 
L 728.913511 -90.451904 
L 729.821952 -91.948738 
L 730.730392 -89.634339 
L 731.638833 -88.884191 
L 732.547274 -89.764435 
L 733.455714 -89.549066 
L 734.364155 -88.44088 
L 735.272595 -90.69424 
L 736.181036 -91.750861 
L 737.089476 -89.446847 
L 737.997917 -88.981125 
L 738.906358 -90.107167 
L 739.814798 -93.088992 
L 740.723239 -89.096098 
L 741.631679 -88.973108 
L 742.54012 -92.396968 
L 743.44856 -94.415462 
L 744.357001 -89.521917 
L 745.265442 -93.762795 
L 746.173882 -92.816228 
L 747.082323 -90.174766 
L 747.990763 -89.823652 
L 748.899204 -92.6967 
L 749.807644 -88.821876 
L 750.716085 -88.409723 
L 751.624526 -88.009231 
L 752.532966 -91.779285 
L 753.441407 -90.428399 
L 754.349847 -90.315066 
L 755.258288 -89.212529 
L 756.166728 -88.590837 
L 757.075169 -89.677704 
L 757.98361 -90.113362 
L 758.89205 -93.74585 
L 759.800491 -90.225602 
L 760.708931 -92.150806 
L 761.617372 -93.370867 
L 762.525812 -91.69966 
L 763.434253 -90.377745 
L 764.342694 -90.191347 
L 765.251134 -86.285366 
L 766.159575 -93.421521 
L 767.068015 -92.008138 
L 767.976456 -92.618715 
L 768.884896 -88.926463 
L 769.793337 -90.88082 
L 770.701778 -89.996932 
L 771.610218 -95.838685 
L 772.518659 -91.929424 
L 773.427099 -89.94063 
L 774.33554 -90.104616 
L 775.24398 -92.08922 
L 776.152421 -89.014834 
L 777.060862 -94.211754 
L 777.969302 -91.962768 
L 778.877743 -93.431542 
L 779.786183 -90.657434 
L 780.694624 -92.778146 
L 781.603065 -87.963132 
L 782.511505 -90.276256 
L 783.419946 -91.55189 
L 784.328386 -91.03351 
L 785.236827 -91.303359 
L 786.145267 -93.05911 
L 787.053708 -91.558814 
L 787.962149 -90.21303 
L 788.870589 -90.407445 
L 789.77903 -94.524787 
L 790.68747 -93.852077 
L 791.595911 -94.254938 
L 792.504351 -94.953339 
L 793.412792 -94.975568 
L 794.321233 -92.889293 
L 795.229673 -97.639077 
L 796.138114 -89.489484 
L 797.046554 -94.151808 
L 797.954995 -91.125707 
L 798.863435 -88.543463 
L 799.771876 -86.546105 
L 800.680317 -94.364627 
L 801.588757 -90.762385 
L 802.497198 -92.877996 
L 803.405638 -91.728814 
L 804.314079 -91.94564 
L 805.222519 -84.055329 
L 806.13096 -95.464066 
L 807.039401 -95.851986 
L 807.947841 -94.373555 
L 808.856282 -91.282587 
L 809.764722 -93.331328 
L 810.673163 -90.102794 
L 811.581603 -93.472903 
L 812.490044 -95.290058 
L 813.398485 -97.471264 
L 814.306925 -88.663538 
L 815.215366 -100.922637 
L 816.123806 -94.386309 
L 817.032247 -96.830076 
L 817.940687 -93.997661 
L 818.849128 -89.143836 
L 819.757569 -95.446392 
L 820.666009 -91.736284 
L 821.57445 -95.785116 
L 822.48289 -91.031323 
L 823.391331 -93.502967 
L 824.299771 -91.050091 
L 825.208212 -91.901182 
L 826.116653 -91.695105 
L 827.025093 -91.925415 
L 827.933534 -95.949831 
L 828.841974 -97.670052 
L 829.750415 -93.488026 
L 830.658855 -92.033829 
L 831.567296 -98.297028 
L 832.475737 -91.847248 
L 833.384177 -98.701528 
L 834.292618 -91.629146 
L 835.201058 -90.657251 
L 836.109499 -95.401023 
L 837.017939 -97.681167 
L 837.92638 -94.468485 
L 838.834821 -90.419835 
L 839.743261 -95.325224 
L 840.651702 -92.524513 
L 841.560142 -96.62655 
L 842.468583 -92.550387 
L 843.377024 -96.541095 
L 844.285464 -97.581317 
L 845.193905 -93.62122 
L 846.102345 -95.506885 
L 847.010786 -92.568608 
L 847.919226 -96.759743 
L 848.827667 -96.363442 
L 849.736108 -91.066854 
L 850.644548 -89.954842 
L 851.552989 -94.093137 
L 852.461429 -95.096736 
L 853.36987 -92.807846 
L 854.27831 -95.076147 
L 855.186751 -95.466253 
L 856.095192 -95.348911 
L 857.003632 -93.764435 
L 857.912073 -88.667364 
L 858.820513 -91.633701 
L 859.728954 -94.886104 
L 860.637394 -91.987001 
L 861.545835 -98.23034 
L 862.454276 -90.592932 
L 863.362716 -100.448169 
L 864.271157 -96.550205 
L 865.179597 -95.051549 
L 866.088038 -98.548292 
L 866.996478 -95.88861 
L 867.904919 -96.376015 
L 868.81336 -98.657798 
L 869.7218 -97.669141 
L 870.630241 -96.798007 
L 871.538681 -95.826477 
L 872.447122 -94.725762 
L 873.355562 -94.830167 
L 874.264003 -99.250884 
L 875.172444 -99.734098 
L 876.080884 -93.734189 
L 876.989325 -98.743436 
L 877.897765 -98.475227 
L 878.806206 -96.903505 
L 879.714646 -97.220911 
L 880.623087 -92.638393 
L 881.531528 -96.712005 
L 882.439968 -89.63689 
L 883.348409 -96.364718 
L 884.256849 -96.44744 
L 885.16529 -92.732412 
L 886.07373 -99.229565 
L 886.982171 -99.00126 
L 887.890612 -97.055831 
L 888.799052 -94.445527 
L 889.707493 -95.074689 
L 890.615933 -101.389999 
L 891.524374 -96.590473 
L 892.432814 -99.218997 
L 893.341255 -99.847431 
L 894.249696 -91.308461 
L 895.158136 -98.670917 
L 896.066577 -99.061024 
L 896.975017 -101.451221 
L 897.883458 -95.554623 
L 898.791898 -93.022304 
L 899.700339 -99.489029 
L 900.60878 -96.312789 
L 901.51722 -99.147754 
L 902.425661 -99.54442 
L 903.334101 -97.471264 
L 904.242542 -96.282907 
L 905.150983 -99.82921 
L 906.059423 -105.592979 
L 906.967864 -102.83126 
L 907.876304 -101.030322 
L 908.784745 -94.468485 
L 909.693185 -101.388359 
L 910.601626 -101.07806 
L 911.510067 -100.163379 
L 912.418507 -95.837409 
L 913.326948 -98.088947 
L 914.235388 -98.494176 
L 915.143829 -94.706448 
L 916.052269 -97.116141 
L 916.96071 -102.002763 
L 917.869151 -99.614388 
L 918.777591 -98.068357 
L 919.686032 -99.893529 
L 920.594472 -97.060568 
L 921.502913 -95.184196 
L 922.411353 -100.029821 
L 923.319794 -98.622268 
L 924.228235 -96.753002 
L 925.136675 -101.476912 
L 926.045116 -96.148255 
L 926.953556 -95.659028 
L 927.861997 -99.869478 
L 928.770437 -101.117599 
L 929.678878 -103.257079 
L 930.587319 -95.231387 
L 931.495759 -95.071956 
L 932.4042 -101.518455 
L 933.31264 -101.981262 
L 934.221081 -101.051822 
L 935.129521 -97.244051 
L 936.037962 -95.14903 
L 936.946403 -106.117554 
L 937.854843 -95.224281 
L 938.763284 -101.241682 
L 939.671724 -102.872075 
L 940.580165 -94.51349 
L 941.488605 -95.798964 
L 942.397046 -100.831169 
L 943.305487 -96.284182 
L 944.213927 -97.140921 
L 945.122368 -101.782474 
L 946.030808 -96.591019 
L 946.939249 -96.540183 
L 947.847689 -101.084073 
L 948.75613 -97.702485 
L 949.664571 -98.198089 
L 950.573011 -96.083572 
L 951.481452 -97.497501 
L 952.389892 -102.70663 
L 953.298333 -100.172671 
L 954.206773 -97.682989 
L 955.115214 -100.195083 
L 956.023655 -100.834813 
L 956.932095 -102.627006 
L 957.840536 -94.301036 
L 958.748976 -97.61047 
L 959.657417 -95.282041 
L 960.565858 -100.521963 
L 961.474298 -102.450993 
L 962.382739 -101.468348 
L 963.291179 -97.360299 
L 964.19962 -105.279035 
L 965.10806 -97.050729 
L 966.016501 -98.172944 
L 966.924942 -99.091999 
L 967.833382 -105.407309 
L 968.741823 -99.734098 
L 969.650263 -101.45778 
L 970.558704 -103.986091 
L 971.467144 -103.153221 
L 972.375585 -98.940402 
L 973.284026 -105.852078 
L 974.192466 -96.678843 
L 975.100907 -97.79286 
L 976.009347 -101.859548 
L 976.917788 -100.445071 
L 977.826228 -98.740156 
L 978.734669 -94.617895 
L 979.64311 -96.219134 
L 980.55155 -106.383394 
L 981.459991 -96.77432 
L 982.368431 -100.952519 
L 983.276872 -99.919585 
L 984.185312 -110.422205 
L 985.093753 -99.00381 
L 986.002194 -104.582092 
L 986.910634 -100.827889 
L 987.819075 -102.295388 
L 988.727515 -104.183239 
L 989.635956 -98.645044 
L 990.544396 -110.052324 
L 991.452837 -97.784114 
L 992.361278 -98.805204 
L 993.269718 -96.278898 
L 994.178159 -99.694194 
L 995.086599 -104.587376 
L 995.99504 -99.844516 
L 996.90348 -98.184424 
L 997.811921 -102.268604 
L 998.720362 -105.200504 
L 999.628802 -101.266645 
L 1000.537243 -105.458145 
L 1001.445683 -105.106485 
L 1002.354124 -100.621266 
L 1003.262564 -100.516679 
L 1004.171005 -97.002262 
L 1005.079446 -103.411409 
L 1005.987886 -102.991238 
L 1006.896327 -101.309281 
L 1007.804767 -104.741523 
L 1008.713208 -101.737287 
L 1009.621648 -101.731839 
L 1010.530089 -107.645591 
L 1011.43853 -97.108361 
L 1012.34697 -100.233483 
L 1013.255411 -101.304498 
L 1014.163851 -99.964281 
L 1015.072292 -101.072284 
L 1015.980732 -100.219899 
L 1016.889173 -104.907414 
L 1017.797614 -105.092336 
L 1017.797614 -213.523927 
L 1017.797614 -213.523927 
L 1016.889173 -212.370189 
L 1015.980732 -203.159785 
L 1015.072292 -202.308694 
L 1014.163851 -228.210759 
L 1013.255411 -206.859507 
L 1012.34697 -212.48826 
L 1011.43853 -203.812816 
L 1010.530089 -212.125667 
L 1009.621648 -193.44339 
L 1008.713208 -233.737229 
L 1007.804767 -232.180175 
L 1006.896327 -261.14 
L 1005.987886 -199.708165 
L 1005.079446 -219.807834 
L 1004.171005 -199.060081 
L 1003.262564 -218.26297 
L 1002.354124 -209.501907 
L 1001.445683 -212.737583 
L 1000.537243 -224.637607 
L 999.628802 -205.018829 
L 998.720362 -212.45999 
L 997.811921 -219.938422 
L 996.90348 -191.99557 
L 995.99504 -198.283057 
L 995.086599 -222.354292 
L 994.178159 -212.661822 
L 993.269718 -193.261957 
L 992.361278 -230.536865 
L 991.452837 -211.17909 
L 990.544396 -204.079623 
L 989.635956 -213.767238 
L 988.727515 -235.900988 
L 987.819075 -204.594869 
L 986.910634 -223.169962 
L 986.002194 -221.916803 
L 985.093753 -216.211906 
L 984.185312 -210.822993 
L 983.276872 -196.083494 
L 982.368431 -217.276581 
L 981.459991 -196.936881 
L 980.55155 -217.690301 
L 979.64311 -204.437797 
L 978.734669 -209.755622 
L 977.826228 -206.584128 
L 976.917788 -196.975828 
L 976.009347 -199.024915 
L 975.100907 -228.28571 
L 974.192466 -203.695757 
L 973.284026 -215.385796 
L 972.375585 -231.666186 
L 971.467144 -198.990514 
L 970.558704 -205.914406 
L 969.650263 -195.364394 
L 968.741823 -211.533028 
L 967.833382 -224.297471 
L 966.924942 -198.022646 
L 966.016501 -198.445459 
L 965.10806 -219.156807 
L 964.19962 -205.22579 
L 963.291179 -206.347122 
L 962.382739 -206.154046 
L 961.474298 -204.637524 
L 960.565858 -200.885599 
L 959.657417 -202.843336 
L 958.748976 -194.691575 
L 957.840536 -190.308566 
L 956.932095 -229.842836 
L 956.023655 -190.421944 
L 955.115214 -200.352843 
L 954.206773 -211.082201 
L 953.298333 -233.649697 
L 952.389892 -194.124327 
L 951.481452 -181.630854 
L 950.573011 -203.257612 
L 949.664571 -193.72327 
L 948.75613 -215.544744 
L 947.847689 -216.409282 
L 946.939249 -195.879167 
L 946.030808 -181.373869 
L 945.122368 -188.441996 
L 944.213927 -193.922541 
L 943.305487 -210.688351 
L 942.397046 -202.974334 
L 941.488605 -199.576038 
L 940.580165 -209.467643 
L 939.671724 -215.480462 
L 938.763284 -200.001574 
L 937.854843 -194.992582 
L 936.946403 -201.170918 
L 936.037962 -189.492604 
L 935.129521 -222.358356 
L 934.221081 -210.420588 
L 933.31264 -199.184629 
L 932.4042 -193.618537 
L 931.495759 -215.103438 
L 930.587319 -194.535788 
L 929.678878 -178.983006 
L 928.770437 -197.804344 
L 927.861997 -189.735697 
L 926.953556 -196.966362 
L 926.045116 -207.75492 
L 925.136675 -207.849058 
L 924.228235 -178.450459 
L 923.319794 -202.244794 
L 922.411353 -206.310708 
L 921.502913 -203.915108 
L 920.594472 -195.870321 
L 919.686032 -190.039637 
L 918.777591 -197.650597 
L 917.869151 -192.917248 
L 916.96071 -201.115026 
L 916.052269 -181.633095 
L 915.143829 -176.20969 
L 914.235388 -200.916583 
L 913.326948 -224.358993 
L 912.418507 -191.862595 
L 911.510067 -217.200682 
L 910.601626 -209.549755 
L 909.693185 -222.994178 
L 908.784745 -177.66069 
L 907.876304 -195.969232 
L 906.967864 -196.44954 
L 906.059423 -204.511546 
L 905.150983 -174.359337 
L 904.242542 -206.753636 
L 903.334101 -194.23664 
L 902.425661 -198.147012 
L 901.51722 -182.293296 
L 900.60878 -205.392674 
L 899.700339 -208.174608 
L 898.791898 -174.365377 
L 897.883458 -202.838635 
L 896.975017 -183.446442 
L 896.066577 -183.283703 
L 895.158136 -192.033096 
L 894.249696 -197.889881 
L 893.341255 -179.832202 
L 892.432814 -206.39097 
L 891.524374 -191.651198 
L 890.615933 -208.114835 
L 889.707493 -201.489189 
L 888.799052 -178.543668 
L 887.890612 -201.016588 
L 886.982171 -203.730686 
L 886.07373 -174.819311 
L 885.16529 -179.652482 
L 884.256849 -191.991516 
L 883.348409 -196.964568 
L 882.439968 -193.279012 
L 881.531528 -191.680952 
L 880.623087 -189.866048 
L 879.714646 -190.862722 
L 878.806206 -175.688951 
L 877.897765 -183.698754 
L 876.989325 -194.069328 
L 876.080884 -173.698425 
L 875.172444 -196.119417 
L 874.264003 -180.433113 
L 873.355562 -169.797847 
L 872.447122 -173.966571 
L 871.538681 -189.828604 
L 870.630241 -180.655999 
L 869.7218 -178.478756 
L 868.81336 -184.26694 
L 867.904919 -178.642643 
L 866.996478 -202.573104 
L 866.088038 -184.703938 
L 865.179597 -185.805837 
L 864.271157 -177.27124 
L 863.362716 -164.329382 
L 862.454276 -181.334576 
L 861.545835 -190.28159 
L 860.637394 -183.936789 
L 859.728954 -202.315627 
L 858.820513 -162.530994 
L 857.912073 -178.356386 
L 857.003632 -186.820623 
L 856.095192 -179.375545 
L 855.186751 -185.962763 
L 854.27831 -205.518123 
L 853.36987 -181.21471 
L 852.461429 -177.883029 
L 851.552989 -169.16811 
L 850.644548 -193.481581 
L 849.736108 -179.520637 
L 848.827667 -183.763355 
L 847.919226 -170.557515 
L 847.010786 -184.585166 
L 846.102345 -178.664189 
L 845.193905 -208.030655 
L 844.285464 -167.578578 
L 843.377024 -182.612615 
L 842.468583 -183.609682 
L 841.560142 -179.913913 
L 840.651702 -183.026964 
L 839.743261 -192.7755 
L 838.834821 -182.916328 
L 837.92638 -191.4183 
L 837.017939 -168.75972 
L 836.109499 -174.458713 
L 835.201058 -179.100466 
L 834.292618 -184.139896 
L 833.384177 -189.251025 
L 832.475737 -168.434753 
L 831.567296 -169.668589 
L 830.658855 -188.122997 
L 829.750415 -175.25363 
L 828.841974 -176.681353 
L 827.933534 -183.966134 
L 827.025093 -186.496595 
L 826.116653 -158.173212 
L 825.208212 -188.928372 
L 824.299771 -166.764475 
L 823.391331 -194.707281 
L 822.48289 -195.390222 
L 821.57445 -190.591516 
L 820.666009 -162.028211 
L 819.757569 -171.097432 
L 818.849128 -174.321301 
L 817.940687 -193.904557 
L 817.032247 -162.738182 
L 816.123806 -195.774234 
L 815.215366 -192.747485 
L 814.306925 -177.240802 
L 813.398485 -171.398967 
L 812.490044 -169.648099 
L 811.581603 -163.96688 
L 810.673163 -178.881189 
L 809.764722 -168.5508 
L 808.856282 -173.874857 
L 807.947841 -193.964786 
L 807.039401 -172.307171 
L 806.13096 -160.840565 
L 805.222519 -178.08353 
L 804.314079 -165.695382 
L 803.405638 -179.088258 
L 802.497198 -174.949735 
L 801.588757 -173.476305 
L 800.680317 -171.155456 
L 799.771876 -176.053201 
L 798.863435 -162.846505 
L 797.954995 -164.081261 
L 797.046554 -174.099017 
L 796.138114 -176.420413 
L 795.229673 -171.573868 
L 794.321233 -183.305468 
L 793.412792 -176.495373 
L 792.504351 -165.786021 
L 791.595911 -174.31271 
L 790.68747 -196.44145 
L 789.77903 -169.136133 
L 788.870589 -183.13904 
L 787.962149 -169.718067 
L 787.053708 -172.642979 
L 786.145267 -169.808442 
L 785.236827 -172.235773 
L 784.328386 -151.803348 
L 783.419946 -190.584073 
L 782.511505 -153.943721 
L 781.603065 -171.413626 
L 780.694624 -180.219612 
L 779.786183 -181.237532 
L 778.877743 -173.567336 
L 777.969302 -157.658895 
L 777.060862 -167.916919 
L 776.152421 -157.095427 
L 775.24398 -171.295018 
L 774.33554 -179.622281 
L 773.427099 -160.92776 
L 772.518659 -174.415894 
L 771.610218 -170.301869 
L 770.701778 -160.724954 
L 769.793337 -161.523551 
L 768.884896 -163.482363 
L 767.976456 -162.014937 
L 767.068015 -176.558554 
L 766.159575 -162.427619 
L 765.251134 -165.849867 
L 764.342694 -164.969695 
L 763.434253 -174.104857 
L 762.525812 -177.923716 
L 761.617372 -170.998129 
L 760.708931 -151.659277 
L 759.800491 -154.241402 
L 758.89205 -166.038624 
L 757.98361 -153.912418 
L 757.075169 -162.777193 
L 756.166728 -156.707243 
L 755.258288 -152.951592 
L 754.349847 -169.647425 
L 753.441407 -177.20498 
L 752.532966 -157.719925 
L 751.624526 -166.418199 
L 750.716085 -155.524298 
L 749.807644 -170.702197 
L 748.899204 -160.090918 
L 747.990763 -155.065663 
L 747.082323 -165.142337 
L 746.173882 -158.172036 
L 745.265442 -152.828885 
L 744.357001 -165.213662 
L 743.44856 -156.558471 
L 742.54012 -163.936105 
L 741.631679 -174.405827 
L 740.723239 -162.619975 
L 739.814798 -155.813206 
L 738.906358 -175.46724 
L 737.997917 -162.979124 
L 737.089476 -168.05127 
L 736.181036 -166.592754 
L 735.272595 -162.543193 
L 734.364155 -155.726849 
L 733.455714 -144.092976 
L 732.547274 -151.528124 
L 731.638833 -181.981804 
L 730.730392 -149.062602 
L 729.821952 -170.601372 
L 728.913511 -157.264024 
L 728.005071 -172.892786 
L 727.09663 -146.374887 
L 726.18819 -164.648199 
L 725.279749 -161.761459 
L 724.371308 -160.274674 
L 723.462868 -152.743666 
L 722.554427 -155.639799 
L 721.645987 -151.69457 
L 720.737546 -155.69376 
L 719.829106 -188.051243 
L 718.920665 -167.418381 
L 718.012224 -159.643125 
L 717.103784 -172.121857 
L 716.195343 -164.778714 
L 715.286903 -155.040327 
L 714.378462 -160.527933 
L 713.470021 -149.30471 
L 712.561581 -152.565814 
L 711.65314 -149.084594 
L 710.7447 -156.437458 
L 709.836259 -146.829522 
L 708.927819 -157.532607 
L 708.019378 -157.562297 
L 707.110937 -156.903071 
L 706.202497 -161.742929 
L 705.294056 -154.446103 
L 704.385616 -161.598939 
L 703.477175 -159.632274 
L 702.568735 -167.302333 
L 701.660294 -153.067804 
L 700.751853 -161.107508 
L 699.843413 -146.204951 
L 698.934972 -161.088367 
L 698.026532 -160.244846 
L 697.118091 -143.563144 
L 696.209651 -169.520855 
L 695.30121 -165.430225 
L 694.392769 -156.029923 
L 693.484329 -141.71341 
L 692.575888 -157.86775 
L 691.667448 -163.345106 
L 690.759007 -164.405171 
L 689.850567 -153.554207 
L 688.942126 -151.455697 
L 688.033685 -151.308436 
L 687.125245 -148.714959 
L 686.216804 -159.773849 
L 685.308364 -162.409325 
L 684.399923 -149.594211 
L 683.491483 -153.560019 
L 682.583042 -136.596469 
L 681.674601 -160.421278 
L 680.766161 -135.34823 
L 679.85772 -144.34106 
L 678.94928 -153.752622 
L 678.040839 -163.558763 
L 677.132399 -154.850285 
L 676.223958 -145.092283 
L 675.315517 -144.371516 
L 674.407077 -160.147958 
L 673.498636 -149.594056 
L 672.590196 -148.317137 
L 671.681755 -159.586759 
L 670.773315 -160.227491 
L 669.864874 -147.275912 
L 668.956433 -162.514614 
L 668.047993 -148.928534 
L 667.139552 -148.345661 
L 666.231112 -148.72089 
L 665.322671 -143.758443 
L 664.414231 -156.384645 
L 663.50579 -148.568747 
L 662.597349 -136.310659 
L 661.688909 -156.725546 
L 660.780468 -152.28218 
L 659.872028 -157.768702 
L 658.963587 -152.714158 
L 658.055146 -144.338008 
L 657.146706 -156.149032 
L 656.238265 -143.009115 
L 655.329825 -156.29611 
L 654.421384 -154.914131 
L 653.512944 -142.321919 
L 652.604503 -140.903252 
L 651.696062 -137.928351 
L 650.787622 -151.929992 
L 649.879181 -142.8151 
L 648.970741 -157.722585 
L 648.0623 -137.712791 
L 647.15386 -142.881251 
L 646.245419 -150.876013 
L 645.336978 -158.07676 
L 644.428538 -148.257928 
L 643.520097 -142.156912 
L 642.611657 -140.875502 
L 641.703216 -142.280449 
L 640.794776 -147.643616 
L 639.886335 -145.394356 
L 638.977894 -140.996542 
L 638.069454 -140.599029 
L 637.161013 -140.265945 
L 636.252573 -136.817423 
L 635.344132 -148.148567 
L 634.435692 -145.247843 
L 633.527251 -145.375106 
L 632.61881 -143.445584 
L 631.71037 -147.099171 
L 630.801929 -142.214918 
L 629.893489 -143.04193 
L 628.985048 -149.764638 
L 628.076608 -136.312508 
L 627.168167 -132.584881 
L 626.259726 -140.459067 
L 625.351286 -141.673206 
L 624.442845 -136.502787 
L 623.534405 -151.597563 
L 622.625964 -148.917128 
L 621.717524 -143.451168 
L 620.809083 -139.662365 
L 619.900642 -135.755791 
L 618.992202 -143.377092 
L 618.083761 -146.080832 
L 617.175321 -132.301211 
L 616.26688 -142.968391 
L 615.35844 -135.871766 
L 614.449999 -142.287218 
L 613.541558 -146.031554 
L 612.633118 -147.471011 
L 611.724677 -135.234505 
L 610.816237 -141.708254 
L 609.907796 -145.042304 
L 608.999356 -146.73574 
L 608.090915 -139.562433 
L 607.182474 -139.385245 
L 606.274034 -133.157131 
L 605.365593 -131.879829 
L 604.457153 -139.746517 
L 603.548712 -138.568938 
L 602.640272 -137.379251 
L 601.731831 -145.418243 
L 600.82339 -136.108126 
L 599.91495 -141.028684 
L 599.006509 -138.144112 
L 598.098069 -127.047204 
L 597.189628 -144.437503 
L 596.281187 -132.729727 
L 595.372747 -138.86149 
L 594.464306 -147.176208 
L 593.555866 -130.852607 
L 592.647425 -139.956703 
L 591.738985 -135.500464 
L 590.830544 -134.639488 
L 589.922103 -139.361003 
L 589.013663 -138.01428 
L 588.105222 -134.68125 
L 587.196782 -151.160958 
L 586.288341 -141.548604 
L 585.379901 -138.655404 
L 584.47146 -128.742007 
L 583.563019 -140.475602 
L 582.654579 -140.242194 
L 581.746138 -145.008295 
L 580.837698 -129.950717 
L 579.929257 -136.61674 
L 579.020817 -138.647597 
L 578.112376 -134.779278 
L 577.203935 -141.174322 
L 576.295495 -126.836992 
L 575.387054 -136.007429 
L 574.478614 -138.325718 
L 573.570173 -136.007156 
L 572.661733 -136.599776 
L 571.753292 -138.289504 
L 570.844851 -126.359417 
L 569.936411 -145.292539 
L 569.02797 -137.094898 
L 568.11953 -133.047196 
L 567.211089 -130.589837 
L 566.302649 -130.127868 
L 565.394208 -133.843278 
L 564.485767 -144.238724 
L 563.577327 -131.321983 
L 562.668886 -131.880959 
L 561.760446 -134.809725 
L 560.852005 -128.348639 
L 559.943565 -134.52723 
L 559.035124 -130.552001 
L 558.126683 -141.12406 
L 557.218243 -131.14167 
L 556.309802 -126.792387 
L 555.401362 -131.356338 
L 554.492921 -138.149287 
L 553.584481 -134.228565 
L 552.67604 -123.210016 
L 551.767599 -132.970769 
L 550.859159 -136.746554 
L 549.950718 -133.355509 
L 549.042278 -137.252052 
L 548.133837 -126.31299 
L 547.225397 -126.575069 
L 546.316956 -134.426278 
L 545.408515 -133.374231 
L 544.500075 -133.132751 
L 543.591634 -132.189727 
L 542.683194 -130.551619 
L 541.774753 -134.058228 
L 540.866313 -134.096765 
L 539.957872 -130.825531 
L 539.049431 -125.145569 
L 538.140991 -127.188716 
L 537.23255 -125.919304 
L 536.32411 -137.250876 
L 535.415669 -125.672212 
L 534.507228 -127.45083 
L 533.598788 -130.267739 
L 532.690347 -131.773538 
L 531.781907 -133.823837 
L 530.873466 -130.588142 
L 529.965026 -130.489331 
L 529.056585 -126.331257 
L 528.148144 -133.614972 
L 527.239704 -133.277305 
L 526.331263 -126.039534 
L 525.422823 -134.031462 
L 524.514382 -126.95375 
L 523.605942 -119.296564 
L 522.697501 -129.253254 
L 521.78906 -136.669216 
L 520.88062 -130.019691 
L 519.972179 -126.424465 
L 519.063739 -136.447105 
L 518.155298 -121.751345 
L 517.246858 -123.809178 
L 516.338417 -121.656287 
L 515.429976 -123.373857 
L 514.521536 -128.70972 
L 513.613095 -123.819636 
L 512.704655 -124.146945 
L 511.796214 -134.02708 
L 510.887774 -123.297548 
L 509.979333 -121.898623 
L 509.070892 -132.045483 
L 508.162452 -125.291772 
L 507.254011 -127.737598 
L 506.345571 -117.022451 
L 505.43713 -125.61817 
L 504.52869 -121.153404 
L 503.620249 -120.025531 
L 502.711808 -129.3133 
L 501.803368 -126.15683 
L 500.894927 -122.26629 
L 499.986487 -122.245309 
L 499.078046 -130.05463 
L 498.169606 -128.206609 
L 497.261165 -126.830332 
L 496.352724 -126.09671 
L 495.444284 -120.432272 
L 494.535843 -123.146571 
L 493.627403 -135.747018 
L 492.718962 -131.271065 
L 491.810522 -126.399922 
L 490.902081 -115.098477 
L 489.99364 -120.76163 
L 489.0852 -117.273132 
L 488.176759 -125.803875 
L 487.268319 -124.727849 
L 486.359878 -122.946844 
L 485.451438 -122.515277 
L 484.542997 -123.091581 
L 483.634556 -123.459348 
L 482.726116 -119.874845 
L 481.817675 -121.802299 
L 480.909235 -116.294086 
L 480.000794 -119.19051 
L 479.092354 -118.506385 
L 478.183913 -129.447159 
L 477.275472 -122.512799 
L 476.367032 -125.158752 
L 475.458591 -123.4451 
L 474.550151 -122.225066 
L 473.64171 -115.895179 
L 472.733269 -116.807073 
L 471.824829 -118.523358 
L 470.916388 -120.629986 
L 470.007948 -125.238504 
L 469.099507 -126.91033 
L 468.191067 -118.767251 
L 467.282626 -125.99769 
L 466.374185 -118.242858 
L 465.465745 -118.161193 
L 464.557304 -114.356838 
L 463.648864 -116.505975 
L 462.740423 -117.43823 
L 461.831983 -113.096154 
L 460.923542 -116.543674 
L 460.015101 -114.663967 
L 459.106661 -120.309647 
L 458.19822 -115.568354 
L 457.28978 -116.699078 
L 456.381339 -112.146261 
L 455.472899 -117.301183 
L 454.564458 -112.92169 
L 453.656017 -121.7857 
L 452.747577 -119.543218 
L 451.839136 -113.370121 
L 450.930696 -119.160519 
L 450.022255 -113.385818 
L 449.113815 -109.874881 
L 448.205374 -119.22666 
L 447.296933 -120.541396 
L 446.388493 -119.232145 
L 445.480052 -117.772308 
L 444.571612 -117.683299 
L 443.663171 -110.091717 
L 442.754731 -120.97136 
L 441.84629 -116.250046 
L 440.937849 -114.841856 
L 440.029409 -112.881441 
L 439.120968 -114.162641 
L 438.212528 -116.648334 
L 437.304087 -118.427763 
L 436.395647 -111.810179 
L 435.487206 -120.919805 
L 434.578765 -111.508371 
L 433.670325 -114.630495 
L 432.761884 -109.345623 
L 431.853444 -112.068458 
L 430.945003 -115.018752 
L 430.036563 -108.546953 
L 429.128122 -115.537324 
L 428.219681 -112.631516 
L 427.311241 -122.419317 
L 426.4028 -109.979195 
L 425.49436 -112.858419 
L 424.585919 -116.496509 
L 423.677479 -117.909829 
L 422.769038 -110.596805 
L 421.860597 -111.988569 
L 420.952157 -119.898486 
L 420.043716 -110.874927 
L 419.135276 -110.172717 
L 418.226835 -117.365038 
L 417.318394 -108.792578 
L 416.409954 -117.146334 
L 415.501513 -119.372545 
L 414.593073 -114.794765 
L 413.684632 -112.42861 
L 412.776192 -111.601943 
L 411.867751 -110.106257 
L 410.95931 -108.914156 
L 410.05087 -108.755353 
L 409.142429 -109.793662 
L 408.233989 -110.797753 
L 407.325548 -114.799939 
L 406.417108 -107.801679 
L 405.508667 -107.322437 
L 404.600226 -105.252579 
L 403.691786 -110.989608 
L 402.783345 -107.924669 
L 401.874905 -110.128805 
L 400.966464 -107.287225 
L 400.058024 -104.205578 
L 399.149583 -108.73613 
L 398.241142 -105.674771 
L 397.332702 -113.983859 
L 396.424261 -118.908535 
L 395.515821 -111.579122 
L 394.60738 -109.971068 
L 393.69894 -113.143264 
L 392.790499 -103.924049 
L 391.882058 -110.372061 
L 390.973618 -106.62236 
L 390.065177 -110.39604 
L 389.156737 -106.060741 
L 388.248296 -109.631133 
L 387.339856 -105.182046 
L 386.431415 -107.134754 
L 385.522974 -110.226487 
L 384.614534 -106.534116 
L 383.706093 -109.93439 
L 382.797653 -103.724396 
L 381.889212 -111.805132 
L 380.980772 -105.628199 
L 380.072331 -107.082215 
L 379.16389 -107.677578 
L 378.25545 -106.752264 
L 377.347009 -105.93797 
L 376.438569 -109.727357 
L 375.530128 -106.954606 
L 374.621688 -104.582365 
L 373.713247 -104.387403 
L 372.804806 -103.227671 
L 371.896366 -105.472002 
L 370.987925 -108.564591 
L 370.079485 -106.084055 
L 369.171044 -111.360181 
L 368.262604 -105.888874 
L 367.354163 -104.509901 
L 366.445722 -109.960227 
L 365.537282 -103.370804 
L 364.628841 -106.041245 
L 363.720401 -104.721526 
L 362.81196 -105.316133 
L 361.90352 -108.868586 
L 360.995079 -106.527757 
L 360.086638 -106.213541 
L 359.178198 -105.741259 
L 358.269757 -101.434221 
L 357.361317 -98.938334 
L 356.452876 -106.792314 
L 355.544435 -100.904726 
L 354.635995 -104.087754 
L 353.727554 -103.88226 
L 352.819114 -104.159543 
L 351.910673 -105.97832 
L 351.002233 -108.113627 
L 350.093792 -102.542015 
L 349.185351 -99.362167 
L 348.276911 -99.71421 
L 347.36847 -104.327092 
L 346.46003 -106.505492 
L 345.551589 -100.782665 
L 344.643149 -105.48021 
L 343.734708 -100.994354 
L 342.826267 -99.417321 
L 341.917827 -100.236735 
L 341.009386 -102.543208 
L 340.100946 -96.861397 
L 339.192505 -97.430021 
L 338.284065 -99.976434 
L 337.375624 -98.412921 
L 336.467183 -102.402754 
L 335.558743 -98.678078 
L 334.650302 -101.170977 
L 333.741862 -99.318738 
L 332.833421 -100.531474 
L 331.924981 -101.176279 
L 331.01654 -95.434421 
L 330.108099 -101.323894 
L 329.199659 -103.950433 
L 328.291218 -99.095215 
L 327.382778 -106.023517 
L 326.474337 -99.628399 
L 325.565897 -96.273769 
L 324.657456 -97.985043 
L 323.749015 -94.50806 
L 322.840575 -96.365437 
L 321.932134 -99.190537 
L 321.023694 -102.360573 
L 320.115253 -97.711304 
L 319.206813 -105.061753 
L 318.298372 -99.088473 
L 317.389931 -96.496035 
L 316.481491 -97.943035 
L 315.57305 -97.76285 
L 314.66461 -99.632827 
L 313.756169 -103.306958 
L 312.847729 -95.91953 
L 311.939288 -99.283417 
L 311.030847 -97.525434 
L 310.122407 -108.696126 
L 309.213966 -100.944265 
L 308.305526 -97.269678 
L 307.397085 -104.99737 
L 306.488645 -94.534945 
L 305.580204 -97.713636 
L 304.671763 -96.709646 
L 303.763323 -99.149103 
L 302.854882 -98.763133 
L 301.946442 -95.498503 
L 301.038001 -97.332522 
L 300.129561 -92.682105 
L 299.22112 -93.743755 
L 298.312679 -97.749294 
L 297.404239 -94.374202 
L 296.495798 -93.138999 
L 295.587358 -90.880683 
L 294.678917 -95.181909 
L 293.770476 -93.91349 
L 292.862036 -100.160855 
L 291.953595 -100.292837 
L 291.045155 -96.312178 
L 290.136714 -97.72189 
L 289.228274 -94.836389 
L 288.319833 -102.808393 
L 287.411392 -97.199018 
L 286.502952 -96.504699 
L 285.594511 -94.9181 
L 284.686071 -97.487872 
L 283.77763 -95.372862 
L 282.86919 -96.226513 
L 281.960749 -98.520742 
L 281.052308 -93.792932 
L 280.143868 -94.124586 
L 279.235427 -92.784478 
L 278.326987 -96.372826 
L 277.418546 -95.670881 
L 276.510106 -94.844616 
L 275.601665 -93.207746 
L 274.693224 -90.420719 
L 273.784784 -90.731929 
L 272.876343 -93.096007 
L 271.967903 -91.54114 
L 271.059462 -91.55896 
L 270.151022 -92.23627 
L 269.242581 -91.228563 
L 268.33414 -90.34718 
L 267.4257 -94.457889 
L 266.517259 -93.32414 
L 265.608819 -90.228627 
L 264.700378 -91.731592 
L 263.791938 -93.574876 
L 262.883497 -88.867428 
L 261.975056 -90.708033 
L 261.066616 -90.069897 
L 260.158175 -89.910055 
L 259.249735 -92.473668 
L 258.341294 -94.661187 
L 257.432854 -89.711121 
L 256.524413 -91.16551 
L 255.615972 -90.390181 
L 254.707532 -95.846319 
L 253.799091 -91.004867 
L 252.890651 -91.057734 
L 251.98221 -92.600877 
L 251.07377 -89.095989 
L 250.165329 -94.142953 
L 249.256888 -91.708115 
L 248.348448 -92.724022 
L 247.440007 -89.377326 
L 246.531567 -90.235168 
L 245.623126 -91.031114 
L 244.714686 -90.478807 
L 243.806245 -88.952464 
L 242.897804 -92.772152 
L 241.989364 -91.987967 
L 241.080923 -93.059529 
L 240.172483 -91.027825 
L 239.264042 -93.217376 
L 238.355602 -90.910666 
L 237.447161 -90.47437 
L 236.53872 -89.993871 
L 235.63028 -88.85808 
L 234.721839 -89.821566 
L 233.813399 -85.978702 
L 232.904958 -90.820992 
L 231.996517 -88.348574 
L 231.088077 -89.612765 
L 230.179636 -87.454363 
L 229.271196 -89.108406 
L 228.362755 -88.340229 
L 227.454315 -87.183357 
L 226.545874 -85.780943 
L 225.637433 -92.367196 
L 224.728993 -91.120669 
L 223.820552 -90.925552 
L 222.912112 -88.69546 
L 222.003671 -85.870698 
L 221.095231 -88.069122 
L 220.18679 -84.720186 
L 219.278349 -86.912232 
L 218.369909 -88.250883 
L 217.461468 -90.081895 
L 216.553028 -85.572069 
L 215.644587 -85.971432 
L 214.736147 -87.883453 
L 213.827706 -84.882159 
L 212.919265 -85.963223 
L 212.010825 -87.268202 
L 211.102384 -89.417366 
L 210.193944 -87.643987 
L 209.285503 -88.560791 
L 208.377063 -86.117088 
L 207.468622 -88.80227 
L 206.560181 -85.448487 
L 205.651741 -85.946105 
L 204.7433 -85.951535 
L 203.83486 -85.208356 
L 202.926419 -87.214187 
L 202.017979 -84.454117 
L 201.109538 -83.461642 
L 200.201097 -84.839504 
L 199.292657 -87.337951 
L 198.384216 -87.385343 
L 197.475776 -89.700671 
L 196.567335 -85.582009 
L 195.658895 -87.423106 
L 194.750454 -83.841126 
L 193.842013 -87.927456 
L 192.933573 -85.751917 
L 192.025132 -86.134525 
L 191.116692 -84.543062 
L 190.208251 -87.600293 
L 189.299811 -83.959825 
L 188.39137 -84.275399 
L 187.482929 -83.667938 
L 186.574489 -84.365765 
L 185.666048 -84.569637 
L 184.757608 -84.197405 
L 183.849167 -85.150678 
L 182.940727 -85.821293 
L 182.032286 -83.333951 
L 181.123845 -85.880474 
L 180.215405 -84.532995 
L 179.306964 -84.75424 
L 178.398524 -87.475755 
L 177.490083 -86.253206 
L 176.581642 -84.432134 
L 175.673202 -87.26249 
L 174.764761 -85.410387 
L 173.856321 -82.121087 
L 172.94788 -84.704042 
L 172.03944 -83.455529 
L 171.130999 -87.529752 
L 170.222558 -85.020372 
L 169.314118 -88.62828 
L 168.405677 -82.322937 
L 167.497237 -85.604985 
L 166.588796 -82.249553 
L 165.680356 -87.604493 
L 164.771915 -82.976533 
L 163.863474 -87.581244 
L 162.955034 -84.122308 
L 162.046593 -84.281649 
L 161.138153 -83.883553 
L 160.229712 -84.054418 
L 159.321272 -85.117115 
L 158.412831 -84.045481 
L 157.50439 -88.41979 
L 156.59595 -87.129305 
L 155.687509 -85.229583 
L 154.779069 -83.066088 
L 153.870628 -84.998152 
L 152.962188 -83.385452 
L 152.053747 -81.742533 
L 151.145306 -82.527337 
L 150.236866 -83.517926 
L 149.328425 -86.907577 
L 148.419985 -82.059219 
L 147.511544 -87.157921 
L 146.603104 -84.083535 
L 145.694663 -82.904352 
L 144.786222 -84.087816 
L 143.877782 -83.400603 
L 142.969341 -87.025684 
L 142.060901 -81.525843 
L 141.15246 -83.086896 
L 140.24402 -81.4588 
L 139.335579 -82.428435 
L 138.427138 -86.853416 
L 137.518698 -82.798735 
L 136.610257 -84.461652 
L 135.701817 -86.049116 
L 134.793376 -84.270634 
L 133.884936 -83.26433 
L 132.976495 -81.146797 
L 132.068054 -84.630968 
L 131.159614 -86.433136 
L 130.251173 -84.609303 
L 129.342733 -83.255666 
L 128.434292 -83.266252 
L 127.525852 -87.474443 
L 126.617411 -85.224007 
L 125.70897 -82.064348 
L 124.80053 -84.580269 
L 123.892089 -81.958668 
L 122.983649 -84.877813 
L 122.075208 -84.93612 
L 121.166768 -83.78384 
L 120.258327 -84.854126 
L 119.349886 -82.372096 
z
" style="stroke: #d2dbe0"/>
    </defs>
    <g clip-path="url(#p6d5167c2e2)">
     <use xlink:href="#m93b2eb63b1" x="0" y="288" style="fill: #d2dbe0; stroke: #d2dbe0"/>
    </g>
   </g>
   <g id="matplotlib.axis_1">
    <g id="xtick_1">
     <g id="line2d_1">
      <defs>
       <path id="md6068dfb69" d="M 0 0 
L 0 3.5 
" style="stroke: #000000; stroke-width: 0.8"/>
      </defs>
      <g>
       <use xlink:href="#md6068dfb69" x="110.265481" y="228.04" style="stroke: #000000; stroke-width: 0.8"/>
      </g>
     </g>
     <g id="text_1">
      <!-- 0 -->
      <g transform="translate(105.851731 246.4) scale(0.16 -0.16)">
       <defs>
        <path id="Bahnschrift-30" d="M 1766 -47 
Q 1116 -47 792 301 
Q 469 650 469 1244 
L 469 3309 
Q 469 3913 797 4256 
Q 1125 4600 1766 4600 
Q 2409 4600 2736 4258 
Q 3063 3916 3063 3309 
L 3063 1244 
Q 3063 641 2736 297 
Q 2409 -47 1766 -47 
z
M 1766 559 
Q 2116 559 2270 742 
Q 2425 925 2425 1244 
L 2425 3309 
Q 2425 3631 2270 3812 
Q 2116 3994 1766 3994 
Q 1416 3994 1261 3812 
Q 1106 3631 1106 3309 
L 1106 1244 
Q 1106 925 1261 742 
Q 1416 559 1766 559 
z
" transform="scale(0.015625)"/>
       </defs>
       <use xlink:href="#Bahnschrift-30"/>
      </g>
     </g>
    </g>
    <g id="xtick_2">
     <g id="line2d_2">
      <g>
       <use xlink:href="#md6068dfb69" x="291.953595" y="228.04" style="stroke: #000000; stroke-width: 0.8"/>
      </g>
     </g>
     <g id="text_2">
      <!-- 20000 -->
      <g transform="translate(270.166095 246.4) scale(0.16 -0.16)">
       <defs>
        <path id="Bahnschrift-32" d="M 400 0 
L 400 553 
L 1984 2666 
Q 2122 2847 2198 3040 
Q 2275 3234 2275 3406 
L 2275 3413 
Q 2275 3684 2115 3834 
Q 1956 3984 1663 3984 
Q 1388 3984 1214 3820 
Q 1041 3656 1003 3356 
L 1003 3353 
L 344 3353 
L 344 3356 
Q 428 3944 772 4267 
Q 1116 4591 1656 4591 
Q 2269 4591 2603 4281 
Q 2938 3972 2938 3406 
L 2938 3403 
Q 2938 3163 2838 2898 
Q 2738 2634 2559 2394 
L 1244 606 
L 2963 606 
L 2963 0 
L 400 0 
z
" transform="scale(0.015625)"/>
       </defs>
       <use xlink:href="#Bahnschrift-32"/>
       <use xlink:href="#Bahnschrift-30" x="51.660156"/>
       <use xlink:href="#Bahnschrift-30" x="106.835938"/>
       <use xlink:href="#Bahnschrift-30" x="162.011719"/>
       <use xlink:href="#Bahnschrift-30" x="217.1875"/>
      </g>
     </g>
    </g>
    <g id="xtick_3">
     <g id="line2d_3">
      <g>
       <use xlink:href="#md6068dfb69" x="473.64171" y="228.04" style="stroke: #000000; stroke-width: 0.8"/>
      </g>
     </g>
     <g id="text_3">
      <!-- 40000 -->
      <g transform="translate(451.43546 246.4) scale(0.16 -0.16)">
       <defs>
        <path id="Bahnschrift-34" d="M 406 697 
L 406 1250 
L 1931 4541 
L 2588 4541 
L 1100 1288 
L 3328 1288 
L 3328 697 
L 406 697 
z
M 2366 -3 
L 2366 2672 
L 2988 2672 
L 2988 -3 
L 2366 -3 
z
" transform="scale(0.015625)"/>
       </defs>
       <use xlink:href="#Bahnschrift-34"/>
       <use xlink:href="#Bahnschrift-30" x="56.884766"/>
       <use xlink:href="#Bahnschrift-30" x="112.060547"/>
       <use xlink:href="#Bahnschrift-30" x="167.236328"/>
       <use xlink:href="#Bahnschrift-30" x="222.412109"/>
      </g>
     </g>
    </g>
    <g id="xtick_4">
     <g id="line2d_4">
      <g>
       <use xlink:href="#md6068dfb69" x="655.329825" y="228.04" style="stroke: #000000; stroke-width: 0.8"/>
      </g>
     </g>
     <g id="text_4">
      <!-- 60000 -->
      <g transform="translate(633.569825 246.4) scale(0.16 -0.16)">
       <defs>
        <path id="Bahnschrift-36" d="M 1641 -47 
Q 1038 -47 706 312 
Q 375 672 375 1325 
L 375 1328 
Q 375 1622 456 1951 
Q 538 2281 691 2588 
L 1678 4544 
L 2366 4544 
L 1206 2278 
L 1209 2391 
Q 1372 2700 1788 2700 
Q 2322 2700 2615 2345 
Q 2909 1991 2909 1344 
L 2909 1341 
Q 2909 681 2578 317 
Q 2247 -47 1641 -47 
z
M 1641 566 
Q 1947 566 2109 753 
Q 2272 941 2272 1288 
L 2272 1291 
Q 2272 1672 2100 1880 
Q 1928 2088 1609 2088 
Q 1325 2088 1169 1878 
Q 1013 1669 1013 1288 
L 1013 1284 
Q 1013 938 1177 752 
Q 1341 566 1641 566 
z
" transform="scale(0.015625)"/>
       </defs>
       <use xlink:href="#Bahnschrift-36"/>
       <use xlink:href="#Bahnschrift-30" x="51.318359"/>
       <use xlink:href="#Bahnschrift-30" x="106.494141"/>
       <use xlink:href="#Bahnschrift-30" x="161.669922"/>
       <use xlink:href="#Bahnschrift-30" x="216.845703"/>
      </g>
     </g>
    </g>
    <g id="xtick_5">
     <g id="line2d_5">
      <g>
       <use xlink:href="#md6068dfb69" x="837.017939" y="228.04" style="stroke: #000000; stroke-width: 0.8"/>
      </g>
     </g>
     <g id="text_5">
      <!-- 80000 -->
      <g transform="translate(814.862939 246.4) scale(0.16 -0.16)">
       <defs>
        <path id="Bahnschrift-38" d="M 1800 -47 
Q 1384 -47 1075 109 
Q 766 266 594 550 
Q 422 834 422 1216 
L 422 1291 
Q 422 1631 592 1931 
Q 763 2231 1047 2384 
Q 809 2516 662 2764 
Q 516 3013 516 3288 
L 516 3397 
Q 516 3938 867 4264 
Q 1219 4591 1800 4591 
Q 2381 4591 2732 4264 
Q 3084 3938 3084 3397 
L 3084 3288 
Q 3084 3006 2936 2759 
Q 2788 2513 2544 2384 
Q 2831 2231 3004 1931 
Q 3178 1631 3178 1291 
L 3178 1216 
Q 3178 834 3006 550 
Q 2834 266 2525 109 
Q 2216 -47 1800 -47 
z
M 1800 566 
Q 2134 566 2339 758 
Q 2544 950 2544 1263 
L 2544 1306 
Q 2544 1622 2339 1814 
Q 2134 2006 1800 2006 
Q 1466 2006 1261 1814 
Q 1056 1622 1056 1303 
L 1056 1256 
Q 1056 944 1261 755 
Q 1466 566 1800 566 
z
M 1800 2619 
Q 2091 2619 2269 2803 
Q 2447 2988 2447 3291 
L 2447 3334 
Q 2447 3625 2269 3801 
Q 2091 3978 1800 3978 
Q 1509 3978 1331 3801 
Q 1153 3625 1153 3331 
L 1153 3284 
Q 1153 2984 1331 2801 
Q 1509 2619 1800 2619 
z
" transform="scale(0.015625)"/>
       </defs>
       <use xlink:href="#Bahnschrift-38"/>
       <use xlink:href="#Bahnschrift-30" x="56.25"/>
       <use xlink:href="#Bahnschrift-30" x="111.425781"/>
       <use xlink:href="#Bahnschrift-30" x="166.601562"/>
       <use xlink:href="#Bahnschrift-30" x="221.777344"/>
      </g>
     </g>
    </g>
    <g id="xtick_6">
     <g id="line2d_6">
      <g>
       <use xlink:href="#md6068dfb69" x="1018.706054" y="228.04" style="stroke: #000000; stroke-width: 0.8"/>
      </g>
     </g>
     <g id="text_6">
      <!-- 100000 -->
      <g transform="translate(993.977304 246.4) scale(0.16 -0.16)">
       <defs>
        <path id="Bahnschrift-31" d="M 1566 4544 
L 1566 0 
L 928 0 
L 928 3850 
L 281 3453 
L 281 4113 
L 928 4544 
L 1566 4544 
z
" transform="scale(0.015625)"/>
       </defs>
       <use xlink:href="#Bahnschrift-31"/>
       <use xlink:href="#Bahnschrift-30" x="33.251953"/>
       <use xlink:href="#Bahnschrift-30" x="88.427734"/>
       <use xlink:href="#Bahnschrift-30" x="143.603516"/>
       <use xlink:href="#Bahnschrift-30" x="198.779297"/>
       <use xlink:href="#Bahnschrift-30" x="253.955078"/>
      </g>
     </g>
    </g>
    <g id="text_7">
     <!-- Number of Sites -->
     <g transform="translate(510.445 265.0575) scale(0.16 -0.16)">
      <defs>
       <path id="Bahnschrift-4e" d="M 563 3 
L 563 4544 
L 1141 4544 
L 3363 1031 
L 3288 950 
L 3288 4544 
L 3919 4544 
L 3919 3 
L 3334 3 
L 1119 3463 
L 1194 3544 
L 1194 3 
L 563 3 
z
" transform="scale(0.015625)"/>
       <path id="Bahnschrift-75" d="M 2456 0 
L 2456 3244 
L 3091 3244 
L 3091 0 
L 2456 0 
z
M 1138 3244 
L 1138 1272 
Q 1138 931 1311 745 
Q 1484 559 1800 559 
Q 2116 559 2286 726 
Q 2456 894 2456 1197 
L 2500 519 
Q 2413 300 2194 126 
Q 1975 -47 1622 -47 
Q 1084 -47 792 298 
Q 500 644 500 1272 
L 500 3244 
L 1138 3244 
z
" transform="scale(0.015625)"/>
       <path id="Bahnschrift-6d" d="M 4375 0 
L 4375 1966 
Q 4375 2309 4198 2496 
Q 4022 2684 3697 2684 
Q 3400 2684 3237 2503 
Q 3075 2322 3075 1991 
L 2947 2616 
Q 3103 2941 3353 3116 
Q 3603 3291 3906 3291 
Q 4434 3291 4723 2945 
Q 5013 2600 5013 1969 
L 5013 0 
L 4375 0 
z
M 500 0 
L 500 3244 
L 1138 3244 
L 1138 0 
L 500 0 
z
M 2438 0 
L 2438 1966 
Q 2438 2309 2269 2496 
Q 2100 2684 1791 2684 
Q 1478 2684 1308 2518 
Q 1138 2353 1138 2053 
L 1072 2678 
Q 1222 2972 1464 3131 
Q 1706 3291 2000 3291 
Q 2513 3291 2794 2945 
Q 3075 2600 3075 1969 
L 3075 0 
L 2438 0 
z
" transform="scale(0.015625)"/>
       <path id="Bahnschrift-62" d="M 1953 -47 
Q 1650 -47 1425 98 
Q 1200 244 1094 509 
L 1138 1188 
Q 1138 978 1213 831 
Q 1288 684 1430 606 
Q 1572 528 1775 528 
Q 2091 528 2264 720 
Q 2438 913 2438 1263 
L 2438 1966 
Q 2438 2322 2264 2519 
Q 2091 2716 1775 2716 
Q 1572 2716 1430 2641 
Q 1288 2566 1213 2422 
Q 1138 2278 1138 2072 
L 1072 2697 
Q 1219 2981 1456 3136 
Q 1694 3291 1984 3291 
Q 2506 3291 2790 2945 
Q 3075 2600 3075 1969 
L 3075 1263 
Q 3075 641 2781 297 
Q 2488 -47 1953 -47 
z
M 500 0 
L 500 4544 
L 1138 4544 
L 1138 0 
L 500 0 
z
" transform="scale(0.015625)"/>
       <path id="Bahnschrift-65" d="M 1828 -47 
Q 1150 -47 778 331 
Q 406 709 406 1406 
L 406 1772 
Q 406 2497 764 2894 
Q 1122 3291 1772 3291 
Q 2384 3291 2720 2841 
Q 3056 2391 3056 1578 
L 3056 1366 
L 869 1366 
L 869 1878 
L 2450 1878 
L 2450 1878 
Q 2422 2272 2245 2494 
Q 2069 2716 1772 2716 
Q 1413 2716 1213 2478 
Q 1013 2241 1013 1806 
L 1013 1394 
Q 1013 991 1227 775 
Q 1441 559 1828 559 
Q 2022 559 2212 637 
Q 2403 716 2553 856 
L 2553 856 
L 2972 438 
L 2972 438 
Q 2731 206 2431 79 
Q 2131 -47 1828 -47 
z
" transform="scale(0.015625)"/>
       <path id="Bahnschrift-72" d="M 500 0 
L 500 3244 
L 1138 3244 
L 1138 0 
L 500 0 
z
M 2284 2475 
Q 2200 2578 2072 2631 
Q 1944 2684 1775 2684 
Q 1472 2684 1305 2517 
Q 1138 2350 1138 2053 
L 1072 2678 
Q 1219 2966 1458 3128 
Q 1697 3291 1984 3291 
Q 2206 3291 2386 3227 
Q 2566 3163 2700 3038 
L 2284 2475 
z
" transform="scale(0.015625)"/>
       <path id="Bahnschrift-20" transform="scale(0.015625)"/>
       <path id="Bahnschrift-6f" d="M 1744 -47 
Q 1106 -47 756 323 
Q 406 694 406 1366 
L 406 1894 
Q 406 2559 756 2925 
Q 1106 3291 1744 3291 
Q 2381 3291 2731 2925 
Q 3081 2559 3081 1894 
L 3081 1356 
Q 3081 688 2731 320 
Q 2381 -47 1744 -47 
z
M 1744 559 
Q 2078 559 2261 768 
Q 2444 978 2444 1356 
L 2444 1894 
Q 2444 2272 2261 2478 
Q 2078 2684 1744 2684 
Q 1413 2684 1228 2478 
Q 1044 2272 1044 1894 
L 1044 1356 
Q 1044 978 1228 768 
Q 1413 559 1744 559 
z
" transform="scale(0.015625)"/>
       <path id="Bahnschrift-66" d="M 594 0 
L 594 3684 
Q 594 4113 791 4328 
Q 988 4544 1403 4544 
L 1872 4544 
L 1872 3938 
L 1416 3938 
Q 1319 3938 1275 3864 
Q 1231 3791 1231 3691 
L 1231 0 
L 594 0 
z
M 250 2700 
L 250 3244 
L 1872 3244 
L 1872 2700 
L 250 2700 
z
" transform="scale(0.015625)"/>
       <path id="Bahnschrift-53" d="M 1928 -47 
Q 1597 -47 1305 15 
Q 1013 78 758 203 
Q 503 328 281 516 
L 281 516 
L 678 1003 
L 678 1003 
Q 938 778 1250 665 
Q 1563 553 1928 553 
Q 2422 553 2694 737 
Q 2966 922 2966 1253 
L 2966 1256 
Q 2966 1516 2828 1653 
Q 2691 1791 2467 1858 
Q 2244 1925 1978 1969 
Q 1722 2013 1461 2072 
Q 1200 2131 981 2257 
Q 763 2384 630 2621 
Q 497 2859 497 3256 
L 497 3259 
Q 497 3894 919 4242 
Q 1341 4591 2109 4591 
Q 2475 4591 2825 4473 
Q 3175 4356 3506 4116 
L 3506 4116 
L 3144 3609 
L 3144 3609 
Q 2884 3803 2626 3897 
Q 2369 3991 2109 3991 
Q 1644 3991 1386 3805 
Q 1128 3619 1128 3278 
L 1128 3275 
Q 1128 3019 1278 2884 
Q 1428 2750 1670 2686 
Q 1913 2622 2191 2566 
Q 2441 2516 2691 2445 
Q 2941 2375 3145 2242 
Q 3350 2109 3473 1878 
Q 3597 1647 3597 1275 
L 3597 1269 
Q 3597 641 3159 297 
Q 2722 -47 1928 -47 
z
" transform="scale(0.015625)"/>
       <path id="Bahnschrift-69" d="M 500 3906 
L 500 4544 
L 1138 4544 
L 1138 3906 
L 500 3906 
z
M 500 0 
L 500 3244 
L 1138 3244 
L 1138 0 
L 500 0 
z
" transform="scale(0.015625)"/>
       <path id="Bahnschrift-74" d="M 1344 -16 
Q 944 -16 764 206 
Q 584 428 584 844 
L 584 4188 
L 1222 4188 
L 1222 838 
Q 1222 722 1269 656 
Q 1316 591 1406 591 
L 1713 591 
L 1713 -16 
L 1344 -16 
z
M 250 2669 
L 250 3244 
L 1713 3244 
L 1713 2669 
L 250 2669 
z
" transform="scale(0.015625)"/>
       <path id="Bahnschrift-73" d="M 1647 -47 
Q 1216 -47 864 79 
Q 513 206 234 459 
L 234 459 
L 613 925 
L 613 925 
Q 878 725 1136 625 
Q 1394 525 1647 525 
Q 2025 525 2214 642 
Q 2403 759 2403 994 
Q 2403 1175 2276 1250 
Q 2150 1325 1945 1348 
Q 1741 1372 1506 1388 
Q 1309 1403 1115 1436 
Q 922 1469 762 1555 
Q 603 1641 508 1809 
Q 413 1978 413 2263 
Q 413 2778 728 3034 
Q 1044 3291 1669 3291 
Q 2050 3291 2378 3187 
Q 2706 3084 2994 2872 
L 2994 2872 
L 2609 2406 
L 2609 2406 
Q 2366 2563 2130 2641 
Q 1894 2719 1669 2719 
Q 1344 2719 1181 2608 
Q 1019 2497 1019 2275 
Q 1019 2128 1131 2064 
Q 1244 2000 1428 1981 
Q 1613 1963 1825 1947 
Q 2028 1934 2236 1901 
Q 2444 1869 2619 1775 
Q 2794 1681 2900 1497 
Q 3006 1313 3006 994 
Q 3006 472 2667 212 
Q 2328 -47 1647 -47 
z
" transform="scale(0.015625)"/>
      </defs>
      <use xlink:href="#Bahnschrift-4e"/>
      <use xlink:href="#Bahnschrift-75" x="70.019531"/>
      <use xlink:href="#Bahnschrift-6d" x="125.634766"/>
      <use xlink:href="#Bahnschrift-62" x="211.279297"/>
      <use xlink:href="#Bahnschrift-65" x="265.673828"/>
      <use xlink:href="#Bahnschrift-72" x="319.287109"/>
      <use xlink:href="#Bahnschrift-20" x="361.962891"/>
      <use xlink:href="#Bahnschrift-6f" x="388.818359"/>
      <use xlink:href="#Bahnschrift-66" x="443.310547"/>
      <use xlink:href="#Bahnschrift-20" x="475"/>
      <use xlink:href="#Bahnschrift-53" x="501.855469"/>
      <use xlink:href="#Bahnschrift-69" x="563.427734"/>
      <use xlink:href="#Bahnschrift-74" x="588.525391"/>
      <use xlink:href="#Bahnschrift-65" x="621.142578"/>
      <use xlink:href="#Bahnschrift-73" x="674.755859"/>
     </g>
    </g>
   </g>
   <g id="matplotlib.axis_2">
    <g id="ytick_1">
     <g id="line2d_7">
      <defs>
       <path id="md977cc2508" d="M 0 0 
L -3.5 0 
" style="stroke: #000000; stroke-width: 0.8"/>
      </defs>
      <g>
       <use xlink:href="#md977cc2508" x="74.4275" y="224.391809" style="stroke: #000000; stroke-width: 0.8"/>
      </g>
     </g>
     <g id="text_8">
      <!-- 0.00 -->
      <g transform="translate(37.32 230.071809) scale(0.16 -0.16)">
       <defs>
        <path id="Bahnschrift-2e" d="M 391 0 
L 391 669 
L 1059 669 
L 1059 0 
L 391 0 
z
" transform="scale(0.015625)"/>
       </defs>
       <use xlink:href="#Bahnschrift-30"/>
       <use xlink:href="#Bahnschrift-2e" x="55.175781"/>
       <use xlink:href="#Bahnschrift-30" x="77.832031"/>
       <use xlink:href="#Bahnschrift-30" x="133.007812"/>
      </g>
     </g>
    </g>
    <g id="ytick_2">
     <g id="line2d_8">
      <g>
       <use xlink:href="#md977cc2508" x="74.4275" y="186.180137" style="stroke: #000000; stroke-width: 0.8"/>
      </g>
     </g>
     <g id="text_9">
      <!-- 0.05 -->
      <g transform="translate(37.4375 191.860137) scale(0.16 -0.16)">
       <defs>
        <path id="Bahnschrift-35" d="M 1738 -47 
Q 1219 -47 886 251 
Q 553 550 469 1094 
L 469 1097 
L 1106 1097 
L 1106 1094 
Q 1141 844 1306 705 
Q 1472 566 1738 566 
Q 2044 566 2211 770 
Q 2378 975 2378 1347 
L 2378 1728 
Q 2378 2100 2211 2303 
Q 2044 2506 1738 2506 
Q 1572 2506 1419 2412 
Q 1266 2319 1150 2150 
L 569 2150 
L 569 4544 
L 2884 4544 
L 2884 3938 
L 1206 3938 
L 1206 2916 
Q 1325 3013 1472 3066 
Q 1619 3119 1772 3119 
Q 2366 3119 2691 2755 
Q 3016 2391 3016 1728 
L 3016 1347 
Q 3016 681 2681 317 
Q 2347 -47 1738 -47 
z
" transform="scale(0.015625)"/>
       </defs>
       <use xlink:href="#Bahnschrift-30"/>
       <use xlink:href="#Bahnschrift-2e" x="55.175781"/>
       <use xlink:href="#Bahnschrift-30" x="77.832031"/>
       <use xlink:href="#Bahnschrift-35" x="133.007812"/>
      </g>
     </g>
    </g>
    <g id="ytick_3">
     <g id="line2d_9">
      <g>
       <use xlink:href="#md977cc2508" x="74.4275" y="147.968465" style="stroke: #000000; stroke-width: 0.8"/>
      </g>
     </g>
     <g id="text_10">
      <!-- 0.10 -->
      <g transform="translate(40.8275 153.648465) scale(0.16 -0.16)">
       <use xlink:href="#Bahnschrift-30"/>
       <use xlink:href="#Bahnschrift-2e" x="55.175781"/>
       <use xlink:href="#Bahnschrift-31" x="77.832031"/>
       <use xlink:href="#Bahnschrift-30" x="111.083984"/>
      </g>
     </g>
    </g>
    <g id="ytick_4">
     <g id="line2d_10">
      <g>
       <use xlink:href="#md977cc2508" x="74.4275" y="109.756793" style="stroke: #000000; stroke-width: 0.8"/>
      </g>
     </g>
     <g id="text_11">
      <!-- 0.15 -->
      <g transform="translate(40.945 115.436793) scale(0.16 -0.16)">
       <use xlink:href="#Bahnschrift-30"/>
       <use xlink:href="#Bahnschrift-2e" x="55.175781"/>
       <use xlink:href="#Bahnschrift-31" x="77.832031"/>
       <use xlink:href="#Bahnschrift-35" x="111.083984"/>
      </g>
     </g>
    </g>
    <g id="ytick_5">
     <g id="line2d_11">
      <g>
       <use xlink:href="#md977cc2508" x="74.4275" y="71.54512" style="stroke: #000000; stroke-width: 0.8"/>
      </g>
     </g>
     <g id="text_12">
      <!-- 0.20 -->
      <g transform="translate(37.8825 77.22512) scale(0.16 -0.16)">
       <use xlink:href="#Bahnschrift-30"/>
       <use xlink:href="#Bahnschrift-2e" x="55.175781"/>
       <use xlink:href="#Bahnschrift-32" x="77.832031"/>
       <use xlink:href="#Bahnschrift-30" x="129.492188"/>
      </g>
     </g>
    </g>
    <g id="ytick_6">
     <g id="line2d_12">
      <g>
       <use xlink:href="#md977cc2508" x="74.4275" y="33.333448" style="stroke: #000000; stroke-width: 0.8"/>
      </g>
     </g>
     <g id="text_13">
      <!-- 0.25 -->
      <g transform="translate(38 39.013448) scale(0.16 -0.16)">
       <use xlink:href="#Bahnschrift-30"/>
       <use xlink:href="#Bahnschrift-2e" x="55.175781"/>
       <use xlink:href="#Bahnschrift-32" x="77.832031"/>
       <use xlink:href="#Bahnschrift-35" x="129.492188"/>
      </g>
     </g>
    </g>
    <g id="text_14">
     <!-- Time [s] -->
     <g transform="translate(30.0225 150.65875) rotate(-90) scale(0.16 -0.16)">
      <defs>
       <path id="Bahnschrift-54" d="M 1222 0 
L 1222 4172 
L 1859 4172 
L 1859 0 
L 1222 0 
z
M -63 3938 
L -63 4544 
L 3144 4544 
L 3144 3938 
L -63 3938 
z
" transform="scale(0.015625)"/>
       <path id="Bahnschrift-5b" d="M 594 -1019 
L 594 5081 
L 1200 5081 
L 1200 -1019 
L 594 -1019 
z
M 906 -1019 
L 906 -444 
L 1788 -444 
L 1788 -1019 
L 906 -1019 
z
M 906 4506 
L 906 5081 
L 1788 5081 
L 1788 4506 
L 906 4506 
z
" transform="scale(0.015625)"/>
       <path id="Bahnschrift-5d" d="M 681 -1019 
L 681 5081 
L 1288 5081 
L 1288 -1019 
L 681 -1019 
z
M 94 -1019 
L 94 -444 
L 975 -444 
L 975 -1019 
L 94 -1019 
z
M 94 4506 
L 94 5081 
L 975 5081 
L 975 4506 
L 94 4506 
z
" transform="scale(0.015625)"/>
      </defs>
      <use xlink:href="#Bahnschrift-54"/>
      <use xlink:href="#Bahnschrift-69" x="48.144531"/>
      <use xlink:href="#Bahnschrift-6d" x="73.242188"/>
      <use xlink:href="#Bahnschrift-65" x="158.886719"/>
      <use xlink:href="#Bahnschrift-20" x="212.5"/>
      <use xlink:href="#Bahnschrift-5b" x="239.355469"/>
      <use xlink:href="#Bahnschrift-73" x="268.75"/>
      <use xlink:href="#Bahnschrift-5d" x="320.605469"/>
     </g>
    </g>
   </g>
   <g id="line2d_13">
    <path d="M 128.434292 213.959335 
L 135.701817 213.709131 
L 149.328425 213.098837 
L 153.870628 212.867782 
L 187.482929 211.228828 
L 199.292657 210.476728 
L 202.017979 210.275334 
L 205.651741 210.10186 
L 214.736147 209.572351 
L 218.369909 209.368 
L 222.003671 209.206025 
L 226.545874 208.967243 
L 248.348448 207.537403 
L 254.707532 207.365958 
L 263.791938 206.870095 
L 268.33414 206.65026 
L 274.693224 206.141462 
L 278.326987 205.920453 
L 280.143868 205.771021 
L 282.86919 205.51099 
L 284.686071 205.283817 
L 291.953595 204.934495 
L 294.678917 204.71282 
L 297.404239 204.570919 
L 299.22112 204.280895 
L 301.038001 204.155687 
L 303.763323 204.027531 
L 305.580204 203.703909 
L 307.397085 203.57153 
L 308.305526 203.573422 
L 310.122407 203.356664 
L 311.939288 203.304425 
L 316.481491 203.252043 
L 318.298372 203.202903 
L 327.382778 202.595627 
L 328.291218 202.582117 
L 330.108099 202.416179 
L 331.01654 202.399691 
L 332.833421 202.155992 
L 334.650302 202.010363 
L 336.467183 201.796527 
L 340.100946 201.670644 
L 341.009386 201.53499 
L 342.826267 201.428033 
L 346.46003 201.093986 
L 348.276911 200.972961 
L 349.185351 200.820172 
L 351.002233 200.693444 
L 352.819114 200.476061 
L 355.544435 200.34611 
L 362.81196 199.579259 
L 365.537282 199.490542 
L 370.987925 199.110056 
L 371.896366 199.15553 
L 379.16389 198.66331 
L 382.797653 198.464321 
L 392.790499 197.592816 
L 395.515821 197.536543 
L 396.424261 197.425603 
L 397.332702 197.450419 
L 401.874905 196.898862 
L 402.783345 196.932091 
L 404.600226 196.608742 
L 406.417108 196.522423 
L 407.325548 196.251129 
L 408.233989 196.237106 
L 409.142429 196.034065 
L 410.95931 195.992456 
L 411.867751 195.752838 
L 416.409954 195.448797 
L 417.318394 195.473014 
L 420.043716 195.120158 
L 422.769038 194.977713 
L 424.585919 194.837387 
L 425.49436 194.906496 
L 426.4028 194.710766 
L 427.311241 194.814535 
L 429.128122 194.529293 
L 430.036563 194.550961 
L 436.395647 193.735849 
L 437.304087 193.680822 
L 438.212528 193.746023 
L 439.120968 193.636501 
L 440.029409 193.701894 
L 445.480052 193.251825 
L 446.388493 193.166275 
L 448.205374 193.185934 
L 449.113815 193.211651 
L 450.022255 192.970344 
L 452.747577 192.925251 
L 453.656017 192.797149 
L 455.472899 192.733609 
L 457.28978 192.523734 
L 458.19822 192.247347 
L 459.106661 192.172891 
L 460.923542 191.725014 
L 464.557304 191.687159 
L 467.282626 191.056981 
L 468.191067 191.056538 
L 470.007948 190.741169 
L 470.916388 190.660547 
L 471.824829 190.693926 
L 472.733269 190.577368 
L 474.550151 190.531784 
L 475.458591 190.358731 
L 481.817675 190.051306 
L 482.726116 189.839869 
L 484.542997 189.771296 
L 486.359878 189.641131 
L 489.0852 189.596693 
L 489.99364 189.459939 
L 490.902081 189.473046 
L 493.627403 189.021808 
L 497.261165 189.082879 
L 498.169606 188.793765 
L 499.078046 188.660275 
L 500.894927 188.271392 
L 509.070892 187.909049 
L 509.979333 187.638339 
L 514.521536 187.564072 
L 516.338417 187.258269 
L 517.246858 187.308908 
L 519.063739 187.181469 
L 520.88062 187.199396 
L 525.422823 186.463547 
L 526.331263 186.46978 
L 527.239704 186.203525 
L 529.056585 186.200365 
L 530.873466 186.009295 
L 532.690347 185.476633 
L 538.140991 185.223315 
L 539.957872 184.875902 
L 540.866313 184.982857 
L 541.774753 184.783836 
L 543.591634 184.682268 
L 544.500075 184.453055 
L 546.316956 184.426121 
L 549.042278 184.130791 
L 550.859159 184.241867 
L 551.767599 184.317139 
L 553.584481 184.17033 
L 555.401362 184.040006 
L 556.309802 183.755961 
L 557.218243 183.673933 
L 558.126683 183.721362 
L 559.035124 183.503244 
L 559.943565 183.533577 
L 560.852005 183.414667 
L 563.577327 183.652729 
L 565.394208 183.438748 
L 566.302649 183.273815 
L 567.211089 183.421789 
L 572.661733 182.803928 
L 578.112376 182.538994 
L 579.020817 182.434761 
L 580.837698 181.763809 
L 583.563019 181.529023 
L 584.47146 181.647225 
L 585.379901 181.404414 
L 591.738985 180.850543 
L 593.555866 180.442016 
L 595.372747 180.197443 
L 598.098069 180.518787 
L 599.006509 180.560279 
L 599.91495 180.391366 
L 600.82339 180.06238 
L 602.640272 179.612812 
L 603.548712 179.708192 
L 605.365593 179.558112 
L 606.274034 179.574279 
L 607.182474 179.404698 
L 608.999356 179.304462 
L 609.907796 179.201509 
L 610.816237 179.436986 
L 611.724677 179.491564 
L 613.541558 179.277388 
L 614.449999 178.968436 
L 617.175321 178.639243 
L 618.083761 178.68389 
L 618.992202 178.854528 
L 620.809083 178.848404 
L 621.717524 178.509049 
L 626.259726 178.085802 
L 627.168167 178.1626 
L 631.71037 177.645467 
L 632.61881 177.665151 
L 636.252573 176.997469 
L 637.161013 176.740227 
L 639.886335 176.762729 
L 640.794776 176.682314 
L 641.703216 176.412586 
L 643.520097 176.450838 
L 644.428538 176.37114 
L 645.336978 175.957042 
L 646.245419 175.763361 
L 652.604503 175.368196 
L 653.512944 175.404517 
L 654.421384 175.287696 
L 655.329825 175.40833 
L 658.963587 174.966724 
L 659.872028 175.089843 
L 661.688909 174.619787 
L 662.597349 174.397854 
L 666.231112 174.437709 
L 668.047993 174.022224 
L 668.956433 173.948293 
L 670.773315 173.65939 
L 671.681755 173.814671 
L 672.590196 173.641446 
L 675.315517 173.582444 
L 676.223958 173.428916 
L 678.040839 173.367151 
L 678.94928 173.170566 
L 681.674601 173.098591 
L 683.491483 172.643486 
L 687.125245 172.171349 
L 688.033685 172.312184 
L 688.942126 172.09119 
L 689.850567 171.649392 
L 690.759007 171.750972 
L 691.667448 171.491359 
L 692.575888 171.41425 
L 693.484329 171.123652 
L 694.392769 171.195443 
L 696.209651 171.05198 
L 697.118091 171.057967 
L 698.026532 170.879083 
L 699.843413 170.981285 
L 700.751853 171.377477 
L 702.568735 171.249272 
L 704.385616 171.521798 
L 705.294056 171.535331 
L 708.927819 170.936976 
L 709.836259 170.901113 
L 710.7447 170.586463 
L 711.65314 170.739715 
L 712.561581 170.767882 
L 715.286903 170.202777 
L 716.195343 170.308539 
L 717.103784 169.946144 
L 718.012224 169.98339 
L 718.920665 169.36375 
L 719.829106 169.376497 
L 720.737546 169.009868 
L 721.645987 168.987099 
L 722.554427 168.796928 
L 725.279749 169.124281 
L 726.18819 169.16561 
L 728.005071 168.868973 
L 728.913511 169.173296 
L 730.730392 168.866001 
L 734.364155 168.269294 
L 735.272595 168.395483 
L 736.181036 168.130779 
L 737.089476 168.291325 
L 737.997917 168.163317 
L 738.906358 168.239171 
L 739.814798 167.982359 
L 740.723239 167.924221 
L 741.631679 167.683655 
L 742.54012 167.304474 
L 745.265442 167.082647 
L 746.173882 167.271485 
L 747.082323 167.142242 
L 748.899204 167.201122 
L 749.807644 167.110204 
L 751.624526 167.574415 
L 753.441407 167.332826 
L 754.349847 167.022026 
L 755.258288 166.969777 
L 757.075169 167.021668 
L 757.98361 166.802453 
L 761.617372 166.843798 
L 762.525812 166.586741 
L 763.434253 166.451572 
L 764.342694 166.490025 
L 767.068015 166.129589 
L 767.976456 166.091148 
L 768.884896 165.617464 
L 771.610218 164.903795 
L 772.518659 165.103128 
L 773.427099 165.181469 
L 774.33554 164.916811 
L 777.060862 164.781859 
L 781.603065 164.28312 
L 782.511505 163.861503 
L 784.328386 163.520987 
L 786.145267 163.09108 
L 787.962149 162.978036 
L 790.68747 163.018629 
L 794.321233 162.327034 
L 795.229673 162.378628 
L 796.138114 162.09842 
L 797.046554 161.957199 
L 797.954995 162.072439 
L 798.863435 161.969308 
L 799.771876 162.182438 
L 801.588757 161.939099 
L 802.497198 162.143262 
L 803.405638 161.978084 
L 804.314079 162.16083 
L 805.222519 162.220351 
L 806.13096 161.758008 
L 807.039401 161.575187 
L 807.947841 161.76171 
L 809.764722 161.366665 
L 811.581603 161.672379 
L 815.215366 161.119968 
L 816.123806 160.670083 
L 817.032247 160.879629 
L 817.940687 160.570346 
L 819.757569 160.262647 
L 820.666009 159.937496 
L 823.391331 159.683996 
L 824.299771 159.925855 
L 825.208212 159.808434 
L 826.116653 159.449516 
L 827.025093 159.285388 
L 827.933534 159.40004 
L 828.841974 159.016435 
L 829.750415 158.426019 
L 831.567296 157.995014 
L 833.384177 157.788486 
L 835.201058 157.565126 
L 836.109499 157.333652 
L 839.743261 157.165277 
L 840.651702 156.852843 
L 841.560142 156.695836 
L 843.377024 157.004738 
L 844.285464 156.946711 
L 845.193905 156.64735 
L 847.010786 156.262417 
L 849.736108 157.087287 
L 853.36987 156.937895 
L 854.27831 157.3257 
L 855.186751 157.363674 
L 857.003632 157.129288 
L 857.912073 156.861345 
L 859.728954 156.645348 
L 860.637394 156.260054 
L 862.454276 155.875155 
L 863.362716 156.103927 
L 864.271157 156.05113 
L 865.179597 156.112309 
L 866.088038 155.732325 
L 866.996478 155.555575 
L 867.904919 155.130043 
L 869.7218 155.275213 
L 873.355562 154.360729 
L 875.172444 154.00053 
L 876.080884 154.238536 
L 876.989325 154.307744 
L 877.897765 154.12905 
L 878.806206 154.115587 
L 879.714646 154.241685 
L 882.439968 153.44263 
L 883.348409 153.357444 
L 884.256849 153.52732 
L 886.07373 153.345871 
L 886.982171 153.438651 
L 888.799052 152.990336 
L 889.707493 153.233859 
L 891.524374 152.717526 
L 892.432814 152.738095 
L 893.341255 152.619984 
L 894.249696 152.309931 
L 895.158136 151.858079 
L 896.066577 151.948723 
L 896.975017 151.736152 
L 897.883458 151.161159 
L 898.791898 151.293505 
L 899.700339 151.740025 
L 900.60878 151.502979 
L 901.51722 151.480107 
L 902.425661 150.939805 
L 903.334101 150.901082 
L 904.242542 150.243285 
L 905.150983 149.833271 
L 906.059423 149.778388 
L 906.967864 150.078765 
L 907.876304 149.355549 
L 909.693185 149.502221 
L 910.601626 149.429955 
L 911.510067 149.603902 
L 913.326948 149.448761 
L 914.235388 149.126556 
L 915.143829 149.343414 
L 916.96071 149.469943 
L 917.869151 148.971439 
L 918.777591 149.274469 
L 919.686032 149.255033 
L 920.594472 149.643312 
L 921.502913 149.703141 
L 922.411353 150.291612 
L 923.319794 150.429828 
L 926.045116 149.401317 
L 926.953556 149.408706 
L 927.861997 149.074948 
L 928.770437 149.228695 
L 929.678878 149.074704 
L 930.587319 148.635072 
L 932.4042 148.768043 
L 933.31264 148.41367 
L 935.129521 148.288966 
L 936.037962 148.12397 
L 937.854843 148.129876 
L 939.671724 147.315808 
L 940.580165 147.261156 
L 941.488605 147.089637 
L 944.213927 147.302944 
L 945.122368 146.997405 
L 946.030808 147.247839 
L 946.939249 146.995218 
L 947.847689 146.612647 
L 948.75613 147.143195 
L 950.573011 147.349728 
L 952.389892 147.366619 
L 953.298333 147.00461 
L 954.206773 146.956143 
L 955.115214 146.251906 
L 956.023655 145.733673 
L 956.932095 146.098026 
L 957.840536 146.194209 
L 958.748976 146.039551 
L 959.657417 145.710085 
L 960.565858 145.802744 
L 961.474298 145.764523 
L 962.382739 145.909485 
L 963.291179 145.690154 
L 964.19962 145.320979 
L 965.10806 145.176627 
L 966.016501 145.521725 
L 966.924942 145.185852 
L 967.833382 145.046848 
L 968.741823 144.781627 
L 969.650263 144.773757 
L 970.558704 144.878611 
L 971.467144 144.646361 
L 972.375585 144.769349 
L 973.284026 145.110493 
L 974.192466 145.229604 
L 975.100907 144.581366 
L 976.009347 144.195782 
L 977.826228 143.837919 
L 978.734669 143.75358 
L 980.55155 143.250987 
L 981.459991 143.2612 
L 982.368431 143.598756 
L 983.276872 143.284553 
L 984.185312 143.184862 
L 986.002194 142.562706 
L 987.819075 142.606944 
L 988.727515 142.008267 
L 989.635956 142.205712 
L 992.361278 141.647474 
L 994.178159 142.038369 
L 995.086599 142.128914 
L 1003.262564 141.198123 
L 1004.171005 141.222776 
L 1005.987886 140.738694 
L 1006.896327 141.256439 
L 1008.713208 140.762768 
L 1008.713208 140.762768 
" clip-path="url(#p6d5167c2e2)" style="fill: none; stroke: #5dc694; stroke-width: 1.5; stroke-linecap: square"/>
   </g>
   <g id="patch_3">
    <path d="M 74.4275 228.04 
L 74.4275 17.28 
" style="fill: none; stroke: #000000; stroke-width: 0.8; stroke-linejoin: miter; stroke-linecap: square"/>
   </g>
   <g id="patch_4">
    <path d="M 1062.72 228.04 
L 1062.72 17.28 
" style="fill: none; stroke: #000000; stroke-width: 0.8; stroke-linejoin: miter; stroke-linecap: square"/>
   </g>
   <g id="patch_5">
    <path d="M 74.4275 228.04 
L 1062.72 228.04 
" style="fill: none; stroke: #000000; stroke-width: 0.8; stroke-linejoin: miter; stroke-linecap: square"/>
   </g>
   <g id="patch_6">
    <path d="M 74.4275 17.28 
L 1062.72 17.28 
" style="fill: none; stroke: #000000; stroke-width: 0.8; stroke-linejoin: miter; stroke-linecap: square"/>
   </g>
   <g id="legend_1">
    <g id="patch_7">
     <path d="M 763.8 76.7375 
L 1051.52 76.7375 
Q 1054.72 76.7375 1054.72 73.5375 
L 1054.72 28.48 
Q 1054.72 25.28 1051.52 25.28 
L 763.8 25.28 
Q 760.6 25.28 760.6 28.48 
L 760.6 73.5375 
Q 760.6 76.7375 763.8 76.7375 
z
" style="fill: #ffffff; opacity: 0.8; stroke: #cccccc; stroke-linejoin: miter"/>
    </g>
    <g id="line2d_14">
     <path d="M 767 38.7825 
L 783 38.7825 
L 799 38.7825 
" style="fill: none; stroke: #5dc694; stroke-width: 1.5; stroke-linecap: square"/>
    </g>
    <g id="text_15">
     <!-- Mean Time [Rolling Average (20)] -->
     <g transform="translate(811.8 44.3825) scale(0.16 -0.16)">
      <defs>
       <path id="Bahnschrift-4d" d="M 2494 1544 
L 3828 4544 
L 4425 4544 
L 4425 0 
L 3803 0 
L 3803 3403 
L 3834 3203 
L 2716 631 
L 2272 631 
L 1153 3141 
L 1184 3403 
L 1184 0 
L 563 0 
L 563 4544 
L 1159 4544 
L 2494 1544 
z
" transform="scale(0.015625)"/>
       <path id="Bahnschrift-61" d="M 2331 0 
L 2331 2056 
Q 2331 2375 2161 2551 
Q 1991 2728 1678 2728 
Q 1488 2728 1302 2670 
Q 1116 2613 969 2503 
L 503 2822 
Q 688 3044 989 3167 
Q 1291 3291 1659 3291 
Q 2269 3291 2603 2975 
Q 2938 2659 2938 2084 
L 2938 0 
L 2331 0 
z
M 1538 -47 
Q 941 -47 642 200 
Q 344 447 344 956 
Q 344 1441 617 1680 
Q 891 1919 1438 1919 
L 2359 1919 
L 2403 1406 
L 1441 1406 
Q 1194 1406 1069 1295 
Q 944 1184 944 956 
Q 944 709 1109 590 
Q 1275 472 1606 472 
Q 1969 472 2150 550 
Q 2331 628 2331 794 
L 2397 338 
Q 2313 206 2188 122 
Q 2063 38 1902 -4 
Q 1741 -47 1538 -47 
z
" transform="scale(0.015625)"/>
       <path id="Bahnschrift-6e" d="M 500 0 
L 500 3244 
L 1138 3244 
L 1138 0 
L 500 0 
z
M 2469 0 
L 2469 1966 
Q 2469 2309 2292 2496 
Q 2116 2684 1791 2684 
Q 1478 2684 1308 2518 
Q 1138 2353 1138 2053 
L 1072 2678 
Q 1222 2972 1464 3131 
Q 1706 3291 2000 3291 
Q 2528 3291 2817 2945 
Q 3106 2600 3106 1969 
L 3106 0 
L 2469 0 
z
" transform="scale(0.015625)"/>
       <path id="Bahnschrift-52" d="M 841 1922 
L 841 2528 
L 2391 2528 
Q 2669 2528 2837 2722 
Q 3006 2916 3006 3234 
L 3006 3234 
Q 3006 3553 2837 3747 
Q 2669 3941 2391 3941 
L 841 3941 
L 841 4547 
L 2366 4547 
Q 2763 4547 3059 4383 
Q 3356 4219 3520 3925 
Q 3684 3631 3684 3234 
L 3684 3234 
Q 3684 2841 3518 2545 
Q 3353 2250 3058 2086 
Q 2763 1922 2366 1922 
L 841 1922 
z
M 563 0 
L 563 4547 
L 1200 4547 
L 1200 0 
L 563 0 
z
M 3119 0 
L 2078 2063 
L 2713 2206 
L 3875 0 
L 3119 0 
z
" transform="scale(0.015625)"/>
       <path id="Bahnschrift-6c" d="M 1138 4544 
L 1138 838 
Q 1138 722 1189 656 
Q 1241 591 1334 591 
L 1634 591 
L 1634 -16 
L 1259 -16 
Q 900 -16 700 209 
Q 500 434 500 844 
L 500 4544 
L 1138 4544 
z
" transform="scale(0.015625)"/>
       <path id="Bahnschrift-67" d="M 1588 -1319 
Q 1222 -1319 933 -1183 
Q 644 -1047 484 -800 
L 484 -800 
L 916 -409 
L 916 -409 
Q 1041 -581 1214 -675 
Q 1388 -769 1578 -769 
Q 1944 -769 2144 -567 
Q 2344 -366 2344 3 
L 2344 3244 
L 2981 3244 
L 2981 97 
Q 2981 -578 2617 -948 
Q 2253 -1319 1588 -1319 
z
M 1528 -56 
Q 991 -56 698 289 
Q 406 634 406 1263 
L 406 1978 
Q 406 2609 692 2954 
Q 978 3300 1497 3300 
Q 1784 3300 2023 3150 
Q 2263 3000 2409 2728 
L 2344 2066 
Q 2344 2272 2269 2419 
Q 2194 2566 2051 2642 
Q 1909 2719 1706 2719 
Q 1391 2719 1217 2522 
Q 1044 2325 1044 1969 
L 1044 1263 
Q 1044 909 1217 717 
Q 1391 525 1706 525 
Q 1909 525 2051 604 
Q 2194 684 2269 834 
Q 2344 984 2344 1194 
L 2388 509 
Q 2300 291 2086 117 
Q 1872 -56 1528 -56 
z
" transform="scale(0.015625)"/>
       <path id="Bahnschrift-41" d="M 125 0 
L 1800 4544 
L 2344 4544 
L 4019 0 
L 3331 0 
L 2072 3666 
L 813 0 
L 125 0 
z
M 897 997 
L 897 1603 
L 3288 1603 
L 3288 997 
L 897 997 
z
" transform="scale(0.015625)"/>
       <path id="Bahnschrift-76" d="M 1616 928 
L 2409 3244 
L 3075 3244 
L 1856 0 
L 1375 0 
L 156 3244 
L 822 3244 
L 1616 928 
z
" transform="scale(0.015625)"/>
       <path id="Bahnschrift-28" d="M 1672 -978 
Q 1116 -375 839 373 
Q 563 1122 563 2025 
Q 563 2928 839 3676 
Q 1116 4425 1672 5028 
L 2109 4631 
Q 1638 4106 1403 3456 
Q 1169 2806 1169 2025 
Q 1169 1244 1403 594 
Q 1638 -56 2109 -584 
L 1672 -978 
z
" transform="scale(0.015625)"/>
       <path id="Bahnschrift-29" d="M 500 -978 
L 63 -584 
Q 534 -56 768 594 
Q 1003 1244 1003 2025 
Q 1003 2806 768 3456 
Q 534 4106 63 4631 
L 500 5028 
Q 1056 4425 1332 3676 
Q 1609 2928 1609 2025 
Q 1609 1122 1332 373 
Q 1056 -375 500 -978 
z
" transform="scale(0.015625)"/>
      </defs>
      <use xlink:href="#Bahnschrift-4d"/>
      <use xlink:href="#Bahnschrift-65" x="77.929688"/>
      <use xlink:href="#Bahnschrift-61" x="131.542969"/>
      <use xlink:href="#Bahnschrift-6e" x="184.765625"/>
      <use xlink:href="#Bahnschrift-20" x="240.625"/>
      <use xlink:href="#Bahnschrift-54" x="267.480469"/>
      <use xlink:href="#Bahnschrift-69" x="315.625"/>
      <use xlink:href="#Bahnschrift-6d" x="340.722656"/>
      <use xlink:href="#Bahnschrift-65" x="426.367188"/>
      <use xlink:href="#Bahnschrift-20" x="479.980469"/>
      <use xlink:href="#Bahnschrift-5b" x="506.835938"/>
      <use xlink:href="#Bahnschrift-52" x="536.230469"/>
      <use xlink:href="#Bahnschrift-6f" x="601.416016"/>
      <use xlink:href="#Bahnschrift-6c" x="655.908203"/>
      <use xlink:href="#Bahnschrift-6c" x="684.863281"/>
      <use xlink:href="#Bahnschrift-69" x="713.818359"/>
      <use xlink:href="#Bahnschrift-6e" x="738.916016"/>
      <use xlink:href="#Bahnschrift-67" x="794.775391"/>
      <use xlink:href="#Bahnschrift-20" x="848.681641"/>
      <use xlink:href="#Bahnschrift-41" x="875.537109"/>
      <use xlink:href="#Bahnschrift-76" x="940.283203"/>
      <use xlink:href="#Bahnschrift-65" x="990.283203"/>
      <use xlink:href="#Bahnschrift-72" x="1043.896484"/>
      <use xlink:href="#Bahnschrift-61" x="1086.572266"/>
      <use xlink:href="#Bahnschrift-67" x="1139.794922"/>
      <use xlink:href="#Bahnschrift-65" x="1193.701172"/>
      <use xlink:href="#Bahnschrift-20" x="1247.314453"/>
      <use xlink:href="#Bahnschrift-28" x="1274.169922"/>
      <use xlink:href="#Bahnschrift-32" x="1308.105469"/>
      <use xlink:href="#Bahnschrift-30" x="1359.765625"/>
      <use xlink:href="#Bahnschrift-29" x="1414.941406"/>
      <use xlink:href="#Bahnschrift-5d" x="1448.876953"/>
     </g>
    </g>
    <g id="patch_8">
     <path d="M 767 67.04 
L 799 67.04 
L 799 55.84 
L 767 55.84 
z
" style="fill: #d2dbe0; stroke: #d2dbe0; stroke-linejoin: miter"/>
    </g>
    <g id="text_16">
     <!-- 90% Percentiles -->
     <g transform="translate(811.8 67.04) scale(0.16 -0.16)">
      <defs>
       <path id="Bahnschrift-39" d="M 934 0 
L 2078 2256 
L 2075 2144 
Q 1994 1997 1834 1931 
Q 1675 1866 1466 1866 
Q 975 1866 675 2230 
Q 375 2594 375 3197 
L 375 3200 
Q 375 3863 708 4227 
Q 1041 4591 1644 4591 
Q 2247 4591 2578 4223 
Q 2909 3856 2909 3184 
L 2909 3181 
Q 2909 2903 2828 2579 
Q 2747 2256 2591 1947 
L 1622 0 
L 934 0 
z
M 1644 2447 
Q 1944 2447 2108 2650 
Q 2272 2853 2272 3222 
L 2272 3225 
Q 2272 3584 2108 3781 
Q 1944 3978 1644 3978 
Q 1341 3978 1177 3781 
Q 1013 3584 1013 3222 
L 1013 3219 
Q 1013 2850 1177 2648 
Q 1341 2447 1644 2447 
z
" transform="scale(0.015625)"/>
       <path id="Bahnschrift-25" d="M 666 0 
L 3134 4544 
L 3694 4544 
L 1225 0 
L 666 0 
z
M 3328 -47 
Q 2966 -47 2769 164 
Q 2572 375 2572 753 
L 2572 1144 
Q 2572 1522 2769 1733 
Q 2966 1944 3328 1944 
Q 3691 1944 3887 1731 
Q 4084 1519 4084 1138 
L 4084 753 
Q 4084 375 3887 164 
Q 3691 -47 3328 -47 
z
M 3328 450 
Q 3563 450 3563 722 
L 3563 1181 
Q 3563 1444 3328 1444 
Q 3094 1444 3094 1178 
L 3094 722 
Q 3094 450 3328 450 
z
M 1069 2597 
Q 706 2597 509 2808 
Q 313 3019 313 3397 
L 313 3788 
Q 313 4166 509 4377 
Q 706 4588 1069 4588 
Q 1431 4588 1628 4375 
Q 1825 4163 1825 3781 
L 1825 3397 
Q 1825 3019 1628 2808 
Q 1431 2597 1069 2597 
z
M 1069 3094 
Q 1303 3094 1303 3366 
L 1303 3825 
Q 1303 4088 1069 4088 
Q 834 4088 834 3822 
L 834 3366 
Q 834 3094 1069 3094 
z
" transform="scale(0.015625)"/>
       <path id="Bahnschrift-50" d="M 891 1763 
L 891 2369 
L 2344 2369 
Q 2656 2369 2845 2584 
Q 3034 2800 3034 3150 
L 3034 3150 
Q 3034 3506 2845 3722 
Q 2656 3938 2344 3938 
L 891 3938 
L 891 4544 
L 2322 4544 
Q 2734 4544 3040 4370 
Q 3347 4197 3517 3884 
Q 3688 3572 3688 3150 
L 3688 3150 
Q 3688 2731 3517 2418 
Q 3347 2106 3040 1934 
Q 2734 1763 2322 1763 
L 891 1763 
z
M 563 0 
L 563 4544 
L 1200 4544 
L 1200 0 
L 563 0 
z
" transform="scale(0.015625)"/>
       <path id="Bahnschrift-63" d="M 1809 -47 
Q 1141 -47 773 322 
Q 406 691 406 1363 
L 406 1897 
Q 406 2563 773 2927 
Q 1141 3291 1809 3291 
Q 2191 3291 2497 3156 
Q 2803 3022 2984 2772 
L 2984 2772 
L 2525 2359 
L 2525 2359 
Q 2391 2516 2206 2600 
Q 2022 2684 1819 2684 
Q 1450 2684 1247 2478 
Q 1044 2272 1044 1897 
L 1044 1363 
Q 1044 978 1247 768 
Q 1450 559 1819 559 
Q 2022 559 2206 650 
Q 2391 741 2525 906 
L 2525 906 
L 2984 463 
L 2984 463 
Q 2803 219 2495 86 
Q 2188 -47 1809 -47 
z
" transform="scale(0.015625)"/>
      </defs>
      <use xlink:href="#Bahnschrift-39"/>
      <use xlink:href="#Bahnschrift-30" x="51.318359"/>
      <use xlink:href="#Bahnschrift-25" x="106.494141"/>
      <use xlink:href="#Bahnschrift-20" x="175.195312"/>
      <use xlink:href="#Bahnschrift-50" x="202.050781"/>
      <use xlink:href="#Bahnschrift-65" x="264.306641"/>
      <use xlink:href="#Bahnschrift-72" x="317.919922"/>
      <use xlink:href="#Bahnschrift-63" x="360.595703"/>
      <use xlink:href="#Bahnschrift-65" x="410.400391"/>
      <use xlink:href="#Bahnschrift-6e" x="464.013672"/>
      <use xlink:href="#Bahnschrift-74" x="519.873047"/>
      <use xlink:href="#Bahnschrift-69" x="552.490234"/>
      <use xlink:href="#Bahnschrift-6c" x="577.587891"/>
      <use xlink:href="#Bahnschrift-65" x="606.542969"/>
      <use xlink:href="#Bahnschrift-73" x="660.15625"/>
     </g>
    </g>
   </g>
  </g>
 </g>
 <defs>
  <clipPath id="p6d5167c2e2">
   <rect x="74.4275" y="17.28" width="988.2925" height="210.76"/>
  </clipPath>
 </defs>
</svg>
