<?xml version="1.0" encoding="utf-8" standalone="no"?>
<!DOCTYPE svg PUBLIC "-//W3C//DTD SVG 1.1//EN"
  "http://www.w3.org/Graphics/SVG/1.1/DTD/svg11.dtd">
<svg xmlns:xlink="http://www.w3.org/1999/xlink" width="1080pt" height="288pt" viewBox="0 0 1080 288" xmlns="http://www.w3.org/2000/svg" version="1.1">
 <metadata>
  <rdf:RDF xmlns:dc="http://purl.org/dc/elements/1.1/" xmlns:cc="http://creativecommons.org/ns#" xmlns:rdf="http://www.w3.org/1999/02/22-rdf-syntax-ns#">
   <cc:Work>
    <dc:type rdf:resource="http://purl.org/dc/dcmitype/StillImage"/>
    <dc:date>2024-05-29T19:40:59.882623</dc:date>
    <dc:format>image/svg+xml</dc:format>
    <dc:creator>
     <cc:Agent>
      <dc:title>Matplotlib v3.8.2, https://matplotlib.org/</dc:title>
     </cc:Agent>
    </dc:creator>
   </cc:Work>
  </rdf:RDF>
 </metadata>
 <defs>
  <style type="text/css">*{stroke-linejoin: round; stroke-linecap: butt}</style>
 </defs>
 <g id="figure_1">
  <g id="patch_1">
   <path d="M 0 288 
L 1080 288 
L 1080 0 
L 0 0 
z
" style="fill: #ffffff"/>
  </g>
  <g id="axes_1">
   <g id="patch_2">
    <path d="M 99.47 228.04 
L 1062.72 228.04 
L 1062.72 19.624313 
L 99.47 19.624313 
z
" style="fill: #ffffff"/>
   </g>
   <g id="matplotlib.axis_1">
    <g id="xtick_1">
     <g id="line2d_1">
      <defs>
       <path id="m120bd1bc15" d="M 0 0 
L 0 3.5 
" style="stroke: #000000; stroke-width: 0.8"/>
      </defs>
      <g>
       <use xlink:href="#m120bd1bc15" x="125.180163" y="228.04" style="stroke: #000000; stroke-width: 0.8"/>
      </g>
     </g>
     <g id="text_1">
      <!-- 0 -->
      <g transform="translate(120.766413 246.4) scale(0.16 -0.16)">
       <defs>
        <path id="Bahnschrift-30" d="M 1766 -47 
Q 1116 -47 792 301 
Q 469 650 469 1244 
L 469 3309 
Q 469 3913 797 4256 
Q 1125 4600 1766 4600 
Q 2409 4600 2736 4258 
Q 3063 3916 3063 3309 
L 3063 1244 
Q 3063 641 2736 297 
Q 2409 -47 1766 -47 
z
M 1766 559 
Q 2116 559 2270 742 
Q 2425 925 2425 1244 
L 2425 3309 
Q 2425 3631 2270 3812 
Q 2116 3994 1766 3994 
Q 1416 3994 1261 3812 
Q 1106 3631 1106 3309 
L 1106 1244 
Q 1106 925 1261 742 
Q 1416 559 1766 559 
z
" transform="scale(0.015625)"/>
       </defs>
       <use xlink:href="#Bahnschrift-30"/>
      </g>
     </g>
    </g>
    <g id="xtick_2">
     <g id="line2d_2">
      <g>
       <use xlink:href="#m120bd1bc15" x="305.919444" y="228.04" style="stroke: #000000; stroke-width: 0.8"/>
      </g>
     </g>
     <g id="text_2">
      <!-- 20000 -->
      <g transform="translate(284.131944 246.4) scale(0.16 -0.16)">
       <defs>
        <path id="Bahnschrift-32" d="M 400 0 
L 400 553 
L 1984 2666 
Q 2122 2847 2198 3040 
Q 2275 3234 2275 3406 
L 2275 3413 
Q 2275 3684 2115 3834 
Q 1956 3984 1663 3984 
Q 1388 3984 1214 3820 
Q 1041 3656 1003 3356 
L 1003 3353 
L 344 3353 
L 344 3356 
Q 428 3944 772 4267 
Q 1116 4591 1656 4591 
Q 2269 4591 2603 4281 
Q 2938 3972 2938 3406 
L 2938 3403 
Q 2938 3163 2838 2898 
Q 2738 2634 2559 2394 
L 1244 606 
L 2963 606 
L 2963 0 
L 400 0 
z
" transform="scale(0.015625)"/>
       </defs>
       <use xlink:href="#Bahnschrift-32"/>
       <use xlink:href="#Bahnschrift-30" x="51.660156"/>
       <use xlink:href="#Bahnschrift-30" x="106.835938"/>
       <use xlink:href="#Bahnschrift-30" x="162.011719"/>
       <use xlink:href="#Bahnschrift-30" x="217.1875"/>
      </g>
     </g>
    </g>
    <g id="xtick_3">
     <g id="line2d_3">
      <g>
       <use xlink:href="#m120bd1bc15" x="486.658725" y="228.04" style="stroke: #000000; stroke-width: 0.8"/>
      </g>
     </g>
     <g id="text_3">
      <!-- 40000 -->
      <g transform="translate(464.452475 246.4) scale(0.16 -0.16)">
       <defs>
        <path id="Bahnschrift-34" d="M 406 697 
L 406 1250 
L 1931 4541 
L 2588 4541 
L 1100 1288 
L 3328 1288 
L 3328 697 
L 406 697 
z
M 2366 -3 
L 2366 2672 
L 2988 2672 
L 2988 -3 
L 2366 -3 
z
" transform="scale(0.015625)"/>
       </defs>
       <use xlink:href="#Bahnschrift-34"/>
       <use xlink:href="#Bahnschrift-30" x="56.884766"/>
       <use xlink:href="#Bahnschrift-30" x="112.060547"/>
       <use xlink:href="#Bahnschrift-30" x="167.236328"/>
       <use xlink:href="#Bahnschrift-30" x="222.412109"/>
      </g>
     </g>
    </g>
    <g id="xtick_4">
     <g id="line2d_4">
      <g>
       <use xlink:href="#m120bd1bc15" x="667.398007" y="228.04" style="stroke: #000000; stroke-width: 0.8"/>
      </g>
     </g>
     <g id="text_4">
      <!-- 60000 -->
      <g transform="translate(645.638007 246.4) scale(0.16 -0.16)">
       <defs>
        <path id="Bahnschrift-36" d="M 1641 -47 
Q 1038 -47 706 312 
Q 375 672 375 1325 
L 375 1328 
Q 375 1622 456 1951 
Q 538 2281 691 2588 
L 1678 4544 
L 2366 4544 
L 1206 2278 
L 1209 2391 
Q 1372 2700 1788 2700 
Q 2322 2700 2615 2345 
Q 2909 1991 2909 1344 
L 2909 1341 
Q 2909 681 2578 317 
Q 2247 -47 1641 -47 
z
M 1641 566 
Q 1947 566 2109 753 
Q 2272 941 2272 1288 
L 2272 1291 
Q 2272 1672 2100 1880 
Q 1928 2088 1609 2088 
Q 1325 2088 1169 1878 
Q 1013 1669 1013 1288 
L 1013 1284 
Q 1013 938 1177 752 
Q 1341 566 1641 566 
z
" transform="scale(0.015625)"/>
       </defs>
       <use xlink:href="#Bahnschrift-36"/>
       <use xlink:href="#Bahnschrift-30" x="51.318359"/>
       <use xlink:href="#Bahnschrift-30" x="106.494141"/>
       <use xlink:href="#Bahnschrift-30" x="161.669922"/>
       <use xlink:href="#Bahnschrift-30" x="216.845703"/>
      </g>
     </g>
    </g>
    <g id="xtick_5">
     <g id="line2d_5">
      <g>
       <use xlink:href="#m120bd1bc15" x="848.137288" y="228.04" style="stroke: #000000; stroke-width: 0.8"/>
      </g>
     </g>
     <g id="text_5">
      <!-- 80000 -->
      <g transform="translate(825.982288 246.4) scale(0.16 -0.16)">
       <defs>
        <path id="Bahnschrift-38" d="M 1800 -47 
Q 1384 -47 1075 109 
Q 766 266 594 550 
Q 422 834 422 1216 
L 422 1291 
Q 422 1631 592 1931 
Q 763 2231 1047 2384 
Q 809 2516 662 2764 
Q 516 3013 516 3288 
L 516 3397 
Q 516 3938 867 4264 
Q 1219 4591 1800 4591 
Q 2381 4591 2732 4264 
Q 3084 3938 3084 3397 
L 3084 3288 
Q 3084 3006 2936 2759 
Q 2788 2513 2544 2384 
Q 2831 2231 3004 1931 
Q 3178 1631 3178 1291 
L 3178 1216 
Q 3178 834 3006 550 
Q 2834 266 2525 109 
Q 2216 -47 1800 -47 
z
M 1800 566 
Q 2134 566 2339 758 
Q 2544 950 2544 1263 
L 2544 1306 
Q 2544 1622 2339 1814 
Q 2134 2006 1800 2006 
Q 1466 2006 1261 1814 
Q 1056 1622 1056 1303 
L 1056 1256 
Q 1056 944 1261 755 
Q 1466 566 1800 566 
z
M 1800 2619 
Q 2091 2619 2269 2803 
Q 2447 2988 2447 3291 
L 2447 3334 
Q 2447 3625 2269 3801 
Q 2091 3978 1800 3978 
Q 1509 3978 1331 3801 
Q 1153 3625 1153 3331 
L 1153 3284 
Q 1153 2984 1331 2801 
Q 1509 2619 1800 2619 
z
" transform="scale(0.015625)"/>
       </defs>
       <use xlink:href="#Bahnschrift-38"/>
       <use xlink:href="#Bahnschrift-30" x="56.25"/>
       <use xlink:href="#Bahnschrift-30" x="111.425781"/>
       <use xlink:href="#Bahnschrift-30" x="166.601562"/>
       <use xlink:href="#Bahnschrift-30" x="221.777344"/>
      </g>
     </g>
    </g>
    <g id="xtick_6">
     <g id="line2d_6">
      <g>
       <use xlink:href="#m120bd1bc15" x="1028.87657" y="228.04" style="stroke: #000000; stroke-width: 0.8"/>
      </g>
     </g>
     <g id="text_6">
      <!-- 100000 -->
      <g transform="translate(1004.14782 246.4) scale(0.16 -0.16)">
       <defs>
        <path id="Bahnschrift-31" d="M 1566 4544 
L 1566 0 
L 928 0 
L 928 3850 
L 281 3453 
L 281 4113 
L 928 4544 
L 1566 4544 
z
" transform="scale(0.015625)"/>
       </defs>
       <use xlink:href="#Bahnschrift-31"/>
       <use xlink:href="#Bahnschrift-30" x="33.251953"/>
       <use xlink:href="#Bahnschrift-30" x="88.427734"/>
       <use xlink:href="#Bahnschrift-30" x="143.603516"/>
       <use xlink:href="#Bahnschrift-30" x="198.779297"/>
       <use xlink:href="#Bahnschrift-30" x="253.955078"/>
      </g>
     </g>
    </g>
    <g id="text_7">
     <!-- Number of Sites -->
     <g transform="translate(522.96625 265.0575) scale(0.16 -0.16)">
      <defs>
       <path id="Bahnschrift-4e" d="M 563 3 
L 563 4544 
L 1141 4544 
L 3363 1031 
L 3288 950 
L 3288 4544 
L 3919 4544 
L 3919 3 
L 3334 3 
L 1119 3463 
L 1194 3544 
L 1194 3 
L 563 3 
z
" transform="scale(0.015625)"/>
       <path id="Bahnschrift-75" d="M 2456 0 
L 2456 3244 
L 3091 3244 
L 3091 0 
L 2456 0 
z
M 1138 3244 
L 1138 1272 
Q 1138 931 1311 745 
Q 1484 559 1800 559 
Q 2116 559 2286 726 
Q 2456 894 2456 1197 
L 2500 519 
Q 2413 300 2194 126 
Q 1975 -47 1622 -47 
Q 1084 -47 792 298 
Q 500 644 500 1272 
L 500 3244 
L 1138 3244 
z
" transform="scale(0.015625)"/>
       <path id="Bahnschrift-6d" d="M 4375 0 
L 4375 1966 
Q 4375 2309 4198 2496 
Q 4022 2684 3697 2684 
Q 3400 2684 3237 2503 
Q 3075 2322 3075 1991 
L 2947 2616 
Q 3103 2941 3353 3116 
Q 3603 3291 3906 3291 
Q 4434 3291 4723 2945 
Q 5013 2600 5013 1969 
L 5013 0 
L 4375 0 
z
M 500 0 
L 500 3244 
L 1138 3244 
L 1138 0 
L 500 0 
z
M 2438 0 
L 2438 1966 
Q 2438 2309 2269 2496 
Q 2100 2684 1791 2684 
Q 1478 2684 1308 2518 
Q 1138 2353 1138 2053 
L 1072 2678 
Q 1222 2972 1464 3131 
Q 1706 3291 2000 3291 
Q 2513 3291 2794 2945 
Q 3075 2600 3075 1969 
L 3075 0 
L 2438 0 
z
" transform="scale(0.015625)"/>
       <path id="Bahnschrift-62" d="M 1953 -47 
Q 1650 -47 1425 98 
Q 1200 244 1094 509 
L 1138 1188 
Q 1138 978 1213 831 
Q 1288 684 1430 606 
Q 1572 528 1775 528 
Q 2091 528 2264 720 
Q 2438 913 2438 1263 
L 2438 1966 
Q 2438 2322 2264 2519 
Q 2091 2716 1775 2716 
Q 1572 2716 1430 2641 
Q 1288 2566 1213 2422 
Q 1138 2278 1138 2072 
L 1072 2697 
Q 1219 2981 1456 3136 
Q 1694 3291 1984 3291 
Q 2506 3291 2790 2945 
Q 3075 2600 3075 1969 
L 3075 1263 
Q 3075 641 2781 297 
Q 2488 -47 1953 -47 
z
M 500 0 
L 500 4544 
L 1138 4544 
L 1138 0 
L 500 0 
z
" transform="scale(0.015625)"/>
       <path id="Bahnschrift-65" d="M 1828 -47 
Q 1150 -47 778 331 
Q 406 709 406 1406 
L 406 1772 
Q 406 2497 764 2894 
Q 1122 3291 1772 3291 
Q 2384 3291 2720 2841 
Q 3056 2391 3056 1578 
L 3056 1366 
L 869 1366 
L 869 1878 
L 2450 1878 
L 2450 1878 
Q 2422 2272 2245 2494 
Q 2069 2716 1772 2716 
Q 1413 2716 1213 2478 
Q 1013 2241 1013 1806 
L 1013 1394 
Q 1013 991 1227 775 
Q 1441 559 1828 559 
Q 2022 559 2212 637 
Q 2403 716 2553 856 
L 2553 856 
L 2972 438 
L 2972 438 
Q 2731 206 2431 79 
Q 2131 -47 1828 -47 
z
" transform="scale(0.015625)"/>
       <path id="Bahnschrift-72" d="M 500 0 
L 500 3244 
L 1138 3244 
L 1138 0 
L 500 0 
z
M 2284 2475 
Q 2200 2578 2072 2631 
Q 1944 2684 1775 2684 
Q 1472 2684 1305 2517 
Q 1138 2350 1138 2053 
L 1072 2678 
Q 1219 2966 1458 3128 
Q 1697 3291 1984 3291 
Q 2206 3291 2386 3227 
Q 2566 3163 2700 3038 
L 2284 2475 
z
" transform="scale(0.015625)"/>
       <path id="Bahnschrift-20" transform="scale(0.015625)"/>
       <path id="Bahnschrift-6f" d="M 1744 -47 
Q 1106 -47 756 323 
Q 406 694 406 1366 
L 406 1894 
Q 406 2559 756 2925 
Q 1106 3291 1744 3291 
Q 2381 3291 2731 2925 
Q 3081 2559 3081 1894 
L 3081 1356 
Q 3081 688 2731 320 
Q 2381 -47 1744 -47 
z
M 1744 559 
Q 2078 559 2261 768 
Q 2444 978 2444 1356 
L 2444 1894 
Q 2444 2272 2261 2478 
Q 2078 2684 1744 2684 
Q 1413 2684 1228 2478 
Q 1044 2272 1044 1894 
L 1044 1356 
Q 1044 978 1228 768 
Q 1413 559 1744 559 
z
" transform="scale(0.015625)"/>
       <path id="Bahnschrift-66" d="M 594 0 
L 594 3684 
Q 594 4113 791 4328 
Q 988 4544 1403 4544 
L 1872 4544 
L 1872 3938 
L 1416 3938 
Q 1319 3938 1275 3864 
Q 1231 3791 1231 3691 
L 1231 0 
L 594 0 
z
M 250 2700 
L 250 3244 
L 1872 3244 
L 1872 2700 
L 250 2700 
z
" transform="scale(0.015625)"/>
       <path id="Bahnschrift-53" d="M 1928 -47 
Q 1597 -47 1305 15 
Q 1013 78 758 203 
Q 503 328 281 516 
L 281 516 
L 678 1003 
L 678 1003 
Q 938 778 1250 665 
Q 1563 553 1928 553 
Q 2422 553 2694 737 
Q 2966 922 2966 1253 
L 2966 1256 
Q 2966 1516 2828 1653 
Q 2691 1791 2467 1858 
Q 2244 1925 1978 1969 
Q 1722 2013 1461 2072 
Q 1200 2131 981 2257 
Q 763 2384 630 2621 
Q 497 2859 497 3256 
L 497 3259 
Q 497 3894 919 4242 
Q 1341 4591 2109 4591 
Q 2475 4591 2825 4473 
Q 3175 4356 3506 4116 
L 3506 4116 
L 3144 3609 
L 3144 3609 
Q 2884 3803 2626 3897 
Q 2369 3991 2109 3991 
Q 1644 3991 1386 3805 
Q 1128 3619 1128 3278 
L 1128 3275 
Q 1128 3019 1278 2884 
Q 1428 2750 1670 2686 
Q 1913 2622 2191 2566 
Q 2441 2516 2691 2445 
Q 2941 2375 3145 2242 
Q 3350 2109 3473 1878 
Q 3597 1647 3597 1275 
L 3597 1269 
Q 3597 641 3159 297 
Q 2722 -47 1928 -47 
z
" transform="scale(0.015625)"/>
       <path id="Bahnschrift-69" d="M 500 3906 
L 500 4544 
L 1138 4544 
L 1138 3906 
L 500 3906 
z
M 500 0 
L 500 3244 
L 1138 3244 
L 1138 0 
L 500 0 
z
" transform="scale(0.015625)"/>
       <path id="Bahnschrift-74" d="M 1344 -16 
Q 944 -16 764 206 
Q 584 428 584 844 
L 584 4188 
L 1222 4188 
L 1222 838 
Q 1222 722 1269 656 
Q 1316 591 1406 591 
L 1713 591 
L 1713 -16 
L 1344 -16 
z
M 250 2669 
L 250 3244 
L 1713 3244 
L 1713 2669 
L 250 2669 
z
" transform="scale(0.015625)"/>
       <path id="Bahnschrift-73" d="M 1647 -47 
Q 1216 -47 864 79 
Q 513 206 234 459 
L 234 459 
L 613 925 
L 613 925 
Q 878 725 1136 625 
Q 1394 525 1647 525 
Q 2025 525 2214 642 
Q 2403 759 2403 994 
Q 2403 1175 2276 1250 
Q 2150 1325 1945 1348 
Q 1741 1372 1506 1388 
Q 1309 1403 1115 1436 
Q 922 1469 762 1555 
Q 603 1641 508 1809 
Q 413 1978 413 2263 
Q 413 2778 728 3034 
Q 1044 3291 1669 3291 
Q 2050 3291 2378 3187 
Q 2706 3084 2994 2872 
L 2994 2872 
L 2609 2406 
L 2609 2406 
Q 2366 2563 2130 2641 
Q 1894 2719 1669 2719 
Q 1344 2719 1181 2608 
Q 1019 2497 1019 2275 
Q 1019 2128 1131 2064 
Q 1244 2000 1428 1981 
Q 1613 1963 1825 1947 
Q 2028 1934 2236 1901 
Q 2444 1869 2619 1775 
Q 2794 1681 2900 1497 
Q 3006 1313 3006 994 
Q 3006 472 2667 212 
Q 2328 -47 1647 -47 
z
" transform="scale(0.015625)"/>
      </defs>
      <use xlink:href="#Bahnschrift-4e"/>
      <use xlink:href="#Bahnschrift-75" x="70.019531"/>
      <use xlink:href="#Bahnschrift-6d" x="125.634766"/>
      <use xlink:href="#Bahnschrift-62" x="211.279297"/>
      <use xlink:href="#Bahnschrift-65" x="265.673828"/>
      <use xlink:href="#Bahnschrift-72" x="319.287109"/>
      <use xlink:href="#Bahnschrift-20" x="361.962891"/>
      <use xlink:href="#Bahnschrift-6f" x="388.818359"/>
      <use xlink:href="#Bahnschrift-66" x="443.310547"/>
      <use xlink:href="#Bahnschrift-20" x="475"/>
      <use xlink:href="#Bahnschrift-53" x="501.855469"/>
      <use xlink:href="#Bahnschrift-69" x="563.427734"/>
      <use xlink:href="#Bahnschrift-74" x="588.525391"/>
      <use xlink:href="#Bahnschrift-65" x="621.142578"/>
      <use xlink:href="#Bahnschrift-73" x="674.755859"/>
     </g>
    </g>
   </g>
   <g id="matplotlib.axis_2">
    <g id="ytick_1">
     <g id="line2d_7">
      <defs>
       <path id="mdfe59f2936" d="M 0 0 
L -3.5 0 
" style="stroke: #000000; stroke-width: 0.8"/>
      </defs>
      <g>
       <use xlink:href="#mdfe59f2936" x="99.47" y="188.759295" style="stroke: #000000; stroke-width: 0.8"/>
      </g>
     </g>
     <g id="text_8">
      <!-- -0.0005 -->
      <g transform="translate(37.1525 194.439295) scale(0.16 -0.16)">
       <defs>
        <path id="Bahnschrift-2d" d="M 500 1931 
L 2600 1931 
L 2600 1325 
L 500 1325 
L 500 1931 
z
" transform="scale(0.015625)"/>
        <path id="Bahnschrift-2e" d="M 391 0 
L 391 669 
L 1059 669 
L 1059 0 
L 391 0 
z
" transform="scale(0.015625)"/>
        <path id="Bahnschrift-35" d="M 1738 -47 
Q 1219 -47 886 251 
Q 553 550 469 1094 
L 469 1097 
L 1106 1097 
L 1106 1094 
Q 1141 844 1306 705 
Q 1472 566 1738 566 
Q 2044 566 2211 770 
Q 2378 975 2378 1347 
L 2378 1728 
Q 2378 2100 2211 2303 
Q 2044 2506 1738 2506 
Q 1572 2506 1419 2412 
Q 1266 2319 1150 2150 
L 569 2150 
L 569 4544 
L 2884 4544 
L 2884 3938 
L 1206 3938 
L 1206 2916 
Q 1325 3013 1472 3066 
Q 1619 3119 1772 3119 
Q 2366 3119 2691 2755 
Q 3016 2391 3016 1728 
L 3016 1347 
Q 3016 681 2681 317 
Q 2347 -47 1738 -47 
z
" transform="scale(0.015625)"/>
       </defs>
       <use xlink:href="#Bahnschrift-2d"/>
       <use xlink:href="#Bahnschrift-30" x="47.949219"/>
       <use xlink:href="#Bahnschrift-2e" x="103.125"/>
       <use xlink:href="#Bahnschrift-30" x="125.78125"/>
       <use xlink:href="#Bahnschrift-30" x="180.957031"/>
       <use xlink:href="#Bahnschrift-30" x="236.132812"/>
       <use xlink:href="#Bahnschrift-35" x="291.308594"/>
      </g>
     </g>
    </g>
    <g id="ytick_2">
     <g id="line2d_8">
      <g>
       <use xlink:href="#mdfe59f2936" x="99.47" y="133.563797" style="stroke: #000000; stroke-width: 0.8"/>
      </g>
     </g>
     <g id="text_9">
      <!-- 0.0000 -->
      <g transform="translate(44.7075 139.243797) scale(0.16 -0.16)">
       <use xlink:href="#Bahnschrift-30"/>
       <use xlink:href="#Bahnschrift-2e" x="55.175781"/>
       <use xlink:href="#Bahnschrift-30" x="77.832031"/>
       <use xlink:href="#Bahnschrift-30" x="133.007812"/>
       <use xlink:href="#Bahnschrift-30" x="188.183594"/>
       <use xlink:href="#Bahnschrift-30" x="243.359375"/>
      </g>
     </g>
    </g>
    <g id="ytick_3">
     <g id="line2d_9">
      <g>
       <use xlink:href="#mdfe59f2936" x="99.47" y="78.368298" style="stroke: #000000; stroke-width: 0.8"/>
      </g>
     </g>
     <g id="text_10">
      <!-- 0.0005 -->
      <g transform="translate(44.825 84.048298) scale(0.16 -0.16)">
       <use xlink:href="#Bahnschrift-30"/>
       <use xlink:href="#Bahnschrift-2e" x="55.175781"/>
       <use xlink:href="#Bahnschrift-30" x="77.832031"/>
       <use xlink:href="#Bahnschrift-30" x="133.007812"/>
       <use xlink:href="#Bahnschrift-30" x="188.183594"/>
       <use xlink:href="#Bahnschrift-35" x="243.359375"/>
      </g>
     </g>
    </g>
    <g id="ytick_4">
     <g id="line2d_10">
      <g>
       <use xlink:href="#mdfe59f2936" x="99.47" y="23.1728" style="stroke: #000000; stroke-width: 0.8"/>
      </g>
     </g>
     <g id="text_11">
      <!-- 0.0010 -->
      <g transform="translate(48.215 28.8528) scale(0.16 -0.16)">
       <use xlink:href="#Bahnschrift-30"/>
       <use xlink:href="#Bahnschrift-2e" x="55.175781"/>
       <use xlink:href="#Bahnschrift-30" x="77.832031"/>
       <use xlink:href="#Bahnschrift-30" x="133.007812"/>
       <use xlink:href="#Bahnschrift-31" x="188.183594"/>
       <use xlink:href="#Bahnschrift-30" x="221.435547"/>
      </g>
     </g>
    </g>
    <g id="text_12">
     <!-- 1st. Difference,  mean: 0.00010 -->
     <g transform="translate(29.855 230.752156) rotate(-90) scale(0.16 -0.16)">
      <defs>
       <path id="Bahnschrift-44" d="M 994 0 
L 994 606 
L 2022 606 
Q 2525 606 2801 867 
Q 3078 1128 3078 1603 
L 3078 2941 
Q 3078 3416 2801 3677 
Q 2525 3938 2022 3938 
L 994 3938 
L 994 4544 
L 2003 4544 
Q 2828 4544 3279 4117 
Q 3731 3691 3731 2916 
L 3731 1628 
Q 3731 1113 3528 748 
Q 3325 384 2937 192 
Q 2550 0 2000 0 
L 994 0 
z
M 563 0 
L 563 4544 
L 1200 4544 
L 1200 0 
L 563 0 
z
" transform="scale(0.015625)"/>
       <path id="Bahnschrift-6e" d="M 500 0 
L 500 3244 
L 1138 3244 
L 1138 0 
L 500 0 
z
M 2469 0 
L 2469 1966 
Q 2469 2309 2292 2496 
Q 2116 2684 1791 2684 
Q 1478 2684 1308 2518 
Q 1138 2353 1138 2053 
L 1072 2678 
Q 1222 2972 1464 3131 
Q 1706 3291 2000 3291 
Q 2528 3291 2817 2945 
Q 3106 2600 3106 1969 
L 3106 0 
L 2469 0 
z
" transform="scale(0.015625)"/>
       <path id="Bahnschrift-63" d="M 1809 -47 
Q 1141 -47 773 322 
Q 406 691 406 1363 
L 406 1897 
Q 406 2563 773 2927 
Q 1141 3291 1809 3291 
Q 2191 3291 2497 3156 
Q 2803 3022 2984 2772 
L 2984 2772 
L 2525 2359 
L 2525 2359 
Q 2391 2516 2206 2600 
Q 2022 2684 1819 2684 
Q 1450 2684 1247 2478 
Q 1044 2272 1044 1897 
L 1044 1363 
Q 1044 978 1247 768 
Q 1450 559 1819 559 
Q 2022 559 2206 650 
Q 2391 741 2525 906 
L 2525 906 
L 2984 463 
L 2984 463 
Q 2803 219 2495 86 
Q 2188 -47 1809 -47 
z
" transform="scale(0.015625)"/>
       <path id="Bahnschrift-2c" d="M 391 -1038 
L 391 669 
L 1059 669 
L 1059 -344 
L 391 -1038 
z
" transform="scale(0.015625)"/>
       <path id="Bahnschrift-61" d="M 2331 0 
L 2331 2056 
Q 2331 2375 2161 2551 
Q 1991 2728 1678 2728 
Q 1488 2728 1302 2670 
Q 1116 2613 969 2503 
L 503 2822 
Q 688 3044 989 3167 
Q 1291 3291 1659 3291 
Q 2269 3291 2603 2975 
Q 2938 2659 2938 2084 
L 2938 0 
L 2331 0 
z
M 1538 -47 
Q 941 -47 642 200 
Q 344 447 344 956 
Q 344 1441 617 1680 
Q 891 1919 1438 1919 
L 2359 1919 
L 2403 1406 
L 1441 1406 
Q 1194 1406 1069 1295 
Q 944 1184 944 956 
Q 944 709 1109 590 
Q 1275 472 1606 472 
Q 1969 472 2150 550 
Q 2331 628 2331 794 
L 2397 338 
Q 2313 206 2188 122 
Q 2063 38 1902 -4 
Q 1741 -47 1538 -47 
z
" transform="scale(0.015625)"/>
       <path id="Bahnschrift-3a" d="M 391 0 
L 391 669 
L 1059 669 
L 1059 0 
L 391 0 
z
M 391 2606 
L 391 3275 
L 1059 3275 
L 1059 2606 
L 391 2606 
z
" transform="scale(0.015625)"/>
      </defs>
      <use xlink:href="#Bahnschrift-31"/>
      <use xlink:href="#Bahnschrift-73" x="33.251953"/>
      <use xlink:href="#Bahnschrift-74" x="85.107422"/>
      <use xlink:href="#Bahnschrift-2e" x="117.724609"/>
      <use xlink:href="#Bahnschrift-20" x="140.380859"/>
      <use xlink:href="#Bahnschrift-44" x="167.236328"/>
      <use xlink:href="#Bahnschrift-69" x="232.861328"/>
      <use xlink:href="#Bahnschrift-66" x="257.958984"/>
      <use xlink:href="#Bahnschrift-66" x="289.648438"/>
      <use xlink:href="#Bahnschrift-65" x="321.337891"/>
      <use xlink:href="#Bahnschrift-72" x="374.951172"/>
      <use xlink:href="#Bahnschrift-65" x="417.626953"/>
      <use xlink:href="#Bahnschrift-6e" x="471.240234"/>
      <use xlink:href="#Bahnschrift-63" x="527.099609"/>
      <use xlink:href="#Bahnschrift-65" x="576.904297"/>
      <use xlink:href="#Bahnschrift-2c" x="630.517578"/>
      <use xlink:href="#Bahnschrift-20" x="653.173828"/>
      <use xlink:href="#Bahnschrift-20" x="680.029297"/>
      <use xlink:href="#Bahnschrift-6d" x="706.884766"/>
      <use xlink:href="#Bahnschrift-65" x="792.529297"/>
      <use xlink:href="#Bahnschrift-61" x="846.142578"/>
      <use xlink:href="#Bahnschrift-6e" x="899.365234"/>
      <use xlink:href="#Bahnschrift-3a" x="955.224609"/>
      <use xlink:href="#Bahnschrift-20" x="977.880859"/>
      <use xlink:href="#Bahnschrift-30" x="1004.736328"/>
      <use xlink:href="#Bahnschrift-2e" x="1059.912109"/>
      <use xlink:href="#Bahnschrift-30" x="1082.568359"/>
      <use xlink:href="#Bahnschrift-30" x="1137.744141"/>
      <use xlink:href="#Bahnschrift-30" x="1192.919922"/>
      <use xlink:href="#Bahnschrift-31" x="1248.095703"/>
      <use xlink:href="#Bahnschrift-30" x="1281.347656"/>
     </g>
    </g>
   </g>
   <g id="line2d_11">
    <path d="M 143.254091 130.65736 
L 144.157787 127.075611 
L 145.061484 130.698116 
L 145.96518 129.931001 
L 147.772573 129.803919 
L 148.676269 128.677849 
L 149.579966 126.507668 
L 150.483662 129.848648 
L 151.387359 128.492337 
L 152.291055 123.842395 
L 153.194751 130.798471 
L 154.098448 131.006038 
L 155.002144 124.410772 
L 155.905841 131.570139 
L 156.809537 123.31972 
L 157.713233 131.000919 
L 158.61693 131.110749 
L 159.520626 130.167559 
L 160.424323 126.486717 
L 161.328019 120.287688 
L 162.231715 129.899352 
L 163.135412 120.968686 
L 164.039108 131.940411 
L 164.942805 124.13596 
L 165.846501 126.986231 
L 166.750197 126.937987 
L 167.653894 126.432552 
L 168.55759 129.951109 
L 169.461287 127.586415 
L 170.364983 132.388207 
L 171.26868 126.485322 
L 172.172376 121.815166 
L 173.076072 130.162966 
L 173.979769 126.190297 
L 174.883465 126.162754 
L 175.787162 127.327434 
L 176.690858 121.413824 
L 177.594554 132.899156 
L 178.498251 131.813842 
L 179.401947 135.077431 
L 180.305644 127.005523 
L 181.20934 128.849556 
L 182.113036 123.485032 
L 183.016733 132.129897 
L 183.920429 123.029221 
L 184.824126 130.224264 
L 185.727822 125.001548 
L 186.631518 125.607351 
L 187.535215 130.921027 
L 188.438911 128.50022 
L 189.342608 129.193614 
L 190.246304 128.457478 
L 191.15 125.363688 
L 192.053697 125.603574 
L 192.957393 129.79418 
L 193.86109 126.253581 
L 194.764786 127.883323 
L 195.668483 122.297862 
L 196.572179 122.91364 
L 197.475875 124.219234 
L 198.379572 125.09706 
L 199.283268 126.550199 
L 200.186965 126.777269 
L 201.090661 124.461687 
L 201.994357 126.176111 
L 202.898054 124.22713 
L 203.80175 126.24158 
L 204.705447 126.203338 
L 205.609143 123.432788 
L 206.512839 123.109535 
L 207.416536 123.706719 
L 208.320232 127.484573 
L 209.223929 128.995443 
L 210.127625 127.945081 
L 211.031321 125.547909 
L 211.935018 124.135933 
L 212.838714 120.342998 
L 213.742411 126.317971 
L 214.646107 129.216249 
L 215.549803 120.492373 
L 216.4535 121.892137 
L 217.357196 123.85133 
L 218.260893 128.088139 
L 219.164589 129.859084 
L 220.068285 127.398877 
L 220.971982 127.060267 
L 221.875678 132.738424 
L 222.779375 124.224406 
L 223.683071 124.340197 
L 224.586768 126.944199 
L 225.490464 131.642661 
L 226.39416 121.897203 
L 227.297857 125.408667 
L 228.201553 125.693165 
L 229.10525 119.202848 
L 230.008946 122.32959 
L 230.912642 131.446596 
L 231.816339 125.367135 
L 232.720035 125.594113 
L 233.623732 130.455886 
L 234.527428 129.785232 
L 235.431124 129.500194 
L 236.334821 121.11714 
L 237.238517 123.538644 
L 238.142214 128.116748 
L 239.04591 129.39114 
L 239.949606 122.285886 
L 240.853303 129.995299 
L 241.756999 124.325208 
L 242.660696 120.866633 
L 243.564392 120.895413 
L 244.468088 123.367069 
L 245.371785 122.564186 
L 246.275481 121.584899 
L 247.179178 129.626027 
L 248.082874 127.940357 
L 248.986571 130.735752 
L 249.890267 123.212667 
L 250.793963 120.114047 
L 251.69766 126.488494 
L 252.601356 129.919671 
L 253.505053 125.86907 
L 254.408749 130.611407 
L 255.312445 123.50864 
L 256.216142 125.085914 
L 257.119838 120.79994 
L 258.023535 121.602112 
L 258.927231 119.33147 
L 259.830927 120.729747 
L 260.734624 128.295061 
L 261.63832 126.822788 
L 262.542017 134.698854 
L 263.445713 132.050228 
L 264.349409 122.890598 
L 266.156802 135.53053 
L 267.060499 126.00568 
L 267.964195 132.54099 
L 268.867891 132.184588 
L 269.771588 125.189994 
L 270.675284 120.613916 
L 271.578981 124.222247 
L 272.482677 117.561684 
L 273.386373 129.807064 
L 274.29007 126.989955 
L 275.193766 129.318604 
L 276.097463 127.00622 
L 277.001159 130.946517 
L 277.904856 132.355992 
L 278.808552 129.525869 
L 279.712248 131.631331 
L 280.615945 126.732302 
L 281.519641 119.864343 
L 282.423338 128.310695 
L 283.327034 120.956606 
L 284.23073 117.629074 
L 285.134427 125.378795 
L 286.038123 117.920415 
L 286.94182 123.074306 
L 287.845516 129.910919 
L 288.749212 126.58223 
L 289.652909 129.042897 
L 290.556605 127.194785 
L 291.460302 123.174135 
L 292.363998 122.919404 
L 293.267694 115.802662 
L 294.171391 129.740029 
L 295.075087 124.157107 
L 295.978784 127.943976 
L 296.88248 111.029663 
L 297.786176 113.472841 
L 299.593569 128.422802 
L 300.497266 134.273338 
L 301.400962 129.958123 
L 302.304659 133.713566 
L 303.208355 117.450616 
L 304.112051 128.692338 
L 305.015748 129.813025 
L 305.919444 115.728034 
L 306.823141 118.572896 
L 307.726837 122.540552 
L 308.630533 127.557859 
L 309.53423 129.495588 
L 310.437926 114.102609 
L 311.341623 136.596 
L 312.245319 108.215608 
L 313.149015 117.018954 
L 314.052712 120.142603 
L 314.956408 128.899167 
L 315.860105 130.805748 
L 316.763801 124.214115 
L 317.667497 127.159727 
L 318.571194 102.099787 
L 319.47489 118.281713 
L 320.378587 116.429732 
L 321.282283 131.5761 
L 322.185979 133.837109 
L 323.089676 115.692674 
L 323.993372 120.124983 
L 324.897069 136.388577 
L 325.800765 123.193296 
L 326.704461 129.018394 
L 327.608158 129.321921 
L 328.511854 138.4551 
L 329.415551 125.039724 
L 330.319247 138.417345 
L 331.222944 133.876075 
L 332.12664 126.153423 
L 333.030336 123.575241 
L 333.934033 116.247668 
L 334.837729 115.644759 
L 335.741426 129.865308 
L 336.645122 141.49183 
L 337.548818 124.5011 
L 338.452515 123.982558 
L 339.356211 123.697402 
L 340.259908 118.698584 
L 341.163604 130.214578 
L 342.0673 131.612355 
L 342.970997 114.039232 
L 343.874693 129.11917 
L 344.77839 131.182035 
L 345.682086 108.609173 
L 346.585782 123.317023 
L 347.489479 127.762004 
L 348.393175 118.329864 
L 349.296872 112.869788 
L 350.200568 123.369937 
L 351.104264 131.27356 
L 352.007961 126.363385 
L 352.911657 143.738166 
L 353.815354 114.696753 
L 354.71905 113.968907 
L 355.622747 130.48414 
L 356.526443 121.193979 
L 357.430139 117.685371 
L 358.333836 120.582885 
L 359.237532 120.115297 
L 360.141229 127.619656 
L 361.044925 127.749279 
L 361.948621 121.896638 
L 362.852318 111.493922 
L 363.756014 128.930185 
L 365.563407 110.681525 
L 366.467103 125.045738 
L 367.3708 129.433383 
L 368.274496 125.57819 
L 369.178193 126.908905 
L 370.985585 109.73973 
L 372.792978 136.964798 
L 373.696675 104.394287 
L 374.600371 118.598663 
L 375.504067 123.812864 
L 376.407764 121.751842 
L 377.31146 132.695063 
L 378.215157 121.052026 
L 379.118853 134.129371 
L 380.022549 122.103336 
L 380.926246 131.107578 
L 381.829942 127.067702 
L 382.733639 118.891465 
L 383.637335 126.417985 
L 384.541032 120.834761 
L 385.444728 140.132414 
L 386.348424 123.014812 
L 387.252121 127.889837 
L 388.155817 120.459014 
L 389.059514 121.614798 
L 389.96321 117.917533 
L 390.866906 113.33077 
L 391.770603 148.504138 
L 392.674299 124.679821 
L 393.577996 129.002378 
L 394.481692 124.659555 
L 395.385388 118.578186 
L 396.289085 133.271863 
L 398.096478 107.544664 
L 399.000174 123.567135 
L 399.90387 125.933789 
L 401.711263 116.155143 
L 402.61496 142.589501 
L 403.518656 110.91853 
L 404.422352 128.28002 
L 405.326049 114.499793 
L 406.229745 132.296748 
L 407.133442 132.85869 
L 408.037138 130.138371 
L 408.940835 129.565808 
L 409.844531 117.538957 
L 410.748227 137.148388 
L 411.651924 117.568777 
L 412.55562 115.431626 
L 413.459317 120.839669 
L 414.363013 116.20436 
L 415.266709 118.104005 
L 416.170406 138.363549 
L 417.074102 107.732925 
L 417.977799 112.687961 
L 418.881495 132.657348 
L 419.785191 122.001757 
L 420.688888 94.376346 
L 421.592584 131.538174 
L 422.496281 104.235253 
L 423.399977 132.110618 
L 424.303673 129.006563 
L 425.20737 98.951805 
L 426.111066 122.770832 
L 427.014763 134.321081 
L 427.918459 121.241722 
L 428.822155 116.720323 
L 429.725852 128.847332 
L 430.629548 137.061916 
L 431.533245 115.477435 
L 432.436941 121.831682 
L 433.340637 112.413359 
L 434.244334 129.56844 
L 435.14803 129.711169 
L 436.051727 120.836024 
L 436.955423 121.698677 
L 437.85912 125.159279 
L 438.762816 143.546351 
L 439.666512 105.291248 
L 440.570209 148.552894 
L 441.473905 113.695397 
L 442.377602 112.22998 
L 443.281298 136.693723 
L 444.184994 115.308478 
L 445.088691 116.443957 
L 445.992387 117.992846 
L 446.896084 103.963085 
L 447.79978 128.787534 
L 448.703476 115.316914 
L 449.607173 119.393439 
L 450.510869 125.615339 
L 451.414566 142.981935 
L 452.318262 117.743576 
L 453.221958 143.009662 
L 454.125655 125.185085 
L 455.029351 116.410018 
L 455.933048 137.322201 
L 456.836744 118.73855 
L 457.74044 119.420113 
L 458.644137 119.295899 
L 459.547833 121.206323 
L 460.45153 141.120886 
L 461.355226 128.846345 
L 462.258923 137.278524 
L 463.162619 98.707773 
L 464.066315 135.948743 
L 464.970012 147.024745 
L 465.873708 111.204476 
L 466.777405 115.059866 
L 467.681101 132.063546 
L 468.584797 125.885822 
L 469.488494 115.70657 
L 470.39219 121.105402 
L 471.295887 93.640525 
L 472.199583 122.808837 
L 473.103279 95.265832 
L 474.006976 107.16743 
L 474.910672 131.963085 
L 475.814369 131.803906 
L 476.718065 123.994809 
L 477.621761 141.025348 
L 478.525458 101.929317 
L 479.429154 104.092103 
L 480.332851 103.642833 
L 481.236547 133.499841 
L 482.140243 104.742544 
L 483.04394 116.830995 
L 483.947636 121.918285 
L 484.851333 138.385209 
L 485.755029 116.727481 
L 486.658725 137.341782 
L 488.466118 108.566772 
L 489.369815 126.784494 
L 490.273511 117.6271 
L 491.177208 147.121587 
L 492.080904 116.440325 
L 492.9846 134.647176 
L 493.888297 119.111165 
L 494.791993 128.808274 
L 495.69569 103.02233 
L 497.503082 136.431846 
L 498.406779 122.702586 
L 499.310475 125.623103 
L 500.214172 136.234412 
L 502.021564 126.806668 
L 502.925261 113.810175 
L 503.828957 135.457033 
L 504.732654 108.732426 
L 505.63635 112.069406 
L 506.540046 114.70961 
L 507.443743 133.818093 
L 508.347439 138.200672 
L 509.251136 123.701994 
L 510.154832 147.355973 
L 511.058528 91.802296 
L 511.962225 114.281501 
L 512.865921 97.967373 
L 514.673314 128.401391 
L 515.577011 125.3769 
L 516.480707 147.086016 
L 517.384403 118.408664 
L 519.191796 130.572783 
L 520.095493 128.200654 
L 520.999189 127.145686 
L 521.902885 120.250341 
L 522.806582 94.460607 
L 523.710278 132.549913 
L 524.613975 146.416257 
L 525.517671 114.260274 
L 526.421367 124.630775 
L 527.325064 139.234177 
L 528.22876 106.688445 
L 529.132457 116.266881 
L 530.036153 140.878381 
L 530.939849 124.417576 
L 531.843546 124.301837 
L 532.747242 141.600305 
L 533.650939 128.116827 
L 534.554635 112.947824 
L 535.458331 114.040627 
L 536.362028 112.199897 
L 537.265724 102.550991 
L 538.169421 119.788636 
L 539.073117 134.464271 
L 539.976813 95.104113 
L 540.88051 141.165024 
L 541.784206 125.506075 
L 542.687903 118.714823 
L 543.591599 120.813389 
L 544.495296 93.496611 
L 545.398992 96.68973 
L 546.302688 129.149845 
L 547.206385 136.31841 
L 548.110081 130.34349 
L 549.013778 122.828787 
L 549.917474 123.975109 
L 550.82117 122.176069 
L 552.628563 103.817685 
L 553.53226 149.013205 
L 554.435956 104.815764 
L 555.339652 125.120182 
L 556.243349 127.336369 
L 557.147045 100.454662 
L 558.050742 134.650585 
L 558.954438 128.586455 
L 559.858134 116.356775 
L 560.761831 130.343227 
L 561.665527 111.332019 
L 562.569224 148.934826 
L 563.47292 134.23728 
L 564.376616 144.436574 
L 565.280313 127.944791 
L 566.184009 117.976738 
L 567.087706 119.997768 
L 567.991402 128.304905 
L 568.895099 92.534537 
L 569.798795 121.715061 
L 570.702491 140.414754 
L 571.606188 102.057347 
L 572.509884 137.945375 
L 573.413581 116.387634 
L 574.317277 147.380516 
L 575.220973 145.209005 
L 576.12467 142.489146 
L 577.028366 125.081795 
L 577.932063 111.136941 
L 578.835759 109.739796 
L 579.739455 154.938066 
L 580.643152 116.386976 
L 581.546848 115.718414 
L 582.450545 108.368049 
L 583.354241 120.510178 
L 585.161634 127.133158 
L 586.06533 129.719447 
L 586.969027 138.012621 
L 587.872723 133.842294 
L 588.776419 123.379715 
L 589.680116 125.86278 
L 590.583812 112.297186 
L 591.487509 118.507598 
L 592.391205 81.804225 
L 593.294901 88.406597 
L 594.198598 121.804954 
L 595.102294 116.604939 
L 596.005991 128.367466 
L 596.909687 150.637709 
L 597.813384 98.49056 
L 598.71708 124.140158 
L 599.620776 127.1497 
L 600.524473 116.162565 
L 601.428169 125.173939 
L 602.331866 114.37296 
L 603.235562 125.173189 
L 604.139258 122.769213 
L 605.042955 97.545093 
L 605.946651 110.571998 
L 606.850348 115.966815 
L 607.754044 115.833061 
L 608.65774 154.20139 
L 609.561437 147.253907 
L 610.465133 145.653195 
L 611.36883 139.557154 
L 612.272526 109.164957 
L 613.176222 86.042811 
L 614.079919 104.777048 
L 614.983615 97.411957 
L 615.887312 147.341037 
L 616.791008 115.681606 
L 617.694704 129.767453 
L 618.598401 135.899131 
L 619.502097 109.068365 
L 620.405794 132.90088 
L 621.30949 119.747893 
L 622.213187 118.692609 
L 623.116883 167.57763 
L 624.020579 141.447482 
L 624.924276 123.278307 
L 625.827972 112.912188 
L 626.731669 88.936707 
L 627.635365 116.048234 
L 628.539061 107.906172 
L 629.442758 129.186192 
L 630.346454 140.012924 
L 631.250151 158.211893 
L 632.153847 139.733835 
L 633.057543 126.509141 
L 633.96124 84.545114 
L 634.864936 118.146485 
L 635.768633 124.471807 
L 636.672329 116.87658 
L 637.576025 127.584033 
L 638.479722 119.603374 
L 639.383418 144.657117 
L 640.287115 116.99478 
L 641.190811 108.505185 
L 642.094507 114.437903 
L 642.998204 128.655596 
L 643.9019 124.52734 
L 644.805597 136.407001 
L 645.709293 110.719728 
L 646.612989 113.277289 
L 647.516686 105.200802 
L 648.420382 108.613015 
L 649.324079 96.405943 
L 650.227775 139.494672 
L 651.131472 128.8083 
L 652.035168 135.638781 
L 652.938864 121.948144 
L 653.842561 94.602507 
L 654.746257 137.988433 
L 655.649954 134.664495 
L 656.55365 122.051658 
L 657.457346 73.748793 
L 658.361043 105.587155 
L 659.264739 123.453975 
L 660.168436 112.668445 
L 661.975828 141.206477 
L 662.879525 101.2664 
L 663.783221 127.192679 
L 664.686918 145.214164 
L 665.590614 138.810279 
L 666.49431 116.689397 
L 667.398007 150.988939 
L 668.301703 114.996424 
L 669.2054 100.933054 
L 670.109096 125.080729 
L 671.012792 129.456517 
L 671.916489 151.347974 
L 672.820185 107.7005 
L 673.723882 91.529023 
L 674.627578 101.506353 
L 675.531275 134.103657 
L 676.434971 142.588041 
L 677.338667 125.75391 
L 678.242364 137.566404 
L 679.14606 103.411697 
L 680.049757 103.700432 
L 680.953453 122.884794 
L 681.857149 105.132306 
L 682.760846 120.264238 
L 683.664542 155.993574 
L 684.568239 108.541993 
L 685.471935 134.483457 
L 686.375631 120.160724 
L 687.279328 137.524583 
L 688.183024 111.387224 
L 689.086721 134.057743 
L 689.990417 124.14808 
L 690.894113 105.167652 
L 691.79781 131.354307 
L 692.701506 132.551479 
L 693.605203 126.389165 
L 694.508899 93.526615 
L 695.412595 107.862469 
L 696.316292 118.62789 
L 697.219988 113.98633 
L 698.123685 115.435916 
L 699.027381 118.006519 
L 699.931077 153.906864 
L 700.834774 101.64199 
L 701.73847 69.747528 
L 702.642167 148.236642 
L 703.545863 96.063608 
L 704.44956 122.425668 
L 705.353256 91.587794 
L 706.256952 143.93385 
L 707.160649 115.313558 
L 708.064345 131.091207 
L 708.968042 134.428661 
L 709.871738 107.724556 
L 710.775434 137.713279 
L 711.679131 144.177145 
L 712.582827 190.792327 
L 713.486524 122.906942 
L 714.39022 125.701877 
L 715.293916 155.085559 
L 716.197613 151.407534 
L 717.101309 135.518647 
L 718.005006 108.634505 
L 718.908702 105.70242 
L 719.812398 119.035918 
L 720.716095 114.451918 
L 721.619791 128.383494 
L 722.523488 88.113598 
L 723.427184 155.700641 
L 724.33088 137.632386 
L 725.234577 108.343045 
L 726.138273 106.808948 
L 727.04197 103.911829 
L 727.945666 148.840787 
L 728.849363 81.217056 
L 729.753059 138.943875 
L 730.656755 44.058807 
L 731.560452 135.405053 
L 732.464148 80.605488 
L 733.367845 130.274862 
L 734.271541 106.094248 
L 735.175237 153.735973 
L 736.078934 151.941486 
L 736.98263 142.29895 
L 737.886327 139.533664 
L 738.790023 111.318096 
L 739.693719 112.961274 
L 740.597416 177.522114 
L 741.501112 118.647459 
L 742.404809 104.09251 
L 743.308505 113.501174 
L 744.212201 118.412256 
L 745.115898 96.817102 
L 746.019594 119.332299 
L 746.923291 151.791374 
L 747.826987 95.328077 
L 748.730683 156.754201 
L 749.63438 115.073395 
L 750.538076 144.520677 
L 751.441773 96.468135 
L 752.345469 125.166017 
L 753.249165 98.814761 
L 754.152862 78.792367 
L 755.056558 125.331591 
L 755.960255 137.055139 
L 756.863951 106.2626 
L 757.767648 160.840688 
L 758.671344 114.895161 
L 759.57504 142.382829 
L 760.478737 133.249742 
L 761.382433 120.431049 
L 762.28613 172.241667 
L 763.189826 161.939622 
L 764.093522 121.790242 
L 764.997219 110.440612 
L 765.900915 88.66975 
L 766.804612 126.016695 
L 767.708308 143.115703 
L 768.612004 131.507262 
L 769.515701 101.898958 
L 770.419397 138.409068 
L 771.323094 129.929988 
L 772.22679 144.090068 
L 773.130486 127.798285 
L 774.034183 96.432736 
L 774.937879 114.038995 
L 775.841576 139.118188 
L 776.745272 111.575551 
L 777.648968 103.699327 
L 778.552665 133.352834 
L 779.456361 128.011103 
L 780.360058 65.141683 
L 781.263754 98.833395 
L 782.167451 94.416128 
L 783.071147 104.354677 
L 783.974843 162.356835 
L 784.87854 144.879856 
L 785.782236 95.33488 
L 786.685933 131.16523 
L 787.589629 132.871771 
L 788.493325 117.161012 
L 789.397022 120.798256 
L 790.300718 130.961808 
L 791.204415 107.98888 
L 792.108111 111.554956 
L 793.011807 124.473859 
L 793.915504 72.662676 
L 794.8192 114.126862 
L 795.722897 103.814303 
L 796.626593 96.657002 
L 797.530289 108.371878 
L 798.433986 123.930827 
L 799.337682 126.868005 
L 800.241379 138.403054 
L 801.145075 145.765868 
L 802.048771 122.385992 
L 802.952468 104.664862 
L 803.856164 113.593897 
L 804.759861 110.52815 
L 805.663557 105.5696 
L 806.567253 141.016452 
L 807.47095 93.088702 
L 808.374646 113.164814 
L 809.278343 150.209889 
L 810.182039 118.666803 
L 811.085736 164.349677 
L 811.989432 122.389558 
L 812.893128 109.588526 
L 813.796825 163.054546 
L 814.700521 109.704304 
L 815.604218 159.96094 
L 816.507914 142.161405 
L 817.41161 66.779781 
L 818.315307 107.156033 
L 819.219003 160.50638 
L 820.1227 112.02111 
L 821.026396 98.043449 
L 821.930092 155.326841 
L 822.833789 155.960175 
L 823.737485 115.968592 
L 824.641182 100.176678 
L 825.544878 129.284666 
L 826.448574 109.031399 
L 827.352271 68.579308 
L 828.255967 163.832069 
L 829.159664 88.888792 
L 830.06336 113.117584 
L 830.967056 109.563904 
L 831.870753 86.596858 
L 832.774449 116.848339 
L 834.581842 125.673189 
L 835.485539 168.49962 
L 836.389235 116.602649 
L 837.292931 81.719214 
L 838.196628 109.856074 
L 839.100324 150.124996 
L 840.004021 78.15327 
L 840.907717 48.280128 
L 841.811413 96.411246 
L 842.71511 108.459192 
L 843.618806 114.777671 
L 844.522503 122.517575 
L 845.426199 124.999718 
L 846.329895 109.86418 
L 847.233592 100.128145 
L 848.137288 128.50501 
L 849.040985 131.452557 
L 849.944681 120.562198 
L 850.848377 129.414341 
L 851.752074 88.43368 
L 852.65577 110.884591 
L 853.559467 157.520578 
L 854.463163 154.226985 
L 855.366859 125.181874 
L 856.270556 90.32214 
L 857.174252 113.41103 
L 858.077949 98.114287 
L 858.981645 170.051299 
L 859.885341 186.213814 
L 860.789038 163.575983 
L 861.692734 126.743988 
L 862.596431 116.050208 
L 863.500127 146.436404 
L 864.403824 123.445474 
L 865.30752 189.58089 
L 866.211216 139.049008 
L 867.114913 121.569634 
L 868.018609 111.701739 
L 868.922306 94.860305 
L 869.826002 124.304995 
L 870.729698 111.622505 
L 871.633395 77.90933 
L 872.537091 108.677563 
L 873.440788 102.852689 
L 874.344484 166.60916 
L 875.24818 125.9375 
L 876.151877 142.400845 
L 877.055573 78.676405 
L 877.95927 108.032794 
L 878.862966 72.097115 
L 879.766662 142.037389 
L 880.670359 146.059539 
L 881.574055 104.026462 
L 882.477752 113.552667 
L 883.381448 85.342193 
L 884.285144 99.239659 
L 885.188841 99.360715 
L 886.092537 115.737351 
L 886.996234 167.942928 
L 887.89993 143.560722 
L 888.803627 107.75202 
L 889.707323 131.619145 
L 890.611019 151.778215 
L 891.514716 96.215997 
L 892.418412 99.272032 
L 893.322109 89.78241 
L 894.225805 121.259067 
L 895.129501 158.101773 
L 896.033198 114.177487 
L 896.936894 126.740356 
L 897.840591 146.965553 
L 898.744287 105.904 
L 899.647983 96.465964 
L 900.55168 168.739941 
L 901.455376 98.2128 
L 902.359073 94.332195 
L 903.262769 136.534926 
L 904.166465 116.503057 
L 905.070162 88.777686 
L 905.973858 68.295179 
L 906.877555 146.657131 
L 907.781251 102.858532 
L 908.684947 50.508001 
L 909.588644 152.680808 
L 910.49234 198.061997 
L 911.396037 99.323289 
L 912.299733 130.260005 
L 913.203429 55.519044 
L 914.107126 127.970347 
L 915.010822 38.547185 
L 915.914519 74.338634 
L 917.721912 176.952144 
L 918.625608 29.097753 
L 919.529304 148.599795 
L 920.433001 139.713977 
L 921.336697 123.125247 
L 922.240394 158.689877 
L 923.14409 124.484427 
L 924.047786 120.233602 
L 924.951483 87.022349 
L 925.855179 164.888117 
L 926.758876 142.914479 
L 927.662572 142.489804 
L 928.566268 61.556657 
L 929.469965 177.335352 
L 930.373661 130.756347 
L 931.277358 189.649492 
L 932.181054 142.205819 
L 933.08475 218.56656 
L 933.988447 153.528564 
L 934.892143 79.317121 
L 935.79584 80.793395 
L 936.699536 92.015929 
L 937.603232 134.631109 
L 938.506929 85.353523 
L 939.410625 155.772071 
L 941.218018 70.060477 
L 942.121715 147.822548 
L 943.025411 138.512253 
L 943.929107 82.375682 
L 944.832804 125.070596 
L 945.7365 124.043987 
L 946.640197 109.730623 
L 948.447589 141.610714 
L 949.351286 67.024629 
L 950.254982 82.51349 
L 951.158679 125.669557 
L 952.062375 108.788367 
L 952.966071 145.587818 
L 953.869768 135.165995 
L 954.773464 150.749039 
L 955.677161 89.429785 
L 956.580857 169.738165 
L 957.484553 97.073544 
L 958.38825 78.302592 
L 959.291946 210.199705 
L 960.195643 149.756158 
L 961.099339 147.204427 
L 962.003035 127.596417 
L 962.906732 141.971038 
L 963.810428 81.272866 
L 964.714125 126.562925 
L 965.617821 31.83897 
L 966.521517 58.706794 
L 967.425214 186.193404 
L 969.232607 111.22386 
L 970.136303 85.973592 
L 971.04 146.947985 
L 971.943696 128.042975 
L 972.847392 154.503009 
L 973.751089 101.882153 
L 974.654785 80.23769 
L 975.558482 112.712636 
L 976.462178 183.412128 
L 977.365874 85.048035 
L 978.269571 113.485066 
L 979.173267 95.253554 
L 980.076964 132.427015 
L 980.98066 148.709612 
L 981.884356 100.016051 
L 982.788053 151.329024 
L 983.691749 182.840869 
L 984.595446 150.769081 
L 985.499142 39.927946 
L 986.402838 77.867456 
L 987.306535 103.25794 
L 989.113928 121.381333 
L 990.017624 91.514284 
L 990.92132 103.01546 
L 991.825017 135.038952 
L 992.728713 182.322695 
L 993.63241 88.178185 
L 994.536106 119.163803 
L 995.439803 82.275946 
L 996.343499 94.983268 
L 997.247195 137.071694 
L 998.150892 136.445927 
L 999.054588 47.086852 
L 999.958285 162.084128 
L 1000.861981 103.42658 
L 1001.765677 94.857002 
L 1002.669374 121.7722 
L 1003.57307 169.063773 
L 1004.476767 154.527288 
L 1005.380463 146.642734 
L 1006.284159 117.641628 
L 1007.187856 114.442719 
L 1008.091552 108.384511 
L 1009.898945 138.92232 
L 1010.802641 95.733946 
L 1011.706338 138.908634 
L 1012.610034 95.543013 
L 1013.513731 134.94565 
L 1014.417427 137.124767 
L 1015.321123 105.74082 
L 1016.22482 91.462724 
L 1017.128516 208.350355 
L 1018.032213 93.020062 
L 1018.935909 102.798392 
L 1018.935909 102.798392 
" clip-path="url(#p47b698b9f6)" style="fill: none; stroke: #d2dbe0; stroke-width: 1.5; stroke-linecap: square"/>
   </g>
   <g id="line2d_12">
    <path d="M 152.291055 128.243141 
L 153.194751 128.384328 
L 154.098448 127.897857 
L 155.002144 127.998327 
L 155.905841 127.7138 
L 157.713233 127.485922 
L 160.424323 127.441994 
L 161.328019 127.869284 
L 162.231715 127.653627 
L 163.135412 127.194083 
L 164.039108 127.481693 
L 164.942805 127.212701 
L 165.846501 127.354852 
L 166.750197 127.171178 
L 167.653894 126.686332 
L 168.55759 126.822912 
L 169.461287 127.089268 
L 170.364983 127.828755 
L 171.26868 127.684064 
L 172.172376 128.078107 
L 173.076072 127.655338 
L 173.979769 128.055035 
L 174.883465 127.857185 
L 175.787162 128.021498 
L 176.690858 127.949948 
L 177.594554 127.73276 
L 178.498251 127.899491 
L 179.401947 127.705091 
L 180.305644 127.840506 
L 181.20934 128.172622 
L 182.113036 127.932658 
L 183.016733 127.903322 
L 183.920429 128.084893 
L 184.824126 128.0312 
L 185.727822 128.354675 
L 188.438911 126.836691 
L 190.246304 126.6263 
L 191.15 126.790911 
L 192.053697 126.407501 
L 192.957393 126.564845 
L 193.86109 126.264989 
L 195.668483 126.35679 
L 197.475875 125.712843 
L 198.379572 125.438499 
L 199.283268 125.389853 
L 201.090661 125.688517 
L 203.80175 124.993304 
L 204.705447 125.19431 
L 205.609143 125.50944 
L 208.320232 125.027908 
L 209.223929 125.093451 
L 210.127625 125.363321 
L 211.935018 125.566116 
L 212.838714 125.890958 
L 213.742411 125.792012 
L 214.646107 125.837382 
L 215.549803 126.029116 
L 216.4535 126.425913 
L 218.260893 125.967205 
L 219.164589 125.85461 
L 220.068285 125.537356 
L 220.971982 125.447039 
L 221.875678 126.002219 
L 222.779375 125.954677 
L 223.683071 125.773571 
L 225.490464 126.666401 
L 226.39416 126.948844 
L 228.201553 126.284272 
L 230.008946 126.436709 
L 230.912642 125.914083 
L 231.816339 126.202627 
L 232.720035 126.201878 
L 233.623732 125.898 
L 234.527428 125.360637 
L 235.431124 125.43413 
L 237.238517 125.086493 
L 238.142214 125.607652 
L 239.04591 125.88819 
L 240.853303 125.744925 
L 242.660696 125.272552 
L 243.564392 125.279274 
L 244.468088 125.097718 
L 245.371785 125.572431 
L 246.275481 125.570931 
L 247.179178 125.419389 
L 248.082874 124.989829 
L 248.986571 124.95564 
L 249.890267 124.422449 
L 250.793963 124.242676 
L 253.505053 125.477055 
L 254.408749 125.951357 
L 256.216142 125.984306 
L 257.119838 126.363814 
L 258.023535 126.127311 
L 258.927231 126.593727 
L 259.830927 127.197254 
L 260.734624 127.132329 
L 261.63832 126.667041 
L 262.542017 126.5847 
L 263.445713 125.932214 
L 264.349409 126.247135 
L 265.253106 126.342337 
L 266.156802 126.76827 
L 267.060499 127.038476 
L 268.867891 128.20054 
L 269.771588 128.262081 
L 270.675284 128.502508 
L 271.578981 128.10418 
L 272.482677 127.494886 
L 273.386373 127.765891 
L 274.29007 127.364756 
L 275.193766 126.469684 
L 276.097463 126.438339 
L 277.001159 125.707311 
L 277.904856 125.251796 
L 280.615945 126.027291 
L 281.519641 126.508946 
L 282.423338 126.1773 
L 283.327034 125.973772 
L 284.23073 125.297975 
L 285.134427 125.434665 
L 286.038123 125.095195 
L 286.94182 124.874594 
L 288.749212 123.041859 
L 289.652909 122.747262 
L 290.556605 123.175185 
L 291.460302 123.473318 
L 292.363998 123.923393 
L 293.267694 124.727618 
L 294.171391 124.331209 
L 295.075087 124.869805 
L 295.978784 125.206741 
L 296.88248 124.497597 
L 298.689873 123.772013 
L 299.593569 123.790167 
L 300.497266 124.106239 
L 301.400962 123.665399 
L 302.304659 124.705066 
L 303.208355 123.628845 
L 305.015748 122.881869 
L 306.823141 124.64199 
L 307.726837 124.810677 
L 308.630533 124.747523 
L 309.53423 123.138846 
L 310.437926 122.555025 
L 311.341623 121.690833 
L 312.245319 122.397108 
L 313.149015 122.654346 
L 314.052712 121.948329 
L 314.956408 122.168176 
L 315.860105 123.05896 
L 318.571194 123.155941 
L 319.47489 124.373565 
L 320.378587 123.795752 
L 321.282283 125.305838 
L 322.185979 126.148694 
L 323.089676 126.449235 
L 323.993372 126.183039 
L 324.897069 125.455135 
L 325.800765 125.026667 
L 326.704461 125.161946 
L 327.608158 127.131549 
L 329.415551 127.820159 
L 330.319247 127.426224 
L 331.222944 126.669298 
L 332.12664 127.395393 
L 333.030336 127.969762 
L 333.934033 126.852295 
L 334.837729 127.148588 
L 335.741426 127.25677 
L 336.645122 126.221133 
L 337.548818 125.464229 
L 338.452515 125.600343 
L 340.259908 123.545655 
L 341.163604 123.40648 
L 342.0673 123.791396 
L 342.970997 124.297182 
L 343.874693 125.701853 
L 344.77839 124.943425 
L 345.682086 123.567279 
L 346.585782 123.866431 
L 347.489479 123.727002 
L 348.393175 123.4264 
L 349.296872 123.520615 
L 350.200568 123.015651 
L 351.104264 122.816016 
L 352.007961 123.501519 
L 352.911657 123.140392 
L 353.815354 122.155986 
L 354.71905 123.172037 
L 355.622747 123.000783 
L 356.526443 122.146759 
L 357.430139 122.482553 
L 358.333836 123.310733 
L 359.237532 123.421145 
L 360.141229 123.202913 
L 361.044925 122.817611 
L 361.948621 121.117689 
L 362.852318 121.57394 
L 363.756014 122.723734 
L 364.659711 121.419242 
L 365.563407 121.289476 
L 366.467103 121.595851 
L 367.3708 121.654298 
L 368.274496 122.283287 
L 369.178193 121.954905 
L 370.081889 122.27391 
L 370.985585 122.284245 
L 371.889282 123.264927 
L 373.696675 123.121779 
L 374.600371 123.908602 
L 375.504067 123.698053 
L 376.407764 124.233005 
L 377.31146 124.104836 
L 379.118853 124.243965 
L 380.022549 124.837719 
L 380.926246 124.542507 
L 381.829942 123.360806 
L 382.733639 125.566298 
L 384.541032 126.129832 
L 385.444728 126.275218 
L 386.348424 125.569374 
L 387.252121 126.180366 
L 389.059514 124.7796 
L 389.96321 124.402578 
L 390.866906 124.345882 
L 391.770603 124.444192 
L 392.674299 123.93105 
L 393.577996 125.018787 
L 394.481692 123.558093 
L 395.385388 123.821353 
L 396.289085 123.151851 
L 399.000174 124.916974 
L 399.90387 125.728726 
L 400.807567 124.180467 
L 401.711263 124.803895 
L 403.518656 123.770819 
L 404.422352 123.883893 
L 405.326049 123.030518 
L 406.229745 122.902082 
L 407.133442 124.443026 
L 408.940835 122.989024 
L 409.844531 123.579008 
L 410.748227 123.871339 
L 411.651924 121.460681 
L 412.55562 122.491664 
L 413.459317 121.289425 
L 414.363013 122.169966 
L 415.266709 122.005457 
L 416.170406 120.310113 
L 417.074102 119.941736 
L 418.881495 120.364638 
L 419.785191 119.343235 
L 420.688888 119.907162 
L 421.592584 120.988677 
L 422.496281 120.720565 
L 423.399977 121.001931 
L 424.303673 120.717399 
L 425.20737 120.277644 
L 426.111066 121.376556 
L 427.014763 121.783959 
L 427.918459 121.236025 
L 428.822155 121.393902 
L 429.725852 123.852402 
L 430.629548 122.540055 
L 431.533245 124.755938 
L 433.340637 122.996347 
L 434.244334 124.883443 
L 435.14803 124.510325 
L 436.051727 123.616469 
L 436.955423 123.454025 
L 437.85912 122.816164 
L 438.762816 122.813174 
L 439.666512 121.725924 
L 441.473905 122.110907 
L 442.377602 123.639335 
L 443.281298 123.048092 
L 444.184994 123.713017 
L 445.088691 123.93047 
L 445.992387 123.666037 
L 446.896084 124.274183 
L 447.79978 123.033793 
L 448.703476 123.740236 
L 449.607173 122.277387 
L 450.510869 122.652933 
L 451.414566 124.097478 
L 452.318262 123.705109 
L 453.221958 124.803612 
L 454.125655 123.916802 
L 455.029351 124.814597 
L 455.933048 126.96768 
L 456.836744 126.088527 
L 457.74044 126.075675 
L 458.644137 126.70918 
L 459.547833 126.722704 
L 460.45153 125.358936 
L 461.355226 125.527027 
L 462.258923 123.058571 
L 463.162619 122.939758 
L 464.066315 121.882549 
L 464.970012 120.37481 
L 466.777405 121.655227 
L 467.681101 121.890172 
L 468.584797 122.881124 
L 469.488494 120.921545 
L 470.39219 119.683833 
L 471.295887 118.002048 
L 472.199583 119.741652 
L 474.006976 116.671654 
L 474.910672 117.207345 
L 475.814369 118.373612 
L 476.718065 117.606809 
L 477.621761 118.179607 
L 478.525458 118.554347 
L 479.429154 117.927416 
L 480.332851 119.584614 
L 481.236547 119.325527 
L 482.140243 121.918315 
L 483.04394 122.38196 
L 483.947636 122.516164 
L 484.851333 121.881527 
L 485.755029 122.1222 
L 486.658725 120.222049 
L 487.562422 121.165116 
L 488.466118 122.782103 
L 489.369815 123.735091 
L 490.273511 123.341254 
L 491.177208 124.915847 
L 492.080904 125.635868 
L 492.9846 125.880287 
L 493.888297 124.651536 
L 494.791993 125.588013 
L 495.69569 124.157545 
L 496.599386 123.600947 
L 498.406779 124.259769 
L 499.310475 125.288447 
L 500.214172 124.117468 
L 501.117868 125.66325 
L 502.021564 123.521006 
L 502.925261 123.279523 
L 503.828957 121.737478 
L 505.63635 122.616271 
L 506.540046 122.063523 
L 507.443743 123.282695 
L 508.347439 122.921973 
L 509.251136 122.324878 
L 511.058528 122.361646 
L 511.962225 123.028421 
L 513.769618 121.554496 
L 514.673314 122.578521 
L 515.577011 124.163853 
L 516.480707 123.185962 
L 517.384403 122.507468 
L 518.2881 123.284077 
L 519.191796 121.2507 
L 520.999189 123.803774 
L 521.902885 125.126284 
L 523.710278 126.351949 
L 524.613975 126.488945 
L 525.517671 124.782036 
L 526.421367 124.563634 
L 527.325064 123.959003 
L 528.22876 122.557914 
L 529.132457 122.137313 
L 530.036153 122.503242 
L 530.939849 121.245931 
L 531.843546 123.581151 
L 532.747242 123.22896 
L 533.650939 121.843888 
L 534.554635 122.171544 
L 535.458331 120.614835 
L 536.362028 118.487613 
L 538.169421 120.61326 
L 539.073117 120.086515 
L 540.88051 119.990739 
L 541.784206 119.019527 
L 542.687903 118.270048 
L 543.591599 117.813541 
L 544.495296 119.56217 
L 545.398992 119.192964 
L 546.302688 120.321423 
L 547.206385 120.69881 
L 548.110081 118.998329 
L 549.013778 120.975653 
L 549.917474 120.346724 
L 550.82117 119.889259 
L 551.724867 120.47068 
L 552.628563 119.996611 
L 553.53226 122.768522 
L 554.435956 124.645899 
L 555.339652 125.410236 
L 556.243349 124.991555 
L 557.147045 124.373217 
L 558.050742 124.231666 
L 558.954438 124.448156 
L 559.858134 122.966079 
L 560.761831 123.39547 
L 561.665527 125.225324 
L 562.569224 122.877531 
L 563.47292 124.534012 
L 564.376616 124.097384 
L 565.280313 125.099591 
L 566.184009 127.337309 
L 567.087706 127.729237 
L 568.895099 127.293012 
L 569.798795 126.26284 
L 570.702491 128.443143 
L 571.606188 126.81575 
L 572.509884 125.889807 
L 573.413581 124.086381 
L 574.317277 123.71465 
L 576.12467 124.373484 
L 577.028366 124.444211 
L 577.932063 126.718115 
L 578.835759 127.324477 
L 579.739455 126.472725 
L 580.643152 127.662996 
L 581.546848 126.380587 
L 582.450545 126.486585 
L 583.354241 123.207771 
L 584.257937 120.36765 
L 585.161634 119.333441 
L 586.06533 118.909598 
L 586.969027 119.771124 
L 587.872723 121.81602 
L 588.776419 118.993644 
L 589.680116 119.381304 
L 590.583812 119.952868 
L 591.487509 120.342594 
L 592.391205 120.575782 
L 593.294901 120.093528 
L 594.198598 119.99553 
L 595.102294 119.648018 
L 596.005991 117.624642 
L 596.909687 116.461127 
L 597.813384 116.090482 
L 598.71708 115.588996 
L 599.620776 117.684206 
L 600.524473 119.121522 
L 601.428169 122.31397 
L 602.331866 124.871498 
L 603.235562 124.239498 
L 604.139258 122.711392 
L 605.042955 121.531871 
L 605.946651 118.870583 
L 606.850348 121.313107 
L 607.754044 120.89018 
L 608.65774 121.021067 
L 609.561437 122.007896 
L 610.465133 121.202617 
L 611.36883 122.129013 
L 613.176222 121.653918 
L 614.079919 125.155545 
L 614.983615 126.699319 
L 615.887312 127.064894 
L 616.791008 126.91885 
L 617.694704 123.655616 
L 618.598401 122.095332 
L 619.502097 120.207981 
L 620.405794 119.689433 
L 621.30949 121.231831 
L 622.213187 124.840286 
L 623.116883 126.588125 
L 624.020579 128.042984 
L 624.924276 124.903188 
L 625.827972 125.026432 
L 626.731669 124.761649 
L 627.635365 123.810522 
L 628.539061 124.736305 
L 629.442758 124.07143 
L 630.346454 125.316891 
L 631.250151 125.232 
L 632.153847 122.278377 
L 633.057543 120.927899 
L 633.96124 121.196763 
L 634.864936 121.777521 
L 635.768633 124.151035 
L 636.672329 123.88461 
L 637.576025 124.153166 
L 638.479722 122.953896 
L 639.383418 121.383901 
L 640.287115 118.293603 
L 641.190811 118.281645 
L 642.094507 118.396603 
L 642.998204 120.951286 
L 643.9019 121.141369 
L 644.805597 119.647905 
L 645.709293 120.703497 
L 646.612989 121.05752 
L 647.516686 121.179934 
L 648.420382 117.634518 
L 649.324079 117.064137 
L 650.227775 117.811577 
L 652.035168 117.633529 
L 652.938864 118.467485 
L 653.842561 116.710455 
L 654.746257 117.534103 
L 656.55365 120.811421 
L 657.457346 121.21524 
L 658.361043 123.94439 
L 660.168436 121.325715 
L 661.072132 120.797812 
L 661.975828 121.173231 
L 662.879525 124.010504 
L 663.783221 122.496108 
L 664.686918 120.339334 
L 665.590614 119.312069 
L 666.49431 122.329812 
L 667.398007 124.179856 
L 668.301703 124.294853 
L 669.2054 125.539751 
L 670.109096 124.367131 
L 671.012792 122.491829 
L 671.916489 123.572748 
L 673.723882 121.222233 
L 674.627578 122.081398 
L 675.531275 121.674028 
L 676.434971 120.848754 
L 677.338667 121.106969 
L 678.242364 122.936545 
L 679.14606 122.25187 
L 680.049757 122.481931 
L 680.953453 121.121937 
L 681.857149 120.995294 
L 682.760846 122.986559 
L 683.664542 124.538815 
L 684.568239 124.15309 
L 685.471935 121.700019 
L 687.279328 119.858521 
L 689.086721 120.974027 
L 689.990417 120.730113 
L 690.894113 123.168841 
L 691.79781 122.237729 
L 692.701506 117.925426 
L 693.605203 119.910159 
L 694.508899 117.989166 
L 695.412595 118.102414 
L 696.316292 115.805574 
L 697.219988 117.432905 
L 698.123685 116.495696 
L 699.027381 116.842853 
L 699.931077 118.305903 
L 700.834774 117.124415 
L 701.73847 117.382505 
L 702.642167 118.271904 
L 703.545863 123.13519 
L 704.44956 123.887414 
L 705.353256 124.241113 
L 707.160649 128.094655 
L 708.064345 128.970262 
L 708.968042 126.706644 
L 709.871738 126.909665 
L 710.775434 129.374085 
L 711.679131 127.684849 
L 712.582827 129.300843 
L 713.486524 127.585239 
L 714.39022 130.790882 
L 716.197613 130.127283 
L 717.101309 128.91317 
L 718.005006 127.387328 
L 718.908702 129.44314 
L 719.812398 126.618329 
L 720.716095 126.356665 
L 721.619791 119.019989 
L 722.523488 119.644895 
L 723.427184 117.390075 
L 724.33088 116.149541 
L 725.234577 113.883876 
L 726.138273 114.794743 
L 727.04197 116.960092 
L 727.945666 118.789918 
L 728.849363 119.814806 
L 729.753059 119.658114 
L 730.656755 118.887003 
L 731.560452 123.357429 
L 733.367845 119.827776 
L 734.271541 120.085683 
L 735.175237 120.665848 
L 736.078934 120.311112 
L 736.98263 118.835687 
L 737.886327 122.364403 
L 738.790023 120.183613 
L 739.693719 125.818383 
L 740.597416 124.8018 
L 741.501112 127.99756 
L 742.404809 126.307223 
L 743.308505 127.260812 
L 744.212201 124.514751 
L 745.115898 120.857295 
L 746.019594 120.008927 
L 746.923291 119.885001 
L 747.826987 119.632226 
L 748.730683 122.026197 
L 749.63438 118.894849 
L 750.538076 120.081618 
L 751.441773 121.539479 
L 752.345469 121.885973 
L 753.249165 124.577444 
L 754.152862 127.83357 
L 755.056558 127.956467 
L 755.960255 125.888929 
L 756.863951 125.556012 
L 757.767648 124.019137 
L 758.671344 125.421252 
L 759.57504 124.770582 
L 760.478737 125.042123 
L 761.382433 125.704275 
L 762.28613 127.260037 
L 763.189826 130.524922 
L 764.093522 130.648256 
L 764.997219 128.617136 
L 765.900915 129.005956 
L 766.804612 127.919831 
L 767.708308 127.75385 
L 768.612004 125.819675 
L 769.515701 125.82483 
L 770.419397 126.203833 
L 771.323094 120.848833 
L 772.22679 117.693522 
L 773.130486 116.324816 
L 774.034183 116.02052 
L 774.937879 119.704874 
L 775.841576 120.648032 
L 776.745272 118.258991 
L 777.648968 118.241889 
L 778.552665 119.79053 
L 779.456361 118.728127 
L 780.360058 118.271541 
L 781.263754 117.615128 
L 782.167451 116.624657 
L 783.071147 117.380768 
L 783.974843 117.902512 
L 784.87854 114.579736 
L 785.782236 114.707302 
L 786.685933 114.71305 
L 787.589629 112.878259 
L 788.493325 111.896297 
L 789.397022 114.835755 
L 790.300718 116.237485 
L 792.108111 120.507391 
L 793.915504 116.498099 
L 794.8192 117.41105 
L 795.722897 116.379196 
L 796.626593 115.014087 
L 797.530289 116.206859 
L 798.433986 114.821382 
L 799.337682 113.931532 
L 800.241379 116.042582 
L 801.145075 116.398175 
L 802.048771 118.391966 
L 802.952468 120.87831 
L 803.856164 120.651393 
L 804.759861 123.613405 
L 805.663557 124.26577 
L 806.567253 126.845223 
L 807.47095 127.756752 
L 808.374646 124.752341 
L 809.278343 123.18999 
L 810.182039 123.927016 
L 811.085736 123.408771 
L 811.989432 123.077701 
L 813.796825 127.435949 
L 814.700521 127.955899 
L 815.604218 125.91391 
L 816.507914 127.723708 
L 817.41161 127.517038 
L 818.315307 123.435509 
L 819.219003 125.693772 
L 820.1227 121.920728 
L 821.026396 121.457129 
L 821.930092 121.455898 
L 822.833789 117.633013 
L 823.737485 117.990215 
L 824.641182 116.069799 
L 825.544878 115.245388 
L 826.448574 120.33138 
L 827.352271 120.803711 
L 828.255967 116.864353 
L 829.159664 116.756101 
L 830.06336 119.360178 
L 830.967056 115.5015 
L 831.870753 110.117497 
L 832.774449 109.13963 
L 833.678146 109.553756 
L 834.581842 108.828406 
L 835.485539 109.502715 
L 836.389235 112.323735 
L 837.292931 109.625341 
L 838.196628 110.187309 
L 839.100324 110.95668 
L 840.004021 112.051113 
L 840.907717 113.74938 
L 841.811413 114.37768 
L 842.71511 112.721733 
L 843.618806 111.982303 
L 844.522503 111.433351 
L 845.426199 113.314568 
L 846.329895 115.487701 
L 847.233592 114.511004 
L 848.137288 112.675306 
L 849.040985 113.673356 
L 849.944681 119.761915 
L 850.848377 124.252043 
L 851.752074 127.007883 
L 852.65577 127.606199 
L 853.559467 127.28283 
L 854.463163 128.354665 
L 855.366859 129.033729 
L 856.270556 133.506367 
L 857.174252 134.033566 
L 858.981645 133.096397 
L 859.885341 131.368696 
L 860.789038 133.162261 
L 861.692734 133.199157 
L 862.596431 129.218595 
L 863.500127 126.941123 
L 864.403824 125.824664 
L 865.30752 129.639015 
L 866.211216 130.265339 
L 867.114913 132.479667 
L 868.018609 127.910922 
L 868.922306 124.001871 
L 869.826002 119.427927 
L 870.729698 120.192597 
L 871.633395 121.693064 
L 872.537091 119.572567 
L 873.440788 119.077927 
L 874.344484 113.865992 
L 875.24818 111.875524 
L 876.151877 110.765078 
L 877.055573 110.966859 
L 877.95927 114.62099 
L 878.862966 115.583776 
L 879.766662 115.390252 
L 880.670359 118.075743 
L 881.574055 120.230776 
L 882.477752 119.898941 
L 883.381448 116.532085 
L 884.285144 114.72433 
L 885.188841 113.667241 
L 886.092537 117.63851 
L 886.996234 117.945744 
L 887.89993 120.677906 
L 888.803627 120.924314 
L 889.707323 118.916538 
L 890.611019 118.538513 
L 891.514716 121.297876 
L 892.418412 121.941407 
L 893.322109 121.696034 
L 894.225805 123.554744 
L 895.129501 123.593029 
L 896.936894 115.87149 
L 897.840591 117.816746 
L 898.744287 116.378715 
L 899.647983 111.315204 
L 900.55168 114.138445 
L 901.455376 119.077943 
L 903.262769 120.005034 
L 904.166465 114.875897 
L 905.070162 115.56554 
L 905.973858 111.155882 
L 906.877555 107.524536 
L 907.781251 108.511147 
L 908.684947 112.535456 
L 909.588644 105.553347 
L 911.396037 110.341786 
L 912.299733 109.671302 
L 913.203429 111.780643 
L 914.107126 113.56598 
L 915.010822 116.162901 
L 915.914519 113.181162 
L 916.818215 116.282641 
L 917.721912 120.902965 
L 918.625608 120.393415 
L 919.529304 113.568148 
L 920.433001 117.468751 
L 921.336697 117.493568 
L 922.240394 124.20009 
L 923.14409 124.911864 
L 924.047786 133.912833 
L 924.951483 137.872329 
L 925.855179 135.556374 
L 926.758876 130.748437 
L 927.662572 133.894345 
L 928.566268 133.195911 
L 929.469965 130.477888 
L 930.373661 132.11023 
L 931.277358 129.74175 
L 932.181054 127.020553 
L 933.08475 128.4 
L 933.988447 130.974495 
L 934.892143 126.848874 
L 936.699536 125.034389 
L 937.603232 127.443087 
L 938.506929 124.894821 
L 939.410625 125.437539 
L 940.314322 119.306296 
L 941.218018 116.32168 
L 942.121715 111.67683 
L 943.025411 109.43982 
L 943.929107 112.753355 
L 945.7365 118.40864 
L 946.640197 116.148574 
L 947.543893 120.367806 
L 948.447589 117.43288 
L 949.351286 115.781995 
L 950.254982 122.788956 
L 951.158679 122.885637 
L 952.062375 123.320245 
L 952.966071 125.581282 
L 953.869768 126.426304 
L 954.773464 124.287748 
L 955.677161 125.129363 
L 957.484553 116.257614 
L 958.38825 122.216053 
L 959.291946 125.463237 
L 960.195643 124.740953 
L 961.099339 123.600214 
L 962.003035 123.668222 
L 962.906732 123.312071 
L 963.810428 123.49977 
L 964.714125 124.122388 
L 965.617821 119.647364 
L 966.521517 120.429319 
L 967.425214 125.684796 
L 968.32891 119.427212 
L 969.232607 117.613658 
L 970.136303 115.016114 
L 971.943696 115.594573 
L 972.847392 116.531732 
L 973.751089 117.770037 
L 974.654785 125.320132 
L 975.558482 129.923246 
L 976.462178 122.609973 
L 977.365874 119.130487 
L 978.269571 118.732191 
L 979.173267 120.042382 
L 980.076964 118.76405 
L 980.98066 116.937615 
L 981.884356 114.363238 
L 982.788053 116.021078 
L 983.691749 121.125328 
L 984.595446 119.898605 
L 985.499142 116.686189 
L 986.402838 116.547585 
L 987.306535 115.622495 
L 988.210231 117.713402 
L 989.113928 117.914347 
L 990.017624 112.833209 
L 990.92132 115.936613 
L 991.825017 113.541491 
L 992.728713 109.142298 
L 993.63241 107.692454 
L 994.536106 114.149245 
L 995.439803 117.982237 
L 996.343499 120.151476 
L 997.247195 120.424687 
L 998.150892 120.077756 
L 999.054588 120.921267 
L 999.958285 121.925597 
L 1000.861981 122.119766 
L 1001.765677 117.790328 
L 1002.669374 120.326851 
L 1003.57307 119.145811 
L 1004.476767 121.779296 
L 1005.380463 123.886371 
L 1006.284159 122.319828 
L 1007.187856 120.070668 
L 1008.091552 128.133843 
L 1008.995249 124.680639 
L 1009.898945 124.64923 
L 1009.898945 124.64923 
" clip-path="url(#p47b698b9f6)" style="fill: none; stroke: #5dc694; stroke-width: 1.5; stroke-linecap: square"/>
   </g>
   <g id="patch_3">
    <path d="M 99.47 228.04 
L 99.47 19.624313 
" style="fill: none; stroke: #000000; stroke-width: 0.8; stroke-linejoin: miter; stroke-linecap: square"/>
   </g>
   <g id="patch_4">
    <path d="M 1062.72 228.04 
L 1062.72 19.624313 
" style="fill: none; stroke: #000000; stroke-width: 0.8; stroke-linejoin: miter; stroke-linecap: square"/>
   </g>
   <g id="patch_5">
    <path d="M 99.47 228.04 
L 1062.72 228.04 
" style="fill: none; stroke: #000000; stroke-width: 0.8; stroke-linejoin: miter; stroke-linecap: square"/>
   </g>
   <g id="patch_6">
    <path d="M 99.47 19.624313 
L 1062.72 19.624313 
" style="fill: none; stroke: #000000; stroke-width: 0.8; stroke-linejoin: miter; stroke-linecap: square"/>
   </g>
   <g id="legend_1">
    <g id="patch_7">
     <path d="M 854.2975 78.949313 
L 1051.52 78.949313 
Q 1054.72 78.949313 1054.72 75.749313 
L 1054.72 30.824313 
Q 1054.72 27.624313 1051.52 27.624313 
L 854.2975 27.624313 
Q 851.0975 27.624313 851.0975 30.824313 
L 851.0975 75.749313 
Q 851.0975 78.949313 854.2975 78.949313 
z
" style="fill: #ffffff; opacity: 0.8; stroke: #cccccc; stroke-linejoin: miter"/>
    </g>
    <g id="line2d_13">
     <path d="M 857.4975 39.784313 
L 873.4975 39.784313 
L 889.4975 39.784313 
" style="fill: none; stroke: #d2dbe0; stroke-width: 1.5; stroke-linecap: square"/>
    </g>
    <g id="text_13">
     <!-- 1st. Difference -->
     <g transform="translate(902.2975 45.384313) scale(0.16 -0.16)">
      <use xlink:href="#Bahnschrift-31"/>
      <use xlink:href="#Bahnschrift-73" x="33.251953"/>
      <use xlink:href="#Bahnschrift-74" x="85.107422"/>
      <use xlink:href="#Bahnschrift-2e" x="117.724609"/>
      <use xlink:href="#Bahnschrift-20" x="140.380859"/>
      <use xlink:href="#Bahnschrift-44" x="167.236328"/>
      <use xlink:href="#Bahnschrift-69" x="232.861328"/>
      <use xlink:href="#Bahnschrift-66" x="257.958984"/>
      <use xlink:href="#Bahnschrift-66" x="289.648438"/>
      <use xlink:href="#Bahnschrift-65" x="321.337891"/>
      <use xlink:href="#Bahnschrift-72" x="374.951172"/>
      <use xlink:href="#Bahnschrift-65" x="417.626953"/>
      <use xlink:href="#Bahnschrift-6e" x="471.240234"/>
      <use xlink:href="#Bahnschrift-63" x="527.099609"/>
      <use xlink:href="#Bahnschrift-65" x="576.904297"/>
     </g>
    </g>
    <g id="line2d_14">
     <path d="M 857.4975 63.651813 
L 873.4975 63.651813 
L 889.4975 63.651813 
" style="fill: none; stroke: #5dc694; stroke-width: 1.5; stroke-linecap: square"/>
    </g>
    <g id="text_14">
     <!-- Rolling Average (20) -->
     <g transform="translate(902.2975 69.251813) scale(0.16 -0.16)">
      <defs>
       <path id="Bahnschrift-52" d="M 841 1922 
L 841 2528 
L 2391 2528 
Q 2669 2528 2837 2722 
Q 3006 2916 3006 3234 
L 3006 3234 
Q 3006 3553 2837 3747 
Q 2669 3941 2391 3941 
L 841 3941 
L 841 4547 
L 2366 4547 
Q 2763 4547 3059 4383 
Q 3356 4219 3520 3925 
Q 3684 3631 3684 3234 
L 3684 3234 
Q 3684 2841 3518 2545 
Q 3353 2250 3058 2086 
Q 2763 1922 2366 1922 
L 841 1922 
z
M 563 0 
L 563 4547 
L 1200 4547 
L 1200 0 
L 563 0 
z
M 3119 0 
L 2078 2063 
L 2713 2206 
L 3875 0 
L 3119 0 
z
" transform="scale(0.015625)"/>
       <path id="Bahnschrift-6c" d="M 1138 4544 
L 1138 838 
Q 1138 722 1189 656 
Q 1241 591 1334 591 
L 1634 591 
L 1634 -16 
L 1259 -16 
Q 900 -16 700 209 
Q 500 434 500 844 
L 500 4544 
L 1138 4544 
z
" transform="scale(0.015625)"/>
       <path id="Bahnschrift-67" d="M 1588 -1319 
Q 1222 -1319 933 -1183 
Q 644 -1047 484 -800 
L 484 -800 
L 916 -409 
L 916 -409 
Q 1041 -581 1214 -675 
Q 1388 -769 1578 -769 
Q 1944 -769 2144 -567 
Q 2344 -366 2344 3 
L 2344 3244 
L 2981 3244 
L 2981 97 
Q 2981 -578 2617 -948 
Q 2253 -1319 1588 -1319 
z
M 1528 -56 
Q 991 -56 698 289 
Q 406 634 406 1263 
L 406 1978 
Q 406 2609 692 2954 
Q 978 3300 1497 3300 
Q 1784 3300 2023 3150 
Q 2263 3000 2409 2728 
L 2344 2066 
Q 2344 2272 2269 2419 
Q 2194 2566 2051 2642 
Q 1909 2719 1706 2719 
Q 1391 2719 1217 2522 
Q 1044 2325 1044 1969 
L 1044 1263 
Q 1044 909 1217 717 
Q 1391 525 1706 525 
Q 1909 525 2051 604 
Q 2194 684 2269 834 
Q 2344 984 2344 1194 
L 2388 509 
Q 2300 291 2086 117 
Q 1872 -56 1528 -56 
z
" transform="scale(0.015625)"/>
       <path id="Bahnschrift-41" d="M 125 0 
L 1800 4544 
L 2344 4544 
L 4019 0 
L 3331 0 
L 2072 3666 
L 813 0 
L 125 0 
z
M 897 997 
L 897 1603 
L 3288 1603 
L 3288 997 
L 897 997 
z
" transform="scale(0.015625)"/>
       <path id="Bahnschrift-76" d="M 1616 928 
L 2409 3244 
L 3075 3244 
L 1856 0 
L 1375 0 
L 156 3244 
L 822 3244 
L 1616 928 
z
" transform="scale(0.015625)"/>
       <path id="Bahnschrift-28" d="M 1672 -978 
Q 1116 -375 839 373 
Q 563 1122 563 2025 
Q 563 2928 839 3676 
Q 1116 4425 1672 5028 
L 2109 4631 
Q 1638 4106 1403 3456 
Q 1169 2806 1169 2025 
Q 1169 1244 1403 594 
Q 1638 -56 2109 -584 
L 1672 -978 
z
" transform="scale(0.015625)"/>
       <path id="Bahnschrift-29" d="M 500 -978 
L 63 -584 
Q 534 -56 768 594 
Q 1003 1244 1003 2025 
Q 1003 2806 768 3456 
Q 534 4106 63 4631 
L 500 5028 
Q 1056 4425 1332 3676 
Q 1609 2928 1609 2025 
Q 1609 1122 1332 373 
Q 1056 -375 500 -978 
z
" transform="scale(0.015625)"/>
      </defs>
      <use xlink:href="#Bahnschrift-52"/>
      <use xlink:href="#Bahnschrift-6f" x="65.185547"/>
      <use xlink:href="#Bahnschrift-6c" x="119.677734"/>
      <use xlink:href="#Bahnschrift-6c" x="148.632812"/>
      <use xlink:href="#Bahnschrift-69" x="177.587891"/>
      <use xlink:href="#Bahnschrift-6e" x="202.685547"/>
      <use xlink:href="#Bahnschrift-67" x="258.544922"/>
      <use xlink:href="#Bahnschrift-20" x="312.451172"/>
      <use xlink:href="#Bahnschrift-41" x="339.306641"/>
      <use xlink:href="#Bahnschrift-76" x="404.052734"/>
      <use xlink:href="#Bahnschrift-65" x="454.052734"/>
      <use xlink:href="#Bahnschrift-72" x="507.666016"/>
      <use xlink:href="#Bahnschrift-61" x="550.341797"/>
      <use xlink:href="#Bahnschrift-67" x="603.564453"/>
      <use xlink:href="#Bahnschrift-65" x="657.470703"/>
      <use xlink:href="#Bahnschrift-20" x="711.083984"/>
      <use xlink:href="#Bahnschrift-28" x="737.939453"/>
      <use xlink:href="#Bahnschrift-32" x="771.875"/>
      <use xlink:href="#Bahnschrift-30" x="823.535156"/>
      <use xlink:href="#Bahnschrift-29" x="878.710938"/>
     </g>
    </g>
   </g>
  </g>
 </g>
 <defs>
  <clipPath id="p47b698b9f6">
   <rect x="99.47" y="19.624313" width="963.25" height="208.415687"/>
  </clipPath>
 </defs>
</svg>
