<?xml version="1.0" encoding="utf-8" standalone="no"?>
<!DOCTYPE svg PUBLIC "-//W3C//DTD SVG 1.1//EN"
  "http://www.w3.org/Graphics/SVG/1.1/DTD/svg11.dtd">
<svg xmlns:xlink="http://www.w3.org/1999/xlink" width="1080pt" height="288pt" viewBox="0 0 1080 288" xmlns="http://www.w3.org/2000/svg" version="1.1">
 <metadata>
  <rdf:RDF xmlns:dc="http://purl.org/dc/elements/1.1/" xmlns:cc="http://creativecommons.org/ns#" xmlns:rdf="http://www.w3.org/1999/02/22-rdf-syntax-ns#">
   <cc:Work>
    <dc:type rdf:resource="http://purl.org/dc/dcmitype/StillImage"/>
    <dc:date>2024-05-29T19:41:00.114783</dc:date>
    <dc:format>image/svg+xml</dc:format>
    <dc:creator>
     <cc:Agent>
      <dc:title>Matplotlib v3.8.2, https://matplotlib.org/</dc:title>
     </cc:Agent>
    </dc:creator>
   </cc:Work>
  </rdf:RDF>
 </metadata>
 <defs>
  <style type="text/css">*{stroke-linejoin: round; stroke-linecap: butt}</style>
 </defs>
 <g id="figure_1">
  <g id="patch_1">
   <path d="M 0 288 
L 1080 288 
L 1080 0 
L 0 0 
z
" style="fill: #ffffff"/>
  </g>
  <g id="axes_1">
   <g id="patch_2">
    <path d="M 99.47 228.04 
L 1062.72 228.04 
L 1062.72 17.28 
L 99.47 17.28 
z
" style="fill: #ffffff"/>
   </g>
   <g id="matplotlib.axis_1">
    <g id="xtick_1">
     <g id="line2d_1">
      <defs>
       <path id="m8a9b268234" d="M 0 0 
L 0 3.5 
" style="stroke: #000000; stroke-width: 0.8"/>
      </defs>
      <g>
       <use xlink:href="#m8a9b268234" x="115.860499" y="228.04" style="stroke: #000000; stroke-width: 0.8"/>
      </g>
     </g>
     <g id="text_1">
      <!-- 0 -->
      <g transform="translate(111.446749 246.4) scale(0.16 -0.16)">
       <defs>
        <path id="Bahnschrift-30" d="M 1766 -47 
Q 1116 -47 792 301 
Q 469 650 469 1244 
L 469 3309 
Q 469 3913 797 4256 
Q 1125 4600 1766 4600 
Q 2409 4600 2736 4258 
Q 3063 3916 3063 3309 
L 3063 1244 
Q 3063 641 2736 297 
Q 2409 -47 1766 -47 
z
M 1766 559 
Q 2116 559 2270 742 
Q 2425 925 2425 1244 
L 2425 3309 
Q 2425 3631 2270 3812 
Q 2116 3994 1766 3994 
Q 1416 3994 1261 3812 
Q 1106 3631 1106 3309 
L 1106 1244 
Q 1106 925 1261 742 
Q 1416 559 1766 559 
z
" transform="scale(0.015625)"/>
       </defs>
       <use xlink:href="#Bahnschrift-30"/>
      </g>
     </g>
    </g>
    <g id="xtick_2">
     <g id="line2d_2">
      <g>
       <use xlink:href="#m8a9b268234" x="298.484444" y="228.04" style="stroke: #000000; stroke-width: 0.8"/>
      </g>
     </g>
     <g id="text_2">
      <!-- 20000 -->
      <g transform="translate(276.696944 246.4) scale(0.16 -0.16)">
       <defs>
        <path id="Bahnschrift-32" d="M 400 0 
L 400 553 
L 1984 2666 
Q 2122 2847 2198 3040 
Q 2275 3234 2275 3406 
L 2275 3413 
Q 2275 3684 2115 3834 
Q 1956 3984 1663 3984 
Q 1388 3984 1214 3820 
Q 1041 3656 1003 3356 
L 1003 3353 
L 344 3353 
L 344 3356 
Q 428 3944 772 4267 
Q 1116 4591 1656 4591 
Q 2269 4591 2603 4281 
Q 2938 3972 2938 3406 
L 2938 3403 
Q 2938 3163 2838 2898 
Q 2738 2634 2559 2394 
L 1244 606 
L 2963 606 
L 2963 0 
L 400 0 
z
" transform="scale(0.015625)"/>
       </defs>
       <use xlink:href="#Bahnschrift-32"/>
       <use xlink:href="#Bahnschrift-30" x="51.660156"/>
       <use xlink:href="#Bahnschrift-30" x="106.835938"/>
       <use xlink:href="#Bahnschrift-30" x="162.011719"/>
       <use xlink:href="#Bahnschrift-30" x="217.1875"/>
      </g>
     </g>
    </g>
    <g id="xtick_3">
     <g id="line2d_3">
      <g>
       <use xlink:href="#m8a9b268234" x="481.10839" y="228.04" style="stroke: #000000; stroke-width: 0.8"/>
      </g>
     </g>
     <g id="text_3">
      <!-- 40000 -->
      <g transform="translate(458.90214 246.4) scale(0.16 -0.16)">
       <defs>
        <path id="Bahnschrift-34" d="M 406 697 
L 406 1250 
L 1931 4541 
L 2588 4541 
L 1100 1288 
L 3328 1288 
L 3328 697 
L 406 697 
z
M 2366 -3 
L 2366 2672 
L 2988 2672 
L 2988 -3 
L 2366 -3 
z
" transform="scale(0.015625)"/>
       </defs>
       <use xlink:href="#Bahnschrift-34"/>
       <use xlink:href="#Bahnschrift-30" x="56.884766"/>
       <use xlink:href="#Bahnschrift-30" x="112.060547"/>
       <use xlink:href="#Bahnschrift-30" x="167.236328"/>
       <use xlink:href="#Bahnschrift-30" x="222.412109"/>
      </g>
     </g>
    </g>
    <g id="xtick_4">
     <g id="line2d_4">
      <g>
       <use xlink:href="#m8a9b268234" x="663.732335" y="228.04" style="stroke: #000000; stroke-width: 0.8"/>
      </g>
     </g>
     <g id="text_4">
      <!-- 60000 -->
      <g transform="translate(641.972335 246.4) scale(0.16 -0.16)">
       <defs>
        <path id="Bahnschrift-36" d="M 1641 -47 
Q 1038 -47 706 312 
Q 375 672 375 1325 
L 375 1328 
Q 375 1622 456 1951 
Q 538 2281 691 2588 
L 1678 4544 
L 2366 4544 
L 1206 2278 
L 1209 2391 
Q 1372 2700 1788 2700 
Q 2322 2700 2615 2345 
Q 2909 1991 2909 1344 
L 2909 1341 
Q 2909 681 2578 317 
Q 2247 -47 1641 -47 
z
M 1641 566 
Q 1947 566 2109 753 
Q 2272 941 2272 1288 
L 2272 1291 
Q 2272 1672 2100 1880 
Q 1928 2088 1609 2088 
Q 1325 2088 1169 1878 
Q 1013 1669 1013 1288 
L 1013 1284 
Q 1013 938 1177 752 
Q 1341 566 1641 566 
z
" transform="scale(0.015625)"/>
       </defs>
       <use xlink:href="#Bahnschrift-36"/>
       <use xlink:href="#Bahnschrift-30" x="51.318359"/>
       <use xlink:href="#Bahnschrift-30" x="106.494141"/>
       <use xlink:href="#Bahnschrift-30" x="161.669922"/>
       <use xlink:href="#Bahnschrift-30" x="216.845703"/>
      </g>
     </g>
    </g>
    <g id="xtick_5">
     <g id="line2d_5">
      <g>
       <use xlink:href="#m8a9b268234" x="846.356281" y="228.04" style="stroke: #000000; stroke-width: 0.8"/>
      </g>
     </g>
     <g id="text_5">
      <!-- 80000 -->
      <g transform="translate(824.201281 246.4) scale(0.16 -0.16)">
       <defs>
        <path id="Bahnschrift-38" d="M 1800 -47 
Q 1384 -47 1075 109 
Q 766 266 594 550 
Q 422 834 422 1216 
L 422 1291 
Q 422 1631 592 1931 
Q 763 2231 1047 2384 
Q 809 2516 662 2764 
Q 516 3013 516 3288 
L 516 3397 
Q 516 3938 867 4264 
Q 1219 4591 1800 4591 
Q 2381 4591 2732 4264 
Q 3084 3938 3084 3397 
L 3084 3288 
Q 3084 3006 2936 2759 
Q 2788 2513 2544 2384 
Q 2831 2231 3004 1931 
Q 3178 1631 3178 1291 
L 3178 1216 
Q 3178 834 3006 550 
Q 2834 266 2525 109 
Q 2216 -47 1800 -47 
z
M 1800 566 
Q 2134 566 2339 758 
Q 2544 950 2544 1263 
L 2544 1306 
Q 2544 1622 2339 1814 
Q 2134 2006 1800 2006 
Q 1466 2006 1261 1814 
Q 1056 1622 1056 1303 
L 1056 1256 
Q 1056 944 1261 755 
Q 1466 566 1800 566 
z
M 1800 2619 
Q 2091 2619 2269 2803 
Q 2447 2988 2447 3291 
L 2447 3334 
Q 2447 3625 2269 3801 
Q 2091 3978 1800 3978 
Q 1509 3978 1331 3801 
Q 1153 3625 1153 3331 
L 1153 3284 
Q 1153 2984 1331 2801 
Q 1509 2619 1800 2619 
z
" transform="scale(0.015625)"/>
       </defs>
       <use xlink:href="#Bahnschrift-38"/>
       <use xlink:href="#Bahnschrift-30" x="56.25"/>
       <use xlink:href="#Bahnschrift-30" x="111.425781"/>
       <use xlink:href="#Bahnschrift-30" x="166.601562"/>
       <use xlink:href="#Bahnschrift-30" x="221.777344"/>
      </g>
     </g>
    </g>
    <g id="xtick_6">
     <g id="line2d_6">
      <g>
       <use xlink:href="#m8a9b268234" x="1028.980226" y="228.04" style="stroke: #000000; stroke-width: 0.8"/>
      </g>
     </g>
     <g id="text_6">
      <!-- 100000 -->
      <g transform="translate(1004.251476 246.4) scale(0.16 -0.16)">
       <defs>
        <path id="Bahnschrift-31" d="M 1566 4544 
L 1566 0 
L 928 0 
L 928 3850 
L 281 3453 
L 281 4113 
L 928 4544 
L 1566 4544 
z
" transform="scale(0.015625)"/>
       </defs>
       <use xlink:href="#Bahnschrift-31"/>
       <use xlink:href="#Bahnschrift-30" x="33.251953"/>
       <use xlink:href="#Bahnschrift-30" x="88.427734"/>
       <use xlink:href="#Bahnschrift-30" x="143.603516"/>
       <use xlink:href="#Bahnschrift-30" x="198.779297"/>
       <use xlink:href="#Bahnschrift-30" x="253.955078"/>
      </g>
     </g>
    </g>
    <g id="text_7">
     <!-- Number of Sites -->
     <g transform="translate(522.96625 265.0575) scale(0.16 -0.16)">
      <defs>
       <path id="Bahnschrift-4e" d="M 563 3 
L 563 4544 
L 1141 4544 
L 3363 1031 
L 3288 950 
L 3288 4544 
L 3919 4544 
L 3919 3 
L 3334 3 
L 1119 3463 
L 1194 3544 
L 1194 3 
L 563 3 
z
" transform="scale(0.015625)"/>
       <path id="Bahnschrift-75" d="M 2456 0 
L 2456 3244 
L 3091 3244 
L 3091 0 
L 2456 0 
z
M 1138 3244 
L 1138 1272 
Q 1138 931 1311 745 
Q 1484 559 1800 559 
Q 2116 559 2286 726 
Q 2456 894 2456 1197 
L 2500 519 
Q 2413 300 2194 126 
Q 1975 -47 1622 -47 
Q 1084 -47 792 298 
Q 500 644 500 1272 
L 500 3244 
L 1138 3244 
z
" transform="scale(0.015625)"/>
       <path id="Bahnschrift-6d" d="M 4375 0 
L 4375 1966 
Q 4375 2309 4198 2496 
Q 4022 2684 3697 2684 
Q 3400 2684 3237 2503 
Q 3075 2322 3075 1991 
L 2947 2616 
Q 3103 2941 3353 3116 
Q 3603 3291 3906 3291 
Q 4434 3291 4723 2945 
Q 5013 2600 5013 1969 
L 5013 0 
L 4375 0 
z
M 500 0 
L 500 3244 
L 1138 3244 
L 1138 0 
L 500 0 
z
M 2438 0 
L 2438 1966 
Q 2438 2309 2269 2496 
Q 2100 2684 1791 2684 
Q 1478 2684 1308 2518 
Q 1138 2353 1138 2053 
L 1072 2678 
Q 1222 2972 1464 3131 
Q 1706 3291 2000 3291 
Q 2513 3291 2794 2945 
Q 3075 2600 3075 1969 
L 3075 0 
L 2438 0 
z
" transform="scale(0.015625)"/>
       <path id="Bahnschrift-62" d="M 1953 -47 
Q 1650 -47 1425 98 
Q 1200 244 1094 509 
L 1138 1188 
Q 1138 978 1213 831 
Q 1288 684 1430 606 
Q 1572 528 1775 528 
Q 2091 528 2264 720 
Q 2438 913 2438 1263 
L 2438 1966 
Q 2438 2322 2264 2519 
Q 2091 2716 1775 2716 
Q 1572 2716 1430 2641 
Q 1288 2566 1213 2422 
Q 1138 2278 1138 2072 
L 1072 2697 
Q 1219 2981 1456 3136 
Q 1694 3291 1984 3291 
Q 2506 3291 2790 2945 
Q 3075 2600 3075 1969 
L 3075 1263 
Q 3075 641 2781 297 
Q 2488 -47 1953 -47 
z
M 500 0 
L 500 4544 
L 1138 4544 
L 1138 0 
L 500 0 
z
" transform="scale(0.015625)"/>
       <path id="Bahnschrift-65" d="M 1828 -47 
Q 1150 -47 778 331 
Q 406 709 406 1406 
L 406 1772 
Q 406 2497 764 2894 
Q 1122 3291 1772 3291 
Q 2384 3291 2720 2841 
Q 3056 2391 3056 1578 
L 3056 1366 
L 869 1366 
L 869 1878 
L 2450 1878 
L 2450 1878 
Q 2422 2272 2245 2494 
Q 2069 2716 1772 2716 
Q 1413 2716 1213 2478 
Q 1013 2241 1013 1806 
L 1013 1394 
Q 1013 991 1227 775 
Q 1441 559 1828 559 
Q 2022 559 2212 637 
Q 2403 716 2553 856 
L 2553 856 
L 2972 438 
L 2972 438 
Q 2731 206 2431 79 
Q 2131 -47 1828 -47 
z
" transform="scale(0.015625)"/>
       <path id="Bahnschrift-72" d="M 500 0 
L 500 3244 
L 1138 3244 
L 1138 0 
L 500 0 
z
M 2284 2475 
Q 2200 2578 2072 2631 
Q 1944 2684 1775 2684 
Q 1472 2684 1305 2517 
Q 1138 2350 1138 2053 
L 1072 2678 
Q 1219 2966 1458 3128 
Q 1697 3291 1984 3291 
Q 2206 3291 2386 3227 
Q 2566 3163 2700 3038 
L 2284 2475 
z
" transform="scale(0.015625)"/>
       <path id="Bahnschrift-20" transform="scale(0.015625)"/>
       <path id="Bahnschrift-6f" d="M 1744 -47 
Q 1106 -47 756 323 
Q 406 694 406 1366 
L 406 1894 
Q 406 2559 756 2925 
Q 1106 3291 1744 3291 
Q 2381 3291 2731 2925 
Q 3081 2559 3081 1894 
L 3081 1356 
Q 3081 688 2731 320 
Q 2381 -47 1744 -47 
z
M 1744 559 
Q 2078 559 2261 768 
Q 2444 978 2444 1356 
L 2444 1894 
Q 2444 2272 2261 2478 
Q 2078 2684 1744 2684 
Q 1413 2684 1228 2478 
Q 1044 2272 1044 1894 
L 1044 1356 
Q 1044 978 1228 768 
Q 1413 559 1744 559 
z
" transform="scale(0.015625)"/>
       <path id="Bahnschrift-66" d="M 594 0 
L 594 3684 
Q 594 4113 791 4328 
Q 988 4544 1403 4544 
L 1872 4544 
L 1872 3938 
L 1416 3938 
Q 1319 3938 1275 3864 
Q 1231 3791 1231 3691 
L 1231 0 
L 594 0 
z
M 250 2700 
L 250 3244 
L 1872 3244 
L 1872 2700 
L 250 2700 
z
" transform="scale(0.015625)"/>
       <path id="Bahnschrift-53" d="M 1928 -47 
Q 1597 -47 1305 15 
Q 1013 78 758 203 
Q 503 328 281 516 
L 281 516 
L 678 1003 
L 678 1003 
Q 938 778 1250 665 
Q 1563 553 1928 553 
Q 2422 553 2694 737 
Q 2966 922 2966 1253 
L 2966 1256 
Q 2966 1516 2828 1653 
Q 2691 1791 2467 1858 
Q 2244 1925 1978 1969 
Q 1722 2013 1461 2072 
Q 1200 2131 981 2257 
Q 763 2384 630 2621 
Q 497 2859 497 3256 
L 497 3259 
Q 497 3894 919 4242 
Q 1341 4591 2109 4591 
Q 2475 4591 2825 4473 
Q 3175 4356 3506 4116 
L 3506 4116 
L 3144 3609 
L 3144 3609 
Q 2884 3803 2626 3897 
Q 2369 3991 2109 3991 
Q 1644 3991 1386 3805 
Q 1128 3619 1128 3278 
L 1128 3275 
Q 1128 3019 1278 2884 
Q 1428 2750 1670 2686 
Q 1913 2622 2191 2566 
Q 2441 2516 2691 2445 
Q 2941 2375 3145 2242 
Q 3350 2109 3473 1878 
Q 3597 1647 3597 1275 
L 3597 1269 
Q 3597 641 3159 297 
Q 2722 -47 1928 -47 
z
" transform="scale(0.015625)"/>
       <path id="Bahnschrift-69" d="M 500 3906 
L 500 4544 
L 1138 4544 
L 1138 3906 
L 500 3906 
z
M 500 0 
L 500 3244 
L 1138 3244 
L 1138 0 
L 500 0 
z
" transform="scale(0.015625)"/>
       <path id="Bahnschrift-74" d="M 1344 -16 
Q 944 -16 764 206 
Q 584 428 584 844 
L 584 4188 
L 1222 4188 
L 1222 838 
Q 1222 722 1269 656 
Q 1316 591 1406 591 
L 1713 591 
L 1713 -16 
L 1344 -16 
z
M 250 2669 
L 250 3244 
L 1713 3244 
L 1713 2669 
L 250 2669 
z
" transform="scale(0.015625)"/>
       <path id="Bahnschrift-73" d="M 1647 -47 
Q 1216 -47 864 79 
Q 513 206 234 459 
L 234 459 
L 613 925 
L 613 925 
Q 878 725 1136 625 
Q 1394 525 1647 525 
Q 2025 525 2214 642 
Q 2403 759 2403 994 
Q 2403 1175 2276 1250 
Q 2150 1325 1945 1348 
Q 1741 1372 1506 1388 
Q 1309 1403 1115 1436 
Q 922 1469 762 1555 
Q 603 1641 508 1809 
Q 413 1978 413 2263 
Q 413 2778 728 3034 
Q 1044 3291 1669 3291 
Q 2050 3291 2378 3187 
Q 2706 3084 2994 2872 
L 2994 2872 
L 2609 2406 
L 2609 2406 
Q 2366 2563 2130 2641 
Q 1894 2719 1669 2719 
Q 1344 2719 1181 2608 
Q 1019 2497 1019 2275 
Q 1019 2128 1131 2064 
Q 1244 2000 1428 1981 
Q 1613 1963 1825 1947 
Q 2028 1934 2236 1901 
Q 2444 1869 2619 1775 
Q 2794 1681 2900 1497 
Q 3006 1313 3006 994 
Q 3006 472 2667 212 
Q 2328 -47 1647 -47 
z
" transform="scale(0.015625)"/>
      </defs>
      <use xlink:href="#Bahnschrift-4e"/>
      <use xlink:href="#Bahnschrift-75" x="70.019531"/>
      <use xlink:href="#Bahnschrift-6d" x="125.634766"/>
      <use xlink:href="#Bahnschrift-62" x="211.279297"/>
      <use xlink:href="#Bahnschrift-65" x="265.673828"/>
      <use xlink:href="#Bahnschrift-72" x="319.287109"/>
      <use xlink:href="#Bahnschrift-20" x="361.962891"/>
      <use xlink:href="#Bahnschrift-6f" x="388.818359"/>
      <use xlink:href="#Bahnschrift-66" x="443.310547"/>
      <use xlink:href="#Bahnschrift-20" x="475"/>
      <use xlink:href="#Bahnschrift-53" x="501.855469"/>
      <use xlink:href="#Bahnschrift-69" x="563.427734"/>
      <use xlink:href="#Bahnschrift-74" x="588.525391"/>
      <use xlink:href="#Bahnschrift-65" x="621.142578"/>
      <use xlink:href="#Bahnschrift-73" x="674.755859"/>
     </g>
    </g>
   </g>
   <g id="matplotlib.axis_2">
    <g id="ytick_1">
     <g id="line2d_7">
      <defs>
       <path id="m09f67b7424" d="M 0 0 
L -3.5 0 
" style="stroke: #000000; stroke-width: 0.8"/>
      </defs>
      <g>
       <use xlink:href="#m09f67b7424" x="99.47" y="203.7306" style="stroke: #000000; stroke-width: 0.8"/>
      </g>
     </g>
     <g id="text_8">
      <!-- -0.0010 -->
      <g transform="translate(40.5425 209.4106) scale(0.16 -0.16)">
       <defs>
        <path id="Bahnschrift-2d" d="M 500 1931 
L 2600 1931 
L 2600 1325 
L 500 1325 
L 500 1931 
z
" transform="scale(0.015625)"/>
        <path id="Bahnschrift-2e" d="M 391 0 
L 391 669 
L 1059 669 
L 1059 0 
L 391 0 
z
" transform="scale(0.015625)"/>
       </defs>
       <use xlink:href="#Bahnschrift-2d"/>
       <use xlink:href="#Bahnschrift-30" x="47.949219"/>
       <use xlink:href="#Bahnschrift-2e" x="103.125"/>
       <use xlink:href="#Bahnschrift-30" x="125.78125"/>
       <use xlink:href="#Bahnschrift-30" x="180.957031"/>
       <use xlink:href="#Bahnschrift-31" x="236.132812"/>
       <use xlink:href="#Bahnschrift-30" x="269.384766"/>
      </g>
     </g>
    </g>
    <g id="ytick_2">
     <g id="line2d_8">
      <g>
       <use xlink:href="#m09f67b7424" x="99.47" y="165.927559" style="stroke: #000000; stroke-width: 0.8"/>
      </g>
     </g>
     <g id="text_9">
      <!-- -0.0005 -->
      <g transform="translate(37.1525 171.607559) scale(0.16 -0.16)">
       <defs>
        <path id="Bahnschrift-35" d="M 1738 -47 
Q 1219 -47 886 251 
Q 553 550 469 1094 
L 469 1097 
L 1106 1097 
L 1106 1094 
Q 1141 844 1306 705 
Q 1472 566 1738 566 
Q 2044 566 2211 770 
Q 2378 975 2378 1347 
L 2378 1728 
Q 2378 2100 2211 2303 
Q 2044 2506 1738 2506 
Q 1572 2506 1419 2412 
Q 1266 2319 1150 2150 
L 569 2150 
L 569 4544 
L 2884 4544 
L 2884 3938 
L 1206 3938 
L 1206 2916 
Q 1325 3013 1472 3066 
Q 1619 3119 1772 3119 
Q 2366 3119 2691 2755 
Q 3016 2391 3016 1728 
L 3016 1347 
Q 3016 681 2681 317 
Q 2347 -47 1738 -47 
z
" transform="scale(0.015625)"/>
       </defs>
       <use xlink:href="#Bahnschrift-2d"/>
       <use xlink:href="#Bahnschrift-30" x="47.949219"/>
       <use xlink:href="#Bahnschrift-2e" x="103.125"/>
       <use xlink:href="#Bahnschrift-30" x="125.78125"/>
       <use xlink:href="#Bahnschrift-30" x="180.957031"/>
       <use xlink:href="#Bahnschrift-30" x="236.132812"/>
       <use xlink:href="#Bahnschrift-35" x="291.308594"/>
      </g>
     </g>
    </g>
    <g id="ytick_3">
     <g id="line2d_9">
      <g>
       <use xlink:href="#m09f67b7424" x="99.47" y="128.124518" style="stroke: #000000; stroke-width: 0.8"/>
      </g>
     </g>
     <g id="text_10">
      <!-- 0.0000 -->
      <g transform="translate(44.7075 133.804518) scale(0.16 -0.16)">
       <use xlink:href="#Bahnschrift-30"/>
       <use xlink:href="#Bahnschrift-2e" x="55.175781"/>
       <use xlink:href="#Bahnschrift-30" x="77.832031"/>
       <use xlink:href="#Bahnschrift-30" x="133.007812"/>
       <use xlink:href="#Bahnschrift-30" x="188.183594"/>
       <use xlink:href="#Bahnschrift-30" x="243.359375"/>
      </g>
     </g>
    </g>
    <g id="ytick_4">
     <g id="line2d_10">
      <g>
       <use xlink:href="#m09f67b7424" x="99.47" y="90.321478" style="stroke: #000000; stroke-width: 0.8"/>
      </g>
     </g>
     <g id="text_11">
      <!-- 0.0005 -->
      <g transform="translate(44.825 96.001478) scale(0.16 -0.16)">
       <use xlink:href="#Bahnschrift-30"/>
       <use xlink:href="#Bahnschrift-2e" x="55.175781"/>
       <use xlink:href="#Bahnschrift-30" x="77.832031"/>
       <use xlink:href="#Bahnschrift-30" x="133.007812"/>
       <use xlink:href="#Bahnschrift-30" x="188.183594"/>
       <use xlink:href="#Bahnschrift-35" x="243.359375"/>
      </g>
     </g>
    </g>
    <g id="ytick_5">
     <g id="line2d_11">
      <g>
       <use xlink:href="#m09f67b7424" x="99.47" y="52.518437" style="stroke: #000000; stroke-width: 0.8"/>
      </g>
     </g>
     <g id="text_12">
      <!-- 0.0010 -->
      <g transform="translate(48.215 58.198437) scale(0.16 -0.16)">
       <use xlink:href="#Bahnschrift-30"/>
       <use xlink:href="#Bahnschrift-2e" x="55.175781"/>
       <use xlink:href="#Bahnschrift-30" x="77.832031"/>
       <use xlink:href="#Bahnschrift-30" x="133.007812"/>
       <use xlink:href="#Bahnschrift-31" x="188.183594"/>
       <use xlink:href="#Bahnschrift-30" x="221.435547"/>
      </g>
     </g>
    </g>
    <g id="text_13">
     <!-- 2nd. Difference, mean: 0.00000 -->
     <g transform="translate(29.855 232.68) rotate(-90) scale(0.16 -0.16)">
      <defs>
       <path id="Bahnschrift-6e" d="M 500 0 
L 500 3244 
L 1138 3244 
L 1138 0 
L 500 0 
z
M 2469 0 
L 2469 1966 
Q 2469 2309 2292 2496 
Q 2116 2684 1791 2684 
Q 1478 2684 1308 2518 
Q 1138 2353 1138 2053 
L 1072 2678 
Q 1222 2972 1464 3131 
Q 1706 3291 2000 3291 
Q 2528 3291 2817 2945 
Q 3106 2600 3106 1969 
L 3106 0 
L 2469 0 
z
" transform="scale(0.015625)"/>
       <path id="Bahnschrift-64" d="M 2344 0 
L 2344 4544 
L 2981 4544 
L 2981 0 
L 2344 0 
z
M 1528 -56 
Q 991 -56 698 289 
Q 406 634 406 1263 
L 406 1978 
Q 406 2609 692 2954 
Q 978 3300 1497 3300 
Q 1784 3300 2023 3150 
Q 2263 3000 2409 2728 
L 2344 2066 
Q 2344 2272 2269 2419 
Q 2194 2566 2051 2642 
Q 1909 2719 1706 2719 
Q 1391 2719 1217 2522 
Q 1044 2325 1044 1969 
L 1044 1263 
Q 1044 909 1217 717 
Q 1391 525 1706 525 
Q 1909 525 2051 604 
Q 2194 684 2269 834 
Q 2344 984 2344 1194 
L 2388 509 
Q 2300 291 2086 117 
Q 1872 -56 1528 -56 
z
" transform="scale(0.015625)"/>
       <path id="Bahnschrift-44" d="M 994 0 
L 994 606 
L 2022 606 
Q 2525 606 2801 867 
Q 3078 1128 3078 1603 
L 3078 2941 
Q 3078 3416 2801 3677 
Q 2525 3938 2022 3938 
L 994 3938 
L 994 4544 
L 2003 4544 
Q 2828 4544 3279 4117 
Q 3731 3691 3731 2916 
L 3731 1628 
Q 3731 1113 3528 748 
Q 3325 384 2937 192 
Q 2550 0 2000 0 
L 994 0 
z
M 563 0 
L 563 4544 
L 1200 4544 
L 1200 0 
L 563 0 
z
" transform="scale(0.015625)"/>
       <path id="Bahnschrift-63" d="M 1809 -47 
Q 1141 -47 773 322 
Q 406 691 406 1363 
L 406 1897 
Q 406 2563 773 2927 
Q 1141 3291 1809 3291 
Q 2191 3291 2497 3156 
Q 2803 3022 2984 2772 
L 2984 2772 
L 2525 2359 
L 2525 2359 
Q 2391 2516 2206 2600 
Q 2022 2684 1819 2684 
Q 1450 2684 1247 2478 
Q 1044 2272 1044 1897 
L 1044 1363 
Q 1044 978 1247 768 
Q 1450 559 1819 559 
Q 2022 559 2206 650 
Q 2391 741 2525 906 
L 2525 906 
L 2984 463 
L 2984 463 
Q 2803 219 2495 86 
Q 2188 -47 1809 -47 
z
" transform="scale(0.015625)"/>
       <path id="Bahnschrift-2c" d="M 391 -1038 
L 391 669 
L 1059 669 
L 1059 -344 
L 391 -1038 
z
" transform="scale(0.015625)"/>
       <path id="Bahnschrift-61" d="M 2331 0 
L 2331 2056 
Q 2331 2375 2161 2551 
Q 1991 2728 1678 2728 
Q 1488 2728 1302 2670 
Q 1116 2613 969 2503 
L 503 2822 
Q 688 3044 989 3167 
Q 1291 3291 1659 3291 
Q 2269 3291 2603 2975 
Q 2938 2659 2938 2084 
L 2938 0 
L 2331 0 
z
M 1538 -47 
Q 941 -47 642 200 
Q 344 447 344 956 
Q 344 1441 617 1680 
Q 891 1919 1438 1919 
L 2359 1919 
L 2403 1406 
L 1441 1406 
Q 1194 1406 1069 1295 
Q 944 1184 944 956 
Q 944 709 1109 590 
Q 1275 472 1606 472 
Q 1969 472 2150 550 
Q 2331 628 2331 794 
L 2397 338 
Q 2313 206 2188 122 
Q 2063 38 1902 -4 
Q 1741 -47 1538 -47 
z
" transform="scale(0.015625)"/>
       <path id="Bahnschrift-3a" d="M 391 0 
L 391 669 
L 1059 669 
L 1059 0 
L 391 0 
z
M 391 2606 
L 391 3275 
L 1059 3275 
L 1059 2606 
L 391 2606 
z
" transform="scale(0.015625)"/>
      </defs>
      <use xlink:href="#Bahnschrift-32"/>
      <use xlink:href="#Bahnschrift-6e" x="51.660156"/>
      <use xlink:href="#Bahnschrift-64" x="107.519531"/>
      <use xlink:href="#Bahnschrift-2e" x="161.425781"/>
      <use xlink:href="#Bahnschrift-20" x="184.082031"/>
      <use xlink:href="#Bahnschrift-44" x="210.9375"/>
      <use xlink:href="#Bahnschrift-69" x="276.5625"/>
      <use xlink:href="#Bahnschrift-66" x="301.660156"/>
      <use xlink:href="#Bahnschrift-66" x="333.349609"/>
      <use xlink:href="#Bahnschrift-65" x="365.039062"/>
      <use xlink:href="#Bahnschrift-72" x="418.652344"/>
      <use xlink:href="#Bahnschrift-65" x="461.328125"/>
      <use xlink:href="#Bahnschrift-6e" x="514.941406"/>
      <use xlink:href="#Bahnschrift-63" x="570.800781"/>
      <use xlink:href="#Bahnschrift-65" x="620.605469"/>
      <use xlink:href="#Bahnschrift-2c" x="674.21875"/>
      <use xlink:href="#Bahnschrift-20" x="696.875"/>
      <use xlink:href="#Bahnschrift-6d" x="723.730469"/>
      <use xlink:href="#Bahnschrift-65" x="809.375"/>
      <use xlink:href="#Bahnschrift-61" x="862.988281"/>
      <use xlink:href="#Bahnschrift-6e" x="916.210938"/>
      <use xlink:href="#Bahnschrift-3a" x="972.070312"/>
      <use xlink:href="#Bahnschrift-20" x="994.726562"/>
      <use xlink:href="#Bahnschrift-30" x="1021.582031"/>
      <use xlink:href="#Bahnschrift-2e" x="1076.757812"/>
      <use xlink:href="#Bahnschrift-30" x="1099.414062"/>
      <use xlink:href="#Bahnschrift-30" x="1154.589844"/>
      <use xlink:href="#Bahnschrift-30" x="1209.765625"/>
      <use xlink:href="#Bahnschrift-30" x="1264.941406"/>
      <use xlink:href="#Bahnschrift-30" x="1320.117188"/>
     </g>
    </g>
   </g>
   <g id="line2d_12">
    <path d="M 143.254091 124.939802 
L 144.167211 132.88869 
L 145.99345 123.607464 
L 146.90657 133.027922 
L 147.81969 122.47386 
L 148.732809 133.385322 
L 149.645929 128.19974 
L 150.559049 127.478533 
L 152.385288 123.878843 
L 153.298408 134.707485 
L 154.211528 122.007963 
L 155.124647 135.638982 
L 156.037767 122.7793 
L 156.950887 130.076651 
L 157.864007 128.091477 
L 158.777126 127.778349 
L 159.690246 130.534355 
L 160.603366 126.504955 
L 161.516485 131.413235 
L 162.429605 124.081671 
L 163.342725 124.925959 
L 164.255845 133.841872 
L 165.168964 125.403663 
L 166.082084 128.105654 
L 166.995204 128.9222 
L 167.908324 124.074325 
L 168.821443 135.990748 
L 169.734563 127.381194 
L 170.647683 130.359729 
L 171.560802 122.596121 
L 172.473922 129.387485 
L 173.387042 124.45039 
L 174.300162 134.045331 
L 175.213281 121.891525 
L 176.126401 133.052356 
L 177.039521 124.547514 
L 177.952641 128.539429 
L 178.86576 131.76382 
L 179.77888 126.466524 
L 180.692 128.59942 
L 181.605119 127.620343 
L 182.518239 126.005602 
L 183.431359 128.288815 
L 184.344479 130.994637 
L 185.257598 125.699585 
L 186.170718 129.240718 
L 187.083838 124.299072 
L 187.996958 128.546261 
L 188.910077 129.018711 
L 189.823197 128.725736 
L 190.736317 129.119764 
L 191.649436 128.280037 
L 192.562556 126.538591 
L 193.475676 129.298716 
L 194.388796 126.789674 
L 195.301915 129.504202 
L 196.215035 128.098327 
L 197.128155 126.226987 
L 198.041275 127.903124 
L 198.954394 128.533526 
L 199.867514 130.711946 
L 201.693753 127.405132 
L 202.606873 126.482711 
L 203.519993 127.157465 
L 204.433113 125.526762 
L 205.346232 132.216739 
L 206.259352 130.10953 
L 207.172472 122.149592 
L 208.085592 129.083208 
L 208.998711 129.466357 
L 209.911831 131.026282 
L 210.824951 129.337427 
L 211.73807 126.439539 
L 212.65119 127.892606 
L 213.56431 132.013452 
L 214.47743 122.293322 
L 215.390549 128.203823 
L 216.303669 129.907982 
L 217.216789 131.342465 
L 218.129909 121.449917 
L 219.043028 130.529497 
L 219.956148 128.319369 
L 220.869268 123.679342 
L 221.782387 130.266004 
L 222.695507 134.368697 
L 223.608627 123.960735 
L 224.521747 128.279974 
L 225.434866 131.454316 
L 226.347986 127.665192 
L 227.261106 127.929298 
L 228.174226 122.383019 
L 229.087345 129.782991 
L 230.000465 131.260033 
L 230.913585 128.997341 
L 231.826704 123.258176 
L 232.739824 133.404645 
L 233.652944 124.24111 
L 234.566064 125.755763 
L 235.479183 128.14423 
L 236.392303 129.817339 
L 237.305423 127.574629 
L 238.218543 127.453811 
L 239.131662 133.631835 
L 240.044782 126.970014 
L 240.957902 130.039067 
L 241.871021 122.972006 
L 242.784141 126.002294 
L 243.697261 132.490336 
L 244.610381 130.474509 
L 245.5235 125.350288 
L 246.43662 131.372514 
L 247.34974 123.259879 
L 248.26286 129.204783 
L 249.175979 125.189083 
L 250.089099 128.673921 
L 251.002219 126.56937 
L 251.915338 129.082189 
L 252.828458 133.305954 
L 253.741578 127.116168 
L 254.654698 133.518785 
L 255.567817 126.310491 
L 256.480937 121.851147 
L 257.394057 132.294629 
L 258.307177 132.611416 
L 259.220296 121.60101 
L 260.133416 132.60051 
L 261.959655 123.333966 
L 262.872775 124.990392 
L 263.785895 130.595841 
L 264.699015 123.562741 
L 265.612134 136.5113 
L 266.525254 126.195099 
L 267.438374 129.719395 
L 268.351494 126.540781 
L 269.264613 130.823202 
L 270.177733 129.089859 
L 271.090853 126.186185 
L 272.003972 129.566536 
L 272.917092 124.769205 
L 273.830212 123.420697 
L 274.743332 133.90937 
L 275.656451 123.08775 
L 276.569571 125.845514 
L 277.482691 133.432252 
L 278.395811 123.016322 
L 279.30893 131.654385 
L 280.22205 132.806871 
L 281.13517 125.84472 
L 282.048289 129.809813 
L 282.961409 126.858758 
L 283.874529 125.370802 
L 284.787649 127.950055 
L 285.700768 123.250307 
L 286.613888 137.670131 
L 287.527008 124.300812 
L 288.440128 130.71812 
L 289.353247 116.540015 
L 290.266367 129.797835 
L 291.179487 133.170489 
L 292.092606 133.317679 
L 293.005726 132.131513 
L 293.918846 125.169056 
L 294.831966 130.696597 
L 295.745085 116.986129 
L 296.658205 135.823901 
L 297.571325 128.89207 
L 298.484444 118.477799 
L 299.397564 130.072946 
L 301.223804 131.56084 
L 302.136923 129.451657 
L 303.050043 117.581966 
L 303.963163 143.530097 
L 304.876283 108.686971 
L 305.789402 134.153874 
L 306.702522 130.263886 
L 307.615642 134.121833 
L 308.528761 129.430323 
L 309.441881 123.609951 
L 310.355001 130.141949 
L 311.268121 110.961127 
L 312.18124 139.207415 
L 313.09436 126.856108 
L 314.00748 138.498168 
L 314.9206 129.673069 
L 315.833719 115.697512 
L 316.746839 131.160178 
L 317.659959 139.26335 
L 318.573078 119.087155 
L 319.486198 132.11409 
L 320.399318 128.332402 
L 321.312438 134.379774 
L 322.225557 118.936413 
L 323.138677 137.286765 
L 324.051797 125.014231 
L 324.964917 122.835324 
L 325.878036 126.358738 
L 326.791156 123.105911 
L 327.704276 127.71159 
L 328.617395 137.86408 
L 329.530515 136.087448 
L 330.443635 116.487677 
L 331.356755 127.769372 
L 332.269874 127.929217 
L 333.182994 124.70086 
L 334.096114 136.011749 
L 335.009234 129.081847 
L 335.922353 116.0888 
L 336.835473 138.452671 
L 337.748593 129.537361 
L 338.661712 112.664511 
L 339.574832 138.19783 
L 340.487952 131.168858 
L 341.401072 121.664506 
L 342.314191 124.384947 
L 343.227311 135.316003 
L 344.140431 133.537658 
L 345.053551 124.761571 
L 345.96667 140.024394 
L 346.87979 108.234242 
L 347.79291 127.626021 
L 348.706029 139.435695 
L 349.619149 121.761747 
L 351.445389 130.109007 
L 352.358508 127.80427 
L 353.271628 133.264206 
L 354.184748 128.213296 
L 355.097868 124.116082 
L 356.010987 120.999766 
L 356.924107 140.066502 
L 357.837227 121.934291 
L 358.750346 121.816357 
L 359.663466 137.962475 
L 360.576586 131.129588 
L 361.489706 125.484121 
L 362.402825 129.035917 
L 363.315945 122.473085 
L 364.229065 122.016895 
L 365.142185 137.76921 
L 366.055304 137.1261 
L 366.968424 105.817185 
L 367.881544 137.853004 
L 368.794663 131.695691 
L 369.707783 126.712938 
L 370.620903 135.61946 
L 371.534023 120.150277 
L 372.447142 137.081108 
L 373.360262 119.887964 
L 374.273382 134.291465 
L 375.186502 125.357634 
L 376.099621 122.524666 
L 377.012741 133.279383 
L 377.925861 124.300604 
L 378.83898 141.341357 
L 379.7521 116.400783 
L 380.66522 131.463392 
L 381.57834 123.035195 
L 382.491459 128.916108 
L 383.404579 125.592286 
L 384.317699 124.983074 
L 385.230819 152.214531 
L 386.143938 111.807398 
L 387.057058 131.08501 
L 387.970178 125.150147 
L 388.883297 123.959428 
L 389.796417 138.188123 
L 390.709537 119.495451 
L 391.622657 119.133193 
L 392.535776 139.098205 
L 393.448896 129.745425 
L 394.362016 124.647909 
L 395.275136 124.903796 
L 396.188255 146.22924 
L 397.101375 106.433275 
L 398.014495 140.015291 
L 398.927614 118.68653 
L 399.840734 140.313538 
L 400.753854 128.509389 
L 401.666974 126.261389 
L 402.580093 127.732374 
L 403.493213 119.887406 
L 404.406333 141.554891 
L 405.319453 114.714569 
L 406.232572 126.660798 
L 407.145692 131.828452 
L 408.058812 124.949825 
L 408.971931 129.425573 
L 409.885051 142.000149 
L 410.798171 107.145802 
L 411.711291 131.51819 
L 412.62441 141.801423 
L 413.53753 120.826573 
L 414.45065 109.204053 
L 415.36377 153.576415 
L 416.276889 109.424924 
L 417.190009 147.216176 
L 418.103129 125.998571 
L 419.016248 107.540209 
L 419.929368 144.438016 
L 420.842488 136.035209 
L 421.755608 119.16655 
L 422.668727 125.027841 
L 423.581847 136.430229 
L 424.494967 133.750634 
L 425.408087 113.341446 
L 426.321206 132.476501 
L 427.234326 121.67397 
L 428.147446 139.873923 
L 429.060565 128.222273 
L 429.973685 122.045988 
L 430.886805 128.715344 
L 431.799925 130.494662 
L 432.713044 140.717706 
L 433.626164 101.923845 
L 434.539284 157.754141 
L 435.452404 104.250843 
L 436.365523 127.120864 
L 437.278643 144.879578 
L 438.191763 113.477902 
L 439.104882 128.902201 
L 440.018002 129.185342 
L 440.931122 118.515626 
L 441.844242 145.126623 
L 442.757361 118.898577 
L 443.670481 130.916504 
L 444.583601 132.385858 
L 445.496721 140.018788 
L 446.40984 110.838929 
L 447.32296 145.429098 
L 448.23608 115.91658 
L 449.149199 122.114532 
L 450.062319 142.447137 
L 450.975439 115.396696 
L 451.888559 128.591317 
L 452.801678 128.039445 
L 453.714798 129.432955 
L 454.627918 141.763875 
L 455.541038 119.717764 
L 456.454157 133.899663 
L 457.367277 101.70766 
L 458.280397 153.630618 
L 459.193516 135.710401 
L 460.106636 103.591447 
L 461.019756 130.765051 
L 461.932876 139.770229 
L 462.845995 123.893435 
L 463.759115 121.152814 
L 464.672235 131.822143 
L 465.585355 109.314002 
L 466.498474 148.101707 
L 467.411594 109.260492 
L 468.324714 136.275846 
L 469.237833 145.106903 
L 470.150953 128.015498 
L 471.064073 122.776118 
L 471.977193 139.788624 
L 472.890312 101.347899 
L 473.803432 129.605796 
L 474.716552 127.816816 
L 475.629672 148.573391 
L 476.542791 108.428831 
L 477.455911 136.403821 
L 478.369031 131.608771 
L 479.28215 139.402609 
L 480.19527 113.29128 
L 481.10839 142.24312 
L 482.02151 118.439845 
L 482.934629 118.101373 
L 483.847749 140.601718 
L 484.760869 121.852679 
L 485.673989 148.325102 
L 486.587108 107.11112 
L 487.500228 140.594273 
L 488.413348 117.484004 
L 489.326467 134.766006 
L 490.239587 110.463892 
L 491.152707 140.293926 
L 492.065827 138.837073 
L 492.978946 118.721437 
L 493.892066 130.124762 
L 494.805186 135.392135 
L 495.718306 124.697994 
L 496.631425 125.094041 
L 497.544545 119.223305 
L 498.457665 142.950312 
L 499.370784 109.821007 
L 500.283904 130.409995 
L 501.197024 129.932777 
L 502.110144 141.211796 
L 503.023263 131.126118 
L 503.936383 118.194468 
L 504.849503 144.324976 
L 505.762623 90.076163 
L 506.675742 143.520381 
L 507.588862 116.951078 
L 508.501982 138.411671 
L 509.415101 138.681429 
L 510.328221 126.053064 
L 511.241341 142.992952 
L 512.154461 108.483585 
L 513.06758 132.154324 
L 513.9807 132.425839 
L 514.89382 126.499863 
L 515.80694 127.401977 
L 516.720059 123.401941 
L 517.633179 110.461296 
L 518.546299 154.211638 
L 519.459418 137.621488 
L 520.372538 106.101093 
L 521.285658 135.227208 
L 522.198778 138.126294 
L 523.111897 105.834157 
L 524.025017 134.684727 
L 524.938137 144.980776 
L 525.851257 116.850619 
L 527.677496 139.972128 
L 528.590616 118.889771 
L 529.503735 117.735366 
L 530.416855 128.872972 
L 531.329975 126.863814 
L 532.243095 121.516045 
L 533.156214 139.93047 
L 534.069334 138.175766 
L 534.982454 101.167 
L 535.895574 159.671339 
L 536.808693 117.399805 
L 538.634933 129.561813 
L 539.548052 109.415433 
L 541.374292 150.356242 
L 542.287412 133.034222 
L 543.200531 124.032334 
L 544.113651 122.977747 
L 545.026771 128.909627 
L 545.939891 126.892367 
L 546.85301 121.927036 
L 547.76613 121.748462 
L 548.67925 159.078639 
L 549.592369 97.853976 
L 550.505489 142.030883 
L 551.418609 129.642371 
L 552.331729 109.71341 
L 553.244848 151.545085 
L 554.157968 123.971235 
L 555.071088 119.748489 
L 555.984208 137.703749 
L 556.897327 115.103865 
L 557.810447 153.878438 
L 558.723567 118.058264 
L 559.636686 135.109949 
L 560.549806 116.829403 
L 561.462926 121.297463 
L 562.376046 129.508709 
L 563.289165 133.814022 
L 564.202285 103.625624 
L 565.115405 148.110071 
L 566.028525 140.931817 
L 566.941644 101.853778 
L 567.854764 152.703997 
L 568.767884 113.359761 
L 569.681003 149.351343 
L 570.594123 126.637265 
L 571.507243 126.261704 
L 572.420363 116.202336 
L 573.333482 118.573778 
L 574.246602 127.167623 
L 575.159722 159.080522 
L 576.072842 101.721125 
L 576.985961 127.666625 
L 577.899081 123.090301 
L 578.812201 136.440585 
L 579.72532 130.527019 
L 581.55156 129.895851 
L 582.46468 133.80446 
L 583.377799 125.268288 
L 584.290919 120.958766 
L 585.204039 129.825153 
L 586.117158 118.833531 
L 587.030278 132.37799 
L 587.943398 102.986615 
L 588.856518 132.64644 
L 589.769637 150.998838 
L 590.682757 124.563061 
L 591.595877 136.180597 
L 592.508997 143.377264 
L 593.422116 92.409273 
L 594.335236 145.691762 
L 595.248356 130.185734 
L 596.161475 120.599501 
L 597.074595 134.29635 
L 597.987715 120.726998 
L 598.900835 135.521525 
L 599.813954 126.478051 
L 600.727074 110.848681 
L 601.640194 137.046561 
L 602.553314 131.819394 
L 603.466433 128.032911 
L 604.379553 154.40274 
L 605.292673 123.366232 
L 606.205792 127.028202 
L 607.118912 123.949379 
L 608.032032 107.309099 
L 608.945152 112.28831 
L 609.858271 140.955476 
L 610.771391 123.080215 
L 611.684511 162.320623 
L 612.597631 106.441179 
L 613.51075 137.771824 
L 614.42387 132.324065 
L 615.33699 109.7483 
L 616.250109 144.447254 
L 617.163229 119.116123 
L 618.076349 127.401761 
L 618.989469 161.605554 
L 619.902588 110.228149 
L 621.728828 121.024831 
L 622.641948 111.703866 
L 623.555067 146.693028 
L 624.468187 122.548073 
L 625.381307 142.699067 
L 626.294426 135.539677 
L 627.207546 140.588875 
L 628.120666 115.469016 
L 629.033786 119.067011 
L 629.946905 99.383627 
L 630.860025 151.137881 
L 631.773145 132.456691 
L 632.686265 122.922597 
L 633.599384 135.457984 
L 634.512504 122.658617 
L 635.425624 145.283665 
L 636.338743 109.178762 
L 637.251863 122.31005 
L 638.164983 132.187798 
L 639.078103 137.862125 
L 639.991222 125.297103 
L 640.904342 136.260821 
L 641.817462 110.531471 
L 642.730582 129.876176 
L 643.643701 122.592984 
L 644.556821 130.461522 
L 645.469941 119.763973 
L 646.38306 157.635711 
L 647.29618 120.805491 
L 648.2093 132.802671 
L 649.12242 118.74789 
L 650.035539 109.395668 
L 650.948659 157.839259 
L 651.861779 125.847974 
L 652.774899 119.486068 
L 653.688018 95.042198 
L 654.601138 149.930407 
L 655.514258 140.361388 
L 656.427377 120.737579 
L 657.340497 137.847028 
L 658.253617 137.947522 
L 659.166737 100.769818 
L 660.079856 145.881259 
L 660.992976 140.467317 
L 661.906096 123.738539 
L 662.819216 112.974069 
L 663.732335 151.616053 
L 664.645455 103.473477 
L 665.558575 118.492607 
L 666.471694 144.663105 
L 667.384814 131.121468 
L 668.297934 143.117836 
L 669.211054 98.230645 
L 671.037293 134.957928 
L 671.950413 150.450202 
L 673.776652 116.594931 
L 674.689772 136.214819 
L 675.602892 104.73218 
L 676.516011 128.322271 
L 677.429131 141.263764 
L 678.342251 115.965953 
L 679.255371 138.488281 
L 680.16849 152.59531 
L 681.08161 95.625237 
L 681.99473 145.89166 
L 682.90785 118.314971 
L 683.820969 140.016913 
L 684.734089 110.22321 
L 685.647209 143.651411 
L 686.560328 121.337454 
L 687.473448 115.124946 
L 688.386568 146.059589 
L 689.299688 128.944453 
L 690.212807 123.90399 
L 691.125927 105.61717 
L 692.039047 137.943052 
L 692.952167 135.497686 
L 693.865286 124.945544 
L 694.778406 129.117331 
L 695.691526 129.885108 
L 696.604645 152.712433 
L 697.517765 92.328643 
L 698.430885 106.280208 
L 699.344005 181.881206 
L 700.257124 92.391544 
L 701.170244 146.179723 
L 702.083364 107.003857 
L 702.996484 163.975995 
L 703.909603 108.522665 
L 704.822723 138.930528 
L 705.735843 130.410319 
L 706.648962 109.835049 
L 707.562082 148.663601 
L 708.475202 132.551579 
L 709.388322 160.050955 
L 710.301441 81.630257 
L 711.214561 130.038751 
L 712.127681 148.249213 
L 713.040801 125.605463 
L 714.86704 109.711743 
L 715.78016 126.116353 
L 716.693279 137.256545 
L 717.606399 124.984966 
L 718.519519 137.666165 
L 719.432639 100.543926 
L 720.345758 174.414448 
L 721.258878 115.749688 
L 722.171998 108.064438 
L 723.085118 127.073825 
L 723.998237 126.1403 
L 724.911357 158.896072 
L 725.824477 81.809461 
L 726.737596 167.661245 
L 727.650716 63.138348 
L 728.563836 190.686973 
L 729.476956 90.59265 
L 730.390075 162.142752 
L 731.303195 111.563372 
L 732.216315 160.754028 
L 733.129435 126.895486 
L 734.042554 121.520407 
L 734.955674 126.230592 
L 735.868794 108.799858 
L 736.781913 129.24992 
L 737.695033 172.341821 
L 738.608153 87.801647 
L 739.521273 118.155928 
L 740.434392 134.568451 
L 741.347512 131.488087 
L 742.260632 113.334137 
L 743.173752 143.545031 
L 744.086871 150.35553 
L 744.999991 89.45317 
L 745.913111 170.194874 
L 746.82623 99.577603 
L 747.73935 148.292772 
L 748.65247 95.213642 
L 749.56559 147.779512 
L 750.478709 110.076713 
L 751.391829 114.41131 
L 752.304949 159.998933 
L 753.218069 136.153901 
L 754.131188 107.034907 
L 755.044308 165.504699 
L 755.957428 96.656723 
L 756.870547 146.950645 
L 757.783667 121.869326 
L 758.696787 119.345079 
L 759.609907 163.609276 
L 760.523026 121.068715 
L 761.436146 100.626467 
L 762.349266 120.35123 
L 763.262386 113.213796 
L 764.175505 153.7032 
L 765.088625 139.835518 
L 766.001745 120.173972 
L 766.914864 107.845982 
L 767.827984 153.130057 
L 768.741104 122.317251 
L 769.654224 137.822666 
L 770.567343 116.966382 
L 771.480463 106.642456 
L 772.393583 140.182932 
L 773.306703 145.301096 
L 774.219822 109.260744 
L 775.132942 122.730143 
L 776.046062 148.434014 
L 776.959181 124.466001 
L 777.872301 85.065659 
L 778.785421 151.199754 
L 779.698541 125.09916 
L 780.61166 134.931367 
L 781.52478 167.849823 
L 782.4379 116.154648 
L 783.35102 94.191484 
L 784.264139 152.664494 
L 785.177259 129.293317 
L 786.090379 117.364321 
L 787.003498 130.615643 
L 787.916618 135.08547 
L 788.829738 112.390508 
L 789.742858 130.566901 
L 790.655977 136.972592 
L 791.569097 92.639373 
L 792.482217 156.523071 
L 793.395337 121.061513 
L 794.308456 123.22253 
L 795.221576 136.147961 
L 796.134696 138.780742 
L 797.047815 130.136172 
L 797.960935 136.024799 
L 798.874055 133.167262 
L 799.787175 112.111792 
L 800.700294 115.987431 
L 801.613414 134.239956 
L 802.526534 126.024808 
L 803.439654 124.72844 
L 804.352773 152.401838 
L 805.265893 95.299112 
L 806.179013 141.874518 
L 807.092132 153.496452 
L 808.005252 106.520862 
L 808.918372 159.412424 
L 809.831492 99.386303 
L 810.744611 119.357174 
L 811.657731 164.743051 
L 812.570851 91.585282 
L 813.483971 162.544964 
L 814.39709 115.933732 
L 815.31021 76.49613 
L 816.22333 155.777953 
L 817.136449 164.663827 
L 818.049569 94.91727 
L 818.962689 118.551308 
L 819.875809 167.357544 
L 820.788928 128.558284 
L 821.702048 100.734541 
L 822.615168 117.308738 
L 823.528288 148.060392 
L 824.441407 114.253187 
L 825.354527 100.419142 
L 826.267647 193.36252 
L 827.180766 76.796352 
L 828.093886 144.718661 
L 829.007006 125.690626 
L 829.920126 112.394537 
L 830.833245 148.843563 
L 831.746365 131.346449 
L 832.659485 130.94667 
L 833.572605 157.456065 
L 834.485724 92.580618 
L 835.398844 104.233079 
L 836.311964 147.395272 
L 837.225083 155.704443 
L 838.138203 78.831547 
L 839.051323 107.664596 
L 839.964443 161.089211 
L 840.877562 136.376079 
L 841.790682 132.452004 
L 842.703802 133.425528 
L 843.616922 129.824522 
L 844.530041 117.758286 
L 845.443161 121.45637 
L 846.356281 147.55965 
L 847.2694 130.143274 
L 848.18252 120.665782 
L 849.09564 134.187294 
L 850.00876 100.057128 
L 850.921879 143.501003 
L 851.834999 160.065205 
L 852.748119 125.868758 
L 853.661239 108.231709 
L 854.574358 104.249311 
L 855.487478 143.937951 
L 856.400598 117.647877 
L 857.313717 177.393714 
L 858.226837 139.194121 
L 859.139957 112.620014 
L 860.053077 102.898523 
L 860.966196 120.800417 
L 861.879316 148.935828 
L 862.792436 112.378178 
L 863.705556 173.420239 
L 864.618675 93.515558 
L 865.531795 116.153008 
L 866.444915 121.366061 
L 867.358034 116.589929 
L 868.271154 148.290997 
L 869.184274 119.438363 
L 870.097394 105.034582 
L 871.010513 149.197483 
L 871.923633 124.1351 
L 872.836753 171.790914 
L 873.749872 100.268761 
L 874.662992 139.400157 
L 875.576112 84.48006 
L 876.489232 148.23052 
L 877.402351 103.512404 
L 878.315471 176.026161 
L 879.228591 130.879263 
L 880.141711 99.336336 
L 881.05483 134.648955 
L 881.96795 108.803346 
L 882.88107 137.642804 
L 883.794189 128.207428 
L 884.707309 139.340771 
L 885.620429 163.879781 
L 886.533549 111.425303 
L 887.446668 103.59937 
L 888.359788 144.470958 
L 889.272908 141.931335 
L 890.186028 90.070314 
L 891.099147 130.217577 
L 892.012267 121.625138 
L 892.925387 149.682677 
L 893.838506 153.357851 
L 894.751626 98.041058 
L 895.664746 136.728747 
L 896.577866 141.976625 
L 897.490985 100.001725 
L 898.404105 121.660469 
L 899.317225 177.624499 
L 900.230345 79.820934 
L 901.143464 125.466717 
L 902.056584 157.028896 
L 902.969704 114.404821 
L 903.882823 109.13559 
L 904.795943 114.096181 
L 905.709063 181.794114 
L 906.622183 98.127141 
L 907.535302 92.269978 
L 908.448422 198.102014 
L 909.361542 159.205802 
L 910.274662 60.499014 
L 911.187781 149.312876 
L 912.100901 76.934917 
L 913.014021 177.745949 
L 913.92714 66.879171 
L 914.84026 152.637851 
L 915.75338 163.257906 
L 916.6665 163.270461 
L 917.579619 26.86 
L 918.492739 209.970696 
L 919.405859 122.038679 
L 920.318979 116.763004 
L 921.232098 152.482504 
L 922.145218 104.697426 
L 923.058338 125.213156 
L 923.971457 105.378345 
L 924.884577 181.454281 
L 925.797697 113.074915 
L 926.710817 127.833662 
L 927.623936 72.693928 
L 928.537056 207.4206 
L 929.450176 96.222858 
L 930.363296 168.460053 
L 931.276415 95.630653 
L 932.189535 180.423497 
L 933.102655 83.580415 
L 934.015774 77.29758 
L 934.928894 129.135609 
L 935.842014 135.81076 
L 936.755134 157.31138 
L 937.668253 94.374618 
L 938.581373 176.353728 
L 939.494493 97.679783 
L 940.407613 99.865936 
L 941.320732 181.383259 
L 942.233852 121.747957 
L 943.146972 89.676944 
L 944.060091 157.365989 
L 944.973211 127.4214 
L 945.886331 118.321388 
L 946.799451 139.520741 
L 947.71257 138.562764 
L 948.62569 77.04099 
L 949.53881 138.732739 
L 950.45193 157.68183 
L 951.365049 116.562701 
L 952.278169 153.328225 
L 953.191289 120.986679 
L 954.104408 138.797245 
L 955.017528 86.127357 
L 955.930648 183.12721 
L 956.843768 78.356988 
L 957.756887 115.268414 
L 958.670007 218.46 
L 959.583127 86.727123 
L 960.496247 126.376854 
L 961.409366 114.695119 
L 962.322486 137.969604 
L 963.235606 86.552732 
L 964.148725 159.143388 
L 965.061845 63.248693 
L 965.974965 146.526118 
L 966.888085 215.439275 
L 967.801204 101.594331 
L 968.714324 103.308549 
L 969.627444 110.830773 
L 970.540564 169.885487 
L 971.453683 115.176599 
L 972.366803 146.246824 
L 973.279923 92.084834 
L 974.193042 113.300365 
L 975.106162 150.366399 
L 976.019282 176.546145 
L 976.932402 60.755586 
L 977.845521 147.600858 
L 978.758641 115.637873 
L 979.671761 153.584382 
L 980.584881 139.276364 
L 981.498 94.774613 
L 982.41112 163.268442 
L 983.32424 149.706778 
L 984.237359 106.158758 
L 985.150479 52.21014 
L 986.063599 154.109044 
L 986.976719 145.514297 
L 987.889838 134.233413 
L 988.802958 134.428219 
L 989.716078 107.668769 
L 990.629198 136.0016 
L 991.542317 150.057201 
L 992.455437 160.508849 
L 993.368557 63.645551 
L 994.281676 149.346368 
L 995.194796 102.860263 
L 996.107916 136.827682 
L 997.021036 156.95061 
L 997.934155 127.695935 
L 998.847275 66.923064 
L 999.760395 206.885411 
L 1000.673515 87.950342 
L 1001.586634 122.255269 
L 1002.499754 146.558564 
L 1003.412874 160.514212 
L 1004.325993 118.168573 
L 1005.239113 122.724438 
L 1006.152233 108.261848 
L 1007.065353 125.933606 
L 1007.978472 123.975291 
L 1008.891592 138.204472 
L 1009.804712 138.959712 
L 1010.717832 98.54508 
L 1011.630951 157.694583 
L 1012.544071 98.423685 
L 1013.457191 155.11113 
L 1015.28343 106.629856 
L 1016.19655 118.345543 
L 1017.10967 208.180103 
L 1018.022789 49.135544 
L 1018.935909 134.821634 
L 1018.935909 134.821634 
" clip-path="url(#pd667646731)" style="fill: none; stroke: #d2dbe0; stroke-width: 1.5; stroke-linecap: square"/>
   </g>
   <g id="line2d_13">
    <path d="M 143.254091 127.769412 
L 144.167211 128.221216 
L 145.08033 127.791337 
L 145.99345 128.19333 
L 146.90657 127.929647 
L 149.645929 128.121946 
L 151.472168 128.093495 
L 152.385288 128.417167 
L 153.298408 127.976816 
L 154.211528 127.80978 
L 155.124647 128.3215 
L 156.037767 127.940287 
L 156.950887 128.221877 
L 158.777126 127.79245 
L 159.690246 128.218061 
L 160.603366 128.306944 
L 161.516485 128.630988 
L 162.429605 128.02542 
L 163.342725 128.394396 
L 164.255845 127.834967 
L 165.168964 128.398268 
L 166.082084 127.989012 
L 166.995204 128.237056 
L 168.821443 127.975768 
L 169.734563 128.238711 
L 170.647683 127.991376 
L 172.473922 128.351982 
L 173.387042 127.960169 
L 175.213281 128.248875 
L 176.126401 128.087745 
L 177.039521 128.346064 
L 177.952641 127.76148 
L 178.86576 127.819734 
L 179.77888 127.752683 
L 180.692 128.059164 
L 181.605119 128.045778 
L 182.518239 128.23726 
L 183.431359 127.861923 
L 184.344479 128.232283 
L 185.257598 127.919148 
L 186.170718 128.166983 
L 187.083838 128.144928 
L 187.996958 127.868086 
L 192.562556 128.204703 
L 193.475676 127.979106 
L 194.388796 128.052 
L 195.301915 127.866302 
L 196.215035 128.262186 
L 197.128155 128.340349 
L 198.041275 127.996893 
L 199.867514 128.032096 
L 201.693753 128.30935 
L 202.606873 128.166392 
L 204.433113 128.347001 
L 205.346232 128.05675 
L 208.085592 128.396282 
L 208.998711 127.933181 
L 210.824951 128.047402 
L 211.73807 127.907234 
L 212.65119 128.062661 
L 213.56431 128.504758 
L 214.47743 128.091957 
L 215.390549 128.000479 
L 216.303669 128.465716 
L 218.129909 128.317962 
L 219.043028 127.885799 
L 219.956148 127.908077 
L 220.869268 128.149102 
L 221.782387 128.204338 
L 222.695507 127.766575 
L 223.608627 128.322141 
L 226.347986 127.756482 
L 227.261106 128.174853 
L 229.087345 127.983832 
L 230.000465 128.481457 
L 232.739824 128.050739 
L 233.652944 127.936855 
L 236.392303 128.000172 
L 237.305423 128.449646 
L 238.218543 128.123491 
L 240.044782 127.830316 
L 240.957902 128.101103 
L 241.871021 127.759339 
L 242.784141 128.001393 
L 243.697261 128.378903 
L 244.610381 128.327499 
L 245.5235 128.512572 
L 246.43662 128.449365 
L 247.34974 128.169232 
L 248.26286 128.102371 
L 249.175979 128.384441 
L 250.089099 127.962539 
L 251.002219 128.443964 
L 251.915338 128.53787 
L 252.828458 128.080052 
L 253.741578 127.805846 
L 254.654698 128.068123 
L 255.567817 127.677635 
L 256.480937 128.340206 
L 257.394057 128.189722 
L 258.307177 128.416237 
L 259.220296 128.30958 
L 260.133416 128.522272 
L 261.046536 128.522655 
L 261.959655 128.166667 
L 262.872775 128.289185 
L 263.785895 127.851706 
L 264.699015 127.707217 
L 265.612134 128.310128 
L 267.438374 127.511489 
L 268.351494 128.103051 
L 269.264613 127.623842 
L 270.177733 127.81254 
L 271.090853 128.286185 
L 273.830212 128.454401 
L 274.743332 127.897376 
L 275.656451 127.985124 
L 276.569571 127.661669 
L 277.482691 128.218137 
L 278.395811 127.892017 
L 279.30893 127.97343 
L 280.22205 127.491122 
L 281.13517 127.502687 
L 282.961409 128.4176 
L 283.874529 128.328707 
L 284.787649 128.432772 
L 285.700768 128.675327 
L 286.613888 127.85302 
L 287.527008 128.493399 
L 288.440128 128.355284 
L 289.353247 127.63883 
L 290.266367 127.850241 
L 291.179487 127.901848 
L 293.005726 128.340995 
L 293.918846 127.82259 
L 294.831966 128.83658 
L 295.745085 127.387422 
L 296.658205 127.880075 
L 297.571325 127.857363 
L 298.484444 128.736454 
L 299.397564 128.718078 
L 300.310684 128.240051 
L 301.223804 128.081265 
L 302.136923 127.022746 
L 303.050043 127.724663 
L 303.963163 127.532639 
L 304.876283 128.608241 
L 305.789402 128.300699 
L 306.702522 127.640972 
L 307.615642 128.27509 
L 308.528761 128.734611 
L 309.441881 128.146871 
L 311.268121 128.118571 
L 312.18124 128.958462 
L 313.09436 127.728777 
L 314.00748 129.158767 
L 315.833719 128.330357 
L 317.659959 127.625982 
L 318.573078 127.831064 
L 319.486198 128.21717 
L 320.399318 129.473486 
L 321.312438 128.337499 
L 322.225557 128.383162 
L 323.138677 127.854715 
L 324.051797 127.606104 
L 324.964917 128.621816 
L 325.878036 128.5179 
L 326.791156 127.359172 
L 327.704276 128.327448 
L 328.617395 128.198612 
L 329.530515 127.415217 
L 330.443635 127.60612 
L 331.356755 128.217742 
L 332.269874 127.436629 
L 333.182994 127.405165 
L 334.096114 128.029199 
L 335.009234 128.388145 
L 335.922353 128.470928 
L 336.835473 129.086568 
L 337.748593 127.605076 
L 338.661712 127.182005 
L 339.574832 128.329406 
L 340.487952 128.029024 
L 341.401072 127.918638 
L 342.314191 128.189046 
L 343.227311 127.778672 
L 344.140431 127.98779 
L 345.053551 128.594015 
L 345.96667 127.877185 
L 346.87979 127.450305 
L 347.79291 128.820405 
L 348.706029 128.007228 
L 349.619149 127.539603 
L 350.532269 128.354501 
L 351.445389 128.691733 
L 352.358508 128.200139 
L 354.184748 127.860628 
L 355.097868 126.960253 
L 356.010987 128.437001 
L 356.924107 128.912005 
L 357.837227 127.23108 
L 358.750346 128.035643 
L 359.663466 128.334352 
L 360.576586 128.164549 
L 361.489706 128.555308 
L 362.402825 127.899612 
L 363.315945 128.343003 
L 364.229065 128.131597 
L 365.142185 128.796182 
L 366.055304 128.060738 
L 366.968424 128.090257 
L 367.881544 128.663408 
L 368.794663 127.980315 
L 369.707783 128.490903 
L 370.620903 128.036736 
L 372.447142 128.186216 
L 373.360262 128.531176 
L 375.186502 127.315179 
L 376.099621 129.635046 
L 377.012741 128.332766 
L 378.83898 128.224092 
L 379.7521 127.64109 
L 380.66522 128.542983 
L 381.57834 127.6637 
L 382.491459 127.625961 
L 384.317699 128.085688 
L 385.230819 128.19185 
L 386.143938 127.773071 
L 387.057058 128.869502 
L 387.970178 127.124098 
L 388.883297 128.304824 
L 389.796417 127.665981 
L 390.709537 128.529898 
L 392.535776 128.543017 
L 393.448896 128.680482 
L 394.362016 127.064126 
L 395.275136 128.5515 
L 396.188255 127.732978 
L 397.101375 127.808511 
L 398.014495 128.201962 
L 398.927614 127.540047 
L 399.840734 128.036553 
L 400.753854 129.179901 
L 401.666974 127.582281 
L 402.580093 127.670919 
L 403.493213 128.528595 
L 404.406333 128.324734 
L 405.319453 126.473474 
L 406.232572 128.830631 
L 407.145692 127.301113 
L 408.058812 128.727595 
L 408.971931 128.011847 
L 409.885051 126.963388 
L 410.798171 127.872219 
L 411.711291 128.287361 
L 412.62441 128.251318 
L 413.53753 127.424966 
L 414.45065 128.510749 
L 415.36377 128.865241 
L 416.276889 127.94089 
L 417.190009 128.317224 
L 418.103129 127.929644 
L 419.016248 127.823333 
L 419.929368 128.877156 
L 420.842488 128.403546 
L 421.755608 127.749242 
L 422.668727 128.232647 
L 423.581847 129.808329 
L 424.494967 127.225701 
L 425.408087 129.642162 
L 426.321206 127.493895 
L 427.234326 127.55001 
L 428.147446 129.416978 
L 429.060565 127.868972 
L 429.973685 127.512322 
L 430.886805 128.013262 
L 431.799925 127.687651 
L 432.713044 128.122471 
L 433.626164 127.379868 
L 434.539284 128.258621 
L 435.452404 128.254089 
L 436.365523 129.171329 
L 437.278643 127.71958 
L 438.191763 128.579921 
L 440.018002 127.94341 
L 440.931122 128.541034 
L 441.844242 127.274983 
L 442.757361 128.608357 
L 443.670481 127.122622 
L 444.583601 128.381728 
L 445.496721 129.113878 
L 446.40984 127.855787 
L 447.32296 128.876876 
L 448.23608 127.517148 
L 449.149199 128.739412 
L 450.062319 129.599151 
L 450.975439 127.522392 
L 451.888559 128.115716 
L 452.801678 128.558402 
L 453.714798 128.133781 
L 454.627918 127.190482 
L 455.541038 128.239643 
L 456.454157 126.433888 
L 457.367277 128.043145 
L 458.280397 127.400443 
L 459.193516 127.091878 
L 460.106636 128.577388 
L 461.019756 128.548597 
L 461.932876 128.285431 
L 462.845995 128.803214 
L 463.759115 126.782416 
L 464.672235 127.276817 
L 465.585355 126.972675 
L 466.498474 129.315962 
L 467.411594 127.055872 
L 468.324714 127.090543 
L 469.237833 128.491409 
L 470.150953 128.923287 
L 471.064073 127.59934 
L 471.977193 128.516824 
L 472.890312 128.381176 
L 473.803432 127.695137 
L 474.716552 129.259523 
L 475.629672 127.947071 
L 476.542791 129.900302 
L 477.455911 128.442066 
L 478.369031 128.216434 
L 479.28215 127.68986 
L 480.19527 128.289354 
L 481.10839 126.823117 
L 482.02151 128.770419 
L 482.934629 129.231982 
L 483.847749 128.777213 
L 484.760869 127.854782 
L 485.673989 129.202947 
L 486.587108 128.617656 
L 487.500228 128.291919 
L 488.413348 127.282954 
L 489.326467 128.765906 
L 490.239587 127.1448 
L 492.065827 128.334878 
L 492.978946 128.365382 
L 493.892066 128.829054 
L 494.805186 127.322522 
L 495.718306 129.183215 
L 496.631425 126.657309 
L 497.544545 127.959128 
L 498.457665 127.068382 
L 499.370784 128.465771 
L 500.283904 128.385146 
L 501.197024 127.745945 
L 502.110144 128.959521 
L 503.023263 127.877462 
L 503.936383 127.715572 
L 504.849503 128.101964 
L 505.762623 128.172255 
L 506.675742 128.581189 
L 507.588862 127.60377 
L 508.501982 127.635785 
L 509.415101 128.825867 
L 510.328221 129.210302 
L 511.241341 127.454767 
L 512.154461 127.659822 
L 513.06758 128.656413 
L 513.9807 126.731872 
L 514.89382 128.9623 
L 516.720059 129.030297 
L 517.633179 128.511976 
L 518.546299 128.576511 
L 519.459418 128.218346 
L 520.372538 126.955467 
L 521.285658 127.974936 
L 522.198778 127.710411 
L 523.111897 127.164921 
L 524.938137 128.375141 
L 525.851257 127.263394 
L 526.764376 129.723896 
L 527.677496 127.883304 
L 528.590616 127.175892 
L 529.503735 128.348928 
L 530.416855 127.058339 
L 531.329975 126.667598 
L 532.243095 128.893702 
L 533.156214 128.811177 
L 534.069334 127.763754 
L 534.982454 128.070111 
L 535.895574 128.11333 
L 536.808693 127.459342 
L 538.634933 127.81186 
L 539.548052 129.322143 
L 540.461172 127.871651 
L 541.374292 128.897393 
L 542.287412 128.382988 
L 543.200531 126.95987 
L 544.113651 129.478775 
L 545.026771 127.693769 
L 545.939891 127.811204 
L 546.85301 128.522729 
L 547.76613 127.799832 
L 548.67925 130.022982 
L 549.592369 129.410322 
L 551.418609 127.837767 
L 552.331729 127.701023 
L 554.157968 128.272791 
L 555.071088 127.109454 
L 555.984208 128.418605 
L 556.897327 129.377773 
L 557.810447 126.51653 
L 558.723567 129.259031 
L 559.636686 127.825475 
L 561.462926 129.657116 
L 562.376046 128.392947 
L 563.289165 128.004502 
L 564.202285 127.945767 
L 565.115405 127.418961 
L 566.028525 129.617793 
L 566.941644 127.009928 
L 567.854764 127.490346 
L 568.767884 126.889363 
L 569.681003 127.869922 
L 570.594123 128.3314 
L 571.507243 128.368867 
L 572.420363 128.172959 
L 573.333482 129.681901 
L 575.159722 127.541159 
L 576.072842 128.939728 
L 576.985961 127.246204 
L 577.899081 128.197116 
L 578.812201 125.878879 
L 579.72532 126.179338 
L 580.63844 127.416195 
L 581.55156 127.834231 
L 583.377799 129.525054 
L 584.290919 126.191492 
L 585.204039 128.390024 
L 586.117158 128.515979 
L 587.943398 128.284227 
L 588.856518 127.794226 
L 589.769637 128.0574 
L 590.682757 127.88651 
L 591.595877 126.738721 
L 593.422116 127.870666 
L 594.335236 127.781054 
L 595.248356 129.559514 
L 596.161475 129.108926 
L 597.074595 130.311006 
L 597.987715 129.876153 
L 598.900835 127.691666 
L 599.813954 127.077928 
L 600.727074 127.316672 
L 601.640194 126.30182 
L 602.553314 129.797387 
L 603.466433 127.834858 
L 604.379553 128.214163 
L 605.292673 128.800391 
L 606.205792 127.572988 
L 607.118912 128.759001 
L 608.032032 127.938731 
L 608.945152 127.984916 
L 609.858271 130.52276 
L 610.771391 129.181839 
L 611.684511 128.374898 
L 612.597631 128.024494 
L 613.51075 125.88955 
L 614.42387 127.05589 
L 615.33699 126.831884 
L 616.250109 127.769368 
L 618.076349 130.595925 
L 618.989469 129.321602 
L 619.902588 129.120942 
L 620.815708 125.974092 
L 621.728828 128.208927 
L 622.641948 127.943171 
L 623.555067 127.473097 
L 624.468187 128.758581 
L 625.381307 127.66915 
L 626.294426 128.977527 
L 627.207546 128.066377 
L 628.120666 126.101602 
L 629.946905 128.308662 
L 630.860025 128.522276 
L 631.773145 129.750123 
L 632.686265 127.942045 
L 633.599384 128.308451 
L 634.512504 127.303146 
L 635.425624 127.049239 
L 636.338743 126.007994 
L 637.251863 128.116328 
L 638.164983 128.203252 
L 639.078103 129.874205 
L 639.991222 128.254705 
L 640.904342 127.101654 
L 641.817462 128.847487 
L 642.730582 128.366986 
L 643.643701 128.208359 
L 644.556821 125.696286 
L 645.469941 127.733868 
L 646.38306 128.636435 
L 647.29618 128.063924 
L 648.2093 128.063169 
L 649.12242 128.69569 
L 650.035539 126.92114 
L 650.948659 128.688629 
L 651.861779 129.218186 
L 652.774899 129.275464 
L 653.688018 128.401091 
L 654.601138 129.993695 
L 655.514258 127.285584 
L 656.427377 127.16994 
L 658.253617 128.38164 
L 659.166737 130.067749 
L 660.079856 127.087318 
L 660.992976 126.647358 
L 661.906096 127.420951 
L 662.819216 130.191351 
L 663.732335 129.391602 
L 664.645455 128.203279 
L 665.558575 128.977141 
L 666.471694 127.321399 
L 667.384814 126.840136 
L 668.297934 128.864833 
L 669.211054 127.369068 
L 670.124173 127.270116 
L 671.037293 128.712955 
L 671.950413 127.845513 
L 672.863533 127.559293 
L 673.776652 128.301368 
L 674.689772 129.377583 
L 675.602892 127.655589 
L 676.516011 128.282086 
L 677.429131 127.193067 
L 678.342251 128.037782 
L 679.255371 129.488322 
L 680.16849 129.187649 
L 681.99473 126.444426 
L 682.90785 127.511832 
L 683.820969 127.475975 
L 684.734089 128.486643 
L 685.647209 128.526396 
L 686.560328 127.957463 
L 687.473448 129.794787 
L 689.299688 125.17105 
L 690.212807 129.483849 
L 691.125927 126.808843 
L 692.039047 128.202081 
L 692.952167 126.551428 
L 693.865286 129.239067 
L 694.778406 127.48263 
L 696.604645 129.126552 
L 697.517765 127.315325 
L 698.430885 128.301283 
L 699.344005 128.733662 
L 700.257124 131.455351 
L 701.170244 128.639712 
L 702.083364 128.366765 
L 702.996484 129.531948 
L 703.909603 129.356355 
L 704.822723 128.724216 
L 705.735843 126.574181 
L 707.562082 129.812383 
L 708.475202 126.967571 
L 709.388322 129.231302 
L 710.301441 126.949513 
L 711.214561 130.320042 
L 712.127681 127.908727 
L 713.040801 127.885815 
L 713.95392 127.29298 
L 714.86704 127.079479 
L 715.78016 129.53253 
L 716.693279 126.189823 
L 717.606399 127.945307 
L 718.519519 123.099676 
L 719.432639 128.552512 
L 720.345758 126.580207 
L 721.258878 127.274884 
L 722.171998 126.57278 
L 723.085118 128.748365 
L 723.998237 129.607552 
L 724.911357 129.377755 
L 725.824477 128.826457 
L 726.737596 128.017202 
L 727.650716 127.596389 
L 728.563836 131.186284 
L 729.476956 126.855644 
L 730.390075 126.975956 
L 731.303195 128.301157 
L 732.216315 128.52187 
L 734.042554 127.11401 
L 734.955674 130.541313 
L 735.868794 126.630909 
L 736.781913 131.983736 
L 737.695033 127.428267 
L 738.608153 130.313273 
L 739.521273 126.966818 
L 740.434392 128.777625 
L 741.347512 126.243759 
L 742.260632 125.61955 
L 743.173752 127.543477 
L 744.086871 128.039642 
L 744.999991 127.951395 
L 745.913111 129.764133 
L 746.82623 125.979879 
L 747.73935 128.937329 
L 748.65247 129.122998 
L 749.56559 128.36183 
L 750.478709 129.967889 
L 751.391829 130.354618 
L 752.304949 128.20869 
L 753.218069 126.708475 
L 754.131188 127.896506 
L 755.044308 127.071922 
L 755.957428 129.084818 
L 756.870547 127.678878 
L 757.783667 128.310495 
L 758.696787 128.578022 
L 759.609907 129.190049 
L 760.523026 130.360617 
L 761.436146 128.20899 
L 762.349266 126.733417 
L 763.262386 128.390819 
L 764.175505 127.380638 
L 765.088625 128.010839 
L 766.001745 126.799814 
L 766.914864 128.128049 
L 767.827984 128.384095 
L 768.741104 124.456914 
L 769.654224 125.963466 
L 770.567343 127.187101 
L 771.480463 127.916107 
L 772.393583 130.647909 
L 773.306703 128.770481 
L 774.219822 126.48828 
L 775.132942 128.112806 
L 776.046062 129.185172 
L 776.959181 127.396886 
L 777.872301 127.811805 
L 779.698541 127.446152 
L 780.61166 128.642374 
L 781.52478 128.481857 
L 782.4379 125.848771 
L 783.35102 128.211887 
L 784.264139 128.128456 
L 785.177259 126.867881 
L 786.090379 127.451979 
L 787.003498 130.137734 
L 787.916618 129.084555 
L 788.829738 129.630836 
L 789.742858 129.542631 
L 790.655977 126.75573 
L 791.569097 126.747369 
L 792.482217 128.749793 
L 793.395337 127.417808 
L 794.308456 127.189564 
L 795.221576 128.94144 
L 796.134696 127.175614 
L 797.047815 127.515066 
L 797.960935 129.570363 
L 798.874055 128.368061 
L 799.787175 129.490053 
L 800.700294 129.827399 
L 801.613414 127.969105 
L 802.526534 130.153181 
L 803.439654 128.571319 
L 804.352773 129.891169 
L 805.265893 128.748819 
L 806.179013 126.066817 
L 807.092132 127.054474 
L 808.005252 128.629302 
L 808.918372 127.769576 
L 809.831492 127.89777 
L 810.744611 129.55365 
L 811.657731 129.680323 
L 812.570851 128.480628 
L 813.483971 126.725973 
L 814.39709 129.364037 
L 815.31021 127.982971 
L 816.22333 125.329105 
L 817.136449 129.671188 
L 818.049569 125.540385 
L 818.962689 127.807003 
L 819.875809 128.123675 
L 820.788928 125.50625 
L 821.702048 128.369164 
L 822.615168 126.809238 
L 823.528288 127.559885 
L 824.441407 131.607881 
L 826.267647 125.426477 
L 827.180766 128.050377 
L 828.093886 129.908034 
L 829.007006 125.481734 
L 829.920126 124.43705 
L 830.833245 127.454783 
L 831.746365 128.40815 
L 832.659485 127.627731 
L 833.572605 128.586348 
L 834.485724 130.056617 
L 835.398844 126.276405 
L 836.311964 128.509406 
L 838.138203 128.874088 
L 839.051323 129.28765 
L 839.964443 128.554837 
L 840.877562 126.990371 
L 841.790682 127.618088 
L 842.703802 127.748545 
L 843.616922 129.412952 
L 844.530041 129.612883 
L 845.443161 127.455585 
L 846.356281 126.86726 
L 847.2694 128.808077 
L 848.18252 132.294533 
L 850.00876 130.011975 
L 850.921879 128.534301 
L 851.834999 127.903045 
L 852.748119 128.858611 
L 853.661239 128.589605 
L 854.574358 131.187799 
L 855.487478 128.485594 
L 856.400598 127.786081 
L 857.313717 127.821095 
L 858.226837 126.941227 
L 859.139957 129.35292 
L 860.053077 128.149788 
L 860.966196 125.398257 
L 861.879316 126.564693 
L 862.792436 127.359863 
L 863.705556 130.736943 
L 864.618675 128.553483 
L 865.531795 129.641097 
L 866.444915 124.995415 
L 867.358034 125.447235 
L 868.271154 124.991854 
L 869.184274 128.648236 
L 870.097394 129.152178 
L 871.010513 126.672204 
L 871.923633 127.785742 
L 872.836753 124.554898 
L 873.749872 126.76126 
L 874.662992 127.363981 
L 875.576112 128.262717 
L 876.489232 130.627209 
L 877.402351 128.783925 
L 878.315471 127.991975 
L 879.228591 129.963794 
L 880.141711 129.600486 
L 881.05483 127.897247 
L 881.96795 125.81858 
L 882.88107 126.886399 
L 883.794189 127.400525 
L 884.707309 130.844415 
L 885.620429 128.334941 
L 886.533549 129.995759 
L 888.359788 126.749405 
L 889.272908 127.865612 
L 890.186028 130.014389 
L 891.099147 128.565268 
L 892.012267 127.956464 
L 892.925387 129.397537 
L 893.838506 128.15074 
L 894.751626 125.41353 
L 895.664746 125.547074 
L 896.577866 129.456811 
L 898.404105 124.656553 
L 899.317225 130.058138 
L 900.230345 131.507549 
L 901.143464 128.451243 
L 902.056584 128.432753 
L 902.969704 124.611606 
L 903.882823 128.59685 
L 904.795943 125.104372 
L 905.709063 125.637433 
L 906.622183 128.800242 
L 907.535302 130.880742 
L 908.448422 123.342517 
L 909.361542 129.850005 
L 910.274662 129.678603 
L 911.187781 127.665308 
L 912.100901 129.569192 
L 913.014021 129.347284 
L 913.92714 129.903133 
L 914.84026 126.082345 
L 915.75338 130.248702 
L 916.6665 131.288948 
L 917.579619 127.775531 
L 918.492739 123.449937 
L 919.405859 130.796016 
L 920.318979 128.141515 
L 921.232098 132.717772 
L 922.145218 128.612008 
L 923.058338 134.289224 
L 923.971457 130.836352 
L 924.884577 126.538336 
L 925.797697 124.831593 
L 926.710817 130.279131 
L 927.623936 127.646165 
L 928.537056 126.262962 
L 929.450176 129.242498 
L 930.363296 126.502362 
L 931.276415 126.260788 
L 932.189535 129.069293 
L 933.102655 129.887774 
L 934.015774 125.298907 
L 934.928894 127.51346 
L 935.842014 127.492847 
L 936.755134 129.77422 
L 937.668253 126.379227 
L 938.581373 128.496223 
L 939.494493 123.92527 
L 940.407613 126.080374 
L 941.320732 124.94329 
L 942.233852 126.592405 
L 943.146972 130.393937 
L 944.060091 129.986491 
L 944.973211 130.135815 
L 945.886331 126.576614 
L 946.799451 131.014243 
L 947.71257 126.114406 
L 948.62569 126.993838 
L 949.53881 132.923541 
L 950.45193 128.190734 
L 951.365049 128.422179 
L 952.278169 129.673088 
L 953.191289 128.703269 
L 954.104408 126.659835 
L 955.017528 128.700935 
L 955.930648 124.887333 
L 956.843768 125.2855 
L 957.756887 132.205415 
L 958.670007 130.348494 
L 959.583127 127.62983 
L 960.496247 127.343234 
L 961.409366 128.171097 
L 962.322486 127.880593 
L 964.148725 128.550946 
L 965.061845 125.059603 
L 965.974965 128.660074 
L 966.888085 131.723961 
L 967.801204 123.83874 
L 968.714324 126.882427 
L 969.627444 126.345478 
L 970.540564 128.289941 
L 971.453683 128.355279 
L 972.366803 128.766373 
L 973.279923 128.972625 
L 974.193042 133.29553 
L 975.106162 131.277162 
L 976.019282 123.115705 
L 976.932402 125.741441 
L 977.845521 127.851728 
L 978.758641 129.02186 
L 979.671761 127.248997 
L 980.584881 126.873605 
L 981.498 126.361344 
L 982.41112 129.259962 
L 983.32424 131.620386 
L 984.237359 127.284344 
L 985.150479 125.924355 
L 986.063599 128.029589 
L 986.976719 127.49093 
L 987.889838 129.556567 
L 988.802958 128.262145 
L 989.716078 124.64448 
L 990.629198 130.25002 
L 991.542317 126.484115 
L 992.455437 125.111539 
L 993.368557 127.13153 
L 994.281676 132.546733 
L 995.194796 130.74971 
L 997.021036 128.311638 
L 997.934155 127.886908 
L 998.847275 128.702234 
L 999.760395 128.812378 
L 1000.673515 128.257503 
L 1001.586634 125.159315 
L 1002.499754 129.861766 
L 1003.412874 127.315632 
L 1004.325993 129.928175 
L 1005.239113 129.56764 
L 1006.152233 127.051603 
L 1007.065353 126.584083 
L 1007.978472 133.646935 
L 1008.891592 125.759442 
L 1009.804712 128.103006 
L 1009.804712 128.103006 
" clip-path="url(#pd667646731)" style="fill: none; stroke: #5dc694; stroke-width: 1.5; stroke-linecap: square"/>
   </g>
   <g id="patch_3">
    <path d="M 99.47 228.04 
L 99.47 17.28 
" style="fill: none; stroke: #000000; stroke-width: 0.8; stroke-linejoin: miter; stroke-linecap: square"/>
   </g>
   <g id="patch_4">
    <path d="M 1062.72 228.04 
L 1062.72 17.28 
" style="fill: none; stroke: #000000; stroke-width: 0.8; stroke-linejoin: miter; stroke-linecap: square"/>
   </g>
   <g id="patch_5">
    <path d="M 99.47 228.04 
L 1062.72 228.04 
" style="fill: none; stroke: #000000; stroke-width: 0.8; stroke-linejoin: miter; stroke-linecap: square"/>
   </g>
   <g id="patch_6">
    <path d="M 99.47 17.28 
L 1062.72 17.28 
" style="fill: none; stroke: #000000; stroke-width: 0.8; stroke-linejoin: miter; stroke-linecap: square"/>
   </g>
   <g id="legend_1">
    <g id="patch_7">
     <path d="M 854.2975 76.605 
L 1051.52 76.605 
Q 1054.72 76.605 1054.72 73.405 
L 1054.72 28.48 
Q 1054.72 25.28 1051.52 25.28 
L 854.2975 25.28 
Q 851.0975 25.28 851.0975 28.48 
L 851.0975 73.405 
Q 851.0975 76.605 854.2975 76.605 
z
" style="fill: #ffffff; opacity: 0.8; stroke: #cccccc; stroke-linejoin: miter"/>
    </g>
    <g id="line2d_14">
     <path d="M 857.4975 37.44 
L 873.4975 37.44 
L 889.4975 37.44 
" style="fill: none; stroke: #d2dbe0; stroke-width: 1.5; stroke-linecap: square"/>
    </g>
    <g id="text_14">
     <!-- 2nd. Difference -->
     <g transform="translate(902.2975 43.04) scale(0.16 -0.16)">
      <use xlink:href="#Bahnschrift-32"/>
      <use xlink:href="#Bahnschrift-6e" x="51.660156"/>
      <use xlink:href="#Bahnschrift-64" x="107.519531"/>
      <use xlink:href="#Bahnschrift-2e" x="161.425781"/>
      <use xlink:href="#Bahnschrift-20" x="184.082031"/>
      <use xlink:href="#Bahnschrift-44" x="210.9375"/>
      <use xlink:href="#Bahnschrift-69" x="276.5625"/>
      <use xlink:href="#Bahnschrift-66" x="301.660156"/>
      <use xlink:href="#Bahnschrift-66" x="333.349609"/>
      <use xlink:href="#Bahnschrift-65" x="365.039062"/>
      <use xlink:href="#Bahnschrift-72" x="418.652344"/>
      <use xlink:href="#Bahnschrift-65" x="461.328125"/>
      <use xlink:href="#Bahnschrift-6e" x="514.941406"/>
      <use xlink:href="#Bahnschrift-63" x="570.800781"/>
      <use xlink:href="#Bahnschrift-65" x="620.605469"/>
     </g>
    </g>
    <g id="line2d_15">
     <path d="M 857.4975 61.3075 
L 873.4975 61.3075 
L 889.4975 61.3075 
" style="fill: none; stroke: #5dc694; stroke-width: 1.5; stroke-linecap: square"/>
    </g>
    <g id="text_15">
     <!-- Rolling Average (20) -->
     <g transform="translate(902.2975 66.9075) scale(0.16 -0.16)">
      <defs>
       <path id="Bahnschrift-52" d="M 841 1922 
L 841 2528 
L 2391 2528 
Q 2669 2528 2837 2722 
Q 3006 2916 3006 3234 
L 3006 3234 
Q 3006 3553 2837 3747 
Q 2669 3941 2391 3941 
L 841 3941 
L 841 4547 
L 2366 4547 
Q 2763 4547 3059 4383 
Q 3356 4219 3520 3925 
Q 3684 3631 3684 3234 
L 3684 3234 
Q 3684 2841 3518 2545 
Q 3353 2250 3058 2086 
Q 2763 1922 2366 1922 
L 841 1922 
z
M 563 0 
L 563 4547 
L 1200 4547 
L 1200 0 
L 563 0 
z
M 3119 0 
L 2078 2063 
L 2713 2206 
L 3875 0 
L 3119 0 
z
" transform="scale(0.015625)"/>
       <path id="Bahnschrift-6c" d="M 1138 4544 
L 1138 838 
Q 1138 722 1189 656 
Q 1241 591 1334 591 
L 1634 591 
L 1634 -16 
L 1259 -16 
Q 900 -16 700 209 
Q 500 434 500 844 
L 500 4544 
L 1138 4544 
z
" transform="scale(0.015625)"/>
       <path id="Bahnschrift-67" d="M 1588 -1319 
Q 1222 -1319 933 -1183 
Q 644 -1047 484 -800 
L 484 -800 
L 916 -409 
L 916 -409 
Q 1041 -581 1214 -675 
Q 1388 -769 1578 -769 
Q 1944 -769 2144 -567 
Q 2344 -366 2344 3 
L 2344 3244 
L 2981 3244 
L 2981 97 
Q 2981 -578 2617 -948 
Q 2253 -1319 1588 -1319 
z
M 1528 -56 
Q 991 -56 698 289 
Q 406 634 406 1263 
L 406 1978 
Q 406 2609 692 2954 
Q 978 3300 1497 3300 
Q 1784 3300 2023 3150 
Q 2263 3000 2409 2728 
L 2344 2066 
Q 2344 2272 2269 2419 
Q 2194 2566 2051 2642 
Q 1909 2719 1706 2719 
Q 1391 2719 1217 2522 
Q 1044 2325 1044 1969 
L 1044 1263 
Q 1044 909 1217 717 
Q 1391 525 1706 525 
Q 1909 525 2051 604 
Q 2194 684 2269 834 
Q 2344 984 2344 1194 
L 2388 509 
Q 2300 291 2086 117 
Q 1872 -56 1528 -56 
z
" transform="scale(0.015625)"/>
       <path id="Bahnschrift-41" d="M 125 0 
L 1800 4544 
L 2344 4544 
L 4019 0 
L 3331 0 
L 2072 3666 
L 813 0 
L 125 0 
z
M 897 997 
L 897 1603 
L 3288 1603 
L 3288 997 
L 897 997 
z
" transform="scale(0.015625)"/>
       <path id="Bahnschrift-76" d="M 1616 928 
L 2409 3244 
L 3075 3244 
L 1856 0 
L 1375 0 
L 156 3244 
L 822 3244 
L 1616 928 
z
" transform="scale(0.015625)"/>
       <path id="Bahnschrift-28" d="M 1672 -978 
Q 1116 -375 839 373 
Q 563 1122 563 2025 
Q 563 2928 839 3676 
Q 1116 4425 1672 5028 
L 2109 4631 
Q 1638 4106 1403 3456 
Q 1169 2806 1169 2025 
Q 1169 1244 1403 594 
Q 1638 -56 2109 -584 
L 1672 -978 
z
" transform="scale(0.015625)"/>
       <path id="Bahnschrift-29" d="M 500 -978 
L 63 -584 
Q 534 -56 768 594 
Q 1003 1244 1003 2025 
Q 1003 2806 768 3456 
Q 534 4106 63 4631 
L 500 5028 
Q 1056 4425 1332 3676 
Q 1609 2928 1609 2025 
Q 1609 1122 1332 373 
Q 1056 -375 500 -978 
z
" transform="scale(0.015625)"/>
      </defs>
      <use xlink:href="#Bahnschrift-52"/>
      <use xlink:href="#Bahnschrift-6f" x="65.185547"/>
      <use xlink:href="#Bahnschrift-6c" x="119.677734"/>
      <use xlink:href="#Bahnschrift-6c" x="148.632812"/>
      <use xlink:href="#Bahnschrift-69" x="177.587891"/>
      <use xlink:href="#Bahnschrift-6e" x="202.685547"/>
      <use xlink:href="#Bahnschrift-67" x="258.544922"/>
      <use xlink:href="#Bahnschrift-20" x="312.451172"/>
      <use xlink:href="#Bahnschrift-41" x="339.306641"/>
      <use xlink:href="#Bahnschrift-76" x="404.052734"/>
      <use xlink:href="#Bahnschrift-65" x="454.052734"/>
      <use xlink:href="#Bahnschrift-72" x="507.666016"/>
      <use xlink:href="#Bahnschrift-61" x="550.341797"/>
      <use xlink:href="#Bahnschrift-67" x="603.564453"/>
      <use xlink:href="#Bahnschrift-65" x="657.470703"/>
      <use xlink:href="#Bahnschrift-20" x="711.083984"/>
      <use xlink:href="#Bahnschrift-28" x="737.939453"/>
      <use xlink:href="#Bahnschrift-32" x="771.875"/>
      <use xlink:href="#Bahnschrift-30" x="823.535156"/>
      <use xlink:href="#Bahnschrift-29" x="878.710938"/>
     </g>
    </g>
   </g>
  </g>
 </g>
 <defs>
  <clipPath id="pd667646731">
   <rect x="99.47" y="17.28" width="963.25" height="210.76"/>
  </clipPath>
 </defs>
</svg>
