<?xml version="1.0" encoding="utf-8" standalone="no"?>
<!DOCTYPE svg PUBLIC "-//W3C//DTD SVG 1.1//EN"
  "http://www.w3.org/Graphics/SVG/1.1/DTD/svg11.dtd">
<svg xmlns:xlink="http://www.w3.org/1999/xlink" width="1080pt" height="288pt" viewBox="0 0 1080 288" xmlns="http://www.w3.org/2000/svg" version="1.1">
 <metadata>
  <rdf:RDF xmlns:dc="http://purl.org/dc/elements/1.1/" xmlns:cc="http://creativecommons.org/ns#" xmlns:rdf="http://www.w3.org/1999/02/22-rdf-syntax-ns#">
   <cc:Work>
    <dc:type rdf:resource="http://purl.org/dc/dcmitype/StillImage"/>
    <dc:date>2024-05-29T19:40:35.107106</dc:date>
    <dc:format>image/svg+xml</dc:format>
    <dc:creator>
     <cc:Agent>
      <dc:title>Matplotlib v3.8.2, https://matplotlib.org/</dc:title>
     </cc:Agent>
    </dc:creator>
   </cc:Work>
  </rdf:RDF>
 </metadata>
 <defs>
  <style type="text/css">*{stroke-linejoin: round; stroke-linecap: butt}</style>
 </defs>
 <g id="figure_1">
  <g id="patch_1">
   <path d="M 0 288 
L 1080 288 
L 1080 0 
L 0 0 
z
" style="fill: #ffffff"/>
  </g>
  <g id="axes_1">
   <g id="patch_2">
    <path d="M 72.56 228.04 
L 1062.72 228.04 
L 1062.72 17.28 
L 72.56 17.28 
z
" style="fill: #ffffff"/>
   </g>
   <g id="matplotlib.axis_1">
    <g id="xtick_1">
     <g id="line2d_1">
      <defs>
       <path id="m8fd1221de1" d="M 0 0 
L 0 3.5 
" style="stroke: #000000; stroke-width: 0.8"/>
      </defs>
      <g>
       <use xlink:href="#m8fd1221de1" x="117.567273" y="228.04" style="stroke: #000000; stroke-width: 0.8"/>
      </g>
     </g>
     <g id="text_1">
      <!-- 200 -->
      <g transform="translate(104.607273 246.4) scale(0.16 -0.16)">
       <defs>
        <path id="Bahnschrift-32" d="M 400 0 
L 400 553 
L 1984 2666 
Q 2122 2847 2198 3040 
Q 2275 3234 2275 3406 
L 2275 3413 
Q 2275 3684 2115 3834 
Q 1956 3984 1663 3984 
Q 1388 3984 1214 3820 
Q 1041 3656 1003 3356 
L 1003 3353 
L 344 3353 
L 344 3356 
Q 428 3944 772 4267 
Q 1116 4591 1656 4591 
Q 2269 4591 2603 4281 
Q 2938 3972 2938 3406 
L 2938 3403 
Q 2938 3163 2838 2898 
Q 2738 2634 2559 2394 
L 1244 606 
L 2963 606 
L 2963 0 
L 400 0 
z
" transform="scale(0.015625)"/>
        <path id="Bahnschrift-30" d="M 1766 -47 
Q 1116 -47 792 301 
Q 469 650 469 1244 
L 469 3309 
Q 469 3913 797 4256 
Q 1125 4600 1766 4600 
Q 2409 4600 2736 4258 
Q 3063 3916 3063 3309 
L 3063 1244 
Q 3063 641 2736 297 
Q 2409 -47 1766 -47 
z
M 1766 559 
Q 2116 559 2270 742 
Q 2425 925 2425 1244 
L 2425 3309 
Q 2425 3631 2270 3812 
Q 2116 3994 1766 3994 
Q 1416 3994 1261 3812 
Q 1106 3631 1106 3309 
L 1106 1244 
Q 1106 925 1261 742 
Q 1416 559 1766 559 
z
" transform="scale(0.015625)"/>
       </defs>
       <use xlink:href="#Bahnschrift-32"/>
       <use xlink:href="#Bahnschrift-30" x="51.660156"/>
       <use xlink:href="#Bahnschrift-30" x="106.835938"/>
      </g>
     </g>
    </g>
    <g id="xtick_2">
     <g id="line2d_2">
      <g>
       <use xlink:href="#m8fd1221de1" x="290.672168" y="228.04" style="stroke: #000000; stroke-width: 0.8"/>
      </g>
     </g>
     <g id="text_2">
      <!-- 300 -->
      <g transform="translate(277.614668 246.4) scale(0.16 -0.16)">
       <defs>
        <path id="Bahnschrift-33" d="M 1644 -47 
Q 1259 -47 970 92 
Q 681 231 506 493 
Q 331 756 281 1131 
L 281 1131 
L 931 1131 
L 931 1131 
Q 975 838 1162 702 
Q 1350 566 1644 566 
Q 1959 566 2134 734 
Q 2309 903 2309 1209 
L 2309 1347 
Q 2309 1688 2143 1873 
Q 1978 2059 1675 2059 
L 1353 2059 
L 1353 2666 
L 1675 2666 
Q 1944 2666 2089 2825 
Q 2234 2984 2234 3275 
L 2234 3416 
Q 2234 3684 2079 3831 
Q 1925 3978 1641 3978 
Q 1400 3978 1233 3842 
Q 1066 3706 1003 3413 
L 1003 3413 
L 356 3413 
L 356 3413 
Q 453 3975 789 4283 
Q 1125 4591 1641 4591 
Q 2228 4591 2550 4281 
Q 2872 3972 2872 3409 
L 2872 3334 
Q 2872 2994 2687 2742 
Q 2503 2491 2166 2372 
Q 2538 2294 2742 2008 
Q 2947 1722 2947 1281 
L 2947 1206 
Q 2947 609 2606 281 
Q 2266 -47 1644 -47 
z
" transform="scale(0.015625)"/>
       </defs>
       <use xlink:href="#Bahnschrift-33"/>
       <use xlink:href="#Bahnschrift-30" x="52.880859"/>
       <use xlink:href="#Bahnschrift-30" x="108.056641"/>
      </g>
     </g>
    </g>
    <g id="xtick_3">
     <g id="line2d_3">
      <g>
       <use xlink:href="#m8fd1221de1" x="463.777063" y="228.04" style="stroke: #000000; stroke-width: 0.8"/>
      </g>
     </g>
     <g id="text_3">
      <!-- 400 -->
      <g transform="translate(450.398313 246.4) scale(0.16 -0.16)">
       <defs>
        <path id="Bahnschrift-34" d="M 406 697 
L 406 1250 
L 1931 4541 
L 2588 4541 
L 1100 1288 
L 3328 1288 
L 3328 697 
L 406 697 
z
M 2366 -3 
L 2366 2672 
L 2988 2672 
L 2988 -3 
L 2366 -3 
z
" transform="scale(0.015625)"/>
       </defs>
       <use xlink:href="#Bahnschrift-34"/>
       <use xlink:href="#Bahnschrift-30" x="56.884766"/>
       <use xlink:href="#Bahnschrift-30" x="112.060547"/>
      </g>
     </g>
    </g>
    <g id="xtick_4">
     <g id="line2d_4">
      <g>
       <use xlink:href="#m8fd1221de1" x="636.881958" y="228.04" style="stroke: #000000; stroke-width: 0.8"/>
      </g>
     </g>
     <g id="text_4">
      <!-- 500 -->
      <g transform="translate(623.699458 246.4) scale(0.16 -0.16)">
       <defs>
        <path id="Bahnschrift-35" d="M 1738 -47 
Q 1219 -47 886 251 
Q 553 550 469 1094 
L 469 1097 
L 1106 1097 
L 1106 1094 
Q 1141 844 1306 705 
Q 1472 566 1738 566 
Q 2044 566 2211 770 
Q 2378 975 2378 1347 
L 2378 1728 
Q 2378 2100 2211 2303 
Q 2044 2506 1738 2506 
Q 1572 2506 1419 2412 
Q 1266 2319 1150 2150 
L 569 2150 
L 569 4544 
L 2884 4544 
L 2884 3938 
L 1206 3938 
L 1206 2916 
Q 1325 3013 1472 3066 
Q 1619 3119 1772 3119 
Q 2366 3119 2691 2755 
Q 3016 2391 3016 1728 
L 3016 1347 
Q 3016 681 2681 317 
Q 2347 -47 1738 -47 
z
" transform="scale(0.015625)"/>
       </defs>
       <use xlink:href="#Bahnschrift-35"/>
       <use xlink:href="#Bahnschrift-30" x="54.443359"/>
       <use xlink:href="#Bahnschrift-30" x="109.619141"/>
      </g>
     </g>
    </g>
    <g id="xtick_5">
     <g id="line2d_5">
      <g>
       <use xlink:href="#m8fd1221de1" x="809.986853" y="228.04" style="stroke: #000000; stroke-width: 0.8"/>
      </g>
     </g>
     <g id="text_5">
      <!-- 600 -->
      <g transform="translate(797.054353 246.4) scale(0.16 -0.16)">
       <defs>
        <path id="Bahnschrift-36" d="M 1641 -47 
Q 1038 -47 706 312 
Q 375 672 375 1325 
L 375 1328 
Q 375 1622 456 1951 
Q 538 2281 691 2588 
L 1678 4544 
L 2366 4544 
L 1206 2278 
L 1209 2391 
Q 1372 2700 1788 2700 
Q 2322 2700 2615 2345 
Q 2909 1991 2909 1344 
L 2909 1341 
Q 2909 681 2578 317 
Q 2247 -47 1641 -47 
z
M 1641 566 
Q 1947 566 2109 753 
Q 2272 941 2272 1288 
L 2272 1291 
Q 2272 1672 2100 1880 
Q 1928 2088 1609 2088 
Q 1325 2088 1169 1878 
Q 1013 1669 1013 1288 
L 1013 1284 
Q 1013 938 1177 752 
Q 1341 566 1641 566 
z
" transform="scale(0.015625)"/>
       </defs>
       <use xlink:href="#Bahnschrift-36"/>
       <use xlink:href="#Bahnschrift-30" x="51.318359"/>
       <use xlink:href="#Bahnschrift-30" x="106.494141"/>
      </g>
     </g>
    </g>
    <g id="xtick_6">
     <g id="line2d_6">
      <g>
       <use xlink:href="#m8fd1221de1" x="983.091748" y="228.04" style="stroke: #000000; stroke-width: 0.8"/>
      </g>
     </g>
     <g id="text_6">
      <!-- 700 -->
      <g transform="translate(970.236748 246.4) scale(0.16 -0.16)">
       <defs>
        <path id="Bahnschrift-37" d="M 2816 4544 
L 2816 3975 
L 1641 0 
L 963 0 
L 2138 3938 
L 981 3938 
L 981 3284 
L 344 3284 
L 344 4544 
L 2816 4544 
z
" transform="scale(0.015625)"/>
       </defs>
       <use xlink:href="#Bahnschrift-37"/>
       <use xlink:href="#Bahnschrift-30" x="50.341797"/>
       <use xlink:href="#Bahnschrift-30" x="105.517578"/>
      </g>
     </g>
    </g>
    <g id="text_7">
     <!-- Number of Samples -->
     <g transform="translate(496.3525 265.175) scale(0.16 -0.16)">
      <defs>
       <path id="Bahnschrift-4e" d="M 563 3 
L 563 4544 
L 1141 4544 
L 3363 1031 
L 3288 950 
L 3288 4544 
L 3919 4544 
L 3919 3 
L 3334 3 
L 1119 3463 
L 1194 3544 
L 1194 3 
L 563 3 
z
" transform="scale(0.015625)"/>
       <path id="Bahnschrift-75" d="M 2456 0 
L 2456 3244 
L 3091 3244 
L 3091 0 
L 2456 0 
z
M 1138 3244 
L 1138 1272 
Q 1138 931 1311 745 
Q 1484 559 1800 559 
Q 2116 559 2286 726 
Q 2456 894 2456 1197 
L 2500 519 
Q 2413 300 2194 126 
Q 1975 -47 1622 -47 
Q 1084 -47 792 298 
Q 500 644 500 1272 
L 500 3244 
L 1138 3244 
z
" transform="scale(0.015625)"/>
       <path id="Bahnschrift-6d" d="M 4375 0 
L 4375 1966 
Q 4375 2309 4198 2496 
Q 4022 2684 3697 2684 
Q 3400 2684 3237 2503 
Q 3075 2322 3075 1991 
L 2947 2616 
Q 3103 2941 3353 3116 
Q 3603 3291 3906 3291 
Q 4434 3291 4723 2945 
Q 5013 2600 5013 1969 
L 5013 0 
L 4375 0 
z
M 500 0 
L 500 3244 
L 1138 3244 
L 1138 0 
L 500 0 
z
M 2438 0 
L 2438 1966 
Q 2438 2309 2269 2496 
Q 2100 2684 1791 2684 
Q 1478 2684 1308 2518 
Q 1138 2353 1138 2053 
L 1072 2678 
Q 1222 2972 1464 3131 
Q 1706 3291 2000 3291 
Q 2513 3291 2794 2945 
Q 3075 2600 3075 1969 
L 3075 0 
L 2438 0 
z
" transform="scale(0.015625)"/>
       <path id="Bahnschrift-62" d="M 1953 -47 
Q 1650 -47 1425 98 
Q 1200 244 1094 509 
L 1138 1188 
Q 1138 978 1213 831 
Q 1288 684 1430 606 
Q 1572 528 1775 528 
Q 2091 528 2264 720 
Q 2438 913 2438 1263 
L 2438 1966 
Q 2438 2322 2264 2519 
Q 2091 2716 1775 2716 
Q 1572 2716 1430 2641 
Q 1288 2566 1213 2422 
Q 1138 2278 1138 2072 
L 1072 2697 
Q 1219 2981 1456 3136 
Q 1694 3291 1984 3291 
Q 2506 3291 2790 2945 
Q 3075 2600 3075 1969 
L 3075 1263 
Q 3075 641 2781 297 
Q 2488 -47 1953 -47 
z
M 500 0 
L 500 4544 
L 1138 4544 
L 1138 0 
L 500 0 
z
" transform="scale(0.015625)"/>
       <path id="Bahnschrift-65" d="M 1828 -47 
Q 1150 -47 778 331 
Q 406 709 406 1406 
L 406 1772 
Q 406 2497 764 2894 
Q 1122 3291 1772 3291 
Q 2384 3291 2720 2841 
Q 3056 2391 3056 1578 
L 3056 1366 
L 869 1366 
L 869 1878 
L 2450 1878 
L 2450 1878 
Q 2422 2272 2245 2494 
Q 2069 2716 1772 2716 
Q 1413 2716 1213 2478 
Q 1013 2241 1013 1806 
L 1013 1394 
Q 1013 991 1227 775 
Q 1441 559 1828 559 
Q 2022 559 2212 637 
Q 2403 716 2553 856 
L 2553 856 
L 2972 438 
L 2972 438 
Q 2731 206 2431 79 
Q 2131 -47 1828 -47 
z
" transform="scale(0.015625)"/>
       <path id="Bahnschrift-72" d="M 500 0 
L 500 3244 
L 1138 3244 
L 1138 0 
L 500 0 
z
M 2284 2475 
Q 2200 2578 2072 2631 
Q 1944 2684 1775 2684 
Q 1472 2684 1305 2517 
Q 1138 2350 1138 2053 
L 1072 2678 
Q 1219 2966 1458 3128 
Q 1697 3291 1984 3291 
Q 2206 3291 2386 3227 
Q 2566 3163 2700 3038 
L 2284 2475 
z
" transform="scale(0.015625)"/>
       <path id="Bahnschrift-20" transform="scale(0.015625)"/>
       <path id="Bahnschrift-6f" d="M 1744 -47 
Q 1106 -47 756 323 
Q 406 694 406 1366 
L 406 1894 
Q 406 2559 756 2925 
Q 1106 3291 1744 3291 
Q 2381 3291 2731 2925 
Q 3081 2559 3081 1894 
L 3081 1356 
Q 3081 688 2731 320 
Q 2381 -47 1744 -47 
z
M 1744 559 
Q 2078 559 2261 768 
Q 2444 978 2444 1356 
L 2444 1894 
Q 2444 2272 2261 2478 
Q 2078 2684 1744 2684 
Q 1413 2684 1228 2478 
Q 1044 2272 1044 1894 
L 1044 1356 
Q 1044 978 1228 768 
Q 1413 559 1744 559 
z
" transform="scale(0.015625)"/>
       <path id="Bahnschrift-66" d="M 594 0 
L 594 3684 
Q 594 4113 791 4328 
Q 988 4544 1403 4544 
L 1872 4544 
L 1872 3938 
L 1416 3938 
Q 1319 3938 1275 3864 
Q 1231 3791 1231 3691 
L 1231 0 
L 594 0 
z
M 250 2700 
L 250 3244 
L 1872 3244 
L 1872 2700 
L 250 2700 
z
" transform="scale(0.015625)"/>
       <path id="Bahnschrift-53" d="M 1928 -47 
Q 1597 -47 1305 15 
Q 1013 78 758 203 
Q 503 328 281 516 
L 281 516 
L 678 1003 
L 678 1003 
Q 938 778 1250 665 
Q 1563 553 1928 553 
Q 2422 553 2694 737 
Q 2966 922 2966 1253 
L 2966 1256 
Q 2966 1516 2828 1653 
Q 2691 1791 2467 1858 
Q 2244 1925 1978 1969 
Q 1722 2013 1461 2072 
Q 1200 2131 981 2257 
Q 763 2384 630 2621 
Q 497 2859 497 3256 
L 497 3259 
Q 497 3894 919 4242 
Q 1341 4591 2109 4591 
Q 2475 4591 2825 4473 
Q 3175 4356 3506 4116 
L 3506 4116 
L 3144 3609 
L 3144 3609 
Q 2884 3803 2626 3897 
Q 2369 3991 2109 3991 
Q 1644 3991 1386 3805 
Q 1128 3619 1128 3278 
L 1128 3275 
Q 1128 3019 1278 2884 
Q 1428 2750 1670 2686 
Q 1913 2622 2191 2566 
Q 2441 2516 2691 2445 
Q 2941 2375 3145 2242 
Q 3350 2109 3473 1878 
Q 3597 1647 3597 1275 
L 3597 1269 
Q 3597 641 3159 297 
Q 2722 -47 1928 -47 
z
" transform="scale(0.015625)"/>
       <path id="Bahnschrift-61" d="M 2331 0 
L 2331 2056 
Q 2331 2375 2161 2551 
Q 1991 2728 1678 2728 
Q 1488 2728 1302 2670 
Q 1116 2613 969 2503 
L 503 2822 
Q 688 3044 989 3167 
Q 1291 3291 1659 3291 
Q 2269 3291 2603 2975 
Q 2938 2659 2938 2084 
L 2938 0 
L 2331 0 
z
M 1538 -47 
Q 941 -47 642 200 
Q 344 447 344 956 
Q 344 1441 617 1680 
Q 891 1919 1438 1919 
L 2359 1919 
L 2403 1406 
L 1441 1406 
Q 1194 1406 1069 1295 
Q 944 1184 944 956 
Q 944 709 1109 590 
Q 1275 472 1606 472 
Q 1969 472 2150 550 
Q 2331 628 2331 794 
L 2397 338 
Q 2313 206 2188 122 
Q 2063 38 1902 -4 
Q 1741 -47 1538 -47 
z
" transform="scale(0.015625)"/>
       <path id="Bahnschrift-70" d="M 500 -1319 
L 500 3244 
L 1138 3244 
L 1138 -1319 
L 500 -1319 
z
M 1953 -47 
Q 1650 -47 1425 98 
Q 1200 244 1094 509 
L 1138 1188 
Q 1138 978 1213 831 
Q 1288 684 1430 606 
Q 1572 528 1775 528 
Q 2091 528 2264 720 
Q 2438 913 2438 1263 
L 2438 1966 
Q 2438 2322 2264 2519 
Q 2091 2716 1775 2716 
Q 1572 2716 1430 2641 
Q 1288 2566 1213 2422 
Q 1138 2278 1138 2072 
L 1072 2697 
Q 1219 2981 1456 3136 
Q 1694 3291 1984 3291 
Q 2506 3291 2790 2945 
Q 3075 2600 3075 1969 
L 3075 1263 
Q 3075 641 2781 297 
Q 2488 -47 1953 -47 
z
" transform="scale(0.015625)"/>
       <path id="Bahnschrift-6c" d="M 1138 4544 
L 1138 838 
Q 1138 722 1189 656 
Q 1241 591 1334 591 
L 1634 591 
L 1634 -16 
L 1259 -16 
Q 900 -16 700 209 
Q 500 434 500 844 
L 500 4544 
L 1138 4544 
z
" transform="scale(0.015625)"/>
       <path id="Bahnschrift-73" d="M 1647 -47 
Q 1216 -47 864 79 
Q 513 206 234 459 
L 234 459 
L 613 925 
L 613 925 
Q 878 725 1136 625 
Q 1394 525 1647 525 
Q 2025 525 2214 642 
Q 2403 759 2403 994 
Q 2403 1175 2276 1250 
Q 2150 1325 1945 1348 
Q 1741 1372 1506 1388 
Q 1309 1403 1115 1436 
Q 922 1469 762 1555 
Q 603 1641 508 1809 
Q 413 1978 413 2263 
Q 413 2778 728 3034 
Q 1044 3291 1669 3291 
Q 2050 3291 2378 3187 
Q 2706 3084 2994 2872 
L 2994 2872 
L 2609 2406 
L 2609 2406 
Q 2366 2563 2130 2641 
Q 1894 2719 1669 2719 
Q 1344 2719 1181 2608 
Q 1019 2497 1019 2275 
Q 1019 2128 1131 2064 
Q 1244 2000 1428 1981 
Q 1613 1963 1825 1947 
Q 2028 1934 2236 1901 
Q 2444 1869 2619 1775 
Q 2794 1681 2900 1497 
Q 3006 1313 3006 994 
Q 3006 472 2667 212 
Q 2328 -47 1647 -47 
z
" transform="scale(0.015625)"/>
      </defs>
      <use xlink:href="#Bahnschrift-4e"/>
      <use xlink:href="#Bahnschrift-75" x="70.019531"/>
      <use xlink:href="#Bahnschrift-6d" x="125.634766"/>
      <use xlink:href="#Bahnschrift-62" x="211.279297"/>
      <use xlink:href="#Bahnschrift-65" x="265.673828"/>
      <use xlink:href="#Bahnschrift-72" x="319.287109"/>
      <use xlink:href="#Bahnschrift-20" x="361.962891"/>
      <use xlink:href="#Bahnschrift-6f" x="388.818359"/>
      <use xlink:href="#Bahnschrift-66" x="443.310547"/>
      <use xlink:href="#Bahnschrift-20" x="475"/>
      <use xlink:href="#Bahnschrift-53" x="501.855469"/>
      <use xlink:href="#Bahnschrift-61" x="563.427734"/>
      <use xlink:href="#Bahnschrift-6d" x="616.650391"/>
      <use xlink:href="#Bahnschrift-70" x="702.294922"/>
      <use xlink:href="#Bahnschrift-6c" x="756.689453"/>
      <use xlink:href="#Bahnschrift-65" x="785.644531"/>
      <use xlink:href="#Bahnschrift-73" x="839.257812"/>
     </g>
    </g>
   </g>
   <g id="matplotlib.axis_2">
    <g id="ytick_1">
     <g id="line2d_7">
      <defs>
       <path id="mfce81c2cbb" d="M 0 0 
L -3.5 0 
" style="stroke: #000000; stroke-width: 0.8"/>
      </defs>
      <g>
       <use xlink:href="#mfce81c2cbb" x="72.56" y="199.030568" style="stroke: #000000; stroke-width: 0.8"/>
      </g>
     </g>
     <g id="text_8">
      <!-- -0.2 -->
      <g transform="translate(37.17 204.710568) scale(0.16 -0.16)">
       <defs>
        <path id="Bahnschrift-2d" d="M 500 1931 
L 2600 1931 
L 2600 1325 
L 500 1325 
L 500 1931 
z
" transform="scale(0.015625)"/>
        <path id="Bahnschrift-2e" d="M 391 0 
L 391 669 
L 1059 669 
L 1059 0 
L 391 0 
z
" transform="scale(0.015625)"/>
       </defs>
       <use xlink:href="#Bahnschrift-2d"/>
       <use xlink:href="#Bahnschrift-30" x="47.949219"/>
       <use xlink:href="#Bahnschrift-2e" x="103.125"/>
       <use xlink:href="#Bahnschrift-32" x="125.78125"/>
      </g>
     </g>
    </g>
    <g id="ytick_2">
     <g id="line2d_8">
      <g>
       <use xlink:href="#mfce81c2cbb" x="72.56" y="149.00703" style="stroke: #000000; stroke-width: 0.8"/>
      </g>
     </g>
     <g id="text_9">
      <!-- -0.1 -->
      <g transform="translate(40.115 154.68703) scale(0.16 -0.16)">
       <defs>
        <path id="Bahnschrift-31" d="M 1566 4544 
L 1566 0 
L 928 0 
L 928 3850 
L 281 3453 
L 281 4113 
L 928 4544 
L 1566 4544 
z
" transform="scale(0.015625)"/>
       </defs>
       <use xlink:href="#Bahnschrift-2d"/>
       <use xlink:href="#Bahnschrift-30" x="47.949219"/>
       <use xlink:href="#Bahnschrift-2e" x="103.125"/>
       <use xlink:href="#Bahnschrift-31" x="125.78125"/>
      </g>
     </g>
    </g>
    <g id="ytick_3">
     <g id="line2d_9">
      <g>
       <use xlink:href="#mfce81c2cbb" x="72.56" y="98.983491" style="stroke: #000000; stroke-width: 0.8"/>
      </g>
     </g>
     <g id="text_10">
      <!-- 0.0 -->
      <g transform="translate(44.28 104.663491) scale(0.16 -0.16)">
       <use xlink:href="#Bahnschrift-30"/>
       <use xlink:href="#Bahnschrift-2e" x="55.175781"/>
       <use xlink:href="#Bahnschrift-30" x="77.832031"/>
      </g>
     </g>
    </g>
    <g id="ytick_4">
     <g id="line2d_10">
      <g>
       <use xlink:href="#mfce81c2cbb" x="72.56" y="48.959953" style="stroke: #000000; stroke-width: 0.8"/>
      </g>
     </g>
     <g id="text_11">
      <!-- 0.1 -->
      <g transform="translate(47.7875 54.639953) scale(0.16 -0.16)">
       <use xlink:href="#Bahnschrift-30"/>
       <use xlink:href="#Bahnschrift-2e" x="55.175781"/>
       <use xlink:href="#Bahnschrift-31" x="77.832031"/>
      </g>
     </g>
    </g>
    <g id="text_12">
     <!-- 2nd. Difference, mean: 0.00200 -->
     <g transform="translate(29.8725 232.39875) rotate(-90) scale(0.16 -0.16)">
      <defs>
       <path id="Bahnschrift-6e" d="M 500 0 
L 500 3244 
L 1138 3244 
L 1138 0 
L 500 0 
z
M 2469 0 
L 2469 1966 
Q 2469 2309 2292 2496 
Q 2116 2684 1791 2684 
Q 1478 2684 1308 2518 
Q 1138 2353 1138 2053 
L 1072 2678 
Q 1222 2972 1464 3131 
Q 1706 3291 2000 3291 
Q 2528 3291 2817 2945 
Q 3106 2600 3106 1969 
L 3106 0 
L 2469 0 
z
" transform="scale(0.015625)"/>
       <path id="Bahnschrift-64" d="M 2344 0 
L 2344 4544 
L 2981 4544 
L 2981 0 
L 2344 0 
z
M 1528 -56 
Q 991 -56 698 289 
Q 406 634 406 1263 
L 406 1978 
Q 406 2609 692 2954 
Q 978 3300 1497 3300 
Q 1784 3300 2023 3150 
Q 2263 3000 2409 2728 
L 2344 2066 
Q 2344 2272 2269 2419 
Q 2194 2566 2051 2642 
Q 1909 2719 1706 2719 
Q 1391 2719 1217 2522 
Q 1044 2325 1044 1969 
L 1044 1263 
Q 1044 909 1217 717 
Q 1391 525 1706 525 
Q 1909 525 2051 604 
Q 2194 684 2269 834 
Q 2344 984 2344 1194 
L 2388 509 
Q 2300 291 2086 117 
Q 1872 -56 1528 -56 
z
" transform="scale(0.015625)"/>
       <path id="Bahnschrift-44" d="M 994 0 
L 994 606 
L 2022 606 
Q 2525 606 2801 867 
Q 3078 1128 3078 1603 
L 3078 2941 
Q 3078 3416 2801 3677 
Q 2525 3938 2022 3938 
L 994 3938 
L 994 4544 
L 2003 4544 
Q 2828 4544 3279 4117 
Q 3731 3691 3731 2916 
L 3731 1628 
Q 3731 1113 3528 748 
Q 3325 384 2937 192 
Q 2550 0 2000 0 
L 994 0 
z
M 563 0 
L 563 4544 
L 1200 4544 
L 1200 0 
L 563 0 
z
" transform="scale(0.015625)"/>
       <path id="Bahnschrift-69" d="M 500 3906 
L 500 4544 
L 1138 4544 
L 1138 3906 
L 500 3906 
z
M 500 0 
L 500 3244 
L 1138 3244 
L 1138 0 
L 500 0 
z
" transform="scale(0.015625)"/>
       <path id="Bahnschrift-63" d="M 1809 -47 
Q 1141 -47 773 322 
Q 406 691 406 1363 
L 406 1897 
Q 406 2563 773 2927 
Q 1141 3291 1809 3291 
Q 2191 3291 2497 3156 
Q 2803 3022 2984 2772 
L 2984 2772 
L 2525 2359 
L 2525 2359 
Q 2391 2516 2206 2600 
Q 2022 2684 1819 2684 
Q 1450 2684 1247 2478 
Q 1044 2272 1044 1897 
L 1044 1363 
Q 1044 978 1247 768 
Q 1450 559 1819 559 
Q 2022 559 2206 650 
Q 2391 741 2525 906 
L 2525 906 
L 2984 463 
L 2984 463 
Q 2803 219 2495 86 
Q 2188 -47 1809 -47 
z
" transform="scale(0.015625)"/>
       <path id="Bahnschrift-2c" d="M 391 -1038 
L 391 669 
L 1059 669 
L 1059 -344 
L 391 -1038 
z
" transform="scale(0.015625)"/>
       <path id="Bahnschrift-3a" d="M 391 0 
L 391 669 
L 1059 669 
L 1059 0 
L 391 0 
z
M 391 2606 
L 391 3275 
L 1059 3275 
L 1059 2606 
L 391 2606 
z
" transform="scale(0.015625)"/>
      </defs>
      <use xlink:href="#Bahnschrift-32"/>
      <use xlink:href="#Bahnschrift-6e" x="51.660156"/>
      <use xlink:href="#Bahnschrift-64" x="107.519531"/>
      <use xlink:href="#Bahnschrift-2e" x="161.425781"/>
      <use xlink:href="#Bahnschrift-20" x="184.082031"/>
      <use xlink:href="#Bahnschrift-44" x="210.9375"/>
      <use xlink:href="#Bahnschrift-69" x="276.5625"/>
      <use xlink:href="#Bahnschrift-66" x="301.660156"/>
      <use xlink:href="#Bahnschrift-66" x="333.349609"/>
      <use xlink:href="#Bahnschrift-65" x="365.039062"/>
      <use xlink:href="#Bahnschrift-72" x="418.652344"/>
      <use xlink:href="#Bahnschrift-65" x="461.328125"/>
      <use xlink:href="#Bahnschrift-6e" x="514.941406"/>
      <use xlink:href="#Bahnschrift-63" x="570.800781"/>
      <use xlink:href="#Bahnschrift-65" x="620.605469"/>
      <use xlink:href="#Bahnschrift-2c" x="674.21875"/>
      <use xlink:href="#Bahnschrift-20" x="696.875"/>
      <use xlink:href="#Bahnschrift-6d" x="723.730469"/>
      <use xlink:href="#Bahnschrift-65" x="809.375"/>
      <use xlink:href="#Bahnschrift-61" x="862.988281"/>
      <use xlink:href="#Bahnschrift-6e" x="916.210938"/>
      <use xlink:href="#Bahnschrift-3a" x="972.070312"/>
      <use xlink:href="#Bahnschrift-20" x="994.726562"/>
      <use xlink:href="#Bahnschrift-30" x="1021.582031"/>
      <use xlink:href="#Bahnschrift-2e" x="1076.757812"/>
      <use xlink:href="#Bahnschrift-30" x="1099.414062"/>
      <use xlink:href="#Bahnschrift-30" x="1154.589844"/>
      <use xlink:href="#Bahnschrift-32" x="1209.765625"/>
      <use xlink:href="#Bahnschrift-30" x="1261.425781"/>
      <use xlink:href="#Bahnschrift-30" x="1316.601562"/>
     </g>
    </g>
   </g>
   <g id="line2d_11">
    <path d="M 117.567273 93.334531 
L 134.877762 111.158743 
L 152.188252 90.875809 
L 169.498741 96.50667 
L 186.809231 100.291004 
L 204.11972 98.260767 
L 221.43021 87.056739 
L 238.740699 106.860036 
L 256.051189 118.327949 
L 273.361678 86.671157 
L 290.672168 97.254348 
L 307.982657 83.316592 
L 325.293147 101.967285 
L 342.603636 105.082319 
L 359.914126 100.502922 
L 377.224615 89.897677 
L 394.535105 103.033261 
L 411.845594 98.85815 
L 429.156084 76.726562 
L 446.466573 109.258313 
L 463.777063 101.478611 
L 481.087552 105.199455 
L 498.398042 118.498514 
L 515.708531 81.79568 
L 533.019021 128.691525 
L 550.32951 75.408876 
L 567.64 114.299146 
L 584.95049 93.175805 
L 602.260979 87.870211 
L 619.571469 26.86 
L 636.881958 174.402388 
L 654.192448 105.530723 
L 671.502937 99.203736 
L 688.813427 73.207424 
L 706.123916 114.930935 
L 723.434406 115.44345 
L 740.744895 71.520713 
L 758.055385 139.368532 
L 775.365874 74.31454 
L 792.676364 115.52954 
L 809.986853 88.591459 
L 827.297343 70.240201 
L 844.607832 87.09136 
L 861.918322 108.523355 
L 879.228811 105.349205 
L 896.539301 93.997919 
L 913.84979 95.884334 
L 931.16028 82.70559 
L 948.470769 64.805373 
L 965.781259 218.46 
L 983.091748 54.959392 
L 1000.402238 67.020297 
L 1017.712727 83.534535 
" clip-path="url(#p3c31f3e7ca)" style="fill: none; stroke: #d2dbe0; stroke-width: 1.5; stroke-linecap: square"/>
   </g>
   <g id="line2d_12">
    <path d="M 117.567273 98.747817 
L 134.877762 97.19107 
L 152.188252 97.467667 
L 169.498741 98.159599 
L 186.809231 98.289013 
L 204.11972 97.892611 
L 221.43021 98.04371 
L 238.740699 97.928387 
L 256.051189 96.637338 
L 273.361678 97.762042 
L 290.672168 98.169246 
L 307.982657 97.871281 
L 325.293147 99.252416 
L 342.603636 98.516867 
L 359.914126 99.936893 
L 377.224615 98.794299 
L 394.535105 100.156419 
L 411.845594 99.472207 
L 429.156084 97.94932 
L 446.466573 94.958763 
L 463.777063 98.816165 
L 481.087552 99.926871 
L 498.398042 99.788694 
L 515.708531 98.194949 
L 533.019021 98.91635 
L 550.32951 100.193638 
L 567.64 98.618011 
L 584.95049 100.64353 
L 602.260979 100.522929 
L 619.571469 100.83649 
L 636.881958 100.192133 
L 654.192448 98.44417 
L 671.502937 96.873812 
L 688.813427 98.210196 
L 706.123916 97.04308 
L 723.434406 97.972532 
L 740.744895 97.051792 
L 758.055385 96.528281 
L 775.365874 95.375039 
L 792.676364 104.955039 
L 809.986853 98.982889 
L 827.297343 97.057368 
L 844.607832 96.273908 
" clip-path="url(#p3c31f3e7ca)" style="fill: none; stroke: #5dc694; stroke-width: 1.5; stroke-linecap: square"/>
   </g>
   <g id="patch_3">
    <path d="M 72.56 228.04 
L 72.56 17.28 
" style="fill: none; stroke: #000000; stroke-width: 0.8; stroke-linejoin: miter; stroke-linecap: square"/>
   </g>
   <g id="patch_4">
    <path d="M 1062.72 228.04 
L 1062.72 17.28 
" style="fill: none; stroke: #000000; stroke-width: 0.8; stroke-linejoin: miter; stroke-linecap: square"/>
   </g>
   <g id="patch_5">
    <path d="M 72.56 228.04 
L 1062.72 228.04 
" style="fill: none; stroke: #000000; stroke-width: 0.8; stroke-linejoin: miter; stroke-linecap: square"/>
   </g>
   <g id="patch_6">
    <path d="M 72.56 17.28 
L 1062.72 17.28 
" style="fill: none; stroke: #000000; stroke-width: 0.8; stroke-linejoin: miter; stroke-linecap: square"/>
   </g>
   <g id="legend_1">
    <g id="patch_7">
     <path d="M 854.2975 76.605 
L 1051.52 76.605 
Q 1054.72 76.605 1054.72 73.405 
L 1054.72 28.48 
Q 1054.72 25.28 1051.52 25.28 
L 854.2975 25.28 
Q 851.0975 25.28 851.0975 28.48 
L 851.0975 73.405 
Q 851.0975 76.605 854.2975 76.605 
z
" style="fill: #ffffff; opacity: 0.8; stroke: #cccccc; stroke-linejoin: miter"/>
    </g>
    <g id="line2d_13">
     <path d="M 857.4975 37.44 
L 873.4975 37.44 
L 889.4975 37.44 
" style="fill: none; stroke: #d2dbe0; stroke-width: 1.5; stroke-linecap: square"/>
    </g>
    <g id="text_13">
     <!-- 2nd. Difference -->
     <g transform="translate(902.2975 43.04) scale(0.16 -0.16)">
      <use xlink:href="#Bahnschrift-32"/>
      <use xlink:href="#Bahnschrift-6e" x="51.660156"/>
      <use xlink:href="#Bahnschrift-64" x="107.519531"/>
      <use xlink:href="#Bahnschrift-2e" x="161.425781"/>
      <use xlink:href="#Bahnschrift-20" x="184.082031"/>
      <use xlink:href="#Bahnschrift-44" x="210.9375"/>
      <use xlink:href="#Bahnschrift-69" x="276.5625"/>
      <use xlink:href="#Bahnschrift-66" x="301.660156"/>
      <use xlink:href="#Bahnschrift-66" x="333.349609"/>
      <use xlink:href="#Bahnschrift-65" x="365.039062"/>
      <use xlink:href="#Bahnschrift-72" x="418.652344"/>
      <use xlink:href="#Bahnschrift-65" x="461.328125"/>
      <use xlink:href="#Bahnschrift-6e" x="514.941406"/>
      <use xlink:href="#Bahnschrift-63" x="570.800781"/>
      <use xlink:href="#Bahnschrift-65" x="620.605469"/>
     </g>
    </g>
    <g id="line2d_14">
     <path d="M 857.4975 61.3075 
L 873.4975 61.3075 
L 889.4975 61.3075 
" style="fill: none; stroke: #5dc694; stroke-width: 1.5; stroke-linecap: square"/>
    </g>
    <g id="text_14">
     <!-- Rolling Average (20) -->
     <g transform="translate(902.2975 66.9075) scale(0.16 -0.16)">
      <defs>
       <path id="Bahnschrift-52" d="M 841 1922 
L 841 2528 
L 2391 2528 
Q 2669 2528 2837 2722 
Q 3006 2916 3006 3234 
L 3006 3234 
Q 3006 3553 2837 3747 
Q 2669 3941 2391 3941 
L 841 3941 
L 841 4547 
L 2366 4547 
Q 2763 4547 3059 4383 
Q 3356 4219 3520 3925 
Q 3684 3631 3684 3234 
L 3684 3234 
Q 3684 2841 3518 2545 
Q 3353 2250 3058 2086 
Q 2763 1922 2366 1922 
L 841 1922 
z
M 563 0 
L 563 4547 
L 1200 4547 
L 1200 0 
L 563 0 
z
M 3119 0 
L 2078 2063 
L 2713 2206 
L 3875 0 
L 3119 0 
z
" transform="scale(0.015625)"/>
       <path id="Bahnschrift-67" d="M 1588 -1319 
Q 1222 -1319 933 -1183 
Q 644 -1047 484 -800 
L 484 -800 
L 916 -409 
L 916 -409 
Q 1041 -581 1214 -675 
Q 1388 -769 1578 -769 
Q 1944 -769 2144 -567 
Q 2344 -366 2344 3 
L 2344 3244 
L 2981 3244 
L 2981 97 
Q 2981 -578 2617 -948 
Q 2253 -1319 1588 -1319 
z
M 1528 -56 
Q 991 -56 698 289 
Q 406 634 406 1263 
L 406 1978 
Q 406 2609 692 2954 
Q 978 3300 1497 3300 
Q 1784 3300 2023 3150 
Q 2263 3000 2409 2728 
L 2344 2066 
Q 2344 2272 2269 2419 
Q 2194 2566 2051 2642 
Q 1909 2719 1706 2719 
Q 1391 2719 1217 2522 
Q 1044 2325 1044 1969 
L 1044 1263 
Q 1044 909 1217 717 
Q 1391 525 1706 525 
Q 1909 525 2051 604 
Q 2194 684 2269 834 
Q 2344 984 2344 1194 
L 2388 509 
Q 2300 291 2086 117 
Q 1872 -56 1528 -56 
z
" transform="scale(0.015625)"/>
       <path id="Bahnschrift-41" d="M 125 0 
L 1800 4544 
L 2344 4544 
L 4019 0 
L 3331 0 
L 2072 3666 
L 813 0 
L 125 0 
z
M 897 997 
L 897 1603 
L 3288 1603 
L 3288 997 
L 897 997 
z
" transform="scale(0.015625)"/>
       <path id="Bahnschrift-76" d="M 1616 928 
L 2409 3244 
L 3075 3244 
L 1856 0 
L 1375 0 
L 156 3244 
L 822 3244 
L 1616 928 
z
" transform="scale(0.015625)"/>
       <path id="Bahnschrift-28" d="M 1672 -978 
Q 1116 -375 839 373 
Q 563 1122 563 2025 
Q 563 2928 839 3676 
Q 1116 4425 1672 5028 
L 2109 4631 
Q 1638 4106 1403 3456 
Q 1169 2806 1169 2025 
Q 1169 1244 1403 594 
Q 1638 -56 2109 -584 
L 1672 -978 
z
" transform="scale(0.015625)"/>
       <path id="Bahnschrift-29" d="M 500 -978 
L 63 -584 
Q 534 -56 768 594 
Q 1003 1244 1003 2025 
Q 1003 2806 768 3456 
Q 534 4106 63 4631 
L 500 5028 
Q 1056 4425 1332 3676 
Q 1609 2928 1609 2025 
Q 1609 1122 1332 373 
Q 1056 -375 500 -978 
z
" transform="scale(0.015625)"/>
      </defs>
      <use xlink:href="#Bahnschrift-52"/>
      <use xlink:href="#Bahnschrift-6f" x="65.185547"/>
      <use xlink:href="#Bahnschrift-6c" x="119.677734"/>
      <use xlink:href="#Bahnschrift-6c" x="148.632812"/>
      <use xlink:href="#Bahnschrift-69" x="177.587891"/>
      <use xlink:href="#Bahnschrift-6e" x="202.685547"/>
      <use xlink:href="#Bahnschrift-67" x="258.544922"/>
      <use xlink:href="#Bahnschrift-20" x="312.451172"/>
      <use xlink:href="#Bahnschrift-41" x="339.306641"/>
      <use xlink:href="#Bahnschrift-76" x="404.052734"/>
      <use xlink:href="#Bahnschrift-65" x="454.052734"/>
      <use xlink:href="#Bahnschrift-72" x="507.666016"/>
      <use xlink:href="#Bahnschrift-61" x="550.341797"/>
      <use xlink:href="#Bahnschrift-67" x="603.564453"/>
      <use xlink:href="#Bahnschrift-65" x="657.470703"/>
      <use xlink:href="#Bahnschrift-20" x="711.083984"/>
      <use xlink:href="#Bahnschrift-28" x="737.939453"/>
      <use xlink:href="#Bahnschrift-32" x="771.875"/>
      <use xlink:href="#Bahnschrift-30" x="823.535156"/>
      <use xlink:href="#Bahnschrift-29" x="878.710938"/>
     </g>
    </g>
   </g>
  </g>
 </g>
 <defs>
  <clipPath id="p3c31f3e7ca">
   <rect x="72.56" y="17.28" width="990.16" height="210.76"/>
  </clipPath>
 </defs>
</svg>
