<?xml version="1.0" encoding="utf-8" standalone="no"?>
<!DOCTYPE svg PUBLIC "-//W3C//DTD SVG 1.1//EN"
  "http://www.w3.org/Graphics/SVG/1.1/DTD/svg11.dtd">
<svg xmlns:xlink="http://www.w3.org/1999/xlink" width="1080pt" height="288pt" viewBox="0 0 1080 288" xmlns="http://www.w3.org/2000/svg" version="1.1">
 <metadata>
  <rdf:RDF xmlns:dc="http://purl.org/dc/elements/1.1/" xmlns:cc="http://creativecommons.org/ns#" xmlns:rdf="http://www.w3.org/1999/02/22-rdf-syntax-ns#">
   <cc:Work>
    <dc:type rdf:resource="http://purl.org/dc/dcmitype/StillImage"/>
    <dc:date>2024-05-29T19:40:36.267989</dc:date>
    <dc:format>image/svg+xml</dc:format>
    <dc:creator>
     <cc:Agent>
      <dc:title>Matplotlib v3.8.2, https://matplotlib.org/</dc:title>
     </cc:Agent>
    </dc:creator>
   </cc:Work>
  </rdf:RDF>
 </metadata>
 <defs>
  <style type="text/css">*{stroke-linejoin: round; stroke-linecap: butt}</style>
 </defs>
 <g id="figure_1">
  <g id="patch_1">
   <path d="M 0 288 
L 1080 288 
L 1080 0 
L 0 0 
z
" style="fill: #ffffff"/>
  </g>
  <g id="axes_1">
   <g id="patch_2">
    <path d="M 90.2 228.04 
L 1062.72 228.04 
L 1062.72 17.28 
L 90.2 17.28 
z
" style="fill: #ffffff"/>
   </g>
   <g id="matplotlib.axis_1">
    <g id="xtick_1">
     <g id="line2d_1">
      <defs>
       <path id="m053f5f1926" d="M 0 0 
L 0 3.5 
" style="stroke: #000000; stroke-width: 0.8"/>
      </defs>
      <g>
       <use xlink:href="#m053f5f1926" x="125.374718" y="228.04" style="stroke: #000000; stroke-width: 0.8"/>
      </g>
     </g>
     <g id="text_1">
      <!-- 0 -->
      <g transform="translate(120.960968 246.4) scale(0.16 -0.16)">
       <defs>
        <path id="Bahnschrift-30" d="M 1766 -47 
Q 1116 -47 792 301 
Q 469 650 469 1244 
L 469 3309 
Q 469 3913 797 4256 
Q 1125 4600 1766 4600 
Q 2409 4600 2736 4258 
Q 3063 3916 3063 3309 
L 3063 1244 
Q 3063 641 2736 297 
Q 2409 -47 1766 -47 
z
M 1766 559 
Q 2116 559 2270 742 
Q 2425 925 2425 1244 
L 2425 3309 
Q 2425 3631 2270 3812 
Q 2116 3994 1766 3994 
Q 1416 3994 1261 3812 
Q 1106 3631 1106 3309 
L 1106 1244 
Q 1106 925 1261 742 
Q 1416 559 1766 559 
z
" transform="scale(0.015625)"/>
       </defs>
       <use xlink:href="#Bahnschrift-30"/>
      </g>
     </g>
    </g>
    <g id="xtick_2">
     <g id="line2d_2">
      <g>
       <use xlink:href="#m053f5f1926" x="305.989446" y="228.04" style="stroke: #000000; stroke-width: 0.8"/>
      </g>
     </g>
     <g id="text_2">
      <!-- 200 -->
      <g transform="translate(293.029446 246.4) scale(0.16 -0.16)">
       <defs>
        <path id="Bahnschrift-32" d="M 400 0 
L 400 553 
L 1984 2666 
Q 2122 2847 2198 3040 
Q 2275 3234 2275 3406 
L 2275 3413 
Q 2275 3684 2115 3834 
Q 1956 3984 1663 3984 
Q 1388 3984 1214 3820 
Q 1041 3656 1003 3356 
L 1003 3353 
L 344 3353 
L 344 3356 
Q 428 3944 772 4267 
Q 1116 4591 1656 4591 
Q 2269 4591 2603 4281 
Q 2938 3972 2938 3406 
L 2938 3403 
Q 2938 3163 2838 2898 
Q 2738 2634 2559 2394 
L 1244 606 
L 2963 606 
L 2963 0 
L 400 0 
z
" transform="scale(0.015625)"/>
       </defs>
       <use xlink:href="#Bahnschrift-32"/>
       <use xlink:href="#Bahnschrift-30" x="51.660156"/>
       <use xlink:href="#Bahnschrift-30" x="106.835938"/>
      </g>
     </g>
    </g>
    <g id="xtick_3">
     <g id="line2d_3">
      <g>
       <use xlink:href="#m053f5f1926" x="486.604173" y="228.04" style="stroke: #000000; stroke-width: 0.8"/>
      </g>
     </g>
     <g id="text_3">
      <!-- 400 -->
      <g transform="translate(473.225423 246.4) scale(0.16 -0.16)">
       <defs>
        <path id="Bahnschrift-34" d="M 406 697 
L 406 1250 
L 1931 4541 
L 2588 4541 
L 1100 1288 
L 3328 1288 
L 3328 697 
L 406 697 
z
M 2366 -3 
L 2366 2672 
L 2988 2672 
L 2988 -3 
L 2366 -3 
z
" transform="scale(0.015625)"/>
       </defs>
       <use xlink:href="#Bahnschrift-34"/>
       <use xlink:href="#Bahnschrift-30" x="56.884766"/>
       <use xlink:href="#Bahnschrift-30" x="112.060547"/>
      </g>
     </g>
    </g>
    <g id="xtick_4">
     <g id="line2d_4">
      <g>
       <use xlink:href="#m053f5f1926" x="667.218901" y="228.04" style="stroke: #000000; stroke-width: 0.8"/>
      </g>
     </g>
     <g id="text_4">
      <!-- 600 -->
      <g transform="translate(654.286401 246.4) scale(0.16 -0.16)">
       <defs>
        <path id="Bahnschrift-36" d="M 1641 -47 
Q 1038 -47 706 312 
Q 375 672 375 1325 
L 375 1328 
Q 375 1622 456 1951 
Q 538 2281 691 2588 
L 1678 4544 
L 2366 4544 
L 1206 2278 
L 1209 2391 
Q 1372 2700 1788 2700 
Q 2322 2700 2615 2345 
Q 2909 1991 2909 1344 
L 2909 1341 
Q 2909 681 2578 317 
Q 2247 -47 1641 -47 
z
M 1641 566 
Q 1947 566 2109 753 
Q 2272 941 2272 1288 
L 2272 1291 
Q 2272 1672 2100 1880 
Q 1928 2088 1609 2088 
Q 1325 2088 1169 1878 
Q 1013 1669 1013 1288 
L 1013 1284 
Q 1013 938 1177 752 
Q 1341 566 1641 566 
z
" transform="scale(0.015625)"/>
       </defs>
       <use xlink:href="#Bahnschrift-36"/>
       <use xlink:href="#Bahnschrift-30" x="51.318359"/>
       <use xlink:href="#Bahnschrift-30" x="106.494141"/>
      </g>
     </g>
    </g>
    <g id="xtick_5">
     <g id="line2d_5">
      <g>
       <use xlink:href="#m053f5f1926" x="847.833628" y="228.04" style="stroke: #000000; stroke-width: 0.8"/>
      </g>
     </g>
     <g id="text_5">
      <!-- 800 -->
      <g transform="translate(834.506128 246.4) scale(0.16 -0.16)">
       <defs>
        <path id="Bahnschrift-38" d="M 1800 -47 
Q 1384 -47 1075 109 
Q 766 266 594 550 
Q 422 834 422 1216 
L 422 1291 
Q 422 1631 592 1931 
Q 763 2231 1047 2384 
Q 809 2516 662 2764 
Q 516 3013 516 3288 
L 516 3397 
Q 516 3938 867 4264 
Q 1219 4591 1800 4591 
Q 2381 4591 2732 4264 
Q 3084 3938 3084 3397 
L 3084 3288 
Q 3084 3006 2936 2759 
Q 2788 2513 2544 2384 
Q 2831 2231 3004 1931 
Q 3178 1631 3178 1291 
L 3178 1216 
Q 3178 834 3006 550 
Q 2834 266 2525 109 
Q 2216 -47 1800 -47 
z
M 1800 566 
Q 2134 566 2339 758 
Q 2544 950 2544 1263 
L 2544 1306 
Q 2544 1622 2339 1814 
Q 2134 2006 1800 2006 
Q 1466 2006 1261 1814 
Q 1056 1622 1056 1303 
L 1056 1256 
Q 1056 944 1261 755 
Q 1466 566 1800 566 
z
M 1800 2619 
Q 2091 2619 2269 2803 
Q 2447 2988 2447 3291 
L 2447 3334 
Q 2447 3625 2269 3801 
Q 2091 3978 1800 3978 
Q 1509 3978 1331 3801 
Q 1153 3625 1153 3331 
L 1153 3284 
Q 1153 2984 1331 2801 
Q 1509 2619 1800 2619 
z
" transform="scale(0.015625)"/>
       </defs>
       <use xlink:href="#Bahnschrift-38"/>
       <use xlink:href="#Bahnschrift-30" x="56.25"/>
       <use xlink:href="#Bahnschrift-30" x="111.425781"/>
      </g>
     </g>
    </g>
    <g id="xtick_6">
     <g id="line2d_6">
      <g>
       <use xlink:href="#m053f5f1926" x="1028.448355" y="228.04" style="stroke: #000000; stroke-width: 0.8"/>
      </g>
     </g>
     <g id="text_6">
      <!-- 1000 -->
      <g transform="translate(1012.547105 246.4) scale(0.16 -0.16)">
       <defs>
        <path id="Bahnschrift-31" d="M 1566 4544 
L 1566 0 
L 928 0 
L 928 3850 
L 281 3453 
L 281 4113 
L 928 4544 
L 1566 4544 
z
" transform="scale(0.015625)"/>
       </defs>
       <use xlink:href="#Bahnschrift-31"/>
       <use xlink:href="#Bahnschrift-30" x="33.251953"/>
       <use xlink:href="#Bahnschrift-30" x="88.427734"/>
       <use xlink:href="#Bahnschrift-30" x="143.603516"/>
      </g>
     </g>
    </g>
    <g id="text_7">
     <!-- Theta -->
     <g transform="translate(556.98375 265.0575) scale(0.16 -0.16)">
      <defs>
       <path id="Bahnschrift-54" d="M 1222 0 
L 1222 4172 
L 1859 4172 
L 1859 0 
L 1222 0 
z
M -63 3938 
L -63 4544 
L 3144 4544 
L 3144 3938 
L -63 3938 
z
" transform="scale(0.015625)"/>
       <path id="Bahnschrift-68" d="M 500 0 
L 500 4544 
L 1138 4544 
L 1138 0 
L 500 0 
z
M 2469 0 
L 2469 1966 
Q 2469 2309 2292 2496 
Q 2116 2684 1791 2684 
Q 1478 2684 1308 2521 
Q 1138 2359 1138 2063 
L 1072 2688 
Q 1222 2975 1464 3133 
Q 1706 3291 2000 3291 
Q 2528 3291 2817 2945 
Q 3106 2600 3106 1969 
L 3106 0 
L 2469 0 
z
" transform="scale(0.015625)"/>
       <path id="Bahnschrift-65" d="M 1828 -47 
Q 1150 -47 778 331 
Q 406 709 406 1406 
L 406 1772 
Q 406 2497 764 2894 
Q 1122 3291 1772 3291 
Q 2384 3291 2720 2841 
Q 3056 2391 3056 1578 
L 3056 1366 
L 869 1366 
L 869 1878 
L 2450 1878 
L 2450 1878 
Q 2422 2272 2245 2494 
Q 2069 2716 1772 2716 
Q 1413 2716 1213 2478 
Q 1013 2241 1013 1806 
L 1013 1394 
Q 1013 991 1227 775 
Q 1441 559 1828 559 
Q 2022 559 2212 637 
Q 2403 716 2553 856 
L 2553 856 
L 2972 438 
L 2972 438 
Q 2731 206 2431 79 
Q 2131 -47 1828 -47 
z
" transform="scale(0.015625)"/>
       <path id="Bahnschrift-74" d="M 1344 -16 
Q 944 -16 764 206 
Q 584 428 584 844 
L 584 4188 
L 1222 4188 
L 1222 838 
Q 1222 722 1269 656 
Q 1316 591 1406 591 
L 1713 591 
L 1713 -16 
L 1344 -16 
z
M 250 2669 
L 250 3244 
L 1713 3244 
L 1713 2669 
L 250 2669 
z
" transform="scale(0.015625)"/>
       <path id="Bahnschrift-61" d="M 2331 0 
L 2331 2056 
Q 2331 2375 2161 2551 
Q 1991 2728 1678 2728 
Q 1488 2728 1302 2670 
Q 1116 2613 969 2503 
L 503 2822 
Q 688 3044 989 3167 
Q 1291 3291 1659 3291 
Q 2269 3291 2603 2975 
Q 2938 2659 2938 2084 
L 2938 0 
L 2331 0 
z
M 1538 -47 
Q 941 -47 642 200 
Q 344 447 344 956 
Q 344 1441 617 1680 
Q 891 1919 1438 1919 
L 2359 1919 
L 2403 1406 
L 1441 1406 
Q 1194 1406 1069 1295 
Q 944 1184 944 956 
Q 944 709 1109 590 
Q 1275 472 1606 472 
Q 1969 472 2150 550 
Q 2331 628 2331 794 
L 2397 338 
Q 2313 206 2188 122 
Q 2063 38 1902 -4 
Q 1741 -47 1538 -47 
z
" transform="scale(0.015625)"/>
      </defs>
      <use xlink:href="#Bahnschrift-54"/>
      <use xlink:href="#Bahnschrift-68" x="48.144531"/>
      <use xlink:href="#Bahnschrift-65" x="104.003906"/>
      <use xlink:href="#Bahnschrift-74" x="157.617188"/>
      <use xlink:href="#Bahnschrift-61" x="190.234375"/>
     </g>
    </g>
   </g>
   <g id="matplotlib.axis_2">
    <g id="ytick_1">
     <g id="line2d_7">
      <defs>
       <path id="m753dcf194d" d="M 0 0 
L -3.5 0 
" style="stroke: #000000; stroke-width: 0.8"/>
      </defs>
      <g>
       <use xlink:href="#m753dcf194d" x="90.2" y="185.308406" style="stroke: #000000; stroke-width: 0.8"/>
      </g>
     </g>
     <g id="text_8">
      <!-- -0.002 -->
      <g transform="translate(37.155 190.988406) scale(0.16 -0.16)">
       <defs>
        <path id="Bahnschrift-2d" d="M 500 1931 
L 2600 1931 
L 2600 1325 
L 500 1325 
L 500 1931 
z
" transform="scale(0.015625)"/>
        <path id="Bahnschrift-2e" d="M 391 0 
L 391 669 
L 1059 669 
L 1059 0 
L 391 0 
z
" transform="scale(0.015625)"/>
       </defs>
       <use xlink:href="#Bahnschrift-2d"/>
       <use xlink:href="#Bahnschrift-30" x="47.949219"/>
       <use xlink:href="#Bahnschrift-2e" x="103.125"/>
       <use xlink:href="#Bahnschrift-30" x="125.78125"/>
       <use xlink:href="#Bahnschrift-30" x="180.957031"/>
       <use xlink:href="#Bahnschrift-32" x="236.132812"/>
      </g>
     </g>
    </g>
    <g id="ytick_2">
     <g id="line2d_8">
      <g>
       <use xlink:href="#m753dcf194d" x="90.2" y="132.759255" style="stroke: #000000; stroke-width: 0.8"/>
      </g>
     </g>
     <g id="text_9">
      <!-- 0.000 -->
      <g transform="translate(44.265 138.439255) scale(0.16 -0.16)">
       <use xlink:href="#Bahnschrift-30"/>
       <use xlink:href="#Bahnschrift-2e" x="55.175781"/>
       <use xlink:href="#Bahnschrift-30" x="77.832031"/>
       <use xlink:href="#Bahnschrift-30" x="133.007812"/>
       <use xlink:href="#Bahnschrift-30" x="188.183594"/>
      </g>
     </g>
    </g>
    <g id="ytick_3">
     <g id="line2d_9">
      <g>
       <use xlink:href="#m753dcf194d" x="90.2" y="80.210104" style="stroke: #000000; stroke-width: 0.8"/>
      </g>
     </g>
     <g id="text_10">
      <!-- 0.002 -->
      <g transform="translate(44.8275 85.890104) scale(0.16 -0.16)">
       <use xlink:href="#Bahnschrift-30"/>
       <use xlink:href="#Bahnschrift-2e" x="55.175781"/>
       <use xlink:href="#Bahnschrift-30" x="77.832031"/>
       <use xlink:href="#Bahnschrift-30" x="133.007812"/>
       <use xlink:href="#Bahnschrift-32" x="188.183594"/>
      </g>
     </g>
    </g>
    <g id="ytick_4">
     <g id="line2d_10">
      <g>
       <use xlink:href="#m753dcf194d" x="90.2" y="27.660953" style="stroke: #000000; stroke-width: 0.8"/>
      </g>
     </g>
     <g id="text_11">
      <!-- 0.004 -->
      <g transform="translate(43.99 33.340953) scale(0.16 -0.16)">
       <use xlink:href="#Bahnschrift-30"/>
       <use xlink:href="#Bahnschrift-2e" x="55.175781"/>
       <use xlink:href="#Bahnschrift-30" x="77.832031"/>
       <use xlink:href="#Bahnschrift-30" x="133.007812"/>
       <use xlink:href="#Bahnschrift-34" x="188.183594"/>
      </g>
     </g>
    </g>
    <g id="text_12">
     <!-- 1st. Difference,  mean: 0.00032 -->
     <g transform="translate(29.8575 230.86875) rotate(-90) scale(0.16 -0.16)">
      <defs>
       <path id="Bahnschrift-73" d="M 1647 -47 
Q 1216 -47 864 79 
Q 513 206 234 459 
L 234 459 
L 613 925 
L 613 925 
Q 878 725 1136 625 
Q 1394 525 1647 525 
Q 2025 525 2214 642 
Q 2403 759 2403 994 
Q 2403 1175 2276 1250 
Q 2150 1325 1945 1348 
Q 1741 1372 1506 1388 
Q 1309 1403 1115 1436 
Q 922 1469 762 1555 
Q 603 1641 508 1809 
Q 413 1978 413 2263 
Q 413 2778 728 3034 
Q 1044 3291 1669 3291 
Q 2050 3291 2378 3187 
Q 2706 3084 2994 2872 
L 2994 2872 
L 2609 2406 
L 2609 2406 
Q 2366 2563 2130 2641 
Q 1894 2719 1669 2719 
Q 1344 2719 1181 2608 
Q 1019 2497 1019 2275 
Q 1019 2128 1131 2064 
Q 1244 2000 1428 1981 
Q 1613 1963 1825 1947 
Q 2028 1934 2236 1901 
Q 2444 1869 2619 1775 
Q 2794 1681 2900 1497 
Q 3006 1313 3006 994 
Q 3006 472 2667 212 
Q 2328 -47 1647 -47 
z
" transform="scale(0.015625)"/>
       <path id="Bahnschrift-20" transform="scale(0.015625)"/>
       <path id="Bahnschrift-44" d="M 994 0 
L 994 606 
L 2022 606 
Q 2525 606 2801 867 
Q 3078 1128 3078 1603 
L 3078 2941 
Q 3078 3416 2801 3677 
Q 2525 3938 2022 3938 
L 994 3938 
L 994 4544 
L 2003 4544 
Q 2828 4544 3279 4117 
Q 3731 3691 3731 2916 
L 3731 1628 
Q 3731 1113 3528 748 
Q 3325 384 2937 192 
Q 2550 0 2000 0 
L 994 0 
z
M 563 0 
L 563 4544 
L 1200 4544 
L 1200 0 
L 563 0 
z
" transform="scale(0.015625)"/>
       <path id="Bahnschrift-69" d="M 500 3906 
L 500 4544 
L 1138 4544 
L 1138 3906 
L 500 3906 
z
M 500 0 
L 500 3244 
L 1138 3244 
L 1138 0 
L 500 0 
z
" transform="scale(0.015625)"/>
       <path id="Bahnschrift-66" d="M 594 0 
L 594 3684 
Q 594 4113 791 4328 
Q 988 4544 1403 4544 
L 1872 4544 
L 1872 3938 
L 1416 3938 
Q 1319 3938 1275 3864 
Q 1231 3791 1231 3691 
L 1231 0 
L 594 0 
z
M 250 2700 
L 250 3244 
L 1872 3244 
L 1872 2700 
L 250 2700 
z
" transform="scale(0.015625)"/>
       <path id="Bahnschrift-72" d="M 500 0 
L 500 3244 
L 1138 3244 
L 1138 0 
L 500 0 
z
M 2284 2475 
Q 2200 2578 2072 2631 
Q 1944 2684 1775 2684 
Q 1472 2684 1305 2517 
Q 1138 2350 1138 2053 
L 1072 2678 
Q 1219 2966 1458 3128 
Q 1697 3291 1984 3291 
Q 2206 3291 2386 3227 
Q 2566 3163 2700 3038 
L 2284 2475 
z
" transform="scale(0.015625)"/>
       <path id="Bahnschrift-6e" d="M 500 0 
L 500 3244 
L 1138 3244 
L 1138 0 
L 500 0 
z
M 2469 0 
L 2469 1966 
Q 2469 2309 2292 2496 
Q 2116 2684 1791 2684 
Q 1478 2684 1308 2518 
Q 1138 2353 1138 2053 
L 1072 2678 
Q 1222 2972 1464 3131 
Q 1706 3291 2000 3291 
Q 2528 3291 2817 2945 
Q 3106 2600 3106 1969 
L 3106 0 
L 2469 0 
z
" transform="scale(0.015625)"/>
       <path id="Bahnschrift-63" d="M 1809 -47 
Q 1141 -47 773 322 
Q 406 691 406 1363 
L 406 1897 
Q 406 2563 773 2927 
Q 1141 3291 1809 3291 
Q 2191 3291 2497 3156 
Q 2803 3022 2984 2772 
L 2984 2772 
L 2525 2359 
L 2525 2359 
Q 2391 2516 2206 2600 
Q 2022 2684 1819 2684 
Q 1450 2684 1247 2478 
Q 1044 2272 1044 1897 
L 1044 1363 
Q 1044 978 1247 768 
Q 1450 559 1819 559 
Q 2022 559 2206 650 
Q 2391 741 2525 906 
L 2525 906 
L 2984 463 
L 2984 463 
Q 2803 219 2495 86 
Q 2188 -47 1809 -47 
z
" transform="scale(0.015625)"/>
       <path id="Bahnschrift-2c" d="M 391 -1038 
L 391 669 
L 1059 669 
L 1059 -344 
L 391 -1038 
z
" transform="scale(0.015625)"/>
       <path id="Bahnschrift-6d" d="M 4375 0 
L 4375 1966 
Q 4375 2309 4198 2496 
Q 4022 2684 3697 2684 
Q 3400 2684 3237 2503 
Q 3075 2322 3075 1991 
L 2947 2616 
Q 3103 2941 3353 3116 
Q 3603 3291 3906 3291 
Q 4434 3291 4723 2945 
Q 5013 2600 5013 1969 
L 5013 0 
L 4375 0 
z
M 500 0 
L 500 3244 
L 1138 3244 
L 1138 0 
L 500 0 
z
M 2438 0 
L 2438 1966 
Q 2438 2309 2269 2496 
Q 2100 2684 1791 2684 
Q 1478 2684 1308 2518 
Q 1138 2353 1138 2053 
L 1072 2678 
Q 1222 2972 1464 3131 
Q 1706 3291 2000 3291 
Q 2513 3291 2794 2945 
Q 3075 2600 3075 1969 
L 3075 0 
L 2438 0 
z
" transform="scale(0.015625)"/>
       <path id="Bahnschrift-3a" d="M 391 0 
L 391 669 
L 1059 669 
L 1059 0 
L 391 0 
z
M 391 2606 
L 391 3275 
L 1059 3275 
L 1059 2606 
L 391 2606 
z
" transform="scale(0.015625)"/>
       <path id="Bahnschrift-33" d="M 1644 -47 
Q 1259 -47 970 92 
Q 681 231 506 493 
Q 331 756 281 1131 
L 281 1131 
L 931 1131 
L 931 1131 
Q 975 838 1162 702 
Q 1350 566 1644 566 
Q 1959 566 2134 734 
Q 2309 903 2309 1209 
L 2309 1347 
Q 2309 1688 2143 1873 
Q 1978 2059 1675 2059 
L 1353 2059 
L 1353 2666 
L 1675 2666 
Q 1944 2666 2089 2825 
Q 2234 2984 2234 3275 
L 2234 3416 
Q 2234 3684 2079 3831 
Q 1925 3978 1641 3978 
Q 1400 3978 1233 3842 
Q 1066 3706 1003 3413 
L 1003 3413 
L 356 3413 
L 356 3413 
Q 453 3975 789 4283 
Q 1125 4591 1641 4591 
Q 2228 4591 2550 4281 
Q 2872 3972 2872 3409 
L 2872 3334 
Q 2872 2994 2687 2742 
Q 2503 2491 2166 2372 
Q 2538 2294 2742 2008 
Q 2947 1722 2947 1281 
L 2947 1206 
Q 2947 609 2606 281 
Q 2266 -47 1644 -47 
z
" transform="scale(0.015625)"/>
      </defs>
      <use xlink:href="#Bahnschrift-31"/>
      <use xlink:href="#Bahnschrift-73" x="33.251953"/>
      <use xlink:href="#Bahnschrift-74" x="85.107422"/>
      <use xlink:href="#Bahnschrift-2e" x="117.724609"/>
      <use xlink:href="#Bahnschrift-20" x="140.380859"/>
      <use xlink:href="#Bahnschrift-44" x="167.236328"/>
      <use xlink:href="#Bahnschrift-69" x="232.861328"/>
      <use xlink:href="#Bahnschrift-66" x="257.958984"/>
      <use xlink:href="#Bahnschrift-66" x="289.648438"/>
      <use xlink:href="#Bahnschrift-65" x="321.337891"/>
      <use xlink:href="#Bahnschrift-72" x="374.951172"/>
      <use xlink:href="#Bahnschrift-65" x="417.626953"/>
      <use xlink:href="#Bahnschrift-6e" x="471.240234"/>
      <use xlink:href="#Bahnschrift-63" x="527.099609"/>
      <use xlink:href="#Bahnschrift-65" x="576.904297"/>
      <use xlink:href="#Bahnschrift-2c" x="630.517578"/>
      <use xlink:href="#Bahnschrift-20" x="653.173828"/>
      <use xlink:href="#Bahnschrift-20" x="680.029297"/>
      <use xlink:href="#Bahnschrift-6d" x="706.884766"/>
      <use xlink:href="#Bahnschrift-65" x="792.529297"/>
      <use xlink:href="#Bahnschrift-61" x="846.142578"/>
      <use xlink:href="#Bahnschrift-6e" x="899.365234"/>
      <use xlink:href="#Bahnschrift-3a" x="955.224609"/>
      <use xlink:href="#Bahnschrift-20" x="977.880859"/>
      <use xlink:href="#Bahnschrift-30" x="1004.736328"/>
      <use xlink:href="#Bahnschrift-2e" x="1059.912109"/>
      <use xlink:href="#Bahnschrift-30" x="1082.568359"/>
      <use xlink:href="#Bahnschrift-30" x="1137.744141"/>
      <use xlink:href="#Bahnschrift-30" x="1192.919922"/>
      <use xlink:href="#Bahnschrift-33" x="1248.095703"/>
      <use xlink:href="#Bahnschrift-32" x="1300.976562"/>
     </g>
    </g>
   </g>
   <g id="line2d_11">
    <path d="M 134.405455 125.622519 
L 135.308528 105.477692 
L 136.211602 140.05663 
L 137.114675 121.848053 
L 138.017749 128.214565 
L 138.920823 110.161582 
L 139.823896 132.159065 
L 140.72697 131.220612 
L 141.630044 126.334155 
L 142.533117 153.899894 
L 143.436191 138.682875 
L 144.339265 92.43187 
L 145.242338 110.661721 
L 146.145412 119.968877 
L 147.048485 141.610527 
L 147.951559 116.825199 
L 148.854633 134.698662 
L 149.757706 138.364057 
L 150.66078 92.394885 
L 151.563854 107.525595 
L 152.466927 112.420978 
L 153.370001 126.290646 
L 154.273075 120.520409 
L 155.176148 118.38634 
L 156.079222 94.238959 
L 156.982295 79.465286 
L 157.885369 100.031957 
L 158.788443 93.518324 
L 159.691516 110.039292 
L 160.59459 111.264094 
L 161.497664 118.736132 
L 162.400737 123.688612 
L 164.206885 120.763403 
L 165.109958 121.493792 
L 166.013032 134.180131 
L 166.916105 136.165854 
L 167.819179 134.64897 
L 168.722253 151.250063 
L 169.625326 133.250333 
L 170.5284 155.155188 
L 171.431474 116.015614 
L 172.334547 132.308651 
L 173.237621 122.501459 
L 174.140695 134.027093 
L 175.043768 156.998453 
L 175.946842 105.987171 
L 176.849915 148.481419 
L 177.752989 150.97336 
L 178.656063 115.936395 
L 179.559136 73.997952 
L 180.46221 139.052703 
L 181.365284 149.889121 
L 182.268357 96.181285 
L 183.171431 131.476439 
L 184.074505 89.117319 
L 184.977578 111.495975 
L 185.880652 102.712816 
L 186.783726 125.67025 
L 187.686799 134.325436 
L 188.589873 111.756769 
L 189.492946 155.117824 
L 190.39602 113.534933 
L 191.299094 126.046594 
L 192.202167 132.814199 
L 193.105241 133.359339 
L 194.008315 146.920641 
L 194.911388 100.342302 
L 195.814462 115.501245 
L 196.717536 113.828051 
L 197.620609 179.874602 
L 198.523683 127.044407 
L 199.426756 96.754689 
L 200.32983 133.862181 
L 201.232904 110.312427 
L 202.135977 170.052494 
L 203.039051 115.198045 
L 203.942125 142.482618 
L 204.845198 91.598806 
L 205.748272 124.233112 
L 206.651346 107.351402 
L 207.554419 106.566511 
L 208.457493 115.407719 
L 209.360566 139.983331 
L 210.26364 135.954153 
L 211.166714 134.161657 
L 212.069787 119.35437 
L 212.972861 121.93525 
L 213.875935 111.14749 
L 214.779008 140.808039 
L 215.682082 105.473398 
L 216.585156 117.7586 
L 217.488229 152.328558 
L 218.391303 154.383286 
L 219.294376 116.487943 
L 220.19745 120.017238 
L 221.100524 119.454718 
L 222.906671 136.785482 
L 223.809745 119.18418 
L 224.712818 127.501952 
L 225.615892 130.272212 
L 226.518966 147.412793 
L 227.422039 138.368646 
L 228.325113 112.203881 
L 229.228186 134.195926 
L 230.13126 141.806529 
L 231.034334 128.409217 
L 233.743555 137.007143 
L 234.646628 125.77521 
L 235.549702 129.532787 
L 236.452776 131.722051 
L 238.258923 118.510559 
L 239.161996 130.933173 
L 240.06507 145.506506 
L 240.968144 144.272313 
L 241.871217 111.99981 
L 242.774291 135.938458 
L 243.677365 110.37296 
L 244.580438 125.548234 
L 245.483512 116.536203 
L 246.386586 131.618978 
L 247.289659 100.035992 
L 248.192733 144.411601 
L 249.095806 151.165115 
L 249.99888 130.005999 
L 250.901954 93.008829 
L 251.805027 117.820798 
L 252.708101 133.700783 
L 253.611175 112.493482 
L 254.514248 109.086623 
L 255.417322 142.664769 
L 257.223469 130.611567 
L 258.126543 103.498067 
L 259.029616 90.973718 
L 259.93269 124.280355 
L 260.835764 139.26777 
L 261.738837 169.660894 
L 262.641911 78.025908 
L 263.544985 125.762418 
L 264.448058 130.907329 
L 265.351132 150.829728 
L 266.254206 86.769962 
L 267.157279 135.202106 
L 268.060353 125.821331 
L 268.963427 161.67403 
L 269.8665 139.470206 
L 270.769574 121.9096 
L 271.672647 116.087989 
L 272.575721 121.652815 
L 273.478795 135.625566 
L 274.381868 98.741054 
L 275.284942 141.073296 
L 276.188016 140.646644 
L 277.091089 138.570724 
L 277.994163 130.04575 
L 278.897237 125.629147 
L 279.80031 87.930533 
L 280.703384 170.317178 
L 281.606457 119.630884 
L 282.509531 135.551152 
L 283.412605 114.851589 
L 284.315678 133.739929 
L 285.218752 102.747514 
L 286.121826 134.268057 
L 287.024899 112.807216 
L 288.831047 129.939224 
L 289.73412 158.466584 
L 290.637194 121.575347 
L 291.540267 115.660378 
L 292.443341 106.290566 
L 293.346415 107.253252 
L 294.249488 121.474522 
L 295.152562 116.896431 
L 296.055636 131.443 
L 296.958709 79.112816 
L 297.861783 143.364916 
L 298.764857 132.011289 
L 299.66793 128.547741 
L 300.571004 119.075002 
L 301.474077 143.439158 
L 302.377151 142.251826 
L 303.280225 112.74985 
L 304.183298 101.791039 
L 305.086372 130.009357 
L 305.989446 108.453852 
L 306.892519 115.67245 
L 307.795593 109.739449 
L 308.698667 123.089352 
L 309.60174 143.022871 
L 310.504814 150.300576 
L 311.407887 133.774655 
L 312.310961 102.048864 
L 313.214035 163.686868 
L 314.117108 131.75715 
L 315.020182 155.246488 
L 315.923256 99.543435 
L 316.826329 117.760526 
L 317.729403 120.141084 
L 318.632477 110.425217 
L 319.53555 108.81922 
L 320.438624 121.302294 
L 321.341697 114.043394 
L 322.244771 124.890878 
L 323.147845 124.823411 
L 324.050918 150.446366 
L 324.953992 111.378791 
L 325.857066 120.024602 
L 326.760139 114.027595 
L 327.663213 93.908777 
L 328.566287 113.547702 
L 329.46936 116.825127 
L 330.372434 137.378825 
L 331.275507 92.413096 
L 332.178581 64.299383 
L 333.081655 100.302994 
L 333.984728 146.076126 
L 334.887802 121.730662 
L 335.790876 130.067813 
L 336.693949 146.146308 
L 338.500097 133.732653 
L 339.40317 160.309812 
L 340.306244 160.455749 
L 341.209317 137.968172 
L 342.112391 131.925314 
L 343.015465 134.783081 
L 343.918538 147.234043 
L 344.821612 161.980451 
L 345.724686 151.065719 
L 346.627759 164.842026 
L 347.530833 171.593464 
L 348.433907 115.949334 
L 349.33698 138.522047 
L 350.240054 150.693563 
L 351.143127 139.459162 
L 352.046201 112.810552 
L 352.949275 143.262169 
L 353.852348 121.895108 
L 354.755422 120.370766 
L 355.658496 97.011248 
L 356.561569 86.53892 
L 357.464643 82.166272 
L 358.367717 91.8269 
L 360.173864 97.463916 
L 361.076938 130.93218 
L 361.980011 87.1223 
L 362.883085 89.022086 
L 363.786158 109.781305 
L 364.689232 75.113557 
L 365.592306 78.382897 
L 366.495379 129.553632 
L 367.398453 140.843191 
L 368.301527 142.451731 
L 369.2046 105.520139 
L 370.107674 122.797819 
L 371.010748 100.871336 
L 371.913821 106.395447 
L 372.816895 127.465741 
L 373.719968 131.054569 
L 374.623042 155.344772 
L 375.526116 165.353523 
L 376.429189 111.35514 
L 377.332263 92.772995 
L 378.235337 117.222544 
L 379.13841 122.802962 
L 380.041484 119.153867 
L 380.944558 137.316777 
L 381.847631 111.67056 
L 382.750705 98.458789 
L 383.653778 129.796519 
L 384.556852 118.679715 
L 385.459926 109.123489 
L 386.362999 121.405518 
L 387.266073 126.224069 
L 388.169147 124.241782 
L 389.07222 101.247006 
L 389.975294 130.780276 
L 390.878368 85.047138 
L 391.781441 121.067995 
L 392.684515 78.835769 
L 393.587588 113.11296 
L 394.490662 131.330364 
L 395.393736 160.658965 
L 396.296809 115.533259 
L 397.199883 120.199875 
L 398.102957 127.015331 
L 399.00603 130.787996 
L 399.909104 127.81785 
L 400.812178 140.118907 
L 401.715251 99.332596 
L 402.618325 124.170149 
L 403.521398 124.854163 
L 404.424472 124.435557 
L 405.327546 147.240295 
L 406.230619 119.224779 
L 407.133693 127.954404 
L 408.036767 118.818947 
L 408.93984 129.561306 
L 409.842914 114.213324 
L 410.745988 128.101462 
L 411.649061 133.427855 
L 412.552135 121.487499 
L 413.455208 119.340748 
L 414.358282 130.510448 
L 415.261356 114.637154 
L 416.164429 129.163917 
L 417.067503 98.670135 
L 417.970577 137.033973 
L 418.87365 150.123686 
L 419.776724 108.036825 
L 420.679798 141.469516 
L 421.582871 107.665236 
L 422.485945 117.088825 
L 423.389018 112.758398 
L 424.292092 105.601331 
L 425.195166 135.322998 
L 426.098239 145.223341 
L 427.001313 136.623818 
L 427.904387 143.358834 
L 428.80746 98.733421 
L 429.710534 104.442866 
L 430.613608 138.309704 
L 431.516681 119.225932 
L 432.419755 119.699059 
L 433.322828 142.579117 
L 434.225902 125.348924 
L 435.128976 142.515665 
L 436.032049 131.693765 
L 436.935123 116.061979 
L 437.838197 146.779571 
L 438.74127 107.962289 
L 439.644344 131.88182 
L 440.547418 129.546337 
L 441.450491 121.733434 
L 442.353565 146.415904 
L 443.256638 132.599605 
L 444.159712 127.490325 
L 445.062786 101.498792 
L 445.965859 78.752058 
L 446.868933 176.080901 
L 447.772007 127.8765 
L 448.67508 125.791851 
L 449.578154 117.232044 
L 450.481228 149.441565 
L 451.384301 109.071031 
L 452.287375 124.019965 
L 453.190449 107.423868 
L 454.093522 100.774956 
L 454.996596 140.221746 
L 455.899669 101.530596 
L 456.802743 116.989466 
L 457.705817 100.223847 
L 458.60889 141.513611 
L 459.511964 103.752578 
L 460.415038 105.018894 
L 461.318111 109.713928 
L 462.221185 95.107028 
L 463.124259 134.454694 
L 464.027332 148.569593 
L 464.930406 121.321898 
L 466.736553 98.843899 
L 467.639627 137.536913 
L 468.5427 94.00206 
L 469.445774 117.752132 
L 470.348848 106.493199 
L 471.251921 137.558806 
L 472.154995 116.179818 
L 473.058069 111.533962 
L 473.961142 157.224179 
L 474.864216 111.966503 
L 475.767289 138.400249 
L 476.670363 110.169829 
L 477.573437 152.153805 
L 478.47651 100.280038 
L 479.379584 119.655666 
L 480.282658 131.975826 
L 481.185731 131.198853 
L 482.088805 128.171849 
L 482.991879 137.416791 
L 483.894952 134.239962 
L 484.798026 132.621398 
L 485.701099 126.760764 
L 486.604173 145.396353 
L 488.41032 112.654507 
L 489.313394 106.177445 
L 490.216468 112.166179 
L 491.119541 107.077077 
L 492.022615 112.267364 
L 492.925689 158.633128 
L 493.828762 111.808494 
L 494.731836 95.46029 
L 495.634909 115.780385 
L 496.537983 145.351601 
L 497.441057 119.166198 
L 498.34413 129.119604 
L 499.247204 75.221056 
L 500.150278 114.111177 
L 501.053351 99.425233 
L 501.956425 113.06868 
L 502.859499 131.210492 
L 503.762572 123.715395 
L 504.665646 109.662069 
L 505.568719 141.39254 
L 506.471793 143.09647 
L 507.374867 116.788431 
L 508.27794 152.139249 
L 509.181014 166.837722 
L 510.084088 26.86 
L 511.890235 141.721443 
L 512.793309 155.741102 
L 513.696382 93.566406 
L 514.599456 106.864192 
L 515.502529 118.331709 
L 516.405603 131.747516 
L 517.308677 141.066581 
L 518.21175 117.861523 
L 519.114824 119.142522 
L 520.017898 123.701701 
L 520.920971 98.566617 
L 521.824045 100.252707 
L 522.727119 101.251115 
L 523.630192 69.221788 
L 524.533266 104.742793 
L 525.436339 147.195633 
L 526.339413 92.909288 
L 527.242487 73.267764 
L 528.14556 218.46 
L 529.048634 135.274772 
L 529.951708 131.881451 
L 530.854781 99.115148 
L 531.757855 140.551811 
L 532.660929 145.24548 
L 534.467076 86.194381 
L 535.37015 150.284558 
L 536.273223 138.034192 
L 537.176297 121.105374 
L 538.07937 112.213907 
L 538.982444 147.724156 
L 539.885518 108.45425 
L 540.788591 128.486394 
L 541.691665 122.931252 
L 542.594739 139.612911 
L 543.497812 117.260835 
L 544.400886 128.259906 
L 545.30396 161.640669 
L 546.207033 114.612482 
L 547.110107 135.744179 
L 548.01318 82.076673 
L 548.916254 117.833671 
L 549.819328 146.229793 
L 550.722401 99.567356 
L 551.625475 121.571338 
L 552.528549 131.318702 
L 553.431622 90.965913 
L 554.334696 129.349449 
L 555.23777 123.743532 
L 556.140843 110.754718 
L 557.043917 101.507029 
L 557.94699 154.392638 
L 558.850064 134.661302 
L 559.753138 138.190569 
L 560.656211 116.653775 
L 561.559285 102.983116 
L 562.462359 148.807215 
L 563.365432 86.827632 
L 564.268506 121.365585 
L 565.17158 120.31107 
L 566.074653 138.705116 
L 566.977727 132.480419 
L 567.8808 109.962526 
L 568.783874 144.710144 
L 569.686948 136.972244 
L 570.590021 144.960114 
L 571.493095 149.194323 
L 572.396169 120.00974 
L 573.299242 99.864217 
L 574.202316 148.711587 
L 576.008463 107.630353 
L 576.911537 112.874504 
L 577.81461 135.286145 
L 578.717684 116.821024 
L 579.620758 130.008229 
L 580.523831 76.007736 
L 581.426905 108.764717 
L 582.329979 147.444456 
L 583.233052 127.767714 
L 584.136126 120.119121 
L 585.0392 128.141335 
L 585.942273 124.722943 
L 586.845347 95.134835 
L 587.74842 118.320104 
L 588.651494 78.746508 
L 589.554568 103.900041 
L 590.457641 105.151344 
L 591.360715 148.179026 
L 592.263789 122.667564 
L 593.166862 107.085687 
L 594.069936 153.034262 
L 594.97301 139.206392 
L 595.876083 133.336198 
L 596.779157 143.748373 
L 597.68223 128.264633 
L 598.585304 148.798617 
L 599.488378 148.39726 
L 600.391451 93.949477 
L 601.294525 129.052256 
L 602.197599 155.212607 
L 603.100672 110.889063 
L 604.003746 115.226654 
L 604.90682 142.310364 
L 605.809893 148.982942 
L 606.712967 136.477834 
L 607.61604 131.257728 
L 608.519114 126.861895 
L 609.422188 104.976272 
L 611.228335 138.257601 
L 612.131409 86.91412 
L 613.034482 107.757115 
L 613.937556 122.055184 
L 614.84063 106.646087 
L 615.743703 139.818266 
L 616.646777 89.902677 
L 617.54985 131.60487 
L 618.452924 141.478734 
L 619.355998 124.841459 
L 620.259071 94.728755 
L 621.162145 133.9291 
L 622.065219 148.969054 
L 622.968292 141.401917 
L 624.77444 113.671279 
L 625.677513 154.837416 
L 626.580587 143.880228 
L 627.483661 153.29852 
L 628.386734 44.013041 
L 629.289808 105.606199 
L 630.192881 130.351158 
L 631.095955 138.079671 
L 631.999029 126.01618 
L 632.902102 147.012336 
L 633.805176 113.149064 
L 634.70825 163.408086 
L 635.611323 130.181733 
L 636.514397 109.423228 
L 637.417471 102.72957 
L 638.320544 136.066301 
L 639.223618 127.73403 
L 640.126691 101.615518 
L 641.029765 100.889358 
L 641.932839 118.528923 
L 642.835912 133.927095 
L 643.738986 123.494881 
L 644.64206 128.283608 
L 645.545133 101.517315 
L 646.448207 194.552067 
L 647.351281 152.487459 
L 648.254354 117.157548 
L 649.157428 130.989583 
L 650.060501 128.516666 
L 650.963575 124.582525 
L 651.866649 138.902315 
L 652.769722 112.746762 
L 653.672796 105.741358 
L 654.57587 123.142549 
L 655.478943 112.109537 
L 656.382017 122.839749 
L 657.285091 113.001151 
L 658.188164 121.88038 
L 659.091238 141.6032 
L 659.994311 120.542864 
L 660.897385 147.115578 
L 661.800459 112.969434 
L 662.703532 94.538219 
L 663.606606 147.186901 
L 664.50968 128.280858 
L 665.412753 127.463439 
L 666.315827 122.727749 
L 667.218901 112.141526 
L 668.121974 92.132293 
L 669.025048 135.312258 
L 669.928121 108.571324 
L 670.831195 120.936738 
L 671.734269 161.61772 
L 672.637342 136.36086 
L 673.540416 150.014104 
L 674.44349 120.080148 
L 675.346563 124.960321 
L 676.249637 108.606307 
L 677.152711 125.400235 
L 678.055784 71.528847 
L 678.958858 115.962182 
L 679.861931 92.665768 
L 680.765005 123.901127 
L 681.668079 118.83608 
L 682.571152 117.789311 
L 683.474226 120.084351 
L 684.3773 160.870452 
L 685.280373 146.65072 
L 686.183447 150.46846 
L 687.086521 139.914038 
L 687.989594 145.292077 
L 688.892668 155.838923 
L 689.795741 110.143099 
L 690.698815 131.77107 
L 691.601889 137.355165 
L 692.504962 145.734393 
L 693.408036 158.150867 
L 694.31111 155.26819 
L 695.214183 135.792931 
L 696.117257 192.179912 
L 697.020331 124.079363 
L 697.923404 175.088052 
L 698.826478 123.473974 
L 699.729551 127.373301 
L 700.632625 134.012322 
L 701.535699 157.344937 
L 702.438772 152.04249 
L 703.341846 125.321517 
L 704.24492 148.792892 
L 705.147993 110.502093 
L 706.051067 114.611357 
L 706.954141 111.411144 
L 707.857214 129.813843 
L 708.760288 151.552211 
L 709.663362 132.989128 
L 710.566435 131.777118 
L 711.469509 122.383442 
L 712.372582 135.950185 
L 713.275656 152.377905 
L 714.17873 83.125205 
L 715.081803 136.77991 
L 715.984877 118.270278 
L 716.887951 124.682729 
L 717.791024 116.843497 
L 718.694098 127.261097 
L 719.597172 103.544731 
L 720.500245 114.315301 
L 721.403319 105.80973 
L 722.306392 99.214275 
L 723.209466 114.045577 
L 724.11254 101.619609 
L 725.015613 118.551553 
L 725.918687 95.063685 
L 726.821761 76.317677 
L 727.724834 109.757312 
L 728.627908 102.824158 
L 729.530982 112.586041 
L 730.434055 113.975495 
L 731.337129 97.298099 
L 732.240202 167.198561 
L 734.04635 101.920329 
L 734.949423 171.614437 
L 735.852497 116.872054 
L 736.755571 125.371175 
L 737.658644 122.031285 
L 738.561718 105.758842 
L 739.464792 129.365983 
L 740.367865 119.018529 
L 741.270939 134.14552 
L 742.174012 135.888365 
L 743.077086 130.685026 
L 743.98016 158.442088 
L 744.883233 124.804834 
L 745.786307 113.351356 
L 746.689381 115.830293 
L 747.592454 139.28542 
L 748.495528 144.793588 
L 749.398602 143.616211 
L 750.301675 118.030933 
L 751.204749 147.917665 
L 752.107822 118.025442 
L 753.010896 117.087052 
L 753.91397 146.299603 
L 754.817043 148.30732 
L 755.720117 98.634582 
L 756.623191 146.6981 
L 757.526264 129.163094 
L 758.429338 151.823229 
L 759.332412 102.073026 
L 760.235485 121.028153 
L 761.138559 128.214318 
L 762.041632 116.312152 
L 762.944706 186.285027 
L 763.84778 141.882102 
L 765.653927 97.707775 
L 766.557001 125.233685 
L 767.460074 120.195737 
L 768.363148 118.10011 
L 769.266222 95.979946 
L 770.169295 161.264477 
L 771.072369 120.35639 
L 771.975442 139.956495 
L 772.878516 99.421638 
L 773.78159 168.725874 
L 774.684663 105.827509 
L 775.587737 166.645065 
L 776.490811 114.619714 
L 777.393884 141.006365 
L 778.296958 117.067304 
L 779.200032 156.749743 
L 780.103105 140.820668 
L 781.006179 62.998422 
L 781.909252 97.034887 
L 782.812326 149.228968 
L 783.7154 120.018253 
L 784.618473 143.226456 
L 785.521547 111.893028 
L 786.424621 120.855223 
L 787.327694 135.414489 
L 788.230768 109.054822 
L 789.133842 95.826134 
L 790.036915 100.447963 
L 790.939989 128.876064 
L 791.843062 132.939195 
L 792.746136 104.369498 
L 793.64921 89.758889 
L 795.455357 141.180357 
L 796.358431 169.867173 
L 797.261504 88.960861 
L 798.164578 80.091727 
L 799.067652 172.874097 
L 799.970725 146.097876 
L 800.873799 128.147311 
L 801.776873 124.306668 
L 802.679946 76.587432 
L 803.58302 95.131406 
L 804.486093 122.551066 
L 805.389167 123.123129 
L 806.292241 120.07025 
L 807.195314 171.807015 
L 808.098388 138.499307 
L 809.001462 149.802416 
L 809.904535 103.637678 
L 810.807609 151.1941 
L 811.710683 137.603011 
L 812.613756 118.889424 
L 813.51683 122.758128 
L 814.419903 105.963104 
L 815.322977 132.655411 
L 816.226051 127.142181 
L 817.129124 101.962046 
L 818.032198 103.279003 
L 818.935272 123.174478 
L 819.838345 168.584294 
L 820.741419 148.321578 
L 821.644493 165.509843 
L 822.547566 129.165825 
L 823.45064 112.20327 
L 824.353713 118.40731 
L 825.256787 99.341501 
L 826.159861 154.533354 
L 827.062934 142.525428 
L 827.966008 107.973448 
L 828.869082 96.429372 
L 829.772155 134.738034 
L 830.675229 147.289217 
L 831.578303 115.950765 
L 832.481376 113.585959 
L 833.38445 136.868328 
L 834.287523 129.72706 
L 835.190597 141.742485 
L 836.093671 194.743436 
L 836.996744 121.971755 
L 837.899818 109.695909 
L 838.802892 140.660642 
L 839.705965 117.06161 
L 840.609039 98.911153 
L 841.512113 128.597404 
L 842.415186 140.773879 
L 843.31826 126.166941 
L 844.221333 78.373889 
L 845.124407 108.038366 
L 846.027481 170.267536 
L 846.930554 148.807829 
L 847.833628 116.701516 
L 848.736702 132.927199 
L 849.639775 133.592905 
L 850.542849 160.942527 
L 851.445923 100.107455 
L 852.348996 145.681121 
L 853.25207 82.650221 
L 854.155143 73.344771 
L 855.058217 135.558005 
L 855.961291 151.667475 
L 856.864364 108.894173 
L 857.767438 124.588398 
L 858.670512 160.956897 
L 859.573585 118.724277 
L 860.476659 123.579628 
L 861.379733 127.472782 
L 862.282806 151.277682 
L 863.18588 145.653138 
L 864.088953 115.883026 
L 864.992027 123.257872 
L 865.895101 121.78789 
L 866.798174 116.979462 
L 867.701248 74.605299 
L 868.604322 109.131119 
L 869.507395 126.792339 
L 870.410469 84.971725 
L 871.313543 133.413074 
L 872.216616 78.610431 
L 873.11969 95.727286 
L 874.022763 101.075507 
L 874.925837 136.29234 
L 875.828911 149.495538 
L 876.731984 119.468481 
L 877.635058 141.482167 
L 878.538132 100.35453 
L 879.441205 97.046936 
L 880.344279 127.26775 
L 881.247353 95.33593 
L 882.150426 119.367278 
L 883.0535 138.407735 
L 883.956573 123.672475 
L 884.859647 105.069852 
L 885.762721 160.599012 
L 886.665794 95.892774 
L 887.568868 113.726775 
L 888.471942 179.325701 
L 889.375015 160.107458 
L 890.278089 153.194641 
L 891.181163 140.827317 
L 892.98731 100.108996 
L 893.890384 103.03896 
L 894.793457 121.438728 
L 895.696531 110.459608 
L 896.599604 148.014474 
L 897.502678 125.236823 
L 898.405752 90.285861 
L 899.308825 97.543417 
L 900.211899 84.812986 
L 901.114973 94.424421 
L 902.018046 108.016068 
L 902.92112 91.066637 
L 905.630341 148.814832 
L 906.533414 89.602396 
L 907.436488 110.103712 
L 908.339562 136.991601 
L 909.242635 130.09899 
L 910.145709 138.004831 
L 911.048783 136.8777 
L 911.951856 73.153605 
L 912.85493 128.275733 
L 913.758004 142.411445 
L 914.661077 142.408131 
L 915.564151 140.261001 
L 916.467224 132.822318 
L 917.370298 141.298246 
L 918.273372 156.036973 
L 919.176445 109.001149 
L 920.079519 148.380334 
L 920.982593 143.842711 
L 921.885666 137.044848 
L 922.78874 149.024885 
L 923.691814 113.030841 
L 924.594887 166.721283 
L 925.497961 146.502327 
L 926.401034 135.110797 
L 927.304108 128.363766 
L 928.207182 125.532397 
L 929.110255 157.405648 
L 930.013329 176.418712 
L 930.916403 121.882197 
L 931.819476 129.88771 
L 932.72255 109.985112 
L 933.625624 128.124155 
L 934.528697 132.477193 
L 935.431771 131.845991 
L 936.334844 127.740473 
L 937.237918 150.050801 
L 938.140992 114.445587 
L 939.044065 146.578752 
L 939.947139 119.466342 
L 940.850213 122.41559 
L 941.753286 153.817474 
L 942.65636 113.533128 
L 943.559434 91.988689 
L 944.462507 127.678293 
L 945.365581 120.099483 
L 946.268654 127.921325 
L 947.171728 76.844007 
L 948.074802 113.306444 
L 948.977875 121.670293 
L 949.880949 65.544497 
L 950.784023 99.754763 
L 951.687096 127.250279 
L 952.59017 135.128274 
L 953.493244 117.718505 
L 954.396317 122.58526 
L 955.299391 95.79813 
L 956.202464 103.388476 
L 957.105538 83.835701 
L 958.008612 122.335739 
L 958.911685 83.152195 
L 959.814759 130.702297 
L 960.717833 115.840037 
L 961.620906 127.626271 
L 963.427054 111.360656 
L 964.330127 95.689412 
L 965.233201 147.548216 
L 966.136274 146.083471 
L 967.039348 117.807825 
L 967.942422 176.994935 
L 968.845495 170.597398 
L 969.748569 125.123749 
L 970.651643 124.102748 
L 971.554716 118.867552 
L 972.45779 84.337632 
L 973.360864 153.399908 
L 974.263937 107.142019 
L 975.167011 173.323971 
L 976.070085 120.610447 
L 976.973158 174.096161 
L 977.876232 77.559906 
L 978.779305 105.045176 
L 979.682379 160.285519 
L 980.585453 114.783285 
L 982.3916 162.488583 
L 983.294674 115.384606 
L 984.197747 109.799421 
L 985.100821 118.740361 
L 986.003895 123.255871 
L 986.906968 74.074092 
L 987.810042 113.336265 
L 988.713115 119.848072 
L 989.616189 146.846615 
L 990.519263 146.784517 
L 991.422336 117.236375 
L 992.32541 153.712477 
L 993.228484 126.336602 
L 994.131557 147.710525 
L 995.034631 121.728441 
L 995.937705 147.485056 
L 996.840778 157.171687 
L 997.743852 125.497107 
L 998.646925 142.412369 
L 999.549999 133.242859 
L 1000.453073 85.108341 
L 1001.356146 115.44532 
L 1002.25922 125.376074 
L 1003.162294 149.104446 
L 1004.065367 86.37585 
L 1004.968441 147.718133 
L 1005.871515 154.905325 
L 1006.774588 121.009107 
L 1007.677662 107.277404 
L 1008.580735 143.929318 
L 1009.483809 131.590447 
L 1010.386883 143.790472 
L 1012.19303 101.442926 
L 1013.096104 127.800166 
L 1013.999177 157.733587 
L 1014.902251 119.855217 
L 1015.805325 102.196057 
L 1016.708398 122.601165 
L 1017.611472 123.67925 
L 1018.514545 124.446326 
L 1018.514545 124.446326 
" clip-path="url(#p6d13fd458b)" style="fill: none; stroke: #d2dbe0; stroke-width: 1.5; stroke-linecap: square"/>
   </g>
   <g id="line2d_12">
    <path d="M 143.436191 122.747875 
L 144.339265 123.788522 
L 145.242338 122.811711 
L 146.145412 122.638626 
L 147.951559 119.405031 
L 148.854633 117.798675 
L 149.757706 115.913561 
L 150.66078 115.098818 
L 151.563854 112.967028 
L 152.466927 111.969691 
L 153.370001 113.532528 
L 154.273075 114.10797 
L 155.176148 114.147696 
L 156.079222 113.14186 
L 156.982295 114.009606 
L 157.885369 114.082966 
L 158.788443 113.897211 
L 159.691516 116.83997 
L 160.59459 118.126207 
L 161.497664 120.262918 
L 162.400737 119.749166 
L 163.303811 120.338578 
L 164.206885 120.544334 
L 165.109958 122.533741 
L 166.013032 126.410399 
L 166.916105 126.70816 
L 167.819179 129.456315 
L 168.722253 131.503018 
L 169.625326 131.736633 
L 170.5284 129.499724 
L 171.431474 130.267929 
L 172.334547 131.653856 
L 173.237621 130.42475 
L 174.140695 130.923883 
L 175.043768 128.670742 
L 175.946842 127.437248 
L 176.849915 125.84044 
L 177.752989 124.56145 
L 178.656063 124.615205 
L 179.559136 122.445284 
L 180.46221 124.400395 
L 181.365284 123.461709 
L 182.268357 123.638965 
L 183.171431 123.578321 
L 184.074505 122.396365 
L 184.977578 124.443038 
L 185.880652 122.036083 
L 186.783726 120.262477 
L 187.686799 120.15706 
L 188.589873 125.450892 
L 189.492946 124.850477 
L 190.39602 122.193756 
L 191.299094 124.077801 
L 192.202167 123.0196 
L 193.105241 127.066359 
L 194.008315 127.251462 
L 194.911388 129.239952 
L 195.814462 127.53638 
L 196.717536 127.031764 
L 197.620609 126.811495 
L 198.523683 124.38393 
L 199.426756 124.477569 
L 200.32983 125.174406 
L 201.232904 125.331404 
L 202.135977 125.37152 
L 203.039051 123.993206 
L 203.942125 125.072853 
L 204.845198 124.855166 
L 205.748272 126.204165 
L 206.651346 122.484105 
L 207.554419 122.019814 
L 208.457493 124.798508 
L 209.360566 125.824563 
L 210.26364 126.133339 
L 211.166714 123.631576 
L 212.069787 123.84441 
L 212.972861 123.143791 
L 213.875935 125.403125 
L 214.779008 125.150679 
L 215.682082 126.158206 
L 216.585156 127.343491 
L 217.488229 128.943745 
L 218.391303 128.863011 
L 219.294376 127.675497 
L 220.19745 127.67721 
L 221.100524 128.799818 
L 222.003597 129.123517 
L 222.906671 130.128071 
L 223.809745 129.781381 
L 224.712818 131.358068 
L 225.615892 131.758899 
L 227.422039 129.486049 
L 228.325113 129.930426 
L 229.228186 129.855092 
L 230.13126 130.429014 
L 231.034334 131.280827 
L 231.937407 131.655169 
L 232.840481 131.29595 
L 233.743555 131.717776 
L 235.549702 129.629585 
L 236.452776 128.537963 
L 237.355849 129.508718 
L 238.258923 127.800721 
L 239.161996 127.930975 
L 240.06507 129.06877 
L 240.968144 129.007141 
L 241.871217 126.96387 
L 242.774291 126.004553 
L 243.677365 126.400832 
L 244.580438 125.548866 
L 245.483512 124.417095 
L 247.289659 126.181752 
L 248.192733 126.165672 
L 249.095806 124.06525 
L 249.99888 121.40032 
L 250.901954 122.014347 
L 251.805027 122.180813 
L 252.708101 125.14521 
L 253.611175 122.769093 
L 254.514248 123.230404 
L 255.417322 123.194822 
L 256.320396 125.734508 
L 257.223469 122.852426 
L 258.126543 122.054276 
L 259.029616 121.845043 
L 259.93269 125.278303 
L 260.835764 126.360773 
L 261.738837 125.771214 
L 262.641911 125.950939 
L 263.544985 126.579249 
L 264.448058 126.227289 
L 265.351132 124.338621 
L 266.254206 124.861707 
L 267.157279 126.719136 
L 268.060353 129.098986 
L 268.963427 129.387256 
L 269.8665 128.705325 
L 270.769574 124.618807 
L 271.672647 129.23337 
L 272.575721 128.926794 
L 273.478795 129.158985 
L 274.381868 127.360078 
L 275.284942 129.708576 
L 276.188016 128.085847 
L 277.091089 128.508183 
L 277.994163 126.064842 
L 278.897237 125.136965 
L 279.80031 125.538446 
L 280.703384 127.657376 
L 281.606457 127.653502 
L 282.509531 126.655243 
L 283.412605 127.032719 
L 284.315678 125.341716 
L 286.121826 123.299396 
L 287.024899 123.369258 
L 287.927973 121.043442 
L 288.831047 123.815161 
L 289.73412 121.899866 
L 290.637194 122.345709 
L 291.540267 121.521902 
L 292.443341 122.95128 
L 294.249488 123.876992 
L 295.152562 122.253141 
L 296.055636 123.113248 
L 297.861783 121.776969 
L 298.764857 119.340612 
L 299.66793 119.416312 
L 300.571004 120.784437 
L 301.474077 122.984937 
L 302.377151 124.311008 
L 303.280225 123.339725 
L 304.183298 125.679247 
L 305.086372 125.694954 
L 305.989446 129.501638 
L 306.892519 127.310564 
L 307.795593 126.598025 
L 309.60174 125.745203 
L 310.504814 124.014206 
L 311.407887 122.96673 
L 312.310961 123.031407 
L 313.214035 124.186399 
L 314.117108 123.927102 
L 315.020182 126.026727 
L 315.923256 125.812044 
L 316.826329 126.326302 
L 317.729403 125.873214 
L 318.632477 123.41751 
L 319.53555 121.579866 
L 320.438624 120.73239 
L 321.341697 122.498888 
L 323.147845 115.562311 
L 324.050918 112.815136 
L 324.953992 115.14177 
L 325.857066 115.340277 
L 326.760139 115.836614 
L 328.566287 119.170117 
L 329.46936 119.791635 
L 330.372434 122.104956 
L 331.275507 123.8832 
L 332.178581 124.540438 
L 333.081655 123.614385 
L 333.984728 124.7846 
L 334.887802 126.145072 
L 335.790876 128.542714 
L 337.597023 133.965278 
L 338.500097 136.703695 
L 339.40317 135.63222 
L 340.306244 137.937668 
L 341.209317 142.257377 
L 342.112391 144.215185 
L 343.015465 142.551906 
L 343.918538 143.628482 
L 344.821612 143.219846 
L 345.724686 141.931069 
L 347.530833 137.433535 
L 349.33698 130.094915 
L 350.240054 127.926499 
L 351.143127 126.203429 
L 352.046201 126.010884 
L 352.949275 123.005297 
L 353.852348 119.357379 
L 354.755422 117.293158 
L 356.561569 108.146206 
L 357.464643 108.826421 
L 358.367717 108.942479 
L 359.27079 108.530387 
L 360.173864 106.833436 
L 361.076938 107.332799 
L 361.980011 105.213258 
L 362.883085 104.438275 
L 363.786158 104.793023 
L 364.689232 106.495189 
L 365.592306 109.935482 
L 366.495379 114.094844 
L 367.398453 115.071256 
L 368.301527 114.979914 
L 369.2046 115.967845 
L 370.107674 115.561384 
L 371.010748 117.162963 
L 371.913821 119.577697 
L 372.816895 119.67216 
L 373.719968 120.839422 
L 374.623042 123.410103 
L 375.526116 122.866407 
L 376.429189 121.280422 
L 377.332263 120.228111 
L 378.235337 121.263307 
L 380.041484 121.354289 
L 380.944558 122.573531 
L 381.847631 120.4526 
L 382.750705 119.953272 
L 383.653778 116.127822 
L 384.556852 113.515793 
L 385.459926 114.514555 
L 386.362999 117.908853 
L 388.169147 117.694234 
L 389.07222 118.087308 
L 389.975294 117.760869 
L 390.878368 118.568233 
L 391.781441 120.651239 
L 392.684515 119.128043 
L 393.587588 119.402565 
L 394.490662 120.189098 
L 395.393736 120.3406 
L 396.296809 121.391412 
L 397.199883 121.140562 
L 398.102957 122.475931 
L 399.00603 121.877865 
L 399.909104 124.103573 
L 400.812178 123.76084 
L 401.715251 126.224124 
L 402.618325 127.239869 
L 403.521398 126.747726 
L 404.424472 124.681815 
L 405.327546 125.430675 
L 406.230619 125.152539 
L 407.133693 125.259968 
L 408.036767 123.654075 
L 410.745988 125.050331 
L 411.649061 125.9153 
L 412.552135 125.055853 
L 413.455208 124.688517 
L 414.358282 122.964422 
L 415.261356 122.283249 
L 416.164429 122.651679 
L 417.067503 123.971899 
L 417.970577 124.325025 
L 418.87365 125.7823 
L 420.679798 122.864649 
L 421.582871 123.705759 
L 422.485945 123.700018 
L 423.389018 123.159449 
L 424.292092 124.556547 
L 425.195166 124.365797 
L 426.098239 126.558074 
L 427.001313 126.291063 
L 427.904387 124.587978 
L 428.80746 126.525115 
L 429.710534 124.849754 
L 430.613608 126.060583 
L 431.516681 126.683458 
L 432.419755 127.13221 
L 433.322828 129.172939 
L 434.225902 129.036769 
L 435.128976 128.150118 
L 436.032049 126.393867 
L 436.935123 123.163528 
L 437.838197 127.030902 
L 438.74127 128.202584 
L 439.644344 127.576691 
L 440.547418 127.476997 
L 441.450491 128.964122 
L 442.353565 127.288718 
L 443.256638 127.22227 
L 445.062786 123.92174 
L 445.965859 125.129728 
L 446.868933 122.867279 
L 447.772007 123.318638 
L 448.67508 121.735739 
L 449.578154 122.334103 
L 450.481228 121.43506 
L 451.384301 119.36521 
L 452.287375 118.220926 
L 453.190449 116.601761 
L 454.093522 118.249556 
L 454.996596 121.740433 
L 455.899669 119.002483 
L 456.802743 118.08401 
L 457.705817 116.736613 
L 458.60889 117.751856 
L 459.511964 114.979881 
L 460.415038 115.413936 
L 461.318111 114.537597 
L 462.221185 116.044344 
L 463.124259 116.814588 
L 464.027332 115.380198 
L 464.930406 118.164878 
L 465.833479 117.913729 
L 466.736553 119.822549 
L 467.639627 118.25536 
L 468.5427 120.675422 
L 469.445774 120.438479 
L 470.348848 120.935566 
L 471.251921 122.779006 
L 472.154995 122.616214 
L 473.058069 121.596326 
L 473.961142 122.401071 
L 474.864216 123.637717 
L 475.767289 125.326592 
L 476.670363 124.787784 
L 477.573437 127.357499 
L 478.47651 127.940952 
L 479.379584 128.249018 
L 480.282658 126.67995 
L 482.088805 126.256423 
L 482.991879 124.008583 
L 483.894952 126.341914 
L 484.798026 125.012326 
L 485.701099 124.276849 
L 486.604173 122.458178 
L 487.507247 124.711756 
L 488.41032 124.687283 
L 489.313394 124.544472 
L 490.216468 121.745582 
L 491.119541 121.042548 
L 492.022615 119.14297 
L 492.925689 118.084406 
L 494.731836 117.861593 
L 495.634909 116.074878 
L 496.537983 116.673446 
L 497.441057 118.195544 
L 498.34413 118.726093 
L 499.247204 120.724747 
L 500.150278 123.712779 
L 501.053351 119.442411 
L 501.956425 115.75358 
L 502.859499 117.249228 
L 503.762572 120.263268 
L 504.665646 119.152569 
L 505.568719 117.228199 
L 506.471793 117.186474 
L 507.374867 117.31787 
L 508.27794 120.610146 
L 509.181014 120.797664 
L 510.084088 121.783528 
L 510.987161 122.315179 
L 511.890235 120.682985 
L 512.793309 119.509851 
L 513.696382 119.089303 
L 514.599456 115.480766 
L 515.502529 113.563082 
L 516.405603 115.083442 
L 517.308677 112.121944 
L 518.21175 107.443446 
L 519.114824 117.023446 
L 520.017898 119.544359 
L 520.920971 119.052359 
L 521.824045 116.221061 
L 522.727119 118.570332 
L 523.630192 120.489396 
L 524.533266 120.310106 
L 525.436339 118.032449 
L 526.339413 118.493348 
L 527.242487 119.501982 
L 528.14556 119.600124 
L 529.048634 119.025735 
L 529.951708 121.483612 
L 530.854781 121.893689 
L 531.757855 123.255453 
L 532.660929 125.940926 
L 533.564002 127.684432 
L 534.467076 126.187692 
L 535.37015 127.955223 
L 536.273223 132.373868 
L 537.176297 127.181492 
L 538.07937 127.204962 
L 538.982444 124.714723 
L 539.885518 125.65065 
L 540.788591 125.934549 
L 541.691665 123.650643 
L 542.594739 123.991914 
L 543.497812 126.24813 
L 544.400886 123.282198 
L 545.30396 122.84796 
L 546.207033 122.979868 
L 547.110107 122.906909 
L 548.01318 120.596053 
L 548.916254 122.892972 
L 549.819328 123.201717 
L 550.722401 123.964683 
L 551.625475 122.816726 
L 552.528549 122.102841 
L 553.431622 123.130206 
L 554.334696 119.389554 
L 555.23777 119.727209 
L 556.140843 118.955554 
L 557.043917 121.786976 
L 557.94699 122.519313 
L 558.850064 120.70595 
L 559.753138 122.963089 
L 561.559285 124.415205 
L 562.462359 127.326626 
L 563.365432 126.85964 
L 564.268506 125.665675 
L 565.17158 127.563518 
L 566.074653 128.881413 
L 566.977727 126.543299 
L 567.8808 125.453959 
L 568.783874 125.308738 
L 569.686948 125.3171 
L 570.590021 126.668356 
L 571.493095 123.028382 
L 572.396169 124.125236 
L 573.299242 125.42918 
L 574.202316 125.802012 
L 575.10539 124.872712 
L 576.008463 124.655758 
L 576.911537 125.393779 
L 577.81461 122.915014 
L 578.717684 121.982407 
L 579.620758 118.671726 
L 580.523831 116.407012 
L 581.426905 115.664092 
L 582.329979 118.079833 
L 583.233052 116.777632 
L 584.136126 115.738669 
L 585.0392 118.008865 
L 585.942273 119.325459 
L 586.845347 119.227962 
L 587.74842 120.574329 
L 588.651494 120.48715 
L 589.554568 124.126694 
L 590.457641 126.108321 
L 591.360715 123.433572 
L 592.263789 123.497799 
L 593.166862 125.252473 
L 594.069936 124.38986 
L 594.97301 123.915045 
L 595.876083 126.273822 
L 596.779157 127.806963 
L 597.68223 130.69353 
L 598.585304 132.061414 
L 599.488378 133.146942 
L 600.391451 130.986804 
L 601.294525 130.959841 
L 602.197599 132.518437 
L 603.100672 129.21243 
L 604.003746 127.639966 
L 604.90682 127.075915 
L 605.809893 125.220801 
L 606.712967 125.798482 
L 607.61604 122.853685 
L 608.519114 122.014066 
L 609.422188 124.390529 
L 610.325261 124.179989 
L 611.228335 121.155796 
L 612.131409 122.307798 
L 613.034482 123.994918 
L 613.937556 123.949496 
L 615.743703 121.770609 
L 616.646777 122.949593 
L 617.54985 123.80051 
L 618.452924 126.216622 
L 619.355998 122.310859 
L 620.259071 120.678289 
L 621.162145 122.850141 
L 622.065219 124.366269 
L 622.968292 124.564319 
L 623.871366 126.582631 
L 624.77444 125.249171 
L 625.677513 128.924442 
L 626.580587 128.853285 
L 627.483661 127.250509 
L 628.386734 126.144915 
L 629.289808 128.211792 
L 630.192881 127.902039 
L 631.095955 125.534362 
L 631.999029 123.508734 
L 632.902102 123.024592 
L 633.805176 124.037383 
L 634.70825 122.470256 
L 635.611323 121.690425 
L 636.514397 119.101365 
L 637.417471 126.628316 
L 638.320544 128.972379 
L 639.223618 128.312699 
L 640.126691 127.958194 
L 641.029765 128.083219 
L 641.932839 126.961728 
L 642.835912 128.24939 
L 643.738986 125.716324 
L 644.64206 124.494306 
L 645.545133 125.180272 
L 646.448207 125.64927 
L 648.254354 124.251298 
L 649.157428 125.264541 
L 650.060501 127.300234 
L 650.963575 127.400931 
L 651.866649 128.060355 
L 652.769722 127.534082 
L 653.672796 125.846813 
L 654.57587 128.130292 
L 655.478943 124.816732 
L 656.382017 123.565531 
L 657.285091 123.844041 
L 658.188164 122.901638 
L 659.091238 121.082419 
L 659.994311 121.618906 
L 660.897385 120.102356 
L 661.800459 120.511855 
L 662.703532 123.305673 
L 663.606606 123.966589 
L 664.50968 125.861817 
L 665.412753 125.723837 
L 666.315827 126.321796 
L 667.218901 125.658092 
L 668.121974 124.847944 
L 669.025048 122.397243 
L 669.928121 120.839573 
L 670.831195 119.82439 
L 671.734269 121.292535 
L 672.637342 119.874994 
L 673.540416 119.350417 
L 674.44349 118.981462 
L 676.249637 122.614057 
L 677.152711 125.530866 
L 678.055784 125.760955 
L 679.861931 129.342102 
L 680.765005 126.76837 
L 681.668079 126.538881 
L 682.571152 125.905934 
L 683.474226 127.188646 
L 684.3773 128.848174 
L 685.280373 131.181268 
L 686.183447 131.700903 
L 687.086521 137.733456 
L 687.989594 138.139315 
L 688.892668 142.260429 
L 689.795741 142.239071 
L 690.698815 142.665932 
L 691.601889 143.477083 
L 692.504962 145.340112 
L 693.408036 144.898714 
L 694.31111 143.832254 
L 695.214183 143.748476 
L 697.020331 140.743842 
L 697.923404 138.522453 
L 699.729551 140.495048 
L 700.632625 140.276746 
L 701.535699 139.578882 
L 702.438772 137.790511 
L 703.341846 136.824611 
L 704.24492 137.653859 
L 705.147993 132.201124 
L 706.051067 132.836151 
L 706.954141 129.995263 
L 707.857214 130.0557 
L 708.760288 129.52921 
L 709.663362 129.191649 
L 710.566435 126.501639 
L 711.469509 124.615279 
L 712.372582 123.63969 
L 713.275656 121.160759 
L 714.17873 121.337933 
L 715.081803 120.688346 
L 715.984877 121.045366 
L 716.887951 119.307858 
L 717.791024 115.546132 
L 718.694098 114.384541 
L 719.597172 112.936893 
L 720.500245 112.447023 
L 721.403319 111.348288 
L 722.306392 108.594298 
L 723.209466 112.797966 
L 724.11254 112.581747 
L 725.015613 111.76425 
L 725.918687 114.110835 
L 727.724834 114.017767 
L 728.627908 114.942094 
L 729.530982 114.514271 
L 730.434055 115.692084 
L 732.240202 117.687294 
L 733.143276 119.400732 
L 734.04635 120.007405 
L 734.949423 123.176325 
L 735.852497 125.600683 
L 736.755571 125.780386 
L 737.658644 126.430692 
L 738.561718 127.765661 
L 739.464792 129.306566 
L 740.367865 131.622471 
L 741.270939 129.16409 
L 743.077086 130.742452 
L 743.98016 128.016083 
L 744.883233 129.487461 
L 745.786307 130.634268 
L 746.689381 129.464433 
L 747.592454 131.511396 
L 748.495528 131.501251 
L 749.398602 133.141486 
L 750.301675 131.537861 
L 751.204749 130.794851 
L 752.107822 130.671315 
L 753.010896 128.564819 
L 753.91397 131.638828 
L 754.817043 133.065365 
L 755.720117 133.251322 
L 756.623191 131.17244 
L 757.526264 130.194444 
L 758.429338 129.023421 
L 759.332412 129.02688 
L 760.235485 126.429994 
L 761.138559 128.591945 
L 762.041632 128.755412 
L 762.944706 128.438257 
L 763.84778 125.993973 
L 764.750853 129.498537 
L 765.653927 127.455008 
L 766.557001 129.329106 
L 767.460074 127.468931 
L 768.363148 129.415597 
L 769.266222 129.217555 
L 771.072369 131.869752 
L 771.975442 125.705422 
L 772.878516 123.463061 
L 773.78159 124.947039 
L 774.684663 126.062562 
L 775.587737 126.962201 
L 776.490811 126.547065 
L 777.393884 126.684821 
L 778.296958 128.656548 
L 779.200032 126.046066 
L 780.103105 124.819553 
L 781.006179 122.844126 
L 781.909252 124.316848 
L 782.812326 122.527514 
L 783.7154 122.454613 
L 784.618473 118.610304 
L 786.424621 118.641132 
L 787.327694 121.281126 
L 789.133842 114.855235 
L 790.036915 120.349019 
L 790.939989 122.802168 
L 791.843062 121.748085 
L 792.746136 121.962506 
L 793.64921 118.630555 
L 794.552283 117.792474 
L 795.455357 117.877266 
L 796.358431 117.262698 
L 797.261504 117.813469 
L 798.164578 121.612513 
L 799.067652 123.51508 
L 799.970725 124.561398 
L 800.873799 123.096322 
L 802.679946 127.829758 
L 803.58302 128.021115 
L 804.486093 127.100004 
L 805.389167 123.9048 
L 807.195314 128.44205 
L 808.098388 124.896448 
L 809.001462 122.755504 
L 809.904535 122.506863 
L 810.807609 124.720744 
L 812.613756 131.826373 
L 813.51683 132.157111 
L 814.419903 131.611118 
L 815.322977 131.527971 
L 816.226051 127.904695 
L 817.129124 128.706398 
L 818.032198 128.342548 
L 818.935272 128.559337 
L 819.838345 125.821101 
L 820.741419 125.677852 
L 821.644493 127.097841 
L 822.547566 126.757473 
L 823.45064 127.138616 
L 825.256787 127.478506 
L 826.159861 129.467528 
L 827.062934 134.040749 
L 827.966008 133.980613 
L 828.869082 131.036194 
L 829.772155 130.653147 
L 830.675229 128.230735 
L 831.578303 126.718002 
L 832.481376 127.537709 
L 833.38445 128.656037 
L 834.287523 129.997309 
L 835.190597 126.189336 
L 836.093671 124.464983 
L 836.996744 127.579687 
L 837.899818 130.19861 
L 838.802892 129.296784 
L 839.705965 128.578683 
L 840.609039 129.46079 
L 841.512113 131.828618 
L 842.415186 129.990575 
L 843.31826 130.788278 
L 844.221333 127.833665 
L 845.124407 121.763731 
L 846.027481 122.443044 
L 846.930554 124.541622 
L 847.833628 122.953299 
L 848.736702 123.329638 
L 849.639775 126.431925 
L 850.542849 125.938269 
L 851.445923 125.078556 
L 852.348996 125.143848 
L 853.25207 128.789038 
L 854.155143 130.669777 
L 855.058217 127.950551 
L 855.961291 126.673053 
L 856.864364 126.927372 
L 857.767438 126.129985 
L 859.573585 120.590035 
L 860.476659 121.924279 
L 861.379733 118.888809 
L 862.282806 121.426952 
L 863.18588 121.690235 
L 864.088953 119.698699 
L 864.992027 117.1691 
L 866.798174 119.784366 
L 867.701248 117.709945 
L 868.604322 118.847839 
L 869.507395 117.686584 
L 870.410469 116.165292 
L 871.313543 114.964796 
L 872.216616 112.448935 
L 873.11969 112.623148 
L 874.022763 113.380641 
L 874.925837 113.47487 
L 875.828911 112.87939 
L 876.731984 117.179075 
L 878.538132 115.86388 
L 879.441205 120.581579 
L 880.344279 121.916298 
L 881.247353 125.645508 
L 882.150426 127.90051 
L 883.0535 128.824635 
L 883.956573 127.015467 
L 884.859647 124.692638 
L 885.762721 124.791151 
L 886.665794 123.240023 
L 887.568868 125.62302 
L 888.471942 127.032514 
L 889.375015 125.18342 
L 890.278089 125.293794 
L 891.181163 123.56608 
L 892.084236 121.366914 
L 893.890384 119.883933 
L 894.793457 117.388705 
L 896.599604 120.972605 
L 897.502678 116.48644 
L 898.405752 113.986252 
L 899.308825 113.1761 
L 900.211899 112.639684 
L 901.114973 113.562026 
L 902.018046 115.400461 
L 902.92112 113.906193 
L 903.824194 114.248043 
L 904.727267 115.845635 
L 905.630341 115.565318 
L 906.533414 116.316527 
L 908.339562 120.631091 
L 909.242635 124.19229 
L 910.145709 124.921127 
L 911.048783 126.93934 
L 911.951856 129.578144 
L 912.85493 130.895664 
L 913.758004 131.722772 
L 914.661077 129.933573 
L 915.564151 133.789517 
L 916.467224 135.609448 
L 918.273372 135.428646 
L 919.176445 134.805025 
L 920.079519 135.831422 
L 920.982593 140.994677 
L 921.885666 140.675 
L 922.78874 140.048814 
L 923.691814 138.427663 
L 924.594887 137.82082 
L 925.497961 137.803564 
L 926.401034 137.330951 
L 927.304108 135.916126 
L 928.207182 137.968609 
L 929.110255 136.271872 
L 930.013329 136.408674 
L 930.916403 135.529748 
L 931.819476 134.199284 
L 932.72255 136.238615 
L 934.528697 130.853526 
L 936.334844 130.068686 
L 937.237918 130.188133 
L 938.140992 126.160051 
L 939.044065 123.004437 
L 939.947139 122.993842 
L 940.850213 119.776681 
L 941.753286 119.265164 
L 942.65636 119.22147 
L 943.559434 119.354024 
L 944.462507 118.64765 
L 945.365581 118.389889 
L 946.268654 115.677256 
L 947.171728 115.1244 
L 948.074802 111.987248 
L 948.977875 112.130717 
L 949.880949 110.167548 
L 950.784023 109.011789 
L 951.687096 109.127134 
L 952.59017 110.909013 
L 954.396317 110.049851 
L 955.299391 108.438256 
L 956.202464 111.973466 
L 957.105538 113.612317 
L 958.008612 113.419194 
L 958.911685 118.991716 
L 959.814759 122.533848 
L 960.717833 122.427521 
L 961.620906 121.876245 
L 962.52398 121.933697 
L 963.427054 120.021316 
L 964.330127 122.901405 
L 965.233201 123.089082 
L 966.136274 127.563495 
L 967.039348 127.477231 
L 967.942422 132.024429 
L 968.845495 129.36731 
L 969.748569 128.827567 
L 970.651643 130.460529 
L 971.554716 130.237999 
L 972.45779 131.636228 
L 973.360864 134.976187 
L 975.167011 131.553804 
L 976.070085 131.600431 
L 976.973158 128.913478 
L 977.876232 124.087312 
L 978.779305 123.497938 
L 979.682379 123.285204 
L 980.585453 124.684158 
L 981.488526 127.806502 
L 982.3916 125.998325 
L 983.294674 128.326848 
L 984.197747 125.97748 
L 985.100821 127.332484 
L 986.003895 124.714098 
L 986.906968 128.210355 
L 987.810042 130.816681 
L 988.713115 129.07726 
L 989.616189 130.458714 
L 990.519263 130.154595 
L 991.422336 126.285583 
L 992.32541 126.288619 
L 993.228484 127.067451 
L 994.131557 128.585656 
L 995.034631 126.741655 
L 995.937705 130.423857 
L 996.840778 132.50231 
L 997.743852 132.560361 
L 998.646925 130.581901 
L 999.549999 130.439141 
L 1000.453073 131.156844 
L 1001.356146 130.660744 
L 1002.25922 130.461361 
L 1003.162294 128.147981 
L 1004.065367 128.451567 
L 1004.968441 128.963994 
L 1005.871515 127.09817 
L 1007.677662 124.942558 
L 1008.580735 124.464377 
L 1009.483809 126.431276 
L 1009.483809 126.431276 
" clip-path="url(#p6d13fd458b)" style="fill: none; stroke: #5dc694; stroke-width: 1.5; stroke-linecap: square"/>
   </g>
   <g id="patch_3">
    <path d="M 90.2 228.04 
L 90.2 17.28 
" style="fill: none; stroke: #000000; stroke-width: 0.8; stroke-linejoin: miter; stroke-linecap: square"/>
   </g>
   <g id="patch_4">
    <path d="M 1062.72 228.04 
L 1062.72 17.28 
" style="fill: none; stroke: #000000; stroke-width: 0.8; stroke-linejoin: miter; stroke-linecap: square"/>
   </g>
   <g id="patch_5">
    <path d="M 90.2 228.04 
L 1062.72 228.04 
" style="fill: none; stroke: #000000; stroke-width: 0.8; stroke-linejoin: miter; stroke-linecap: square"/>
   </g>
   <g id="patch_6">
    <path d="M 90.2 17.28 
L 1062.72 17.28 
" style="fill: none; stroke: #000000; stroke-width: 0.8; stroke-linejoin: miter; stroke-linecap: square"/>
   </g>
   <g id="legend_1">
    <g id="patch_7">
     <path d="M 854.2975 76.605 
L 1051.52 76.605 
Q 1054.72 76.605 1054.72 73.405 
L 1054.72 28.48 
Q 1054.72 25.28 1051.52 25.28 
L 854.2975 25.28 
Q 851.0975 25.28 851.0975 28.48 
L 851.0975 73.405 
Q 851.0975 76.605 854.2975 76.605 
z
" style="fill: #ffffff; opacity: 0.8; stroke: #cccccc; stroke-linejoin: miter"/>
    </g>
    <g id="line2d_13">
     <path d="M 857.4975 37.44 
L 873.4975 37.44 
L 889.4975 37.44 
" style="fill: none; stroke: #d2dbe0; stroke-width: 1.5; stroke-linecap: square"/>
    </g>
    <g id="text_13">
     <!-- 1st. Difference -->
     <g transform="translate(902.2975 43.04) scale(0.16 -0.16)">
      <use xlink:href="#Bahnschrift-31"/>
      <use xlink:href="#Bahnschrift-73" x="33.251953"/>
      <use xlink:href="#Bahnschrift-74" x="85.107422"/>
      <use xlink:href="#Bahnschrift-2e" x="117.724609"/>
      <use xlink:href="#Bahnschrift-20" x="140.380859"/>
      <use xlink:href="#Bahnschrift-44" x="167.236328"/>
      <use xlink:href="#Bahnschrift-69" x="232.861328"/>
      <use xlink:href="#Bahnschrift-66" x="257.958984"/>
      <use xlink:href="#Bahnschrift-66" x="289.648438"/>
      <use xlink:href="#Bahnschrift-65" x="321.337891"/>
      <use xlink:href="#Bahnschrift-72" x="374.951172"/>
      <use xlink:href="#Bahnschrift-65" x="417.626953"/>
      <use xlink:href="#Bahnschrift-6e" x="471.240234"/>
      <use xlink:href="#Bahnschrift-63" x="527.099609"/>
      <use xlink:href="#Bahnschrift-65" x="576.904297"/>
     </g>
    </g>
    <g id="line2d_14">
     <path d="M 857.4975 61.3075 
L 873.4975 61.3075 
L 889.4975 61.3075 
" style="fill: none; stroke: #5dc694; stroke-width: 1.5; stroke-linecap: square"/>
    </g>
    <g id="text_14">
     <!-- Rolling Average (20) -->
     <g transform="translate(902.2975 66.9075) scale(0.16 -0.16)">
      <defs>
       <path id="Bahnschrift-52" d="M 841 1922 
L 841 2528 
L 2391 2528 
Q 2669 2528 2837 2722 
Q 3006 2916 3006 3234 
L 3006 3234 
Q 3006 3553 2837 3747 
Q 2669 3941 2391 3941 
L 841 3941 
L 841 4547 
L 2366 4547 
Q 2763 4547 3059 4383 
Q 3356 4219 3520 3925 
Q 3684 3631 3684 3234 
L 3684 3234 
Q 3684 2841 3518 2545 
Q 3353 2250 3058 2086 
Q 2763 1922 2366 1922 
L 841 1922 
z
M 563 0 
L 563 4547 
L 1200 4547 
L 1200 0 
L 563 0 
z
M 3119 0 
L 2078 2063 
L 2713 2206 
L 3875 0 
L 3119 0 
z
" transform="scale(0.015625)"/>
       <path id="Bahnschrift-6f" d="M 1744 -47 
Q 1106 -47 756 323 
Q 406 694 406 1366 
L 406 1894 
Q 406 2559 756 2925 
Q 1106 3291 1744 3291 
Q 2381 3291 2731 2925 
Q 3081 2559 3081 1894 
L 3081 1356 
Q 3081 688 2731 320 
Q 2381 -47 1744 -47 
z
M 1744 559 
Q 2078 559 2261 768 
Q 2444 978 2444 1356 
L 2444 1894 
Q 2444 2272 2261 2478 
Q 2078 2684 1744 2684 
Q 1413 2684 1228 2478 
Q 1044 2272 1044 1894 
L 1044 1356 
Q 1044 978 1228 768 
Q 1413 559 1744 559 
z
" transform="scale(0.015625)"/>
       <path id="Bahnschrift-6c" d="M 1138 4544 
L 1138 838 
Q 1138 722 1189 656 
Q 1241 591 1334 591 
L 1634 591 
L 1634 -16 
L 1259 -16 
Q 900 -16 700 209 
Q 500 434 500 844 
L 500 4544 
L 1138 4544 
z
" transform="scale(0.015625)"/>
       <path id="Bahnschrift-67" d="M 1588 -1319 
Q 1222 -1319 933 -1183 
Q 644 -1047 484 -800 
L 484 -800 
L 916 -409 
L 916 -409 
Q 1041 -581 1214 -675 
Q 1388 -769 1578 -769 
Q 1944 -769 2144 -567 
Q 2344 -366 2344 3 
L 2344 3244 
L 2981 3244 
L 2981 97 
Q 2981 -578 2617 -948 
Q 2253 -1319 1588 -1319 
z
M 1528 -56 
Q 991 -56 698 289 
Q 406 634 406 1263 
L 406 1978 
Q 406 2609 692 2954 
Q 978 3300 1497 3300 
Q 1784 3300 2023 3150 
Q 2263 3000 2409 2728 
L 2344 2066 
Q 2344 2272 2269 2419 
Q 2194 2566 2051 2642 
Q 1909 2719 1706 2719 
Q 1391 2719 1217 2522 
Q 1044 2325 1044 1969 
L 1044 1263 
Q 1044 909 1217 717 
Q 1391 525 1706 525 
Q 1909 525 2051 604 
Q 2194 684 2269 834 
Q 2344 984 2344 1194 
L 2388 509 
Q 2300 291 2086 117 
Q 1872 -56 1528 -56 
z
" transform="scale(0.015625)"/>
       <path id="Bahnschrift-41" d="M 125 0 
L 1800 4544 
L 2344 4544 
L 4019 0 
L 3331 0 
L 2072 3666 
L 813 0 
L 125 0 
z
M 897 997 
L 897 1603 
L 3288 1603 
L 3288 997 
L 897 997 
z
" transform="scale(0.015625)"/>
       <path id="Bahnschrift-76" d="M 1616 928 
L 2409 3244 
L 3075 3244 
L 1856 0 
L 1375 0 
L 156 3244 
L 822 3244 
L 1616 928 
z
" transform="scale(0.015625)"/>
       <path id="Bahnschrift-28" d="M 1672 -978 
Q 1116 -375 839 373 
Q 563 1122 563 2025 
Q 563 2928 839 3676 
Q 1116 4425 1672 5028 
L 2109 4631 
Q 1638 4106 1403 3456 
Q 1169 2806 1169 2025 
Q 1169 1244 1403 594 
Q 1638 -56 2109 -584 
L 1672 -978 
z
" transform="scale(0.015625)"/>
       <path id="Bahnschrift-29" d="M 500 -978 
L 63 -584 
Q 534 -56 768 594 
Q 1003 1244 1003 2025 
Q 1003 2806 768 3456 
Q 534 4106 63 4631 
L 500 5028 
Q 1056 4425 1332 3676 
Q 1609 2928 1609 2025 
Q 1609 1122 1332 373 
Q 1056 -375 500 -978 
z
" transform="scale(0.015625)"/>
      </defs>
      <use xlink:href="#Bahnschrift-52"/>
      <use xlink:href="#Bahnschrift-6f" x="65.185547"/>
      <use xlink:href="#Bahnschrift-6c" x="119.677734"/>
      <use xlink:href="#Bahnschrift-6c" x="148.632812"/>
      <use xlink:href="#Bahnschrift-69" x="177.587891"/>
      <use xlink:href="#Bahnschrift-6e" x="202.685547"/>
      <use xlink:href="#Bahnschrift-67" x="258.544922"/>
      <use xlink:href="#Bahnschrift-20" x="312.451172"/>
      <use xlink:href="#Bahnschrift-41" x="339.306641"/>
      <use xlink:href="#Bahnschrift-76" x="404.052734"/>
      <use xlink:href="#Bahnschrift-65" x="454.052734"/>
      <use xlink:href="#Bahnschrift-72" x="507.666016"/>
      <use xlink:href="#Bahnschrift-61" x="550.341797"/>
      <use xlink:href="#Bahnschrift-67" x="603.564453"/>
      <use xlink:href="#Bahnschrift-65" x="657.470703"/>
      <use xlink:href="#Bahnschrift-20" x="711.083984"/>
      <use xlink:href="#Bahnschrift-28" x="737.939453"/>
      <use xlink:href="#Bahnschrift-32" x="771.875"/>
      <use xlink:href="#Bahnschrift-30" x="823.535156"/>
      <use xlink:href="#Bahnschrift-29" x="878.710938"/>
     </g>
    </g>
   </g>
  </g>
 </g>
 <defs>
  <clipPath id="p6d13fd458b">
   <rect x="90.2" y="17.28" width="972.52" height="210.76"/>
  </clipPath>
 </defs>
</svg>
