<?xml version="1.0" encoding="utf-8" standalone="no"?>
<!DOCTYPE svg PUBLIC "-//W3C//DTD SVG 1.1//EN"
  "http://www.w3.org/Graphics/SVG/1.1/DTD/svg11.dtd">
<svg xmlns:xlink="http://www.w3.org/1999/xlink" width="1080pt" height="288pt" viewBox="0 0 1080 288" xmlns="http://www.w3.org/2000/svg" version="1.1">
 <metadata>
  <rdf:RDF xmlns:dc="http://purl.org/dc/elements/1.1/" xmlns:cc="http://creativecommons.org/ns#" xmlns:rdf="http://www.w3.org/1999/02/22-rdf-syntax-ns#">
   <cc:Work>
    <dc:type rdf:resource="http://purl.org/dc/dcmitype/StillImage"/>
    <dc:date>2024-05-29T19:40:37.195862</dc:date>
    <dc:format>image/svg+xml</dc:format>
    <dc:creator>
     <cc:Agent>
      <dc:title>Matplotlib v3.8.2, https://matplotlib.org/</dc:title>
     </cc:Agent>
    </dc:creator>
   </cc:Work>
  </rdf:RDF>
 </metadata>
 <defs>
  <style type="text/css">*{stroke-linejoin: round; stroke-linecap: butt}</style>
 </defs>
 <g id="figure_1">
  <g id="patch_1">
   <path d="M 0 288 
L 1080 288 
L 1080 0 
L 0 0 
z
" style="fill: #ffffff"/>
  </g>
  <g id="axes_1">
   <g id="patch_2">
    <path d="M 81.38 228.04 
L 1062.72 228.04 
L 1062.72 18.2041 
L 81.38 18.2041 
z
" style="fill: #ffffff"/>
   </g>
   <g id="matplotlib.axis_1">
    <g id="xtick_1">
     <g id="line2d_1">
      <defs>
       <path id="m941e4450df" d="M 0 0 
L 0 3.5 
" style="stroke: #000000; stroke-width: 0.8"/>
      </defs>
      <g>
       <use xlink:href="#m941e4450df" x="261.450375" y="228.04" style="stroke: #000000; stroke-width: 0.8"/>
      </g>
     </g>
     <g id="text_1">
      <!-- 0.1 -->
      <g transform="translate(252.564125 246.4) scale(0.16 -0.16)">
       <defs>
        <path id="Bahnschrift-30" d="M 1766 -47 
Q 1116 -47 792 301 
Q 469 650 469 1244 
L 469 3309 
Q 469 3913 797 4256 
Q 1125 4600 1766 4600 
Q 2409 4600 2736 4258 
Q 3063 3916 3063 3309 
L 3063 1244 
Q 3063 641 2736 297 
Q 2409 -47 1766 -47 
z
M 1766 559 
Q 2116 559 2270 742 
Q 2425 925 2425 1244 
L 2425 3309 
Q 2425 3631 2270 3812 
Q 2116 3994 1766 3994 
Q 1416 3994 1261 3812 
Q 1106 3631 1106 3309 
L 1106 1244 
Q 1106 925 1261 742 
Q 1416 559 1766 559 
z
" transform="scale(0.015625)"/>
        <path id="Bahnschrift-2e" d="M 391 0 
L 391 669 
L 1059 669 
L 1059 0 
L 391 0 
z
" transform="scale(0.015625)"/>
        <path id="Bahnschrift-31" d="M 1566 4544 
L 1566 0 
L 928 0 
L 928 3850 
L 281 3453 
L 281 4113 
L 928 4544 
L 1566 4544 
z
" transform="scale(0.015625)"/>
       </defs>
       <use xlink:href="#Bahnschrift-30"/>
       <use xlink:href="#Bahnschrift-2e" x="55.175781"/>
       <use xlink:href="#Bahnschrift-31" x="77.832031"/>
      </g>
     </g>
    </g>
    <g id="xtick_2">
     <g id="line2d_2">
      <g>
       <use xlink:href="#m941e4450df" x="454.97039" y="228.04" style="stroke: #000000; stroke-width: 0.8"/>
      </g>
     </g>
     <g id="text_2">
      <!-- 0.2 -->
      <g transform="translate(444.61164 246.4) scale(0.16 -0.16)">
       <defs>
        <path id="Bahnschrift-32" d="M 400 0 
L 400 553 
L 1984 2666 
Q 2122 2847 2198 3040 
Q 2275 3234 2275 3406 
L 2275 3413 
Q 2275 3684 2115 3834 
Q 1956 3984 1663 3984 
Q 1388 3984 1214 3820 
Q 1041 3656 1003 3356 
L 1003 3353 
L 344 3353 
L 344 3356 
Q 428 3944 772 4267 
Q 1116 4591 1656 4591 
Q 2269 4591 2603 4281 
Q 2938 3972 2938 3406 
L 2938 3403 
Q 2938 3163 2838 2898 
Q 2738 2634 2559 2394 
L 1244 606 
L 2963 606 
L 2963 0 
L 400 0 
z
" transform="scale(0.015625)"/>
       </defs>
       <use xlink:href="#Bahnschrift-30"/>
       <use xlink:href="#Bahnschrift-2e" x="55.175781"/>
       <use xlink:href="#Bahnschrift-32" x="77.832031"/>
      </g>
     </g>
    </g>
    <g id="xtick_3">
     <g id="line2d_3">
      <g>
       <use xlink:href="#m941e4450df" x="648.490406" y="228.04" style="stroke: #000000; stroke-width: 0.8"/>
      </g>
     </g>
     <g id="text_3">
      <!-- 0.3 -->
      <g transform="translate(638.034156 246.4) scale(0.16 -0.16)">
       <defs>
        <path id="Bahnschrift-33" d="M 1644 -47 
Q 1259 -47 970 92 
Q 681 231 506 493 
Q 331 756 281 1131 
L 281 1131 
L 931 1131 
L 931 1131 
Q 975 838 1162 702 
Q 1350 566 1644 566 
Q 1959 566 2134 734 
Q 2309 903 2309 1209 
L 2309 1347 
Q 2309 1688 2143 1873 
Q 1978 2059 1675 2059 
L 1353 2059 
L 1353 2666 
L 1675 2666 
Q 1944 2666 2089 2825 
Q 2234 2984 2234 3275 
L 2234 3416 
Q 2234 3684 2079 3831 
Q 1925 3978 1641 3978 
Q 1400 3978 1233 3842 
Q 1066 3706 1003 3413 
L 1003 3413 
L 356 3413 
L 356 3413 
Q 453 3975 789 4283 
Q 1125 4591 1641 4591 
Q 2228 4591 2550 4281 
Q 2872 3972 2872 3409 
L 2872 3334 
Q 2872 2994 2687 2742 
Q 2503 2491 2166 2372 
Q 2538 2294 2742 2008 
Q 2947 1722 2947 1281 
L 2947 1206 
Q 2947 609 2606 281 
Q 2266 -47 1644 -47 
z
" transform="scale(0.015625)"/>
       </defs>
       <use xlink:href="#Bahnschrift-30"/>
       <use xlink:href="#Bahnschrift-2e" x="55.175781"/>
       <use xlink:href="#Bahnschrift-33" x="77.832031"/>
      </g>
     </g>
    </g>
    <g id="xtick_4">
     <g id="line2d_4">
      <g>
       <use xlink:href="#m941e4450df" x="842.010422" y="228.04" style="stroke: #000000; stroke-width: 0.8"/>
      </g>
     </g>
     <g id="text_4">
      <!-- 0.4 -->
      <g transform="translate(831.232922 246.4) scale(0.16 -0.16)">
       <defs>
        <path id="Bahnschrift-34" d="M 406 697 
L 406 1250 
L 1931 4541 
L 2588 4541 
L 1100 1288 
L 3328 1288 
L 3328 697 
L 406 697 
z
M 2366 -3 
L 2366 2672 
L 2988 2672 
L 2988 -3 
L 2366 -3 
z
" transform="scale(0.015625)"/>
       </defs>
       <use xlink:href="#Bahnschrift-30"/>
       <use xlink:href="#Bahnschrift-2e" x="55.175781"/>
       <use xlink:href="#Bahnschrift-34" x="77.832031"/>
      </g>
     </g>
    </g>
    <g id="xtick_5">
     <g id="line2d_5">
      <g>
       <use xlink:href="#m941e4450df" x="1035.530438" y="228.04" style="stroke: #000000; stroke-width: 0.8"/>
      </g>
     </g>
     <g id="text_5">
      <!-- 0.5 -->
      <g transform="translate(1024.949188 246.4) scale(0.16 -0.16)">
       <defs>
        <path id="Bahnschrift-35" d="M 1738 -47 
Q 1219 -47 886 251 
Q 553 550 469 1094 
L 469 1097 
L 1106 1097 
L 1106 1094 
Q 1141 844 1306 705 
Q 1472 566 1738 566 
Q 2044 566 2211 770 
Q 2378 975 2378 1347 
L 2378 1728 
Q 2378 2100 2211 2303 
Q 2044 2506 1738 2506 
Q 1572 2506 1419 2412 
Q 1266 2319 1150 2150 
L 569 2150 
L 569 4544 
L 2884 4544 
L 2884 3938 
L 1206 3938 
L 1206 2916 
Q 1325 3013 1472 3066 
Q 1619 3119 1772 3119 
Q 2366 3119 2691 2755 
Q 3016 2391 3016 1728 
L 3016 1347 
Q 3016 681 2681 317 
Q 2347 -47 1738 -47 
z
" transform="scale(0.015625)"/>
       </defs>
       <use xlink:href="#Bahnschrift-30"/>
       <use xlink:href="#Bahnschrift-2e" x="55.175781"/>
       <use xlink:href="#Bahnschrift-35" x="77.832031"/>
      </g>
     </g>
    </g>
    <g id="text_6">
     <!-- Rho -->
     <g transform="translate(558.00625 265.0575) scale(0.16 -0.16)">
      <defs>
       <path id="Bahnschrift-52" d="M 841 1922 
L 841 2528 
L 2391 2528 
Q 2669 2528 2837 2722 
Q 3006 2916 3006 3234 
L 3006 3234 
Q 3006 3553 2837 3747 
Q 2669 3941 2391 3941 
L 841 3941 
L 841 4547 
L 2366 4547 
Q 2763 4547 3059 4383 
Q 3356 4219 3520 3925 
Q 3684 3631 3684 3234 
L 3684 3234 
Q 3684 2841 3518 2545 
Q 3353 2250 3058 2086 
Q 2763 1922 2366 1922 
L 841 1922 
z
M 563 0 
L 563 4547 
L 1200 4547 
L 1200 0 
L 563 0 
z
M 3119 0 
L 2078 2063 
L 2713 2206 
L 3875 0 
L 3119 0 
z
" transform="scale(0.015625)"/>
       <path id="Bahnschrift-68" d="M 500 0 
L 500 4544 
L 1138 4544 
L 1138 0 
L 500 0 
z
M 2469 0 
L 2469 1966 
Q 2469 2309 2292 2496 
Q 2116 2684 1791 2684 
Q 1478 2684 1308 2521 
Q 1138 2359 1138 2063 
L 1072 2688 
Q 1222 2975 1464 3133 
Q 1706 3291 2000 3291 
Q 2528 3291 2817 2945 
Q 3106 2600 3106 1969 
L 3106 0 
L 2469 0 
z
" transform="scale(0.015625)"/>
       <path id="Bahnschrift-6f" d="M 1744 -47 
Q 1106 -47 756 323 
Q 406 694 406 1366 
L 406 1894 
Q 406 2559 756 2925 
Q 1106 3291 1744 3291 
Q 2381 3291 2731 2925 
Q 3081 2559 3081 1894 
L 3081 1356 
Q 3081 688 2731 320 
Q 2381 -47 1744 -47 
z
M 1744 559 
Q 2078 559 2261 768 
Q 2444 978 2444 1356 
L 2444 1894 
Q 2444 2272 2261 2478 
Q 2078 2684 1744 2684 
Q 1413 2684 1228 2478 
Q 1044 2272 1044 1894 
L 1044 1356 
Q 1044 978 1228 768 
Q 1413 559 1744 559 
z
" transform="scale(0.015625)"/>
      </defs>
      <use xlink:href="#Bahnschrift-52"/>
      <use xlink:href="#Bahnschrift-68" x="65.185547"/>
      <use xlink:href="#Bahnschrift-6f" x="121.044922"/>
     </g>
    </g>
   </g>
   <g id="matplotlib.axis_2">
    <g id="ytick_1">
     <g id="line2d_6">
      <defs>
       <path id="m1f16ad6e7f" d="M 0 0 
L -3.5 0 
" style="stroke: #000000; stroke-width: 0.8"/>
      </defs>
      <g>
       <use xlink:href="#m1f16ad6e7f" x="81.38" y="221.163898" style="stroke: #000000; stroke-width: 0.8"/>
      </g>
     </g>
     <g id="text_7">
      <!-- -0.02 -->
      <g transform="translate(37.1625 226.843898) scale(0.16 -0.16)">
       <defs>
        <path id="Bahnschrift-2d" d="M 500 1931 
L 2600 1931 
L 2600 1325 
L 500 1325 
L 500 1931 
z
" transform="scale(0.015625)"/>
       </defs>
       <use xlink:href="#Bahnschrift-2d"/>
       <use xlink:href="#Bahnschrift-30" x="47.949219"/>
       <use xlink:href="#Bahnschrift-2e" x="103.125"/>
       <use xlink:href="#Bahnschrift-30" x="125.78125"/>
       <use xlink:href="#Bahnschrift-32" x="180.957031"/>
      </g>
     </g>
    </g>
    <g id="ytick_2">
     <g id="line2d_7">
      <g>
       <use xlink:href="#m1f16ad6e7f" x="81.38" y="171.653077" style="stroke: #000000; stroke-width: 0.8"/>
      </g>
     </g>
     <g id="text_8">
      <!-- -0.01 -->
      <g transform="translate(40.1075 177.333077) scale(0.16 -0.16)">
       <use xlink:href="#Bahnschrift-2d"/>
       <use xlink:href="#Bahnschrift-30" x="47.949219"/>
       <use xlink:href="#Bahnschrift-2e" x="103.125"/>
       <use xlink:href="#Bahnschrift-30" x="125.78125"/>
       <use xlink:href="#Bahnschrift-31" x="180.957031"/>
      </g>
     </g>
    </g>
    <g id="ytick_3">
     <g id="line2d_8">
      <g>
       <use xlink:href="#m1f16ad6e7f" x="81.38" y="122.142256" style="stroke: #000000; stroke-width: 0.8"/>
      </g>
     </g>
     <g id="text_9">
      <!-- 0.00 -->
      <g transform="translate(44.2725 127.822256) scale(0.16 -0.16)">
       <use xlink:href="#Bahnschrift-30"/>
       <use xlink:href="#Bahnschrift-2e" x="55.175781"/>
       <use xlink:href="#Bahnschrift-30" x="77.832031"/>
       <use xlink:href="#Bahnschrift-30" x="133.007812"/>
      </g>
     </g>
    </g>
    <g id="ytick_4">
     <g id="line2d_9">
      <g>
       <use xlink:href="#m1f16ad6e7f" x="81.38" y="72.631436" style="stroke: #000000; stroke-width: 0.8"/>
      </g>
     </g>
     <g id="text_10">
      <!-- 0.01 -->
      <g transform="translate(47.78 78.311436) scale(0.16 -0.16)">
       <use xlink:href="#Bahnschrift-30"/>
       <use xlink:href="#Bahnschrift-2e" x="55.175781"/>
       <use xlink:href="#Bahnschrift-30" x="77.832031"/>
       <use xlink:href="#Bahnschrift-31" x="133.007812"/>
      </g>
     </g>
    </g>
    <g id="ytick_5">
     <g id="line2d_10">
      <g>
       <use xlink:href="#m1f16ad6e7f" x="81.38" y="23.120615" style="stroke: #000000; stroke-width: 0.8"/>
      </g>
     </g>
     <g id="text_11">
      <!-- 0.02 -->
      <g transform="translate(44.835 28.800615) scale(0.16 -0.16)">
       <use xlink:href="#Bahnschrift-30"/>
       <use xlink:href="#Bahnschrift-2e" x="55.175781"/>
       <use xlink:href="#Bahnschrift-30" x="77.832031"/>
       <use xlink:href="#Bahnschrift-32" x="133.007812"/>
      </g>
     </g>
    </g>
    <g id="text_12">
     <!-- 2nd. Difference, mean: 0.00001 -->
     <g transform="translate(29.865 231.3883) rotate(-90) scale(0.16 -0.16)">
      <defs>
       <path id="Bahnschrift-6e" d="M 500 0 
L 500 3244 
L 1138 3244 
L 1138 0 
L 500 0 
z
M 2469 0 
L 2469 1966 
Q 2469 2309 2292 2496 
Q 2116 2684 1791 2684 
Q 1478 2684 1308 2518 
Q 1138 2353 1138 2053 
L 1072 2678 
Q 1222 2972 1464 3131 
Q 1706 3291 2000 3291 
Q 2528 3291 2817 2945 
Q 3106 2600 3106 1969 
L 3106 0 
L 2469 0 
z
" transform="scale(0.015625)"/>
       <path id="Bahnschrift-64" d="M 2344 0 
L 2344 4544 
L 2981 4544 
L 2981 0 
L 2344 0 
z
M 1528 -56 
Q 991 -56 698 289 
Q 406 634 406 1263 
L 406 1978 
Q 406 2609 692 2954 
Q 978 3300 1497 3300 
Q 1784 3300 2023 3150 
Q 2263 3000 2409 2728 
L 2344 2066 
Q 2344 2272 2269 2419 
Q 2194 2566 2051 2642 
Q 1909 2719 1706 2719 
Q 1391 2719 1217 2522 
Q 1044 2325 1044 1969 
L 1044 1263 
Q 1044 909 1217 717 
Q 1391 525 1706 525 
Q 1909 525 2051 604 
Q 2194 684 2269 834 
Q 2344 984 2344 1194 
L 2388 509 
Q 2300 291 2086 117 
Q 1872 -56 1528 -56 
z
" transform="scale(0.015625)"/>
       <path id="Bahnschrift-20" transform="scale(0.015625)"/>
       <path id="Bahnschrift-44" d="M 994 0 
L 994 606 
L 2022 606 
Q 2525 606 2801 867 
Q 3078 1128 3078 1603 
L 3078 2941 
Q 3078 3416 2801 3677 
Q 2525 3938 2022 3938 
L 994 3938 
L 994 4544 
L 2003 4544 
Q 2828 4544 3279 4117 
Q 3731 3691 3731 2916 
L 3731 1628 
Q 3731 1113 3528 748 
Q 3325 384 2937 192 
Q 2550 0 2000 0 
L 994 0 
z
M 563 0 
L 563 4544 
L 1200 4544 
L 1200 0 
L 563 0 
z
" transform="scale(0.015625)"/>
       <path id="Bahnschrift-69" d="M 500 3906 
L 500 4544 
L 1138 4544 
L 1138 3906 
L 500 3906 
z
M 500 0 
L 500 3244 
L 1138 3244 
L 1138 0 
L 500 0 
z
" transform="scale(0.015625)"/>
       <path id="Bahnschrift-66" d="M 594 0 
L 594 3684 
Q 594 4113 791 4328 
Q 988 4544 1403 4544 
L 1872 4544 
L 1872 3938 
L 1416 3938 
Q 1319 3938 1275 3864 
Q 1231 3791 1231 3691 
L 1231 0 
L 594 0 
z
M 250 2700 
L 250 3244 
L 1872 3244 
L 1872 2700 
L 250 2700 
z
" transform="scale(0.015625)"/>
       <path id="Bahnschrift-65" d="M 1828 -47 
Q 1150 -47 778 331 
Q 406 709 406 1406 
L 406 1772 
Q 406 2497 764 2894 
Q 1122 3291 1772 3291 
Q 2384 3291 2720 2841 
Q 3056 2391 3056 1578 
L 3056 1366 
L 869 1366 
L 869 1878 
L 2450 1878 
L 2450 1878 
Q 2422 2272 2245 2494 
Q 2069 2716 1772 2716 
Q 1413 2716 1213 2478 
Q 1013 2241 1013 1806 
L 1013 1394 
Q 1013 991 1227 775 
Q 1441 559 1828 559 
Q 2022 559 2212 637 
Q 2403 716 2553 856 
L 2553 856 
L 2972 438 
L 2972 438 
Q 2731 206 2431 79 
Q 2131 -47 1828 -47 
z
" transform="scale(0.015625)"/>
       <path id="Bahnschrift-72" d="M 500 0 
L 500 3244 
L 1138 3244 
L 1138 0 
L 500 0 
z
M 2284 2475 
Q 2200 2578 2072 2631 
Q 1944 2684 1775 2684 
Q 1472 2684 1305 2517 
Q 1138 2350 1138 2053 
L 1072 2678 
Q 1219 2966 1458 3128 
Q 1697 3291 1984 3291 
Q 2206 3291 2386 3227 
Q 2566 3163 2700 3038 
L 2284 2475 
z
" transform="scale(0.015625)"/>
       <path id="Bahnschrift-63" d="M 1809 -47 
Q 1141 -47 773 322 
Q 406 691 406 1363 
L 406 1897 
Q 406 2563 773 2927 
Q 1141 3291 1809 3291 
Q 2191 3291 2497 3156 
Q 2803 3022 2984 2772 
L 2984 2772 
L 2525 2359 
L 2525 2359 
Q 2391 2516 2206 2600 
Q 2022 2684 1819 2684 
Q 1450 2684 1247 2478 
Q 1044 2272 1044 1897 
L 1044 1363 
Q 1044 978 1247 768 
Q 1450 559 1819 559 
Q 2022 559 2206 650 
Q 2391 741 2525 906 
L 2525 906 
L 2984 463 
L 2984 463 
Q 2803 219 2495 86 
Q 2188 -47 1809 -47 
z
" transform="scale(0.015625)"/>
       <path id="Bahnschrift-2c" d="M 391 -1038 
L 391 669 
L 1059 669 
L 1059 -344 
L 391 -1038 
z
" transform="scale(0.015625)"/>
       <path id="Bahnschrift-6d" d="M 4375 0 
L 4375 1966 
Q 4375 2309 4198 2496 
Q 4022 2684 3697 2684 
Q 3400 2684 3237 2503 
Q 3075 2322 3075 1991 
L 2947 2616 
Q 3103 2941 3353 3116 
Q 3603 3291 3906 3291 
Q 4434 3291 4723 2945 
Q 5013 2600 5013 1969 
L 5013 0 
L 4375 0 
z
M 500 0 
L 500 3244 
L 1138 3244 
L 1138 0 
L 500 0 
z
M 2438 0 
L 2438 1966 
Q 2438 2309 2269 2496 
Q 2100 2684 1791 2684 
Q 1478 2684 1308 2518 
Q 1138 2353 1138 2053 
L 1072 2678 
Q 1222 2972 1464 3131 
Q 1706 3291 2000 3291 
Q 2513 3291 2794 2945 
Q 3075 2600 3075 1969 
L 3075 0 
L 2438 0 
z
" transform="scale(0.015625)"/>
       <path id="Bahnschrift-61" d="M 2331 0 
L 2331 2056 
Q 2331 2375 2161 2551 
Q 1991 2728 1678 2728 
Q 1488 2728 1302 2670 
Q 1116 2613 969 2503 
L 503 2822 
Q 688 3044 989 3167 
Q 1291 3291 1659 3291 
Q 2269 3291 2603 2975 
Q 2938 2659 2938 2084 
L 2938 0 
L 2331 0 
z
M 1538 -47 
Q 941 -47 642 200 
Q 344 447 344 956 
Q 344 1441 617 1680 
Q 891 1919 1438 1919 
L 2359 1919 
L 2403 1406 
L 1441 1406 
Q 1194 1406 1069 1295 
Q 944 1184 944 956 
Q 944 709 1109 590 
Q 1275 472 1606 472 
Q 1969 472 2150 550 
Q 2331 628 2331 794 
L 2397 338 
Q 2313 206 2188 122 
Q 2063 38 1902 -4 
Q 1741 -47 1538 -47 
z
" transform="scale(0.015625)"/>
       <path id="Bahnschrift-3a" d="M 391 0 
L 391 669 
L 1059 669 
L 1059 0 
L 391 0 
z
M 391 2606 
L 391 3275 
L 1059 3275 
L 1059 2606 
L 391 2606 
z
" transform="scale(0.015625)"/>
      </defs>
      <use xlink:href="#Bahnschrift-32"/>
      <use xlink:href="#Bahnschrift-6e" x="51.660156"/>
      <use xlink:href="#Bahnschrift-64" x="107.519531"/>
      <use xlink:href="#Bahnschrift-2e" x="161.425781"/>
      <use xlink:href="#Bahnschrift-20" x="184.082031"/>
      <use xlink:href="#Bahnschrift-44" x="210.9375"/>
      <use xlink:href="#Bahnschrift-69" x="276.5625"/>
      <use xlink:href="#Bahnschrift-66" x="301.660156"/>
      <use xlink:href="#Bahnschrift-66" x="333.349609"/>
      <use xlink:href="#Bahnschrift-65" x="365.039062"/>
      <use xlink:href="#Bahnschrift-72" x="418.652344"/>
      <use xlink:href="#Bahnschrift-65" x="461.328125"/>
      <use xlink:href="#Bahnschrift-6e" x="514.941406"/>
      <use xlink:href="#Bahnschrift-63" x="570.800781"/>
      <use xlink:href="#Bahnschrift-65" x="620.605469"/>
      <use xlink:href="#Bahnschrift-2c" x="674.21875"/>
      <use xlink:href="#Bahnschrift-20" x="696.875"/>
      <use xlink:href="#Bahnschrift-6d" x="723.730469"/>
      <use xlink:href="#Bahnschrift-65" x="809.375"/>
      <use xlink:href="#Bahnschrift-61" x="862.988281"/>
      <use xlink:href="#Bahnschrift-6e" x="916.210938"/>
      <use xlink:href="#Bahnschrift-3a" x="972.070312"/>
      <use xlink:href="#Bahnschrift-20" x="994.726562"/>
      <use xlink:href="#Bahnschrift-30" x="1021.582031"/>
      <use xlink:href="#Bahnschrift-2e" x="1076.757812"/>
      <use xlink:href="#Bahnschrift-30" x="1099.414062"/>
      <use xlink:href="#Bahnschrift-30" x="1154.589844"/>
      <use xlink:href="#Bahnschrift-30" x="1209.765625"/>
      <use xlink:href="#Bahnschrift-30" x="1264.941406"/>
      <use xlink:href="#Bahnschrift-31" x="1320.117188"/>
     </g>
    </g>
   </g>
   <g id="line2d_11">
    <path d="M 125.986364 120.583462 
L 127.921564 118.889398 
L 129.856764 127.407784 
L 131.791964 116.633421 
L 133.727164 120.29547 
L 135.662364 124.64337 
L 137.597565 121.080034 
L 139.532765 123.298195 
L 141.467965 115.588121 
L 143.403165 126.662705 
L 145.338365 120.853733 
L 147.273565 121.600379 
L 149.208766 115.525242 
L 151.143966 126.699578 
L 153.079166 123.871668 
L 155.014366 118.499941 
L 156.949566 124.260972 
L 158.884766 119.3636 
L 160.819966 120.243924 
L 162.755167 123.355897 
L 164.690367 122.471259 
L 166.625567 121.769304 
L 168.560767 120.429598 
L 170.495967 122.257367 
L 172.431167 125.977858 
L 174.366368 115.807318 
L 176.301568 124.438756 
L 178.236768 119.782658 
L 180.171968 121.858833 
L 182.107168 122.774729 
L 184.042368 122.656776 
L 187.912769 122.77073 
L 189.847969 119.308146 
L 191.783169 119.689208 
L 193.718369 127.956088 
L 195.653569 122.379455 
L 197.588769 121.262899 
L 199.52397 123.558274 
L 201.45917 116.549167 
L 203.39437 120.291998 
L 205.32957 123.183757 
L 207.26477 122.869497 
L 209.19997 126.697964 
L 211.135171 120.513832 
L 213.070371 119.515104 
L 215.005571 123.188157 
L 216.940771 122.628545 
L 218.875971 128.028929 
L 220.811171 116.718936 
L 222.746372 119.306414 
L 224.681572 125.058538 
L 226.616772 124.357523 
L 228.551972 116.632795 
L 230.487172 123.913792 
L 232.422372 118.59813 
L 234.357572 126.023738 
L 236.292773 126.478861 
L 238.227973 114.266902 
L 240.163173 128.24841 
L 242.098373 120.367835 
L 244.033573 124.845295 
L 245.968773 121.297127 
L 247.903974 115.110952 
L 249.839174 130.077307 
L 251.774374 115.794665 
L 253.709574 128.205892 
L 255.644774 123.462024 
L 257.579974 113.916329 
L 259.515175 129.7618 
L 261.450375 119.090484 
L 263.385575 121.108353 
L 265.320775 121.492189 
L 267.255975 124.990224 
L 269.191175 118.683179 
L 271.126375 124.055766 
L 274.996776 117.719989 
L 276.931976 128.619777 
L 278.867176 121.160784 
L 280.802376 127.048216 
L 282.737576 114.460942 
L 284.672777 124.710868 
L 286.607977 128.092604 
L 288.543177 114.526092 
L 290.478377 126.780958 
L 292.413577 112.724577 
L 294.348777 126.265349 
L 296.283978 119.672842 
L 298.219178 124.825704 
L 300.154378 124.22189 
L 302.089578 128.069503 
L 304.024778 117.538287 
L 305.959978 121.623868 
L 307.895178 124.217901 
L 309.830379 113.178876 
L 311.765579 124.83526 
L 313.700779 126.566514 
L 315.635979 114.081101 
L 317.571179 131.371491 
L 319.506379 112.338549 
L 321.44158 125.995131 
L 323.37678 123.033759 
L 325.31198 119.474431 
L 327.24718 125.522428 
L 329.18238 129.653672 
L 331.11758 122.687087 
L 333.052781 117.52298 
L 334.987981 130.01808 
L 336.923181 111.02461 
L 338.858381 120.112601 
L 340.793581 118.964541 
L 342.728781 130.276174 
L 344.663981 123.22704 
L 346.599182 122.552832 
L 348.534382 127.084995 
L 350.469582 113.384554 
L 352.404782 120.127919 
L 354.339982 129.093142 
L 356.275182 116.521817 
L 358.210383 134.110508 
L 360.145583 118.589252 
L 362.080783 118.253989 
L 364.015983 120.615455 
L 365.951183 119.944803 
L 367.886383 120.378702 
L 369.821584 114.591216 
L 371.756784 124.926839 
L 373.691984 118.166093 
L 375.627184 132.09662 
L 377.562384 129.52393 
L 379.497584 117.931788 
L 381.432784 111.996928 
L 383.367985 130.252412 
L 385.303185 115.897238 
L 387.238385 126.787668 
L 389.173585 125.522797 
L 391.108785 121.666776 
L 393.043985 126.578242 
L 394.979186 107.969867 
L 396.914386 127.171061 
L 398.849586 120.895891 
L 400.784786 125.69336 
L 402.719986 122.628246 
L 404.655186 124.203407 
L 406.590387 114.342469 
L 408.525587 136.408716 
L 410.460787 113.693848 
L 412.395987 128.850712 
L 414.331187 121.801446 
L 416.266387 117.895126 
L 418.201587 117.73199 
L 420.136788 127.356866 
L 422.071988 119.393891 
L 424.007188 104.521045 
L 425.942388 132.611793 
L 427.877588 122.919698 
L 429.812788 118.832214 
L 431.747989 122.179251 
L 433.683189 135.25977 
L 435.618389 109.762333 
L 437.553589 118.549481 
L 439.488789 122.515701 
L 441.423989 125.389964 
L 443.35919 126.712094 
L 445.29439 115.68708 
L 447.22959 122.937623 
L 449.16479 125.746547 
L 451.09999 118.637897 
L 453.03519 99.850396 
L 454.97039 143.112305 
L 456.905591 126.105715 
L 458.840791 113.449127 
L 460.775991 121.356416 
L 462.711191 150.165078 
L 464.646391 117.638262 
L 466.581591 109.035784 
L 468.516792 136.408292 
L 470.451992 107.703045 
L 472.387192 127.660466 
L 474.322392 125.595202 
L 476.257592 132.496659 
L 478.192792 123.38508 
L 480.127993 118.305124 
L 482.063193 111.866727 
L 483.998393 135.874232 
L 485.933593 112.794672 
L 487.868793 127.621927 
L 489.803993 106.553752 
L 491.739193 152.132508 
L 493.674394 99.187067 
L 497.544794 134.259016 
L 499.479994 124.9123 
L 501.415194 109.882138 
L 503.350394 115.753343 
L 505.285595 138.880551 
L 507.220795 111.212453 
L 509.155995 133.626621 
L 511.091195 102.54349 
L 513.026395 119.616738 
L 514.961595 127.677038 
L 516.896796 114.332183 
L 518.831996 126.268975 
L 520.767196 119.416189 
L 522.702396 131.256733 
L 524.637596 129.34398 
L 526.572796 115.131127 
L 528.507996 144.760733 
L 530.443197 107.400391 
L 534.313597 135.363065 
L 536.248797 110.204319 
L 538.183997 116.844657 
L 540.119197 132.976843 
L 542.054398 118.212616 
L 543.989598 116.128714 
L 545.924798 126.948416 
L 547.859998 110.628324 
L 549.795198 127.193091 
L 551.730398 137.875368 
L 553.665599 116.204302 
L 555.600799 123.854615 
L 557.535999 114.963888 
L 559.471199 121.898396 
L 561.406399 116.457055 
L 563.341599 112.074052 
L 565.276799 137.278414 
L 567.212 113.6816 
L 569.1472 127.640068 
L 571.0824 115.210274 
L 573.0176 122.802844 
L 574.9528 99.901323 
L 576.888 158.204712 
L 578.823201 116.317375 
L 580.758401 125.274082 
L 582.693601 119.415335 
L 584.628801 116.154492 
L 586.564001 123.823933 
L 588.499201 146.068158 
L 590.434401 105.682359 
L 592.369602 111.589194 
L 594.304802 124.670862 
L 596.240002 132.553237 
L 598.175202 127.117661 
L 600.110402 127.444867 
L 603.980803 113.849113 
L 605.916003 128.470272 
L 607.851203 111.177925 
L 609.786403 136.402226 
L 611.721603 114.80405 
L 613.656803 151.319446 
L 615.592004 87.927434 
L 617.527204 114.694659 
L 619.462404 132.165629 
L 621.397604 130.281375 
L 623.332804 121.80736 
L 625.268004 127.087588 
L 627.203204 103.147733 
L 631.073605 138.077514 
L 633.008805 119.745935 
L 634.944005 116.705921 
L 636.879205 123.78252 
L 638.814405 113.041336 
L 640.749606 128.456345 
L 642.684806 120.617837 
L 644.620006 117.663582 
L 646.555206 130.440941 
L 648.490406 118.533828 
L 650.425606 121.006938 
L 652.360807 124.316778 
L 654.296007 126.296091 
L 656.231207 118.319455 
L 658.166407 116.12174 
L 660.101607 115.745549 
L 662.036807 128.454905 
L 663.972007 124.26114 
L 665.907208 123.455639 
L 667.842408 124.82068 
L 669.777608 113.601214 
L 671.712808 127.627081 
L 673.648008 125.933855 
L 675.583208 114.783331 
L 677.518409 137.199313 
L 679.453609 112.346036 
L 681.388809 117.416219 
L 683.324009 118.97264 
L 685.259209 119.573631 
L 687.194409 124.975697 
L 689.12961 124.646798 
L 691.06481 117.997969 
L 693.00001 123.740846 
L 694.93521 130.020861 
L 696.87041 120.198259 
L 698.80561 116.29406 
L 700.74081 124.838979 
L 702.676011 128.057116 
L 704.611211 120.4583 
L 706.546411 118.617678 
L 708.481611 125.032969 
L 710.416811 122.640249 
L 712.352011 120.740519 
L 714.287212 136.350498 
L 716.222412 99.16004 
L 718.157612 128.067592 
L 720.092812 125.116913 
L 722.028012 128.828662 
L 723.963212 122.614536 
L 725.898413 114.476199 
L 727.833613 122.815312 
L 729.768813 127.522367 
L 731.704013 117.01941 
L 733.639213 126.77376 
L 735.574413 114.452127 
L 737.509613 134.439464 
L 739.444814 116.501127 
L 741.380014 113.691418 
L 743.315214 129.111108 
L 745.250414 129.076412 
L 747.185614 113.461384 
L 749.120814 123.934026 
L 751.056015 121.499832 
L 752.991215 115.338648 
L 754.926415 126.70781 
L 756.861615 120.441416 
L 758.796815 135.44627 
L 760.732015 107.98998 
L 762.667216 129.446877 
L 764.602416 118.39252 
L 766.537616 122.476611 
L 768.472816 114.297674 
L 770.408016 126.215997 
L 772.343216 124.924862 
L 774.278416 127.923306 
L 776.213617 112.610389 
L 778.148817 130.609306 
L 780.084017 121.867526 
L 782.019217 119.662035 
L 783.954417 115.145386 
L 785.889617 138.489341 
L 787.824818 104.063076 
L 789.760018 120.261009 
L 791.695218 129.862667 
L 793.630418 122.208663 
L 795.565618 125.318851 
L 797.500818 104.926263 
L 799.436019 138.414521 
L 801.371219 115.239882 
L 803.306419 128.422048 
L 805.241619 118.862377 
L 807.176819 131.852789 
L 809.112019 108.714401 
L 811.047219 128.57062 
L 812.98242 115.293314 
L 814.91762 128.6638 
L 816.85282 111.341078 
L 818.78802 129.214166 
L 820.72322 114.798201 
L 822.65842 135.94223 
L 824.593621 112.087312 
L 826.528821 131.758437 
L 828.464021 134.242263 
L 830.399221 90.746435 
L 832.334421 135.075966 
L 834.269621 128.20581 
L 836.204822 122.046198 
L 838.140022 112.280716 
L 840.075222 127.981502 
L 842.010422 128.320218 
L 843.945622 119.268003 
L 845.880822 117.492469 
L 847.816022 131.546202 
L 849.751223 108.25063 
L 851.686423 132.882079 
L 853.621623 126.208778 
L 855.556823 118.309513 
L 857.492023 116.557498 
L 859.427223 134.267705 
L 861.362424 107.008143 
L 863.297624 122.057328 
L 865.232824 119.080523 
L 867.168024 112.524823 
L 869.103224 140.677082 
L 871.038424 113.142157 
L 872.973625 123.263988 
L 874.908825 131.763062 
L 876.844025 123.347992 
L 878.779225 117.3981 
L 880.714425 121.449671 
L 882.649625 112.5491 
L 884.584825 134.063734 
L 886.520026 122.266953 
L 888.455226 124.44815 
L 890.390426 36.603572 
L 892.325626 112.751123 
L 894.260826 129.693846 
L 896.196026 122.586618 
L 898.131227 112.438747 
L 900.066427 218.502005 
L 902.001627 117.395908 
L 903.936827 143.971259 
L 905.872027 114.632785 
L 907.807227 116.698169 
L 909.742428 128.744163 
L 911.677628 120.681781 
L 913.612828 102.918142 
L 915.548028 138.169765 
L 917.483228 119.163907 
L 919.418428 116.034384 
L 921.353628 130.674817 
L 923.288829 112.397601 
L 925.224029 122.389722 
L 927.159229 119.566221 
L 929.094429 206.875939 
L 931.029629 133.625595 
L 932.964829 115.711044 
L 934.90003 121.939651 
L 936.83523 123.517633 
L 938.77043 27.742096 
L 940.70563 125.391027 
L 942.64083 107.269248 
L 944.57603 141.866526 
L 946.511231 126.138133 
L 948.446431 112.966504 
L 950.381631 124.776109 
L 952.316831 125.47345 
L 954.252031 112.298793 
L 956.187231 126.279327 
L 958.122431 121.006231 
L 960.057632 128.162123 
L 961.992832 123.83707 
L 963.928032 124.325306 
L 965.863232 124.159985 
L 967.798432 118.288939 
L 969.733632 115.64489 
L 971.668833 129.517738 
L 973.604033 116.334045 
L 975.539233 126.276394 
L 977.474433 127.101845 
L 979.409633 121.792003 
L 981.344833 120.463292 
L 983.280034 123.640087 
L 985.215234 114.499852 
L 987.150434 116.440225 
L 989.085634 120.152786 
L 991.020834 146.302125 
L 992.956034 112.773845 
L 994.891234 120.184039 
L 996.826435 115.292805 
L 998.761635 137.254625 
L 1000.696835 115.675438 
L 1002.632035 117.518321 
L 1004.567235 120.187087 
L 1006.502435 120.885867 
L 1008.437636 119.312145 
L 1010.372836 122.071286 
L 1012.308036 128.658941 
L 1014.243236 131.765951 
L 1016.178436 117.096671 
L 1018.113636 112.689631 
L 1018.113636 112.689631 
" clip-path="url(#p5b30bd3bdd)" style="fill: none; stroke: #d2dbe0; stroke-width: 1.5; stroke-linecap: square"/>
   </g>
   <g id="line2d_12">
    <path d="M 125.986364 119.779388 
L 127.921564 120.065939 
L 129.856764 120.033016 
L 131.791964 120.844536 
L 133.727164 120.978272 
L 135.662364 120.645326 
L 137.597565 121.207482 
L 139.532765 121.084913 
L 141.467965 121.445684 
L 145.338365 121.562234 
L 147.273565 121.70623 
L 149.208766 121.35732 
L 153.079166 121.922637 
L 155.014366 121.480835 
L 156.949566 121.648771 
L 158.884766 121.472994 
L 160.819966 121.786529 
L 162.755167 121.592131 
L 166.625567 121.738285 
L 168.560767 122.100559 
L 170.495967 121.730988 
L 172.431167 121.521865 
L 174.366368 121.994672 
L 176.301568 121.900596 
L 180.171968 122.161279 
L 182.107168 121.820942 
L 184.042368 121.711979 
L 187.912769 121.904697 
L 189.847969 122.126726 
L 191.783169 121.853525 
L 193.718369 122.038914 
L 195.653569 121.976385 
L 197.588769 122.118679 
L 199.52397 122.427184 
L 201.45917 122.124394 
L 203.39437 121.956876 
L 207.26477 122.153122 
L 209.19997 122.019354 
L 211.135171 122.230583 
L 213.070371 121.762685 
L 216.940771 122.205698 
L 218.875971 121.741129 
L 220.811171 122.326091 
L 226.616772 122.334341 
L 228.551972 121.754991 
L 230.487172 122.233165 
L 232.422372 122.047143 
L 234.357572 122.298029 
L 236.292773 122.339703 
L 238.227973 121.634073 
L 240.163173 122.286216 
L 242.098373 122.27542 
L 245.968773 121.934644 
L 247.903974 122.352516 
L 249.839174 122.090985 
L 251.774374 122.363867 
L 253.709574 122.10656 
L 255.644774 121.668616 
L 257.579974 122.38626 
L 259.515175 122.031878 
L 261.450375 122.365897 
L 263.385575 121.84668 
L 265.320775 122.017367 
L 267.255975 122.666449 
L 269.191175 121.888889 
L 271.126375 122.438203 
L 273.061576 121.664137 
L 274.996776 121.804304 
L 276.931976 122.092129 
L 278.867176 121.845325 
L 282.737576 122.449952 
L 286.607977 122.083939 
L 288.543177 122.360676 
L 290.478377 121.816831 
L 292.413577 122.014714 
L 294.348777 122.457041 
L 296.283978 121.730107 
L 298.219178 122.240642 
L 300.154378 121.505159 
L 302.089578 122.081868 
L 304.024778 121.998013 
L 305.959978 121.567104 
L 307.895178 122.116921 
L 309.830379 122.260557 
L 311.765579 122.758682 
L 313.700779 122.321564 
L 315.635979 122.838825 
L 317.571179 122.148771 
L 319.506379 121.943306 
L 321.44158 121.488058 
L 323.37678 122.124953 
L 325.31198 122.205111 
L 327.24718 122.121858 
L 329.18238 122.817164 
L 331.11758 122.244628 
L 333.052781 121.922699 
L 334.987981 122.673301 
L 336.923181 121.930817 
L 338.858381 123.019415 
L 340.793581 122.649121 
L 342.728781 122.410132 
L 344.663981 122.467184 
L 346.599182 122.188302 
L 350.469582 121.31976 
L 352.404782 121.689953 
L 354.339982 121.097354 
L 356.275182 122.150955 
L 358.210383 122.621521 
L 360.145583 122.569883 
L 362.080783 121.655921 
L 364.015983 122.00719 
L 365.951183 121.67441 
L 367.886383 121.659544 
L 369.821584 122.266456 
L 371.756784 122.343399 
L 373.691984 122.217654 
L 377.562384 121.443084 
L 379.497584 121.558416 
L 381.432784 121.930384 
L 383.367985 122.031024 
L 385.303185 122.243954 
L 387.238385 121.942142 
L 389.173585 123.033017 
L 391.108785 122.471368 
L 393.043985 123.005599 
L 396.914386 121.9094 
L 398.849586 121.89941 
L 400.784786 122.667407 
L 404.655186 121.555671 
L 406.590387 121.846877 
L 412.395987 121.355045 
L 414.331187 122.71954 
L 416.266387 121.849104 
L 420.136788 121.5729 
L 425.942388 121.903651 
L 427.877588 121.230096 
L 429.812788 121.832731 
L 431.747989 121.322091 
L 433.683189 120.224538 
L 435.618389 121.485397 
L 437.553589 121.904083 
L 439.488789 121.208696 
L 441.423989 121.306823 
L 443.35919 123.589024 
L 447.22959 122.146152 
L 449.16479 123.024956 
L 451.09999 122.301146 
L 453.03519 121.92118 
L 456.905591 123.410183 
L 458.840791 123.453652 
L 460.775991 123.09941 
L 462.711191 122.357141 
L 464.646391 123.366499 
L 466.581591 122.859351 
L 468.516792 122.95312 
L 470.451992 122.348913 
L 472.387192 124.963019 
L 474.322392 122.766757 
L 476.257592 122.318564 
L 478.192792 123.359059 
L 480.127993 123.536853 
L 482.063193 121.522706 
L 483.998393 121.42846 
L 485.933593 122.920698 
L 487.868793 121.660906 
L 489.803993 122.957085 
L 491.739193 121.701236 
L 497.544794 120.708687 
L 501.415194 121.484353 
L 503.350394 121.253478 
L 505.285595 122.080943 
L 507.220795 121.456403 
L 509.155995 123.366752 
L 511.091195 121.130147 
L 513.026395 122.225755 
L 514.961595 123.136815 
L 516.896796 121.93408 
L 518.831996 121.530698 
L 520.767196 122.685434 
L 522.702396 122.808397 
L 524.637596 121.670805 
L 526.572796 122.457604 
L 528.507996 121.307689 
L 530.443197 122.540169 
L 532.378397 123.4531 
L 534.313597 122.879463 
L 536.248797 123.355585 
L 538.183997 122.790331 
L 540.119197 122.914441 
L 542.054398 122.174457 
L 543.989598 121.310961 
L 545.924798 122.418325 
L 547.859998 120.864369 
L 549.795198 121.876352 
L 551.730398 121.581904 
L 555.600799 120.438743 
L 557.535999 122.506746 
L 559.471199 121.673772 
L 561.406399 122.026846 
L 563.341599 122.191177 
L 565.276799 121.651481 
L 567.212 122.311261 
L 569.1472 123.255014 
L 571.0824 121.645364 
L 573.0176 121.414609 
L 574.9528 121.455421 
L 576.888 122.334888 
L 578.823201 122.595852 
L 580.758401 123.145242 
L 582.693601 123.577452 
L 584.628801 122.405987 
L 586.564001 123.145421 
L 588.499201 122.322314 
L 590.434401 123.381911 
L 592.369602 122.981972 
L 594.304802 125.552878 
L 596.240002 122.039014 
L 598.175202 121.957878 
L 600.110402 122.302455 
L 602.045602 122.845757 
L 603.980803 123.128401 
L 605.916003 123.291584 
L 607.851203 121.145562 
L 609.786403 121.90435 
L 611.721603 123.228765 
L 613.656803 122.982519 
L 615.592004 122.190153 
L 617.527204 122.023396 
L 619.462404 121.30322 
L 623.332804 122.02856 
L 625.268004 121.488226 
L 627.203204 122.451377 
L 629.138405 121.557957 
L 631.073605 121.868101 
L 633.008805 120.517968 
L 634.944005 122.436401 
L 636.879205 122.617641 
L 640.749606 121.088655 
L 642.684806 121.421032 
L 644.620006 121.27971 
L 646.555206 122.295105 
L 648.490406 122.493234 
L 650.425606 121.269419 
L 654.296007 122.124873 
L 656.231207 121.674913 
L 658.166407 122.882812 
L 660.101607 122.077297 
L 662.036807 121.917216 
L 663.972007 121.982669 
L 665.907208 121.439303 
L 667.842408 121.761397 
L 669.777608 121.94339 
L 671.712808 121.627449 
L 673.648008 121.499687 
L 675.583208 122.084757 
L 677.518409 122.288583 
L 679.453609 122.316009 
L 681.388809 122.135212 
L 683.324009 122.325011 
L 685.259209 122.175144 
L 687.194409 121.864994 
L 689.12961 122.436582 
L 693.00001 121.927573 
L 694.93521 123.005932 
L 696.87041 121.103968 
L 698.80561 121.890046 
L 702.676011 122.767882 
L 704.611211 122.919927 
L 706.546411 122.394952 
L 708.481611 122.303378 
L 710.416811 122.779598 
L 712.352011 122.443526 
L 714.287212 122.281171 
L 716.222412 121.993864 
L 718.157612 122.901135 
L 720.092812 122.484242 
L 722.028012 121.765957 
L 725.898413 122.721534 
L 727.833613 122.142955 
L 731.704013 122.245609 
L 733.639213 121.195017 
L 735.574413 122.572405 
L 737.509613 122.191097 
L 739.444814 122.707564 
L 741.380014 121.66563 
L 743.315214 122.007247 
L 745.250414 122.203063 
L 747.185614 122.186128 
L 749.120814 121.524894 
L 751.056015 121.984723 
L 752.991215 121.892278 
L 754.926415 122.565837 
L 756.861615 121.474383 
L 758.796815 122.179792 
L 760.732015 122.588598 
L 762.667216 122.116144 
L 764.602416 121.419593 
L 766.537616 122.670991 
L 768.472816 121.677443 
L 770.408016 121.615502 
L 772.343216 122.341703 
L 774.278416 122.116746 
L 776.213617 122.360617 
L 778.148817 120.834617 
L 780.084017 122.355844 
L 782.019217 121.645494 
L 783.954417 122.146971 
L 785.889617 121.966259 
L 787.824818 122.844015 
L 789.760018 121.968935 
L 791.695218 122.151223 
L 793.630418 121.519723 
L 795.565618 122.322394 
L 797.500818 121.358982 
L 799.436019 121.726314 
L 801.371219 121.483123 
L 803.306419 122.522965 
L 805.241619 121.202863 
L 807.176819 122.587631 
L 809.112019 123.286694 
L 811.047219 121.330883 
L 812.98242 121.974248 
L 814.91762 122.118596 
L 816.85282 122.974592 
L 818.78802 121.667902 
L 820.72322 122.304983 
L 824.593621 122.320173 
L 826.528821 121.602157 
L 828.464021 122.743747 
L 830.399221 121.727747 
L 832.334421 122.607186 
L 834.269621 122.484435 
L 836.204822 122.832856 
L 838.140022 122.200023 
L 840.075222 123.173498 
L 842.010422 121.726794 
L 843.945622 122.225295 
L 845.880822 121.591399 
L 847.816022 120.505527 
L 849.751223 123.002059 
L 851.686423 121.905369 
L 853.621623 121.658278 
L 857.492023 122.697485 
L 859.427223 122.168315 
L 863.297624 121.488842 
L 865.232824 122.317405 
L 867.168024 121.853443 
L 869.103224 122.663319 
L 871.038424 117.849394 
L 872.973625 117.176511 
L 874.908825 117.745727 
L 876.844025 118.047183 
L 878.779225 116.955736 
L 880.714425 122.530429 
L 882.649625 122.297358 
L 884.584825 123.541894 
L 886.520026 123.647293 
L 888.455226 122.448347 
L 890.390426 123.228447 
L 892.325626 123.099337 
L 894.260826 121.657091 
L 896.196026 122.39818 
L 898.131227 122.48647 
L 900.066427 122.215706 
L 902.001627 123.121991 
L 903.936827 122.038685 
L 905.872027 122.044823 
L 907.807227 121.800727 
L 909.742428 130.314345 
L 911.677628 131.358069 
L 913.612828 130.658929 
L 915.548028 130.62658 
L 917.483228 131.180525 
L 919.418428 121.642529 
L 921.353628 122.042285 
L 923.288829 120.207184 
L 925.224029 121.568872 
L 927.159229 122.04087 
L 929.094429 121.251987 
L 931.029629 121.456703 
L 932.964829 122.584469 
L 934.90003 121.29092 
L 938.77043 121.895283 
L 940.70563 121.769649 
L 942.64083 122.341622 
L 944.57603 122.438401 
L 946.511231 122.668089 
L 948.446431 118.238739 
L 950.381631 117.339704 
L 952.316831 118.030039 
L 954.252031 117.749759 
L 956.187231 117.887697 
L 958.122431 122.855684 
L 960.057632 122.675733 
L 961.992832 123.335435 
L 963.928032 122.424113 
L 965.863232 121.842199 
L 967.798432 122.015885 
L 969.733632 121.784719 
L 971.668833 122.826153 
L 973.604033 122.849905 
L 977.474433 122.25947 
L 979.409633 122.714095 
L 983.280034 121.965664 
L 985.215234 121.767019 
L 989.085634 122.080228 
L 991.020834 121.707906 
L 992.956034 122.32415 
L 994.891234 122.598628 
L 998.761635 121.643251 
L 998.761635 121.643251 
" clip-path="url(#p5b30bd3bdd)" style="fill: none; stroke: #5dc694; stroke-width: 1.5; stroke-linecap: square"/>
   </g>
   <g id="patch_3">
    <path d="M 81.38 228.04 
L 81.38 18.2041 
" style="fill: none; stroke: #000000; stroke-width: 0.8; stroke-linejoin: miter; stroke-linecap: square"/>
   </g>
   <g id="patch_4">
    <path d="M 1062.72 228.04 
L 1062.72 18.2041 
" style="fill: none; stroke: #000000; stroke-width: 0.8; stroke-linejoin: miter; stroke-linecap: square"/>
   </g>
   <g id="patch_5">
    <path d="M 81.38 228.04 
L 1062.72 228.04 
" style="fill: none; stroke: #000000; stroke-width: 0.8; stroke-linejoin: miter; stroke-linecap: square"/>
   </g>
   <g id="patch_6">
    <path d="M 81.38 18.2041 
L 1062.72 18.2041 
" style="fill: none; stroke: #000000; stroke-width: 0.8; stroke-linejoin: miter; stroke-linecap: square"/>
   </g>
   <g id="legend_1">
    <g id="patch_7">
     <path d="M 854.2975 77.5291 
L 1051.52 77.5291 
Q 1054.72 77.5291 1054.72 74.3291 
L 1054.72 29.4041 
Q 1054.72 26.2041 1051.52 26.2041 
L 854.2975 26.2041 
Q 851.0975 26.2041 851.0975 29.4041 
L 851.0975 74.3291 
Q 851.0975 77.5291 854.2975 77.5291 
z
" style="fill: #ffffff; opacity: 0.8; stroke: #cccccc; stroke-linejoin: miter"/>
    </g>
    <g id="line2d_13">
     <path d="M 857.4975 38.3641 
L 873.4975 38.3641 
L 889.4975 38.3641 
" style="fill: none; stroke: #d2dbe0; stroke-width: 1.5; stroke-linecap: square"/>
    </g>
    <g id="text_13">
     <!-- 2nd. Difference -->
     <g transform="translate(902.2975 43.9641) scale(0.16 -0.16)">
      <use xlink:href="#Bahnschrift-32"/>
      <use xlink:href="#Bahnschrift-6e" x="51.660156"/>
      <use xlink:href="#Bahnschrift-64" x="107.519531"/>
      <use xlink:href="#Bahnschrift-2e" x="161.425781"/>
      <use xlink:href="#Bahnschrift-20" x="184.082031"/>
      <use xlink:href="#Bahnschrift-44" x="210.9375"/>
      <use xlink:href="#Bahnschrift-69" x="276.5625"/>
      <use xlink:href="#Bahnschrift-66" x="301.660156"/>
      <use xlink:href="#Bahnschrift-66" x="333.349609"/>
      <use xlink:href="#Bahnschrift-65" x="365.039062"/>
      <use xlink:href="#Bahnschrift-72" x="418.652344"/>
      <use xlink:href="#Bahnschrift-65" x="461.328125"/>
      <use xlink:href="#Bahnschrift-6e" x="514.941406"/>
      <use xlink:href="#Bahnschrift-63" x="570.800781"/>
      <use xlink:href="#Bahnschrift-65" x="620.605469"/>
     </g>
    </g>
    <g id="line2d_14">
     <path d="M 857.4975 62.2316 
L 873.4975 62.2316 
L 889.4975 62.2316 
" style="fill: none; stroke: #5dc694; stroke-width: 1.5; stroke-linecap: square"/>
    </g>
    <g id="text_14">
     <!-- Rolling Average (20) -->
     <g transform="translate(902.2975 67.8316) scale(0.16 -0.16)">
      <defs>
       <path id="Bahnschrift-6c" d="M 1138 4544 
L 1138 838 
Q 1138 722 1189 656 
Q 1241 591 1334 591 
L 1634 591 
L 1634 -16 
L 1259 -16 
Q 900 -16 700 209 
Q 500 434 500 844 
L 500 4544 
L 1138 4544 
z
" transform="scale(0.015625)"/>
       <path id="Bahnschrift-67" d="M 1588 -1319 
Q 1222 -1319 933 -1183 
Q 644 -1047 484 -800 
L 484 -800 
L 916 -409 
L 916 -409 
Q 1041 -581 1214 -675 
Q 1388 -769 1578 -769 
Q 1944 -769 2144 -567 
Q 2344 -366 2344 3 
L 2344 3244 
L 2981 3244 
L 2981 97 
Q 2981 -578 2617 -948 
Q 2253 -1319 1588 -1319 
z
M 1528 -56 
Q 991 -56 698 289 
Q 406 634 406 1263 
L 406 1978 
Q 406 2609 692 2954 
Q 978 3300 1497 3300 
Q 1784 3300 2023 3150 
Q 2263 3000 2409 2728 
L 2344 2066 
Q 2344 2272 2269 2419 
Q 2194 2566 2051 2642 
Q 1909 2719 1706 2719 
Q 1391 2719 1217 2522 
Q 1044 2325 1044 1969 
L 1044 1263 
Q 1044 909 1217 717 
Q 1391 525 1706 525 
Q 1909 525 2051 604 
Q 2194 684 2269 834 
Q 2344 984 2344 1194 
L 2388 509 
Q 2300 291 2086 117 
Q 1872 -56 1528 -56 
z
" transform="scale(0.015625)"/>
       <path id="Bahnschrift-41" d="M 125 0 
L 1800 4544 
L 2344 4544 
L 4019 0 
L 3331 0 
L 2072 3666 
L 813 0 
L 125 0 
z
M 897 997 
L 897 1603 
L 3288 1603 
L 3288 997 
L 897 997 
z
" transform="scale(0.015625)"/>
       <path id="Bahnschrift-76" d="M 1616 928 
L 2409 3244 
L 3075 3244 
L 1856 0 
L 1375 0 
L 156 3244 
L 822 3244 
L 1616 928 
z
" transform="scale(0.015625)"/>
       <path id="Bahnschrift-28" d="M 1672 -978 
Q 1116 -375 839 373 
Q 563 1122 563 2025 
Q 563 2928 839 3676 
Q 1116 4425 1672 5028 
L 2109 4631 
Q 1638 4106 1403 3456 
Q 1169 2806 1169 2025 
Q 1169 1244 1403 594 
Q 1638 -56 2109 -584 
L 1672 -978 
z
" transform="scale(0.015625)"/>
       <path id="Bahnschrift-29" d="M 500 -978 
L 63 -584 
Q 534 -56 768 594 
Q 1003 1244 1003 2025 
Q 1003 2806 768 3456 
Q 534 4106 63 4631 
L 500 5028 
Q 1056 4425 1332 3676 
Q 1609 2928 1609 2025 
Q 1609 1122 1332 373 
Q 1056 -375 500 -978 
z
" transform="scale(0.015625)"/>
      </defs>
      <use xlink:href="#Bahnschrift-52"/>
      <use xlink:href="#Bahnschrift-6f" x="65.185547"/>
      <use xlink:href="#Bahnschrift-6c" x="119.677734"/>
      <use xlink:href="#Bahnschrift-6c" x="148.632812"/>
      <use xlink:href="#Bahnschrift-69" x="177.587891"/>
      <use xlink:href="#Bahnschrift-6e" x="202.685547"/>
      <use xlink:href="#Bahnschrift-67" x="258.544922"/>
      <use xlink:href="#Bahnschrift-20" x="312.451172"/>
      <use xlink:href="#Bahnschrift-41" x="339.306641"/>
      <use xlink:href="#Bahnschrift-76" x="404.052734"/>
      <use xlink:href="#Bahnschrift-65" x="454.052734"/>
      <use xlink:href="#Bahnschrift-72" x="507.666016"/>
      <use xlink:href="#Bahnschrift-61" x="550.341797"/>
      <use xlink:href="#Bahnschrift-67" x="603.564453"/>
      <use xlink:href="#Bahnschrift-65" x="657.470703"/>
      <use xlink:href="#Bahnschrift-20" x="711.083984"/>
      <use xlink:href="#Bahnschrift-28" x="737.939453"/>
      <use xlink:href="#Bahnschrift-32" x="771.875"/>
      <use xlink:href="#Bahnschrift-30" x="823.535156"/>
      <use xlink:href="#Bahnschrift-29" x="878.710938"/>
     </g>
    </g>
   </g>
  </g>
 </g>
 <defs>
  <clipPath id="p5b30bd3bdd">
   <rect x="81.38" y="18.2041" width="981.34" height="209.8359"/>
  </clipPath>
 </defs>
</svg>
