<?xml version="1.0" encoding="utf-8" standalone="no"?>
<!DOCTYPE svg PUBLIC "-//W3C//DTD SVG 1.1//EN"
  "http://www.w3.org/Graphics/SVG/1.1/DTD/svg11.dtd">
<svg xmlns:xlink="http://www.w3.org/1999/xlink" width="1080pt" height="288pt" viewBox="0 0 1080 288" xmlns="http://www.w3.org/2000/svg" version="1.1">
 <metadata>
  <rdf:RDF xmlns:dc="http://purl.org/dc/elements/1.1/" xmlns:cc="http://creativecommons.org/ns#" xmlns:rdf="http://www.w3.org/1999/02/22-rdf-syntax-ns#">
   <cc:Work>
    <dc:type rdf:resource="http://purl.org/dc/dcmitype/StillImage"/>
    <dc:date>2024-05-29T19:40:37.004836</dc:date>
    <dc:format>image/svg+xml</dc:format>
    <dc:creator>
     <cc:Agent>
      <dc:title>Matplotlib v3.8.2, https://matplotlib.org/</dc:title>
     </cc:Agent>
    </dc:creator>
   </cc:Work>
  </rdf:RDF>
 </metadata>
 <defs>
  <style type="text/css">*{stroke-linejoin: round; stroke-linecap: butt}</style>
 </defs>
 <g id="figure_1">
  <g id="patch_1">
   <path d="M 0 288 
L 1080 288 
L 1080 0 
L 0 0 
z
" style="fill: #ffffff"/>
  </g>
  <g id="axes_1">
   <g id="patch_2">
    <path d="M 78.41 228.04 
L 1062.72 228.04 
L 1062.72 17.28 
L 78.41 17.28 
z
" style="fill: #ffffff"/>
   </g>
   <g id="matplotlib.axis_1">
    <g id="xtick_1">
     <g id="line2d_1">
      <defs>
       <path id="m8522f304f1" d="M 0 0 
L 0 3.5 
" style="stroke: #000000; stroke-width: 0.8"/>
      </defs>
      <g>
       <use xlink:href="#m8522f304f1" x="85.154452" y="228.04" style="stroke: #000000; stroke-width: 0.8"/>
      </g>
     </g>
     <g id="text_1">
      <!-- 0.0 -->
      <g transform="translate(74.514452 246.4) scale(0.16 -0.16)">
       <defs>
        <path id="Bahnschrift-30" d="M 1766 -47 
Q 1116 -47 792 301 
Q 469 650 469 1244 
L 469 3309 
Q 469 3913 797 4256 
Q 1125 4600 1766 4600 
Q 2409 4600 2736 4258 
Q 3063 3916 3063 3309 
L 3063 1244 
Q 3063 641 2736 297 
Q 2409 -47 1766 -47 
z
M 1766 559 
Q 2116 559 2270 742 
Q 2425 925 2425 1244 
L 2425 3309 
Q 2425 3631 2270 3812 
Q 2116 3994 1766 3994 
Q 1416 3994 1261 3812 
Q 1106 3631 1106 3309 
L 1106 1244 
Q 1106 925 1261 742 
Q 1416 559 1766 559 
z
" transform="scale(0.015625)"/>
        <path id="Bahnschrift-2e" d="M 391 0 
L 391 669 
L 1059 669 
L 1059 0 
L 391 0 
z
" transform="scale(0.015625)"/>
       </defs>
       <use xlink:href="#Bahnschrift-30"/>
       <use xlink:href="#Bahnschrift-2e" x="55.175781"/>
       <use xlink:href="#Bahnschrift-30" x="77.832031"/>
      </g>
     </g>
    </g>
    <g id="xtick_2">
     <g id="line2d_2">
      <g>
       <use xlink:href="#m8522f304f1" x="275.139011" y="228.04" style="stroke: #000000; stroke-width: 0.8"/>
      </g>
     </g>
     <g id="text_2">
      <!-- 0.1 -->
      <g transform="translate(266.252761 246.4) scale(0.16 -0.16)">
       <defs>
        <path id="Bahnschrift-31" d="M 1566 4544 
L 1566 0 
L 928 0 
L 928 3850 
L 281 3453 
L 281 4113 
L 928 4544 
L 1566 4544 
z
" transform="scale(0.015625)"/>
       </defs>
       <use xlink:href="#Bahnschrift-30"/>
       <use xlink:href="#Bahnschrift-2e" x="55.175781"/>
       <use xlink:href="#Bahnschrift-31" x="77.832031"/>
      </g>
     </g>
    </g>
    <g id="xtick_3">
     <g id="line2d_3">
      <g>
       <use xlink:href="#m8522f304f1" x="465.12357" y="228.04" style="stroke: #000000; stroke-width: 0.8"/>
      </g>
     </g>
     <g id="text_3">
      <!-- 0.2 -->
      <g transform="translate(454.76482 246.4) scale(0.16 -0.16)">
       <defs>
        <path id="Bahnschrift-32" d="M 400 0 
L 400 553 
L 1984 2666 
Q 2122 2847 2198 3040 
Q 2275 3234 2275 3406 
L 2275 3413 
Q 2275 3684 2115 3834 
Q 1956 3984 1663 3984 
Q 1388 3984 1214 3820 
Q 1041 3656 1003 3356 
L 1003 3353 
L 344 3353 
L 344 3356 
Q 428 3944 772 4267 
Q 1116 4591 1656 4591 
Q 2269 4591 2603 4281 
Q 2938 3972 2938 3406 
L 2938 3403 
Q 2938 3163 2838 2898 
Q 2738 2634 2559 2394 
L 1244 606 
L 2963 606 
L 2963 0 
L 400 0 
z
" transform="scale(0.015625)"/>
       </defs>
       <use xlink:href="#Bahnschrift-30"/>
       <use xlink:href="#Bahnschrift-2e" x="55.175781"/>
       <use xlink:href="#Bahnschrift-32" x="77.832031"/>
      </g>
     </g>
    </g>
    <g id="xtick_4">
     <g id="line2d_4">
      <g>
       <use xlink:href="#m8522f304f1" x="655.108129" y="228.04" style="stroke: #000000; stroke-width: 0.8"/>
      </g>
     </g>
     <g id="text_4">
      <!-- 0.3 -->
      <g transform="translate(644.651879 246.4) scale(0.16 -0.16)">
       <defs>
        <path id="Bahnschrift-33" d="M 1644 -47 
Q 1259 -47 970 92 
Q 681 231 506 493 
Q 331 756 281 1131 
L 281 1131 
L 931 1131 
L 931 1131 
Q 975 838 1162 702 
Q 1350 566 1644 566 
Q 1959 566 2134 734 
Q 2309 903 2309 1209 
L 2309 1347 
Q 2309 1688 2143 1873 
Q 1978 2059 1675 2059 
L 1353 2059 
L 1353 2666 
L 1675 2666 
Q 1944 2666 2089 2825 
Q 2234 2984 2234 3275 
L 2234 3416 
Q 2234 3684 2079 3831 
Q 1925 3978 1641 3978 
Q 1400 3978 1233 3842 
Q 1066 3706 1003 3413 
L 1003 3413 
L 356 3413 
L 356 3413 
Q 453 3975 789 4283 
Q 1125 4591 1641 4591 
Q 2228 4591 2550 4281 
Q 2872 3972 2872 3409 
L 2872 3334 
Q 2872 2994 2687 2742 
Q 2503 2491 2166 2372 
Q 2538 2294 2742 2008 
Q 2947 1722 2947 1281 
L 2947 1206 
Q 2947 609 2606 281 
Q 2266 -47 1644 -47 
z
" transform="scale(0.015625)"/>
       </defs>
       <use xlink:href="#Bahnschrift-30"/>
       <use xlink:href="#Bahnschrift-2e" x="55.175781"/>
       <use xlink:href="#Bahnschrift-33" x="77.832031"/>
      </g>
     </g>
    </g>
    <g id="xtick_5">
     <g id="line2d_5">
      <g>
       <use xlink:href="#m8522f304f1" x="845.092688" y="228.04" style="stroke: #000000; stroke-width: 0.8"/>
      </g>
     </g>
     <g id="text_5">
      <!-- 0.4 -->
      <g transform="translate(834.315188 246.4) scale(0.16 -0.16)">
       <defs>
        <path id="Bahnschrift-34" d="M 406 697 
L 406 1250 
L 1931 4541 
L 2588 4541 
L 1100 1288 
L 3328 1288 
L 3328 697 
L 406 697 
z
M 2366 -3 
L 2366 2672 
L 2988 2672 
L 2988 -3 
L 2366 -3 
z
" transform="scale(0.015625)"/>
       </defs>
       <use xlink:href="#Bahnschrift-30"/>
       <use xlink:href="#Bahnschrift-2e" x="55.175781"/>
       <use xlink:href="#Bahnschrift-34" x="77.832031"/>
      </g>
     </g>
    </g>
    <g id="xtick_6">
     <g id="line2d_6">
      <g>
       <use xlink:href="#m8522f304f1" x="1035.077247" y="228.04" style="stroke: #000000; stroke-width: 0.8"/>
      </g>
     </g>
     <g id="text_6">
      <!-- 0.5 -->
      <g transform="translate(1024.495997 246.4) scale(0.16 -0.16)">
       <defs>
        <path id="Bahnschrift-35" d="M 1738 -47 
Q 1219 -47 886 251 
Q 553 550 469 1094 
L 469 1097 
L 1106 1097 
L 1106 1094 
Q 1141 844 1306 705 
Q 1472 566 1738 566 
Q 2044 566 2211 770 
Q 2378 975 2378 1347 
L 2378 1728 
Q 2378 2100 2211 2303 
Q 2044 2506 1738 2506 
Q 1572 2506 1419 2412 
Q 1266 2319 1150 2150 
L 569 2150 
L 569 4544 
L 2884 4544 
L 2884 3938 
L 1206 3938 
L 1206 2916 
Q 1325 3013 1472 3066 
Q 1619 3119 1772 3119 
Q 2366 3119 2691 2755 
Q 3016 2391 3016 1728 
L 3016 1347 
Q 3016 681 2681 317 
Q 2347 -47 1738 -47 
z
" transform="scale(0.015625)"/>
       </defs>
       <use xlink:href="#Bahnschrift-30"/>
       <use xlink:href="#Bahnschrift-2e" x="55.175781"/>
       <use xlink:href="#Bahnschrift-35" x="77.832031"/>
      </g>
     </g>
    </g>
    <g id="text_7">
     <!-- Rho -->
     <g transform="translate(556.52125 265.0575) scale(0.16 -0.16)">
      <defs>
       <path id="Bahnschrift-52" d="M 841 1922 
L 841 2528 
L 2391 2528 
Q 2669 2528 2837 2722 
Q 3006 2916 3006 3234 
L 3006 3234 
Q 3006 3553 2837 3747 
Q 2669 3941 2391 3941 
L 841 3941 
L 841 4547 
L 2366 4547 
Q 2763 4547 3059 4383 
Q 3356 4219 3520 3925 
Q 3684 3631 3684 3234 
L 3684 3234 
Q 3684 2841 3518 2545 
Q 3353 2250 3058 2086 
Q 2763 1922 2366 1922 
L 841 1922 
z
M 563 0 
L 563 4547 
L 1200 4547 
L 1200 0 
L 563 0 
z
M 3119 0 
L 2078 2063 
L 2713 2206 
L 3875 0 
L 3119 0 
z
" transform="scale(0.015625)"/>
       <path id="Bahnschrift-68" d="M 500 0 
L 500 4544 
L 1138 4544 
L 1138 0 
L 500 0 
z
M 2469 0 
L 2469 1966 
Q 2469 2309 2292 2496 
Q 2116 2684 1791 2684 
Q 1478 2684 1308 2521 
Q 1138 2359 1138 2063 
L 1072 2688 
Q 1222 2975 1464 3133 
Q 1706 3291 2000 3291 
Q 2528 3291 2817 2945 
Q 3106 2600 3106 1969 
L 3106 0 
L 2469 0 
z
" transform="scale(0.015625)"/>
       <path id="Bahnschrift-6f" d="M 1744 -47 
Q 1106 -47 756 323 
Q 406 694 406 1366 
L 406 1894 
Q 406 2559 756 2925 
Q 1106 3291 1744 3291 
Q 2381 3291 2731 2925 
Q 3081 2559 3081 1894 
L 3081 1356 
Q 3081 688 2731 320 
Q 2381 -47 1744 -47 
z
M 1744 559 
Q 2078 559 2261 768 
Q 2444 978 2444 1356 
L 2444 1894 
Q 2444 2272 2261 2478 
Q 2078 2684 1744 2684 
Q 1413 2684 1228 2478 
Q 1044 2272 1044 1894 
L 1044 1356 
Q 1044 978 1228 768 
Q 1413 559 1744 559 
z
" transform="scale(0.015625)"/>
      </defs>
      <use xlink:href="#Bahnschrift-52"/>
      <use xlink:href="#Bahnschrift-68" x="65.185547"/>
      <use xlink:href="#Bahnschrift-6f" x="121.044922"/>
     </g>
    </g>
   </g>
   <g id="matplotlib.axis_2">
    <g id="ytick_1">
     <g id="line2d_7">
      <defs>
       <path id="md00a854f3a" d="M 0 0 
L -3.5 0 
" style="stroke: #000000; stroke-width: 0.8"/>
      </defs>
      <g>
       <use xlink:href="#md00a854f3a" x="78.41" y="177.965104" style="stroke: #000000; stroke-width: 0.8"/>
      </g>
     </g>
     <g id="text_8">
      <!-- -0.01 -->
      <g transform="translate(37.1375 183.645104) scale(0.16 -0.16)">
       <defs>
        <path id="Bahnschrift-2d" d="M 500 1931 
L 2600 1931 
L 2600 1325 
L 500 1325 
L 500 1931 
z
" transform="scale(0.015625)"/>
       </defs>
       <use xlink:href="#Bahnschrift-2d"/>
       <use xlink:href="#Bahnschrift-30" x="47.949219"/>
       <use xlink:href="#Bahnschrift-2e" x="103.125"/>
       <use xlink:href="#Bahnschrift-30" x="125.78125"/>
       <use xlink:href="#Bahnschrift-31" x="180.957031"/>
      </g>
     </g>
    </g>
    <g id="ytick_2">
     <g id="line2d_8">
      <g>
       <use xlink:href="#md00a854f3a" x="78.41" y="126.970162" style="stroke: #000000; stroke-width: 0.8"/>
      </g>
     </g>
     <g id="text_9">
      <!-- 0.00 -->
      <g transform="translate(41.3025 132.650162) scale(0.16 -0.16)">
       <use xlink:href="#Bahnschrift-30"/>
       <use xlink:href="#Bahnschrift-2e" x="55.175781"/>
       <use xlink:href="#Bahnschrift-30" x="77.832031"/>
       <use xlink:href="#Bahnschrift-30" x="133.007812"/>
      </g>
     </g>
    </g>
    <g id="ytick_3">
     <g id="line2d_9">
      <g>
       <use xlink:href="#md00a854f3a" x="78.41" y="75.975219" style="stroke: #000000; stroke-width: 0.8"/>
      </g>
     </g>
     <g id="text_10">
      <!-- 0.01 -->
      <g transform="translate(44.81 81.655219) scale(0.16 -0.16)">
       <use xlink:href="#Bahnschrift-30"/>
       <use xlink:href="#Bahnschrift-2e" x="55.175781"/>
       <use xlink:href="#Bahnschrift-30" x="77.832031"/>
       <use xlink:href="#Bahnschrift-31" x="133.007812"/>
      </g>
     </g>
    </g>
    <g id="ytick_4">
     <g id="line2d_10">
      <g>
       <use xlink:href="#md00a854f3a" x="78.41" y="24.980277" style="stroke: #000000; stroke-width: 0.8"/>
      </g>
     </g>
     <g id="text_11">
      <!-- 0.02 -->
      <g transform="translate(41.865 30.660277) scale(0.16 -0.16)">
       <use xlink:href="#Bahnschrift-30"/>
       <use xlink:href="#Bahnschrift-2e" x="55.175781"/>
       <use xlink:href="#Bahnschrift-30" x="77.832031"/>
       <use xlink:href="#Bahnschrift-32" x="133.007812"/>
      </g>
     </g>
    </g>
    <g id="text_12">
     <!-- 1st. Difference,  mean: 0.00071 -->
     <g transform="translate(29.84 229.19375) rotate(-90) scale(0.16 -0.16)">
      <defs>
       <path id="Bahnschrift-73" d="M 1647 -47 
Q 1216 -47 864 79 
Q 513 206 234 459 
L 234 459 
L 613 925 
L 613 925 
Q 878 725 1136 625 
Q 1394 525 1647 525 
Q 2025 525 2214 642 
Q 2403 759 2403 994 
Q 2403 1175 2276 1250 
Q 2150 1325 1945 1348 
Q 1741 1372 1506 1388 
Q 1309 1403 1115 1436 
Q 922 1469 762 1555 
Q 603 1641 508 1809 
Q 413 1978 413 2263 
Q 413 2778 728 3034 
Q 1044 3291 1669 3291 
Q 2050 3291 2378 3187 
Q 2706 3084 2994 2872 
L 2994 2872 
L 2609 2406 
L 2609 2406 
Q 2366 2563 2130 2641 
Q 1894 2719 1669 2719 
Q 1344 2719 1181 2608 
Q 1019 2497 1019 2275 
Q 1019 2128 1131 2064 
Q 1244 2000 1428 1981 
Q 1613 1963 1825 1947 
Q 2028 1934 2236 1901 
Q 2444 1869 2619 1775 
Q 2794 1681 2900 1497 
Q 3006 1313 3006 994 
Q 3006 472 2667 212 
Q 2328 -47 1647 -47 
z
" transform="scale(0.015625)"/>
       <path id="Bahnschrift-74" d="M 1344 -16 
Q 944 -16 764 206 
Q 584 428 584 844 
L 584 4188 
L 1222 4188 
L 1222 838 
Q 1222 722 1269 656 
Q 1316 591 1406 591 
L 1713 591 
L 1713 -16 
L 1344 -16 
z
M 250 2669 
L 250 3244 
L 1713 3244 
L 1713 2669 
L 250 2669 
z
" transform="scale(0.015625)"/>
       <path id="Bahnschrift-20" transform="scale(0.015625)"/>
       <path id="Bahnschrift-44" d="M 994 0 
L 994 606 
L 2022 606 
Q 2525 606 2801 867 
Q 3078 1128 3078 1603 
L 3078 2941 
Q 3078 3416 2801 3677 
Q 2525 3938 2022 3938 
L 994 3938 
L 994 4544 
L 2003 4544 
Q 2828 4544 3279 4117 
Q 3731 3691 3731 2916 
L 3731 1628 
Q 3731 1113 3528 748 
Q 3325 384 2937 192 
Q 2550 0 2000 0 
L 994 0 
z
M 563 0 
L 563 4544 
L 1200 4544 
L 1200 0 
L 563 0 
z
" transform="scale(0.015625)"/>
       <path id="Bahnschrift-69" d="M 500 3906 
L 500 4544 
L 1138 4544 
L 1138 3906 
L 500 3906 
z
M 500 0 
L 500 3244 
L 1138 3244 
L 1138 0 
L 500 0 
z
" transform="scale(0.015625)"/>
       <path id="Bahnschrift-66" d="M 594 0 
L 594 3684 
Q 594 4113 791 4328 
Q 988 4544 1403 4544 
L 1872 4544 
L 1872 3938 
L 1416 3938 
Q 1319 3938 1275 3864 
Q 1231 3791 1231 3691 
L 1231 0 
L 594 0 
z
M 250 2700 
L 250 3244 
L 1872 3244 
L 1872 2700 
L 250 2700 
z
" transform="scale(0.015625)"/>
       <path id="Bahnschrift-65" d="M 1828 -47 
Q 1150 -47 778 331 
Q 406 709 406 1406 
L 406 1772 
Q 406 2497 764 2894 
Q 1122 3291 1772 3291 
Q 2384 3291 2720 2841 
Q 3056 2391 3056 1578 
L 3056 1366 
L 869 1366 
L 869 1878 
L 2450 1878 
L 2450 1878 
Q 2422 2272 2245 2494 
Q 2069 2716 1772 2716 
Q 1413 2716 1213 2478 
Q 1013 2241 1013 1806 
L 1013 1394 
Q 1013 991 1227 775 
Q 1441 559 1828 559 
Q 2022 559 2212 637 
Q 2403 716 2553 856 
L 2553 856 
L 2972 438 
L 2972 438 
Q 2731 206 2431 79 
Q 2131 -47 1828 -47 
z
" transform="scale(0.015625)"/>
       <path id="Bahnschrift-72" d="M 500 0 
L 500 3244 
L 1138 3244 
L 1138 0 
L 500 0 
z
M 2284 2475 
Q 2200 2578 2072 2631 
Q 1944 2684 1775 2684 
Q 1472 2684 1305 2517 
Q 1138 2350 1138 2053 
L 1072 2678 
Q 1219 2966 1458 3128 
Q 1697 3291 1984 3291 
Q 2206 3291 2386 3227 
Q 2566 3163 2700 3038 
L 2284 2475 
z
" transform="scale(0.015625)"/>
       <path id="Bahnschrift-6e" d="M 500 0 
L 500 3244 
L 1138 3244 
L 1138 0 
L 500 0 
z
M 2469 0 
L 2469 1966 
Q 2469 2309 2292 2496 
Q 2116 2684 1791 2684 
Q 1478 2684 1308 2518 
Q 1138 2353 1138 2053 
L 1072 2678 
Q 1222 2972 1464 3131 
Q 1706 3291 2000 3291 
Q 2528 3291 2817 2945 
Q 3106 2600 3106 1969 
L 3106 0 
L 2469 0 
z
" transform="scale(0.015625)"/>
       <path id="Bahnschrift-63" d="M 1809 -47 
Q 1141 -47 773 322 
Q 406 691 406 1363 
L 406 1897 
Q 406 2563 773 2927 
Q 1141 3291 1809 3291 
Q 2191 3291 2497 3156 
Q 2803 3022 2984 2772 
L 2984 2772 
L 2525 2359 
L 2525 2359 
Q 2391 2516 2206 2600 
Q 2022 2684 1819 2684 
Q 1450 2684 1247 2478 
Q 1044 2272 1044 1897 
L 1044 1363 
Q 1044 978 1247 768 
Q 1450 559 1819 559 
Q 2022 559 2206 650 
Q 2391 741 2525 906 
L 2525 906 
L 2984 463 
L 2984 463 
Q 2803 219 2495 86 
Q 2188 -47 1809 -47 
z
" transform="scale(0.015625)"/>
       <path id="Bahnschrift-2c" d="M 391 -1038 
L 391 669 
L 1059 669 
L 1059 -344 
L 391 -1038 
z
" transform="scale(0.015625)"/>
       <path id="Bahnschrift-6d" d="M 4375 0 
L 4375 1966 
Q 4375 2309 4198 2496 
Q 4022 2684 3697 2684 
Q 3400 2684 3237 2503 
Q 3075 2322 3075 1991 
L 2947 2616 
Q 3103 2941 3353 3116 
Q 3603 3291 3906 3291 
Q 4434 3291 4723 2945 
Q 5013 2600 5013 1969 
L 5013 0 
L 4375 0 
z
M 500 0 
L 500 3244 
L 1138 3244 
L 1138 0 
L 500 0 
z
M 2438 0 
L 2438 1966 
Q 2438 2309 2269 2496 
Q 2100 2684 1791 2684 
Q 1478 2684 1308 2518 
Q 1138 2353 1138 2053 
L 1072 2678 
Q 1222 2972 1464 3131 
Q 1706 3291 2000 3291 
Q 2513 3291 2794 2945 
Q 3075 2600 3075 1969 
L 3075 0 
L 2438 0 
z
" transform="scale(0.015625)"/>
       <path id="Bahnschrift-61" d="M 2331 0 
L 2331 2056 
Q 2331 2375 2161 2551 
Q 1991 2728 1678 2728 
Q 1488 2728 1302 2670 
Q 1116 2613 969 2503 
L 503 2822 
Q 688 3044 989 3167 
Q 1291 3291 1659 3291 
Q 2269 3291 2603 2975 
Q 2938 2659 2938 2084 
L 2938 0 
L 2331 0 
z
M 1538 -47 
Q 941 -47 642 200 
Q 344 447 344 956 
Q 344 1441 617 1680 
Q 891 1919 1438 1919 
L 2359 1919 
L 2403 1406 
L 1441 1406 
Q 1194 1406 1069 1295 
Q 944 1184 944 956 
Q 944 709 1109 590 
Q 1275 472 1606 472 
Q 1969 472 2150 550 
Q 2331 628 2331 794 
L 2397 338 
Q 2313 206 2188 122 
Q 2063 38 1902 -4 
Q 1741 -47 1538 -47 
z
" transform="scale(0.015625)"/>
       <path id="Bahnschrift-3a" d="M 391 0 
L 391 669 
L 1059 669 
L 1059 0 
L 391 0 
z
M 391 2606 
L 391 3275 
L 1059 3275 
L 1059 2606 
L 391 2606 
z
" transform="scale(0.015625)"/>
       <path id="Bahnschrift-37" d="M 2816 4544 
L 2816 3975 
L 1641 0 
L 963 0 
L 2138 3938 
L 981 3938 
L 981 3284 
L 344 3284 
L 344 4544 
L 2816 4544 
z
" transform="scale(0.015625)"/>
      </defs>
      <use xlink:href="#Bahnschrift-31"/>
      <use xlink:href="#Bahnschrift-73" x="33.251953"/>
      <use xlink:href="#Bahnschrift-74" x="85.107422"/>
      <use xlink:href="#Bahnschrift-2e" x="117.724609"/>
      <use xlink:href="#Bahnschrift-20" x="140.380859"/>
      <use xlink:href="#Bahnschrift-44" x="167.236328"/>
      <use xlink:href="#Bahnschrift-69" x="232.861328"/>
      <use xlink:href="#Bahnschrift-66" x="257.958984"/>
      <use xlink:href="#Bahnschrift-66" x="289.648438"/>
      <use xlink:href="#Bahnschrift-65" x="321.337891"/>
      <use xlink:href="#Bahnschrift-72" x="374.951172"/>
      <use xlink:href="#Bahnschrift-65" x="417.626953"/>
      <use xlink:href="#Bahnschrift-6e" x="471.240234"/>
      <use xlink:href="#Bahnschrift-63" x="527.099609"/>
      <use xlink:href="#Bahnschrift-65" x="576.904297"/>
      <use xlink:href="#Bahnschrift-2c" x="630.517578"/>
      <use xlink:href="#Bahnschrift-20" x="653.173828"/>
      <use xlink:href="#Bahnschrift-20" x="680.029297"/>
      <use xlink:href="#Bahnschrift-6d" x="706.884766"/>
      <use xlink:href="#Bahnschrift-65" x="792.529297"/>
      <use xlink:href="#Bahnschrift-61" x="846.142578"/>
      <use xlink:href="#Bahnschrift-6e" x="899.365234"/>
      <use xlink:href="#Bahnschrift-3a" x="955.224609"/>
      <use xlink:href="#Bahnschrift-20" x="977.880859"/>
      <use xlink:href="#Bahnschrift-30" x="1004.736328"/>
      <use xlink:href="#Bahnschrift-2e" x="1059.912109"/>
      <use xlink:href="#Bahnschrift-30" x="1082.568359"/>
      <use xlink:href="#Bahnschrift-30" x="1137.744141"/>
      <use xlink:href="#Bahnschrift-30" x="1192.919922"/>
      <use xlink:href="#Bahnschrift-37" x="1248.095703"/>
      <use xlink:href="#Bahnschrift-31" x="1298.4375"/>
     </g>
    </g>
   </g>
   <g id="line2d_11">
    <path d="M 123.151364 182.143636 
L 126.951055 169.545526 
L 128.8509 157.522549 
L 130.750746 156.548906 
L 132.650592 159.655928 
L 134.550437 150.258018 
L 136.450283 149.920936 
L 138.350128 140.533975 
L 140.249974 141.327507 
L 142.14982 139.721987 
L 144.049665 136.371622 
L 145.949511 141.794987 
L 147.849356 136.121021 
L 149.749202 134.218875 
L 151.649047 136.794962 
L 153.548893 135.700898 
L 155.448739 136.891487 
L 157.348584 130.140887 
L 159.24843 134.796839 
L 161.148275 133.469691 
L 163.048121 132.911571 
L 164.947967 126.096207 
L 166.847812 130.790137 
L 168.747658 132.57139 
L 170.647503 128.819893 
L 172.547349 131.002118 
L 174.447195 128.14017 
L 176.34704 126.184933 
L 178.246886 127.434954 
L 180.146731 127.773819 
L 182.046577 127.389687 
L 183.946423 125.62569 
L 185.846268 125.744251 
L 187.746114 129.694828 
L 189.645959 123.169995 
L 191.545805 125.535334 
L 193.44565 123.105005 
L 195.345496 122.813086 
L 197.245342 123.464517 
L 201.045033 124.589955 
L 202.944878 125.237267 
L 204.844724 122.318202 
L 206.74457 119.791622 
L 208.644415 125.779727 
L 210.544261 126.024036 
L 212.444106 125.118319 
L 214.343952 126.576783 
L 216.243798 120.816036 
L 218.143643 118.910315 
L 220.043489 119.983035 
L 221.943334 120.732075 
L 223.84318 125.424343 
L 225.743025 123.747106 
L 227.642871 121.041203 
L 229.542717 122.118455 
L 231.442562 122.619321 
L 233.342408 128.682451 
L 235.242253 123.096563 
L 237.142099 120.175714 
L 239.041945 123.179413 
L 240.94179 125.461084 
L 242.841636 119.786473 
L 244.741481 121.611111 
L 246.641327 117.960747 
L 248.541173 121.958579 
L 250.441018 126.425177 
L 252.340864 118.313753 
L 254.240709 124.602944 
L 256.140555 122.775332 
L 258.040401 125.559397 
L 259.940246 124.688935 
L 261.840092 117.446861 
L 263.739937 125.61977 
L 265.639783 119.081906 
L 267.539628 125.327304 
L 269.439474 126.686633 
L 271.33932 118.214127 
L 273.239165 126.062072 
L 275.139011 122.918821 
L 277.038856 121.853926 
L 278.938702 121.184373 
L 280.838548 124.11771 
L 282.738393 120.554945 
L 284.638239 122.525813 
L 286.538084 121.223242 
L 288.43793 116.668413 
L 290.337776 123.340102 
L 292.237621 122.32921 
L 294.137467 127.382229 
L 296.037312 119.470662 
L 297.937158 122.116269 
L 299.837003 128.244983 
L 301.736849 120.400518 
L 303.636695 125.178269 
L 305.53654 115.478288 
L 307.436386 119.724973 
L 309.336231 117.181536 
L 311.236077 119.945422 
L 313.135923 122.087394 
L 315.035768 128.192314 
L 316.935614 123.450337 
L 318.835459 122.91641 
L 320.735305 125.054274 
L 322.635151 115.82221 
L 324.534996 118.595938 
L 326.434842 123.152817 
L 328.334687 114.850022 
L 330.234533 124.35591 
L 332.134378 114.258329 
L 334.034224 118.226696 
L 335.93407 119.144922 
L 337.833915 116.397127 
L 339.733761 119.878621 
L 341.633606 127.615197 
L 343.533452 128.176359 
L 345.433298 123.418616 
L 347.333143 131.530523 
L 349.232989 120.079617 
L 351.132834 117.989121 
L 353.03268 114.716151 
L 354.932526 123.093889 
L 356.832371 124.211189 
L 358.732217 124.634072 
L 360.632062 129.724972 
L 362.531908 120.704752 
L 364.431754 118.630033 
L 366.331599 125.789276 
L 368.231445 120.000361 
L 370.13129 132.327369 
L 372.031136 128.667861 
L 373.930981 124.66304 
L 375.830827 123.090471 
L 377.730673 120.827148 
L 379.630518 119.01073 
L 381.530364 111.233342 
L 383.430209 114.101395 
L 385.330055 110.006044 
L 387.229901 120.258796 
L 389.129746 127.86174 
L 391.029592 123.525061 
L 392.929437 113.075619 
L 394.829283 121.428881 
L 396.729129 114.996664 
L 398.628974 119.781325 
L 400.52882 123.2632 
L 402.428665 122.773466 
L 404.328511 127.342423 
L 406.228356 112.745207 
L 408.128202 117.924754 
L 410.028048 116.641028 
L 411.927893 120.298579 
L 413.827739 120.799136 
L 415.727584 122.922071 
L 417.62743 114.88848 
L 419.527276 129.582586 
L 421.427121 120.880931 
L 423.326967 127.790478 
L 425.226812 127.439452 
L 429.026504 118.522543 
L 430.926349 123.893465 
L 432.826195 121.062715 
L 434.72604 102.913295 
L 436.625886 113.696664 
L 438.525732 114.497409 
L 440.425577 111.088147 
L 442.325423 111.12625 
L 444.225268 124.636971 
L 446.125114 111.88595 
L 448.024959 108.185479 
L 449.924805 108.570118 
L 451.824651 111.915179 
L 453.724496 116.622001 
L 455.624342 109.973326 
L 457.524187 110.792534 
L 459.424033 114.504867 
L 461.323879 110.895461 
L 463.223724 87.935387 
L 465.12357 109.534028 
L 467.023415 113.616294 
L 468.923261 104.662583 
L 470.823107 103.853186 
L 472.722952 132.716012 
L 474.622798 128.077007 
L 476.522643 114.577659 
L 478.422489 129.271328 
L 480.322334 114.399292 
L 482.22218 120.082914 
L 484.122026 123.639364 
L 486.021871 134.304147 
L 487.921717 135.584226 
L 489.821562 131.632072 
L 491.721408 121.048527 
L 493.621254 135.192128 
L 495.521099 125.564343 
L 497.420945 131.208271 
L 499.32079 115.152489 
L 501.220636 146.04172 
L 503.120482 122.398432 
L 505.020327 117.248151 
L 506.920173 129.728118 
L 508.820018 132.581196 
L 510.719864 119.953572 
L 512.61971 113.373147 
L 514.519555 130.613183 
L 516.419401 119.355751 
L 518.319246 131.184368 
L 520.219092 110.998114 
L 522.118937 108.396892 
L 524.018783 114.097583 
L 525.918629 106.053397 
L 527.818474 110.303816 
L 529.71832 107.496033 
L 531.618165 116.883723 
L 533.518011 124.301323 
L 535.417857 117.080031 
L 537.317702 140.376512 
L 539.217548 125.192749 
L 541.117393 124.118471 
L 543.017239 137.735582 
L 544.917085 125.439797 
L 546.81693 119.983399 
L 548.716776 131.142759 
L 550.616621 127.095326 
L 552.516467 120.901523 
L 554.416312 125.851751 
L 556.316158 113.992681 
L 558.216004 119.194917 
L 560.115849 135.39964 
L 562.015695 129.283691 
L 563.91554 131.047379 
L 565.815386 123.653835 
L 567.715232 123.402665 
L 569.615077 117.547046 
L 571.514923 107.17704 
L 573.414768 122.766915 
L 575.314614 114.052644 
L 577.21446 119.715257 
L 579.114305 112.575483 
L 581.014151 113.255872 
L 582.913996 90.348251 
L 584.813842 127.491705 
L 586.713688 121.492218 
L 588.613533 124.717922 
L 590.513379 121.909259 
L 592.413224 115.742008 
L 594.31307 117.474095 
L 596.212915 142.117192 
L 598.112761 125.163898 
L 600.012607 114.2945 
L 601.912452 116.898903 
L 603.812298 127.62196 
L 605.712143 132.746506 
L 607.611989 138.208067 
L 609.511835 136.74138 
L 611.41168 128.199644 
L 613.311526 134.717346 
L 615.211371 123.424351 
L 617.111217 138.111773 
L 619.011063 130.553599 
L 620.910908 160.605396 
L 622.810754 125.36496 
L 624.710599 117.694116 
L 626.610445 128.017946 
L 628.51029 136.40104 
L 630.410136 136.056105 
L 632.309982 141.149677 
L 634.209827 121.585779 
L 636.109673 120.263133 
L 638.009518 136.676061 
L 639.909364 134.207908 
L 641.80921 128.608615 
L 643.709055 130.298047 
L 645.608901 120.92432 
L 647.508746 127.427679 
L 649.408592 125.857564 
L 651.308438 121.244638 
L 653.208283 129.792081 
L 655.108129 126.075488 
L 657.007974 124.906138 
L 658.90782 127.145842 
L 660.807666 131.424191 
L 662.707511 127.486799 
L 664.607357 121.285813 
L 666.507202 114.69736 
L 668.407048 121.199235 
L 670.306893 123.381634 
L 672.206739 124.734386 
L 674.106585 127.493097 
L 676.00643 118.696032 
L 677.906276 124.345268 
L 679.806121 128.250522 
L 681.705967 120.671008 
L 683.605813 136.179411 
L 685.505658 126.089542 
L 687.405504 121.221837 
L 689.305349 117.957209 
L 691.205195 115.311588 
L 693.105041 118.229963 
L 695.004886 120.80958 
L 696.904732 116.541065 
L 698.804577 118.187574 
L 700.704423 126.302345 
L 702.604268 124.300075 
L 704.504114 118.276574 
L 706.40396 121.054133 
L 708.303805 127.146294 
L 710.203651 125.41186 
L 712.103496 121.78163 
L 714.003342 124.758994 
L 715.903188 125.271914 
L 717.803033 123.828159 
L 719.702879 138.462303 
L 721.602724 114.791179 
L 723.50257 120.894131 
L 725.402416 123.957955 
L 727.302261 130.844791 
L 729.202107 131.331228 
L 731.101952 123.435375 
L 733.001798 124.128606 
L 734.901644 129.66999 
L 736.801489 124.393583 
L 738.701335 129.163919 
L 740.60118 121.243273 
L 742.501026 133.909098 
L 744.400871 128.098871 
L 746.300717 119.394713 
L 750.100408 133.714473 
L 752.000254 124.773385 
L 753.900099 126.618864 
L 755.799945 125.957182 
L 757.699791 118.94963 
L 759.599636 123.65204 
L 761.499482 121.900215 
L 763.399327 135.603026 
L 765.299173 121.026525 
L 767.199019 128.550107 
L 769.098864 124.687969 
L 770.99871 125.032347 
L 772.898555 116.952618 
L 774.798401 121.148472 
L 776.698246 124.014488 
L 778.598092 129.968829 
L 780.497938 120.151237 
L 782.397783 128.872093 
L 784.297629 128.589127 
L 786.197474 126.03456 
L 788.09732 118.827954 
L 789.997166 135.665054 
L 791.897011 117.043938 
L 793.796857 115.106299 
L 795.696702 123.058134 
L 797.596548 123.126531 
L 799.496394 126.398347 
L 801.396239 108.666292 
L 803.296085 125.42633 
L 805.19593 118.317052 
L 807.095776 124.785085 
L 808.995622 121.406889 
L 810.895467 131.408502 
L 812.795313 117.578137 
L 814.695158 124.199196 
L 816.595004 117.144951 
L 818.494849 123.861983 
L 820.394695 112.737031 
L 822.294541 120.020926 
L 824.194386 112.456727 
L 826.094232 126.670365 
L 827.994077 116.314016 
L 829.893923 126.218448 
L 831.793769 138.681161 
L 833.693614 106.344228 
L 835.59346 119.665634 
L 837.493305 125.910947 
L 839.393151 125.812009 
L 841.292997 115.654862 
L 845.092688 128.032293 
L 846.992533 125.071883 
L 848.892379 120.282715 
L 850.792224 129.96855 
L 852.69207 115.660513 
L 854.591916 126.722269 
L 856.491761 130.910687 
L 858.391607 126.963055 
L 860.291452 121.21089 
L 862.191298 133.699807 
L 864.091144 118.112038 
L 865.990989 118.024563 
L 867.890835 114.871053 
L 869.79068 104.96533 
L 871.690526 124.05575 
L 873.590372 114.785867 
L 875.490217 115.941223 
L 877.390063 125.850419 
L 879.289908 127.092298 
L 881.189754 122.205933 
L 883.089599 121.492586 
L 884.989445 111.611868 
L 886.889291 123.8907 
L 888.789136 124.019135 
L 890.688982 126.394149 
L 892.588827 38.291383 
L 894.488673 28.618743 
L 896.388519 36.396697 
L 898.288364 36.854379 
L 900.18821 26.86 
L 902.088055 126.108199 
L 903.987901 121.219576 
L 905.887747 143.702919 
L 907.787592 135.968345 
L 909.687438 130.361068 
L 911.587283 137.160872 
L 913.487129 135.656618 
L 915.386975 115.856248 
L 917.28682 132.364192 
L 919.186666 129.296565 
L 921.086511 123.005604 
L 922.986357 131.793934 
L 924.886202 121.757176 
L 926.786048 122.012059 
L 928.685894 119.358806 
L 930.585739 206.632441 
L 932.485585 218.46 
L 934.38543 211.836008 
L 936.285276 211.627329 
L 938.185122 213.043934 
L 940.084967 115.814062 
L 941.984813 119.160217 
L 943.884658 103.841379 
L 945.784504 124.156898 
L 947.68435 128.272554 
L 949.584195 118.821752 
L 951.484041 121.534556 
L 953.383886 124.965604 
L 955.283732 114.827076 
L 957.183577 119.088158 
L 959.083423 117.918079 
L 960.983269 124.118396 
L 962.883114 125.864013 
L 966.682805 130.190712 
L 968.582651 126.221888 
L 970.482497 119.529758 
L 972.382342 127.126325 
L 974.282188 121.144009 
L 976.182033 125.40207 
L 978.081879 130.510326 
L 979.981725 130.149574 
L 981.88157 128.420282 
L 983.781416 129.963011 
L 985.681261 122.09152 
L 987.581107 116.218567 
L 989.480953 114.169461 
L 991.380798 139.053538 
L 993.280644 129.404302 
L 995.180489 127.387386 
L 997.080335 120.332618 
L 998.98018 135.89799 
L 1000.880026 129.237325 
L 1002.779872 124.474784 
L 1004.679717 122.461007 
L 1006.579563 121.166956 
L 1008.479408 118.252011 
L 1010.379254 118.178913 
L 1012.2791 124.89094 
L 1014.178945 134.803111 
L 1016.078791 129.60628 
L 1017.978636 119.870306 
L 1017.978636 119.870306 
" clip-path="url(#pfdccea6b89)" style="fill: none; stroke: #d2dbe0; stroke-width: 1.5; stroke-linecap: square"/>
   </g>
   <g id="line2d_12">
    <path d="M 142.14982 144.850965 
L 145.949511 140.539943 
L 147.849356 139.203322 
L 149.749202 138.004446 
L 151.649047 136.462644 
L 153.548893 135.499849 
L 155.448739 134.410811 
L 159.24843 132.998731 
L 161.148275 132.401323 
L 163.048121 131.952226 
L 164.947967 131.143761 
L 166.847812 130.624923 
L 168.747658 130.398721 
L 170.647503 129.717472 
L 172.547349 129.209194 
L 174.447195 128.51987 
L 176.34704 128.15348 
L 180.146731 127.113102 
L 182.046577 126.697021 
L 183.946423 126.654074 
L 185.846268 126.230478 
L 187.746114 125.591489 
L 197.245342 124.728131 
L 201.045033 123.914623 
L 202.944878 123.669942 
L 204.844724 123.653947 
L 206.74457 123.356561 
L 212.444106 123.054993 
L 214.343952 123.348461 
L 216.243798 123.330064 
L 218.143643 123.139126 
L 223.84318 122.953204 
L 225.743025 123.044178 
L 227.642871 122.653229 
L 229.542717 122.449956 
L 231.442562 122.515299 
L 233.342408 122.102148 
L 240.94179 122.961405 
L 242.841636 122.562531 
L 244.741481 122.656164 
L 246.641327 122.558199 
L 250.441018 122.922007 
L 252.340864 122.398591 
L 256.140555 122.684022 
L 258.040401 122.617748 
L 259.940246 122.403912 
L 261.840092 122.620474 
L 263.739937 122.567666 
L 265.639783 122.795919 
L 267.539628 122.759152 
L 269.439474 122.271314 
L 271.33932 122.522631 
L 273.239165 122.408945 
L 275.139011 122.639289 
L 277.038856 122.334853 
L 278.938702 122.206219 
L 280.838548 122.746126 
L 282.738393 122.485163 
L 284.638239 122.789981 
L 286.538084 122.29753 
L 288.43793 121.949447 
L 290.337776 121.897818 
L 292.237621 121.591985 
L 294.137467 121.550414 
L 296.037312 121.867333 
L 297.937158 121.980632 
L 299.837003 121.920567 
L 301.736849 122.145533 
L 303.636695 121.810353 
L 305.53654 121.678988 
L 307.436386 122.003208 
L 309.336231 121.578704 
L 311.236077 121.680039 
L 313.135923 121.023844 
L 316.935614 120.813078 
L 318.835459 120.220685 
L 320.735305 120.19459 
L 322.635151 120.316437 
L 324.534996 120.95134 
L 326.434842 121.136023 
L 328.334687 121.853472 
L 330.234533 121.860182 
L 332.134378 121.655268 
L 334.034224 120.98146 
L 339.733761 121.007366 
L 341.633606 121.702504 
L 343.533452 121.807945 
L 345.433298 121.581806 
L 347.333143 122.128769 
L 349.232989 121.910991 
L 351.132834 122.814443 
L 353.03268 123.336501 
L 356.832371 123.947074 
L 358.732217 123.994501 
L 360.632062 123.564277 
L 362.531908 122.717127 
L 364.431754 122.251266 
L 366.331599 121.175042 
L 368.231445 121.184001 
L 372.031136 122.118077 
L 373.930981 121.617163 
L 375.830827 121.478048 
L 379.630518 120.498995 
L 385.330055 120.911747 
L 387.229901 120.548989 
L 391.029592 119.227517 
L 394.829283 118.894727 
L 396.729129 118.999473 
L 398.628974 118.793361 
L 400.52882 119.710823 
L 402.428665 120.0498 
L 404.328511 120.939021 
L 406.228356 121.298054 
L 410.028048 120.808092 
L 411.927893 121.348984 
L 413.827739 121.330676 
L 415.727584 120.726507 
L 417.62743 120.422274 
L 419.527276 119.983985 
L 421.427121 119.399719 
L 423.326967 118.58891 
L 425.226812 119.183498 
L 427.126658 118.881558 
L 429.026504 118.458781 
L 430.926349 117.872358 
L 432.826195 117.42816 
L 436.625886 116.867398 
L 438.525732 115.927896 
L 440.425577 115.609093 
L 442.325423 114.764342 
L 444.225268 112.789139 
L 446.125114 112.11259 
L 448.024959 111.867277 
L 451.824651 110.045256 
L 453.724496 111.535392 
L 455.624342 112.254409 
L 457.524187 112.258422 
L 459.424033 113.167581 
L 461.323879 113.331233 
L 463.223724 113.10353 
L 465.12357 113.691201 
L 468.923261 116.34784 
L 470.823107 117.333684 
L 472.722952 117.555011 
L 474.622798 118.815951 
L 478.422489 120.389711 
L 480.322334 120.602563 
L 482.22218 123.507879 
L 484.122026 124.1511 
L 486.021871 124.332693 
L 487.921717 125.585969 
L 489.821562 127.02237 
L 493.621254 125.649055 
L 495.521099 126.450831 
L 497.420945 125.955052 
L 499.32079 126.794306 
L 501.220636 126.340066 
L 503.120482 125.577942 
L 505.020327 124.567614 
L 506.920173 123.091073 
L 508.820018 122.02466 
L 510.719864 121.347035 
L 512.61971 120.431615 
L 514.519555 120.368464 
L 516.419401 119.662052 
L 518.319246 120.923253 
L 520.219092 119.880805 
L 522.118937 119.966807 
L 524.018783 120.991178 
L 525.918629 120.776762 
L 527.818474 120.146872 
L 529.71832 120.706332 
L 531.618165 121.392441 
L 533.518011 120.906858 
L 535.417857 121.231658 
L 537.317702 120.372073 
L 539.217548 120.781913 
L 541.117393 122.132051 
L 543.017239 122.891356 
L 544.917085 124.141055 
L 546.81693 124.808556 
L 548.716776 125.603888 
L 550.616621 125.637054 
L 552.516467 124.78084 
L 554.416312 125.065184 
L 556.316158 123.748991 
L 558.216004 123.475116 
L 560.115849 122.897967 
L 562.015695 121.673981 
L 563.91554 119.919404 
L 565.815386 120.294819 
L 567.715232 119.812292 
L 569.615077 119.693422 
L 571.514923 119.743809 
L 573.414768 119.238321 
L 575.314614 119.412392 
L 577.21446 120.558506 
L 579.114305 120.046719 
L 582.913996 118.589835 
L 584.813842 118.788242 
L 586.713688 119.255434 
L 588.613533 120.288485 
L 590.513379 121.766702 
L 592.413224 122.038338 
L 594.31307 123.071573 
L 596.212915 123.257028 
L 598.112761 124.533842 
L 600.012607 125.398729 
L 601.912452 128.911586 
L 605.712143 128.615344 
L 607.611989 128.780345 
L 609.511835 129.504934 
L 611.41168 130.520639 
L 613.311526 131.704418 
L 615.211371 130.677847 
L 617.111217 130.432809 
L 619.011063 131.551887 
L 620.910908 132.417337 
L 622.810754 132.46667 
L 624.710599 132.344247 
L 626.610445 131.48006 
L 628.51029 131.014375 
L 630.410136 130.897271 
L 632.309982 130.223635 
L 634.209827 130.542022 
L 636.109673 129.940208 
L 638.009518 129.657835 
L 639.909364 127.984857 
L 641.80921 128.287818 
L 643.709055 128.777453 
L 645.608901 128.440846 
L 647.508746 127.355662 
L 649.408592 126.612818 
L 651.308438 125.724416 
L 653.208283 125.881847 
L 655.108129 126.243345 
L 657.007974 125.344343 
L 658.90782 124.851211 
L 660.807666 124.833307 
L 662.707511 124.351955 
L 664.607357 125.114709 
L 666.507202 125.047802 
L 670.306893 124.651645 
L 672.206739 123.92762 
L 674.106585 123.535344 
L 676.00643 123.330516 
L 677.906276 122.800277 
L 679.806121 122.138446 
L 681.705967 122.079224 
L 685.505658 122.408897 
L 687.405504 122.401642 
L 689.305349 122.589875 
L 691.205195 122.623749 
L 693.105041 122.338176 
L 695.004886 122.641324 
L 696.904732 122.687656 
L 698.804577 122.466538 
L 700.704423 123.356103 
L 702.604268 122.286691 
L 704.504114 122.02692 
L 706.40396 122.163726 
L 708.303805 122.808105 
L 710.203651 123.609087 
L 714.003342 124.035309 
L 715.903188 124.691755 
L 717.803033 125.002056 
L 719.702879 125.145135 
L 721.602724 124.992295 
L 723.50257 125.773921 
L 725.402416 126.126158 
L 727.302261 125.738579 
L 729.202107 125.796609 
L 731.101952 126.393251 
L 734.901644 126.461318 
L 736.801489 126.567769 
L 738.701335 125.592135 
L 740.60118 126.035178 
L 742.501026 126.085483 
L 744.400871 126.667736 
L 746.300717 126.176823 
L 748.200563 126.037767 
L 752.000254 126.145584 
L 753.900099 125.509715 
L 757.699791 125.089988 
L 759.599636 125.526266 
L 761.499482 124.838373 
L 763.399327 124.877034 
L 765.299173 125.336754 
L 767.199019 125.309859 
L 769.098864 124.565533 
L 770.99871 125.110117 
L 774.798401 124.088826 
L 776.698246 124.294252 
L 778.598092 124.267976 
L 780.497938 124.492883 
L 782.397783 123.146046 
L 784.297629 123.366036 
L 786.197474 122.854383 
L 788.09732 122.859239 
L 789.997166 122.677966 
L 791.897011 123.400761 
L 793.796857 123.222244 
L 795.696702 123.231479 
L 797.596548 122.590285 
L 799.496394 122.775823 
L 801.396239 121.96907 
L 803.296085 121.54066 
L 805.19593 120.861768 
L 807.095776 121.253888 
L 808.995622 120.286337 
L 810.895467 120.745062 
L 812.795313 121.923805 
L 814.695158 121.08811 
L 816.595004 120.915065 
L 818.494849 120.890695 
L 820.394695 121.747981 
L 822.294541 121.259407 
L 827.994077 121.772622 
L 829.893923 121.216333 
L 831.793769 121.835853 
L 833.693614 121.408919 
L 835.59346 121.887785 
L 837.493305 122.24022 
L 839.393151 122.951522 
L 841.292997 123.01102 
L 843.192842 124.073174 
L 845.092688 123.645257 
L 846.992533 123.730785 
L 848.892379 123.163415 
L 850.792224 121.477623 
L 852.69207 122.3632 
L 854.591916 122.119211 
L 856.491761 121.620725 
L 858.391607 121.622645 
L 860.291452 122.194517 
L 862.191298 122.221357 
L 864.091144 121.894371 
L 865.990989 121.221371 
L 867.890835 121.40177 
L 869.79068 121.104299 
L 871.690526 121.640981 
L 873.590372 117.219437 
L 875.490217 112.10484 
L 877.390063 107.576522 
L 879.289908 103.358696 
L 881.189754 98.016706 
L 883.089599 98.416514 
L 884.989445 98.576265 
L 888.789136 101.568009 
L 890.688982 101.883274 
L 892.588827 103.002025 
L 894.488673 103.987794 
L 896.388519 103.488086 
L 902.088055 104.181863 
L 903.987901 105.190966 
L 907.787592 104.983936 
L 909.687438 104.632169 
L 911.587283 113.049222 
L 913.487129 122.541285 
L 919.186666 149.361095 
L 921.086511 148.846388 
L 922.986357 148.74342 
L 924.886202 146.750343 
L 926.786048 146.15977 
L 928.685894 146.055345 
L 930.585739 145.138389 
L 932.485585 144.432286 
L 934.38543 144.887753 
L 936.285276 144.010898 
L 938.185122 143.500477 
L 940.084967 143.246101 
L 941.984813 142.862324 
L 945.784504 143.372688 
L 947.68435 143.914283 
L 949.584195 139.893756 
L 951.484041 134.947244 
L 953.383886 130.71176 
L 957.183577 121.8055 
L 959.083423 122.540314 
L 960.983269 123.089781 
L 962.883114 124.318727 
L 964.78296 124.609032 
L 966.682805 124.299981 
L 968.582651 124.169821 
L 970.482497 123.801567 
L 974.282188 125.234825 
L 976.182033 125.649786 
L 978.081879 125.770513 
L 979.981725 126.359493 
L 981.88157 126.528158 
L 983.781416 126.346272 
L 985.681261 125.959787 
L 987.581107 125.707041 
L 989.480953 125.643153 
L 991.380798 125.195783 
L 993.280644 125.383129 
L 995.180489 125.853181 
L 997.080335 125.807979 
L 998.98018 125.294015 
L 998.98018 125.294015 
" clip-path="url(#pfdccea6b89)" style="fill: none; stroke: #5dc694; stroke-width: 1.5; stroke-linecap: square"/>
   </g>
   <g id="patch_3">
    <path d="M 78.41 228.04 
L 78.41 17.28 
" style="fill: none; stroke: #000000; stroke-width: 0.8; stroke-linejoin: miter; stroke-linecap: square"/>
   </g>
   <g id="patch_4">
    <path d="M 1062.72 228.04 
L 1062.72 17.28 
" style="fill: none; stroke: #000000; stroke-width: 0.8; stroke-linejoin: miter; stroke-linecap: square"/>
   </g>
   <g id="patch_5">
    <path d="M 78.41 228.04 
L 1062.72 228.04 
" style="fill: none; stroke: #000000; stroke-width: 0.8; stroke-linejoin: miter; stroke-linecap: square"/>
   </g>
   <g id="patch_6">
    <path d="M 78.41 17.28 
L 1062.72 17.28 
" style="fill: none; stroke: #000000; stroke-width: 0.8; stroke-linejoin: miter; stroke-linecap: square"/>
   </g>
   <g id="legend_1">
    <g id="patch_7">
     <path d="M 854.2975 76.605 
L 1051.52 76.605 
Q 1054.72 76.605 1054.72 73.405 
L 1054.72 28.48 
Q 1054.72 25.28 1051.52 25.28 
L 854.2975 25.28 
Q 851.0975 25.28 851.0975 28.48 
L 851.0975 73.405 
Q 851.0975 76.605 854.2975 76.605 
z
" style="fill: #ffffff; opacity: 0.8; stroke: #cccccc; stroke-linejoin: miter"/>
    </g>
    <g id="line2d_13">
     <path d="M 857.4975 37.44 
L 873.4975 37.44 
L 889.4975 37.44 
" style="fill: none; stroke: #d2dbe0; stroke-width: 1.5; stroke-linecap: square"/>
    </g>
    <g id="text_13">
     <!-- 1st. Difference -->
     <g transform="translate(902.2975 43.04) scale(0.16 -0.16)">
      <use xlink:href="#Bahnschrift-31"/>
      <use xlink:href="#Bahnschrift-73" x="33.251953"/>
      <use xlink:href="#Bahnschrift-74" x="85.107422"/>
      <use xlink:href="#Bahnschrift-2e" x="117.724609"/>
      <use xlink:href="#Bahnschrift-20" x="140.380859"/>
      <use xlink:href="#Bahnschrift-44" x="167.236328"/>
      <use xlink:href="#Bahnschrift-69" x="232.861328"/>
      <use xlink:href="#Bahnschrift-66" x="257.958984"/>
      <use xlink:href="#Bahnschrift-66" x="289.648438"/>
      <use xlink:href="#Bahnschrift-65" x="321.337891"/>
      <use xlink:href="#Bahnschrift-72" x="374.951172"/>
      <use xlink:href="#Bahnschrift-65" x="417.626953"/>
      <use xlink:href="#Bahnschrift-6e" x="471.240234"/>
      <use xlink:href="#Bahnschrift-63" x="527.099609"/>
      <use xlink:href="#Bahnschrift-65" x="576.904297"/>
     </g>
    </g>
    <g id="line2d_14">
     <path d="M 857.4975 61.3075 
L 873.4975 61.3075 
L 889.4975 61.3075 
" style="fill: none; stroke: #5dc694; stroke-width: 1.5; stroke-linecap: square"/>
    </g>
    <g id="text_14">
     <!-- Rolling Average (20) -->
     <g transform="translate(902.2975 66.9075) scale(0.16 -0.16)">
      <defs>
       <path id="Bahnschrift-6c" d="M 1138 4544 
L 1138 838 
Q 1138 722 1189 656 
Q 1241 591 1334 591 
L 1634 591 
L 1634 -16 
L 1259 -16 
Q 900 -16 700 209 
Q 500 434 500 844 
L 500 4544 
L 1138 4544 
z
" transform="scale(0.015625)"/>
       <path id="Bahnschrift-67" d="M 1588 -1319 
Q 1222 -1319 933 -1183 
Q 644 -1047 484 -800 
L 484 -800 
L 916 -409 
L 916 -409 
Q 1041 -581 1214 -675 
Q 1388 -769 1578 -769 
Q 1944 -769 2144 -567 
Q 2344 -366 2344 3 
L 2344 3244 
L 2981 3244 
L 2981 97 
Q 2981 -578 2617 -948 
Q 2253 -1319 1588 -1319 
z
M 1528 -56 
Q 991 -56 698 289 
Q 406 634 406 1263 
L 406 1978 
Q 406 2609 692 2954 
Q 978 3300 1497 3300 
Q 1784 3300 2023 3150 
Q 2263 3000 2409 2728 
L 2344 2066 
Q 2344 2272 2269 2419 
Q 2194 2566 2051 2642 
Q 1909 2719 1706 2719 
Q 1391 2719 1217 2522 
Q 1044 2325 1044 1969 
L 1044 1263 
Q 1044 909 1217 717 
Q 1391 525 1706 525 
Q 1909 525 2051 604 
Q 2194 684 2269 834 
Q 2344 984 2344 1194 
L 2388 509 
Q 2300 291 2086 117 
Q 1872 -56 1528 -56 
z
" transform="scale(0.015625)"/>
       <path id="Bahnschrift-41" d="M 125 0 
L 1800 4544 
L 2344 4544 
L 4019 0 
L 3331 0 
L 2072 3666 
L 813 0 
L 125 0 
z
M 897 997 
L 897 1603 
L 3288 1603 
L 3288 997 
L 897 997 
z
" transform="scale(0.015625)"/>
       <path id="Bahnschrift-76" d="M 1616 928 
L 2409 3244 
L 3075 3244 
L 1856 0 
L 1375 0 
L 156 3244 
L 822 3244 
L 1616 928 
z
" transform="scale(0.015625)"/>
       <path id="Bahnschrift-28" d="M 1672 -978 
Q 1116 -375 839 373 
Q 563 1122 563 2025 
Q 563 2928 839 3676 
Q 1116 4425 1672 5028 
L 2109 4631 
Q 1638 4106 1403 3456 
Q 1169 2806 1169 2025 
Q 1169 1244 1403 594 
Q 1638 -56 2109 -584 
L 1672 -978 
z
" transform="scale(0.015625)"/>
       <path id="Bahnschrift-29" d="M 500 -978 
L 63 -584 
Q 534 -56 768 594 
Q 1003 1244 1003 2025 
Q 1003 2806 768 3456 
Q 534 4106 63 4631 
L 500 5028 
Q 1056 4425 1332 3676 
Q 1609 2928 1609 2025 
Q 1609 1122 1332 373 
Q 1056 -375 500 -978 
z
" transform="scale(0.015625)"/>
      </defs>
      <use xlink:href="#Bahnschrift-52"/>
      <use xlink:href="#Bahnschrift-6f" x="65.185547"/>
      <use xlink:href="#Bahnschrift-6c" x="119.677734"/>
      <use xlink:href="#Bahnschrift-6c" x="148.632812"/>
      <use xlink:href="#Bahnschrift-69" x="177.587891"/>
      <use xlink:href="#Bahnschrift-6e" x="202.685547"/>
      <use xlink:href="#Bahnschrift-67" x="258.544922"/>
      <use xlink:href="#Bahnschrift-20" x="312.451172"/>
      <use xlink:href="#Bahnschrift-41" x="339.306641"/>
      <use xlink:href="#Bahnschrift-76" x="404.052734"/>
      <use xlink:href="#Bahnschrift-65" x="454.052734"/>
      <use xlink:href="#Bahnschrift-72" x="507.666016"/>
      <use xlink:href="#Bahnschrift-61" x="550.341797"/>
      <use xlink:href="#Bahnschrift-67" x="603.564453"/>
      <use xlink:href="#Bahnschrift-65" x="657.470703"/>
      <use xlink:href="#Bahnschrift-20" x="711.083984"/>
      <use xlink:href="#Bahnschrift-28" x="737.939453"/>
      <use xlink:href="#Bahnschrift-32" x="771.875"/>
      <use xlink:href="#Bahnschrift-30" x="823.535156"/>
      <use xlink:href="#Bahnschrift-29" x="878.710938"/>
     </g>
    </g>
   </g>
  </g>
 </g>
 <defs>
  <clipPath id="pfdccea6b89">
   <rect x="78.41" y="17.28" width="984.31" height="210.76"/>
  </clipPath>
 </defs>
</svg>
