<?xml version="1.0" encoding="utf-8" standalone="no"?>
<!DOCTYPE svg PUBLIC "-//W3C//DTD SVG 1.1//EN"
  "http://www.w3.org/Graphics/SVG/1.1/DTD/svg11.dtd">
<svg xmlns:xlink="http://www.w3.org/1999/xlink" width="1080pt" height="288pt" viewBox="0 0 1080 288" xmlns="http://www.w3.org/2000/svg" version="1.1">
 <metadata>
  <rdf:RDF xmlns:dc="http://purl.org/dc/elements/1.1/" xmlns:cc="http://creativecommons.org/ns#" xmlns:rdf="http://www.w3.org/1999/02/22-rdf-syntax-ns#">
   <cc:Work>
    <dc:type rdf:resource="http://purl.org/dc/dcmitype/StillImage"/>
    <dc:date>2024-05-29T19:40:36.807615</dc:date>
    <dc:format>image/svg+xml</dc:format>
    <dc:creator>
     <cc:Agent>
      <dc:title>Matplotlib v3.8.2, https://matplotlib.org/</dc:title>
     </cc:Agent>
    </dc:creator>
   </cc:Work>
  </rdf:RDF>
 </metadata>
 <defs>
  <style type="text/css">*{stroke-linejoin: round; stroke-linecap: butt}</style>
 </defs>
 <g id="figure_1">
  <g id="patch_1">
   <path d="M 0 288 
L 1080 288 
L 1080 0 
L 0 0 
z
" style="fill: #ffffff"/>
  </g>
  <g id="axes_1">
   <g id="patch_2">
    <path d="M 65.5175 228.04 
L 1062.72 228.04 
L 1062.72 17.28 
L 65.5175 17.28 
z
" style="fill: #ffffff"/>
   </g>
   <g id="PolyCollection_1">
    <defs>
     <path id="m352e33349a" d="M 110.844886 -137.485362 
L 110.844886 -101.732442 
L 112.691216 -92.721959 
L 114.537545 -90.620236 
L 116.383875 -89.354894 
L 118.230204 -89.135693 
L 120.076533 -87.83262 
L 121.922863 -87.093576 
L 123.769192 -78.989486 
L 125.615521 -84.064762 
L 127.461851 -86.70177 
L 129.30818 -82.494609 
L 131.15451 -80.06 
L 133.000839 -84.434003 
L 134.847168 -81.052906 
L 136.693498 -80.123995 
L 138.539827 -79.658372 
L 140.386156 -76.970203 
L 142.232486 -79.993725 
L 144.078815 -79.38248 
L 145.925145 -78.916828 
L 147.771474 -77.555028 
L 149.617803 -78.076609 
L 151.464133 -75.340688 
L 153.310462 -70.43423 
L 155.156792 -75.627399 
L 157.003121 -79.693164 
L 158.84945 -77.268679 
L 160.69578 -74.957915 
L 162.542109 -76.351977 
L 164.388438 -76.676873 
L 166.234768 -69.54 
L 168.081097 -75.000356 
L 169.927427 -74.140028 
L 171.773756 -73.794663 
L 173.620085 -76.214671 
L 175.466415 -76.11644 
L 177.312744 -76.679933 
L 179.159074 -72.460563 
L 181.005403 -75.540848 
L 182.851732 -74.725576 
L 184.698062 -71.225695 
L 186.544391 -70.727615 
L 188.39072 -76.863017 
L 190.23705 -75.668476 
L 192.083379 -73.324144 
L 193.929709 -76.115661 
L 195.776038 -76.896196 
L 197.622367 -71.454252 
L 199.468697 -73.543161 
L 201.315026 -73.841581 
L 203.161356 -74.209057 
L 205.007685 -71.252089 
L 206.854014 -75.071526 
L 208.700344 -74.56374 
L 210.546673 -73.259176 
L 212.393002 -76.877201 
L 214.239332 -74.244406 
L 216.085661 -76.826055 
L 217.931991 -77.969589 
L 219.77832 -71.930055 
L 221.624649 -75.431993 
L 223.470979 -70.877604 
L 225.317308 -73.529228 
L 227.163638 -72.263378 
L 229.009967 -73.482866 
L 230.856296 -74.477746 
L 232.702626 -74.254919 
L 234.548955 -76.296353 
L 236.395284 -77.669195 
L 238.241614 -74.112245 
L 240.087943 -75.135104 
L 241.934273 -76.860013 
L 243.780602 -74.346614 
L 245.626931 -74.713228 
L 247.473261 -72.975997 
L 249.31959 -73.553201 
L 251.16592 -72.234871 
L 253.012249 -71.313998 
L 254.858578 -69.670214 
L 256.704908 -70.924745 
L 258.551237 -77.027495 
L 260.397566 -74.324948 
L 262.243896 -73.57712 
L 264.090225 -73.884355 
L 265.936555 -74.582568 
L 267.782884 -74.468513 
L 269.629213 -70.838223 
L 271.475543 -72.154662 
L 273.321872 -72.598147 
L 275.168201 -70.683868 
L 277.014531 -74.026724 
L 278.86086 -73.041021 
L 280.70719 -75.979244 
L 282.553519 -75.193647 
L 284.399848 -75.109656 
L 286.246178 -73.923403 
L 288.092507 -71.793694 
L 289.938837 -72.516826 
L 291.785166 -76.129205 
L 293.631495 -74.941339 
L 295.477825 -78.61076 
L 297.324154 -74.665253 
L 299.170483 -76.299747 
L 301.016813 -76.649534 
L 302.863142 -75.717787 
L 304.709472 -74.495323 
L 306.555801 -79.110926 
L 308.40213 -78.338233 
L 310.24846 -76.101115 
L 312.094789 -77.385599 
L 313.941119 -77.703793 
L 315.787448 -75.922509 
L 317.633777 -74.907604 
L 319.480107 -75.778027 
L 321.326436 -73.325869 
L 323.172765 -72.647764 
L 325.019095 -78.146555 
L 326.865424 -78.940412 
L 328.711754 -78.693889 
L 330.558083 -76.331229 
L 332.404412 -77.443225 
L 334.250742 -76.709635 
L 336.097071 -73.275807 
L 337.943401 -75.284007 
L 339.78973 -73.511095 
L 341.636059 -78.443 
L 343.482389 -79.657982 
L 345.328718 -76.302277 
L 347.175047 -80.129697 
L 349.021377 -76.82472 
L 350.867706 -79.792174 
L 352.714036 -75.776664 
L 354.560365 -76.241676 
L 356.406694 -78.39992 
L 358.253024 -78.403535 
L 360.099353 -77.41736 
L 361.945683 -80.985963 
L 363.792012 -77.122611 
L 365.638341 -77.945727 
L 367.484671 -77.83676 
L 369.331 -76.710637 
L 371.177329 -79.334977 
L 373.023659 -79.457265 
L 374.869988 -77.765145 
L 376.716318 -78.200426 
L 378.562647 -80.377527 
L 380.408976 -80.153865 
L 382.255306 -78.264727 
L 384.101635 -80.482266 
L 385.947964 -76.22649 
L 387.794294 -79.623329 
L 389.640623 -75.753525 
L 391.486953 -81.140013 
L 393.333282 -77.722872 
L 395.179611 -77.679541 
L 397.025941 -83.026675 
L 398.87227 -78.901365 
L 400.7186 -78.668025 
L 402.564929 -82.111281 
L 404.411258 -80.086755 
L 406.257588 -78.576719 
L 408.103917 -79.460102 
L 409.950246 -80.80274 
L 411.796576 -78.522263 
L 413.642905 -73.907606 
L 415.489235 -78.582392 
L 417.335564 -80.45971 
L 419.181893 -78.738917 
L 421.028223 -78.430652 
L 422.874552 -78.973759 
L 424.720882 -79.55825 
L 426.567211 -79.745394 
L 428.41354 -77.000323 
L 430.25987 -82.070398 
L 432.106199 -75.582149 
L 433.952528 -84.986622 
L 435.798858 -82.336222 
L 437.645187 -81.932146 
L 439.491517 -77.988446 
L 441.337846 -80.444386 
L 443.184175 -76.33554 
L 445.030505 -81.039167 
L 446.876834 -81.401665 
L 448.723164 -79.544232 
L 450.569493 -85.147624 
L 452.415822 -79.893297 
L 454.262152 -80.035804 
L 456.108481 -76.516594 
L 457.95481 -83.458118 
L 459.80114 -74.614691 
L 461.647469 -86.326979 
L 463.493799 -85.314272 
L 465.340128 -84.346229 
L 467.186457 -88.529027 
L 469.032787 -86.958611 
L 470.879116 -89.015676 
L 472.725446 -84.686534 
L 474.571775 -82.312248 
L 476.418104 -85.64562 
L 478.264434 -92.575435 
L 480.110763 -83.141232 
L 481.957092 -84.382412 
L 483.803422 -89.781054 
L 485.649751 -89.198343 
L 487.496081 -86.918534 
L 489.34241 -83.068059 
L 491.188739 -84.810935 
L 493.035069 -83.687175 
L 494.881398 -82.339198 
L 496.727728 -84.928857 
L 498.574057 -85.95878 
L 500.420386 -81.791363 
L 502.266716 -79.993976 
L 504.113045 -79.034944 
L 505.959374 -86.258117 
L 507.805704 -85.088607 
L 509.652033 -86.3262 
L 511.498363 -83.159393 
L 513.344692 -84.853098 
L 515.191021 -86.211227 
L 517.037351 -87.640109 
L 518.88368 -86.570109 
L 520.730009 -90.451845 
L 522.576339 -88.847916 
L 524.422668 -86.604095 
L 526.268998 -87.844525 
L 528.115327 -84.358244 
L 529.961656 -82.063973 
L 531.807986 -86.821722 
L 533.654315 -87.783117 
L 535.500645 -86.763957 
L 537.346974 -86.44262 
L 539.193303 -88.098613 
L 541.039633 -88.290263 
L 542.885962 -89.537702 
L 544.732291 -84.207393 
L 546.578621 -83.674771 
L 548.42495 -85.221825 
L 550.27128 -87.265457 
L 552.117609 -82.282378 
L 553.963938 -88.117413 
L 555.810268 -86.219237 
L 557.656597 -86.282425 
L 559.502927 -89.375114 
L 561.349256 -87.268934 
L 563.195585 -90.595548 
L 565.041915 -86.831984 
L 566.888244 -82.173607 
L 568.734573 -86.543716 
L 570.580903 -93.132921 
L 572.427232 -90.211329 
L 574.273562 -82.88097 
L 576.119891 -87.266403 
L 577.96622 -83.469744 
L 579.81255 -82.75159 
L 581.658879 -85.259455 
L 583.505209 -90.941692 
L 585.351538 -85.725996 
L 587.197867 -90.819237 
L 589.044197 -86.760425 
L 590.890526 -88.494262 
L 592.736855 -88.404681 
L 594.583185 -88.817295 
L 596.429514 -88.893861 
L 598.275844 -88.596109 
L 600.122173 -84.093393 
L 601.968502 -85.283679 
L 603.814832 -93.156783 
L 605.661161 -93.718246 
L 607.507491 -86.164976 
L 609.35382 -89.59847 
L 611.200149 -88.446565 
L 613.046479 -85.957834 
L 614.892808 -90.557084 
L 616.739137 -85.971963 
L 618.585467 -86.088689 
L 620.431796 -90.09897 
L 622.278126 -87.620085 
L 624.124455 -85.490514 
L 625.970784 -87.73656 
L 627.817114 -88.988615 
L 629.663443 -83.740296 
L 631.509772 -88.296521 
L 633.356102 -91.675643 
L 635.202431 -91.033638 
L 637.048761 -86.695568 
L 638.89509 -85.380102 
L 640.741419 -88.373531 
L 642.587749 -85.512013 
L 644.434078 -90.01089 
L 646.280408 -84.043499 
L 648.126737 -88.025885 
L 649.973066 -89.007666 
L 651.819396 -84.468295 
L 653.665725 -87.182495 
L 655.512054 -88.901537 
L 657.358384 -87.181939 
L 659.204713 -88.989728 
L 661.051043 -89.226266 
L 662.897372 -87.200016 
L 664.743701 -90.56476 
L 666.590031 -88.997849 
L 668.43636 -86.888748 
L 670.28269 -84.344338 
L 672.129019 -91.322156 
L 673.975348 -91.577384 
L 675.821678 -88.496042 
L 677.668007 -84.811742 
L 679.514336 -89.591601 
L 681.360666 -87.96634 
L 683.206995 -93.680144 
L 685.053325 -92.197391 
L 686.899654 -91.28653 
L 688.745983 -89.251158 
L 690.592313 -88.756026 
L 692.438642 -85.25901 
L 694.284972 -89.396196 
L 696.131301 -91.891963 
L 697.97763 -94.830408 
L 699.82396 -91.424086 
L 701.670289 -91.848938 
L 703.516618 -86.040769 
L 705.362948 -89.368829 
L 707.209277 -85.271553 
L 709.055607 -92.224674 
L 710.901936 -87.238146 
L 712.748265 -95.235403 
L 714.594595 -93.813279 
L 716.440924 -93.796536 
L 718.287254 -89.595272 
L 720.133583 -90.619521 
L 721.979912 -92.574212 
L 723.826242 -87.139721 
L 725.672571 -88.77733 
L 727.5189 -86.755752 
L 729.36523 -86.863995 
L 731.211559 -90.217309 
L 733.057889 -88.954657 
L 734.904218 -89.251352 
L 736.750547 -89.073024 
L 738.596877 -92.803603 
L 740.443206 -86.893337 
L 742.289536 -89.11997 
L 744.135865 -87.01098 
L 745.982194 -85.468042 
L 747.828524 -86.205692 
L 749.674853 -87.331594 
L 751.521182 -91.84752 
L 753.367512 -89.283364 
L 755.213841 -87.794186 
L 757.060171 -84.394316 
L 758.9065 -92.650861 
L 760.752829 -90.155261 
L 762.599159 -91.031023 
L 764.445488 -90.81704 
L 766.291817 -88.118721 
L 768.138147 -92.71569 
L 769.984476 -93.597349 
L 771.830806 -92.719722 
L 773.677135 -85.727776 
L 775.523464 -94.545422 
L 777.369794 -92.692856 
L 779.216123 -95.231759 
L 781.062453 -91.923974 
L 782.908782 -90.316124 
L 784.755111 -90.52054 
L 786.601441 -89.453822 
L 788.44777 -90.852667 
L 790.294099 -91.263112 
L 792.140429 -88.346471 
L 793.986758 -94.19886 
L 795.833088 -86.656464 
L 797.679417 -89.426705 
L 799.525746 -93.73955 
L 801.372076 -89.803832 
L 803.218405 -90.737805 
L 805.064735 -95.929221 
L 806.911064 -94.244833 
L 808.757393 -86.087354 
L 810.603723 -92.605778 
L 812.450052 -94.670853 
L 814.296381 -96.282541 
L 816.142711 -90.325635 
L 817.98904 -90.298157 
L 819.83537 -92.112037 
L 821.681699 -97.272165 
L 823.528028 -91.558139 
L 825.374358 -96.164564 
L 827.220687 -88.068687 
L 829.067017 -100.02825 
L 830.913346 -90.413214 
L 832.759675 -93.048735 
L 834.606005 -91.58748 
L 836.452334 -89.9415 
L 838.298663 -94.084471 
L 840.144993 -90.155316 
L 841.991322 -90.832031 
L 843.837652 -94.064669 
L 845.683981 -92.71366 
L 847.53031 -87.193814 
L 849.37664 -90.291677 
L 851.222969 -92.257659 
L 853.069299 -88.999211 
L 854.915628 -90.971006 
L 856.761957 -94.149216 
L 858.608287 -93.872073 
L 860.454616 -96.862443 
L 862.300945 -91.202872 
L 864.147275 -95.356356 
L 865.993604 -92.466247 
L 867.839934 -95.371124 
L 869.686263 -98.86458 
L 871.532592 -95.468854 
L 873.378922 -95.39582 
L 875.225251 -101.705129 
L 877.07158 -93.221084 
L 878.91791 -91.672695 
L 880.764239 -96.869201 
L 882.610569 -99.217872 
L 884.456898 -93.012413 
L 886.303227 -96.114252 
L 888.149557 -100.332065 
L 889.995886 -101.975347 
L 891.842216 -91.202316 
L 893.688545 -95.263131 
L 895.534874 -105.764859 
L 897.381204 -107.326264 
L 899.227533 -113.215309 
L 901.073862 -103.863512 
L 902.920192 -106.676694 
L 904.766521 -99.571136 
L 906.612851 -98.146982 
L 908.45918 -88.405153 
L 910.305509 -95.403858 
L 912.151839 -94.06414 
L 913.998168 -92.080498 
L 915.844498 -90.268148 
L 917.690827 -99.526499 
L 919.537156 -94.061943 
L 921.383486 -93.994083 
L 923.229815 -89.949788 
L 925.076144 -94.881832 
L 926.922474 -93.011718 
L 928.768803 -89.453877 
L 930.615133 -98.756726 
L 932.461462 -96.396319 
L 934.307791 -94.88161 
L 936.154121 -98.128376 
L 938.00045 -98.829148 
L 939.84678 -97.933917 
L 941.693109 -103.746341 
L 943.539438 -102.183573 
L 945.385768 -98.606932 
L 947.232097 -92.304494 
L 949.078426 -97.808458 
L 950.924756 -99.688196 
L 952.771085 -90.115406 
L 954.617415 -95.520973 
L 956.463744 -102.12553 
L 958.310073 -94.13684 
L 960.156403 -97.794107 
L 962.002732 -97.40886 
L 963.849062 -96.512711 
L 965.695391 -98.076062 
L 967.54172 -97.56797 
L 969.38805 -97.70002 
L 971.234379 -98.521995 
L 973.080708 -96.31077 
L 974.927038 -99.37181 
L 976.773367 -97.979361 
L 978.619697 -101.295184 
L 980.466026 -96.393955 
L 982.312355 -96.609913 
L 984.158685 -92.74022 
L 986.005014 -96.598399 
L 987.851344 -97.773888 
L 989.697673 -96.282708 
L 991.544002 -92.39338 
L 993.390332 -96.397042 
L 995.236661 -101.087737 
L 997.08299 -99.166949 
L 998.92932 -95.141621 
L 1000.775649 -95.947502 
L 1002.621979 -99.213375 
L 1004.468308 -98.092405 
L 1006.314637 -105.863282 
L 1008.160967 -95.81621 
L 1010.007296 -92.345754 
L 1011.853625 -97.762213 
L 1013.699955 -95.647871 
L 1015.546284 -94.327373 
L 1017.392614 -98.11623 
L 1017.392614 -179.026429 
L 1017.392614 -179.026429 
L 1015.546284 -167.364785 
L 1013.699955 -160.756919 
L 1011.853625 -168.644291 
L 1010.007296 -177.869239 
L 1008.160967 -169.090863 
L 1006.314637 -166.885312 
L 1004.468308 -171.704886 
L 1002.621979 -170.119312 
L 1000.775649 -168.753368 
L 998.92932 -163.013036 
L 997.08299 -182.703145 
L 995.236661 -158.853994 
L 993.390332 -170.981659 
L 991.544002 -164.967386 
L 989.697673 -165.238309 
L 987.851344 -176.469957 
L 986.005014 -174.494841 
L 984.158685 -159.053528 
L 982.312355 -176.031024 
L 980.466026 -165.356442 
L 978.619697 -158.909682 
L 976.773367 -162.603182 
L 974.927038 -167.373596 
L 973.080708 -180.320028 
L 971.234379 -169.274245 
L 969.38805 -162.814526 
L 967.54172 -170.422282 
L 965.695391 -167.249303 
L 963.849062 -167.384007 
L 962.002732 -168.007867 
L 960.156403 -179.072667 
L 958.310073 -161.515968 
L 956.463744 -168.77103 
L 954.617415 -184.862248 
L 952.771085 -161.60156 
L 950.924756 -172.244822 
L 949.078426 -178.683254 
L 947.232097 -158.051721 
L 945.385768 -170.528355 
L 943.539438 -173.795718 
L 941.693109 -162.609445 
L 939.84678 -172.143514 
L 938.00045 -165.930672 
L 936.154121 -169.454386 
L 934.307791 -174.687385 
L 932.461462 -164.70668 
L 930.615133 -171.146858 
L 928.768803 -170.116816 
L 926.922474 -170.690028 
L 925.076144 -171.188883 
L 923.229815 -167.131035 
L 921.383486 -157.652116 
L 919.537156 -161.953359 
L 917.690827 -166.043163 
L 915.844498 -154.684716 
L 913.998168 -157.188403 
L 912.151839 -164.106915 
L 910.305509 -157.458598 
L 908.45918 -162.77786 
L 906.612851 -174.725311 
L 904.766521 -163.745911 
L 902.920192 -237.849925 
L 901.073862 -254.272112 
L 899.227533 -241.509302 
L 897.381204 -261.14 
L 895.534874 -245.403523 
L 893.688545 -166.299134 
L 891.842216 -162.750452 
L 889.995886 -161.204476 
L 888.149557 -170.027495 
L 886.303227 -165.499514 
L 884.456898 -164.384993 
L 882.610569 -160.297562 
L 880.764239 -161.953804 
L 878.91791 -159.038688 
L 877.07158 -167.830428 
L 875.225251 -172.948857 
L 873.378922 -163.617642 
L 871.532592 -176.572158 
L 869.686263 -164.75841 
L 867.839934 -161.730661 
L 865.993604 -162.95339 
L 864.147275 -168.695431 
L 862.300945 -181.964513 
L 860.454616 -150.647049 
L 858.608287 -168.142285 
L 856.761957 -162.075569 
L 854.915628 -170.367777 
L 853.069299 -164.598796 
L 851.222969 -170.281794 
L 849.37664 -161.039326 
L 847.53031 -160.173065 
L 845.683981 -163.421341 
L 843.837652 -161.204326 
L 841.991322 -155.198111 
L 840.144993 -169.181268 
L 838.298663 -165.682348 
L 836.452334 -159.816951 
L 834.606005 -158.846648 
L 832.759675 -154.442109 
L 830.913346 -159.815876 
L 829.067017 -167.746619 
L 827.220687 -153.846213 
L 825.374358 -167.689591 
L 823.528028 -164.774321 
L 821.681699 -160.585573 
L 819.83537 -150.541947 
L 817.98904 -162.680536 
L 816.142711 -152.817789 
L 814.296381 -162.460105 
L 812.450052 -154.721496 
L 810.603723 -163.542947 
L 808.757393 -153.965057 
L 806.911064 -174.829059 
L 805.064735 -157.602518 
L 803.218405 -161.021668 
L 801.372076 -156.920231 
L 799.525746 -161.929025 
L 797.679417 -158.706061 
L 795.833088 -158.052156 
L 793.986758 -151.398884 
L 792.140429 -154.217744 
L 790.294099 -157.785801 
L 788.44777 -158.082496 
L 786.601441 -163.367314 
L 784.755111 -153.625699 
L 782.908782 -163.562402 
L 781.062453 -158.234113 
L 779.216123 -156.913001 
L 777.369794 -159.606487 
L 775.523464 -154.662624 
L 773.677135 -158.777002 
L 771.830806 -154.864256 
L 769.984476 -144.227476 
L 768.138147 -162.032053 
L 766.291817 -150.663927 
L 764.445488 -145.028935 
L 762.599159 -153.532611 
L 760.752829 -155.772439 
L 758.9065 -162.754417 
L 757.060171 -151.323277 
L 755.213841 -152.553573 
L 753.367512 -159.340136 
L 751.521182 -155.255442 
L 749.674853 -158.387197 
L 747.828524 -161.920188 
L 745.982194 -154.623465 
L 744.135865 -157.812244 
L 742.289536 -158.009 
L 740.443206 -157.295068 
L 738.596877 -151.471691 
L 736.750547 -149.63297 
L 734.904218 -144.304 
L 733.057889 -153.538055 
L 731.211559 -154.937252 
L 729.36523 -157.380561 
L 727.5189 -153.688201 
L 725.672571 -160.827832 
L 723.826242 -150.245331 
L 721.979912 -153.789882 
L 720.133583 -147.958751 
L 718.287254 -153.305215 
L 716.440924 -155.835028 
L 714.594595 -148.67578 
L 712.748265 -162.482486 
L 710.901936 -153.771644 
L 709.055607 -147.458484 
L 707.209277 -153.981001 
L 705.362948 -155.933246 
L 703.516618 -151.743418 
L 701.670289 -159.479071 
L 699.82396 -154.624067 
L 697.97763 -150.55021 
L 696.131301 -156.89992 
L 694.284972 -155.737829 
L 692.438642 -145.806088 
L 690.592313 -151.97989 
L 688.745983 -153.054607 
L 686.899654 -155.058429 
L 685.053325 -155.684749 
L 683.206995 -149.074763 
L 681.360666 -156.275926 
L 679.514336 -149.350352 
L 677.668007 -147.937271 
L 675.821678 -157.948676 
L 673.975348 -160.65656 
L 672.129019 -152.560836 
L 670.28269 -153.324179 
L 668.43636 -146.457797 
L 666.590031 -154.007742 
L 664.743701 -143.665695 
L 662.897372 -149.10259 
L 661.051043 -145.936395 
L 659.204713 -149.508994 
L 657.358384 -148.375952 
L 655.512054 -159.127837 
L 653.665725 -161.313755 
L 651.819396 -148.556532 
L 649.973066 -152.835264 
L 648.126737 -156.382184 
L 646.280408 -159.573658 
L 644.434078 -145.782159 
L 642.587749 -152.385831 
L 640.741419 -143.734235 
L 638.89509 -140.604265 
L 637.048761 -150.422853 
L 635.202431 -159.779186 
L 633.356102 -151.758107 
L 631.509772 -157.819635 
L 629.663443 -150.488632 
L 627.817114 -143.08002 
L 625.970784 -153.869423 
L 624.124455 -159.819696 
L 622.278126 -146.271542 
L 620.431796 -155.007453 
L 618.585467 -150.105559 
L 616.739137 -154.420365 
L 614.892808 -152.138788 
L 613.046479 -164.30667 
L 611.200149 -149.302691 
L 609.35382 -152.028668 
L 607.507491 -148.003203 
L 605.661161 -153.677923 
L 603.814832 -147.614124 
L 601.968502 -159.994333 
L 600.122173 -150.926266 
L 598.275844 -147.194402 
L 596.429514 -149.498645 
L 594.583185 -252.742442 
L 592.736855 -145.131558 
L 590.890526 -154.853917 
L 589.044197 -144.732308 
L 587.197867 -149.753882 
L 585.351538 -156.253451 
L 583.505209 -157.623147 
L 581.658879 -165.791213 
L 579.81255 -158.27157 
L 577.96622 -154.045147 
L 576.119891 -149.780286 
L 574.273562 -140.606864 
L 572.427232 -147.069831 
L 570.580903 -151.372955 
L 568.734573 -153.716908 
L 566.888244 -141.589186 
L 565.041915 -142.9588 
L 563.195585 -142.728871 
L 561.349256 -144.996443 
L 559.502927 -156.731636 
L 557.656597 -155.452752 
L 555.810268 -144.059643 
L 553.963938 -142.142488 
L 552.117609 -144.836234 
L 550.27128 -142.465205 
L 548.42495 -148.44423 
L 546.578621 -148.944434 
L 544.732291 -154.746458 
L 542.885962 -154.650522 
L 541.039633 -145.803041 
L 539.193303 -151.966778 
L 537.346974 -150.659253 
L 535.500645 -155.29091 
L 533.654315 -146.506143 
L 531.807986 -139.351319 
L 529.961656 -148.663614 
L 528.115327 -149.642928 
L 526.268998 -146.128008 
L 524.422668 -164.565155 
L 522.576339 -146.633437 
L 520.730009 -138.947558 
L 518.88368 -155.345422 
L 517.037351 -142.983664 
L 515.191021 -142.004564 
L 513.344692 -147.780715 
L 511.498363 -139.215644 
L 509.652033 -143.660287 
L 507.805704 -142.274087 
L 505.959374 -138.192541 
L 504.113045 -148.606346 
L 502.266716 -137.913924 
L 500.420386 -138.134369 
L 498.574057 -141.208003 
L 496.727728 -151.544543 
L 494.881398 -146.619149 
L 493.035069 -147.818874 
L 491.188739 -146.906743 
L 489.34241 -140.819977 
L 487.496081 -139.271008 
L 485.649751 -152.719522 
L 483.803422 -145.477777 
L 481.957092 -141.84396 
L 480.110763 -147.752941 
L 478.264434 -148.837899 
L 476.418104 -146.707017 
L 474.571775 -145.729742 
L 472.725446 -137.642143 
L 470.879116 -143.074304 
L 469.032787 -139.808535 
L 467.186457 -143.858784 
L 465.340128 -150.029003 
L 463.493799 -142.691192 
L 461.647469 -140.980402 
L 459.80114 -145.468144 
L 457.95481 -145.567488 
L 456.108481 -152.471306 
L 454.262152 -148.232174 
L 452.415822 -138.247504 
L 450.569493 -162.510465 
L 448.723164 -127.557279 
L 446.876834 -139.49835 
L 445.030505 -129.572225 
L 443.184175 -129.193413 
L 441.337846 -137.899502 
L 439.491517 -139.804933 
L 437.645187 -136.734592 
L 435.798858 -136.264232 
L 433.952528 -129.881773 
L 432.106199 -128.856855 
L 430.25987 -131.304331 
L 428.41354 -134.795119 
L 426.567211 -137.799168 
L 424.720882 -138.721245 
L 422.874552 -139.458882 
L 421.028223 -125.227686 
L 419.181893 -138.069199 
L 417.335564 -125.505195 
L 415.489235 -131.813607 
L 413.642905 -135.449644 
L 411.796576 -131.884101 
L 409.950246 -135.426148 
L 408.103917 -129.497509 
L 406.257588 -131.535932 
L 404.411258 -130.799877 
L 402.564929 -134.020381 
L 400.7186 -139.918611 
L 398.87227 -136.677738 
L 397.025941 -134.433083 
L 395.179611 -131.218935 
L 393.333282 -127.200359 
L 391.486953 -128.236597 
L 389.640623 -132.152862 
L 387.794294 -129.471039 
L 385.947964 -126.785603 
L 384.101635 -128.410064 
L 382.255306 -142.580279 
L 380.408976 -136.910908 
L 378.562647 -124.152077 
L 376.716318 -128.913391 
L 374.869988 -136.189509 
L 373.023659 -128.472869 
L 371.177329 -127.751621 
L 369.331 -131.95747 
L 367.484671 -129.922269 
L 365.638341 -126.541218 
L 363.792012 -124.065906 
L 361.945683 -118.075552 
L 360.099353 -121.883992 
L 358.253024 -122.822879 
L 356.406694 -123.003254 
L 354.560365 -132.525417 
L 352.714036 -130.978421 
L 350.867706 -123.408442 
L 349.021377 -121.788436 
L 347.175047 -121.95035 
L 345.328718 -123.434974 
L 343.482389 -126.228597 
L 341.636059 -135.795194 
L 339.78973 -124.019034 
L 337.943401 -121.772514 
L 336.097071 -123.399896 
L 334.250742 -124.150949 
L 332.404412 -126.508341 
L 330.558083 -128.997734 
L 328.711754 -130.688836 
L 326.865424 -119.93948 
L 325.019095 -121.745566 
L 323.172765 -124.042824 
L 321.326436 -119.69016 
L 319.480107 -121.102869 
L 317.633777 -119.734279 
L 315.787448 -120.690366 
L 313.941119 -117.609292 
L 312.094789 -116.998081 
L 310.24846 -116.45898 
L 308.40213 -117.570325 
L 306.555801 -120.195255 
L 304.709472 -118.23084 
L 302.863142 -123.42597 
L 301.016813 -116.747217 
L 299.170483 -112.480446 
L 297.324154 -120.247025 
L 295.477825 -117.114657 
L 293.631495 -115.540631 
L 291.785166 -118.561779 
L 289.938837 -118.316893 
L 288.092507 -113.55113 
L 286.246178 -128.670853 
L 284.399848 -118.697888 
L 282.553519 -128.065184 
L 280.70719 -114.642188 
L 278.86086 -115.570348 
L 277.014531 -118.141392 
L 275.168201 -115.632148 
L 273.321872 -116.862784 
L 271.475543 -112.287804 
L 269.629213 -113.535372 
L 267.782884 -118.668828 
L 265.936555 -120.056907 
L 264.090225 -123.090862 
L 262.243896 -111.050283 
L 260.397566 -120.155857 
L 258.551237 -112.01973 
L 256.704908 -113.44554 
L 254.858578 -110.392644 
L 253.012249 -114.744729 
L 251.16592 -110.831604 
L 249.31959 -117.334231 
L 247.473261 -114.693653 
L 245.626931 -109.977402 
L 243.780602 -114.756667 
L 241.934273 -110.069118 
L 240.087943 -116.129695 
L 238.241614 -118.735267 
L 236.395284 -107.846962 
L 234.548955 -107.611779 
L 232.702626 -106.027751 
L 230.856296 -108.829779 
L 229.009967 -112.20616 
L 227.163638 -122.004708 
L 225.317308 -105.759013 
L 223.470979 -108.752886 
L 221.624649 -115.459344 
L 219.77832 -116.786277 
L 217.931991 -108.112901 
L 216.085661 -112.684517 
L 214.239332 -110.147285 
L 212.393002 -104.989851 
L 210.546673 -107.114558 
L 208.700344 -110.684614 
L 206.854014 -107.185366 
L 205.007685 -107.754337 
L 203.161356 -105.880424 
L 201.315026 -110.451204 
L 199.468697 -112.676819 
L 197.622367 -110.938879 
L 195.776038 -104.942817 
L 193.929709 -105.29232 
L 192.083379 -106.09501 
L 190.23705 -105.366892 
L 188.39072 -106.985057 
L 186.544391 -115.563567 
L 184.698062 -111.475022 
L 182.851732 -106.22372 
L 181.005403 -103.347817 
L 179.159074 -105.070697 
L 177.312744 -105.82998 
L 175.466415 -105.964966 
L 173.620085 -105.038138 
L 171.773756 -109.744599 
L 169.927427 -102.405945 
L 168.081097 -104.969034 
L 166.234768 -108.609258 
L 164.388438 -111.842599 
L 162.542109 -104.21214 
L 160.69578 -108.837156 
L 158.84945 -109.765205 
L 157.003121 -101.545736 
L 155.156792 -105.513381 
L 153.310462 -105.618247 
L 151.464133 -108.497568 
L 149.617803 -108.319348 
L 147.771474 -103.969773 
L 145.925145 -107.012097 
L 144.078815 -103.924209 
L 142.232486 -104.921707 
L 140.386156 -106.573293 
L 138.539827 -108.89572 
L 136.693498 -110.339379 
L 134.847168 -106.126207 
L 133.000839 -106.176807 
L 131.15451 -106.587695 
L 129.30818 -109.092018 
L 127.461851 -106.936266 
L 125.615521 -110.302673 
L 123.769192 -116.140656 
L 121.922863 -114.848441 
L 120.076533 -123.615859 
L 118.230204 -120.602432 
L 116.383875 -122.31174 
L 114.537545 -127.288839 
L 112.691216 -131.226004 
L 110.844886 -137.485362 
z
" style="stroke: #d2dbe0"/>
    </defs>
    <g clip-path="url(#p277379e764)">
     <use xlink:href="#m352e33349a" x="0" y="288" style="fill: #d2dbe0; stroke: #d2dbe0"/>
    </g>
   </g>
   <g id="matplotlib.axis_1">
    <g id="xtick_1">
     <g id="line2d_1">
      <defs>
       <path id="m9a823d50ec" d="M 0 0 
L 0 3.5 
" style="stroke: #000000; stroke-width: 0.8"/>
      </defs>
      <g>
       <use xlink:href="#m9a823d50ec" x="92.381593" y="228.04" style="stroke: #000000; stroke-width: 0.8"/>
      </g>
     </g>
     <g id="text_1">
      <!-- 0.0 -->
      <g transform="translate(81.741593 246.4) scale(0.16 -0.16)">
       <defs>
        <path id="Bahnschrift-30" d="M 1766 -47 
Q 1116 -47 792 301 
Q 469 650 469 1244 
L 469 3309 
Q 469 3913 797 4256 
Q 1125 4600 1766 4600 
Q 2409 4600 2736 4258 
Q 3063 3916 3063 3309 
L 3063 1244 
Q 3063 641 2736 297 
Q 2409 -47 1766 -47 
z
M 1766 559 
Q 2116 559 2270 742 
Q 2425 925 2425 1244 
L 2425 3309 
Q 2425 3631 2270 3812 
Q 2116 3994 1766 3994 
Q 1416 3994 1261 3812 
Q 1106 3631 1106 3309 
L 1106 1244 
Q 1106 925 1261 742 
Q 1416 559 1766 559 
z
" transform="scale(0.015625)"/>
        <path id="Bahnschrift-2e" d="M 391 0 
L 391 669 
L 1059 669 
L 1059 0 
L 391 0 
z
" transform="scale(0.015625)"/>
       </defs>
       <use xlink:href="#Bahnschrift-30"/>
       <use xlink:href="#Bahnschrift-2e" x="55.175781"/>
       <use xlink:href="#Bahnschrift-30" x="77.832031"/>
      </g>
     </g>
    </g>
    <g id="xtick_2">
     <g id="line2d_2">
      <g>
       <use xlink:href="#m9a823d50ec" x="277.014531" y="228.04" style="stroke: #000000; stroke-width: 0.8"/>
      </g>
     </g>
     <g id="text_2">
      <!-- 0.1 -->
      <g transform="translate(268.128281 246.4) scale(0.16 -0.16)">
       <defs>
        <path id="Bahnschrift-31" d="M 1566 4544 
L 1566 0 
L 928 0 
L 928 3850 
L 281 3453 
L 281 4113 
L 928 4544 
L 1566 4544 
z
" transform="scale(0.015625)"/>
       </defs>
       <use xlink:href="#Bahnschrift-30"/>
       <use xlink:href="#Bahnschrift-2e" x="55.175781"/>
       <use xlink:href="#Bahnschrift-31" x="77.832031"/>
      </g>
     </g>
    </g>
    <g id="xtick_3">
     <g id="line2d_3">
      <g>
       <use xlink:href="#m9a823d50ec" x="461.647469" y="228.04" style="stroke: #000000; stroke-width: 0.8"/>
      </g>
     </g>
     <g id="text_3">
      <!-- 0.2 -->
      <g transform="translate(451.288719 246.4) scale(0.16 -0.16)">
       <defs>
        <path id="Bahnschrift-32" d="M 400 0 
L 400 553 
L 1984 2666 
Q 2122 2847 2198 3040 
Q 2275 3234 2275 3406 
L 2275 3413 
Q 2275 3684 2115 3834 
Q 1956 3984 1663 3984 
Q 1388 3984 1214 3820 
Q 1041 3656 1003 3356 
L 1003 3353 
L 344 3353 
L 344 3356 
Q 428 3944 772 4267 
Q 1116 4591 1656 4591 
Q 2269 4591 2603 4281 
Q 2938 3972 2938 3406 
L 2938 3403 
Q 2938 3163 2838 2898 
Q 2738 2634 2559 2394 
L 1244 606 
L 2963 606 
L 2963 0 
L 400 0 
z
" transform="scale(0.015625)"/>
       </defs>
       <use xlink:href="#Bahnschrift-30"/>
       <use xlink:href="#Bahnschrift-2e" x="55.175781"/>
       <use xlink:href="#Bahnschrift-32" x="77.832031"/>
      </g>
     </g>
    </g>
    <g id="xtick_4">
     <g id="line2d_4">
      <g>
       <use xlink:href="#m9a823d50ec" x="646.280408" y="228.04" style="stroke: #000000; stroke-width: 0.8"/>
      </g>
     </g>
     <g id="text_4">
      <!-- 0.3 -->
      <g transform="translate(635.824158 246.4) scale(0.16 -0.16)">
       <defs>
        <path id="Bahnschrift-33" d="M 1644 -47 
Q 1259 -47 970 92 
Q 681 231 506 493 
Q 331 756 281 1131 
L 281 1131 
L 931 1131 
L 931 1131 
Q 975 838 1162 702 
Q 1350 566 1644 566 
Q 1959 566 2134 734 
Q 2309 903 2309 1209 
L 2309 1347 
Q 2309 1688 2143 1873 
Q 1978 2059 1675 2059 
L 1353 2059 
L 1353 2666 
L 1675 2666 
Q 1944 2666 2089 2825 
Q 2234 2984 2234 3275 
L 2234 3416 
Q 2234 3684 2079 3831 
Q 1925 3978 1641 3978 
Q 1400 3978 1233 3842 
Q 1066 3706 1003 3413 
L 1003 3413 
L 356 3413 
L 356 3413 
Q 453 3975 789 4283 
Q 1125 4591 1641 4591 
Q 2228 4591 2550 4281 
Q 2872 3972 2872 3409 
L 2872 3334 
Q 2872 2994 2687 2742 
Q 2503 2491 2166 2372 
Q 2538 2294 2742 2008 
Q 2947 1722 2947 1281 
L 2947 1206 
Q 2947 609 2606 281 
Q 2266 -47 1644 -47 
z
" transform="scale(0.015625)"/>
       </defs>
       <use xlink:href="#Bahnschrift-30"/>
       <use xlink:href="#Bahnschrift-2e" x="55.175781"/>
       <use xlink:href="#Bahnschrift-33" x="77.832031"/>
      </g>
     </g>
    </g>
    <g id="xtick_5">
     <g id="line2d_5">
      <g>
       <use xlink:href="#m9a823d50ec" x="830.913346" y="228.04" style="stroke: #000000; stroke-width: 0.8"/>
      </g>
     </g>
     <g id="text_5">
      <!-- 0.4 -->
      <g transform="translate(820.135846 246.4) scale(0.16 -0.16)">
       <defs>
        <path id="Bahnschrift-34" d="M 406 697 
L 406 1250 
L 1931 4541 
L 2588 4541 
L 1100 1288 
L 3328 1288 
L 3328 697 
L 406 697 
z
M 2366 -3 
L 2366 2672 
L 2988 2672 
L 2988 -3 
L 2366 -3 
z
" transform="scale(0.015625)"/>
       </defs>
       <use xlink:href="#Bahnschrift-30"/>
       <use xlink:href="#Bahnschrift-2e" x="55.175781"/>
       <use xlink:href="#Bahnschrift-34" x="77.832031"/>
      </g>
     </g>
    </g>
    <g id="xtick_6">
     <g id="line2d_6">
      <g>
       <use xlink:href="#m9a823d50ec" x="1015.546284" y="228.04" style="stroke: #000000; stroke-width: 0.8"/>
      </g>
     </g>
     <g id="text_6">
      <!-- 0.5 -->
      <g transform="translate(1004.965034 246.4) scale(0.16 -0.16)">
       <defs>
        <path id="Bahnschrift-35" d="M 1738 -47 
Q 1219 -47 886 251 
Q 553 550 469 1094 
L 469 1097 
L 1106 1097 
L 1106 1094 
Q 1141 844 1306 705 
Q 1472 566 1738 566 
Q 2044 566 2211 770 
Q 2378 975 2378 1347 
L 2378 1728 
Q 2378 2100 2211 2303 
Q 2044 2506 1738 2506 
Q 1572 2506 1419 2412 
Q 1266 2319 1150 2150 
L 569 2150 
L 569 4544 
L 2884 4544 
L 2884 3938 
L 1206 3938 
L 1206 2916 
Q 1325 3013 1472 3066 
Q 1619 3119 1772 3119 
Q 2366 3119 2691 2755 
Q 3016 2391 3016 1728 
L 3016 1347 
Q 3016 681 2681 317 
Q 2347 -47 1738 -47 
z
" transform="scale(0.015625)"/>
       </defs>
       <use xlink:href="#Bahnschrift-30"/>
       <use xlink:href="#Bahnschrift-2e" x="55.175781"/>
       <use xlink:href="#Bahnschrift-35" x="77.832031"/>
      </g>
     </g>
    </g>
    <g id="text_7">
     <!-- Rho -->
     <g transform="translate(550.075 265.0575) scale(0.16 -0.16)">
      <defs>
       <path id="Bahnschrift-52" d="M 841 1922 
L 841 2528 
L 2391 2528 
Q 2669 2528 2837 2722 
Q 3006 2916 3006 3234 
L 3006 3234 
Q 3006 3553 2837 3747 
Q 2669 3941 2391 3941 
L 841 3941 
L 841 4547 
L 2366 4547 
Q 2763 4547 3059 4383 
Q 3356 4219 3520 3925 
Q 3684 3631 3684 3234 
L 3684 3234 
Q 3684 2841 3518 2545 
Q 3353 2250 3058 2086 
Q 2763 1922 2366 1922 
L 841 1922 
z
M 563 0 
L 563 4547 
L 1200 4547 
L 1200 0 
L 563 0 
z
M 3119 0 
L 2078 2063 
L 2713 2206 
L 3875 0 
L 3119 0 
z
" transform="scale(0.015625)"/>
       <path id="Bahnschrift-68" d="M 500 0 
L 500 4544 
L 1138 4544 
L 1138 0 
L 500 0 
z
M 2469 0 
L 2469 1966 
Q 2469 2309 2292 2496 
Q 2116 2684 1791 2684 
Q 1478 2684 1308 2521 
Q 1138 2359 1138 2063 
L 1072 2688 
Q 1222 2975 1464 3133 
Q 1706 3291 2000 3291 
Q 2528 3291 2817 2945 
Q 3106 2600 3106 1969 
L 3106 0 
L 2469 0 
z
" transform="scale(0.015625)"/>
       <path id="Bahnschrift-6f" d="M 1744 -47 
Q 1106 -47 756 323 
Q 406 694 406 1366 
L 406 1894 
Q 406 2559 756 2925 
Q 1106 3291 1744 3291 
Q 2381 3291 2731 2925 
Q 3081 2559 3081 1894 
L 3081 1356 
Q 3081 688 2731 320 
Q 2381 -47 1744 -47 
z
M 1744 559 
Q 2078 559 2261 768 
Q 2444 978 2444 1356 
L 2444 1894 
Q 2444 2272 2261 2478 
Q 2078 2684 1744 2684 
Q 1413 2684 1228 2478 
Q 1044 2272 1044 1894 
L 1044 1356 
Q 1044 978 1228 768 
Q 1413 559 1744 559 
z
" transform="scale(0.015625)"/>
      </defs>
      <use xlink:href="#Bahnschrift-52"/>
      <use xlink:href="#Bahnschrift-68" x="65.185547"/>
      <use xlink:href="#Bahnschrift-6f" x="121.044922"/>
     </g>
    </g>
   </g>
   <g id="matplotlib.axis_2">
    <g id="ytick_1">
     <g id="line2d_7">
      <defs>
       <path id="mbb55806aea" d="M 0 0 
L -3.5 0 
" style="stroke: #000000; stroke-width: 0.8"/>
      </defs>
      <g>
       <use xlink:href="#mbb55806aea" x="65.5175" y="215.005424" style="stroke: #000000; stroke-width: 0.8"/>
      </g>
     </g>
     <g id="text_8">
      <!-- 0.5 -->
      <g transform="translate(37.355 220.685424) scale(0.16 -0.16)">
       <use xlink:href="#Bahnschrift-30"/>
       <use xlink:href="#Bahnschrift-2e" x="55.175781"/>
       <use xlink:href="#Bahnschrift-35" x="77.832031"/>
      </g>
     </g>
    </g>
    <g id="ytick_2">
     <g id="line2d_8">
      <g>
       <use xlink:href="#mbb55806aea" x="65.5175" y="156.680048" style="stroke: #000000; stroke-width: 0.8"/>
      </g>
     </g>
     <g id="text_9">
      <!-- 1.0 -->
      <g transform="translate(40.745 162.360048) scale(0.16 -0.16)">
       <use xlink:href="#Bahnschrift-31"/>
       <use xlink:href="#Bahnschrift-2e" x="33.251953"/>
       <use xlink:href="#Bahnschrift-30" x="55.908203"/>
      </g>
     </g>
    </g>
    <g id="ytick_3">
     <g id="line2d_9">
      <g>
       <use xlink:href="#mbb55806aea" x="65.5175" y="98.354672" style="stroke: #000000; stroke-width: 0.8"/>
      </g>
     </g>
     <g id="text_10">
      <!-- 1.5 -->
      <g transform="translate(40.8625 104.034672) scale(0.16 -0.16)">
       <use xlink:href="#Bahnschrift-31"/>
       <use xlink:href="#Bahnschrift-2e" x="33.251953"/>
       <use xlink:href="#Bahnschrift-35" x="55.908203"/>
      </g>
     </g>
    </g>
    <g id="ytick_4">
     <g id="line2d_10">
      <g>
       <use xlink:href="#mbb55806aea" x="65.5175" y="40.029296" style="stroke: #000000; stroke-width: 0.8"/>
      </g>
     </g>
     <g id="text_11">
      <!-- 2.0 -->
      <g transform="translate(37.8 45.709296) scale(0.16 -0.16)">
       <use xlink:href="#Bahnschrift-32"/>
       <use xlink:href="#Bahnschrift-2e" x="51.660156"/>
       <use xlink:href="#Bahnschrift-30" x="74.316406"/>
      </g>
     </g>
    </g>
    <g id="text_12">
     <!-- Time [s] -->
     <g transform="translate(30.0575 150.65875) rotate(-90) scale(0.16 -0.16)">
      <defs>
       <path id="Bahnschrift-54" d="M 1222 0 
L 1222 4172 
L 1859 4172 
L 1859 0 
L 1222 0 
z
M -63 3938 
L -63 4544 
L 3144 4544 
L 3144 3938 
L -63 3938 
z
" transform="scale(0.015625)"/>
       <path id="Bahnschrift-69" d="M 500 3906 
L 500 4544 
L 1138 4544 
L 1138 3906 
L 500 3906 
z
M 500 0 
L 500 3244 
L 1138 3244 
L 1138 0 
L 500 0 
z
" transform="scale(0.015625)"/>
       <path id="Bahnschrift-6d" d="M 4375 0 
L 4375 1966 
Q 4375 2309 4198 2496 
Q 4022 2684 3697 2684 
Q 3400 2684 3237 2503 
Q 3075 2322 3075 1991 
L 2947 2616 
Q 3103 2941 3353 3116 
Q 3603 3291 3906 3291 
Q 4434 3291 4723 2945 
Q 5013 2600 5013 1969 
L 5013 0 
L 4375 0 
z
M 500 0 
L 500 3244 
L 1138 3244 
L 1138 0 
L 500 0 
z
M 2438 0 
L 2438 1966 
Q 2438 2309 2269 2496 
Q 2100 2684 1791 2684 
Q 1478 2684 1308 2518 
Q 1138 2353 1138 2053 
L 1072 2678 
Q 1222 2972 1464 3131 
Q 1706 3291 2000 3291 
Q 2513 3291 2794 2945 
Q 3075 2600 3075 1969 
L 3075 0 
L 2438 0 
z
" transform="scale(0.015625)"/>
       <path id="Bahnschrift-65" d="M 1828 -47 
Q 1150 -47 778 331 
Q 406 709 406 1406 
L 406 1772 
Q 406 2497 764 2894 
Q 1122 3291 1772 3291 
Q 2384 3291 2720 2841 
Q 3056 2391 3056 1578 
L 3056 1366 
L 869 1366 
L 869 1878 
L 2450 1878 
L 2450 1878 
Q 2422 2272 2245 2494 
Q 2069 2716 1772 2716 
Q 1413 2716 1213 2478 
Q 1013 2241 1013 1806 
L 1013 1394 
Q 1013 991 1227 775 
Q 1441 559 1828 559 
Q 2022 559 2212 637 
Q 2403 716 2553 856 
L 2553 856 
L 2972 438 
L 2972 438 
Q 2731 206 2431 79 
Q 2131 -47 1828 -47 
z
" transform="scale(0.015625)"/>
       <path id="Bahnschrift-20" transform="scale(0.015625)"/>
       <path id="Bahnschrift-5b" d="M 594 -1019 
L 594 5081 
L 1200 5081 
L 1200 -1019 
L 594 -1019 
z
M 906 -1019 
L 906 -444 
L 1788 -444 
L 1788 -1019 
L 906 -1019 
z
M 906 4506 
L 906 5081 
L 1788 5081 
L 1788 4506 
L 906 4506 
z
" transform="scale(0.015625)"/>
       <path id="Bahnschrift-73" d="M 1647 -47 
Q 1216 -47 864 79 
Q 513 206 234 459 
L 234 459 
L 613 925 
L 613 925 
Q 878 725 1136 625 
Q 1394 525 1647 525 
Q 2025 525 2214 642 
Q 2403 759 2403 994 
Q 2403 1175 2276 1250 
Q 2150 1325 1945 1348 
Q 1741 1372 1506 1388 
Q 1309 1403 1115 1436 
Q 922 1469 762 1555 
Q 603 1641 508 1809 
Q 413 1978 413 2263 
Q 413 2778 728 3034 
Q 1044 3291 1669 3291 
Q 2050 3291 2378 3187 
Q 2706 3084 2994 2872 
L 2994 2872 
L 2609 2406 
L 2609 2406 
Q 2366 2563 2130 2641 
Q 1894 2719 1669 2719 
Q 1344 2719 1181 2608 
Q 1019 2497 1019 2275 
Q 1019 2128 1131 2064 
Q 1244 2000 1428 1981 
Q 1613 1963 1825 1947 
Q 2028 1934 2236 1901 
Q 2444 1869 2619 1775 
Q 2794 1681 2900 1497 
Q 3006 1313 3006 994 
Q 3006 472 2667 212 
Q 2328 -47 1647 -47 
z
" transform="scale(0.015625)"/>
       <path id="Bahnschrift-5d" d="M 681 -1019 
L 681 5081 
L 1288 5081 
L 1288 -1019 
L 681 -1019 
z
M 94 -1019 
L 94 -444 
L 975 -444 
L 975 -1019 
L 94 -1019 
z
M 94 4506 
L 94 5081 
L 975 5081 
L 975 4506 
L 94 4506 
z
" transform="scale(0.015625)"/>
      </defs>
      <use xlink:href="#Bahnschrift-54"/>
      <use xlink:href="#Bahnschrift-69" x="48.144531"/>
      <use xlink:href="#Bahnschrift-6d" x="73.242188"/>
      <use xlink:href="#Bahnschrift-65" x="158.886719"/>
      <use xlink:href="#Bahnschrift-20" x="212.5"/>
      <use xlink:href="#Bahnschrift-5b" x="239.355469"/>
      <use xlink:href="#Bahnschrift-73" x="268.75"/>
      <use xlink:href="#Bahnschrift-5d" x="320.605469"/>
     </g>
    </g>
   </g>
   <g id="line2d_11">
    <path d="M 129.30818 190.062811 
L 131.15451 191.177108 
L 133.000839 192.151018 
L 138.539827 194.274202 
L 142.232486 195.331909 
L 151.464133 196.816477 
L 160.69578 197.843024 
L 164.388438 198.094589 
L 168.081097 198.379175 
L 171.773756 198.446565 
L 175.466415 198.617006 
L 179.159074 198.736001 
L 190.23705 198.697853 
L 192.083379 198.76018 
L 205.007685 198.254214 
L 208.700344 198.10816 
L 210.546673 197.943952 
L 219.77832 197.702943 
L 225.317308 197.216048 
L 229.009967 197.10696 
L 234.548955 196.760827 
L 236.395284 196.799996 
L 245.626931 196.270405 
L 258.551237 195.466499 
L 262.243896 195.382045 
L 264.090225 195.164199 
L 265.936555 195.133309 
L 267.782884 194.952866 
L 271.475543 194.9088 
L 273.321872 194.708506 
L 277.014531 194.595059 
L 299.170483 193.202544 
L 301.016813 193.231706 
L 313.941119 192.115528 
L 317.633777 192.062969 
L 321.326436 191.926414 
L 325.019095 191.479844 
L 326.865424 191.392523 
L 328.711754 191.115275 
L 330.558083 191.055474 
L 334.250742 190.564685 
L 339.78973 189.981606 
L 347.175047 190.04703 
L 350.867706 189.683968 
L 352.714036 189.403658 
L 358.253024 189.198439 
L 360.099353 189.261455 
L 367.484671 188.740907 
L 371.177329 188.902288 
L 374.869988 188.760765 
L 378.562647 188.438172 
L 384.101635 187.395766 
L 385.947964 187.242244 
L 389.640623 187.183832 
L 391.486953 186.865995 
L 393.333282 186.739239 
L 397.025941 186.300901 
L 402.564929 186.12862 
L 404.411258 185.803225 
L 411.796576 185.066259 
L 413.642905 184.973659 
L 415.489235 184.697291 
L 417.335564 184.75705 
L 419.181893 184.617759 
L 422.874552 184.647259 
L 428.41354 184.29431 
L 430.25987 184.159178 
L 432.106199 183.608878 
L 439.491517 182.294204 
L 441.337846 182.240832 
L 445.030505 181.466082 
L 448.723164 180.7008 
L 450.569493 180.464086 
L 454.262152 179.705221 
L 457.95481 179.05237 
L 459.80114 178.159451 
L 465.340128 176.944845 
L 467.186457 176.416045 
L 470.879116 176.5728 
L 472.725446 176.289322 
L 474.571775 176.341961 
L 476.418104 176.054403 
L 480.110763 175.820666 
L 485.649751 176.292118 
L 487.496081 176.156661 
L 489.34241 176.344738 
L 491.188739 176.31258 
L 493.035069 176.409526 
L 494.881398 176.139198 
L 496.727728 176.575459 
L 498.574057 176.470881 
L 500.420386 176.24849 
L 504.113045 176.43993 
L 505.959374 176.279426 
L 507.805704 175.968395 
L 509.652033 176.051729 
L 511.498363 175.877549 
L 513.344692 175.973949 
L 520.730009 174.410796 
L 526.268998 173.353357 
L 528.115327 173.292308 
L 529.961656 173.066071 
L 531.807986 173.372741 
L 535.500645 173.26685 
L 537.346974 173.513109 
L 539.193303 173.478102 
L 541.039633 173.31828 
L 544.732291 173.416591 
L 546.578621 173.277771 
L 548.42495 173.252188 
L 550.27128 172.955328 
L 552.117609 172.77747 
L 553.963938 172.970294 
L 559.502927 173.040621 
L 561.349256 172.959015 
L 563.195585 172.743461 
L 565.041915 172.290694 
L 566.888244 172.194545 
L 568.734573 171.899057 
L 570.580903 171.733102 
L 574.273562 171.09011 
L 576.119891 170.252385 
L 577.96622 170.264315 
L 585.351538 169.714876 
L 587.197867 169.497654 
L 589.044197 169.844142 
L 590.890526 169.802823 
L 594.583185 169.282488 
L 596.429514 169.297398 
L 598.275844 169.429532 
L 601.968502 169.910115 
L 603.814832 169.938239 
L 605.661161 170.115456 
L 607.507491 170.034346 
L 609.35382 170.28921 
L 611.200149 170.371181 
L 613.046479 171.140585 
L 614.892808 171.103866 
L 616.739137 170.891677 
L 618.585467 170.915645 
L 624.124455 171.663573 
L 627.817114 171.386982 
L 631.509772 171.774567 
L 635.202431 171.888172 
L 637.048761 171.749874 
L 640.741419 171.734889 
L 642.587749 171.603918 
L 646.280408 171.648003 
L 649.973066 171.604808 
L 653.665725 171.718511 
L 655.512054 171.588482 
L 657.358384 171.307742 
L 661.051043 171.093645 
L 672.129019 170.690344 
L 673.975348 170.901006 
L 675.821678 170.880861 
L 679.514336 170.543198 
L 683.206995 170.076577 
L 686.899654 169.697088 
L 688.745983 169.496187 
L 692.438642 169.419832 
L 696.131301 169.085638 
L 699.82396 169.054021 
L 703.516618 168.884753 
L 707.209277 168.774032 
L 709.055607 169.036915 
L 710.901936 168.758321 
L 714.594595 168.550428 
L 718.287254 168.738819 
L 721.979912 168.59296 
L 723.826242 168.654719 
L 729.36523 168.514959 
L 731.211559 168.673687 
L 733.057889 168.699507 
L 734.904218 168.526218 
L 736.750547 168.517121 
L 738.596877 168.671397 
L 747.828524 168.330567 
L 749.674853 168.214592 
L 751.521182 168.412068 
L 753.367512 168.276108 
L 757.060171 168.260044 
L 758.9065 168.215716 
L 762.599159 167.853395 
L 764.445488 167.785784 
L 766.291817 167.854378 
L 768.138147 167.698395 
L 773.677135 167.757534 
L 775.523464 167.571281 
L 777.369794 167.770176 
L 782.908782 167.182241 
L 786.601441 167.081238 
L 788.44777 166.662538 
L 790.294099 166.627223 
L 792.140429 166.429283 
L 801.372076 166.075339 
L 803.218405 165.850588 
L 805.064735 165.779488 
L 806.911064 165.453906 
L 808.757393 165.294942 
L 810.603723 164.962948 
L 812.450052 164.95609 
L 814.296381 164.712331 
L 816.142711 164.695136 
L 817.98904 164.963024 
L 819.83537 164.491207 
L 821.681699 164.324116 
L 825.374358 164.273394 
L 827.220687 164.014557 
L 829.067017 163.893296 
L 832.759675 163.874169 
L 834.606005 163.721194 
L 836.452334 163.789782 
L 838.298663 163.531074 
L 845.683981 163.483637 
L 847.53031 163.637578 
L 853.069299 162.953552 
L 854.915628 162.450192 
L 856.761957 162.383525 
L 860.454616 161.852523 
L 865.993604 161.720721 
L 867.839934 161.595422 
L 869.686263 161.244101 
L 875.225251 161.092978 
L 877.07158 159.064454 
L 878.91791 156.814669 
L 882.610569 152.681408 
L 884.456898 150.391392 
L 886.303227 150.371675 
L 888.149557 150.24013 
L 889.995886 150.622891 
L 891.842216 150.828725 
L 893.688545 150.906291 
L 897.381204 151.338106 
L 899.227533 151.083875 
L 902.920192 151.26048 
L 904.766521 151.169791 
L 906.612851 151.280135 
L 912.151839 150.873362 
L 913.998168 152.695634 
L 917.690827 156.729764 
L 921.383486 160.635228 
L 925.076144 160.20138 
L 926.922474 159.67231 
L 936.154121 159.281161 
L 939.84678 158.823088 
L 941.693109 158.616022 
L 945.385768 158.525485 
L 950.924756 158.608169 
L 952.771085 158.43797 
L 954.617415 158.441542 
L 958.310073 158.272399 
L 965.695391 158.527742 
L 967.54172 158.416143 
L 971.234379 157.877385 
L 973.080708 158.153792 
L 976.773367 158.219017 
L 978.619697 158.067183 
L 980.466026 158.271407 
L 984.158685 158.266187 
L 987.851344 158.030292 
L 991.544002 157.629765 
L 993.390332 157.582203 
L 995.236661 157.761381 
L 997.08299 157.821682 
L 998.92932 157.659273 
L 998.92932 157.659273 
" clip-path="url(#p277379e764)" style="fill: none; stroke: #5dc694; stroke-width: 1.5; stroke-linecap: square"/>
   </g>
   <g id="line2d_12">
    <path d="M 192.083379 228.04 
L 192.083379 17.28 
" clip-path="url(#p277379e764)" style="fill: none; stroke-dasharray: 5.55,2.4; stroke-dashoffset: 0; stroke: #204e66; stroke-width: 1.5"/>
   </g>
   <g id="patch_3">
    <path d="M 65.5175 228.04 
L 65.5175 17.28 
" style="fill: none; stroke: #000000; stroke-width: 0.8; stroke-linejoin: miter; stroke-linecap: square"/>
   </g>
   <g id="patch_4">
    <path d="M 1062.72 228.04 
L 1062.72 17.28 
" style="fill: none; stroke: #000000; stroke-width: 0.8; stroke-linejoin: miter; stroke-linecap: square"/>
   </g>
   <g id="patch_5">
    <path d="M 65.5175 228.04 
L 1062.72 228.04 
" style="fill: none; stroke: #000000; stroke-width: 0.8; stroke-linejoin: miter; stroke-linecap: square"/>
   </g>
   <g id="patch_6">
    <path d="M 65.5175 17.28 
L 1062.72 17.28 
" style="fill: none; stroke: #000000; stroke-width: 0.8; stroke-linejoin: miter; stroke-linecap: square"/>
   </g>
   <g id="legend_1">
    <g id="patch_7">
     <path d="M 763.8 76.7375 
L 1051.52 76.7375 
Q 1054.72 76.7375 1054.72 73.5375 
L 1054.72 28.48 
Q 1054.72 25.28 1051.52 25.28 
L 763.8 25.28 
Q 760.6 25.28 760.6 28.48 
L 760.6 73.5375 
Q 760.6 76.7375 763.8 76.7375 
z
" style="fill: #ffffff; opacity: 0.8; stroke: #cccccc; stroke-linejoin: miter"/>
    </g>
    <g id="line2d_13">
     <path d="M 767 38.7825 
L 783 38.7825 
L 799 38.7825 
" style="fill: none; stroke: #5dc694; stroke-width: 1.5; stroke-linecap: square"/>
    </g>
    <g id="text_13">
     <!-- Mean Time [Rolling Average (20)] -->
     <g transform="translate(811.8 44.3825) scale(0.16 -0.16)">
      <defs>
       <path id="Bahnschrift-4d" d="M 2494 1544 
L 3828 4544 
L 4425 4544 
L 4425 0 
L 3803 0 
L 3803 3403 
L 3834 3203 
L 2716 631 
L 2272 631 
L 1153 3141 
L 1184 3403 
L 1184 0 
L 563 0 
L 563 4544 
L 1159 4544 
L 2494 1544 
z
" transform="scale(0.015625)"/>
       <path id="Bahnschrift-61" d="M 2331 0 
L 2331 2056 
Q 2331 2375 2161 2551 
Q 1991 2728 1678 2728 
Q 1488 2728 1302 2670 
Q 1116 2613 969 2503 
L 503 2822 
Q 688 3044 989 3167 
Q 1291 3291 1659 3291 
Q 2269 3291 2603 2975 
Q 2938 2659 2938 2084 
L 2938 0 
L 2331 0 
z
M 1538 -47 
Q 941 -47 642 200 
Q 344 447 344 956 
Q 344 1441 617 1680 
Q 891 1919 1438 1919 
L 2359 1919 
L 2403 1406 
L 1441 1406 
Q 1194 1406 1069 1295 
Q 944 1184 944 956 
Q 944 709 1109 590 
Q 1275 472 1606 472 
Q 1969 472 2150 550 
Q 2331 628 2331 794 
L 2397 338 
Q 2313 206 2188 122 
Q 2063 38 1902 -4 
Q 1741 -47 1538 -47 
z
" transform="scale(0.015625)"/>
       <path id="Bahnschrift-6e" d="M 500 0 
L 500 3244 
L 1138 3244 
L 1138 0 
L 500 0 
z
M 2469 0 
L 2469 1966 
Q 2469 2309 2292 2496 
Q 2116 2684 1791 2684 
Q 1478 2684 1308 2518 
Q 1138 2353 1138 2053 
L 1072 2678 
Q 1222 2972 1464 3131 
Q 1706 3291 2000 3291 
Q 2528 3291 2817 2945 
Q 3106 2600 3106 1969 
L 3106 0 
L 2469 0 
z
" transform="scale(0.015625)"/>
       <path id="Bahnschrift-6c" d="M 1138 4544 
L 1138 838 
Q 1138 722 1189 656 
Q 1241 591 1334 591 
L 1634 591 
L 1634 -16 
L 1259 -16 
Q 900 -16 700 209 
Q 500 434 500 844 
L 500 4544 
L 1138 4544 
z
" transform="scale(0.015625)"/>
       <path id="Bahnschrift-67" d="M 1588 -1319 
Q 1222 -1319 933 -1183 
Q 644 -1047 484 -800 
L 484 -800 
L 916 -409 
L 916 -409 
Q 1041 -581 1214 -675 
Q 1388 -769 1578 -769 
Q 1944 -769 2144 -567 
Q 2344 -366 2344 3 
L 2344 3244 
L 2981 3244 
L 2981 97 
Q 2981 -578 2617 -948 
Q 2253 -1319 1588 -1319 
z
M 1528 -56 
Q 991 -56 698 289 
Q 406 634 406 1263 
L 406 1978 
Q 406 2609 692 2954 
Q 978 3300 1497 3300 
Q 1784 3300 2023 3150 
Q 2263 3000 2409 2728 
L 2344 2066 
Q 2344 2272 2269 2419 
Q 2194 2566 2051 2642 
Q 1909 2719 1706 2719 
Q 1391 2719 1217 2522 
Q 1044 2325 1044 1969 
L 1044 1263 
Q 1044 909 1217 717 
Q 1391 525 1706 525 
Q 1909 525 2051 604 
Q 2194 684 2269 834 
Q 2344 984 2344 1194 
L 2388 509 
Q 2300 291 2086 117 
Q 1872 -56 1528 -56 
z
" transform="scale(0.015625)"/>
       <path id="Bahnschrift-41" d="M 125 0 
L 1800 4544 
L 2344 4544 
L 4019 0 
L 3331 0 
L 2072 3666 
L 813 0 
L 125 0 
z
M 897 997 
L 897 1603 
L 3288 1603 
L 3288 997 
L 897 997 
z
" transform="scale(0.015625)"/>
       <path id="Bahnschrift-76" d="M 1616 928 
L 2409 3244 
L 3075 3244 
L 1856 0 
L 1375 0 
L 156 3244 
L 822 3244 
L 1616 928 
z
" transform="scale(0.015625)"/>
       <path id="Bahnschrift-72" d="M 500 0 
L 500 3244 
L 1138 3244 
L 1138 0 
L 500 0 
z
M 2284 2475 
Q 2200 2578 2072 2631 
Q 1944 2684 1775 2684 
Q 1472 2684 1305 2517 
Q 1138 2350 1138 2053 
L 1072 2678 
Q 1219 2966 1458 3128 
Q 1697 3291 1984 3291 
Q 2206 3291 2386 3227 
Q 2566 3163 2700 3038 
L 2284 2475 
z
" transform="scale(0.015625)"/>
       <path id="Bahnschrift-28" d="M 1672 -978 
Q 1116 -375 839 373 
Q 563 1122 563 2025 
Q 563 2928 839 3676 
Q 1116 4425 1672 5028 
L 2109 4631 
Q 1638 4106 1403 3456 
Q 1169 2806 1169 2025 
Q 1169 1244 1403 594 
Q 1638 -56 2109 -584 
L 1672 -978 
z
" transform="scale(0.015625)"/>
       <path id="Bahnschrift-29" d="M 500 -978 
L 63 -584 
Q 534 -56 768 594 
Q 1003 1244 1003 2025 
Q 1003 2806 768 3456 
Q 534 4106 63 4631 
L 500 5028 
Q 1056 4425 1332 3676 
Q 1609 2928 1609 2025 
Q 1609 1122 1332 373 
Q 1056 -375 500 -978 
z
" transform="scale(0.015625)"/>
      </defs>
      <use xlink:href="#Bahnschrift-4d"/>
      <use xlink:href="#Bahnschrift-65" x="77.929688"/>
      <use xlink:href="#Bahnschrift-61" x="131.542969"/>
      <use xlink:href="#Bahnschrift-6e" x="184.765625"/>
      <use xlink:href="#Bahnschrift-20" x="240.625"/>
      <use xlink:href="#Bahnschrift-54" x="267.480469"/>
      <use xlink:href="#Bahnschrift-69" x="315.625"/>
      <use xlink:href="#Bahnschrift-6d" x="340.722656"/>
      <use xlink:href="#Bahnschrift-65" x="426.367188"/>
      <use xlink:href="#Bahnschrift-20" x="479.980469"/>
      <use xlink:href="#Bahnschrift-5b" x="506.835938"/>
      <use xlink:href="#Bahnschrift-52" x="536.230469"/>
      <use xlink:href="#Bahnschrift-6f" x="601.416016"/>
      <use xlink:href="#Bahnschrift-6c" x="655.908203"/>
      <use xlink:href="#Bahnschrift-6c" x="684.863281"/>
      <use xlink:href="#Bahnschrift-69" x="713.818359"/>
      <use xlink:href="#Bahnschrift-6e" x="738.916016"/>
      <use xlink:href="#Bahnschrift-67" x="794.775391"/>
      <use xlink:href="#Bahnschrift-20" x="848.681641"/>
      <use xlink:href="#Bahnschrift-41" x="875.537109"/>
      <use xlink:href="#Bahnschrift-76" x="940.283203"/>
      <use xlink:href="#Bahnschrift-65" x="990.283203"/>
      <use xlink:href="#Bahnschrift-72" x="1043.896484"/>
      <use xlink:href="#Bahnschrift-61" x="1086.572266"/>
      <use xlink:href="#Bahnschrift-67" x="1139.794922"/>
      <use xlink:href="#Bahnschrift-65" x="1193.701172"/>
      <use xlink:href="#Bahnschrift-20" x="1247.314453"/>
      <use xlink:href="#Bahnschrift-28" x="1274.169922"/>
      <use xlink:href="#Bahnschrift-32" x="1308.105469"/>
      <use xlink:href="#Bahnschrift-30" x="1359.765625"/>
      <use xlink:href="#Bahnschrift-29" x="1414.941406"/>
      <use xlink:href="#Bahnschrift-5d" x="1448.876953"/>
     </g>
    </g>
    <g id="patch_8">
     <path d="M 767 67.04 
L 799 67.04 
L 799 55.84 
L 767 55.84 
z
" style="fill: #d2dbe0; stroke: #d2dbe0; stroke-linejoin: miter"/>
    </g>
    <g id="text_14">
     <!-- 90% Percentiles -->
     <g transform="translate(811.8 67.04) scale(0.16 -0.16)">
      <defs>
       <path id="Bahnschrift-39" d="M 934 0 
L 2078 2256 
L 2075 2144 
Q 1994 1997 1834 1931 
Q 1675 1866 1466 1866 
Q 975 1866 675 2230 
Q 375 2594 375 3197 
L 375 3200 
Q 375 3863 708 4227 
Q 1041 4591 1644 4591 
Q 2247 4591 2578 4223 
Q 2909 3856 2909 3184 
L 2909 3181 
Q 2909 2903 2828 2579 
Q 2747 2256 2591 1947 
L 1622 0 
L 934 0 
z
M 1644 2447 
Q 1944 2447 2108 2650 
Q 2272 2853 2272 3222 
L 2272 3225 
Q 2272 3584 2108 3781 
Q 1944 3978 1644 3978 
Q 1341 3978 1177 3781 
Q 1013 3584 1013 3222 
L 1013 3219 
Q 1013 2850 1177 2648 
Q 1341 2447 1644 2447 
z
" transform="scale(0.015625)"/>
       <path id="Bahnschrift-25" d="M 666 0 
L 3134 4544 
L 3694 4544 
L 1225 0 
L 666 0 
z
M 3328 -47 
Q 2966 -47 2769 164 
Q 2572 375 2572 753 
L 2572 1144 
Q 2572 1522 2769 1733 
Q 2966 1944 3328 1944 
Q 3691 1944 3887 1731 
Q 4084 1519 4084 1138 
L 4084 753 
Q 4084 375 3887 164 
Q 3691 -47 3328 -47 
z
M 3328 450 
Q 3563 450 3563 722 
L 3563 1181 
Q 3563 1444 3328 1444 
Q 3094 1444 3094 1178 
L 3094 722 
Q 3094 450 3328 450 
z
M 1069 2597 
Q 706 2597 509 2808 
Q 313 3019 313 3397 
L 313 3788 
Q 313 4166 509 4377 
Q 706 4588 1069 4588 
Q 1431 4588 1628 4375 
Q 1825 4163 1825 3781 
L 1825 3397 
Q 1825 3019 1628 2808 
Q 1431 2597 1069 2597 
z
M 1069 3094 
Q 1303 3094 1303 3366 
L 1303 3825 
Q 1303 4088 1069 4088 
Q 834 4088 834 3822 
L 834 3366 
Q 834 3094 1069 3094 
z
" transform="scale(0.015625)"/>
       <path id="Bahnschrift-50" d="M 891 1763 
L 891 2369 
L 2344 2369 
Q 2656 2369 2845 2584 
Q 3034 2800 3034 3150 
L 3034 3150 
Q 3034 3506 2845 3722 
Q 2656 3938 2344 3938 
L 891 3938 
L 891 4544 
L 2322 4544 
Q 2734 4544 3040 4370 
Q 3347 4197 3517 3884 
Q 3688 3572 3688 3150 
L 3688 3150 
Q 3688 2731 3517 2418 
Q 3347 2106 3040 1934 
Q 2734 1763 2322 1763 
L 891 1763 
z
M 563 0 
L 563 4544 
L 1200 4544 
L 1200 0 
L 563 0 
z
" transform="scale(0.015625)"/>
       <path id="Bahnschrift-63" d="M 1809 -47 
Q 1141 -47 773 322 
Q 406 691 406 1363 
L 406 1897 
Q 406 2563 773 2927 
Q 1141 3291 1809 3291 
Q 2191 3291 2497 3156 
Q 2803 3022 2984 2772 
L 2984 2772 
L 2525 2359 
L 2525 2359 
Q 2391 2516 2206 2600 
Q 2022 2684 1819 2684 
Q 1450 2684 1247 2478 
Q 1044 2272 1044 1897 
L 1044 1363 
Q 1044 978 1247 768 
Q 1450 559 1819 559 
Q 2022 559 2206 650 
Q 2391 741 2525 906 
L 2525 906 
L 2984 463 
L 2984 463 
Q 2803 219 2495 86 
Q 2188 -47 1809 -47 
z
" transform="scale(0.015625)"/>
       <path id="Bahnschrift-74" d="M 1344 -16 
Q 944 -16 764 206 
Q 584 428 584 844 
L 584 4188 
L 1222 4188 
L 1222 838 
Q 1222 722 1269 656 
Q 1316 591 1406 591 
L 1713 591 
L 1713 -16 
L 1344 -16 
z
M 250 2669 
L 250 3244 
L 1713 3244 
L 1713 2669 
L 250 2669 
z
" transform="scale(0.015625)"/>
      </defs>
      <use xlink:href="#Bahnschrift-39"/>
      <use xlink:href="#Bahnschrift-30" x="51.318359"/>
      <use xlink:href="#Bahnschrift-25" x="106.494141"/>
      <use xlink:href="#Bahnschrift-20" x="175.195312"/>
      <use xlink:href="#Bahnschrift-50" x="202.050781"/>
      <use xlink:href="#Bahnschrift-65" x="264.306641"/>
      <use xlink:href="#Bahnschrift-72" x="317.919922"/>
      <use xlink:href="#Bahnschrift-63" x="360.595703"/>
      <use xlink:href="#Bahnschrift-65" x="410.400391"/>
      <use xlink:href="#Bahnschrift-6e" x="464.013672"/>
      <use xlink:href="#Bahnschrift-74" x="519.873047"/>
      <use xlink:href="#Bahnschrift-69" x="552.490234"/>
      <use xlink:href="#Bahnschrift-6c" x="577.587891"/>
      <use xlink:href="#Bahnschrift-65" x="606.542969"/>
      <use xlink:href="#Bahnschrift-73" x="660.15625"/>
     </g>
    </g>
   </g>
  </g>
 </g>
 <defs>
  <clipPath id="p277379e764">
   <rect x="65.5175" y="17.28" width="997.2025" height="210.76"/>
  </clipPath>
 </defs>
</svg>
