<?xml version="1.0" encoding="utf-8" standalone="no"?>
<!DOCTYPE svg PUBLIC "-//W3C//DTD SVG 1.1//EN"
  "http://www.w3.org/Graphics/SVG/1.1/DTD/svg11.dtd">
<svg xmlns:xlink="http://www.w3.org/1999/xlink" width="1080pt" height="288pt" viewBox="0 0 1080 288" xmlns="http://www.w3.org/2000/svg" version="1.1">
 <metadata>
  <rdf:RDF xmlns:dc="http://purl.org/dc/elements/1.1/" xmlns:cc="http://creativecommons.org/ns#" xmlns:rdf="http://www.w3.org/1999/02/22-rdf-syntax-ns#">
   <cc:Work>
    <dc:type rdf:resource="http://purl.org/dc/dcmitype/StillImage"/>
    <dc:date>2024-05-29T19:40:36.483016</dc:date>
    <dc:format>image/svg+xml</dc:format>
    <dc:creator>
     <cc:Agent>
      <dc:title>Matplotlib v3.8.2, https://matplotlib.org/</dc:title>
     </cc:Agent>
    </dc:creator>
   </cc:Work>
  </rdf:RDF>
 </metadata>
 <defs>
  <style type="text/css">*{stroke-linejoin: round; stroke-linecap: butt}</style>
 </defs>
 <g id="figure_1">
  <g id="patch_1">
   <path d="M 0 288 
L 1080 288 
L 1080 0 
L 0 0 
z
" style="fill: #ffffff"/>
  </g>
  <g id="axes_1">
   <g id="patch_2">
    <path d="M 91.01 228.04 
L 1062.72 228.04 
L 1062.72 17.28 
L 91.01 17.28 
z
" style="fill: #ffffff"/>
   </g>
   <g id="matplotlib.axis_1">
    <g id="xtick_1">
     <g id="line2d_1">
      <defs>
       <path id="mbe33cd1183" d="M 0 0 
L 0 3.5 
" style="stroke: #000000; stroke-width: 0.8"/>
      </defs>
      <g>
       <use xlink:href="#mbe33cd1183" x="116.945969" y="228.04" style="stroke: #000000; stroke-width: 0.8"/>
      </g>
     </g>
     <g id="text_1">
      <!-- 0 -->
      <g transform="translate(112.532219 246.4) scale(0.16 -0.16)">
       <defs>
        <path id="Bahnschrift-30" d="M 1766 -47 
Q 1116 -47 792 301 
Q 469 650 469 1244 
L 469 3309 
Q 469 3913 797 4256 
Q 1125 4600 1766 4600 
Q 2409 4600 2736 4258 
Q 3063 3916 3063 3309 
L 3063 1244 
Q 3063 641 2736 297 
Q 2409 -47 1766 -47 
z
M 1766 559 
Q 2116 559 2270 742 
Q 2425 925 2425 1244 
L 2425 3309 
Q 2425 3631 2270 3812 
Q 2116 3994 1766 3994 
Q 1416 3994 1261 3812 
Q 1106 3631 1106 3309 
L 1106 1244 
Q 1106 925 1261 742 
Q 1416 559 1766 559 
z
" transform="scale(0.015625)"/>
       </defs>
       <use xlink:href="#Bahnschrift-30"/>
      </g>
     </g>
    </g>
    <g id="xtick_2">
     <g id="line2d_2">
      <g>
       <use xlink:href="#mbe33cd1183" x="299.272641" y="228.04" style="stroke: #000000; stroke-width: 0.8"/>
      </g>
     </g>
     <g id="text_2">
      <!-- 200 -->
      <g transform="translate(286.312641 246.4) scale(0.16 -0.16)">
       <defs>
        <path id="Bahnschrift-32" d="M 400 0 
L 400 553 
L 1984 2666 
Q 2122 2847 2198 3040 
Q 2275 3234 2275 3406 
L 2275 3413 
Q 2275 3684 2115 3834 
Q 1956 3984 1663 3984 
Q 1388 3984 1214 3820 
Q 1041 3656 1003 3356 
L 1003 3353 
L 344 3353 
L 344 3356 
Q 428 3944 772 4267 
Q 1116 4591 1656 4591 
Q 2269 4591 2603 4281 
Q 2938 3972 2938 3406 
L 2938 3403 
Q 2938 3163 2838 2898 
Q 2738 2634 2559 2394 
L 1244 606 
L 2963 606 
L 2963 0 
L 400 0 
z
" transform="scale(0.015625)"/>
       </defs>
       <use xlink:href="#Bahnschrift-32"/>
       <use xlink:href="#Bahnschrift-30" x="51.660156"/>
       <use xlink:href="#Bahnschrift-30" x="106.835938"/>
      </g>
     </g>
    </g>
    <g id="xtick_3">
     <g id="line2d_3">
      <g>
       <use xlink:href="#mbe33cd1183" x="481.599314" y="228.04" style="stroke: #000000; stroke-width: 0.8"/>
      </g>
     </g>
     <g id="text_3">
      <!-- 400 -->
      <g transform="translate(468.220564 246.4) scale(0.16 -0.16)">
       <defs>
        <path id="Bahnschrift-34" d="M 406 697 
L 406 1250 
L 1931 4541 
L 2588 4541 
L 1100 1288 
L 3328 1288 
L 3328 697 
L 406 697 
z
M 2366 -3 
L 2366 2672 
L 2988 2672 
L 2988 -3 
L 2366 -3 
z
" transform="scale(0.015625)"/>
       </defs>
       <use xlink:href="#Bahnschrift-34"/>
       <use xlink:href="#Bahnschrift-30" x="56.884766"/>
       <use xlink:href="#Bahnschrift-30" x="112.060547"/>
      </g>
     </g>
    </g>
    <g id="xtick_4">
     <g id="line2d_4">
      <g>
       <use xlink:href="#mbe33cd1183" x="663.925986" y="228.04" style="stroke: #000000; stroke-width: 0.8"/>
      </g>
     </g>
     <g id="text_4">
      <!-- 600 -->
      <g transform="translate(650.993486 246.4) scale(0.16 -0.16)">
       <defs>
        <path id="Bahnschrift-36" d="M 1641 -47 
Q 1038 -47 706 312 
Q 375 672 375 1325 
L 375 1328 
Q 375 1622 456 1951 
Q 538 2281 691 2588 
L 1678 4544 
L 2366 4544 
L 1206 2278 
L 1209 2391 
Q 1372 2700 1788 2700 
Q 2322 2700 2615 2345 
Q 2909 1991 2909 1344 
L 2909 1341 
Q 2909 681 2578 317 
Q 2247 -47 1641 -47 
z
M 1641 566 
Q 1947 566 2109 753 
Q 2272 941 2272 1288 
L 2272 1291 
Q 2272 1672 2100 1880 
Q 1928 2088 1609 2088 
Q 1325 2088 1169 1878 
Q 1013 1669 1013 1288 
L 1013 1284 
Q 1013 938 1177 752 
Q 1341 566 1641 566 
z
" transform="scale(0.015625)"/>
       </defs>
       <use xlink:href="#Bahnschrift-36"/>
       <use xlink:href="#Bahnschrift-30" x="51.318359"/>
       <use xlink:href="#Bahnschrift-30" x="106.494141"/>
      </g>
     </g>
    </g>
    <g id="xtick_5">
     <g id="line2d_5">
      <g>
       <use xlink:href="#mbe33cd1183" x="846.252658" y="228.04" style="stroke: #000000; stroke-width: 0.8"/>
      </g>
     </g>
     <g id="text_5">
      <!-- 800 -->
      <g transform="translate(832.925158 246.4) scale(0.16 -0.16)">
       <defs>
        <path id="Bahnschrift-38" d="M 1800 -47 
Q 1384 -47 1075 109 
Q 766 266 594 550 
Q 422 834 422 1216 
L 422 1291 
Q 422 1631 592 1931 
Q 763 2231 1047 2384 
Q 809 2516 662 2764 
Q 516 3013 516 3288 
L 516 3397 
Q 516 3938 867 4264 
Q 1219 4591 1800 4591 
Q 2381 4591 2732 4264 
Q 3084 3938 3084 3397 
L 3084 3288 
Q 3084 3006 2936 2759 
Q 2788 2513 2544 2384 
Q 2831 2231 3004 1931 
Q 3178 1631 3178 1291 
L 3178 1216 
Q 3178 834 3006 550 
Q 2834 266 2525 109 
Q 2216 -47 1800 -47 
z
M 1800 566 
Q 2134 566 2339 758 
Q 2544 950 2544 1263 
L 2544 1306 
Q 2544 1622 2339 1814 
Q 2134 2006 1800 2006 
Q 1466 2006 1261 1814 
Q 1056 1622 1056 1303 
L 1056 1256 
Q 1056 944 1261 755 
Q 1466 566 1800 566 
z
M 1800 2619 
Q 2091 2619 2269 2803 
Q 2447 2988 2447 3291 
L 2447 3334 
Q 2447 3625 2269 3801 
Q 2091 3978 1800 3978 
Q 1509 3978 1331 3801 
Q 1153 3625 1153 3331 
L 1153 3284 
Q 1153 2984 1331 2801 
Q 1509 2619 1800 2619 
z
" transform="scale(0.015625)"/>
       </defs>
       <use xlink:href="#Bahnschrift-38"/>
       <use xlink:href="#Bahnschrift-30" x="56.25"/>
       <use xlink:href="#Bahnschrift-30" x="111.425781"/>
      </g>
     </g>
    </g>
    <g id="xtick_6">
     <g id="line2d_6">
      <g>
       <use xlink:href="#mbe33cd1183" x="1028.579331" y="228.04" style="stroke: #000000; stroke-width: 0.8"/>
      </g>
     </g>
     <g id="text_6">
      <!-- 1000 -->
      <g transform="translate(1012.678081 246.4) scale(0.16 -0.16)">
       <defs>
        <path id="Bahnschrift-31" d="M 1566 4544 
L 1566 0 
L 928 0 
L 928 3850 
L 281 3453 
L 281 4113 
L 928 4544 
L 1566 4544 
z
" transform="scale(0.015625)"/>
       </defs>
       <use xlink:href="#Bahnschrift-31"/>
       <use xlink:href="#Bahnschrift-30" x="33.251953"/>
       <use xlink:href="#Bahnschrift-30" x="88.427734"/>
       <use xlink:href="#Bahnschrift-30" x="143.603516"/>
      </g>
     </g>
    </g>
    <g id="text_7">
     <!-- Theta -->
     <g transform="translate(557.38875 265.0575) scale(0.16 -0.16)">
      <defs>
       <path id="Bahnschrift-54" d="M 1222 0 
L 1222 4172 
L 1859 4172 
L 1859 0 
L 1222 0 
z
M -63 3938 
L -63 4544 
L 3144 4544 
L 3144 3938 
L -63 3938 
z
" transform="scale(0.015625)"/>
       <path id="Bahnschrift-68" d="M 500 0 
L 500 4544 
L 1138 4544 
L 1138 0 
L 500 0 
z
M 2469 0 
L 2469 1966 
Q 2469 2309 2292 2496 
Q 2116 2684 1791 2684 
Q 1478 2684 1308 2521 
Q 1138 2359 1138 2063 
L 1072 2688 
Q 1222 2975 1464 3133 
Q 1706 3291 2000 3291 
Q 2528 3291 2817 2945 
Q 3106 2600 3106 1969 
L 3106 0 
L 2469 0 
z
" transform="scale(0.015625)"/>
       <path id="Bahnschrift-65" d="M 1828 -47 
Q 1150 -47 778 331 
Q 406 709 406 1406 
L 406 1772 
Q 406 2497 764 2894 
Q 1122 3291 1772 3291 
Q 2384 3291 2720 2841 
Q 3056 2391 3056 1578 
L 3056 1366 
L 869 1366 
L 869 1878 
L 2450 1878 
L 2450 1878 
Q 2422 2272 2245 2494 
Q 2069 2716 1772 2716 
Q 1413 2716 1213 2478 
Q 1013 2241 1013 1806 
L 1013 1394 
Q 1013 991 1227 775 
Q 1441 559 1828 559 
Q 2022 559 2212 637 
Q 2403 716 2553 856 
L 2553 856 
L 2972 438 
L 2972 438 
Q 2731 206 2431 79 
Q 2131 -47 1828 -47 
z
" transform="scale(0.015625)"/>
       <path id="Bahnschrift-74" d="M 1344 -16 
Q 944 -16 764 206 
Q 584 428 584 844 
L 584 4188 
L 1222 4188 
L 1222 838 
Q 1222 722 1269 656 
Q 1316 591 1406 591 
L 1713 591 
L 1713 -16 
L 1344 -16 
z
M 250 2669 
L 250 3244 
L 1713 3244 
L 1713 2669 
L 250 2669 
z
" transform="scale(0.015625)"/>
       <path id="Bahnschrift-61" d="M 2331 0 
L 2331 2056 
Q 2331 2375 2161 2551 
Q 1991 2728 1678 2728 
Q 1488 2728 1302 2670 
Q 1116 2613 969 2503 
L 503 2822 
Q 688 3044 989 3167 
Q 1291 3291 1659 3291 
Q 2269 3291 2603 2975 
Q 2938 2659 2938 2084 
L 2938 0 
L 2331 0 
z
M 1538 -47 
Q 941 -47 642 200 
Q 344 447 344 956 
Q 344 1441 617 1680 
Q 891 1919 1438 1919 
L 2359 1919 
L 2403 1406 
L 1441 1406 
Q 1194 1406 1069 1295 
Q 944 1184 944 956 
Q 944 709 1109 590 
Q 1275 472 1606 472 
Q 1969 472 2150 550 
Q 2331 628 2331 794 
L 2397 338 
Q 2313 206 2188 122 
Q 2063 38 1902 -4 
Q 1741 -47 1538 -47 
z
" transform="scale(0.015625)"/>
      </defs>
      <use xlink:href="#Bahnschrift-54"/>
      <use xlink:href="#Bahnschrift-68" x="48.144531"/>
      <use xlink:href="#Bahnschrift-65" x="104.003906"/>
      <use xlink:href="#Bahnschrift-74" x="157.617188"/>
      <use xlink:href="#Bahnschrift-61" x="190.234375"/>
     </g>
    </g>
   </g>
   <g id="matplotlib.axis_2">
    <g id="ytick_1">
     <g id="line2d_7">
      <defs>
       <path id="m3db2c824cc" d="M 0 0 
L -3.5 0 
" style="stroke: #000000; stroke-width: 0.8"/>
      </defs>
      <g>
       <use xlink:href="#m3db2c824cc" x="91.01" y="226.828411" style="stroke: #000000; stroke-width: 0.8"/>
      </g>
     </g>
     <g id="text_8">
      <!-- -0.006 -->
      <g transform="translate(38.02 232.508411) scale(0.16 -0.16)">
       <defs>
        <path id="Bahnschrift-2d" d="M 500 1931 
L 2600 1931 
L 2600 1325 
L 500 1325 
L 500 1931 
z
" transform="scale(0.015625)"/>
        <path id="Bahnschrift-2e" d="M 391 0 
L 391 669 
L 1059 669 
L 1059 0 
L 391 0 
z
" transform="scale(0.015625)"/>
       </defs>
       <use xlink:href="#Bahnschrift-2d"/>
       <use xlink:href="#Bahnschrift-30" x="47.949219"/>
       <use xlink:href="#Bahnschrift-2e" x="103.125"/>
       <use xlink:href="#Bahnschrift-30" x="125.78125"/>
       <use xlink:href="#Bahnschrift-30" x="180.957031"/>
       <use xlink:href="#Bahnschrift-36" x="236.132812"/>
      </g>
     </g>
    </g>
    <g id="ytick_2">
     <g id="line2d_8">
      <g>
       <use xlink:href="#m3db2c824cc" x="91.01" y="191.521686" style="stroke: #000000; stroke-width: 0.8"/>
      </g>
     </g>
     <g id="text_9">
      <!-- -0.004 -->
      <g transform="translate(37.1275 197.201686) scale(0.16 -0.16)">
       <use xlink:href="#Bahnschrift-2d"/>
       <use xlink:href="#Bahnschrift-30" x="47.949219"/>
       <use xlink:href="#Bahnschrift-2e" x="103.125"/>
       <use xlink:href="#Bahnschrift-30" x="125.78125"/>
       <use xlink:href="#Bahnschrift-30" x="180.957031"/>
       <use xlink:href="#Bahnschrift-34" x="236.132812"/>
      </g>
     </g>
    </g>
    <g id="ytick_3">
     <g id="line2d_9">
      <g>
       <use xlink:href="#m3db2c824cc" x="91.01" y="156.214961" style="stroke: #000000; stroke-width: 0.8"/>
      </g>
     </g>
     <g id="text_10">
      <!-- -0.002 -->
      <g transform="translate(37.965 161.894961) scale(0.16 -0.16)">
       <use xlink:href="#Bahnschrift-2d"/>
       <use xlink:href="#Bahnschrift-30" x="47.949219"/>
       <use xlink:href="#Bahnschrift-2e" x="103.125"/>
       <use xlink:href="#Bahnschrift-30" x="125.78125"/>
       <use xlink:href="#Bahnschrift-30" x="180.957031"/>
       <use xlink:href="#Bahnschrift-32" x="236.132812"/>
      </g>
     </g>
    </g>
    <g id="ytick_4">
     <g id="line2d_10">
      <g>
       <use xlink:href="#m3db2c824cc" x="91.01" y="120.908236" style="stroke: #000000; stroke-width: 0.8"/>
      </g>
     </g>
     <g id="text_11">
      <!-- 0.000 -->
      <g transform="translate(45.075 126.588236) scale(0.16 -0.16)">
       <use xlink:href="#Bahnschrift-30"/>
       <use xlink:href="#Bahnschrift-2e" x="55.175781"/>
       <use xlink:href="#Bahnschrift-30" x="77.832031"/>
       <use xlink:href="#Bahnschrift-30" x="133.007812"/>
       <use xlink:href="#Bahnschrift-30" x="188.183594"/>
      </g>
     </g>
    </g>
    <g id="ytick_5">
     <g id="line2d_11">
      <g>
       <use xlink:href="#m3db2c824cc" x="91.01" y="85.601511" style="stroke: #000000; stroke-width: 0.8"/>
      </g>
     </g>
     <g id="text_12">
      <!-- 0.002 -->
      <g transform="translate(45.6375 91.281511) scale(0.16 -0.16)">
       <use xlink:href="#Bahnschrift-30"/>
       <use xlink:href="#Bahnschrift-2e" x="55.175781"/>
       <use xlink:href="#Bahnschrift-30" x="77.832031"/>
       <use xlink:href="#Bahnschrift-30" x="133.007812"/>
       <use xlink:href="#Bahnschrift-32" x="188.183594"/>
      </g>
     </g>
    </g>
    <g id="ytick_6">
     <g id="line2d_12">
      <g>
       <use xlink:href="#m3db2c824cc" x="91.01" y="50.294786" style="stroke: #000000; stroke-width: 0.8"/>
      </g>
     </g>
     <g id="text_13">
      <!-- 0.004 -->
      <g transform="translate(44.8 55.974786) scale(0.16 -0.16)">
       <use xlink:href="#Bahnschrift-30"/>
       <use xlink:href="#Bahnschrift-2e" x="55.175781"/>
       <use xlink:href="#Bahnschrift-30" x="77.832031"/>
       <use xlink:href="#Bahnschrift-30" x="133.007812"/>
       <use xlink:href="#Bahnschrift-34" x="188.183594"/>
      </g>
     </g>
    </g>
    <g id="text_14">
     <!-- 2nd. Difference, mean: 0.00000 -->
     <g transform="translate(29.83 232.68) rotate(-90) scale(0.16 -0.16)">
      <defs>
       <path id="Bahnschrift-6e" d="M 500 0 
L 500 3244 
L 1138 3244 
L 1138 0 
L 500 0 
z
M 2469 0 
L 2469 1966 
Q 2469 2309 2292 2496 
Q 2116 2684 1791 2684 
Q 1478 2684 1308 2518 
Q 1138 2353 1138 2053 
L 1072 2678 
Q 1222 2972 1464 3131 
Q 1706 3291 2000 3291 
Q 2528 3291 2817 2945 
Q 3106 2600 3106 1969 
L 3106 0 
L 2469 0 
z
" transform="scale(0.015625)"/>
       <path id="Bahnschrift-64" d="M 2344 0 
L 2344 4544 
L 2981 4544 
L 2981 0 
L 2344 0 
z
M 1528 -56 
Q 991 -56 698 289 
Q 406 634 406 1263 
L 406 1978 
Q 406 2609 692 2954 
Q 978 3300 1497 3300 
Q 1784 3300 2023 3150 
Q 2263 3000 2409 2728 
L 2344 2066 
Q 2344 2272 2269 2419 
Q 2194 2566 2051 2642 
Q 1909 2719 1706 2719 
Q 1391 2719 1217 2522 
Q 1044 2325 1044 1969 
L 1044 1263 
Q 1044 909 1217 717 
Q 1391 525 1706 525 
Q 1909 525 2051 604 
Q 2194 684 2269 834 
Q 2344 984 2344 1194 
L 2388 509 
Q 2300 291 2086 117 
Q 1872 -56 1528 -56 
z
" transform="scale(0.015625)"/>
       <path id="Bahnschrift-20" transform="scale(0.015625)"/>
       <path id="Bahnschrift-44" d="M 994 0 
L 994 606 
L 2022 606 
Q 2525 606 2801 867 
Q 3078 1128 3078 1603 
L 3078 2941 
Q 3078 3416 2801 3677 
Q 2525 3938 2022 3938 
L 994 3938 
L 994 4544 
L 2003 4544 
Q 2828 4544 3279 4117 
Q 3731 3691 3731 2916 
L 3731 1628 
Q 3731 1113 3528 748 
Q 3325 384 2937 192 
Q 2550 0 2000 0 
L 994 0 
z
M 563 0 
L 563 4544 
L 1200 4544 
L 1200 0 
L 563 0 
z
" transform="scale(0.015625)"/>
       <path id="Bahnschrift-69" d="M 500 3906 
L 500 4544 
L 1138 4544 
L 1138 3906 
L 500 3906 
z
M 500 0 
L 500 3244 
L 1138 3244 
L 1138 0 
L 500 0 
z
" transform="scale(0.015625)"/>
       <path id="Bahnschrift-66" d="M 594 0 
L 594 3684 
Q 594 4113 791 4328 
Q 988 4544 1403 4544 
L 1872 4544 
L 1872 3938 
L 1416 3938 
Q 1319 3938 1275 3864 
Q 1231 3791 1231 3691 
L 1231 0 
L 594 0 
z
M 250 2700 
L 250 3244 
L 1872 3244 
L 1872 2700 
L 250 2700 
z
" transform="scale(0.015625)"/>
       <path id="Bahnschrift-72" d="M 500 0 
L 500 3244 
L 1138 3244 
L 1138 0 
L 500 0 
z
M 2284 2475 
Q 2200 2578 2072 2631 
Q 1944 2684 1775 2684 
Q 1472 2684 1305 2517 
Q 1138 2350 1138 2053 
L 1072 2678 
Q 1219 2966 1458 3128 
Q 1697 3291 1984 3291 
Q 2206 3291 2386 3227 
Q 2566 3163 2700 3038 
L 2284 2475 
z
" transform="scale(0.015625)"/>
       <path id="Bahnschrift-63" d="M 1809 -47 
Q 1141 -47 773 322 
Q 406 691 406 1363 
L 406 1897 
Q 406 2563 773 2927 
Q 1141 3291 1809 3291 
Q 2191 3291 2497 3156 
Q 2803 3022 2984 2772 
L 2984 2772 
L 2525 2359 
L 2525 2359 
Q 2391 2516 2206 2600 
Q 2022 2684 1819 2684 
Q 1450 2684 1247 2478 
Q 1044 2272 1044 1897 
L 1044 1363 
Q 1044 978 1247 768 
Q 1450 559 1819 559 
Q 2022 559 2206 650 
Q 2391 741 2525 906 
L 2525 906 
L 2984 463 
L 2984 463 
Q 2803 219 2495 86 
Q 2188 -47 1809 -47 
z
" transform="scale(0.015625)"/>
       <path id="Bahnschrift-2c" d="M 391 -1038 
L 391 669 
L 1059 669 
L 1059 -344 
L 391 -1038 
z
" transform="scale(0.015625)"/>
       <path id="Bahnschrift-6d" d="M 4375 0 
L 4375 1966 
Q 4375 2309 4198 2496 
Q 4022 2684 3697 2684 
Q 3400 2684 3237 2503 
Q 3075 2322 3075 1991 
L 2947 2616 
Q 3103 2941 3353 3116 
Q 3603 3291 3906 3291 
Q 4434 3291 4723 2945 
Q 5013 2600 5013 1969 
L 5013 0 
L 4375 0 
z
M 500 0 
L 500 3244 
L 1138 3244 
L 1138 0 
L 500 0 
z
M 2438 0 
L 2438 1966 
Q 2438 2309 2269 2496 
Q 2100 2684 1791 2684 
Q 1478 2684 1308 2518 
Q 1138 2353 1138 2053 
L 1072 2678 
Q 1222 2972 1464 3131 
Q 1706 3291 2000 3291 
Q 2513 3291 2794 2945 
Q 3075 2600 3075 1969 
L 3075 0 
L 2438 0 
z
" transform="scale(0.015625)"/>
       <path id="Bahnschrift-3a" d="M 391 0 
L 391 669 
L 1059 669 
L 1059 0 
L 391 0 
z
M 391 2606 
L 391 3275 
L 1059 3275 
L 1059 2606 
L 391 2606 
z
" transform="scale(0.015625)"/>
      </defs>
      <use xlink:href="#Bahnschrift-32"/>
      <use xlink:href="#Bahnschrift-6e" x="51.660156"/>
      <use xlink:href="#Bahnschrift-64" x="107.519531"/>
      <use xlink:href="#Bahnschrift-2e" x="161.425781"/>
      <use xlink:href="#Bahnschrift-20" x="184.082031"/>
      <use xlink:href="#Bahnschrift-44" x="210.9375"/>
      <use xlink:href="#Bahnschrift-69" x="276.5625"/>
      <use xlink:href="#Bahnschrift-66" x="301.660156"/>
      <use xlink:href="#Bahnschrift-66" x="333.349609"/>
      <use xlink:href="#Bahnschrift-65" x="365.039062"/>
      <use xlink:href="#Bahnschrift-72" x="418.652344"/>
      <use xlink:href="#Bahnschrift-65" x="461.328125"/>
      <use xlink:href="#Bahnschrift-6e" x="514.941406"/>
      <use xlink:href="#Bahnschrift-63" x="570.800781"/>
      <use xlink:href="#Bahnschrift-65" x="620.605469"/>
      <use xlink:href="#Bahnschrift-2c" x="674.21875"/>
      <use xlink:href="#Bahnschrift-20" x="696.875"/>
      <use xlink:href="#Bahnschrift-6d" x="723.730469"/>
      <use xlink:href="#Bahnschrift-65" x="809.375"/>
      <use xlink:href="#Bahnschrift-61" x="862.988281"/>
      <use xlink:href="#Bahnschrift-6e" x="916.210938"/>
      <use xlink:href="#Bahnschrift-3a" x="972.070312"/>
      <use xlink:href="#Bahnschrift-20" x="994.726562"/>
      <use xlink:href="#Bahnschrift-30" x="1021.582031"/>
      <use xlink:href="#Bahnschrift-2e" x="1076.757812"/>
      <use xlink:href="#Bahnschrift-30" x="1099.414062"/>
      <use xlink:href="#Bahnschrift-30" x="1154.589844"/>
      <use xlink:href="#Bahnschrift-30" x="1209.765625"/>
      <use xlink:href="#Bahnschrift-30" x="1264.941406"/>
      <use xlink:href="#Bahnschrift-30" x="1320.117188"/>
     </g>
    </g>
   </g>
   <g id="line2d_13">
    <path d="M 135.178636 110.684224 
L 136.09027 89.83311 
L 137.001903 133.156509 
L 137.913536 127.161528 
L 138.82517 135.448828 
L 139.736803 104.25547 
L 140.648437 132.917059 
L 141.56007 123.370941 
L 142.471703 90.022468 
L 143.383337 131.074257 
L 144.29497 124.197346 
L 145.206603 130.226989 
L 146.118237 117.031329 
L 147.02987 119.474398 
L 147.941503 104.684092 
L 148.853137 110.9821 
L 149.76477 134.726572 
L 150.676404 116.531856 
L 151.588037 132.008345 
L 152.49967 121.731156 
L 153.411304 125.928549 
L 154.322937 124.235708 
L 155.23457 119.888294 
L 156.146204 119.962789 
L 157.057837 121.398969 
L 157.96947 129.431934 
L 158.881104 122.242403 
L 159.792737 119.889072 
L 160.70437 132.062179 
L 161.616004 108.814577 
L 162.527637 135.625671 
L 163.439271 94.611138 
L 164.350904 131.855202 
L 165.262537 114.318979 
L 166.174171 128.652079 
L 167.085804 136.342234 
L 167.997437 86.634774 
L 168.909071 149.459272 
L 170.732337 97.367599 
L 171.643971 92.730633 
L 172.555604 164.617224 
L 173.467238 128.189009 
L 174.378871 84.823014 
L 175.290504 144.622345 
L 176.202138 92.44799 
L 177.113771 135.944008 
L 178.025404 115.007007 
L 178.937038 136.332878 
L 179.848671 126.723482 
L 180.760304 105.7448 
L 181.671938 150.041663 
L 182.583571 92.969522 
L 183.495205 129.314571 
L 185.318471 121.274504 
L 186.230105 130.019804 
L 187.141738 89.61318 
L 188.053371 131.093227 
L 188.965005 119.78405 
L 189.876638 165.283594 
L 190.788271 85.412683 
L 191.699905 100.557179 
L 192.611538 145.840019 
L 193.523171 105.085627 
L 194.434805 161.046394 
L 195.346438 84.052627 
L 196.258072 139.240196 
L 197.169705 86.720419 
L 198.081338 142.834575 
L 198.992972 109.565752 
L 199.904605 120.380883 
L 200.816238 126.848467 
L 201.727872 137.420099 
L 202.639505 118.201112 
L 203.551138 119.703894 
L 204.462772 110.959515 
L 205.374405 122.642277 
L 206.286039 113.660156 
L 207.197672 140.836566 
L 208.109305 97.167596 
L 209.020939 129.162418 
L 209.932572 144.135101 
L 210.844205 122.288766 
L 211.755839 95.447112 
L 212.667472 123.279499 
L 213.579105 120.53029 
L 214.490739 126.96559 
L 215.402372 126.495076 
L 216.314006 109.082273 
L 217.225639 126.496781 
L 218.137272 122.769518 
L 219.048906 132.42465 
L 219.960539 114.831654 
L 220.872172 103.328653 
L 221.783806 135.684252 
L 222.695439 126.021647 
L 223.607072 111.90685 
L 224.518706 122.809225 
L 225.430339 122.679088 
L 226.341973 123.013169 
L 227.253606 113.361724 
L 228.165239 123.432877 
L 229.076873 122.379159 
L 229.988506 116.644103 
L 230.900139 116.295832 
L 231.811773 129.254742 
L 232.723406 130.699767 
L 233.635039 120.079007 
L 234.546673 99.224986 
L 235.458306 136.992135 
L 236.369939 103.731288 
L 237.281573 131.104199 
L 238.193206 114.853233 
L 239.10484 131.042051 
L 240.016473 99.688258 
L 240.928106 150.723322 
L 241.83974 125.445787 
L 242.751373 106.691848 
L 243.663006 96.050576 
L 244.57464 137.578903 
L 245.486273 131.577681 
L 246.397906 106.659474 
L 247.30954 118.619236 
L 248.221173 143.468722 
L 249.132807 116.775936 
L 250.04444 116.942231 
L 250.956073 102.691217 
L 251.867707 112.493376 
L 252.77934 143.2863 
L 253.690973 130.977981 
L 254.602607 141.328769 
L 255.51424 59.340519 
L 256.425873 152.981444 
L 257.337507 124.364999 
L 258.24914 134.293698 
L 259.160774 77.867758 
L 260.072407 153.448826 
L 260.98404 114.605481 
L 261.895674 144.996949 
L 262.807307 105.98993 
L 263.71894 109.109616 
L 265.542207 124.647131 
L 266.45384 130.296248 
L 267.365474 96.126269 
L 268.277107 149.350424 
L 269.188741 120.621577 
L 270.100374 119.513467 
L 271.012007 115.180476 
L 271.923641 117.940809 
L 272.835274 95.57929 
L 273.746907 176.262178 
L 274.658541 86.853127 
L 275.570174 131.604746 
L 276.481807 107.000613 
L 277.393441 133.598935 
L 278.305074 100.085051 
L 279.216707 142.086259 
L 280.128341 106.489125 
L 281.039974 126.35412 
L 281.951608 126.973006 
L 282.863241 140.075199 
L 283.774874 96.12175 
L 284.686508 116.934087 
L 285.598141 114.612846 
L 286.509774 121.555045 
L 287.421408 130.463223 
L 288.333041 117.832308 
L 289.244674 130.681785 
L 290.156308 85.748631 
L 291.067941 164.077939 
L 291.979575 113.27996 
L 292.891208 118.581147 
L 293.802841 114.543692 
L 294.714475 137.278026 
L 296.537741 101.086447 
L 297.449375 113.54523 
L 298.361008 139.86756 
L 299.272641 106.425523 
L 300.184275 125.758268 
L 301.095908 116.921971 
L 302.007542 129.877769 
L 302.919175 134.301169 
L 303.830808 125.797981 
L 304.742442 109.8048 
L 305.654075 99.59231 
L 306.565708 162.32158 
L 307.477342 99.455296 
L 308.388975 136.690252 
L 309.300608 83.482468 
L 310.212242 133.147935 
L 311.123875 122.507686 
L 312.035508 114.380339 
L 312.947142 119.829199 
L 313.858775 129.295364 
L 314.770409 116.031126 
L 315.682042 128.196444 
L 316.593675 120.862906 
L 317.505309 138.123788 
L 318.416942 94.659513 
L 319.328575 126.717183 
L 321.151842 107.390804 
L 322.063475 134.103237 
L 322.975109 123.110272 
L 323.886742 134.717855 
L 324.798376 90.69666 
L 325.710009 102.019194 
L 326.621642 145.098343 
L 327.533276 151.662289 
L 328.444909 104.551005 
L 329.356542 126.509801 
L 330.268176 131.711056 
L 331.179809 116.622913 
L 332.091442 116.853072 
L 333.003076 138.764898 
L 333.914709 121.006288 
L 334.826343 105.799282 
L 335.737976 116.84816 
L 337.561243 129.273789 
L 338.472876 130.816053 
L 339.384509 113.574846 
L 340.296143 130.164262 
L 341.207776 125.444392 
L 342.119409 83.522056 
L 343.031043 136.074391 
L 343.942676 129.086035 
L 344.85431 113.360066 
L 345.765943 103.003567 
L 346.677576 141.368069 
L 347.58921 106.552134 
L 348.500843 119.884062 
L 349.412476 105.213442 
L 350.32411 113.872088 
L 351.235743 117.970341 
L 352.147376 127.399019 
L 353.05901 122.771324 
L 353.970643 122.832547 
L 354.882276 143.394894 
L 355.79391 91.473253 
L 356.705543 122.184664 
L 357.617177 134.855941 
L 358.52881 97.615668 
L 359.440443 123.104841 
L 360.352077 155.288831 
L 361.26371 128.493465 
L 362.175343 121.988982 
L 363.086977 96.094637 
L 363.99861 132.516764 
L 364.910243 106.17627 
L 365.821877 124.619776 
L 366.73351 135.064946 
L 367.645144 123.319498 
L 368.556777 137.228338 
L 369.46841 127.632916 
L 370.380044 84.627801 
L 371.291677 108.423264 
L 372.20331 137.3354 
L 373.114944 124.657607 
L 374.026577 118.456482 
L 374.93821 133.111533 
L 375.849844 103.677055 
L 376.761477 112.031511 
L 377.673111 141.963431 
L 378.584744 113.439077 
L 379.496377 114.487598 
L 380.408011 129.160286 
L 382.231277 119.576377 
L 383.142911 105.458505 
L 384.054544 140.75105 
L 384.966177 90.181054 
L 385.877811 145.10993 
L 386.789444 92.533247 
L 387.701077 143.938396 
L 388.612711 133.148146 
L 389.524344 140.613537 
L 390.435978 90.589176 
L 391.347611 124.043642 
L 392.259244 125.487405 
L 393.170878 123.443014 
L 394.082511 118.912654 
L 394.994144 129.17307 
L 395.905778 93.504728 
L 396.817411 137.596092 
L 397.729044 121.367811 
L 398.640678 120.626983 
L 399.552311 136.230284 
L 400.463945 102.08517 
L 401.375578 126.773496 
L 402.287211 114.770305 
L 403.198845 128.125812 
L 404.110478 110.596233 
L 405.022111 130.239399 
L 405.933745 124.486933 
L 406.845378 112.885749 
L 407.757011 119.465877 
L 408.668645 128.412934 
L 409.580278 110.243286 
L 410.491912 130.668478 
L 411.403545 100.420073 
L 412.315178 146.684132 
L 413.226812 129.702953 
L 414.138445 92.630914 
L 415.050078 143.370993 
L 415.961712 98.195815 
L 416.873345 127.239757 
L 417.784978 117.998708 
L 418.696612 116.099546 
L 419.608245 140.87763 
L 421.431512 115.130388 
L 422.343145 125.433358 
L 423.254779 90.925312 
L 424.166412 124.744298 
L 425.078045 143.662688 
L 425.989679 108.08623 
L 426.901312 121.226121 
L 427.812945 136.28089 
L 428.724579 109.331614 
L 429.636212 132.442227 
L 430.547845 113.637217 
L 431.459479 110.405552 
L 432.371112 141.546772 
L 433.282746 94.827679 
L 434.194379 136.979292 
L 435.106012 119.339071 
L 436.017646 115.658903 
L 436.929279 137.491894 
L 437.840912 111.625341 
L 438.752546 117.475413 
L 439.664179 103.445044 
L 440.575812 105.62516 
L 441.487446 186.301541 
L 442.399079 88.520662 
L 443.310713 119.507602 
L 444.222346 115.157072 
L 445.133979 142.54917 
L 446.045613 93.784081 
L 446.957246 130.952126 
L 447.868879 109.75765 
L 448.780513 116.440965 
L 449.692146 147.411746 
L 450.603779 94.912425 
L 451.515413 131.294742 
L 452.427046 109.643751 
L 453.33868 148.650004 
L 454.250313 95.537352 
L 455.161946 121.759048 
L 456.07358 124.062736 
L 456.985213 111.094151 
L 457.896846 147.345147 
L 458.80848 130.391754 
L 459.720113 102.601054 
L 460.631746 112.970072 
L 461.54338 113.743881 
L 462.455013 146.905299 
L 463.366646 91.658038 
L 464.27828 136.865435 
L 465.189913 113.343584 
L 466.101547 141.780597 
L 467.01318 106.544121 
L 467.924813 117.786778 
L 468.836447 151.60658 
L 469.74808 90.500507 
L 470.659713 138.668542 
L 471.571347 101.94078 
L 472.48298 149.116431 
L 473.394613 86.055288 
L 474.306247 133.926334 
L 475.21788 129.185905 
L 476.129514 120.386203 
L 477.041147 118.874452 
L 477.95278 127.119728 
L 478.864414 118.773788 
L 479.776047 119.820756 
L 480.68768 116.970592 
L 481.599314 133.429116 
L 482.510947 110.174846 
L 483.42258 109.643033 
L 484.334214 116.556427 
L 485.245847 124.931947 
L 486.157481 117.48897 
L 487.069114 124.395486 
L 487.980747 152.060467 
L 488.892381 89.447699 
L 489.804014 109.924204 
L 490.715647 134.560902 
L 491.627281 140.776546 
L 492.538914 103.314787 
L 493.450547 127.59573 
L 494.362181 84.694878 
L 495.273814 147.037732 
L 496.185448 111.041044 
L 497.097081 130.074995 
L 498.008714 133.097357 
L 498.920348 115.87243 
L 499.831981 111.466087 
L 500.743614 142.227306 
L 502.566881 103.23239 
L 503.478514 144.659745 
L 504.390148 130.783846 
L 505.301781 26.86 
L 506.213414 159.874938 
L 507.125048 159.114644 
L 508.036681 130.327765 
L 508.948315 79.134299 
L 509.859948 129.842753 
L 510.771581 128.613031 
L 511.683215 129.922049 
L 512.594848 127.16953 
L 513.506481 105.317221 
L 514.418115 121.768914 
L 515.329748 123.971457 
L 516.241381 104.020475 
L 517.153015 122.041086 
L 518.064648 121.579047 
L 518.976282 99.388371 
L 519.887915 144.77409 
L 520.799548 149.431452 
L 521.711182 84.434325 
L 522.622815 107.711488 
L 523.534448 218.46 
L 524.446082 65.017743 
L 525.357715 118.628331 
L 526.269348 98.893212 
L 527.180982 148.748702 
L 529.004249 100.416186 
L 529.915882 101.725033 
L 530.827515 163.969146 
L 531.739149 112.67746 
L 532.650782 109.534101 
L 533.562415 114.934237 
L 534.474049 144.766863 
L 535.385682 94.52357 
L 536.297315 134.367434 
L 537.208949 117.175847 
L 538.120582 132.116309 
L 539.032215 105.890322 
L 539.943849 128.298293 
L 540.855482 143.336104 
L 541.767116 89.310936 
L 542.678749 135.106201 
L 543.590382 84.85011 
L 544.502016 144.932649 
L 545.413649 139.987023 
L 546.325282 89.556676 
L 547.236916 135.692272 
L 548.148549 127.457296 
L 549.060182 93.796002 
L 549.971816 146.697367 
L 550.883449 117.141732 
L 551.795083 112.181312 
L 552.706716 114.694898 
L 553.618349 156.44102 
L 554.529983 107.651145 
L 555.441616 123.27948 
L 556.353249 106.438095 
L 557.264883 111.723193 
L 558.176516 151.696533 
L 559.088149 79.265392 
L 559.999783 144.113597 
L 560.911416 120.199728 
L 561.82305 133.266828 
L 562.734683 116.725987 
L 563.646316 105.778913 
L 564.55795 144.254467 
L 565.469583 115.709296 
L 566.381216 126.275126 
L 567.29285 123.753117 
L 568.204483 101.299697 
L 569.116116 107.372862 
L 570.02775 153.727808 
L 570.939383 106.901786 
L 571.851017 107.313026 
L 572.76265 124.431676 
L 573.674283 135.96617 
L 574.585917 108.50189 
L 575.49755 129.768456 
L 576.409183 84.626383 
L 577.320817 142.916997 
L 578.23245 146.89638 
L 579.144083 107.687825 
L 580.055717 115.7693 
L 580.96735 126.298201 
L 581.878983 118.611487 
L 582.790617 101.028577 
L 583.70225 136.485955 
L 584.613884 94.319527 
L 585.525517 137.808392 
L 586.43715 121.748962 
L 587.348784 149.817676 
L 588.260417 103.767594 
L 589.17205 110.439084 
L 590.083684 151.780166 
L 590.995317 111.617567 
L 591.90695 116.96417 
L 592.818584 127.903968 
L 593.730217 110.50502 
L 594.641851 134.70461 
L 595.553484 120.638572 
L 596.465117 84.325857 
L 597.376751 144.493092 
L 598.288384 138.484854 
L 599.200017 91.128132 
L 600.111651 123.822576 
L 601.023284 139.10524 
L 602.846551 112.506303 
L 603.758184 117.400951 
L 604.669818 117.954763 
L 605.581451 106.203722 
L 606.493084 132.432344 
L 607.404718 131.745188 
L 608.316351 86.411577 
L 609.227984 134.912228 
L 610.139618 130.514822 
L 611.051251 110.555171 
L 611.962884 143.195961 
L 612.874518 87.370949 
L 613.786151 148.927107 
L 614.697785 127.542288 
L 615.609418 109.729983 
L 616.521051 100.676112 
L 617.432685 147.246164 
L 619.255951 115.824028 
L 620.167585 112.046034 
L 621.079218 111.138776 
L 621.990851 148.566941 
L 622.902485 113.54632 
L 623.814118 127.236198 
L 624.725751 47.481505 
L 625.637385 162.291449 
L 626.549018 137.53388 
L 627.460652 126.100869 
L 628.372285 112.803017 
L 629.283918 135.015133 
L 630.195552 98.15618 
L 631.107185 154.676269 
L 632.018818 98.584113 
L 632.930452 106.961011 
L 633.842085 116.410901 
L 634.753718 143.30652 
L 635.665352 115.30995 
L 636.576985 103.359729 
L 637.488619 120.420344 
L 638.400252 132.759907 
L 639.311885 131.25396 
L 640.223519 113.89904 
L 641.135152 124.125686 
L 642.046785 102.924499 
L 642.958419 183.416427 
L 643.870052 92.645866 
L 644.781685 97.170774 
L 645.693319 130.201704 
L 646.604952 119.246733 
L 647.516586 118.264965 
L 648.428219 130.529417 
L 649.339852 103.334842 
L 650.251486 116.201445 
L 651.163119 132.599748 
L 652.074752 113.495375 
L 652.986386 128.117651 
L 653.898019 114.297878 
L 654.809652 126.874013 
L 655.721286 134.159605 
L 656.632919 106.758216 
L 657.544552 138.761912 
L 658.456186 97.966124 
L 659.367819 108.52467 
L 660.279453 156.281834 
L 661.191086 108.205643 
L 662.102719 120.359028 
L 663.014353 117.726421 
L 663.925986 113.795564 
L 664.837619 107.464432 
L 665.749253 149.919992 
L 666.660886 102.941536 
L 667.572519 129.21631 
L 668.484153 148.240976 
L 669.395786 103.938656 
L 670.30742 130.081578 
L 671.219053 100.796208 
L 672.130686 124.187127 
L 673.04232 109.9203 
L 673.953953 132.191741 
L 674.865586 84.713126 
L 675.77722 150.762107 
L 676.688853 105.255841 
L 677.600486 141.89465 
L 678.51212 117.505132 
L 679.423753 120.204933 
L 680.335387 122.450228 
L 681.24702 148.311603 
L 682.158653 111.354282 
L 683.070287 123.4733 
L 683.98192 113.81693 
L 684.893553 124.521633 
L 685.805187 127.994451 
L 686.71682 90.206125 
L 687.628453 135.439638 
L 688.540087 124.660078 
L 689.45172 126.538072 
L 690.363354 129.250617 
L 692.18662 107.823198 
L 693.098254 158.793522 
L 694.009887 75.152837 
L 694.92152 155.179955 
L 695.833154 86.229768 
L 696.744787 123.528116 
L 697.65642 125.368861 
L 698.568054 136.584954 
L 699.479687 117.345628 
L 700.39132 102.954948 
L 701.302954 136.678183 
L 702.214587 95.181413 
L 703.126221 123.669169 
L 704.037854 118.758076 
L 704.949487 133.272643 
L 705.861121 135.513811 
L 706.772754 108.436071 
L 707.684387 120.093911 
L 708.596021 114.596812 
L 709.507654 130.02346 
L 710.419287 131.945693 
L 711.330921 74.37873 
L 712.242554 156.957761 
L 713.154188 108.471984 
L 714.065821 125.216634 
L 714.977454 115.641213 
L 715.889088 127.907613 
L 716.800721 104.973683 
L 717.712354 128.144767 
L 718.623988 115.193513 
L 719.535621 116.476881 
L 720.447254 130.873091 
L 721.358888 112.559476 
L 722.270521 132.284471 
L 723.182155 105.127206 
L 724.093788 108.313167 
L 725.005421 143.375659 
L 725.917055 116.249988 
L 726.828688 127.46705 
L 727.740321 121.841782 
L 728.651955 109.703027 
L 729.563588 167.87296 
L 730.475221 97.56509 
L 731.386855 100.392241 
L 732.298488 167.734315 
L 733.210121 84.127922 
L 734.121755 126.618626 
L 735.945022 109.975106 
L 736.856655 136.769403 
L 737.768288 113.955988 
L 738.679922 131.071759 
L 739.591555 122.079218 
L 740.503188 117.412216 
L 741.414822 139.557651 
L 742.326455 98.308037 
L 743.238088 113.212873 
L 744.149722 122.573784 
L 745.061355 136.667268 
L 745.972989 124.609064 
L 746.884622 120.117179 
L 747.796255 103.717999 
L 748.707889 140.988535 
L 749.619522 100.824248 
L 751.442789 140.535566 
L 752.354422 122.257181 
L 753.266055 87.534115 
L 754.177689 153.201154 
L 755.089322 109.126815 
L 756.000956 136.133128 
L 756.912589 87.482068 
L 757.824222 133.643808 
L 758.735856 125.736476 
L 759.647489 112.911409 
L 760.559122 167.921613 
L 761.470756 91.074797 
L 762.382389 105.903353 
L 763.294022 106.233271 
L 764.205656 139.402345 
L 765.117289 117.52334 
L 766.028923 119.500226 
L 766.940556 106.04614 
L 767.852189 164.771608 
L 768.763823 93.422909 
L 769.675456 134.077155 
L 770.587089 93.673675 
L 771.498723 167.472369 
L 772.410356 78.64808 
L 773.321989 161.770338 
L 774.233623 85.953441 
L 775.145256 138.6369 
L 776.056889 104.824059 
L 776.968523 147.570074 
L 778.79179 68.621024 
L 779.703423 143.776657 
L 780.615056 155.976397 
L 781.52669 101.28214 
L 782.438323 136.501364 
L 783.349956 99.855932 
L 784.26159 126.929755 
L 785.173223 130.690316 
L 786.084856 103.197702 
L 786.99649 112.020145 
L 787.908123 124.01355 
L 788.819757 140.008509 
L 789.73139 123.638172 
L 790.643023 101.712827 
L 791.554657 111.09166 
L 792.46629 137.909084 
L 793.377923 138.456446 
L 794.289557 140.182335 
L 795.20119 66.548901 
L 796.112823 114.949242 
L 797.024457 183.246858 
L 797.93609 102.917828 
L 798.847724 108.84761 
L 799.759357 118.327785 
L 800.67099 88.846634 
L 801.582624 133.367561 
L 802.494257 139.330958 
L 803.40589 121.292594 
L 804.317524 118.857067 
L 805.229157 155.669135 
L 806.14079 98.529452 
L 807.052424 128.502569 
L 807.964057 89.89107 
L 808.87569 152.860446 
L 809.787324 111.776654 
L 810.698957 108.334951 
L 811.610591 123.507541 
L 812.522224 109.623995 
L 813.433857 138.842264 
L 814.345491 117.204007 
L 815.257124 103.990206 
L 816.168757 121.793073 
L 817.080391 134.275608 
L 817.992024 151.418184 
L 818.903657 107.294122 
L 819.815291 132.456688 
L 820.726924 96.489416 
L 821.638558 109.511434 
L 822.550191 125.076607 
L 823.461824 108.098299 
L 824.373458 157.99054 
L 825.285091 112.84035 
L 826.196724 97.693451 
L 827.108358 113.152002 
L 828.019991 146.647061 
L 828.931624 129.341125 
L 829.843258 99.852556 
L 831.666525 136.551195 
L 832.578158 116.110161 
L 833.489791 128.98116 
L 834.401425 156.518517 
L 835.313058 72.014397 
L 836.224691 112.66034 
L 837.136325 141.712821 
L 838.047958 105.052518 
L 838.959591 108.713307 
L 839.871225 140.853836 
L 840.782858 129.089366 
L 841.694492 111.094126 
L 842.606125 88.797039 
L 843.517758 140.839205 
L 844.429392 162.718773 
L 845.341025 106.489887 
L 846.252658 99.336646 
L 847.164292 131.809948 
L 848.075925 121.35551 
L 848.987558 139.283901 
L 849.899192 80.034366 
L 850.810825 151.528272 
L 851.722458 78.559033 
L 852.634092 114.65609 
L 853.545725 162.708065 
L 854.457359 131.731867 
L 855.368992 92.169708 
L 856.280625 131.452872 
L 857.192259 145.343504 
L 858.103892 92.532982 
L 859.015525 124.170449 
L 859.927159 123.523968 
L 860.838792 136.902273 
L 861.750425 117.129217 
L 862.662059 100.906292 
L 863.573692 125.863248 
L 864.485326 119.920584 
L 865.396959 117.677549 
L 866.308592 92.437882 
L 867.220226 144.105445 
L 868.131859 132.774457 
L 869.043492 92.8098 
L 869.955126 153.455011 
L 870.866759 84.087434 
L 871.778392 132.408709 
L 872.690026 124.501599 
L 873.601659 144.569723 
L 874.513293 129.779201 
L 875.424926 100.733656 
L 876.336559 135.698792 
L 877.248193 93.275398 
L 879.071459 141.212997 
L 879.983093 99.453884 
L 880.894726 137.054418 
L 881.806359 133.701139 
L 882.717993 111.007909 
L 883.629626 108.409505 
L 884.541259 158.21717 
L 885.452893 77.433407 
L 886.364526 132.890545 
L 887.27616 164.982844 
L 888.187793 107.995882 
L 889.099426 116.263653 
L 890.01106 112.598878 
L 890.922693 106.617806 
L 891.834326 107.84084 
L 892.74596 122.87682 
L 893.657593 133.270673 
L 894.569226 113.531584 
L 895.48086 146.140601 
L 896.392493 105.604387 
L 897.304127 97.425382 
L 898.21576 125.784443 
L 899.127393 112.354914 
L 900.039027 127.365967 
L 900.95066 130.040192 
L 901.862293 109.520252 
L 902.773927 134.095769 
L 903.68556 135.547343 
L 904.597193 131.881455 
L 905.508827 81.124582 
L 906.42046 134.682661 
L 907.332094 138.973672 
L 908.243727 116.277228 
L 909.15536 126.220012 
L 910.066994 120.150939 
L 910.978627 78.09329 
L 911.89026 157.943693 
L 912.801894 130.405738 
L 913.713527 120.906009 
L 914.62516 119.465622 
L 915.536794 115.910333 
L 916.448427 126.603042 
L 917.360061 130.810892 
L 918.271694 89.305805 
L 919.183327 147.366324 
L 920.094961 117.859497 
L 921.006594 116.340888 
L 921.918227 128.957384 
L 922.829861 96.724556 
L 923.741494 156.981772 
L 924.653127 107.323523 
L 925.564761 113.254494 
L 926.476394 116.375041 
L 927.388027 119.005896 
L 928.299661 142.323237 
L 929.211294 133.682734 
L 930.122928 84.266241 
L 931.034561 126.28698 
L 931.946194 107.536078 
L 932.857828 133.095497 
L 933.769461 123.832955 
L 934.681094 120.484144 
L 935.592728 118.14982 
L 936.504361 135.898099 
L 937.415994 96.985804 
L 938.327628 142.497868 
L 939.239261 102.691949 
L 941.062528 142.006535 
L 941.974161 93.841989 
L 942.885795 106.432958 
L 943.797428 144.887368 
L 944.709061 115.816185 
L 945.620695 126.163575 
L 946.532328 86.590406 
L 947.443961 145.406619 
L 948.355595 126.527739 
L 949.267228 83.198435 
L 950.178862 143.89343 
L 951.090495 139.381924 
L 952.002128 126.201304 
L 952.913762 109.210959 
L 953.825395 124.178112 
L 954.737028 102.910498 
L 955.648662 126.008038 
L 956.560295 107.771117 
L 957.471928 146.775642 
L 958.383562 94.581596 
L 959.295195 152.8562 
L 960.206829 110.92258 
L 961.118462 128.827171 
L 962.030095 115.269555 
L 962.941729 115.618375 
L 963.853362 110.37904 
L 964.764995 155.751131 
L 965.676629 119.924103 
L 966.588262 101.910394 
L 967.499895 160.674873 
L 968.411529 116.609859 
L 969.323162 90.355399 
L 970.234795 120.222246 
L 971.146429 117.390812 
L 972.058062 97.708272 
L 972.969696 167.3098 
L 973.881329 89.828484 
L 974.792962 165.374568 
L 975.704596 85.491072 
L 976.616229 156.844219 
L 977.527862 56.047454 
L 978.439496 139.37504 
L 979.351129 158.023119 
L 980.262762 90.336194 
L 981.174396 137.397485 
L 982.086029 136.471224 
L 982.997663 89.260015 
L 983.909296 117.155662 
L 984.820929 126.915475 
L 985.732563 123.942117 
L 986.644196 87.863981 
L 987.555829 147.287706 
L 988.467463 125.283389 
L 989.379096 139.048018 
L 991.202363 101.05543 
L 992.113996 145.4158 
L 993.02563 102.514932 
L 993.937263 135.268948 
L 994.848896 103.451393 
L 995.76053 138.213591 
L 996.672163 127.41649 
L 997.583796 99.626718 
L 998.49543 132.273263 
L 999.407063 114.747425 
L 1000.318696 88.567614 
L 1001.23033 141.291047 
L 1002.141963 127.580511 
L 1003.053596 136.850855 
L 1003.96523 78.762145 
L 1004.876863 162.122891 
L 1005.788497 125.737167 
L 1006.70013 98.134044 
L 1007.611763 111.682179 
L 1008.523397 145.533925 
L 1009.43503 112.617995 
L 1010.346663 129.105189 
L 1011.258297 106.502097 
L 1012.16993 106.861904 
L 1013.081563 138.617139 
L 1013.993197 141.019904 
L 1014.90483 95.458516 
L 1015.816464 109.043399 
L 1016.728097 134.61802 
L 1017.63973 121.63258 
L 1018.551364 121.423619 
L 1018.551364 121.423619 
" clip-path="url(#p6c6671e6ed)" style="fill: none; stroke: #d2dbe0; stroke-width: 1.5; stroke-linecap: square"/>
   </g>
   <g id="line2d_14">
    <path d="M 135.178636 120.464743 
L 136.09027 121.607426 
L 137.001903 120.251936 
L 137.913536 120.791943 
L 138.82517 119.766859 
L 139.736803 119.877025 
L 140.648437 119.828958 
L 141.56007 119.641665 
L 142.471703 120.360826 
L 143.383337 119.475929 
L 144.29497 120.238145 
L 145.206603 121.958275 
L 146.118237 121.294864 
L 147.02987 120.934927 
L 147.941503 120.232434 
L 148.853137 121.491258 
L 149.76477 120.957525 
L 150.676404 120.783431 
L 151.588037 122.885417 
L 152.49967 121.772433 
L 153.411304 122.343849 
L 154.322937 120.563056 
L 155.23457 121.30425 
L 156.146204 121.046479 
L 157.96947 123.512885 
L 158.881104 121.108295 
L 159.792737 122.754666 
L 160.70437 122.283375 
L 161.616004 121.065197 
L 162.527637 119.405301 
L 163.439271 121.424377 
L 164.350904 121.839413 
L 165.262537 120.082424 
L 166.174171 121.243593 
L 167.085804 119.394396 
L 167.997437 120.079476 
L 168.909071 119.835373 
L 169.820704 120.048908 
L 170.732337 120.944353 
L 171.643971 119.450309 
L 172.555604 122.221836 
L 173.467238 120.277552 
L 174.378871 121.027331 
L 175.290504 120.86749 
L 176.202138 120.114103 
L 177.113771 122.283355 
L 178.025404 119.29105 
L 178.937038 119.716586 
L 179.848671 120.837408 
L 180.760304 124.465056 
L 181.671938 120.504829 
L 182.583571 119.123238 
L 183.495205 122.174088 
L 184.406838 120.197252 
L 185.318471 123.627172 
L 186.230105 121.032603 
L 187.141738 122.244263 
L 188.053371 119.76364 
L 188.965005 120.569194 
L 189.876638 120.760242 
L 190.788271 119.277203 
L 191.699905 120.97115 
L 192.611538 121.376427 
L 193.523171 121.01372 
L 194.434805 120.935189 
L 195.346438 119.982175 
L 196.258072 121.633629 
L 197.169705 120.761976 
L 198.081338 121.814602 
L 198.992972 118.408802 
L 200.816238 122.775185 
L 201.727872 121.597622 
L 202.639505 121.115696 
L 203.551138 119.227351 
L 204.462772 121.051235 
L 205.374405 120.437504 
L 206.286039 122.426237 
L 207.197672 120.738622 
L 208.109305 121.585174 
L 209.020939 121.704605 
L 209.932572 121.983414 
L 210.844205 120.853992 
L 211.755839 120.110369 
L 213.579105 121.662494 
L 214.490739 121.125722 
L 215.402372 121.583176 
L 216.314006 120.675302 
L 217.225639 121.967581 
L 218.137272 121.177546 
L 219.048906 120.142435 
L 219.960539 120.146954 
L 220.872172 121.206804 
L 221.783806 120.857621 
L 222.695439 121.293843 
L 223.607072 121.480552 
L 224.518706 121.159749 
L 225.430339 120.666884 
L 226.341973 121.191652 
L 227.253606 120.23974 
L 229.076873 120.174797 
L 229.988506 121.560467 
L 230.900139 119.760667 
L 231.811773 120.995751 
L 232.723406 121.672698 
L 233.635039 120.866829 
L 234.546673 119.535403 
L 235.458306 120.26369 
L 236.369939 121.174488 
L 237.281573 120.335817 
L 238.193206 120.147821 
L 239.10484 121.489052 
L 240.016473 121.513057 
L 240.928106 120.897432 
L 241.83974 119.497004 
L 242.751373 119.117723 
L 243.663006 121.320789 
L 244.57464 121.020081 
L 245.486273 122.899955 
L 246.397906 119.311771 
L 247.30954 121.218181 
L 248.221173 120.884329 
L 249.132807 122.614601 
L 250.04444 118.971823 
L 250.956073 120.371975 
L 251.867707 120.767656 
L 252.77934 123.214975 
L 253.690973 121.635526 
L 254.602607 120.512123 
L 255.51424 121.02899 
L 256.425873 121.330385 
L 257.337507 120.671761 
L 258.24914 119.639278 
L 259.160774 121.259687 
L 260.072407 122.156205 
L 260.98404 122.50721 
L 261.895674 121.101919 
L 262.807307 120.45006 
L 263.71894 118.162586 
L 264.630574 124.008669 
L 265.542207 120.702253 
L 266.45384 121.064241 
L 267.365474 119.699586 
L 268.277107 122.486145 
L 269.188741 119.817956 
L 270.100374 121.191995 
L 271.012007 119.266604 
L 273.746907 122.331903 
L 274.658541 120.905633 
L 275.570174 120.237525 
L 276.481807 121.161854 
L 277.393441 119.772085 
L 278.305074 120.264168 
L 279.216707 120.18011 
L 280.128341 120.955175 
L 281.039974 119.345566 
L 281.951608 122.770499 
L 282.863241 119.621388 
L 283.774874 121.207789 
L 284.686508 120.354736 
L 285.598141 121.868607 
L 286.509774 121.194185 
L 287.421408 121.244254 
L 288.333041 119.817203 
L 289.244674 121.486125 
L 290.156308 120.489695 
L 291.067941 120.428958 
L 291.979575 119.271296 
L 292.891208 120.959097 
L 293.802841 121.827452 
L 294.714475 122.386708 
L 295.626108 121.799196 
L 296.537741 120.25565 
L 297.449375 122.480114 
L 298.361008 120.91879 
L 299.272641 123.465871 
L 300.184275 119.436097 
L 301.095908 120.429496 
L 302.007542 120.625823 
L 302.919175 120.617655 
L 303.830808 119.745214 
L 304.742442 120.204457 
L 306.565708 121.684252 
L 307.477342 120.734019 
L 308.388975 122.318933 
L 309.300608 120.763995 
L 310.212242 121.253755 
L 311.123875 120.603815 
L 312.035508 119.258297 
L 312.947142 119.67356 
L 313.858775 120.338833 
L 314.770409 122.095111 
L 315.682042 118.513865 
L 316.593675 118.64206 
L 317.505309 119.062464 
L 318.416942 122.471455 
L 319.328575 121.041609 
L 320.240209 121.241714 
L 321.151842 122.10825 
L 322.063475 121.947936 
L 322.975109 121.325821 
L 323.886742 122.46251 
L 324.798376 122.103002 
L 325.710009 121.349821 
L 326.621642 120.28604 
L 327.533276 121.69448 
L 328.444909 121.82231 
L 329.356542 122.519164 
L 330.268176 122.828366 
L 331.179809 122.631418 
L 332.091442 122.748124 
L 333.003076 120.188334 
L 333.914709 122.45722 
L 334.826343 123.810562 
L 335.737976 122.223648 
L 336.649609 119.790712 
L 337.561243 121.631565 
L 338.472876 120.633682 
L 340.296143 119.471859 
L 341.207776 119.32281 
L 342.119409 118.283082 
L 343.031043 118.602718 
L 343.942676 119.45132 
L 344.85431 119.75054 
L 345.765943 120.778869 
L 346.677576 118.888842 
L 347.58921 118.457273 
L 348.500843 119.521327 
L 349.412476 117.893898 
L 350.32411 117.77692 
L 351.235743 121.365259 
L 353.05901 120.63136 
L 353.970643 119.768088 
L 354.882276 121.243748 
L 355.79391 119.484158 
L 359.440443 123.2197 
L 360.352077 123.702829 
L 361.26371 121.564268 
L 362.175343 120.846865 
L 363.086977 121.572007 
L 363.99861 120.635143 
L 364.910243 121.984304 
L 365.821877 122.530648 
L 366.73351 120.971704 
L 367.645144 121.692496 
L 368.556777 122.635425 
L 369.46841 120.542938 
L 370.380044 119.842644 
L 371.291677 120.201209 
L 372.20331 121.603764 
L 373.114944 120.956744 
L 374.026577 120.920856 
L 374.93821 121.72742 
L 375.849844 119.483225 
L 376.761477 120.572747 
L 377.673111 118.337992 
L 378.584744 119.153266 
L 379.496377 121.579284 
L 380.408011 123.188797 
L 381.319644 120.851486 
L 382.231277 120.820788 
L 383.142911 121.172334 
L 384.054544 120.688908 
L 385.877811 122.307766 
L 386.789444 119.884831 
L 387.701077 121.092682 
L 388.612711 121.436692 
L 389.524344 121.010027 
L 390.435978 121.614255 
L 391.347611 120.739695 
L 392.259244 121.805444 
L 393.170878 120.506407 
L 394.082511 122.403645 
L 394.994144 120.67796 
L 395.905778 122.563268 
L 398.640678 119.520192 
L 399.552311 121.41138 
L 400.463945 120.721362 
L 401.375578 120.980416 
L 402.287211 119.829268 
L 403.198845 121.217842 
L 405.022111 121.200646 
L 405.933745 121.489391 
L 406.845378 120.330791 
L 407.757011 120.66143 
L 408.668645 119.749851 
L 411.403545 121.795265 
L 412.315178 121.145494 
L 413.226812 121.88735 
L 414.138445 119.921646 
L 415.050078 119.934514 
L 415.961712 121.473361 
L 416.873345 120.904379 
L 417.784978 120.545038 
L 418.696612 121.846918 
L 419.608245 120.780075 
L 420.519879 122.381183 
L 421.431512 120.728837 
L 422.343145 119.763967 
L 423.254779 122.20976 
L 424.166412 119.782594 
L 425.078045 121.721768 
L 425.989679 121.326734 
L 426.901312 121.209743 
L 427.812945 122.279361 
L 428.724579 120.816746 
L 430.547845 119.728246 
L 431.459479 118.737836 
L 432.371112 123.506647 
L 433.282746 121.695465 
L 434.194379 120.487711 
L 435.106012 120.841253 
L 436.017646 121.907406 
L 436.929279 119.782565 
L 437.840912 120.863591 
L 438.752546 119.729362 
L 439.664179 119.869549 
L 440.575812 121.719859 
L 441.487446 119.388142 
L 442.399079 121.211495 
L 443.310713 119.844718 
L 444.222346 121.310265 
L 445.133979 120.304187 
L 446.045613 119.517545 
L 446.957246 120.139414 
L 447.868879 119.820351 
L 448.780513 122.015357 
L 449.692146 123.253686 
L 450.603779 119.068662 
L 451.515413 120.291132 
L 452.427046 120.002946 
L 453.33868 121.590358 
L 454.250313 119.045801 
L 455.161946 121.199869 
L 456.07358 120.319442 
L 456.985213 121.920589 
L 457.896846 121.425747 
L 458.80848 119.944499 
L 459.720113 122.779206 
L 460.631746 120.739495 
L 461.54338 122.190734 
L 462.455013 119.855273 
L 463.366646 122.534227 
L 464.27828 120.749039 
L 465.189913 121.242219 
L 466.101547 122.146806 
L 467.01318 120.798859 
L 467.924813 120.222994 
L 468.836447 121.448928 
L 470.659713 122.042957 
L 471.571347 120.546222 
L 472.48298 122.634776 
L 473.394613 121.300246 
L 474.306247 121.115219 
L 475.21788 119.85401 
L 476.129514 120.773402 
L 477.041147 120.758511 
L 477.95278 119.397957 
L 478.864414 122.475955 
L 479.776047 120.014912 
L 480.68768 120.414084 
L 481.599314 119.686307 
L 482.510947 122.42237 
L 483.42258 120.891793 
L 484.334214 120.812284 
L 485.245847 119.027718 
L 486.157481 120.435882 
L 487.069114 119.631948 
L 488.892381 120.860838 
L 489.804014 120.80593 
L 490.715647 119.707778 
L 491.627281 121.310401 
L 492.538914 121.930903 
L 493.450547 121.264701 
L 494.362181 122.251091 
L 495.273814 122.915835 
L 496.185448 118.039061 
L 497.097081 118.429784 
L 498.008714 121.913132 
L 498.920348 122.93331 
L 499.831981 120.16198 
L 500.743614 119.61529 
L 501.655248 120.880202 
L 502.566881 120.996518 
L 503.478514 123.120251 
L 504.390148 121.034225 
L 505.301781 121.570619 
L 506.213414 121.265442 
L 507.125048 119.811598 
L 508.036681 120.12003 
L 508.948315 120.625678 
L 509.859948 118.483732 
L 510.771581 119.619782 
L 511.683215 121.929736 
L 512.594848 118.918465 
L 513.506481 117.764847 
L 514.418115 127.344847 
L 515.329748 122.601987 
L 516.241381 120.577671 
L 517.153015 119.005944 
L 518.064648 122.486664 
L 518.976282 122.197617 
L 520.799548 119.377924 
L 521.711182 121.217905 
L 522.622815 121.585917 
L 523.534448 120.974176 
L 524.446082 120.522315 
L 525.357715 122.559634 
L 526.269348 121.183759 
L 527.180982 121.823178 
L 528.092615 122.712552 
L 529.004249 122.079663 
L 529.915882 119.902606 
L 530.827515 122.095805 
L 531.739149 123.877035 
L 532.650782 117.419582 
L 533.562415 120.924005 
L 534.474049 119.235094 
L 535.385682 121.537066 
L 536.297315 121.098982 
L 537.208949 119.373725 
L 538.120582 121.137529 
L 539.032215 122.424142 
L 539.943849 118.915485 
L 540.855482 120.616481 
L 541.767116 120.996862 
L 542.678749 120.859216 
L 543.590382 119.355618 
L 544.502016 122.45149 
L 545.413649 121.115676 
L 546.325282 121.420857 
L 547.236916 120.136947 
L 548.148549 120.42859 
L 549.060182 121.598502 
L 549.971816 118.394967 
L 550.883449 121.1351 
L 551.795083 120.389776 
L 552.706716 122.810612 
L 553.618349 121.400279 
L 554.529983 119.689873 
L 555.441616 122.424763 
L 556.353249 121.425614 
L 557.264883 121.366506 
L 558.176516 122.864361 
L 559.088149 120.594478 
L 559.999783 120.106034 
L 560.911416 122.183359 
L 561.82305 121.793703 
L 562.734683 119.337304 
L 563.646316 120.17633 
L 564.55795 120.810665 
L 565.469583 120.913854 
L 566.381216 121.816118 
L 567.29285 118.46261 
L 568.204483 121.64519 
L 569.116116 121.78433 
L 570.02775 121.158734 
L 570.939383 120.283858 
L 571.851017 120.762469 
L 572.76265 121.404097 
L 573.674283 119.242803 
L 574.585917 120.281636 
L 575.49755 118.683856 
L 576.409183 119.38662 
L 577.320817 120.409083 
L 578.23245 122.531324 
L 579.144083 120.033313 
L 580.055717 120.210178 
L 580.96735 122.433535 
L 581.878983 121.792829 
L 582.790617 120.842729 
L 583.70225 121.812833 
L 584.613884 120.849662 
L 585.525517 123.353573 
L 586.43715 122.239652 
L 587.348784 119.111126 
L 588.260417 120.951389 
L 589.17205 122.087167 
L 590.083684 120.328663 
L 590.995317 120.589218 
L 591.90695 122.493051 
L 592.818584 121.938323 
L 593.730217 122.847662 
L 594.641851 121.82729 
L 595.553484 121.63758 
L 596.465117 119.456883 
L 597.376751 120.89012 
L 598.288384 121.955425 
L 599.200017 118.686996 
L 600.111651 119.851729 
L 601.023284 120.529262 
L 601.934917 119.661822 
L 602.846551 121.296369 
L 603.758184 118.929686 
L 604.669818 120.344112 
L 605.581451 122.504934 
L 607.404718 118.876341 
L 608.316351 121.682243 
L 609.227984 122.041778 
L 610.139618 120.877718 
L 611.051251 120.210449 
L 611.962884 120.142073 
L 612.874518 121.700372 
L 613.786151 121.47995 
L 614.697785 122.531574 
L 615.609418 118.284032 
L 616.521051 119.811345 
L 617.432685 122.36746 
L 618.344318 121.926892 
L 619.255951 121.041302 
L 620.167585 122.2643 
L 621.079218 120.012311 
L 621.990851 123.377577 
L 622.902485 120.860427 
L 623.814118 119.831363 
L 624.725751 120.165409 
L 625.637385 122.29693 
L 627.460652 119.317441 
L 628.372285 119.547257 
L 630.195552 121.58871 
L 631.107185 119.855315 
L 632.018818 120.384283 
L 632.930452 119.168698 
L 633.842085 125.965444 
L 634.753718 122.483165 
L 635.665352 120.46501 
L 636.576985 120.670052 
L 637.488619 120.992237 
L 638.400252 120.154729 
L 639.311885 121.773391 
L 640.223519 119.206319 
L 641.135152 120.087186 
L 642.046785 121.369123 
L 642.958419 121.223347 
L 643.870052 120.463903 
L 644.781685 120.4133 
L 645.693319 121.589014 
L 646.604952 122.275977 
L 647.516586 120.975892 
L 648.428219 121.35129 
L 650.251486 119.774593 
L 651.163119 122.44246 
L 652.074752 118.681921 
L 652.986386 120.067579 
L 653.898019 121.095361 
L 654.809652 120.275054 
L 655.721286 119.685939 
L 656.632919 121.268691 
L 657.544552 119.889297 
L 658.456186 121.18337 
L 659.367819 122.785347 
L 660.279453 121.352292 
L 661.191086 122.181602 
L 662.102719 120.81553 
L 663.014353 121.309992 
L 663.925986 120.462307 
L 664.837619 120.363914 
L 665.749253 119.261659 
L 666.660886 119.861669 
L 667.572519 120.226155 
L 668.484153 121.894654 
L 669.395786 119.955818 
L 670.30742 120.555783 
L 671.219053 120.660343 
L 672.130686 122.189602 
L 673.04232 122.067538 
L 673.953953 122.867981 
L 674.865586 121.062828 
L 675.77722 122.141833 
L 676.688853 122.08074 
L 677.600486 119.178997 
L 678.51212 120.754047 
L 679.423753 120.482972 
L 680.335387 121.770065 
L 681.24702 122.023239 
L 682.158653 122.475795 
L 683.070287 121.257368 
L 683.98192 124.961388 
L 684.893553 121.180925 
L 685.805187 123.67713 
L 686.71682 120.893886 
L 688.540087 121.453232 
L 689.45172 122.159968 
L 690.363354 120.611669 
L 691.274987 120.191703 
L 692.18662 120.851947 
L 693.098254 119.920171 
L 694.009887 119.877548 
L 694.92152 119.415729 
L 695.833154 121.569055 
L 696.744787 121.572764 
L 697.65642 120.761563 
L 698.568054 120.439355 
L 699.479687 119.706665 
L 700.39132 120.259267 
L 701.302954 121.465392 
L 702.214587 117.244652 
L 703.126221 121.334898 
L 704.037854 118.9995 
L 704.949487 120.948843 
L 705.861121 120.554498 
L 706.772754 120.681435 
L 707.684387 119.100872 
L 709.507654 120.252757 
L 710.419287 119.242692 
L 711.330921 121.027276 
L 712.242554 120.471791 
L 713.154188 121.148111 
L 714.977454 118.380807 
L 715.889088 120.127786 
L 716.800721 119.93559 
L 717.712354 120.579102 
L 718.623988 120.170018 
L 719.535621 119.057885 
L 720.447254 123.732596 
L 721.358888 120.762963 
L 722.270521 120.358976 
L 723.182155 122.48486 
L 724.093788 120.909195 
L 725.005421 120.844746 
L 725.917055 121.529273 
L 726.828688 120.62079 
L 727.740321 121.699585 
L 728.651955 121.57354 
L 729.563588 121.583473 
L 730.475221 122.059461 
L 731.386855 121.315848 
L 732.298488 123.03737 
L 733.210121 122.537114 
L 734.121755 121.028974 
L 735.033388 121.345164 
L 735.945022 121.805175 
L 736.856655 121.943539 
L 737.768288 122.464247 
L 738.679922 119.256499 
L 739.591555 121.427671 
L 740.503188 121.449271 
L 741.414822 119.076443 
L 742.326455 121.896825 
L 743.238088 121.678753 
L 744.149722 120.122247 
L 745.061355 122.283549 
L 745.972989 120.90142 
L 746.884622 122.010277 
L 747.796255 119.830793 
L 748.707889 120.409022 
L 749.619522 120.825235 
L 750.531155 119.492923 
L 751.442789 122.973602 
L 752.354422 121.866698 
L 753.266055 121.033176 
L 754.177689 119.511476 
L 755.089322 120.251141 
L 756.000956 120.121449 
L 756.912589 120.91056 
L 757.824222 119.16344 
L 758.735856 122.360808 
L 759.647489 121.018066 
L 760.559122 120.695146 
L 761.470756 119.26597 
L 762.382389 123.262883 
L 763.294022 119.535229 
L 764.205656 122.167405 
L 765.117289 119.658421 
L 766.028923 122.216163 
L 766.940556 120.775175 
L 767.852189 121.866855 
L 768.763823 121.731575 
L 769.675456 116.766546 
L 771.498723 121.905291 
L 773.321989 121.512685 
L 774.233623 120.629315 
L 775.145256 121.000791 
L 776.056889 122.233 
L 776.968523 119.154305 
L 777.880156 120.084167 
L 778.79179 119.580986 
L 779.703423 121.897728 
L 780.615056 119.706018 
L 781.52669 120.859256 
L 782.438323 118.325322 
L 783.349956 120.923104 
L 784.26159 120.914081 
L 785.173223 122.681995 
L 786.084856 118.630936 
L 786.99649 118.868108 
L 787.908123 124.5994 
L 788.819757 122.556458 
L 789.73139 120.200019 
L 790.643023 121.052301 
L 791.554657 118.669564 
L 792.46629 120.345146 
L 793.377923 120.965206 
L 794.289557 120.49532 
L 795.20119 121.278288 
L 796.112823 123.460738 
L 797.024457 122.186533 
L 797.93609 121.611236 
L 798.847724 119.923881 
L 799.759357 122.481262 
L 800.67099 122.515511 
L 801.582624 121.036805 
L 802.494257 120.28936 
L 803.40589 118.761443 
L 804.317524 122.376111 
L 805.229157 122.488849 
L 806.14079 118.526016 
L 807.052424 119.469779 
L 807.964057 120.741179 
L 808.87569 122.395699 
L 809.787324 123.318073 
L 810.698957 123.272529 
L 811.610591 121.130452 
L 812.522224 120.541394 
L 813.433857 120.852371 
L 814.345491 118.473829 
L 815.257124 121.446884 
L 816.168757 120.663773 
L 817.080391 121.053892 
L 817.992024 119.06847 
L 818.903657 120.81199 
L 819.815291 121.862299 
L 820.726924 120.679549 
L 821.638558 121.164318 
L 823.461824 120.995072 
L 824.373458 122.24462 
L 825.285091 123.980892 
L 826.196724 120.867832 
L 827.108358 118.929939 
L 828.019991 120.650874 
L 828.931624 119.280666 
L 829.843258 119.89186 
L 830.754891 121.458981 
L 832.578158 121.80941 
L 833.489791 118.349735 
L 834.401425 119.749678 
L 835.313058 123.000944 
L 836.224691 122.667838 
L 837.136325 120.302317 
L 838.047958 120.425758 
L 839.871225 122.499133 
L 840.782858 119.673291 
L 841.694492 121.444197 
L 842.606125 118.92309 
L 843.517758 116.829969 
L 844.429392 121.364652 
L 845.341025 122.318229 
L 846.252658 119.841073 
L 847.164292 121.161091 
L 848.075925 122.992601 
L 848.987558 120.576558 
L 849.899192 120.330612 
L 850.810825 120.952104 
L 851.722458 123.357366 
L 852.634092 122.171867 
L 853.545725 119.081243 
L 855.368992 121.079108 
L 856.280625 120.372488 
L 857.192259 118.926606 
L 858.103892 119.167683 
L 859.015525 121.804688 
L 859.927159 118.868764 
L 860.838792 122.613563 
L 862.662059 119.570163 
L 863.573692 119.208649 
L 864.485326 121.82865 
L 865.396959 121.744966 
L 866.308592 119.514474 
L 867.220226 121.672765 
L 868.131859 120.128012 
L 869.043492 119.88611 
L 869.955126 120.101646 
L 870.866759 119.21788 
L 871.778392 121.025286 
L 872.690026 121.41718 
L 874.513293 120.508144 
L 875.424926 123.797109 
L 876.336559 120.463507 
L 877.248193 120.469311 
L 878.159826 124.077964 
L 879.071459 121.805007 
L 879.983093 123.413818 
L 881.806359 121.529137 
L 882.717993 119.692693 
L 883.629626 119.347574 
L 884.541259 120.974424 
L 885.452893 119.866064 
L 886.364526 122.509324 
L 887.27616 121.855247 
L 888.187793 119.665866 
L 889.099426 120.982394 
L 890.01106 119.747419 
L 890.922693 119.43066 
L 891.834326 120.382275 
L 892.74596 120.437812 
L 893.657593 119.231742 
L 894.569226 122.137439 
L 895.48086 122.086984 
L 896.392493 117.894071 
L 897.304127 119.22841 
L 898.21576 120.363911 
L 899.127393 120.547829 
L 900.039027 121.527939 
L 900.95066 122.143444 
L 901.862293 119.904267 
L 902.773927 121.137918 
L 903.68556 121.981626 
L 904.597193 120.719896 
L 905.508827 121.412958 
L 906.42046 122.337206 
L 907.332094 122.378136 
L 908.243727 123.300935 
L 909.15536 121.397927 
L 910.066994 122.264233 
L 910.978627 122.681195 
L 911.89026 121.793451 
L 912.801894 121.463953 
L 913.713527 119.706108 
L 914.62516 123.498968 
L 916.448427 120.845052 
L 917.360061 120.849943 
L 918.271694 120.489237 
L 919.183327 121.597852 
L 920.094961 124.377324 
L 921.006594 120.693451 
L 921.918227 120.487514 
L 922.829861 119.819017 
L 923.741494 120.500511 
L 924.653127 120.896642 
L 925.564761 120.590697 
L 926.476394 119.957643 
L 927.388027 122.287258 
L 928.299661 119.768232 
L 929.211294 121.000151 
L 930.122928 120.317704 
L 931.034561 120.014323 
L 931.946194 122.278422 
L 932.857828 119.121433 
L 933.769461 119.076905 
L 934.681094 120.658548 
L 935.592728 120.630606 
L 936.504361 120.98849 
L 937.415994 118.201848 
L 938.327628 118.788042 
L 939.239261 120.901117 
L 940.150895 118.74669 
L 941.062528 120.564558 
L 941.974161 120.878879 
L 942.885795 120.997296 
L 943.797428 120.433637 
L 944.709061 120.735052 
L 945.620695 119.085672 
L 946.532328 120.536783 
L 947.443961 118.800446 
L 948.355595 121.00463 
L 949.267228 119.589221 
L 950.178862 120.131705 
L 951.090495 120.985734 
L 952.002128 122.105445 
L 952.913762 120.624554 
L 953.825395 120.614664 
L 954.737028 119.825437 
L 955.648662 123.283473 
L 957.471928 120.77848 
L 958.383562 124.652302 
L 959.295195 123.288124 
L 960.206829 120.836797 
L 961.118462 120.537844 
L 962.030095 120.946837 
L 962.941729 119.623345 
L 963.853362 122.84331 
L 964.764995 121.034332 
L 965.676629 123.914505 
L 966.588262 120.850276 
L 967.499895 123.963408 
L 968.411529 119.12297 
L 970.234795 122.005391 
L 971.146429 120.758723 
L 972.058062 121.847678 
L 972.969696 123.152287 
L 973.881329 119.827732 
L 974.792962 119.68931 
L 975.704596 120.939564 
L 976.616229 119.102926 
L 977.527862 117.665632 
L 978.439496 120.512247 
L 979.351129 120.765304 
L 981.174396 123.006077 
L 982.086029 119.693358 
L 982.997663 122.472724 
L 983.909296 119.329742 
L 984.820929 121.818636 
L 985.732563 119.148995 
L 986.644196 123.257302 
L 987.555829 122.659374 
L 988.467463 119.739554 
L 989.379096 121.836407 
L 990.290729 120.703904 
L 991.202363 118.308724 
L 992.113996 120.910276 
L 993.937263 121.928287 
L 994.848896 119.669288 
L 995.76053 123.382234 
L 996.672163 122.304707 
L 998.49543 119.578948 
L 999.407063 120.812318 
L 1000.318696 121.390447 
L 1001.23033 120.574916 
L 1002.141963 120.774274 
L 1003.053596 119.353922 
L 1003.96523 121.112209 
L 1004.876863 121.252525 
L 1005.788497 119.654626 
L 1006.70013 120.12546 
L 1007.611763 120.242698 
L 1008.523397 120.586956 
L 1009.43503 122.229756 
L 1009.43503 122.229756 
" clip-path="url(#p6c6671e6ed)" style="fill: none; stroke: #5dc694; stroke-width: 1.5; stroke-linecap: square"/>
   </g>
   <g id="patch_3">
    <path d="M 91.01 228.04 
L 91.01 17.28 
" style="fill: none; stroke: #000000; stroke-width: 0.8; stroke-linejoin: miter; stroke-linecap: square"/>
   </g>
   <g id="patch_4">
    <path d="M 1062.72 228.04 
L 1062.72 17.28 
" style="fill: none; stroke: #000000; stroke-width: 0.8; stroke-linejoin: miter; stroke-linecap: square"/>
   </g>
   <g id="patch_5">
    <path d="M 91.01 228.04 
L 1062.72 228.04 
" style="fill: none; stroke: #000000; stroke-width: 0.8; stroke-linejoin: miter; stroke-linecap: square"/>
   </g>
   <g id="patch_6">
    <path d="M 91.01 17.28 
L 1062.72 17.28 
" style="fill: none; stroke: #000000; stroke-width: 0.8; stroke-linejoin: miter; stroke-linecap: square"/>
   </g>
   <g id="legend_1">
    <g id="patch_7">
     <path d="M 854.2975 76.605 
L 1051.52 76.605 
Q 1054.72 76.605 1054.72 73.405 
L 1054.72 28.48 
Q 1054.72 25.28 1051.52 25.28 
L 854.2975 25.28 
Q 851.0975 25.28 851.0975 28.48 
L 851.0975 73.405 
Q 851.0975 76.605 854.2975 76.605 
z
" style="fill: #ffffff; opacity: 0.8; stroke: #cccccc; stroke-linejoin: miter"/>
    </g>
    <g id="line2d_15">
     <path d="M 857.4975 37.44 
L 873.4975 37.44 
L 889.4975 37.44 
" style="fill: none; stroke: #d2dbe0; stroke-width: 1.5; stroke-linecap: square"/>
    </g>
    <g id="text_15">
     <!-- 2nd. Difference -->
     <g transform="translate(902.2975 43.04) scale(0.16 -0.16)">
      <use xlink:href="#Bahnschrift-32"/>
      <use xlink:href="#Bahnschrift-6e" x="51.660156"/>
      <use xlink:href="#Bahnschrift-64" x="107.519531"/>
      <use xlink:href="#Bahnschrift-2e" x="161.425781"/>
      <use xlink:href="#Bahnschrift-20" x="184.082031"/>
      <use xlink:href="#Bahnschrift-44" x="210.9375"/>
      <use xlink:href="#Bahnschrift-69" x="276.5625"/>
      <use xlink:href="#Bahnschrift-66" x="301.660156"/>
      <use xlink:href="#Bahnschrift-66" x="333.349609"/>
      <use xlink:href="#Bahnschrift-65" x="365.039062"/>
      <use xlink:href="#Bahnschrift-72" x="418.652344"/>
      <use xlink:href="#Bahnschrift-65" x="461.328125"/>
      <use xlink:href="#Bahnschrift-6e" x="514.941406"/>
      <use xlink:href="#Bahnschrift-63" x="570.800781"/>
      <use xlink:href="#Bahnschrift-65" x="620.605469"/>
     </g>
    </g>
    <g id="line2d_16">
     <path d="M 857.4975 61.3075 
L 873.4975 61.3075 
L 889.4975 61.3075 
" style="fill: none; stroke: #5dc694; stroke-width: 1.5; stroke-linecap: square"/>
    </g>
    <g id="text_16">
     <!-- Rolling Average (20) -->
     <g transform="translate(902.2975 66.9075) scale(0.16 -0.16)">
      <defs>
       <path id="Bahnschrift-52" d="M 841 1922 
L 841 2528 
L 2391 2528 
Q 2669 2528 2837 2722 
Q 3006 2916 3006 3234 
L 3006 3234 
Q 3006 3553 2837 3747 
Q 2669 3941 2391 3941 
L 841 3941 
L 841 4547 
L 2366 4547 
Q 2763 4547 3059 4383 
Q 3356 4219 3520 3925 
Q 3684 3631 3684 3234 
L 3684 3234 
Q 3684 2841 3518 2545 
Q 3353 2250 3058 2086 
Q 2763 1922 2366 1922 
L 841 1922 
z
M 563 0 
L 563 4547 
L 1200 4547 
L 1200 0 
L 563 0 
z
M 3119 0 
L 2078 2063 
L 2713 2206 
L 3875 0 
L 3119 0 
z
" transform="scale(0.015625)"/>
       <path id="Bahnschrift-6f" d="M 1744 -47 
Q 1106 -47 756 323 
Q 406 694 406 1366 
L 406 1894 
Q 406 2559 756 2925 
Q 1106 3291 1744 3291 
Q 2381 3291 2731 2925 
Q 3081 2559 3081 1894 
L 3081 1356 
Q 3081 688 2731 320 
Q 2381 -47 1744 -47 
z
M 1744 559 
Q 2078 559 2261 768 
Q 2444 978 2444 1356 
L 2444 1894 
Q 2444 2272 2261 2478 
Q 2078 2684 1744 2684 
Q 1413 2684 1228 2478 
Q 1044 2272 1044 1894 
L 1044 1356 
Q 1044 978 1228 768 
Q 1413 559 1744 559 
z
" transform="scale(0.015625)"/>
       <path id="Bahnschrift-6c" d="M 1138 4544 
L 1138 838 
Q 1138 722 1189 656 
Q 1241 591 1334 591 
L 1634 591 
L 1634 -16 
L 1259 -16 
Q 900 -16 700 209 
Q 500 434 500 844 
L 500 4544 
L 1138 4544 
z
" transform="scale(0.015625)"/>
       <path id="Bahnschrift-67" d="M 1588 -1319 
Q 1222 -1319 933 -1183 
Q 644 -1047 484 -800 
L 484 -800 
L 916 -409 
L 916 -409 
Q 1041 -581 1214 -675 
Q 1388 -769 1578 -769 
Q 1944 -769 2144 -567 
Q 2344 -366 2344 3 
L 2344 3244 
L 2981 3244 
L 2981 97 
Q 2981 -578 2617 -948 
Q 2253 -1319 1588 -1319 
z
M 1528 -56 
Q 991 -56 698 289 
Q 406 634 406 1263 
L 406 1978 
Q 406 2609 692 2954 
Q 978 3300 1497 3300 
Q 1784 3300 2023 3150 
Q 2263 3000 2409 2728 
L 2344 2066 
Q 2344 2272 2269 2419 
Q 2194 2566 2051 2642 
Q 1909 2719 1706 2719 
Q 1391 2719 1217 2522 
Q 1044 2325 1044 1969 
L 1044 1263 
Q 1044 909 1217 717 
Q 1391 525 1706 525 
Q 1909 525 2051 604 
Q 2194 684 2269 834 
Q 2344 984 2344 1194 
L 2388 509 
Q 2300 291 2086 117 
Q 1872 -56 1528 -56 
z
" transform="scale(0.015625)"/>
       <path id="Bahnschrift-41" d="M 125 0 
L 1800 4544 
L 2344 4544 
L 4019 0 
L 3331 0 
L 2072 3666 
L 813 0 
L 125 0 
z
M 897 997 
L 897 1603 
L 3288 1603 
L 3288 997 
L 897 997 
z
" transform="scale(0.015625)"/>
       <path id="Bahnschrift-76" d="M 1616 928 
L 2409 3244 
L 3075 3244 
L 1856 0 
L 1375 0 
L 156 3244 
L 822 3244 
L 1616 928 
z
" transform="scale(0.015625)"/>
       <path id="Bahnschrift-28" d="M 1672 -978 
Q 1116 -375 839 373 
Q 563 1122 563 2025 
Q 563 2928 839 3676 
Q 1116 4425 1672 5028 
L 2109 4631 
Q 1638 4106 1403 3456 
Q 1169 2806 1169 2025 
Q 1169 1244 1403 594 
Q 1638 -56 2109 -584 
L 1672 -978 
z
" transform="scale(0.015625)"/>
       <path id="Bahnschrift-29" d="M 500 -978 
L 63 -584 
Q 534 -56 768 594 
Q 1003 1244 1003 2025 
Q 1003 2806 768 3456 
Q 534 4106 63 4631 
L 500 5028 
Q 1056 4425 1332 3676 
Q 1609 2928 1609 2025 
Q 1609 1122 1332 373 
Q 1056 -375 500 -978 
z
" transform="scale(0.015625)"/>
      </defs>
      <use xlink:href="#Bahnschrift-52"/>
      <use xlink:href="#Bahnschrift-6f" x="65.185547"/>
      <use xlink:href="#Bahnschrift-6c" x="119.677734"/>
      <use xlink:href="#Bahnschrift-6c" x="148.632812"/>
      <use xlink:href="#Bahnschrift-69" x="177.587891"/>
      <use xlink:href="#Bahnschrift-6e" x="202.685547"/>
      <use xlink:href="#Bahnschrift-67" x="258.544922"/>
      <use xlink:href="#Bahnschrift-20" x="312.451172"/>
      <use xlink:href="#Bahnschrift-41" x="339.306641"/>
      <use xlink:href="#Bahnschrift-76" x="404.052734"/>
      <use xlink:href="#Bahnschrift-65" x="454.052734"/>
      <use xlink:href="#Bahnschrift-72" x="507.666016"/>
      <use xlink:href="#Bahnschrift-61" x="550.341797"/>
      <use xlink:href="#Bahnschrift-67" x="603.564453"/>
      <use xlink:href="#Bahnschrift-65" x="657.470703"/>
      <use xlink:href="#Bahnschrift-20" x="711.083984"/>
      <use xlink:href="#Bahnschrift-28" x="737.939453"/>
      <use xlink:href="#Bahnschrift-32" x="771.875"/>
      <use xlink:href="#Bahnschrift-30" x="823.535156"/>
      <use xlink:href="#Bahnschrift-29" x="878.710938"/>
     </g>
    </g>
   </g>
  </g>
 </g>
 <defs>
  <clipPath id="p6c6671e6ed">
   <rect x="91.01" y="17.28" width="971.71" height="210.76"/>
  </clipPath>
 </defs>
</svg>
