<?xml version="1.0" encoding="utf-8" standalone="no"?>
<!DOCTYPE svg PUBLIC "-//W3C//DTD SVG 1.1//EN"
  "http://www.w3.org/Graphics/SVG/1.1/DTD/svg11.dtd">
<svg xmlns:xlink="http://www.w3.org/1999/xlink" width="1080pt" height="288pt" viewBox="0 0 1080 288" xmlns="http://www.w3.org/2000/svg" version="1.1">
 <metadata>
  <rdf:RDF xmlns:dc="http://purl.org/dc/elements/1.1/" xmlns:cc="http://creativecommons.org/ns#" xmlns:rdf="http://www.w3.org/1999/02/22-rdf-syntax-ns#">
   <cc:Work>
    <dc:type rdf:resource="http://purl.org/dc/dcmitype/StillImage"/>
    <dc:date>2024-05-29T19:40:34.599422</dc:date>
    <dc:format>image/svg+xml</dc:format>
    <dc:creator>
     <cc:Agent>
      <dc:title>Matplotlib v3.8.2, https://matplotlib.org/</dc:title>
     </cc:Agent>
    </dc:creator>
   </cc:Work>
  </rdf:RDF>
 </metadata>
 <defs>
  <style type="text/css">*{stroke-linejoin: round; stroke-linecap: butt}</style>
 </defs>
 <g id="figure_1">
  <g id="patch_1">
   <path d="M 0 288 
L 1080 288 
L 1080 0 
L 0 0 
z
" style="fill: #ffffff"/>
  </g>
  <g id="axes_1">
   <g id="patch_2">
    <path d="M 62.1875 228.04 
L 1062.72 228.04 
L 1062.72 17.28 
L 62.1875 17.28 
z
" style="fill: #ffffff"/>
   </g>
   <g id="PolyCollection_1">
    <defs>
     <path id="m2c31f5a3af" d="M 107.66625 -69.54 
L 107.66625 -69.54 
L 118.758628 -71.263936 
L 129.851006 -71.840762 
L 140.943384 -72.367188 
L 152.035762 -73.131322 
L 163.12814 -73.785751 
L 174.220518 -74.666518 
L 185.312896 -75.589815 
L 196.405274 -76.171154 
L 207.497652 -77.143441 
L 218.59003 -77.585963 
L 229.682409 -78.854366 
L 240.774787 -79.675962 
L 251.867165 -80.035682 
L 262.959543 -81.514755 
L 274.051921 -81.524024 
L 285.144299 -82.562761 
L 296.236677 -83.732353 
L 307.329055 -83.750403 
L 318.421433 -84.561257 
L 329.513811 -85.267255 
L 340.606189 -85.933358 
L 351.698567 -87.019914 
L 362.790945 -88.049139 
L 373.883323 -89.266939 
L 384.975701 -89.537491 
L 396.068079 -90.474326 
L 407.160457 -91.63132 
L 418.252835 -91.23503 
L 429.345213 -93.388173 
L 440.437591 -93.990562 
L 451.52997 -94.773 
L 462.622348 -95.069573 
L 473.714726 -95.865975 
L 484.807104 -97.847283 
L 495.899482 -98.170569 
L 506.99186 -99.072272 
L 518.084238 -99.17194 
L 529.176616 -99.68006 
L 540.268994 -101.113129 
L 551.361372 -103.028741 
L 562.45375 -103.765231 
L 573.546128 -103.325528 
L 584.638506 -108.399805 
L 595.730884 -105.099753 
L 606.823262 -107.32599 
L 617.91564 -107.704241 
L 629.008018 -109.584885 
L 640.100396 -110.761254 
L 651.192774 -112.832595 
L 662.285152 -111.736002 
L 673.37753 -111.210242 
L 684.469909 -112.162309 
L 695.562287 -113.399654 
L 706.654665 -112.954809 
L 717.747043 -115.52194 
L 728.839421 -115.889491 
L 739.931799 -116.974846 
L 751.024177 -116.794316 
L 762.116555 -119.99444 
L 773.208933 -120.638908 
L 784.301311 -121.017429 
L 795.393689 -120.997287 
L 806.486067 -123.14397 
L 817.578445 -123.243854 
L 828.670823 -124.412275 
L 839.763201 -124.796514 
L 850.855579 -127.013461 
L 861.947957 -127.067967 
L 873.040335 -129.335382 
L 884.132713 -132.281857 
L 895.225091 -132.315389 
L 906.31747 -133.162728 
L 917.409848 -132.18357 
L 928.502226 -132.677864 
L 939.594604 -134.224415 
L 950.686982 -137.262711 
L 961.77936 -137.079456 
L 972.871738 -137.001579 
L 983.964116 -141.333922 
L 995.056494 -139.974167 
L 1006.148872 -139.696768 
L 1017.24125 -139.687407 
L 1017.24125 -261.14 
L 1017.24125 -261.14 
L 1006.148872 -234.773979 
L 995.056494 -230.515445 
L 983.964116 -233.565097 
L 972.871738 -251.569134 
L 961.77936 -244.238022 
L 950.686982 -224.921254 
L 939.594604 -234.119319 
L 928.502226 -202.757427 
L 917.409848 -225.873254 
L 906.31747 -215.233314 
L 895.225091 -227.669672 
L 884.132713 -218.243231 
L 873.040335 -209.038441 
L 861.947957 -225.478204 
L 850.855579 -181.010427 
L 839.763201 -209.570795 
L 828.670823 -203.826561 
L 817.578445 -209.100831 
L 806.486067 -216.404327 
L 795.393689 -200.532678 
L 784.301311 -190.628393 
L 773.208933 -191.756604 
L 762.116555 -188.438937 
L 751.024177 -187.603796 
L 739.931799 -183.747184 
L 728.839421 -173.511954 
L 717.747043 -178.750636 
L 706.654665 -173.118094 
L 695.562287 -182.965056 
L 684.469909 -165.068974 
L 673.37753 -173.038046 
L 662.285152 -177.184702 
L 651.192774 -169.327009 
L 640.100396 -165.943094 
L 629.008018 -163.323495 
L 617.91564 -156.977301 
L 606.823262 -161.643771 
L 595.730884 -157.096027 
L 584.638506 -146.682875 
L 573.546128 -150.957366 
L 562.45375 -152.548039 
L 551.361372 -142.532265 
L 540.268994 -142.924525 
L 529.176616 -138.409468 
L 518.084238 -142.382408 
L 506.99186 -141.410683 
L 495.899482 -137.396656 
L 484.807104 -132.313309 
L 473.714726 -135.541029 
L 462.622348 -128.793643 
L 451.52997 -126.37483 
L 440.437591 -123.903495 
L 429.345213 -122.968411 
L 418.252835 -115.159545 
L 407.160457 -117.309556 
L 396.068079 -113.494536 
L 384.975701 -120.334879 
L 373.883323 -112.047152 
L 362.790945 -108.172407 
L 351.698567 -109.293847 
L 340.606189 -103.258795 
L 329.513811 -107.079776 
L 318.421433 -99.369154 
L 307.329055 -101.357262 
L 296.236677 -100.442706 
L 285.144299 -94.611107 
L 274.051921 -96.284347 
L 262.959543 -91.213754 
L 251.867165 -91.303462 
L 240.774787 -90.576422 
L 229.682409 -89.18861 
L 218.59003 -85.261842 
L 207.497652 -83.51885 
L 196.405274 -83.113484 
L 185.312896 -80.310865 
L 174.220518 -79.060995 
L 163.12814 -77.02444 
L 152.035762 -76.056479 
L 140.943384 -75.080162 
L 129.851006 -73.771435 
L 118.758628 -72.389586 
L 107.66625 -69.54 
z
" style="stroke: #d2dbe0"/>
    </defs>
    <g clip-path="url(#p767709fcb9)">
     <use xlink:href="#m2c31f5a3af" x="0" y="288" style="fill: #d2dbe0; stroke: #d2dbe0"/>
    </g>
   </g>
   <g id="matplotlib.axis_1">
    <g id="xtick_1">
     <g id="line2d_1">
      <defs>
       <path id="m7384c039c4" d="M 0 0 
L 0 3.5 
" style="stroke: #000000; stroke-width: 0.8"/>
      </defs>
      <g>
       <use xlink:href="#m7384c039c4" x="107.66625" y="228.04" style="stroke: #000000; stroke-width: 0.8"/>
      </g>
     </g>
     <g id="text_1">
      <!-- 0 -->
      <g transform="translate(103.2525 246.4) scale(0.16 -0.16)">
       <defs>
        <path id="Bahnschrift-30" d="M 1766 -47 
Q 1116 -47 792 301 
Q 469 650 469 1244 
L 469 3309 
Q 469 3913 797 4256 
Q 1125 4600 1766 4600 
Q 2409 4600 2736 4258 
Q 3063 3916 3063 3309 
L 3063 1244 
Q 3063 641 2736 297 
Q 2409 -47 1766 -47 
z
M 1766 559 
Q 2116 559 2270 742 
Q 2425 925 2425 1244 
L 2425 3309 
Q 2425 3631 2270 3812 
Q 2116 3994 1766 3994 
Q 1416 3994 1261 3812 
Q 1106 3631 1106 3309 
L 1106 1244 
Q 1106 925 1261 742 
Q 1416 559 1766 559 
z
" transform="scale(0.015625)"/>
       </defs>
       <use xlink:href="#Bahnschrift-30"/>
      </g>
     </g>
    </g>
    <g id="xtick_2">
     <g id="line2d_2">
      <g>
       <use xlink:href="#m7384c039c4" x="329.513811" y="228.04" style="stroke: #000000; stroke-width: 0.8"/>
      </g>
     </g>
     <g id="text_2">
      <!-- 200 -->
      <g transform="translate(316.553811 246.4) scale(0.16 -0.16)">
       <defs>
        <path id="Bahnschrift-32" d="M 400 0 
L 400 553 
L 1984 2666 
Q 2122 2847 2198 3040 
Q 2275 3234 2275 3406 
L 2275 3413 
Q 2275 3684 2115 3834 
Q 1956 3984 1663 3984 
Q 1388 3984 1214 3820 
Q 1041 3656 1003 3356 
L 1003 3353 
L 344 3353 
L 344 3356 
Q 428 3944 772 4267 
Q 1116 4591 1656 4591 
Q 2269 4591 2603 4281 
Q 2938 3972 2938 3406 
L 2938 3403 
Q 2938 3163 2838 2898 
Q 2738 2634 2559 2394 
L 1244 606 
L 2963 606 
L 2963 0 
L 400 0 
z
" transform="scale(0.015625)"/>
       </defs>
       <use xlink:href="#Bahnschrift-32"/>
       <use xlink:href="#Bahnschrift-30" x="51.660156"/>
       <use xlink:href="#Bahnschrift-30" x="106.835938"/>
      </g>
     </g>
    </g>
    <g id="xtick_3">
     <g id="line2d_3">
      <g>
       <use xlink:href="#m7384c039c4" x="551.361372" y="228.04" style="stroke: #000000; stroke-width: 0.8"/>
      </g>
     </g>
     <g id="text_3">
      <!-- 400 -->
      <g transform="translate(537.982622 246.4) scale(0.16 -0.16)">
       <defs>
        <path id="Bahnschrift-34" d="M 406 697 
L 406 1250 
L 1931 4541 
L 2588 4541 
L 1100 1288 
L 3328 1288 
L 3328 697 
L 406 697 
z
M 2366 -3 
L 2366 2672 
L 2988 2672 
L 2988 -3 
L 2366 -3 
z
" transform="scale(0.015625)"/>
       </defs>
       <use xlink:href="#Bahnschrift-34"/>
       <use xlink:href="#Bahnschrift-30" x="56.884766"/>
       <use xlink:href="#Bahnschrift-30" x="112.060547"/>
      </g>
     </g>
    </g>
    <g id="xtick_4">
     <g id="line2d_4">
      <g>
       <use xlink:href="#m7384c039c4" x="773.208933" y="228.04" style="stroke: #000000; stroke-width: 0.8"/>
      </g>
     </g>
     <g id="text_4">
      <!-- 600 -->
      <g transform="translate(760.276433 246.4) scale(0.16 -0.16)">
       <defs>
        <path id="Bahnschrift-36" d="M 1641 -47 
Q 1038 -47 706 312 
Q 375 672 375 1325 
L 375 1328 
Q 375 1622 456 1951 
Q 538 2281 691 2588 
L 1678 4544 
L 2366 4544 
L 1206 2278 
L 1209 2391 
Q 1372 2700 1788 2700 
Q 2322 2700 2615 2345 
Q 2909 1991 2909 1344 
L 2909 1341 
Q 2909 681 2578 317 
Q 2247 -47 1641 -47 
z
M 1641 566 
Q 1947 566 2109 753 
Q 2272 941 2272 1288 
L 2272 1291 
Q 2272 1672 2100 1880 
Q 1928 2088 1609 2088 
Q 1325 2088 1169 1878 
Q 1013 1669 1013 1288 
L 1013 1284 
Q 1013 938 1177 752 
Q 1341 566 1641 566 
z
" transform="scale(0.015625)"/>
       </defs>
       <use xlink:href="#Bahnschrift-36"/>
       <use xlink:href="#Bahnschrift-30" x="51.318359"/>
       <use xlink:href="#Bahnschrift-30" x="106.494141"/>
      </g>
     </g>
    </g>
    <g id="xtick_5">
     <g id="line2d_5">
      <g>
       <use xlink:href="#m7384c039c4" x="995.056494" y="228.04" style="stroke: #000000; stroke-width: 0.8"/>
      </g>
     </g>
     <g id="text_5">
      <!-- 800 -->
      <g transform="translate(981.728994 246.4) scale(0.16 -0.16)">
       <defs>
        <path id="Bahnschrift-38" d="M 1800 -47 
Q 1384 -47 1075 109 
Q 766 266 594 550 
Q 422 834 422 1216 
L 422 1291 
Q 422 1631 592 1931 
Q 763 2231 1047 2384 
Q 809 2516 662 2764 
Q 516 3013 516 3288 
L 516 3397 
Q 516 3938 867 4264 
Q 1219 4591 1800 4591 
Q 2381 4591 2732 4264 
Q 3084 3938 3084 3397 
L 3084 3288 
Q 3084 3006 2936 2759 
Q 2788 2513 2544 2384 
Q 2831 2231 3004 1931 
Q 3178 1631 3178 1291 
L 3178 1216 
Q 3178 834 3006 550 
Q 2834 266 2525 109 
Q 2216 -47 1800 -47 
z
M 1800 566 
Q 2134 566 2339 758 
Q 2544 950 2544 1263 
L 2544 1306 
Q 2544 1622 2339 1814 
Q 2134 2006 1800 2006 
Q 1466 2006 1261 1814 
Q 1056 1622 1056 1303 
L 1056 1256 
Q 1056 944 1261 755 
Q 1466 566 1800 566 
z
M 1800 2619 
Q 2091 2619 2269 2803 
Q 2447 2988 2447 3291 
L 2447 3334 
Q 2447 3625 2269 3801 
Q 2091 3978 1800 3978 
Q 1509 3978 1331 3801 
Q 1153 3625 1153 3331 
L 1153 3284 
Q 1153 2984 1331 2801 
Q 1509 2619 1800 2619 
z
" transform="scale(0.015625)"/>
       </defs>
       <use xlink:href="#Bahnschrift-38"/>
       <use xlink:href="#Bahnschrift-30" x="56.25"/>
       <use xlink:href="#Bahnschrift-30" x="111.425781"/>
      </g>
     </g>
    </g>
    <g id="text_6">
     <!-- Number of Samples -->
     <g transform="translate(491.16625 265.175) scale(0.16 -0.16)">
      <defs>
       <path id="Bahnschrift-4e" d="M 563 3 
L 563 4544 
L 1141 4544 
L 3363 1031 
L 3288 950 
L 3288 4544 
L 3919 4544 
L 3919 3 
L 3334 3 
L 1119 3463 
L 1194 3544 
L 1194 3 
L 563 3 
z
" transform="scale(0.015625)"/>
       <path id="Bahnschrift-75" d="M 2456 0 
L 2456 3244 
L 3091 3244 
L 3091 0 
L 2456 0 
z
M 1138 3244 
L 1138 1272 
Q 1138 931 1311 745 
Q 1484 559 1800 559 
Q 2116 559 2286 726 
Q 2456 894 2456 1197 
L 2500 519 
Q 2413 300 2194 126 
Q 1975 -47 1622 -47 
Q 1084 -47 792 298 
Q 500 644 500 1272 
L 500 3244 
L 1138 3244 
z
" transform="scale(0.015625)"/>
       <path id="Bahnschrift-6d" d="M 4375 0 
L 4375 1966 
Q 4375 2309 4198 2496 
Q 4022 2684 3697 2684 
Q 3400 2684 3237 2503 
Q 3075 2322 3075 1991 
L 2947 2616 
Q 3103 2941 3353 3116 
Q 3603 3291 3906 3291 
Q 4434 3291 4723 2945 
Q 5013 2600 5013 1969 
L 5013 0 
L 4375 0 
z
M 500 0 
L 500 3244 
L 1138 3244 
L 1138 0 
L 500 0 
z
M 2438 0 
L 2438 1966 
Q 2438 2309 2269 2496 
Q 2100 2684 1791 2684 
Q 1478 2684 1308 2518 
Q 1138 2353 1138 2053 
L 1072 2678 
Q 1222 2972 1464 3131 
Q 1706 3291 2000 3291 
Q 2513 3291 2794 2945 
Q 3075 2600 3075 1969 
L 3075 0 
L 2438 0 
z
" transform="scale(0.015625)"/>
       <path id="Bahnschrift-62" d="M 1953 -47 
Q 1650 -47 1425 98 
Q 1200 244 1094 509 
L 1138 1188 
Q 1138 978 1213 831 
Q 1288 684 1430 606 
Q 1572 528 1775 528 
Q 2091 528 2264 720 
Q 2438 913 2438 1263 
L 2438 1966 
Q 2438 2322 2264 2519 
Q 2091 2716 1775 2716 
Q 1572 2716 1430 2641 
Q 1288 2566 1213 2422 
Q 1138 2278 1138 2072 
L 1072 2697 
Q 1219 2981 1456 3136 
Q 1694 3291 1984 3291 
Q 2506 3291 2790 2945 
Q 3075 2600 3075 1969 
L 3075 1263 
Q 3075 641 2781 297 
Q 2488 -47 1953 -47 
z
M 500 0 
L 500 4544 
L 1138 4544 
L 1138 0 
L 500 0 
z
" transform="scale(0.015625)"/>
       <path id="Bahnschrift-65" d="M 1828 -47 
Q 1150 -47 778 331 
Q 406 709 406 1406 
L 406 1772 
Q 406 2497 764 2894 
Q 1122 3291 1772 3291 
Q 2384 3291 2720 2841 
Q 3056 2391 3056 1578 
L 3056 1366 
L 869 1366 
L 869 1878 
L 2450 1878 
L 2450 1878 
Q 2422 2272 2245 2494 
Q 2069 2716 1772 2716 
Q 1413 2716 1213 2478 
Q 1013 2241 1013 1806 
L 1013 1394 
Q 1013 991 1227 775 
Q 1441 559 1828 559 
Q 2022 559 2212 637 
Q 2403 716 2553 856 
L 2553 856 
L 2972 438 
L 2972 438 
Q 2731 206 2431 79 
Q 2131 -47 1828 -47 
z
" transform="scale(0.015625)"/>
       <path id="Bahnschrift-72" d="M 500 0 
L 500 3244 
L 1138 3244 
L 1138 0 
L 500 0 
z
M 2284 2475 
Q 2200 2578 2072 2631 
Q 1944 2684 1775 2684 
Q 1472 2684 1305 2517 
Q 1138 2350 1138 2053 
L 1072 2678 
Q 1219 2966 1458 3128 
Q 1697 3291 1984 3291 
Q 2206 3291 2386 3227 
Q 2566 3163 2700 3038 
L 2284 2475 
z
" transform="scale(0.015625)"/>
       <path id="Bahnschrift-20" transform="scale(0.015625)"/>
       <path id="Bahnschrift-6f" d="M 1744 -47 
Q 1106 -47 756 323 
Q 406 694 406 1366 
L 406 1894 
Q 406 2559 756 2925 
Q 1106 3291 1744 3291 
Q 2381 3291 2731 2925 
Q 3081 2559 3081 1894 
L 3081 1356 
Q 3081 688 2731 320 
Q 2381 -47 1744 -47 
z
M 1744 559 
Q 2078 559 2261 768 
Q 2444 978 2444 1356 
L 2444 1894 
Q 2444 2272 2261 2478 
Q 2078 2684 1744 2684 
Q 1413 2684 1228 2478 
Q 1044 2272 1044 1894 
L 1044 1356 
Q 1044 978 1228 768 
Q 1413 559 1744 559 
z
" transform="scale(0.015625)"/>
       <path id="Bahnschrift-66" d="M 594 0 
L 594 3684 
Q 594 4113 791 4328 
Q 988 4544 1403 4544 
L 1872 4544 
L 1872 3938 
L 1416 3938 
Q 1319 3938 1275 3864 
Q 1231 3791 1231 3691 
L 1231 0 
L 594 0 
z
M 250 2700 
L 250 3244 
L 1872 3244 
L 1872 2700 
L 250 2700 
z
" transform="scale(0.015625)"/>
       <path id="Bahnschrift-53" d="M 1928 -47 
Q 1597 -47 1305 15 
Q 1013 78 758 203 
Q 503 328 281 516 
L 281 516 
L 678 1003 
L 678 1003 
Q 938 778 1250 665 
Q 1563 553 1928 553 
Q 2422 553 2694 737 
Q 2966 922 2966 1253 
L 2966 1256 
Q 2966 1516 2828 1653 
Q 2691 1791 2467 1858 
Q 2244 1925 1978 1969 
Q 1722 2013 1461 2072 
Q 1200 2131 981 2257 
Q 763 2384 630 2621 
Q 497 2859 497 3256 
L 497 3259 
Q 497 3894 919 4242 
Q 1341 4591 2109 4591 
Q 2475 4591 2825 4473 
Q 3175 4356 3506 4116 
L 3506 4116 
L 3144 3609 
L 3144 3609 
Q 2884 3803 2626 3897 
Q 2369 3991 2109 3991 
Q 1644 3991 1386 3805 
Q 1128 3619 1128 3278 
L 1128 3275 
Q 1128 3019 1278 2884 
Q 1428 2750 1670 2686 
Q 1913 2622 2191 2566 
Q 2441 2516 2691 2445 
Q 2941 2375 3145 2242 
Q 3350 2109 3473 1878 
Q 3597 1647 3597 1275 
L 3597 1269 
Q 3597 641 3159 297 
Q 2722 -47 1928 -47 
z
" transform="scale(0.015625)"/>
       <path id="Bahnschrift-61" d="M 2331 0 
L 2331 2056 
Q 2331 2375 2161 2551 
Q 1991 2728 1678 2728 
Q 1488 2728 1302 2670 
Q 1116 2613 969 2503 
L 503 2822 
Q 688 3044 989 3167 
Q 1291 3291 1659 3291 
Q 2269 3291 2603 2975 
Q 2938 2659 2938 2084 
L 2938 0 
L 2331 0 
z
M 1538 -47 
Q 941 -47 642 200 
Q 344 447 344 956 
Q 344 1441 617 1680 
Q 891 1919 1438 1919 
L 2359 1919 
L 2403 1406 
L 1441 1406 
Q 1194 1406 1069 1295 
Q 944 1184 944 956 
Q 944 709 1109 590 
Q 1275 472 1606 472 
Q 1969 472 2150 550 
Q 2331 628 2331 794 
L 2397 338 
Q 2313 206 2188 122 
Q 2063 38 1902 -4 
Q 1741 -47 1538 -47 
z
" transform="scale(0.015625)"/>
       <path id="Bahnschrift-70" d="M 500 -1319 
L 500 3244 
L 1138 3244 
L 1138 -1319 
L 500 -1319 
z
M 1953 -47 
Q 1650 -47 1425 98 
Q 1200 244 1094 509 
L 1138 1188 
Q 1138 978 1213 831 
Q 1288 684 1430 606 
Q 1572 528 1775 528 
Q 2091 528 2264 720 
Q 2438 913 2438 1263 
L 2438 1966 
Q 2438 2322 2264 2519 
Q 2091 2716 1775 2716 
Q 1572 2716 1430 2641 
Q 1288 2566 1213 2422 
Q 1138 2278 1138 2072 
L 1072 2697 
Q 1219 2981 1456 3136 
Q 1694 3291 1984 3291 
Q 2506 3291 2790 2945 
Q 3075 2600 3075 1969 
L 3075 1263 
Q 3075 641 2781 297 
Q 2488 -47 1953 -47 
z
" transform="scale(0.015625)"/>
       <path id="Bahnschrift-6c" d="M 1138 4544 
L 1138 838 
Q 1138 722 1189 656 
Q 1241 591 1334 591 
L 1634 591 
L 1634 -16 
L 1259 -16 
Q 900 -16 700 209 
Q 500 434 500 844 
L 500 4544 
L 1138 4544 
z
" transform="scale(0.015625)"/>
       <path id="Bahnschrift-73" d="M 1647 -47 
Q 1216 -47 864 79 
Q 513 206 234 459 
L 234 459 
L 613 925 
L 613 925 
Q 878 725 1136 625 
Q 1394 525 1647 525 
Q 2025 525 2214 642 
Q 2403 759 2403 994 
Q 2403 1175 2276 1250 
Q 2150 1325 1945 1348 
Q 1741 1372 1506 1388 
Q 1309 1403 1115 1436 
Q 922 1469 762 1555 
Q 603 1641 508 1809 
Q 413 1978 413 2263 
Q 413 2778 728 3034 
Q 1044 3291 1669 3291 
Q 2050 3291 2378 3187 
Q 2706 3084 2994 2872 
L 2994 2872 
L 2609 2406 
L 2609 2406 
Q 2366 2563 2130 2641 
Q 1894 2719 1669 2719 
Q 1344 2719 1181 2608 
Q 1019 2497 1019 2275 
Q 1019 2128 1131 2064 
Q 1244 2000 1428 1981 
Q 1613 1963 1825 1947 
Q 2028 1934 2236 1901 
Q 2444 1869 2619 1775 
Q 2794 1681 2900 1497 
Q 3006 1313 3006 994 
Q 3006 472 2667 212 
Q 2328 -47 1647 -47 
z
" transform="scale(0.015625)"/>
      </defs>
      <use xlink:href="#Bahnschrift-4e"/>
      <use xlink:href="#Bahnschrift-75" x="70.019531"/>
      <use xlink:href="#Bahnschrift-6d" x="125.634766"/>
      <use xlink:href="#Bahnschrift-62" x="211.279297"/>
      <use xlink:href="#Bahnschrift-65" x="265.673828"/>
      <use xlink:href="#Bahnschrift-72" x="319.287109"/>
      <use xlink:href="#Bahnschrift-20" x="361.962891"/>
      <use xlink:href="#Bahnschrift-6f" x="388.818359"/>
      <use xlink:href="#Bahnschrift-66" x="443.310547"/>
      <use xlink:href="#Bahnschrift-20" x="475"/>
      <use xlink:href="#Bahnschrift-53" x="501.855469"/>
      <use xlink:href="#Bahnschrift-61" x="563.427734"/>
      <use xlink:href="#Bahnschrift-6d" x="616.650391"/>
      <use xlink:href="#Bahnschrift-70" x="702.294922"/>
      <use xlink:href="#Bahnschrift-6c" x="756.689453"/>
      <use xlink:href="#Bahnschrift-65" x="785.644531"/>
      <use xlink:href="#Bahnschrift-73" x="839.257812"/>
     </g>
    </g>
   </g>
   <g id="matplotlib.axis_2">
    <g id="ytick_1">
     <g id="line2d_6">
      <defs>
       <path id="md31282b967" d="M 0 0 
L -3.5 0 
" style="stroke: #000000; stroke-width: 0.8"/>
      </defs>
      <g>
       <use xlink:href="#md31282b967" x="62.1875" y="218.46" style="stroke: #000000; stroke-width: 0.8"/>
      </g>
     </g>
     <g id="text_7">
      <!-- 0 -->
      <g transform="translate(46.36 224.14) scale(0.16 -0.16)">
       <use xlink:href="#Bahnschrift-30"/>
      </g>
     </g>
    </g>
    <g id="ytick_2">
     <g id="line2d_7">
      <g>
       <use xlink:href="#md31282b967" x="62.1875" y="153.949919" style="stroke: #000000; stroke-width: 0.8"/>
      </g>
     </g>
     <g id="text_8">
      <!-- 20 -->
      <g transform="translate(38.095 159.629919) scale(0.16 -0.16)">
       <use xlink:href="#Bahnschrift-32"/>
       <use xlink:href="#Bahnschrift-30" x="51.660156"/>
      </g>
     </g>
    </g>
    <g id="ytick_3">
     <g id="line2d_8">
      <g>
       <use xlink:href="#md31282b967" x="62.1875" y="89.439839" style="stroke: #000000; stroke-width: 0.8"/>
      </g>
     </g>
     <g id="text_9">
      <!-- 40 -->
      <g transform="translate(37.2575 95.119839) scale(0.16 -0.16)">
       <use xlink:href="#Bahnschrift-34"/>
       <use xlink:href="#Bahnschrift-30" x="56.884766"/>
      </g>
     </g>
    </g>
    <g id="ytick_4">
     <g id="line2d_9">
      <g>
       <use xlink:href="#md31282b967" x="62.1875" y="24.929758" style="stroke: #000000; stroke-width: 0.8"/>
      </g>
     </g>
     <g id="text_10">
      <!-- 60 -->
      <g transform="translate(38.15 30.609758) scale(0.16 -0.16)">
       <use xlink:href="#Bahnschrift-36"/>
       <use xlink:href="#Bahnschrift-30" x="51.318359"/>
      </g>
     </g>
    </g>
    <g id="text_11">
     <!-- Time [s] -->
     <g transform="translate(29.96 150.65875) rotate(-90) scale(0.16 -0.16)">
      <defs>
       <path id="Bahnschrift-54" d="M 1222 0 
L 1222 4172 
L 1859 4172 
L 1859 0 
L 1222 0 
z
M -63 3938 
L -63 4544 
L 3144 4544 
L 3144 3938 
L -63 3938 
z
" transform="scale(0.015625)"/>
       <path id="Bahnschrift-69" d="M 500 3906 
L 500 4544 
L 1138 4544 
L 1138 3906 
L 500 3906 
z
M 500 0 
L 500 3244 
L 1138 3244 
L 1138 0 
L 500 0 
z
" transform="scale(0.015625)"/>
       <path id="Bahnschrift-5b" d="M 594 -1019 
L 594 5081 
L 1200 5081 
L 1200 -1019 
L 594 -1019 
z
M 906 -1019 
L 906 -444 
L 1788 -444 
L 1788 -1019 
L 906 -1019 
z
M 906 4506 
L 906 5081 
L 1788 5081 
L 1788 4506 
L 906 4506 
z
" transform="scale(0.015625)"/>
       <path id="Bahnschrift-5d" d="M 681 -1019 
L 681 5081 
L 1288 5081 
L 1288 -1019 
L 681 -1019 
z
M 94 -1019 
L 94 -444 
L 975 -444 
L 975 -1019 
L 94 -1019 
z
M 94 4506 
L 94 5081 
L 975 5081 
L 975 4506 
L 94 4506 
z
" transform="scale(0.015625)"/>
      </defs>
      <use xlink:href="#Bahnschrift-54"/>
      <use xlink:href="#Bahnschrift-69" x="48.144531"/>
      <use xlink:href="#Bahnschrift-6d" x="73.242188"/>
      <use xlink:href="#Bahnschrift-65" x="158.886719"/>
      <use xlink:href="#Bahnschrift-20" x="212.5"/>
      <use xlink:href="#Bahnschrift-5b" x="239.355469"/>
      <use xlink:href="#Bahnschrift-73" x="268.75"/>
      <use xlink:href="#Bahnschrift-5d" x="320.605469"/>
     </g>
    </g>
   </g>
   <g id="line2d_10">
    <path d="M 218.59003 207.088974 
L 229.682409 206.141353 
L 240.774787 205.177301 
L 251.867165 204.163343 
L 262.959543 203.142493 
L 274.051921 202.114178 
L 285.144299 201.09249 
L 296.236677 200.084865 
L 307.329055 199.100222 
L 318.421433 198.036789 
L 329.513811 196.936932 
L 340.606189 195.915581 
L 351.698567 194.841951 
L 362.790945 193.752351 
L 373.883323 192.671182 
L 384.975701 191.585353 
L 396.068079 190.42262 
L 407.160457 189.310675 
L 418.252835 188.323463 
L 429.345213 187.256861 
L 440.437591 186.17911 
L 451.52997 185.000338 
L 462.622348 183.840807 
L 473.714726 182.7206 
L 484.807104 181.610191 
L 495.899482 180.441196 
L 506.99186 179.298314 
L 518.084238 178.154624 
L 529.176616 176.867422 
L 540.268994 175.646472 
L 551.361372 174.441611 
L 562.45375 173.276829 
L 573.546128 172.23788 
L 584.638506 171.088105 
L 595.730884 170.129886 
L 606.823262 169.019658 
L 617.91564 168.008186 
L 629.008018 166.959265 
L 640.100396 165.838687 
L 651.192774 164.253058 
L 662.285152 163.153728 
L 673.37753 162.096615 
L 684.469909 161.040922 
L 695.562287 159.819025 
L 706.654665 158.699957 
L 717.747043 157.687022 
L 728.839421 156.497008 
L 739.931799 155.567396 
L 751.024177 154.478719 
L 762.116555 153.496731 
L 773.208933 152.447735 
L 784.301311 151.213403 
L 795.393689 149.902391 
L 806.486067 148.652891 
L 817.578445 147.444438 
L 828.670823 146.203838 
L 839.763201 144.943254 
L 850.855579 143.577711 
L 861.947957 141.991789 
L 873.040335 141.176248 
L 884.132713 140.07684 
L 895.225091 138.771335 
L 906.31747 137.366215 
" clip-path="url(#p767709fcb9)" style="fill: none; stroke: #5dc694; stroke-width: 1.5; stroke-linecap: square"/>
   </g>
   <g id="patch_3">
    <path d="M 62.1875 228.04 
L 62.1875 17.28 
" style="fill: none; stroke: #000000; stroke-width: 0.8; stroke-linejoin: miter; stroke-linecap: square"/>
   </g>
   <g id="patch_4">
    <path d="M 1062.72 228.04 
L 1062.72 17.28 
" style="fill: none; stroke: #000000; stroke-width: 0.8; stroke-linejoin: miter; stroke-linecap: square"/>
   </g>
   <g id="patch_5">
    <path d="M 62.1875 228.04 
L 1062.72 228.04 
" style="fill: none; stroke: #000000; stroke-width: 0.8; stroke-linejoin: miter; stroke-linecap: square"/>
   </g>
   <g id="patch_6">
    <path d="M 62.1875 17.28 
L 1062.72 17.28 
" style="fill: none; stroke: #000000; stroke-width: 0.8; stroke-linejoin: miter; stroke-linecap: square"/>
   </g>
   <g id="legend_1">
    <g id="patch_7">
     <path d="M 763.8 76.7375 
L 1051.52 76.7375 
Q 1054.72 76.7375 1054.72 73.5375 
L 1054.72 28.48 
Q 1054.72 25.28 1051.52 25.28 
L 763.8 25.28 
Q 760.6 25.28 760.6 28.48 
L 760.6 73.5375 
Q 760.6 76.7375 763.8 76.7375 
z
" style="fill: #ffffff; opacity: 0.8; stroke: #cccccc; stroke-linejoin: miter"/>
    </g>
    <g id="line2d_11">
     <path d="M 767 38.7825 
L 783 38.7825 
L 799 38.7825 
" style="fill: none; stroke: #5dc694; stroke-width: 1.5; stroke-linecap: square"/>
    </g>
    <g id="text_12">
     <!-- Mean Time [Rolling Average (20)] -->
     <g transform="translate(811.8 44.3825) scale(0.16 -0.16)">
      <defs>
       <path id="Bahnschrift-4d" d="M 2494 1544 
L 3828 4544 
L 4425 4544 
L 4425 0 
L 3803 0 
L 3803 3403 
L 3834 3203 
L 2716 631 
L 2272 631 
L 1153 3141 
L 1184 3403 
L 1184 0 
L 563 0 
L 563 4544 
L 1159 4544 
L 2494 1544 
z
" transform="scale(0.015625)"/>
       <path id="Bahnschrift-6e" d="M 500 0 
L 500 3244 
L 1138 3244 
L 1138 0 
L 500 0 
z
M 2469 0 
L 2469 1966 
Q 2469 2309 2292 2496 
Q 2116 2684 1791 2684 
Q 1478 2684 1308 2518 
Q 1138 2353 1138 2053 
L 1072 2678 
Q 1222 2972 1464 3131 
Q 1706 3291 2000 3291 
Q 2528 3291 2817 2945 
Q 3106 2600 3106 1969 
L 3106 0 
L 2469 0 
z
" transform="scale(0.015625)"/>
       <path id="Bahnschrift-52" d="M 841 1922 
L 841 2528 
L 2391 2528 
Q 2669 2528 2837 2722 
Q 3006 2916 3006 3234 
L 3006 3234 
Q 3006 3553 2837 3747 
Q 2669 3941 2391 3941 
L 841 3941 
L 841 4547 
L 2366 4547 
Q 2763 4547 3059 4383 
Q 3356 4219 3520 3925 
Q 3684 3631 3684 3234 
L 3684 3234 
Q 3684 2841 3518 2545 
Q 3353 2250 3058 2086 
Q 2763 1922 2366 1922 
L 841 1922 
z
M 563 0 
L 563 4547 
L 1200 4547 
L 1200 0 
L 563 0 
z
M 3119 0 
L 2078 2063 
L 2713 2206 
L 3875 0 
L 3119 0 
z
" transform="scale(0.015625)"/>
       <path id="Bahnschrift-67" d="M 1588 -1319 
Q 1222 -1319 933 -1183 
Q 644 -1047 484 -800 
L 484 -800 
L 916 -409 
L 916 -409 
Q 1041 -581 1214 -675 
Q 1388 -769 1578 -769 
Q 1944 -769 2144 -567 
Q 2344 -366 2344 3 
L 2344 3244 
L 2981 3244 
L 2981 97 
Q 2981 -578 2617 -948 
Q 2253 -1319 1588 -1319 
z
M 1528 -56 
Q 991 -56 698 289 
Q 406 634 406 1263 
L 406 1978 
Q 406 2609 692 2954 
Q 978 3300 1497 3300 
Q 1784 3300 2023 3150 
Q 2263 3000 2409 2728 
L 2344 2066 
Q 2344 2272 2269 2419 
Q 2194 2566 2051 2642 
Q 1909 2719 1706 2719 
Q 1391 2719 1217 2522 
Q 1044 2325 1044 1969 
L 1044 1263 
Q 1044 909 1217 717 
Q 1391 525 1706 525 
Q 1909 525 2051 604 
Q 2194 684 2269 834 
Q 2344 984 2344 1194 
L 2388 509 
Q 2300 291 2086 117 
Q 1872 -56 1528 -56 
z
" transform="scale(0.015625)"/>
       <path id="Bahnschrift-41" d="M 125 0 
L 1800 4544 
L 2344 4544 
L 4019 0 
L 3331 0 
L 2072 3666 
L 813 0 
L 125 0 
z
M 897 997 
L 897 1603 
L 3288 1603 
L 3288 997 
L 897 997 
z
" transform="scale(0.015625)"/>
       <path id="Bahnschrift-76" d="M 1616 928 
L 2409 3244 
L 3075 3244 
L 1856 0 
L 1375 0 
L 156 3244 
L 822 3244 
L 1616 928 
z
" transform="scale(0.015625)"/>
       <path id="Bahnschrift-28" d="M 1672 -978 
Q 1116 -375 839 373 
Q 563 1122 563 2025 
Q 563 2928 839 3676 
Q 1116 4425 1672 5028 
L 2109 4631 
Q 1638 4106 1403 3456 
Q 1169 2806 1169 2025 
Q 1169 1244 1403 594 
Q 1638 -56 2109 -584 
L 1672 -978 
z
" transform="scale(0.015625)"/>
       <path id="Bahnschrift-29" d="M 500 -978 
L 63 -584 
Q 534 -56 768 594 
Q 1003 1244 1003 2025 
Q 1003 2806 768 3456 
Q 534 4106 63 4631 
L 500 5028 
Q 1056 4425 1332 3676 
Q 1609 2928 1609 2025 
Q 1609 1122 1332 373 
Q 1056 -375 500 -978 
z
" transform="scale(0.015625)"/>
      </defs>
      <use xlink:href="#Bahnschrift-4d"/>
      <use xlink:href="#Bahnschrift-65" x="77.929688"/>
      <use xlink:href="#Bahnschrift-61" x="131.542969"/>
      <use xlink:href="#Bahnschrift-6e" x="184.765625"/>
      <use xlink:href="#Bahnschrift-20" x="240.625"/>
      <use xlink:href="#Bahnschrift-54" x="267.480469"/>
      <use xlink:href="#Bahnschrift-69" x="315.625"/>
      <use xlink:href="#Bahnschrift-6d" x="340.722656"/>
      <use xlink:href="#Bahnschrift-65" x="426.367188"/>
      <use xlink:href="#Bahnschrift-20" x="479.980469"/>
      <use xlink:href="#Bahnschrift-5b" x="506.835938"/>
      <use xlink:href="#Bahnschrift-52" x="536.230469"/>
      <use xlink:href="#Bahnschrift-6f" x="601.416016"/>
      <use xlink:href="#Bahnschrift-6c" x="655.908203"/>
      <use xlink:href="#Bahnschrift-6c" x="684.863281"/>
      <use xlink:href="#Bahnschrift-69" x="713.818359"/>
      <use xlink:href="#Bahnschrift-6e" x="738.916016"/>
      <use xlink:href="#Bahnschrift-67" x="794.775391"/>
      <use xlink:href="#Bahnschrift-20" x="848.681641"/>
      <use xlink:href="#Bahnschrift-41" x="875.537109"/>
      <use xlink:href="#Bahnschrift-76" x="940.283203"/>
      <use xlink:href="#Bahnschrift-65" x="990.283203"/>
      <use xlink:href="#Bahnschrift-72" x="1043.896484"/>
      <use xlink:href="#Bahnschrift-61" x="1086.572266"/>
      <use xlink:href="#Bahnschrift-67" x="1139.794922"/>
      <use xlink:href="#Bahnschrift-65" x="1193.701172"/>
      <use xlink:href="#Bahnschrift-20" x="1247.314453"/>
      <use xlink:href="#Bahnschrift-28" x="1274.169922"/>
      <use xlink:href="#Bahnschrift-32" x="1308.105469"/>
      <use xlink:href="#Bahnschrift-30" x="1359.765625"/>
      <use xlink:href="#Bahnschrift-29" x="1414.941406"/>
      <use xlink:href="#Bahnschrift-5d" x="1448.876953"/>
     </g>
    </g>
    <g id="patch_8">
     <path d="M 767 67.04 
L 799 67.04 
L 799 55.84 
L 767 55.84 
z
" style="fill: #d2dbe0; stroke: #d2dbe0; stroke-linejoin: miter"/>
    </g>
    <g id="text_13">
     <!-- 90% Percentiles -->
     <g transform="translate(811.8 67.04) scale(0.16 -0.16)">
      <defs>
       <path id="Bahnschrift-39" d="M 934 0 
L 2078 2256 
L 2075 2144 
Q 1994 1997 1834 1931 
Q 1675 1866 1466 1866 
Q 975 1866 675 2230 
Q 375 2594 375 3197 
L 375 3200 
Q 375 3863 708 4227 
Q 1041 4591 1644 4591 
Q 2247 4591 2578 4223 
Q 2909 3856 2909 3184 
L 2909 3181 
Q 2909 2903 2828 2579 
Q 2747 2256 2591 1947 
L 1622 0 
L 934 0 
z
M 1644 2447 
Q 1944 2447 2108 2650 
Q 2272 2853 2272 3222 
L 2272 3225 
Q 2272 3584 2108 3781 
Q 1944 3978 1644 3978 
Q 1341 3978 1177 3781 
Q 1013 3584 1013 3222 
L 1013 3219 
Q 1013 2850 1177 2648 
Q 1341 2447 1644 2447 
z
" transform="scale(0.015625)"/>
       <path id="Bahnschrift-25" d="M 666 0 
L 3134 4544 
L 3694 4544 
L 1225 0 
L 666 0 
z
M 3328 -47 
Q 2966 -47 2769 164 
Q 2572 375 2572 753 
L 2572 1144 
Q 2572 1522 2769 1733 
Q 2966 1944 3328 1944 
Q 3691 1944 3887 1731 
Q 4084 1519 4084 1138 
L 4084 753 
Q 4084 375 3887 164 
Q 3691 -47 3328 -47 
z
M 3328 450 
Q 3563 450 3563 722 
L 3563 1181 
Q 3563 1444 3328 1444 
Q 3094 1444 3094 1178 
L 3094 722 
Q 3094 450 3328 450 
z
M 1069 2597 
Q 706 2597 509 2808 
Q 313 3019 313 3397 
L 313 3788 
Q 313 4166 509 4377 
Q 706 4588 1069 4588 
Q 1431 4588 1628 4375 
Q 1825 4163 1825 3781 
L 1825 3397 
Q 1825 3019 1628 2808 
Q 1431 2597 1069 2597 
z
M 1069 3094 
Q 1303 3094 1303 3366 
L 1303 3825 
Q 1303 4088 1069 4088 
Q 834 4088 834 3822 
L 834 3366 
Q 834 3094 1069 3094 
z
" transform="scale(0.015625)"/>
       <path id="Bahnschrift-50" d="M 891 1763 
L 891 2369 
L 2344 2369 
Q 2656 2369 2845 2584 
Q 3034 2800 3034 3150 
L 3034 3150 
Q 3034 3506 2845 3722 
Q 2656 3938 2344 3938 
L 891 3938 
L 891 4544 
L 2322 4544 
Q 2734 4544 3040 4370 
Q 3347 4197 3517 3884 
Q 3688 3572 3688 3150 
L 3688 3150 
Q 3688 2731 3517 2418 
Q 3347 2106 3040 1934 
Q 2734 1763 2322 1763 
L 891 1763 
z
M 563 0 
L 563 4544 
L 1200 4544 
L 1200 0 
L 563 0 
z
" transform="scale(0.015625)"/>
       <path id="Bahnschrift-63" d="M 1809 -47 
Q 1141 -47 773 322 
Q 406 691 406 1363 
L 406 1897 
Q 406 2563 773 2927 
Q 1141 3291 1809 3291 
Q 2191 3291 2497 3156 
Q 2803 3022 2984 2772 
L 2984 2772 
L 2525 2359 
L 2525 2359 
Q 2391 2516 2206 2600 
Q 2022 2684 1819 2684 
Q 1450 2684 1247 2478 
Q 1044 2272 1044 1897 
L 1044 1363 
Q 1044 978 1247 768 
Q 1450 559 1819 559 
Q 2022 559 2206 650 
Q 2391 741 2525 906 
L 2525 906 
L 2984 463 
L 2984 463 
Q 2803 219 2495 86 
Q 2188 -47 1809 -47 
z
" transform="scale(0.015625)"/>
       <path id="Bahnschrift-74" d="M 1344 -16 
Q 944 -16 764 206 
Q 584 428 584 844 
L 584 4188 
L 1222 4188 
L 1222 838 
Q 1222 722 1269 656 
Q 1316 591 1406 591 
L 1713 591 
L 1713 -16 
L 1344 -16 
z
M 250 2669 
L 250 3244 
L 1713 3244 
L 1713 2669 
L 250 2669 
z
" transform="scale(0.015625)"/>
      </defs>
      <use xlink:href="#Bahnschrift-39"/>
      <use xlink:href="#Bahnschrift-30" x="51.318359"/>
      <use xlink:href="#Bahnschrift-25" x="106.494141"/>
      <use xlink:href="#Bahnschrift-20" x="175.195312"/>
      <use xlink:href="#Bahnschrift-50" x="202.050781"/>
      <use xlink:href="#Bahnschrift-65" x="264.306641"/>
      <use xlink:href="#Bahnschrift-72" x="317.919922"/>
      <use xlink:href="#Bahnschrift-63" x="360.595703"/>
      <use xlink:href="#Bahnschrift-65" x="410.400391"/>
      <use xlink:href="#Bahnschrift-6e" x="464.013672"/>
      <use xlink:href="#Bahnschrift-74" x="519.873047"/>
      <use xlink:href="#Bahnschrift-69" x="552.490234"/>
      <use xlink:href="#Bahnschrift-6c" x="577.587891"/>
      <use xlink:href="#Bahnschrift-65" x="606.542969"/>
      <use xlink:href="#Bahnschrift-73" x="660.15625"/>
     </g>
    </g>
   </g>
  </g>
 </g>
 <defs>
  <clipPath id="p767709fcb9">
   <rect x="62.1875" y="17.28" width="1000.5325" height="210.76"/>
  </clipPath>
 </defs>
</svg>
