<?xml version="1.0" encoding="utf-8" standalone="no"?>
<!DOCTYPE svg PUBLIC "-//W3C//DTD SVG 1.1//EN"
  "http://www.w3.org/Graphics/SVG/1.1/DTD/svg11.dtd">
<svg xmlns:xlink="http://www.w3.org/1999/xlink" width="1080pt" height="288pt" viewBox="0 0 1080 288" xmlns="http://www.w3.org/2000/svg" version="1.1">
 <metadata>
  <rdf:RDF xmlns:dc="http://purl.org/dc/elements/1.1/" xmlns:cc="http://creativecommons.org/ns#" xmlns:rdf="http://www.w3.org/1999/02/22-rdf-syntax-ns#">
   <cc:Work>
    <dc:type rdf:resource="http://purl.org/dc/dcmitype/StillImage"/>
    <dc:date>2024-05-29T19:40:36.064963</dc:date>
    <dc:format>image/svg+xml</dc:format>
    <dc:creator>
     <cc:Agent>
      <dc:title>Matplotlib v3.8.2, https://matplotlib.org/</dc:title>
     </cc:Agent>
    </dc:creator>
   </cc:Work>
  </rdf:RDF>
 </metadata>
 <defs>
  <style type="text/css">*{stroke-linejoin: round; stroke-linecap: butt}</style>
 </defs>
 <g id="figure_1">
  <g id="patch_1">
   <path d="M 0 288 
L 1080 288 
L 1080 0 
L 0 0 
z
" style="fill: #ffffff"/>
  </g>
  <g id="axes_1">
   <g id="patch_2">
    <path d="M 65.8775 228.04 
L 1062.72 228.04 
L 1062.72 17.28 
L 65.8775 17.28 
z
" style="fill: #ffffff"/>
   </g>
   <g id="PolyCollection_1">
    <defs>
     <path id="m796a6025f2" d="M 111.188523 -179.041754 
L 111.188523 -78.511046 
L 112.09565 -79.807189 
L 113.002778 -76.611718 
L 113.909905 -87.185266 
L 114.817033 -83.357589 
L 115.724161 -82.362366 
L 116.631288 -84.399506 
L 117.538416 -79.280418 
L 118.445543 -82.245094 
L 119.352671 -87.079637 
L 120.259799 -87.031516 
L 121.166926 -84.126059 
L 122.074054 -81.586695 
L 122.981181 -80.250129 
L 123.888309 -88.759284 
L 124.795436 -72.004093 
L 125.702564 -81.40271 
L 126.609692 -80.19511 
L 127.516819 -70.467649 
L 128.423947 -84.940691 
L 129.331074 -79.882656 
L 130.238202 -90.500848 
L 131.14533 -80.467279 
L 132.052457 -83.89732 
L 132.959585 -87.448821 
L 133.866712 -74.731746 
L 134.77384 -79.330978 
L 135.680967 -82.970774 
L 136.588095 -86.211808 
L 137.495223 -69.54 
L 138.40235 -83.899693 
L 139.309478 -78.517671 
L 140.216605 -80.565452 
L 141.123733 -81.631394 
L 142.030861 -79.828962 
L 142.937988 -80.6559 
L 143.845116 -74.456155 
L 144.752243 -86.405284 
L 145.659371 -77.92626 
L 146.566498 -86.713213 
L 147.473626 -88.528061 
L 148.380754 -83.432502 
L 149.287881 -81.113709 
L 150.195009 -75.563485 
L 151.102136 -83.206577 
L 152.009264 -91.251079 
L 152.916392 -84.418315 
L 153.823519 -83.947096 
L 154.730647 -85.405288 
L 155.637774 -80.228331 
L 156.544902 -84.776627 
L 157.452029 -83.200782 
L 158.359157 -83.384822 
L 159.266285 -73.71238 
L 160.173412 -82.737951 
L 161.08054 -78.458347 
L 161.987667 -84.407389 
L 162.894795 -91.01765 
L 163.801922 -85.75019 
L 164.70905 -90.412939 
L 165.616178 -83.77321 
L 166.523305 -78.398031 
L 167.430433 -79.731948 
L 168.33756 -83.868403 
L 169.244688 -78.639297 
L 170.151816 -91.749174 
L 171.058943 -91.653484 
L 171.966071 -84.820278 
L 172.873198 -79.601326 
L 173.780326 -82.777242 
L 174.687453 -86.485301 
L 175.594581 -94.201567 
L 176.501709 -81.16619 
L 177.408836 -92.205328 
L 178.315964 -89.694383 
L 179.223091 -90.057441 
L 180.130219 -88.643286 
L 181.037347 -92.763683 
L 181.944474 -82.323682 
L 182.851602 -88.193589 
L 183.758729 -88.327301 
L 184.665857 -83.621011 
L 185.572984 -79.39008 
L 186.480112 -91.006944 
L 187.38724 -85.515933 
L 188.294367 -89.374535 
L 189.201495 -87.423988 
L 190.108622 -90.761815 
L 191.01575 -85.587727 
L 191.922878 -84.12501 
L 192.830005 -86.95641 
L 193.737133 -96.431237 
L 194.64426 -84.356509 
L 195.551388 -91.013124 
L 196.458515 -92.917648 
L 197.365643 -80.305203 
L 198.272771 -92.054509 
L 199.179898 -91.011966 
L 200.087026 -88.0681 
L 200.994153 -89.97174 
L 201.901281 -87.055135 
L 202.808409 -87.837208 
L 203.715536 -90.967763 
L 204.622664 -83.717087 
L 205.529791 -88.650681 
L 206.436919 -91.9996 
L 207.344046 -79.266302 
L 208.251174 -88.522322 
L 209.158302 -90.783061 
L 210.065429 -88.019262 
L 210.972557 -85.522444 
L 211.879684 -94.469763 
L 212.786812 -87.262573 
L 213.69394 -90.542291 
L 214.601067 -88.389328 
L 215.508195 -86.267544 
L 216.415322 -79.501608 
L 217.32245 -88.994866 
L 218.229577 -93.48246 
L 219.136705 -86.952713 
L 220.043833 -90.666291 
L 220.95096 -90.89056 
L 221.858088 -81.126236 
L 222.765215 -84.551475 
L 223.672343 -91.221942 
L 224.57947 -94.670469 
L 225.486598 -97.024248 
L 226.393726 -92.118578 
L 227.300853 -88.008997 
L 228.207981 -89.852762 
L 229.115108 -90.498585 
L 230.022236 -87.825951 
L 230.929364 -87.776726 
L 231.836491 -83.028055 
L 232.743619 -84.2356 
L 233.650746 -83.959512 
L 234.557874 -95.522405 
L 235.465001 -90.291589 
L 236.372129 -88.270847 
L 237.279257 -96.861454 
L 238.186384 -99.277923 
L 239.093512 -96.287482 
L 240.000639 -88.762816 
L 240.907767 -85.974625 
L 241.814895 -88.522377 
L 242.722022 -93.603976 
L 243.62915 -88.644666 
L 244.536277 -90.032332 
L 245.443405 -82.512302 
L 246.350532 -89.510454 
L 247.25766 -89.930352 
L 248.164788 -85.754439 
L 249.071915 -94.264809 
L 249.979043 -87.831193 
L 250.88617 -90.935977 
L 251.793298 -87.306555 
L 252.700426 -93.90142 
L 253.607553 -90.608568 
L 254.514681 -86.903709 
L 255.421808 -99.060938 
L 256.328936 -87.601129 
L 257.236063 -83.899306 
L 258.143191 -95.402159 
L 259.050319 -91.744152 
L 259.957446 -95.753518 
L 260.864574 -90.843267 
L 261.771701 -88.701616 
L 262.678829 -91.302953 
L 263.585957 -89.637654 
L 264.493084 -85.517919 
L 265.400212 -95.129658 
L 266.307339 -91.654919 
L 267.214467 -90.234804 
L 268.121594 -91.889121 
L 269.028722 -97.782868 
L 269.93585 -90.885317 
L 270.842977 -95.685365 
L 271.750105 -97.08622 
L 272.657232 -101.666965 
L 273.56436 -89.682739 
L 274.471488 -94.511814 
L 275.378615 -93.735149 
L 276.285743 -93.973159 
L 277.19287 -87.798027 
L 278.099998 -97.928168 
L 279.007125 -96.659093 
L 279.914253 -92.744203 
L 280.821381 -96.285109 
L 281.728508 -95.500828 
L 282.635636 -95.460102 
L 283.542763 -92.168078 
L 284.449891 -86.25728 
L 285.357018 -97.024635 
L 286.264146 -90.496102 
L 287.171274 -88.549859 
L 288.078401 -86.007956 
L 288.985529 -94.533667 
L 289.892656 -97.726359 
L 290.799784 -87.193814 
L 291.706912 -93.154223 
L 292.614039 -99.796987 
L 293.521167 -80.701647 
L 294.428294 -95.037721 
L 295.335422 -94.77543 
L 296.242549 -95.652089 
L 297.149677 -90.489811 
L 298.056805 -88.810605 
L 298.963932 -95.697671 
L 299.87106 -90.665352 
L 300.778187 -99.121751 
L 301.685315 -93.576384 
L 302.592443 -95.699989 
L 303.49957 -96.513351 
L 304.406698 -94.31453 
L 305.313825 -93.644923 
L 306.220953 -106.144129 
L 307.12808 -100.648262 
L 308.035208 -100.593739 
L 308.942336 -92.875487 
L 309.849463 -93.557952 
L 310.756591 -96.509599 
L 311.663718 -94.116639 
L 312.570846 -97.713005 
L 313.477974 -97.439787 
L 314.385101 -93.71004 
L 315.292229 -91.654808 
L 316.199356 -96.602529 
L 317.106484 -95.81847 
L 318.013611 -92.110466 
L 318.920739 -92.054785 
L 319.827867 -94.904175 
L 320.734994 -98.645786 
L 321.642122 -92.22547 
L 322.549249 -103.51658 
L 323.456377 -103.093481 
L 324.363505 -96.440122 
L 325.270632 -98.422013 
L 326.17776 -101.254076 
L 327.084887 -98.01536 
L 327.992015 -98.601639 
L 328.899142 -103.227524 
L 329.80627 -99.92187 
L 330.713398 -97.429688 
L 331.620525 -99.991733 
L 332.527653 -91.192474 
L 333.43478 -95.193341 
L 334.341908 -89.22653 
L 335.249036 -102.769328 
L 336.156163 -95.183077 
L 337.063291 -94.294719 
L 337.970418 -94.73051 
L 338.877546 -98.956419 
L 339.784673 -94.08099 
L 340.691801 -87.418414 
L 341.598929 -96.580897 
L 342.506056 -95.596297 
L 343.413184 -82.563458 
L 344.320311 -99.324388 
L 345.227439 -100.19139 
L 346.134566 -100.267434 
L 347.041694 -104.505263 
L 347.948822 -102.550136 
L 348.855949 -109.274408 
L 349.763077 -105.522367 
L 350.670204 -97.449223 
L 351.577332 -96.468983 
L 352.48446 -108.673836 
L 353.391587 -100.2543 
L 354.298715 -106.876095 
L 355.205842 -99.632924 
L 356.11297 -102.251147 
L 357.020097 -98.074904 
L 357.927225 -103.597867 
L 358.834353 -99.749308 
L 359.74148 -98.787831 
L 360.648608 -104.564752 
L 361.555735 -95.980325 
L 362.462863 -106.288546 
L 363.369991 -102.333537 
L 364.277118 -102.104136 
L 365.184246 -103.509461 
L 366.091373 -102.996743 
L 366.998501 -104.878089 
L 367.905628 -96.063599 
L 368.812756 -97.171977 
L 369.719884 -96.625872 
L 370.627011 -95.148862 
L 371.534139 -97.38256 
L 372.441266 -99.461301 
L 373.348394 -108.547905 
L 374.255522 -103.919095 
L 375.162649 -102.34794 
L 376.069777 -101.073788 
L 376.976904 -97.66985 
L 377.884032 -107.966869 
L 378.791159 -100.711503 
L 379.698287 -100.561015 
L 380.605415 -97.908523 
L 381.512542 -97.91062 
L 382.41967 -104.901101 
L 383.326797 -107.855562 
L 384.233925 -97.787835 
L 385.141053 -104.462882 
L 386.04818 -98.51533 
L 386.955308 -105.966159 
L 387.862435 -104.027863 
L 388.769563 -106.764401 
L 389.67669 -104.048392 
L 390.583818 -105.769648 
L 391.490946 -105.18061 
L 392.398073 -101.716576 
L 393.305201 -101.725957 
L 394.212328 -106.4706 
L 395.119456 -106.530806 
L 396.026584 -102.342753 
L 396.933711 -98.314073 
L 397.840839 -101.871313 
L 398.747966 -103.975052 
L 399.655094 -107.792928 
L 400.562221 -108.897222 
L 401.469349 -105.971236 
L 402.376477 -101.880749 
L 403.283604 -100.826507 
L 404.190732 -108.785033 
L 405.097859 -110.458278 
L 406.004987 -96.059349 
L 406.912115 -109.909801 
L 407.819242 -97.935177 
L 408.72637 -113.462405 
L 409.633497 -106.008651 
L 410.540625 -106.934093 
L 411.447752 -103.035593 
L 412.35488 -106.464474 
L 413.262008 -107.913064 
L 414.169135 -106.061242 
L 415.076263 -102.301199 
L 415.98339 -108.784536 
L 416.890518 -94.431797 
L 417.797645 -106.163388 
L 418.704773 -106.932493 
L 419.611901 -104.981394 
L 420.519028 -105.833772 
L 421.426156 -108.591501 
L 422.333283 -107.986515 
L 423.240411 -109.409996 
L 424.147539 -99.384815 
L 425.054666 -108.155875 
L 425.961794 -102.297943 
L 426.868921 -99.986822 
L 427.776049 -108.20808 
L 428.683176 -106.477332 
L 429.590304 -106.734491 
L 430.497432 -110.573503 
L 431.404559 -104.218415 
L 432.311687 -106.744645 
L 433.218814 -104.792498 
L 434.125942 -112.216232 
L 435.03307 -108.431797 
L 435.940197 -109.292453 
L 436.847325 -108.262271 
L 437.754452 -110.43179 
L 438.66158 -108.817867 
L 439.568707 -102.38072 
L 440.475835 -104.053358 
L 441.382963 -109.179766 
L 442.29009 -106.928189 
L 443.197218 -100.097687 
L 444.104345 -112.316888 
L 445.011473 -103.220461 
L 445.918601 -107.672681 
L 446.825728 -111.494972 
L 447.732856 -100.67922 
L 448.639983 -102.245739 
L 449.547111 -104.244352 
L 450.454238 -104.146841 
L 451.361366 -98.713001 
L 452.268494 -111.661849 
L 453.175621 -108.872169 
L 454.082749 -108.487865 
L 454.989876 -99.859898 
L 455.897004 -113.068334 
L 456.804132 -109.522627 
L 457.711259 -113.415167 
L 458.618387 -109.935406 
L 459.525514 -109.365076 
L 460.432642 -114.568024 
L 461.339769 -109.706888 
L 462.246897 -104.114779 
L 463.154025 -112.02855 
L 464.061152 -108.059468 
L 464.96828 -115.422996 
L 465.875407 -112.757094 
L 466.782535 -113.312249 
L 467.689663 -102.667624 
L 468.59679 -112.444143 
L 469.503918 -109.229101 
L 470.411045 -111.792471 
L 471.318173 -110.867636 
L 472.2253 -114.109166 
L 473.132428 -104.676887 
L 474.039556 -110.984627 
L 474.946683 -113.654226 
L 475.853811 -106.697794 
L 476.760938 -115.480443 
L 477.668066 -104.184973 
L 478.575193 -111.915587 
L 479.482321 -103.249653 
L 480.389449 -113.151938 
L 481.296576 -113.395687 
L 482.203704 -112.033958 
L 483.110831 -107.855341 
L 484.017959 -112.758915 
L 484.925087 -114.919549 
L 485.832214 -112.07656 
L 486.739342 -109.480576 
L 487.646469 -115.518961 
L 488.553597 -115.44827 
L 489.460724 -111.622393 
L 490.367852 -113.560578 
L 491.27498 -118.187899 
L 492.182107 -120.00054 
L 493.089235 -114.78087 
L 493.996362 -113.68844 
L 494.90349 -112.076726 
L 495.810618 -118.80028 
L 496.717745 -114.347618 
L 497.624873 -104.683564 
L 498.532 -111.808419 
L 499.439128 -109.985514 
L 500.346255 -112.317164 
L 501.253383 -110.762565 
L 502.160511 -106.378828 
L 503.067638 -112.756763 
L 503.974766 -120.160961 
L 504.881893 -111.644853 
L 505.789021 -110.755556 
L 506.696149 -120.888622 
L 507.603276 -119.257537 
L 508.510404 -111.625372 
L 509.417531 -116.020587 
L 510.324659 -125.694299 
L 511.231786 -120.159416 
L 512.138914 -110.995774 
L 513.046042 -114.964358 
L 513.953169 -114.96044 
L 514.860297 -118.814959 
L 515.767424 -112.398947 
L 516.674552 -118.426406 
L 517.58168 -118.869095 
L 518.488807 -116.487778 
L 519.395935 -116.763038 
L 520.303062 -113.761008 
L 521.21019 -110.424616 
L 522.117317 -112.71565 
L 523.024445 -112.763661 
L 523.931573 -123.252555 
L 524.8387 -112.995601 
L 525.745828 -111.791091 
L 526.652955 -112.545682 
L 527.560083 -118.751828 
L 528.467211 -117.251861 
L 529.374338 -120.874109 
L 530.281466 -117.919923 
L 531.188593 -110.840154 
L 532.095721 -117.8111 
L 533.002848 -124.015424 
L 533.909976 -118.711212 
L 534.817104 -118.735548 
L 535.724231 -117.743444 
L 536.631359 -116.190335 
L 537.538486 -117.697972 
L 538.445614 -120.333743 
L 539.352741 -111.074467 
L 540.259869 -112.256571 
L 541.166997 -118.488764 
L 542.074124 -117.592735 
L 542.981252 -119.145513 
L 543.888379 -109.968517 
L 544.795507 -123.650711 
L 545.702635 -115.261195 
L 546.609762 -118.002369 
L 547.51689 -117.290656 
L 548.424017 -112.766089 
L 549.331145 -117.922186 
L 550.238272 -123.94683 
L 551.1454 -119.294953 
L 552.052528 -122.030332 
L 552.959655 -120.643548 
L 553.866783 -115.490155 
L 554.77391 -114.334208 
L 555.681038 -125.027175 
L 556.588166 -117.46686 
L 557.495293 -111.341725 
L 558.402421 -111.564228 
L 559.309548 -118.102639 
L 560.216676 -125.937441 
L 561.123803 -119.235574 
L 562.030931 -120.300357 
L 562.938059 -124.638897 
L 563.845186 -118.189775 
L 564.752314 -115.256394 
L 565.659441 -121.087783 
L 566.566569 -115.097794 
L 567.473697 -116.699852 
L 568.380824 -116.363007 
L 569.287952 -118.801494 
L 570.195079 -124.957146 
L 571.102207 -118.199819 
L 572.009334 -122.343062 
L 572.916462 -124.30139 
L 573.82359 -117.554437 
L 574.730717 -125.275228 
L 575.637845 -119.375411 
L 576.544972 -119.131055 
L 577.4521 -113.669512 
L 578.359228 -130.657637 
L 579.266355 -111.839488 
L 580.173483 -117.181832 
L 581.08061 -121.796847 
L 581.987738 -115.387788 
L 582.894865 -115.99752 
L 583.801993 -122.439138 
L 584.709121 -121.166751 
L 585.616248 -119.721362 
L 586.523376 -123.022823 
L 587.430503 -131.118371 
L 588.337631 -113.404296 
L 589.244759 -118.218968 
L 590.151886 -121.170062 
L 591.059014 -116.815077 
L 591.966141 -121.282087 
L 592.873269 -121.443943 
L 593.780396 -117.222669 
L 594.687524 -118.926707 
L 595.594652 -114.032625 
L 596.501779 -122.55657 
L 597.408907 -129.50489 
L 598.316034 -121.611648 
L 599.223162 -116.128583 
L 600.130289 -118.905461 
L 601.037417 -120.24142 
L 601.944545 -125.01233 
L 602.851672 -122.11962 
L 603.7588 -126.318268 
L 604.665927 -121.513861 
L 605.573055 -126.028992 
L 606.480183 -125.137764 
L 607.38731 -114.035054 
L 608.294438 -124.306301 
L 609.201565 -114.885831 
L 610.108693 -116.681531 
L 611.01582 -115.266383 
L 611.922948 -129.010162 
L 612.830076 -117.504661 
L 613.737203 -120.719648 
L 614.644331 -114.100226 
L 615.551458 -126.241286 
L 616.458586 -119.676939 
L 617.365714 -123.948099 
L 618.272841 -127.701685 
L 619.179969 -125.445472 
L 620.087096 -131.638484 
L 620.994224 -121.637309 
L 621.901351 -127.533594 
L 622.808479 -121.439914 
L 623.715607 -122.783543 
L 624.622734 -115.546609 
L 625.529862 -128.164075 
L 626.436989 -127.925734 
L 627.344117 -127.647163 
L 628.251245 -120.941434 
L 629.158372 -130.787044 
L 630.0655 -120.506526 
L 630.972627 -117.945474 
L 631.879755 -124.180757 
L 632.786882 -119.673904 
L 633.69401 -126.261649 
L 634.601138 -118.521323 
L 635.508265 -134.814786 
L 636.415393 -127.327977 
L 637.32252 -126.071484 
L 638.229648 -128.874685 
L 639.136776 -117.056233 
L 640.043903 -130.291102 
L 640.951031 -125.616102 
L 641.858158 -119.406315 
L 642.765286 -130.256667 
L 643.672413 -130.74985 
L 644.579541 -127.831424 
L 645.486669 -125.683869 
L 646.393796 -119.949439 
L 647.300924 -127.421514 
L 648.208051 -119.775553 
L 649.115179 -122.45492 
L 650.022307 -123.631396 
L 650.929434 -121.506963 
L 651.836562 -124.452374 
L 652.743689 -126.544524 
L 653.650817 -127.184442 
L 654.557944 -123.676151 
L 655.465072 -135.21835 
L 656.3722 -129.935384 
L 657.279327 -125.746834 
L 658.186455 -125.644136 
L 659.093582 -124.226284 
L 660.00071 -131.411235 
L 660.907837 -120.631573 
L 661.814965 -130.242926 
L 662.722093 -121.185183 
L 663.62922 -127.422618 
L 664.536348 -131.641574 
L 665.443475 -132.559621 
L 666.350603 -123.020836 
L 667.257731 -132.04729 
L 668.164858 -128.939637 
L 669.071986 -117.934547 
L 669.979113 -124.997596 
L 670.886241 -124.059351 
L 671.793368 -126.266229 
L 672.700496 -133.198767 
L 673.607624 -129.00205 
L 674.514751 -130.111698 
L 675.421879 -135.336058 
L 676.329006 -130.183437 
L 677.236134 -133.867877 
L 678.143262 -129.276427 
L 679.050389 -127.412023 
L 679.957517 -131.825945 
L 680.864644 -123.993737 
L 681.771772 -133.32536 
L 682.678899 -132.397655 
L 683.586027 -130.394849 
L 684.493155 -115.730594 
L 685.400282 -121.20814 
L 686.30741 -128.455835 
L 687.214537 -124.872438 
L 688.121665 -124.265409 
L 689.028793 -123.691547 
L 689.93592 -129.520231 
L 690.843048 -122.83939 
L 691.750175 -124.707216 
L 692.657303 -128.624092 
L 693.56443 -128.677456 
L 694.471558 -140.248902 
L 695.378686 -131.335687 
L 696.285813 -140.494693 
L 697.192941 -131.547761 
L 698.100068 -123.596023 
L 699.007196 -129.705541 
L 699.914324 -124.761738 
L 700.821451 -128.987206 
L 701.728579 -126.443702 
L 702.635706 -122.847281 
L 703.542834 -136.148317 
L 704.449961 -130.620718 
L 705.357089 -127.461633 
L 706.264217 -130.039185 
L 707.171344 -127.006031 
L 708.078472 -125.997206 
L 708.985599 -129.036871 
L 709.892727 -127.668685 
L 710.799855 -122.647569 
L 711.706982 -139.337312 
L 712.61411 -130.722202 
L 713.521237 -135.059639 
L 714.428365 -134.553819 
L 715.335492 -135.853908 
L 716.24262 -130.939408 
L 717.149748 -129.265611 
L 718.056875 -131.927153 
L 718.964003 -136.105218 
L 719.87113 -127.674314 
L 720.778258 -130.013028 
L 721.685385 -135.519767 
L 722.592513 -131.249655 
L 723.499641 -133.174982 
L 724.406768 -124.740878 
L 725.313896 -128.389779 
L 726.221023 -127.063975 
L 727.128151 -130.247727 
L 728.035279 -131.198444 
L 728.942406 -130.534465 
L 729.849534 -130.937311 
L 730.756661 -134.758443 
L 731.663789 -136.623785 
L 732.570916 -128.572716 
L 733.478044 -130.256888 
L 734.385172 -132.396662 
L 735.292299 -134.064334 
L 736.199427 -124.921938 
L 737.106554 -126.804167 
L 738.013682 -131.331769 
L 738.92081 -129.906688 
L 739.827937 -139.28163 
L 740.735065 -131.349538 
L 741.642192 -130.523042 
L 742.54932 -142.979701 
L 743.456447 -134.74702 
L 744.363575 -139.275064 
L 745.270703 -131.64621 
L 746.17783 -131.85431 
L 747.084958 -128.853273 
L 747.992085 -134.1305 
L 748.899213 -133.03807 
L 749.806341 -138.208736 
L 750.713468 -127.260155 
L 751.620596 -132.910815 
L 752.527723 -132.111855 
L 753.434851 -131.279178 
L 754.341978 -124.119667 
L 755.249106 -132.632079 
L 756.156234 -135.171664 
L 757.063361 -133.474854 
L 757.970489 -132.59505 
L 758.877616 -122.354816 
L 759.784744 -137.305809 
L 760.691872 -128.24641 
L 761.598999 -128.736448 
L 762.506127 -138.062056 
L 763.413254 -124.520858 
L 764.320382 -132.327074 
L 765.227509 -125.48824 
L 766.134637 -134.251574 
L 767.041765 -142.428189 
L 767.948892 -132.637155 
L 768.85602 -131.584348 
L 769.763147 -128.341548 
L 770.670275 -131.392748 
L 771.577403 -126.582877 
L 772.48453 -134.87422 
L 773.391658 -127.748206 
L 774.298785 -141.17153 
L 775.205913 -137.214203 
L 776.11304 -123.652863 
L 777.020168 -133.949219 
L 777.927296 -130.251921 
L 778.834423 -140.310654 
L 779.741551 -121.998932 
L 780.648678 -134.708943 
L 781.555806 -139.590111 
L 782.462934 -134.973496 
L 783.370061 -133.487547 
L 784.277189 -139.720512 
L 785.184316 -135.295497 
L 786.091444 -135.875982 
L 786.998571 -135.945459 
L 787.905699 -142.696329 
L 788.812827 -138.620246 
L 789.719954 -130.125052 
L 790.627082 -139.486089 
L 791.534209 -137.384281 
L 792.441337 -138.294106 
L 793.348464 -133.275584 
L 794.255592 -136.514631 
L 795.16272 -132.631085 
L 796.069847 -141.074129 
L 796.976975 -130.906353 
L 797.884102 -130.518131 
L 798.79123 -129.006741 
L 799.698358 -149.469108 
L 800.605485 -135.987951 
L 801.512613 -145.46057 
L 802.41974 -134.794037 
L 803.326868 -138.879502 
L 804.233995 -135.054452 
L 805.141123 -133.09182 
L 806.048251 -133.561715 
L 806.955378 -136.246821 
L 807.862506 -144.015512 
L 808.769633 -142.026943 
L 809.676761 -139.097646 
L 810.583889 -142.553457 
L 811.491016 -134.623738 
L 812.398144 -141.032134 
L 813.305271 -141.697106 
L 814.212399 -143.906192 
L 815.119526 -142.157012 
L 816.026654 -136.311166 
L 816.933782 -139.667811 
L 817.840909 -139.392275 
L 818.748037 -136.733381 
L 819.655164 -138.390844 
L 820.562292 -125.79065 
L 821.46942 -136.982539 
L 822.376547 -147.085253 
L 823.283675 -141.600368 
L 824.190802 -127.47245 
L 825.09793 -134.216091 
L 826.005057 -136.68344 
L 826.912185 -141.590324 
L 827.819313 -131.168037 
L 828.72644 -142.040905 
L 829.633568 -133.723957 
L 830.540695 -138.991802 
L 831.447823 -138.898209 
L 832.354951 -137.375562 
L 833.262078 -143.228031 
L 834.169206 -135.450069 
L 835.076333 -142.182894 
L 835.983461 -143.073901 
L 836.890588 -127.023469 
L 837.797716 -140.961774 
L 838.704844 -140.647223 
L 839.611971 -137.675986 
L 840.519099 -133.705911 
L 841.426226 -130.049505 
L 842.333354 -142.216943 
L 843.240482 -128.187363 
L 844.147609 -135.323034 
L 845.054737 -140.230029 
L 845.961864 -136.441732 
L 846.868992 -142.629998 
L 847.776119 -140.688887 
L 848.683247 -135.28286 
L 849.590375 -144.138132 
L 850.497502 -139.031976 
L 851.40463 -144.774352 
L 852.311757 -137.055603 
L 853.218885 -136.028622 
L 854.126012 -137.174581 
L 855.03314 -135.061074 
L 855.940268 -145.832347 
L 856.847395 -130.746208 
L 857.754523 -143.673148 
L 858.66165 -141.672273 
L 859.568778 -134.622138 
L 860.475906 -137.652036 
L 861.383033 -136.95296 
L 862.290161 -141.884567 
L 863.197288 -142.963643 
L 864.104416 -140.533819 
L 865.011543 -140.32765 
L 865.918671 -153.03871 
L 866.825799 -138.334832 
L 867.732926 -147.67076 
L 868.640054 -138.699932 
L 869.547181 -141.303917 
L 870.454309 -154.390506 
L 871.361437 -147.386505 
L 872.268564 -145.384085 
L 873.175692 -139.017297 
L 874.082819 -132.4604 
L 874.989947 -136.192685 
L 875.897074 -146.777545 
L 876.804202 -153.577751 
L 877.71133 -140.549767 
L 878.618457 -141.131245 
L 879.525585 -146.618725 
L 880.432712 -142.18466 
L 881.33984 -140.084398 
L 882.246968 -142.710622 
L 883.154095 -139.48515 
L 884.061223 -144.009773 
L 884.96835 -151.237878 
L 885.875478 -147.283365 
L 886.782605 -135.517283 
L 887.689733 -133.941604 
L 888.596861 -148.132598 
L 889.503988 -144.895979 
L 890.411116 -142.091674 
L 891.318243 -138.200679 
L 892.225371 -145.744494 
L 893.132499 -145.246344 
L 894.039626 -146.60984 
L 894.946754 -145.93488 
L 895.853881 -149.118743 
L 896.761009 -146.204124 
L 897.668136 -145.593344 
L 898.575264 -152.388417 
L 899.482392 -150.514742 
L 900.389519 -137.351888 
L 901.296647 -158.472936 
L 902.203774 -148.352011 
L 903.110902 -137.322144 
L 904.01803 -144.134379 
L 904.925157 -136.374959 
L 905.832285 -144.205953 
L 906.739412 -146.346224 
L 907.64654 -137.452324 
L 908.553667 -143.839915 
L 909.460795 -146.164336 
L 910.367923 -148.41619 
L 911.27505 -142.574924 
L 912.182178 -145.554494 
L 913.089305 -141.249229 
L 913.996433 -142.391546 
L 914.90356 -146.177581 
L 915.810688 -143.868777 
L 916.717816 -150.427054 
L 917.624943 -148.3817 
L 918.532071 -145.581038 
L 919.439198 -150.219836 
L 920.346326 -140.633317 
L 921.253454 -144.485407 
L 922.160581 -147.366639 
L 923.067709 -148.472478 
L 923.974836 -141.974738 
L 924.881964 -138.191849 
L 925.789091 -146.963351 
L 926.696219 -152.946165 
L 927.603347 -135.084859 
L 928.510474 -145.912972 
L 929.417602 -148.78416 
L 930.324729 -143.681371 
L 931.231857 -147.817936 
L 932.138985 -144.237464 
L 933.046112 -139.619304 
L 933.95324 -145.31091 
L 934.860367 -147.631468 
L 935.767495 -153.63906 
L 936.674622 -145.686329 
L 937.58175 -151.562914 
L 938.488878 -148.317576 
L 939.396005 -149.29605 
L 940.303133 -147.072395 
L 941.21026 -144.590644 
L 942.117388 -156.410585 
L 943.024516 -149.874658 
L 943.931643 -148.903413 
L 944.838771 -142.524485 
L 945.745898 -146.855079 
L 946.653026 -145.824511 
L 947.560153 -152.69171 
L 948.467281 -144.877713 
L 949.374409 -150.504422 
L 950.281536 -146.088182 
L 951.188664 -143.741742 
L 952.095791 -141.940248 
L 953.002919 -143.56013 
L 953.910047 -161.20368 
L 954.817174 -151.109519 
L 955.724302 -163.646747 
L 956.631429 -142.459037 
L 957.538557 -144.314501 
L 958.445684 -141.120595 
L 959.352812 -148.147277 
L 960.25994 -155.903055 
L 961.167067 -141.180028 
L 962.074195 -147.969362 
L 962.981322 -152.254484 
L 963.88845 -140.37395 
L 964.795578 -141.59358 
L 965.702705 -151.207526 
L 966.609833 -145.056124 
L 967.51696 -147.905735 
L 968.424088 -145.032339 
L 969.331215 -146.885265 
L 970.238343 -154.616486 
L 971.145471 -153.736571 
L 972.052598 -157.16032 
L 972.959726 -150.163272 
L 973.866853 -151.117741 
L 974.773981 -147.842604 
L 975.681108 -145.006403 
L 976.588236 -156.46588 
L 977.495364 -161.158484 
L 978.402491 -144.348329 
L 979.309619 -152.849758 
L 980.216746 -147.900603 
L 981.123874 -141.311312 
L 982.031002 -149.593494 
L 982.938129 -151.89093 
L 983.845257 -151.556292 
L 984.752384 -150.413313 
L 985.659512 -162.649786 
L 986.566639 -148.06737 
L 987.473767 -139.44619 
L 988.380895 -148.867322 
L 989.288022 -144.188074 
L 990.19515 -155.707426 
L 991.102277 -144.892061 
L 992.009405 -149.092254 
L 992.916533 -145.696925 
L 993.82366 -156.699255 
L 994.730788 -151.941699 
L 995.637915 -147.147115 
L 996.545043 -141.886609 
L 997.45217 -154.317994 
L 998.359298 -151.193785 
L 999.266426 -154.095766 
L 1000.173553 -160.92682 
L 1001.080681 -156.234051 
L 1001.987808 -142.580884 
L 1002.894936 -162.251245 
L 1003.802064 -152.950249 
L 1004.709191 -146.714525 
L 1005.616319 -152.576099 
L 1006.523446 -150.984416 
L 1007.430574 -143.780592 
L 1008.337701 -151.113106 
L 1009.244829 -143.921861 
L 1010.151957 -154.712063 
L 1011.059084 -156.014803 
L 1011.966212 -148.532698 
L 1012.873339 -148.008916 
L 1013.780467 -147.103092 
L 1014.687595 -137.745206 
L 1015.594722 -148.125079 
L 1016.50185 -134.704509 
L 1017.408977 -157.440569 
L 1017.408977 -250.968741 
L 1017.408977 -250.968741 
L 1016.50185 -246.13481 
L 1015.594722 -244.28939 
L 1014.687595 -246.954133 
L 1013.780467 -238.824701 
L 1012.873339 -230.282656 
L 1011.966212 -235.32099 
L 1011.059084 -239.065747 
L 1010.151957 -232.729311 
L 1009.244829 -238.707876 
L 1008.337701 -243.310907 
L 1007.430574 -235.499029 
L 1006.523446 -232.367837 
L 1005.616319 -234.2499 
L 1004.709191 -238.576366 
L 1003.802064 -236.248692 
L 1002.894936 -249.288719 
L 1001.987808 -247.655416 
L 1001.080681 -238.142777 
L 1000.173553 -234.356453 
L 999.266426 -257.341494 
L 998.359298 -250.142013 
L 997.45217 -240.549003 
L 996.545043 -231.047343 
L 995.637915 -243.353658 
L 994.730788 -236.616744 
L 993.82366 -240.22455 
L 992.916533 -238.211619 
L 992.009405 -231.651168 
L 991.102277 -244.469569 
L 990.19515 -238.5085 
L 989.288022 -247.847877 
L 988.380895 -226.25144 
L 987.473767 -241.731205 
L 986.566639 -227.543094 
L 985.659512 -232.220075 
L 984.752384 -222.828053 
L 983.845257 -250.576295 
L 982.938129 -249.726646 
L 982.031002 -242.137872 
L 981.123874 -233.165582 
L 980.216746 -230.255784 
L 979.309619 -242.191186 
L 978.402491 -229.398412 
L 977.495364 -235.441987 
L 976.588236 -242.469428 
L 975.681108 -224.219626 
L 974.773981 -246.166183 
L 973.866853 -232.611636 
L 972.959726 -242.747604 
L 972.052598 -235.252975 
L 971.145471 -236.700503 
L 970.238343 -250.666151 
L 969.331215 -237.061947 
L 968.424088 -247.238754 
L 967.51696 -231.691682 
L 966.609833 -222.37016 
L 965.702705 -231.770041 
L 964.795578 -235.726714 
L 963.88845 -242.204943 
L 962.981322 -235.357381 
L 962.074195 -236.456119 
L 961.167067 -245.978324 
L 960.25994 -239.182906 
L 959.352812 -235.645502 
L 958.445684 -232.199698 
L 957.538557 -242.04634 
L 956.631429 -241.862215 
L 955.724302 -237.544658 
L 954.817174 -234.554578 
L 953.910047 -241.41387 
L 953.002919 -252.157978 
L 952.095791 -237.825119 
L 951.188664 -252.063182 
L 950.281536 -238.802399 
L 949.374409 -240.441493 
L 948.467281 -247.218684 
L 947.560153 -257.815111 
L 946.653026 -239.346155 
L 945.745898 -234.395965 
L 944.838771 -223.497273 
L 943.931643 -253.276739 
L 943.024516 -234.147983 
L 942.117388 -221.094888 
L 941.21026 -234.17076 
L 940.303133 -229.148606 
L 939.396005 -223.941392 
L 938.488878 -231.212361 
L 937.58175 -228.152777 
L 936.674622 -226.563091 
L 935.767495 -223.320123 
L 934.860367 -236.81054 
L 933.95324 -228.844469 
L 933.046112 -247.779553 
L 932.138985 -230.800887 
L 931.231857 -222.578768 
L 930.324729 -223.424289 
L 929.417602 -224.998987 
L 928.510474 -228.782215 
L 927.603347 -226.625328 
L 926.696219 -225.406454 
L 925.789091 -228.372642 
L 924.881964 -233.500427 
L 923.974836 -229.14167 
L 923.067709 -223.557681 
L 922.160581 -249.567709 
L 921.253454 -238.181787 
L 920.346326 -238.316155 
L 919.439198 -234.534836 
L 918.532071 -236.578703 
L 917.624943 -234.785072 
L 916.717816 -236.780192 
L 915.810688 -238.397486 
L 914.90356 -238.998182 
L 913.996433 -237.617863 
L 913.089305 -244.99203 
L 912.182178 -231.742355 
L 911.27505 -234.528258 
L 910.367923 -235.780709 
L 909.460795 -225.380587 
L 908.553667 -231.947605 
L 907.64654 -247.197137 
L 906.739412 -249.519224 
L 905.832285 -232.367872 
L 904.925157 -244.865605 
L 904.01803 -220.861557 
L 903.110902 -241.595705 
L 902.203774 -230.577849 
L 901.296647 -234.237263 
L 900.389519 -250.927372 
L 899.482392 -261.14 
L 898.575264 -240.587737 
L 897.668136 -231.060891 
L 896.761009 -245.317817 
L 895.853881 -240.192725 
L 894.946754 -231.087796 
L 894.039626 -231.029229 
L 893.132499 -246.251106 
L 892.225371 -221.71074 
L 891.318243 -241.212033 
L 890.411116 -230.378752 
L 889.503988 -245.80853 
L 888.596861 -235.261253 
L 887.689733 -235.609196 
L 886.782605 -244.342389 
L 885.875478 -238.825292 
L 884.96835 -226.622274 
L 884.061223 -228.867271 
L 883.154095 -231.281954 
L 882.246968 -221.407538 
L 881.33984 -234.191611 
L 880.432712 -232.308403 
L 879.525585 -220.641923 
L 878.618457 -228.450074 
L 877.71133 -229.055783 
L 876.804202 -239.251249 
L 875.897074 -223.152901 
L 874.989947 -221.325448 
L 874.082819 -222.211555 
L 873.175692 -224.244084 
L 872.268564 -220.324354 
L 871.361437 -227.152127 
L 870.454309 -243.255709 
L 869.547181 -227.59321 
L 868.640054 -249.832332 
L 867.732926 -233.843988 
L 866.825799 -223.071176 
L 865.918671 -233.794356 
L 865.011543 -227.026574 
L 864.104416 -235.251099 
L 863.197288 -229.515207 
L 862.290161 -223.342153 
L 861.383033 -220.451648 
L 860.475906 -227.605651 
L 859.568778 -233.303212 
L 858.66165 -223.046392 
L 857.754523 -231.415978 
L 856.847395 -226.450962 
L 855.940268 -225.816173 
L 855.03314 -217.674806 
L 854.126012 -207.04383 
L 853.218885 -220.193923 
L 852.311757 -239.839492 
L 851.40463 -236.041726 
L 850.497502 -223.497199 
L 849.590375 -229.658408 
L 848.683247 -226.50398 
L 847.776119 -213.88416 
L 846.868992 -213.640303 
L 845.961864 -219.829055 
L 845.054737 -230.915061 
L 844.147609 -227.167879 
L 843.240482 -224.317068 
L 842.333354 -222.871372 
L 841.426226 -225.626141 
L 840.519099 -231.099115 
L 839.611971 -229.977034 
L 838.704844 -229.358105 
L 837.797716 -222.445048 
L 836.890588 -220.843849 
L 835.983461 -230.386803 
L 835.076333 -223.627644 
L 834.169206 -227.221347 
L 833.262078 -224.138792 
L 832.354951 -218.577763 
L 831.447823 -221.786447 
L 830.540695 -231.868573 
L 829.633568 -216.629641 
L 828.72644 -227.513137 
L 827.819313 -214.998485 
L 826.912185 -222.558929 
L 826.005057 -227.887337 
L 825.09793 -217.217388 
L 824.190802 -218.950379 
L 823.283675 -223.895625 
L 822.376547 -218.866366 
L 821.46942 -218.102054 
L 820.562292 -226.533504 
L 819.655164 -221.811531 
L 818.748037 -230.460656 
L 817.840909 -218.716485 
L 816.933782 -229.919204 
L 816.026654 -224.207505 
L 815.119526 -214.527274 
L 814.212399 -218.176437 
L 813.305271 -223.16175 
L 812.398144 -225.96803 
L 811.491016 -223.477777 
L 810.583889 -231.608999 
L 809.676761 -212.464597 
L 808.769633 -208.439799 
L 807.862506 -224.486682 
L 806.955378 -207.244097 
L 806.048251 -241.42047 
L 805.141123 -219.297028 
L 804.233995 -231.47816 
L 803.326868 -222.976104 
L 802.41974 -230.969771 
L 801.512613 -224.45134 
L 800.605485 -250.838147 
L 799.698358 -216.381052 
L 798.79123 -227.399739 
L 797.884102 -226.889198 
L 796.976975 -218.852529 
L 796.069847 -240.022782 
L 795.16272 -219.606046 
L 794.255592 -225.653573 
L 793.348464 -213.913615 
L 792.441337 -213.143572 
L 791.534209 -221.161564 
L 790.627082 -241.679795 
L 789.719954 -235.314177 
L 788.812827 -225.440495 
L 787.905699 -218.92852 
L 786.998571 -236.204481 
L 786.091444 -241.6679 
L 785.184316 -242.418214 
L 784.277189 -234.361742 
L 783.370061 -229.393269 
L 782.462934 -208.209479 
L 781.555806 -222.568548 
L 780.648678 -215.147063 
L 779.741551 -237.460933 
L 778.834423 -223.03799 
L 777.927296 -231.77301 
L 777.020168 -216.228878 
L 776.11304 -229.590683 
L 775.205913 -222.36465 
L 774.298785 -214.309086 
L 773.391658 -212.431487 
L 772.48453 -239.271811 
L 771.577403 -217.884054 
L 770.670275 -224.518419 
L 769.763147 -221.076318 
L 768.85602 -225.869733 
L 767.948892 -215.36771 
L 767.041765 -214.590087 
L 766.134637 -230.997468 
L 765.227509 -225.883879 
L 764.320382 -208.624844 
L 763.413254 -235.494548 
L 762.506127 -234.717182 
L 761.598999 -219.257416 
L 760.691872 -206.108406 
L 759.784744 -213.08221 
L 758.877616 -217.72392 
L 757.970489 -222.685086 
L 757.063361 -217.897927 
L 756.156234 -216.507187 
L 755.249106 -221.222044 
L 754.341978 -218.373225 
L 753.434851 -218.263325 
L 752.527723 -227.955192 
L 751.620596 -219.331132 
L 750.713468 -215.457155 
L 749.806341 -225.462069 
L 748.899213 -213.196221 
L 747.992085 -220.639313 
L 747.084958 -210.640238 
L 746.17783 -216.446285 
L 745.270703 -223.927295 
L 744.363575 -220.694059 
L 743.456447 -217.648781 
L 742.54932 -220.836423 
L 741.642192 -216.411103 
L 740.735065 -237.425112 
L 739.827937 -217.229581 
L 738.92081 -213.712129 
L 738.013682 -232.623619 
L 737.106554 -224.971455 
L 736.199427 -217.393227 
L 735.292299 -224.233273 
L 734.385172 -227.433608 
L 733.478044 -226.807919 
L 732.570916 -206.225984 
L 731.663789 -221.386341 
L 730.756661 -213.306675 
L 729.849534 -216.003834 
L 728.942406 -209.441076 
L 728.035279 -216.920399 
L 727.128151 -211.077886 
L 726.221023 -233.469742 
L 725.313896 -211.530773 
L 724.406768 -216.543239 
L 723.499641 -215.807477 
L 722.592513 -222.848609 
L 721.685385 -214.965167 
L 720.778258 -212.84878 
L 719.87113 -224.57192 
L 718.964003 -205.991669 
L 718.056875 -212.461019 
L 717.149748 -222.452341 
L 716.24262 -215.072346 
L 715.335492 -219.807701 
L 714.428365 -227.207322 
L 713.521237 -212.080771 
L 712.61411 -204.805472 
L 711.706982 -227.402352 
L 710.799855 -208.583911 
L 709.892727 -217.018862 
L 708.985599 -216.839276 
L 708.078472 -220.362605 
L 707.171344 -216.758301 
L 706.264217 -207.87707 
L 705.357089 -221.42707 
L 704.449961 -225.921167 
L 703.542834 -215.823546 
L 702.635706 -205.526801 
L 701.728579 -203.634134 
L 700.821451 -208.79695 
L 699.914324 -213.599787 
L 699.007196 -208.503063 
L 698.100068 -234.010331 
L 697.192941 -221.255185 
L 696.285813 -213.257006 
L 695.378686 -216.19175 
L 694.471558 -208.437975 
L 693.56443 -218.208742 
L 692.657303 -216.112481 
L 691.750175 -228.450469 
L 690.843048 -211.479385 
L 689.93592 -209.825937 
L 689.028793 -212.752218 
L 688.121665 -234.755146 
L 687.214537 -224.937646 
L 686.30741 -209.634627 
L 685.400282 -210.017366 
L 684.493155 -205.625793 
L 683.586027 -217.824863 
L 682.678899 -220.960417 
L 681.771772 -215.324575 
L 680.864644 -228.752151 
L 679.957517 -219.917664 
L 679.050389 -212.64811 
L 678.143262 -215.596441 
L 677.236134 -212.228563 
L 676.329006 -227.602472 
L 675.421879 -229.639736 
L 674.514751 -214.177396 
L 673.607624 -231.196327 
L 672.700496 -224.569647 
L 671.793368 -212.074849 
L 670.886241 -214.81014 
L 669.979113 -215.306505 
L 669.071986 -210.486585 
L 668.164858 -224.286126 
L 667.257731 -212.578401 
L 666.350603 -206.633151 
L 665.443475 -227.180731 
L 664.536348 -213.03508 
L 663.62922 -217.30994 
L 662.722093 -207.35062 
L 661.814965 -214.750263 
L 660.907837 -209.982829 
L 660.00071 -209.479622 
L 659.093582 -207.311116 
L 658.186455 -213.84504 
L 657.279327 -212.927274 
L 656.3722 -215.32998 
L 655.465072 -207.132153 
L 654.557944 -219.63549 
L 653.650817 -208.192987 
L 652.743689 -214.37531 
L 651.836562 -225.64734 
L 650.929434 -231.277884 
L 650.022307 -215.556459 
L 649.115179 -215.89448 
L 648.208051 -212.875707 
L 647.300924 -208.65746 
L 646.393796 -209.307999 
L 645.486669 -220.683229 
L 644.579541 -203.988909 
L 643.672413 -213.883937 
L 642.765286 -220.712112 
L 641.858158 -218.845393 
L 640.951031 -201.557251 
L 640.043903 -218.179825 
L 639.136776 -225.144091 
L 638.229648 -212.143557 
L 637.32252 -214.781914 
L 636.415393 -209.464904 
L 635.508265 -211.989772 
L 634.601138 -220.336823 
L 633.69401 -216.343662 
L 632.786882 -220.641131 
L 631.879755 -220.196285 
L 630.972627 -218.230178 
L 630.0655 -218.283848 
L 629.158372 -201.703291 
L 628.251245 -222.741076 
L 627.344117 -209.569873 
L 626.436989 -230.27857 
L 625.529862 -225.618953 
L 624.622734 -210.270911 
L 623.715607 -204.506569 
L 622.808479 -201.615666 
L 621.901351 -216.556988 
L 620.994224 -208.677484 
L 620.087096 -208.913535 
L 619.179969 -222.596896 
L 618.272841 -200.626939 
L 617.365714 -217.727142 
L 616.458586 -207.462931 
L 615.551458 -210.05104 
L 614.644331 -202.672041 
L 613.737203 -226.147666 
L 612.830076 -207.417368 
L 611.922948 -211.705652 
L 611.01582 -220.252622 
L 610.108693 -218.254744 
L 609.201565 -229.785975 
L 608.294438 -218.201615 
L 607.38731 -213.026642 
L 606.480183 -239.883585 
L 605.573055 -212.712028 
L 604.665927 -209.501756 
L 603.7588 -212.009373 
L 602.851672 -213.582076 
L 601.944545 -208.06712 
L 601.037417 -225.091647 
L 600.130289 -225.839627 
L 599.223162 -202.006653 
L 598.316034 -214.142727 
L 597.408907 -213.209026 
L 596.501779 -219.122697 
L 595.594652 -223.984185 
L 594.687524 -202.455481 
L 593.780396 -217.442283 
L 592.873269 -205.824021 
L 591.966141 -209.892931 
L 591.059014 -208.062062 
L 590.151886 -222.594976 
L 589.244759 -219.510409 
L 588.337631 -214.2058 
L 587.430503 -202.4672 
L 586.523376 -221.212019 
L 585.616248 -225.431309 
L 584.709121 -214.802031 
L 583.801993 -219.561333 
L 582.894865 -213.976495 
L 581.987738 -211.180534 
L 581.08061 -203.908047 
L 580.173483 -213.377388 
L 579.266355 -214.673956 
L 578.359228 -202.931573 
L 577.4521 -224.904238 
L 576.544972 -215.860959 
L 575.637845 -208.164065 
L 574.730717 -199.504312 
L 573.82359 -202.51949 
L 572.916462 -209.644874 
L 572.009334 -214.006239 
L 571.102207 -208.860299 
L 570.195079 -222.95113 
L 569.287952 -209.33274 
L 568.380824 -220.119333 
L 567.473697 -214.85708 
L 566.566569 -222.650809 
L 565.659441 -217.387568 
L 564.752314 -198.275019 
L 563.845186 -206.795542 
L 562.938059 -218.823463 
L 562.030931 -197.664677 
L 561.123803 -207.909933 
L 560.216676 -203.916689 
L 559.309548 -216.423903 
L 558.402421 -227.083615 
L 557.495293 -203.061591 
L 556.588166 -226.549679 
L 555.681038 -205.540834 
L 554.77391 -208.747038 
L 553.866783 -202.403117 
L 552.959655 -220.40109 
L 552.052528 -204.23236 
L 551.1454 -207.829093 
L 550.238272 -216.20157 
L 549.331145 -206.940909 
L 548.424017 -213.584876 
L 547.51689 -205.238178 
L 546.609762 -198.323178 
L 545.702635 -211.320471 
L 544.795507 -215.791672 
L 543.888379 -205.195954 
L 542.981252 -203.27282 
L 542.074124 -203.02321 
L 541.166997 -213.77053 
L 540.259869 -203.463164 
L 539.352741 -204.571504 
L 538.445614 -218.199554 
L 537.538486 -223.487092 
L 536.631359 -219.426543 
L 535.724231 -195.49571 
L 534.817104 -201.537486 
L 533.909976 -211.43436 
L 533.002848 -202.724844 
L 532.095721 -201.959186 
L 531.188593 -225.142364 
L 530.281466 -216.948375 
L 529.374338 -211.269834 
L 528.467211 -201.982741 
L 527.560083 -207.223754 
L 526.652955 -204.25333 
L 525.745828 -197.063818 
L 524.8387 -214.151195 
L 523.931573 -201.26325 
L 523.024445 -208.723922 
L 522.117317 -214.244004 
L 521.21019 -204.615494 
L 520.303062 -217.001749 
L 519.395935 -209.737819 
L 518.488807 -214.229129 
L 517.58168 -204.217105 
L 516.674552 -194.121498 
L 515.767424 -221.044355 
L 514.860297 -197.04957 
L 513.953169 -205.675829 
L 513.046042 -187.608916 
L 512.138914 -205.266587 
L 511.231786 -214.396073 
L 510.324659 -197.915267 
L 509.417531 -191.830731 
L 508.510404 -191.822983 
L 507.603276 -206.219704 
L 506.696149 -234.105811 
L 505.789021 -194.563494 
L 504.881893 -202.746662 
L 503.974766 -201.809454 
L 503.067638 -210.234072 
L 502.160511 -198.554707 
L 501.253383 -210.831361 
L 500.346255 -202.503398 
L 499.439128 -207.239669 
L 498.532 -192.743169 
L 497.624873 -214.733172 
L 496.717745 -204.739463 
L 495.810618 -226.349657 
L 494.90349 -191.071488 
L 493.996362 -206.462336 
L 493.089235 -201.924685 
L 492.182107 -195.852469 
L 491.27498 -200.370298 
L 490.367852 -195.713283 
L 489.460724 -185.841187 
L 488.553597 -203.576665 
L 487.646469 -205.319945 
L 486.739342 -201.518986 
L 485.832214 -198.501098 
L 484.925087 -204.752448 
L 484.017959 -190.792887 
L 483.110831 -200.162557 
L 482.203704 -190.446566 
L 481.296576 -227.182856 
L 480.389449 -193.866822 
L 479.482321 -196.799116 
L 478.575193 -198.680652 
L 477.668066 -200.246462 
L 476.760938 -195.311612 
L 475.853811 -204.355225 
L 474.946683 -201.207978 
L 474.039556 -207.36936 
L 473.132428 -221.953002 
L 472.2253 -203.99092 
L 471.318173 -199.343165 
L 470.411045 -193.004141 
L 469.503918 -198.693838 
L 468.59679 -198.647583 
L 467.689663 -197.565089 
L 466.782535 -209.949018 
L 465.875407 -201.236949 
L 464.96828 -190.992006 
L 464.061152 -195.830886 
L 463.154025 -200.882939 
L 462.246897 -203.394154 
L 461.339769 -197.098507 
L 460.432642 -190.405244 
L 459.525514 -206.96961 
L 458.618387 -189.441628 
L 457.711259 -196.971754 
L 456.804132 -190.693428 
L 455.897004 -191.07801 
L 454.989876 -192.388184 
L 454.082749 -206.463385 
L 453.175621 -196.348532 
L 452.268494 -196.214603 
L 451.361366 -192.690239 
L 450.454238 -192.174759 
L 449.547111 -203.63734 
L 448.639983 -200.632165 
L 447.732856 -204.712773 
L 446.825728 -181.40638 
L 445.918601 -201.970604 
L 445.011473 -197.059961 
L 444.104345 -192.31246 
L 443.197218 -194.565622 
L 442.29009 -201.044008 
L 441.382963 -191.413374 
L 440.475835 -197.537212 
L 439.568707 -201.935341 
L 438.66158 -190.836468 
L 437.754452 -183.727691 
L 436.847325 -201.780237 
L 435.940197 -197.105494 
L 435.03307 -195.220892 
L 434.125942 -188.819943 
L 433.218814 -192.078677 
L 432.311687 -189.186116 
L 431.404559 -195.831573 
L 430.497432 -188.358469 
L 429.590304 -184.813516 
L 428.683176 -203.145496 
L 427.776049 -194.794905 
L 426.868921 -201.725168 
L 425.961794 -197.385825 
L 425.054666 -209.63818 
L 424.147539 -192.251939 
L 423.240411 -181.589788 
L 422.333283 -187.358219 
L 421.426156 -177.087336 
L 420.519028 -188.668393 
L 419.611901 -198.711401 
L 418.704773 -196.57853 
L 417.797645 -191.808961 
L 416.890518 -185.398545 
L 415.98339 -200.986067 
L 415.076263 -200.383713 
L 414.169135 -207.469906 
L 413.262008 -193.253288 
L 412.35488 -182.852511 
L 411.447752 -210.988545 
L 410.540625 -194.690355 
L 409.633497 -187.702625 
L 408.72637 -182.57793 
L 407.819242 -178.507757 
L 406.912115 -191.920265 
L 406.004987 -205.490647 
L 405.097859 -188.128634 
L 404.190732 -195.262413 
L 403.283604 -194.937457 
L 402.376477 -189.724175 
L 401.469349 -193.797041 
L 400.562221 -186.650595 
L 399.655094 -187.173699 
L 398.747966 -185.940828 
L 397.840839 -199.071804 
L 396.933711 -199.895627 
L 396.026584 -182.765193 
L 395.119456 -176.592972 
L 394.212328 -188.679874 
L 393.305201 -203.255666 
L 392.398073 -186.285956 
L 391.490946 -201.191913 
L 390.583818 -191.830223 
L 389.67669 -192.617712 
L 388.769563 -193.102295 
L 387.862435 -187.606265 
L 386.955308 -187.008535 
L 386.04818 -189.519703 
L 385.141053 -195.074722 
L 384.233925 -188.417351 
L 383.326797 -189.430969 
L 382.41967 -198.683767 
L 381.512542 -188.598797 
L 380.605415 -186.109388 
L 379.698287 -173.210603 
L 378.791159 -201.838476 
L 377.884032 -197.297927 
L 376.976904 -188.91401 
L 376.069777 -191.711221 
L 375.162649 -193.191732 
L 374.255522 -189.597833 
L 373.348394 -183.048267 
L 372.441266 -208.357812 
L 371.534139 -181.222621 
L 370.627011 -181.300514 
L 369.719884 -183.694178 
L 368.812756 -193.385186 
L 367.905628 -205.094795 
L 366.998501 -192.060276 
L 366.091373 -186.743471 
L 365.184246 -197.357187 
L 364.277118 -186.372187 
L 363.369991 -172.189615 
L 362.462863 -184.990602 
L 361.555735 -195.119157 
L 360.648608 -193.602196 
L 359.74148 -176.449402 
L 358.834353 -198.972111 
L 357.927225 -182.62096 
L 357.020097 -189.107961 
L 356.11297 -186.473247 
L 355.205842 -192.868912 
L 354.298715 -179.230231 
L 353.391587 -193.723403 
L 352.48446 -178.200703 
L 351.577332 -187.715406 
L 350.670204 -184.470407 
L 349.763077 -176.123287 
L 348.855949 -174.94954 
L 347.948822 -186.130935 
L 347.041694 -175.420988 
L 346.134566 -188.381158 
L 345.227439 -183.829021 
L 344.320311 -185.606813 
L 343.413184 -174.109236 
L 342.506056 -177.93084 
L 341.598929 -187.164243 
L 340.691801 -185.819287 
L 339.784673 -197.260551 
L 338.877546 -185.749285 
L 337.970418 -186.247907 
L 337.063291 -177.374891 
L 336.156163 -176.625696 
L 335.249036 -182.655818 
L 334.341908 -182.036969 
L 333.43478 -170.792101 
L 332.527653 -175.815066 
L 331.620525 -189.384027 
L 330.713398 -193.74729 
L 329.80627 -177.92738 
L 328.899142 -199.63237 
L 327.992015 -207.994274 
L 327.084887 -183.56796 
L 326.17776 -179.560851 
L 325.270632 -179.332863 
L 324.363505 -196.238602 
L 323.456377 -182.17725 
L 322.549249 -182.116697 
L 321.642122 -181.249099 
L 320.734994 -176.744977 
L 319.827867 -186.992711 
L 318.920739 -179.497055 
L 318.013611 -179.742193 
L 317.106484 -204.89018 
L 316.199356 -176.290564 
L 315.292229 -189.550832 
L 314.385101 -186.460521 
L 313.477974 -174.065652 
L 312.570846 -170.296854 
L 311.663718 -178.324089 
L 310.756591 -184.84765 
L 309.849463 -174.935896 
L 308.942336 -182.779196 
L 308.035208 -195.674345 
L 307.12808 -189.008828 
L 306.220953 -177.388568 
L 305.313825 -176.650849 
L 304.406698 -174.44441 
L 303.49957 -179.017826 
L 302.592443 -169.484007 
L 301.685315 -178.821916 
L 300.778187 -166.48624 
L 299.87106 -191.6462 
L 298.963932 -195.892927 
L 298.056805 -181.86672 
L 297.149677 -169.651969 
L 296.242549 -174.768452 
L 295.335422 -181.417182 
L 294.428294 -170.859326 
L 293.521167 -170.691088 
L 292.614039 -197.300772 
L 291.706912 -194.009976 
L 290.799784 -219.770259 
L 289.892656 -182.895351 
L 288.985529 -186.158453 
L 288.078401 -205.526249 
L 287.171274 -178.593033 
L 286.264146 -181.577909 
L 285.357018 -168.414829 
L 284.449891 -180.899616 
L 283.542763 -175.90897 
L 282.635636 -177.121415 
L 281.728508 -178.158095 
L 280.821381 -167.83786 
L 279.914253 -176.40109 
L 279.007125 -169.350657 
L 278.099998 -172.770982 
L 277.19287 -168.705646 
L 276.285743 -183.208335 
L 275.378615 -175.04585 
L 274.471488 -181.170003 
L 273.56436 -190.580073 
L 272.657232 -183.306797 
L 271.750105 -165.585664 
L 270.842977 -170.648091 
L 269.93585 -187.915449 
L 269.028722 -173.060973 
L 268.121594 -182.796044 
L 267.214467 -175.530102 
L 266.307339 -176.357663 
L 265.400212 -176.91007 
L 264.493084 -176.765158 
L 263.585957 -169.119757 
L 262.678829 -173.097053 
L 261.771701 -184.489004 
L 260.864574 -163.445015 
L 259.957446 -173.390057 
L 259.050319 -162.702568 
L 258.143191 -194.404892 
L 257.236063 -163.248209 
L 256.328936 -169.197592 
L 255.421808 -172.339272 
L 254.514681 -186.6478 
L 253.607553 -176.077669 
L 252.700426 -183.037291 
L 251.793298 -174.310709 
L 250.88617 -171.616972 
L 249.979043 -187.636059 
L 249.071915 -188.355519 
L 248.164788 -180.921864 
L 247.25766 -188.910641 
L 246.350532 -171.598797 
L 245.443405 -167.873782 
L 244.536277 -183.192279 
L 243.62915 -153.576669 
L 242.722022 -187.336918 
L 241.814895 -174.111601 
L 240.907767 -172.762746 
L 240.000639 -163.632369 
L 239.093512 -183.35276 
L 238.186384 -170.283245 
L 237.279257 -173.317683 
L 236.372129 -174.121291 
L 235.465001 -180.305871 
L 234.557874 -170.976469 
L 233.650746 -191.130593 
L 232.743619 -180.457117 
L 231.836491 -182.34338 
L 230.929364 -163.401251 
L 230.022236 -178.711749 
L 229.115108 -174.099659 
L 228.207981 -184.930816 
L 227.300853 -178.15911 
L 226.393726 -170.632979 
L 225.486598 -164.852918 
L 224.57947 -156.775854 
L 223.672343 -167.90745 
L 222.765215 -171.95009 
L 221.858088 -181.387992 
L 220.95096 -174.324966 
L 220.043833 -173.49754 
L 219.136705 -171.982243 
L 218.229577 -192.843966 
L 217.32245 -163.436925 
L 216.415322 -181.423164 
L 215.508195 -163.971085 
L 214.601067 -180.726318 
L 213.69394 -163.76884 
L 212.786812 -173.48996 
L 211.879684 -168.350586 
L 210.972557 -173.114963 
L 210.065429 -175.403625 
L 209.158302 -167.672575 
L 208.251174 -179.997012 
L 207.344046 -165.331284 
L 206.436919 -162.567051 
L 205.529791 -165.416072 
L 204.622664 -182.956244 
L 203.715536 -172.864688 
L 202.808409 -172.414323 
L 201.901281 -179.598184 
L 200.994153 -160.565884 
L 200.087026 -179.575056 
L 199.179898 -173.82946 
L 198.272771 -165.241397 
L 197.365643 -163.965319 
L 196.458515 -170.045638 
L 195.551388 -166.582358 
L 194.64426 -173.000654 
L 193.737133 -165.929102 
L 192.830005 -163.890486 
L 191.922878 -194.762131 
L 191.01575 -174.635422 
L 190.108622 -174.341535 
L 189.201495 -170.706225 
L 188.294367 -191.335606 
L 187.38724 -163.471887 
L 186.480112 -167.816694 
L 185.572984 -158.307397 
L 184.665857 -168.514611 
L 183.758729 -166.965655 
L 182.851602 -161.615791 
L 181.944474 -162.619101 
L 181.037347 -192.363955 
L 180.130219 -168.894202 
L 179.223091 -174.80318 
L 178.315964 -160.57346 
L 177.408836 -166.211497 
L 176.501709 -163.081891 
L 175.594581 -156.318439 
L 174.687453 -169.028703 
L 173.780326 -162.442401 
L 172.873198 -166.665195 
L 171.966071 -163.166756 
L 171.058943 -171.258792 
L 170.151816 -164.601051 
L 169.244688 -169.65999 
L 168.33756 -177.151524 
L 167.430433 -170.528868 
L 166.523305 -177.304462 
L 165.616178 -159.84469 
L 164.70905 -165.648464 
L 163.801922 -168.055138 
L 162.894795 -158.278464 
L 161.987667 -172.150723 
L 161.08054 -174.814598 
L 160.173412 -165.015317 
L 159.266285 -164.411429 
L 158.359157 -176.129627 
L 157.452029 -179.94135 
L 156.544902 -166.107626 
L 155.637774 -165.848118 
L 154.730647 -171.659229 
L 153.823519 -168.826921 
L 152.916392 -168.725562 
L 152.009264 -189.419816 
L 151.102136 -174.384057 
L 150.195009 -182.689781 
L 149.287881 -172.884692 
L 148.380754 -165.237776 
L 147.473626 -175.735881 
L 146.566498 -165.514487 
L 145.659371 -180.335999 
L 144.752243 -176.433271 
L 143.845116 -171.714342 
L 142.937988 -170.03477 
L 142.030861 -157.182386 
L 141.123733 -170.197017 
L 140.216605 -174.42544 
L 139.309478 -163.446158 
L 138.40235 -163.621487 
L 137.495223 -154.7342 
L 136.588095 -171.802016 
L 135.680967 -156.206423 
L 134.77384 -154.687428 
L 133.866712 -167.630941 
L 132.959585 -163.399557 
L 132.052457 -163.352857 
L 131.14533 -164.664 
L 130.238202 -155.737452 
L 129.331074 -172.022787 
L 128.423947 -159.729222 
L 127.516819 -154.432259 
L 126.609692 -194.135962 
L 125.702564 -163.179148 
L 124.795436 -162.043696 
L 123.888309 -161.608074 
L 122.981181 -173.835425 
L 122.074054 -183.019841 
L 121.166926 -164.262873 
L 120.259799 -169.267715 
L 119.352671 -161.651959 
L 118.445543 -173.685503 
L 117.538416 -160.980349 
L 116.631288 -161.636656 
L 115.724161 -147.461721 
L 114.817033 -161.095077 
L 113.909905 -174.152804 
L 113.002778 -181.819791 
L 112.09565 -172.862649 
L 111.188523 -179.041754 
z
" style="stroke: #d2dbe0"/>
    </defs>
    <g clip-path="url(#p7dc8b55a11)">
     <use xlink:href="#m796a6025f2" x="0" y="288" style="fill: #d2dbe0; stroke: #d2dbe0"/>
    </g>
   </g>
   <g id="matplotlib.axis_1">
    <g id="xtick_1">
     <g id="line2d_1">
      <defs>
       <path id="md9a786bb6a" d="M 0 0 
L 0 3.5 
" style="stroke: #000000; stroke-width: 0.8"/>
      </defs>
      <g>
       <use xlink:href="#md9a786bb6a" x="111.188523" y="228.04" style="stroke: #000000; stroke-width: 0.8"/>
      </g>
     </g>
     <g id="text_1">
      <!-- 0 -->
      <g transform="translate(106.774773 246.4) scale(0.16 -0.16)">
       <defs>
        <path id="Bahnschrift-30" d="M 1766 -47 
Q 1116 -47 792 301 
Q 469 650 469 1244 
L 469 3309 
Q 469 3913 797 4256 
Q 1125 4600 1766 4600 
Q 2409 4600 2736 4258 
Q 3063 3916 3063 3309 
L 3063 1244 
Q 3063 641 2736 297 
Q 2409 -47 1766 -47 
z
M 1766 559 
Q 2116 559 2270 742 
Q 2425 925 2425 1244 
L 2425 3309 
Q 2425 3631 2270 3812 
Q 2116 3994 1766 3994 
Q 1416 3994 1261 3812 
Q 1106 3631 1106 3309 
L 1106 1244 
Q 1106 925 1261 742 
Q 1416 559 1766 559 
z
" transform="scale(0.015625)"/>
       </defs>
       <use xlink:href="#Bahnschrift-30"/>
      </g>
     </g>
    </g>
    <g id="xtick_2">
     <g id="line2d_2">
      <g>
       <use xlink:href="#md9a786bb6a" x="292.614039" y="228.04" style="stroke: #000000; stroke-width: 0.8"/>
      </g>
     </g>
     <g id="text_2">
      <!-- 200 -->
      <g transform="translate(279.654039 246.4) scale(0.16 -0.16)">
       <defs>
        <path id="Bahnschrift-32" d="M 400 0 
L 400 553 
L 1984 2666 
Q 2122 2847 2198 3040 
Q 2275 3234 2275 3406 
L 2275 3413 
Q 2275 3684 2115 3834 
Q 1956 3984 1663 3984 
Q 1388 3984 1214 3820 
Q 1041 3656 1003 3356 
L 1003 3353 
L 344 3353 
L 344 3356 
Q 428 3944 772 4267 
Q 1116 4591 1656 4591 
Q 2269 4591 2603 4281 
Q 2938 3972 2938 3406 
L 2938 3403 
Q 2938 3163 2838 2898 
Q 2738 2634 2559 2394 
L 1244 606 
L 2963 606 
L 2963 0 
L 400 0 
z
" transform="scale(0.015625)"/>
       </defs>
       <use xlink:href="#Bahnschrift-32"/>
       <use xlink:href="#Bahnschrift-30" x="51.660156"/>
       <use xlink:href="#Bahnschrift-30" x="106.835938"/>
      </g>
     </g>
    </g>
    <g id="xtick_3">
     <g id="line2d_3">
      <g>
       <use xlink:href="#md9a786bb6a" x="474.039556" y="228.04" style="stroke: #000000; stroke-width: 0.8"/>
      </g>
     </g>
     <g id="text_3">
      <!-- 400 -->
      <g transform="translate(460.660806 246.4) scale(0.16 -0.16)">
       <defs>
        <path id="Bahnschrift-34" d="M 406 697 
L 406 1250 
L 1931 4541 
L 2588 4541 
L 1100 1288 
L 3328 1288 
L 3328 697 
L 406 697 
z
M 2366 -3 
L 2366 2672 
L 2988 2672 
L 2988 -3 
L 2366 -3 
z
" transform="scale(0.015625)"/>
       </defs>
       <use xlink:href="#Bahnschrift-34"/>
       <use xlink:href="#Bahnschrift-30" x="56.884766"/>
       <use xlink:href="#Bahnschrift-30" x="112.060547"/>
      </g>
     </g>
    </g>
    <g id="xtick_4">
     <g id="line2d_4">
      <g>
       <use xlink:href="#md9a786bb6a" x="655.465072" y="228.04" style="stroke: #000000; stroke-width: 0.8"/>
      </g>
     </g>
     <g id="text_4">
      <!-- 600 -->
      <g transform="translate(642.532572 246.4) scale(0.16 -0.16)">
       <defs>
        <path id="Bahnschrift-36" d="M 1641 -47 
Q 1038 -47 706 312 
Q 375 672 375 1325 
L 375 1328 
Q 375 1622 456 1951 
Q 538 2281 691 2588 
L 1678 4544 
L 2366 4544 
L 1206 2278 
L 1209 2391 
Q 1372 2700 1788 2700 
Q 2322 2700 2615 2345 
Q 2909 1991 2909 1344 
L 2909 1341 
Q 2909 681 2578 317 
Q 2247 -47 1641 -47 
z
M 1641 566 
Q 1947 566 2109 753 
Q 2272 941 2272 1288 
L 2272 1291 
Q 2272 1672 2100 1880 
Q 1928 2088 1609 2088 
Q 1325 2088 1169 1878 
Q 1013 1669 1013 1288 
L 1013 1284 
Q 1013 938 1177 752 
Q 1341 566 1641 566 
z
" transform="scale(0.015625)"/>
       </defs>
       <use xlink:href="#Bahnschrift-36"/>
       <use xlink:href="#Bahnschrift-30" x="51.318359"/>
       <use xlink:href="#Bahnschrift-30" x="106.494141"/>
      </g>
     </g>
    </g>
    <g id="xtick_5">
     <g id="line2d_5">
      <g>
       <use xlink:href="#md9a786bb6a" x="836.890588" y="228.04" style="stroke: #000000; stroke-width: 0.8"/>
      </g>
     </g>
     <g id="text_5">
      <!-- 800 -->
      <g transform="translate(823.563088 246.4) scale(0.16 -0.16)">
       <defs>
        <path id="Bahnschrift-38" d="M 1800 -47 
Q 1384 -47 1075 109 
Q 766 266 594 550 
Q 422 834 422 1216 
L 422 1291 
Q 422 1631 592 1931 
Q 763 2231 1047 2384 
Q 809 2516 662 2764 
Q 516 3013 516 3288 
L 516 3397 
Q 516 3938 867 4264 
Q 1219 4591 1800 4591 
Q 2381 4591 2732 4264 
Q 3084 3938 3084 3397 
L 3084 3288 
Q 3084 3006 2936 2759 
Q 2788 2513 2544 2384 
Q 2831 2231 3004 1931 
Q 3178 1631 3178 1291 
L 3178 1216 
Q 3178 834 3006 550 
Q 2834 266 2525 109 
Q 2216 -47 1800 -47 
z
M 1800 566 
Q 2134 566 2339 758 
Q 2544 950 2544 1263 
L 2544 1306 
Q 2544 1622 2339 1814 
Q 2134 2006 1800 2006 
Q 1466 2006 1261 1814 
Q 1056 1622 1056 1303 
L 1056 1256 
Q 1056 944 1261 755 
Q 1466 566 1800 566 
z
M 1800 2619 
Q 2091 2619 2269 2803 
Q 2447 2988 2447 3291 
L 2447 3334 
Q 2447 3625 2269 3801 
Q 2091 3978 1800 3978 
Q 1509 3978 1331 3801 
Q 1153 3625 1153 3331 
L 1153 3284 
Q 1153 2984 1331 2801 
Q 1509 2619 1800 2619 
z
" transform="scale(0.015625)"/>
       </defs>
       <use xlink:href="#Bahnschrift-38"/>
       <use xlink:href="#Bahnschrift-30" x="56.25"/>
       <use xlink:href="#Bahnschrift-30" x="111.425781"/>
      </g>
     </g>
    </g>
    <g id="xtick_6">
     <g id="line2d_6">
      <g>
       <use xlink:href="#md9a786bb6a" x="1018.316105" y="228.04" style="stroke: #000000; stroke-width: 0.8"/>
      </g>
     </g>
     <g id="text_6">
      <!-- 1000 -->
      <g transform="translate(1002.414855 246.4) scale(0.16 -0.16)">
       <defs>
        <path id="Bahnschrift-31" d="M 1566 4544 
L 1566 0 
L 928 0 
L 928 3850 
L 281 3453 
L 281 4113 
L 928 4544 
L 1566 4544 
z
" transform="scale(0.015625)"/>
       </defs>
       <use xlink:href="#Bahnschrift-31"/>
       <use xlink:href="#Bahnschrift-30" x="33.251953"/>
       <use xlink:href="#Bahnschrift-30" x="88.427734"/>
       <use xlink:href="#Bahnschrift-30" x="143.603516"/>
      </g>
     </g>
    </g>
    <g id="text_7">
     <!-- Theta -->
     <g transform="translate(544.8225 265.0575) scale(0.16 -0.16)">
      <defs>
       <path id="Bahnschrift-54" d="M 1222 0 
L 1222 4172 
L 1859 4172 
L 1859 0 
L 1222 0 
z
M -63 3938 
L -63 4544 
L 3144 4544 
L 3144 3938 
L -63 3938 
z
" transform="scale(0.015625)"/>
       <path id="Bahnschrift-68" d="M 500 0 
L 500 4544 
L 1138 4544 
L 1138 0 
L 500 0 
z
M 2469 0 
L 2469 1966 
Q 2469 2309 2292 2496 
Q 2116 2684 1791 2684 
Q 1478 2684 1308 2521 
Q 1138 2359 1138 2063 
L 1072 2688 
Q 1222 2975 1464 3133 
Q 1706 3291 2000 3291 
Q 2528 3291 2817 2945 
Q 3106 2600 3106 1969 
L 3106 0 
L 2469 0 
z
" transform="scale(0.015625)"/>
       <path id="Bahnschrift-65" d="M 1828 -47 
Q 1150 -47 778 331 
Q 406 709 406 1406 
L 406 1772 
Q 406 2497 764 2894 
Q 1122 3291 1772 3291 
Q 2384 3291 2720 2841 
Q 3056 2391 3056 1578 
L 3056 1366 
L 869 1366 
L 869 1878 
L 2450 1878 
L 2450 1878 
Q 2422 2272 2245 2494 
Q 2069 2716 1772 2716 
Q 1413 2716 1213 2478 
Q 1013 2241 1013 1806 
L 1013 1394 
Q 1013 991 1227 775 
Q 1441 559 1828 559 
Q 2022 559 2212 637 
Q 2403 716 2553 856 
L 2553 856 
L 2972 438 
L 2972 438 
Q 2731 206 2431 79 
Q 2131 -47 1828 -47 
z
" transform="scale(0.015625)"/>
       <path id="Bahnschrift-74" d="M 1344 -16 
Q 944 -16 764 206 
Q 584 428 584 844 
L 584 4188 
L 1222 4188 
L 1222 838 
Q 1222 722 1269 656 
Q 1316 591 1406 591 
L 1713 591 
L 1713 -16 
L 1344 -16 
z
M 250 2669 
L 250 3244 
L 1713 3244 
L 1713 2669 
L 250 2669 
z
" transform="scale(0.015625)"/>
       <path id="Bahnschrift-61" d="M 2331 0 
L 2331 2056 
Q 2331 2375 2161 2551 
Q 1991 2728 1678 2728 
Q 1488 2728 1302 2670 
Q 1116 2613 969 2503 
L 503 2822 
Q 688 3044 989 3167 
Q 1291 3291 1659 3291 
Q 2269 3291 2603 2975 
Q 2938 2659 2938 2084 
L 2938 0 
L 2331 0 
z
M 1538 -47 
Q 941 -47 642 200 
Q 344 447 344 956 
Q 344 1441 617 1680 
Q 891 1919 1438 1919 
L 2359 1919 
L 2403 1406 
L 1441 1406 
Q 1194 1406 1069 1295 
Q 944 1184 944 956 
Q 944 709 1109 590 
Q 1275 472 1606 472 
Q 1969 472 2150 550 
Q 2331 628 2331 794 
L 2397 338 
Q 2313 206 2188 122 
Q 2063 38 1902 -4 
Q 1741 -47 1538 -47 
z
" transform="scale(0.015625)"/>
      </defs>
      <use xlink:href="#Bahnschrift-54"/>
      <use xlink:href="#Bahnschrift-68" x="48.144531"/>
      <use xlink:href="#Bahnschrift-65" x="104.003906"/>
      <use xlink:href="#Bahnschrift-74" x="157.617188"/>
      <use xlink:href="#Bahnschrift-61" x="190.234375"/>
     </g>
    </g>
   </g>
   <g id="matplotlib.axis_2">
    <g id="ytick_1">
     <g id="line2d_7">
      <defs>
       <path id="md8951a7ffb" d="M 0 0 
L -3.5 0 
" style="stroke: #000000; stroke-width: 0.8"/>
      </defs>
      <g>
       <use xlink:href="#md8951a7ffb" x="65.8775" y="227.84534" style="stroke: #000000; stroke-width: 0.8"/>
      </g>
     </g>
     <g id="text_8">
      <!-- 0.4 -->
      <g transform="translate(37.3225 233.52534) scale(0.16 -0.16)">
       <defs>
        <path id="Bahnschrift-2e" d="M 391 0 
L 391 669 
L 1059 669 
L 1059 0 
L 391 0 
z
" transform="scale(0.015625)"/>
       </defs>
       <use xlink:href="#Bahnschrift-30"/>
       <use xlink:href="#Bahnschrift-2e" x="55.175781"/>
       <use xlink:href="#Bahnschrift-34" x="77.832031"/>
      </g>
     </g>
    </g>
    <g id="ytick_2">
     <g id="line2d_8">
      <g>
       <use xlink:href="#md8951a7ffb" x="65.8775" y="181.553328" style="stroke: #000000; stroke-width: 0.8"/>
      </g>
     </g>
     <g id="text_9">
      <!-- 0.6 -->
      <g transform="translate(38.215 187.233328) scale(0.16 -0.16)">
       <use xlink:href="#Bahnschrift-30"/>
       <use xlink:href="#Bahnschrift-2e" x="55.175781"/>
       <use xlink:href="#Bahnschrift-36" x="77.832031"/>
      </g>
     </g>
    </g>
    <g id="ytick_3">
     <g id="line2d_9">
      <g>
       <use xlink:href="#md8951a7ffb" x="65.8775" y="135.261317" style="stroke: #000000; stroke-width: 0.8"/>
      </g>
     </g>
     <g id="text_10">
      <!-- 0.8 -->
      <g transform="translate(37.425 140.941317) scale(0.16 -0.16)">
       <use xlink:href="#Bahnschrift-30"/>
       <use xlink:href="#Bahnschrift-2e" x="55.175781"/>
       <use xlink:href="#Bahnschrift-38" x="77.832031"/>
      </g>
     </g>
    </g>
    <g id="ytick_4">
     <g id="line2d_10">
      <g>
       <use xlink:href="#md8951a7ffb" x="65.8775" y="88.969305" style="stroke: #000000; stroke-width: 0.8"/>
      </g>
     </g>
     <g id="text_11">
      <!-- 1.0 -->
      <g transform="translate(41.105 94.649305) scale(0.16 -0.16)">
       <use xlink:href="#Bahnschrift-31"/>
       <use xlink:href="#Bahnschrift-2e" x="33.251953"/>
       <use xlink:href="#Bahnschrift-30" x="55.908203"/>
      </g>
     </g>
    </g>
    <g id="ytick_5">
     <g id="line2d_11">
      <g>
       <use xlink:href="#md8951a7ffb" x="65.8775" y="42.677294" style="stroke: #000000; stroke-width: 0.8"/>
      </g>
     </g>
     <g id="text_12">
      <!-- 1.2 -->
      <g transform="translate(41.6675 48.357294) scale(0.16 -0.16)">
       <use xlink:href="#Bahnschrift-31"/>
       <use xlink:href="#Bahnschrift-2e" x="33.251953"/>
       <use xlink:href="#Bahnschrift-32" x="55.908203"/>
      </g>
     </g>
    </g>
    <g id="text_13">
     <!-- Time [s] -->
     <g transform="translate(30.025 150.65875) rotate(-90) scale(0.16 -0.16)">
      <defs>
       <path id="Bahnschrift-69" d="M 500 3906 
L 500 4544 
L 1138 4544 
L 1138 3906 
L 500 3906 
z
M 500 0 
L 500 3244 
L 1138 3244 
L 1138 0 
L 500 0 
z
" transform="scale(0.015625)"/>
       <path id="Bahnschrift-6d" d="M 4375 0 
L 4375 1966 
Q 4375 2309 4198 2496 
Q 4022 2684 3697 2684 
Q 3400 2684 3237 2503 
Q 3075 2322 3075 1991 
L 2947 2616 
Q 3103 2941 3353 3116 
Q 3603 3291 3906 3291 
Q 4434 3291 4723 2945 
Q 5013 2600 5013 1969 
L 5013 0 
L 4375 0 
z
M 500 0 
L 500 3244 
L 1138 3244 
L 1138 0 
L 500 0 
z
M 2438 0 
L 2438 1966 
Q 2438 2309 2269 2496 
Q 2100 2684 1791 2684 
Q 1478 2684 1308 2518 
Q 1138 2353 1138 2053 
L 1072 2678 
Q 1222 2972 1464 3131 
Q 1706 3291 2000 3291 
Q 2513 3291 2794 2945 
Q 3075 2600 3075 1969 
L 3075 0 
L 2438 0 
z
" transform="scale(0.015625)"/>
       <path id="Bahnschrift-20" transform="scale(0.015625)"/>
       <path id="Bahnschrift-5b" d="M 594 -1019 
L 594 5081 
L 1200 5081 
L 1200 -1019 
L 594 -1019 
z
M 906 -1019 
L 906 -444 
L 1788 -444 
L 1788 -1019 
L 906 -1019 
z
M 906 4506 
L 906 5081 
L 1788 5081 
L 1788 4506 
L 906 4506 
z
" transform="scale(0.015625)"/>
       <path id="Bahnschrift-73" d="M 1647 -47 
Q 1216 -47 864 79 
Q 513 206 234 459 
L 234 459 
L 613 925 
L 613 925 
Q 878 725 1136 625 
Q 1394 525 1647 525 
Q 2025 525 2214 642 
Q 2403 759 2403 994 
Q 2403 1175 2276 1250 
Q 2150 1325 1945 1348 
Q 1741 1372 1506 1388 
Q 1309 1403 1115 1436 
Q 922 1469 762 1555 
Q 603 1641 508 1809 
Q 413 1978 413 2263 
Q 413 2778 728 3034 
Q 1044 3291 1669 3291 
Q 2050 3291 2378 3187 
Q 2706 3084 2994 2872 
L 2994 2872 
L 2609 2406 
L 2609 2406 
Q 2366 2563 2130 2641 
Q 1894 2719 1669 2719 
Q 1344 2719 1181 2608 
Q 1019 2497 1019 2275 
Q 1019 2128 1131 2064 
Q 1244 2000 1428 1981 
Q 1613 1963 1825 1947 
Q 2028 1934 2236 1901 
Q 2444 1869 2619 1775 
Q 2794 1681 2900 1497 
Q 3006 1313 3006 994 
Q 3006 472 2667 212 
Q 2328 -47 1647 -47 
z
" transform="scale(0.015625)"/>
       <path id="Bahnschrift-5d" d="M 681 -1019 
L 681 5081 
L 1288 5081 
L 1288 -1019 
L 681 -1019 
z
M 94 -1019 
L 94 -444 
L 975 -444 
L 975 -1019 
L 94 -1019 
z
M 94 4506 
L 94 5081 
L 975 5081 
L 975 4506 
L 94 4506 
z
" transform="scale(0.015625)"/>
      </defs>
      <use xlink:href="#Bahnschrift-54"/>
      <use xlink:href="#Bahnschrift-69" x="48.144531"/>
      <use xlink:href="#Bahnschrift-6d" x="73.242188"/>
      <use xlink:href="#Bahnschrift-65" x="158.886719"/>
      <use xlink:href="#Bahnschrift-20" x="212.5"/>
      <use xlink:href="#Bahnschrift-5b" x="239.355469"/>
      <use xlink:href="#Bahnschrift-73" x="268.75"/>
      <use xlink:href="#Bahnschrift-5d" x="320.605469"/>
     </g>
    </g>
   </g>
   <g id="line2d_12">
    <path d="M 120.259799 169.566153 
L 121.166926 169.325822 
L 122.074054 169.390106 
L 125.702564 169.049595 
L 127.516819 168.97944 
L 128.423947 169.165674 
L 129.331074 169.217857 
L 130.238202 168.862601 
L 132.052457 168.555264 
L 132.959585 168.633237 
L 133.866712 168.49287 
L 135.680967 168.559329 
L 136.588095 168.203748 
L 138.40235 167.802292 
L 140.216605 167.637493 
L 141.123733 167.510878 
L 142.030861 167.171542 
L 142.937988 166.70206 
L 145.659371 165.867926 
L 147.473626 165.555035 
L 152.009264 165.189452 
L 153.823519 165.236109 
L 154.730647 165.399 
L 155.637774 165.403326 
L 156.544902 165.600618 
L 157.452029 165.453118 
L 160.173412 165.369954 
L 161.08054 165.583484 
L 161.987667 165.347641 
L 163.801922 165.646595 
L 164.70905 165.498398 
L 165.616178 164.980753 
L 167.430433 165.187095 
L 168.33756 164.86487 
L 169.244688 164.853569 
L 170.151816 164.469115 
L 172.873198 163.954665 
L 173.780326 163.968462 
L 174.687453 163.783445 
L 175.594581 163.980408 
L 177.408836 163.751922 
L 179.223091 163.757692 
L 180.130219 163.882443 
L 181.037347 163.596874 
L 182.851602 163.278073 
L 183.758729 163.693125 
L 184.665857 163.642781 
L 185.572984 163.325607 
L 186.480112 163.335323 
L 187.38724 163.137583 
L 188.294367 163.466109 
L 189.201495 163.311407 
L 190.108622 163.397063 
L 191.01575 163.034469 
L 191.922878 162.95936 
L 194.64426 162.351942 
L 197.365643 162.45608 
L 200.087026 162.052256 
L 200.994153 162.12316 
L 202.808409 161.750647 
L 204.622664 162.11353 
L 207.344046 161.74074 
L 211.879684 161.550617 
L 213.69394 161.729119 
L 214.601067 161.548041 
L 221.858088 161.545976 
L 223.672343 161.471793 
L 225.486598 161.330186 
L 227.300853 161.543901 
L 228.207981 161.361026 
L 229.115108 161.389032 
L 230.022236 161.191825 
L 232.743619 160.975343 
L 233.650746 160.687074 
L 236.372129 160.927611 
L 237.279257 160.577439 
L 238.186384 160.445842 
L 239.093512 160.454136 
L 240.907767 160.06707 
L 242.722022 160.187411 
L 243.62915 160.168491 
L 246.350532 159.467928 
L 247.25766 159.525263 
L 248.164788 159.85034 
L 249.071915 159.368179 
L 250.88617 159.290228 
L 251.793298 159.449416 
L 252.700426 159.044283 
L 254.514681 159.004685 
L 255.421808 159.259403 
L 256.328936 159.318522 
L 259.957446 159.003493 
L 260.864574 158.703817 
L 263.585957 158.897735 
L 265.400212 158.811019 
L 266.307339 158.416111 
L 267.214467 158.746969 
L 268.121594 158.631317 
L 269.028722 158.655912 
L 269.93585 158.498158 
L 270.842977 158.506797 
L 271.750105 158.242416 
L 272.657232 158.255707 
L 274.471488 157.975584 
L 275.378615 157.950742 
L 276.285743 158.177205 
L 278.099998 157.928054 
L 279.914253 157.470194 
L 282.635636 157.219449 
L 283.542763 156.746862 
L 285.357018 156.833701 
L 288.078401 156.770135 
L 288.985529 156.853757 
L 295.335422 155.727849 
L 298.056805 155.981735 
L 298.963932 155.711199 
L 299.87106 155.983648 
L 300.778187 155.974821 
L 301.685315 156.172917 
L 302.592443 155.88031 
L 305.313825 155.440278 
L 307.12808 155.128456 
L 308.942336 154.894268 
L 309.849463 154.824359 
L 310.756591 154.980169 
L 316.199356 153.862775 
L 317.106484 153.90347 
L 318.013611 153.548049 
L 318.920739 152.944967 
L 319.827867 152.659051 
L 320.734994 152.776363 
L 322.549249 152.655499 
L 324.363505 152.835173 
L 325.270632 152.843748 
L 327.084887 153.330435 
L 330.713398 153.514316 
L 334.341908 154.557728 
L 335.249036 154.409645 
L 337.063291 154.618399 
L 337.970418 154.677421 
L 338.877546 154.501687 
L 339.784673 154.59421 
L 341.598929 154.389371 
L 343.413184 153.667289 
L 345.227439 152.861017 
L 347.041694 152.213934 
L 347.948822 152.197838 
L 349.763077 151.410517 
L 350.670204 151.208098 
L 352.48446 150.221264 
L 354.298715 150.264238 
L 355.205842 150.349622 
L 356.11297 150.109665 
L 357.020097 150.021912 
L 358.834353 149.508756 
L 360.648608 149.447107 
L 362.462863 149.933201 
L 363.369991 149.744647 
L 364.277118 149.392397 
L 366.998501 149.047968 
L 367.905628 149.088116 
L 368.812756 148.90234 
L 369.719884 148.600178 
L 371.534139 148.450048 
L 373.348394 148.141815 
L 375.162649 148.009212 
L 376.069777 147.731612 
L 376.976904 147.714179 
L 377.884032 147.293869 
L 378.791159 147.190878 
L 379.698287 146.715851 
L 380.605415 146.542781 
L 381.512542 146.530194 
L 382.41967 146.77597 
L 384.233925 146.513582 
L 386.955308 146.402087 
L 387.862435 146.46692 
L 388.769563 146.172455 
L 391.490946 145.953828 
L 392.398073 146.081395 
L 395.119456 145.797035 
L 396.026584 145.768863 
L 396.933711 145.605487 
L 401.469349 145.333031 
L 402.376477 145.173389 
L 403.283604 145.141716 
L 404.190732 144.841416 
L 405.097859 144.879073 
L 406.004987 145.032041 
L 406.912115 144.814254 
L 407.819242 144.890985 
L 409.633497 144.53188 
L 411.447752 144.116445 
L 414.169135 144.282874 
L 415.076263 144.376248 
L 416.890518 143.827058 
L 417.797645 143.875954 
L 419.611901 143.641684 
L 420.519028 143.72819 
L 421.426156 143.66291 
L 423.240411 143.739471 
L 424.147539 143.59238 
L 425.054666 143.715889 
L 425.961794 143.497445 
L 431.404559 143.436766 
L 432.311687 143.161384 
L 433.218814 142.68562 
L 434.125942 143.067252 
L 435.940197 142.962861 
L 436.847325 142.826077 
L 437.754452 142.973036 
L 438.66158 142.76436 
L 439.568707 142.687373 
L 441.382963 142.182428 
L 442.29009 142.248167 
L 443.197218 141.973065 
L 444.104345 141.834145 
L 445.011473 141.547531 
L 445.918601 141.624651 
L 449.547111 140.590049 
L 450.454238 140.604985 
L 451.361366 140.744262 
L 453.175621 140.438672 
L 454.082749 140.139902 
L 454.989876 140.18199 
L 455.897004 139.840567 
L 460.432642 139.186228 
L 461.339769 139.401747 
L 462.246897 139.218578 
L 463.154025 139.268271 
L 464.061152 139.069274 
L 464.96828 139.240126 
L 465.875407 138.954008 
L 467.689663 138.831673 
L 473.132428 138.777532 
L 474.039556 138.888856 
L 474.946683 138.85945 
L 478.575193 138.040523 
L 479.482321 137.860004 
L 480.389449 138.087935 
L 481.296576 137.903374 
L 482.203704 137.574797 
L 483.110831 137.425225 
L 484.017959 137.536154 
L 485.832214 137.384347 
L 486.739342 136.877477 
L 487.646469 136.713201 
L 488.553597 136.419552 
L 489.460724 136.246092 
L 491.27498 136.152779 
L 492.182107 135.949309 
L 493.996362 136.116426 
L 494.90349 135.975734 
L 495.810618 136.146458 
L 496.717745 136.446665 
L 497.624873 135.513769 
L 498.532 135.09178 
L 499.439128 135.170731 
L 500.346255 135.373184 
L 502.160511 134.799806 
L 503.067638 134.67271 
L 505.789021 134.605741 
L 507.603276 134.405997 
L 510.324659 133.540861 
L 511.231786 132.981142 
L 512.138914 132.734337 
L 513.046042 132.861511 
L 513.953169 132.510462 
L 514.860297 131.986384 
L 515.767424 132.741346 
L 517.58168 132.755773 
L 518.488807 132.459393 
L 520.303062 132.638034 
L 521.21019 132.47935 
L 522.117317 132.069147 
L 523.931573 132.27 
L 525.745828 131.986349 
L 526.652955 132.118178 
L 527.560083 131.904069 
L 532.095721 131.66406 
L 533.002848 131.918485 
L 533.909976 131.758625 
L 534.817104 131.78492 
L 535.724231 131.338443 
L 536.631359 131.206959 
L 537.538486 131.325625 
L 538.445614 131.033228 
L 540.259869 130.921981 
L 541.166997 130.553811 
L 542.981252 130.444351 
L 544.795507 129.975198 
L 545.702635 130.165772 
L 547.51689 130.230374 
L 548.424017 130.088496 
L 549.331145 129.82619 
L 550.238272 129.967561 
L 551.1454 129.562936 
L 552.959655 129.352907 
L 554.77391 129.402829 
L 555.681038 129.202007 
L 559.309548 129.59666 
L 560.216676 129.484346 
L 561.123803 129.194565 
L 562.030931 129.335093 
L 562.938059 129.291978 
L 564.752314 128.89544 
L 565.659441 128.9177 
L 566.566569 128.777296 
L 567.473697 128.753061 
L 568.380824 128.253121 
L 569.287952 128.041747 
L 570.195079 128.171113 
L 573.82359 127.904316 
L 574.730717 127.572872 
L 575.637845 127.445673 
L 576.544972 126.96986 
L 578.359228 126.472425 
L 579.266355 126.608263 
L 580.173483 126.519362 
L 581.08061 126.293196 
L 581.987738 126.471805 
L 587.430503 126.869948 
L 588.337631 126.528062 
L 589.244759 126.495406 
L 590.151886 126.693204 
L 591.966141 126.346094 
L 595.594652 126.592682 
L 596.501779 126.54073 
L 597.408907 126.295982 
L 598.316034 126.202331 
L 599.223162 126.250768 
L 600.130289 125.846905 
L 601.037417 125.626654 
L 601.944545 125.532359 
L 602.851672 125.302321 
L 603.7588 125.364506 
L 604.665927 124.98697 
L 607.38731 124.983863 
L 608.294438 124.648842 
L 609.201565 124.659147 
L 611.01582 124.87808 
L 611.922948 124.83802 
L 612.830076 124.669868 
L 615.551458 125.143265 
L 616.458586 124.361475 
L 617.365714 124.122276 
L 620.087096 124.08853 
L 620.994224 124.214089 
L 621.901351 124.041337 
L 622.808479 124.311331 
L 623.715607 124.288625 
L 625.529862 123.818512 
L 627.344117 123.803376 
L 629.158372 123.248271 
L 630.0655 123.122912 
L 631.879755 123.051588 
L 632.786882 123.012161 
L 633.69401 122.736942 
L 634.601138 123.281292 
L 635.508265 123.455083 
L 636.415393 123.317643 
L 640.043903 123.246764 
L 644.579541 122.478451 
L 646.393796 122.208562 
L 647.300924 122.286471 
L 648.208051 122.178853 
L 649.115179 122.305322 
L 650.022307 122.130988 
L 650.929434 121.794288 
L 651.836562 121.921385 
L 654.557944 121.746911 
L 655.465072 121.565284 
L 656.3722 121.20739 
L 657.279327 121.22988 
L 659.093582 120.912654 
L 660.00071 121.166876 
L 660.907837 121.198603 
L 661.814965 121.350606 
L 665.443475 120.892612 
L 666.350603 120.353216 
L 667.257731 120.205246 
L 668.164858 119.852051 
L 670.886241 119.51949 
L 671.793368 119.407833 
L 672.700496 119.655473 
L 677.236134 120.3106 
L 678.143262 120.111368 
L 679.957517 120.14315 
L 681.771772 120.481133 
L 682.678899 120.679421 
L 683.586027 120.706145 
L 684.493155 121.229598 
L 685.400282 121.153135 
L 686.30741 121.526021 
L 688.121665 121.396778 
L 689.028793 121.407817 
L 690.843048 121.79427 
L 691.750175 121.728749 
L 692.657303 121.869994 
L 695.378686 121.325993 
L 696.285813 121.300046 
L 697.192941 121.465598 
L 701.728579 121.568504 
L 702.635706 121.131264 
L 703.542834 121.166683 
L 706.264217 120.827691 
L 707.171344 120.779256 
L 710.799855 119.826506 
L 713.521237 119.262175 
L 714.428365 118.930104 
L 715.335492 118.432894 
L 719.87113 117.310987 
L 720.778258 117.614373 
L 721.685385 117.611697 
L 722.592513 117.340028 
L 723.499641 117.682315 
L 725.313896 117.477276 
L 726.221023 117.38277 
L 727.128151 117.144916 
L 731.663789 117.015483 
L 732.570916 117.24173 
L 734.385172 117.000688 
L 735.292299 116.851556 
L 739.827937 117.114491 
L 741.642192 116.846636 
L 743.456447 117.102884 
L 744.363575 116.80227 
L 745.270703 116.925061 
L 746.17783 116.893382 
L 747.084958 117.061322 
L 747.992085 116.790998 
L 750.713468 116.502731 
L 751.620596 116.974254 
L 752.527723 117.05462 
L 753.434851 116.938251 
L 754.341978 116.629473 
L 757.063361 116.323366 
L 757.970489 115.999367 
L 758.877616 116.250477 
L 759.784744 116.141217 
L 760.691872 116.204619 
L 761.598999 115.910939 
L 762.506127 116.227779 
L 763.413254 115.99053 
L 764.320382 116.289039 
L 765.227509 116.129243 
L 766.134637 116.201894 
L 767.041765 116.063659 
L 767.948892 116.274998 
L 768.85602 116.346013 
L 769.763147 115.731471 
L 770.670275 115.416765 
L 771.577403 115.561851 
L 772.48453 115.449612 
L 773.391658 115.541821 
L 775.205913 115.253138 
L 776.11304 115.276529 
L 777.020168 115.06771 
L 778.834423 114.457717 
L 780.648678 114.425094 
L 781.555806 114.175 
L 782.462934 113.796198 
L 783.370061 113.640301 
L 784.277189 113.714484 
L 785.184316 114.041378 
L 786.998571 113.191583 
L 787.905699 113.544966 
L 788.812827 113.66247 
L 790.627082 113.547381 
L 791.534209 113.052547 
L 792.441337 112.721073 
L 795.16272 112.434478 
L 796.069847 112.778461 
L 797.884102 112.979164 
L 798.79123 112.722624 
L 799.698358 112.885022 
L 800.605485 112.927692 
L 804.233995 112.480437 
L 805.141123 112.430954 
L 806.955378 111.899953 
L 807.862506 111.815518 
L 808.769633 112.131111 
L 809.676761 112.268204 
L 810.583889 112.556713 
L 811.491016 112.525057 
L 814.212399 111.923157 
L 816.026654 112.201004 
L 817.840909 111.662619 
L 820.562292 111.659979 
L 821.46942 111.491076 
L 824.190802 111.579698 
L 825.09793 112.125734 
L 828.72644 111.758853 
L 829.633568 111.460676 
L 832.354951 111.436542 
L 833.262078 110.957447 
L 834.169206 110.739673 
L 835.076333 111.070094 
L 835.983461 111.211471 
L 836.890588 111.070013 
L 838.704844 111.078837 
L 839.611971 111.327111 
L 840.519099 111.039472 
L 841.426226 111.153305 
L 843.240482 110.188481 
L 844.147609 110.213136 
L 845.054737 110.379704 
L 845.961864 110.16947 
L 846.868992 110.097491 
L 847.776119 110.345892 
L 849.590375 110.141388 
L 850.497502 110.094818 
L 852.311757 110.371537 
L 854.126012 110.13917 
L 855.940268 109.903511 
L 856.847395 109.391217 
L 857.754523 109.18307 
L 858.66165 109.130506 
L 859.568778 108.709532 
L 860.475906 108.715292 
L 861.383033 108.23828 
L 863.197288 107.632944 
L 864.104416 107.664068 
L 865.011543 107.811502 
L 865.918671 107.69442 
L 866.825799 107.771263 
L 868.640054 107.171201 
L 869.547181 107.122825 
L 870.454309 106.793152 
L 871.361437 106.675178 
L 872.268564 106.724937 
L 873.175692 106.64489 
L 874.082819 106.400966 
L 874.989947 106.646214 
L 875.897074 106.321447 
L 876.804202 106.153785 
L 877.71133 106.564001 
L 879.525585 106.98494 
L 880.432712 107.056014 
L 881.33984 106.939721 
L 883.154095 106.390281 
L 884.96835 106.094111 
L 885.875478 106.228499 
L 886.782605 106.162232 
L 890.411116 104.717771 
L 891.318243 104.499802 
L 892.225371 104.13252 
L 893.132499 103.938145 
L 894.039626 103.935709 
L 894.946754 104.077147 
L 895.853881 103.696966 
L 896.761009 103.497387 
L 900.389519 103.593726 
L 901.296647 103.068643 
L 902.203774 103.029147 
L 905.832285 103.265816 
L 906.739412 103.341038 
L 907.64654 103.546098 
L 908.553667 103.336806 
L 910.367923 103.572054 
L 913.089305 103.579302 
L 913.996433 103.878483 
L 915.810688 104.020265 
L 917.624943 103.917881 
L 918.532071 104.134998 
L 919.439198 104.519606 
L 923.067709 104.157035 
L 929.417602 104.097928 
L 930.324729 104.006808 
L 931.231857 104.192315 
L 932.138985 104.022947 
L 933.046112 103.663788 
L 935.767495 103.464886 
L 936.674622 102.972313 
L 938.488878 102.703262 
L 939.396005 102.111149 
L 940.303133 101.820403 
L 943.931643 101.570618 
L 946.653026 100.555301 
L 947.560153 100.463477 
L 948.467281 100.026475 
L 949.374409 100.008355 
L 951.188664 99.814091 
L 953.002919 99.506436 
L 953.910047 99.179877 
L 955.724302 99.427534 
L 956.631429 99.295822 
L 958.445684 100.018834 
L 961.167067 99.752937 
L 962.074195 99.326377 
L 962.981322 99.508207 
L 963.88845 99.282537 
L 964.795578 99.639883 
L 965.702705 99.532861 
L 966.609833 99.897009 
L 967.51696 99.410743 
L 968.424088 99.166602 
L 969.331215 99.409088 
L 970.238343 99.250733 
L 971.145471 99.308574 
L 972.052598 99.570468 
L 975.681108 99.007936 
L 976.588236 98.490962 
L 978.402491 98.206122 
L 980.216746 98.453774 
L 981.123874 98.317028 
L 982.031002 98.501611 
L 982.938129 98.445032 
L 983.845257 98.576742 
L 984.752384 98.479569 
L 987.473767 98.760374 
L 989.288022 98.849671 
L 990.19515 98.429901 
L 992.009405 98.212337 
L 992.916533 98.356326 
L 993.82366 97.947722 
L 995.637915 98.27459 
L 996.545043 98.17108 
L 997.45217 97.946603 
L 1000.173553 98.131884 
L 1001.080681 98.040176 
L 1001.987808 97.764302 
L 1002.894936 97.720616 
L 1003.802064 97.940622 
L 1004.709191 97.826947 
L 1005.616319 97.557707 
L 1008.337701 97.315002 
L 1008.337701 97.315002 
" clip-path="url(#p7dc8b55a11)" style="fill: none; stroke: #5dc694; stroke-width: 1.5; stroke-linecap: square"/>
   </g>
   <g id="patch_3">
    <path d="M 65.8775 228.04 
L 65.8775 17.28 
" style="fill: none; stroke: #000000; stroke-width: 0.8; stroke-linejoin: miter; stroke-linecap: square"/>
   </g>
   <g id="patch_4">
    <path d="M 1062.72 228.04 
L 1062.72 17.28 
" style="fill: none; stroke: #000000; stroke-width: 0.8; stroke-linejoin: miter; stroke-linecap: square"/>
   </g>
   <g id="patch_5">
    <path d="M 65.8775 228.04 
L 1062.72 228.04 
" style="fill: none; stroke: #000000; stroke-width: 0.8; stroke-linejoin: miter; stroke-linecap: square"/>
   </g>
   <g id="patch_6">
    <path d="M 65.8775 17.28 
L 1062.72 17.28 
" style="fill: none; stroke: #000000; stroke-width: 0.8; stroke-linejoin: miter; stroke-linecap: square"/>
   </g>
   <g id="legend_1">
    <g id="patch_7">
     <path d="M 763.8 76.7375 
L 1051.52 76.7375 
Q 1054.72 76.7375 1054.72 73.5375 
L 1054.72 28.48 
Q 1054.72 25.28 1051.52 25.28 
L 763.8 25.28 
Q 760.6 25.28 760.6 28.48 
L 760.6 73.5375 
Q 760.6 76.7375 763.8 76.7375 
z
" style="fill: #ffffff; opacity: 0.8; stroke: #cccccc; stroke-linejoin: miter"/>
    </g>
    <g id="line2d_13">
     <path d="M 767 38.7825 
L 783 38.7825 
L 799 38.7825 
" style="fill: none; stroke: #5dc694; stroke-width: 1.5; stroke-linecap: square"/>
    </g>
    <g id="text_14">
     <!-- Mean Time [Rolling Average (20)] -->
     <g transform="translate(811.8 44.3825) scale(0.16 -0.16)">
      <defs>
       <path id="Bahnschrift-4d" d="M 2494 1544 
L 3828 4544 
L 4425 4544 
L 4425 0 
L 3803 0 
L 3803 3403 
L 3834 3203 
L 2716 631 
L 2272 631 
L 1153 3141 
L 1184 3403 
L 1184 0 
L 563 0 
L 563 4544 
L 1159 4544 
L 2494 1544 
z
" transform="scale(0.015625)"/>
       <path id="Bahnschrift-6e" d="M 500 0 
L 500 3244 
L 1138 3244 
L 1138 0 
L 500 0 
z
M 2469 0 
L 2469 1966 
Q 2469 2309 2292 2496 
Q 2116 2684 1791 2684 
Q 1478 2684 1308 2518 
Q 1138 2353 1138 2053 
L 1072 2678 
Q 1222 2972 1464 3131 
Q 1706 3291 2000 3291 
Q 2528 3291 2817 2945 
Q 3106 2600 3106 1969 
L 3106 0 
L 2469 0 
z
" transform="scale(0.015625)"/>
       <path id="Bahnschrift-52" d="M 841 1922 
L 841 2528 
L 2391 2528 
Q 2669 2528 2837 2722 
Q 3006 2916 3006 3234 
L 3006 3234 
Q 3006 3553 2837 3747 
Q 2669 3941 2391 3941 
L 841 3941 
L 841 4547 
L 2366 4547 
Q 2763 4547 3059 4383 
Q 3356 4219 3520 3925 
Q 3684 3631 3684 3234 
L 3684 3234 
Q 3684 2841 3518 2545 
Q 3353 2250 3058 2086 
Q 2763 1922 2366 1922 
L 841 1922 
z
M 563 0 
L 563 4547 
L 1200 4547 
L 1200 0 
L 563 0 
z
M 3119 0 
L 2078 2063 
L 2713 2206 
L 3875 0 
L 3119 0 
z
" transform="scale(0.015625)"/>
       <path id="Bahnschrift-6f" d="M 1744 -47 
Q 1106 -47 756 323 
Q 406 694 406 1366 
L 406 1894 
Q 406 2559 756 2925 
Q 1106 3291 1744 3291 
Q 2381 3291 2731 2925 
Q 3081 2559 3081 1894 
L 3081 1356 
Q 3081 688 2731 320 
Q 2381 -47 1744 -47 
z
M 1744 559 
Q 2078 559 2261 768 
Q 2444 978 2444 1356 
L 2444 1894 
Q 2444 2272 2261 2478 
Q 2078 2684 1744 2684 
Q 1413 2684 1228 2478 
Q 1044 2272 1044 1894 
L 1044 1356 
Q 1044 978 1228 768 
Q 1413 559 1744 559 
z
" transform="scale(0.015625)"/>
       <path id="Bahnschrift-6c" d="M 1138 4544 
L 1138 838 
Q 1138 722 1189 656 
Q 1241 591 1334 591 
L 1634 591 
L 1634 -16 
L 1259 -16 
Q 900 -16 700 209 
Q 500 434 500 844 
L 500 4544 
L 1138 4544 
z
" transform="scale(0.015625)"/>
       <path id="Bahnschrift-67" d="M 1588 -1319 
Q 1222 -1319 933 -1183 
Q 644 -1047 484 -800 
L 484 -800 
L 916 -409 
L 916 -409 
Q 1041 -581 1214 -675 
Q 1388 -769 1578 -769 
Q 1944 -769 2144 -567 
Q 2344 -366 2344 3 
L 2344 3244 
L 2981 3244 
L 2981 97 
Q 2981 -578 2617 -948 
Q 2253 -1319 1588 -1319 
z
M 1528 -56 
Q 991 -56 698 289 
Q 406 634 406 1263 
L 406 1978 
Q 406 2609 692 2954 
Q 978 3300 1497 3300 
Q 1784 3300 2023 3150 
Q 2263 3000 2409 2728 
L 2344 2066 
Q 2344 2272 2269 2419 
Q 2194 2566 2051 2642 
Q 1909 2719 1706 2719 
Q 1391 2719 1217 2522 
Q 1044 2325 1044 1969 
L 1044 1263 
Q 1044 909 1217 717 
Q 1391 525 1706 525 
Q 1909 525 2051 604 
Q 2194 684 2269 834 
Q 2344 984 2344 1194 
L 2388 509 
Q 2300 291 2086 117 
Q 1872 -56 1528 -56 
z
" transform="scale(0.015625)"/>
       <path id="Bahnschrift-41" d="M 125 0 
L 1800 4544 
L 2344 4544 
L 4019 0 
L 3331 0 
L 2072 3666 
L 813 0 
L 125 0 
z
M 897 997 
L 897 1603 
L 3288 1603 
L 3288 997 
L 897 997 
z
" transform="scale(0.015625)"/>
       <path id="Bahnschrift-76" d="M 1616 928 
L 2409 3244 
L 3075 3244 
L 1856 0 
L 1375 0 
L 156 3244 
L 822 3244 
L 1616 928 
z
" transform="scale(0.015625)"/>
       <path id="Bahnschrift-72" d="M 500 0 
L 500 3244 
L 1138 3244 
L 1138 0 
L 500 0 
z
M 2284 2475 
Q 2200 2578 2072 2631 
Q 1944 2684 1775 2684 
Q 1472 2684 1305 2517 
Q 1138 2350 1138 2053 
L 1072 2678 
Q 1219 2966 1458 3128 
Q 1697 3291 1984 3291 
Q 2206 3291 2386 3227 
Q 2566 3163 2700 3038 
L 2284 2475 
z
" transform="scale(0.015625)"/>
       <path id="Bahnschrift-28" d="M 1672 -978 
Q 1116 -375 839 373 
Q 563 1122 563 2025 
Q 563 2928 839 3676 
Q 1116 4425 1672 5028 
L 2109 4631 
Q 1638 4106 1403 3456 
Q 1169 2806 1169 2025 
Q 1169 1244 1403 594 
Q 1638 -56 2109 -584 
L 1672 -978 
z
" transform="scale(0.015625)"/>
       <path id="Bahnschrift-29" d="M 500 -978 
L 63 -584 
Q 534 -56 768 594 
Q 1003 1244 1003 2025 
Q 1003 2806 768 3456 
Q 534 4106 63 4631 
L 500 5028 
Q 1056 4425 1332 3676 
Q 1609 2928 1609 2025 
Q 1609 1122 1332 373 
Q 1056 -375 500 -978 
z
" transform="scale(0.015625)"/>
      </defs>
      <use xlink:href="#Bahnschrift-4d"/>
      <use xlink:href="#Bahnschrift-65" x="77.929688"/>
      <use xlink:href="#Bahnschrift-61" x="131.542969"/>
      <use xlink:href="#Bahnschrift-6e" x="184.765625"/>
      <use xlink:href="#Bahnschrift-20" x="240.625"/>
      <use xlink:href="#Bahnschrift-54" x="267.480469"/>
      <use xlink:href="#Bahnschrift-69" x="315.625"/>
      <use xlink:href="#Bahnschrift-6d" x="340.722656"/>
      <use xlink:href="#Bahnschrift-65" x="426.367188"/>
      <use xlink:href="#Bahnschrift-20" x="479.980469"/>
      <use xlink:href="#Bahnschrift-5b" x="506.835938"/>
      <use xlink:href="#Bahnschrift-52" x="536.230469"/>
      <use xlink:href="#Bahnschrift-6f" x="601.416016"/>
      <use xlink:href="#Bahnschrift-6c" x="655.908203"/>
      <use xlink:href="#Bahnschrift-6c" x="684.863281"/>
      <use xlink:href="#Bahnschrift-69" x="713.818359"/>
      <use xlink:href="#Bahnschrift-6e" x="738.916016"/>
      <use xlink:href="#Bahnschrift-67" x="794.775391"/>
      <use xlink:href="#Bahnschrift-20" x="848.681641"/>
      <use xlink:href="#Bahnschrift-41" x="875.537109"/>
      <use xlink:href="#Bahnschrift-76" x="940.283203"/>
      <use xlink:href="#Bahnschrift-65" x="990.283203"/>
      <use xlink:href="#Bahnschrift-72" x="1043.896484"/>
      <use xlink:href="#Bahnschrift-61" x="1086.572266"/>
      <use xlink:href="#Bahnschrift-67" x="1139.794922"/>
      <use xlink:href="#Bahnschrift-65" x="1193.701172"/>
      <use xlink:href="#Bahnschrift-20" x="1247.314453"/>
      <use xlink:href="#Bahnschrift-28" x="1274.169922"/>
      <use xlink:href="#Bahnschrift-32" x="1308.105469"/>
      <use xlink:href="#Bahnschrift-30" x="1359.765625"/>
      <use xlink:href="#Bahnschrift-29" x="1414.941406"/>
      <use xlink:href="#Bahnschrift-5d" x="1448.876953"/>
     </g>
    </g>
    <g id="patch_8">
     <path d="M 767 67.04 
L 799 67.04 
L 799 55.84 
L 767 55.84 
z
" style="fill: #d2dbe0; stroke: #d2dbe0; stroke-linejoin: miter"/>
    </g>
    <g id="text_15">
     <!-- 90% Percentiles -->
     <g transform="translate(811.8 67.04) scale(0.16 -0.16)">
      <defs>
       <path id="Bahnschrift-39" d="M 934 0 
L 2078 2256 
L 2075 2144 
Q 1994 1997 1834 1931 
Q 1675 1866 1466 1866 
Q 975 1866 675 2230 
Q 375 2594 375 3197 
L 375 3200 
Q 375 3863 708 4227 
Q 1041 4591 1644 4591 
Q 2247 4591 2578 4223 
Q 2909 3856 2909 3184 
L 2909 3181 
Q 2909 2903 2828 2579 
Q 2747 2256 2591 1947 
L 1622 0 
L 934 0 
z
M 1644 2447 
Q 1944 2447 2108 2650 
Q 2272 2853 2272 3222 
L 2272 3225 
Q 2272 3584 2108 3781 
Q 1944 3978 1644 3978 
Q 1341 3978 1177 3781 
Q 1013 3584 1013 3222 
L 1013 3219 
Q 1013 2850 1177 2648 
Q 1341 2447 1644 2447 
z
" transform="scale(0.015625)"/>
       <path id="Bahnschrift-25" d="M 666 0 
L 3134 4544 
L 3694 4544 
L 1225 0 
L 666 0 
z
M 3328 -47 
Q 2966 -47 2769 164 
Q 2572 375 2572 753 
L 2572 1144 
Q 2572 1522 2769 1733 
Q 2966 1944 3328 1944 
Q 3691 1944 3887 1731 
Q 4084 1519 4084 1138 
L 4084 753 
Q 4084 375 3887 164 
Q 3691 -47 3328 -47 
z
M 3328 450 
Q 3563 450 3563 722 
L 3563 1181 
Q 3563 1444 3328 1444 
Q 3094 1444 3094 1178 
L 3094 722 
Q 3094 450 3328 450 
z
M 1069 2597 
Q 706 2597 509 2808 
Q 313 3019 313 3397 
L 313 3788 
Q 313 4166 509 4377 
Q 706 4588 1069 4588 
Q 1431 4588 1628 4375 
Q 1825 4163 1825 3781 
L 1825 3397 
Q 1825 3019 1628 2808 
Q 1431 2597 1069 2597 
z
M 1069 3094 
Q 1303 3094 1303 3366 
L 1303 3825 
Q 1303 4088 1069 4088 
Q 834 4088 834 3822 
L 834 3366 
Q 834 3094 1069 3094 
z
" transform="scale(0.015625)"/>
       <path id="Bahnschrift-50" d="M 891 1763 
L 891 2369 
L 2344 2369 
Q 2656 2369 2845 2584 
Q 3034 2800 3034 3150 
L 3034 3150 
Q 3034 3506 2845 3722 
Q 2656 3938 2344 3938 
L 891 3938 
L 891 4544 
L 2322 4544 
Q 2734 4544 3040 4370 
Q 3347 4197 3517 3884 
Q 3688 3572 3688 3150 
L 3688 3150 
Q 3688 2731 3517 2418 
Q 3347 2106 3040 1934 
Q 2734 1763 2322 1763 
L 891 1763 
z
M 563 0 
L 563 4544 
L 1200 4544 
L 1200 0 
L 563 0 
z
" transform="scale(0.015625)"/>
       <path id="Bahnschrift-63" d="M 1809 -47 
Q 1141 -47 773 322 
Q 406 691 406 1363 
L 406 1897 
Q 406 2563 773 2927 
Q 1141 3291 1809 3291 
Q 2191 3291 2497 3156 
Q 2803 3022 2984 2772 
L 2984 2772 
L 2525 2359 
L 2525 2359 
Q 2391 2516 2206 2600 
Q 2022 2684 1819 2684 
Q 1450 2684 1247 2478 
Q 1044 2272 1044 1897 
L 1044 1363 
Q 1044 978 1247 768 
Q 1450 559 1819 559 
Q 2022 559 2206 650 
Q 2391 741 2525 906 
L 2525 906 
L 2984 463 
L 2984 463 
Q 2803 219 2495 86 
Q 2188 -47 1809 -47 
z
" transform="scale(0.015625)"/>
      </defs>
      <use xlink:href="#Bahnschrift-39"/>
      <use xlink:href="#Bahnschrift-30" x="51.318359"/>
      <use xlink:href="#Bahnschrift-25" x="106.494141"/>
      <use xlink:href="#Bahnschrift-20" x="175.195312"/>
      <use xlink:href="#Bahnschrift-50" x="202.050781"/>
      <use xlink:href="#Bahnschrift-65" x="264.306641"/>
      <use xlink:href="#Bahnschrift-72" x="317.919922"/>
      <use xlink:href="#Bahnschrift-63" x="360.595703"/>
      <use xlink:href="#Bahnschrift-65" x="410.400391"/>
      <use xlink:href="#Bahnschrift-6e" x="464.013672"/>
      <use xlink:href="#Bahnschrift-74" x="519.873047"/>
      <use xlink:href="#Bahnschrift-69" x="552.490234"/>
      <use xlink:href="#Bahnschrift-6c" x="577.587891"/>
      <use xlink:href="#Bahnschrift-65" x="606.542969"/>
      <use xlink:href="#Bahnschrift-73" x="660.15625"/>
     </g>
    </g>
   </g>
  </g>
 </g>
 <defs>
  <clipPath id="p7dc8b55a11">
   <rect x="65.8775" y="17.28" width="996.8425" height="210.76"/>
  </clipPath>
 </defs>
</svg>
