<?xml version="1.0" encoding="utf-8" standalone="no"?>
<!DOCTYPE svg PUBLIC "-//W3C//DTD SVG 1.1//EN"
  "http://www.w3.org/Graphics/SVG/1.1/DTD/svg11.dtd">
<svg xmlns:xlink="http://www.w3.org/1999/xlink" width="1080pt" height="288pt" viewBox="0 0 1080 288" xmlns="http://www.w3.org/2000/svg" version="1.1">
 <metadata>
  <rdf:RDF xmlns:dc="http://purl.org/dc/elements/1.1/" xmlns:cc="http://creativecommons.org/ns#" xmlns:rdf="http://www.w3.org/1999/02/22-rdf-syntax-ns#">
   <cc:Work>
    <dc:type rdf:resource="http://purl.org/dc/dcmitype/StillImage"/>
    <dc:date>2024-05-29T19:40:35.407207</dc:date>
    <dc:format>image/svg+xml</dc:format>
    <dc:creator>
     <cc:Agent>
      <dc:title>Matplotlib v3.8.2, https://matplotlib.org/</dc:title>
     </cc:Agent>
    </dc:creator>
   </cc:Work>
  </rdf:RDF>
 </metadata>
 <defs>
  <style type="text/css">*{stroke-linejoin: round; stroke-linecap: butt}</style>
 </defs>
 <g id="figure_1">
  <g id="patch_1">
   <path d="M 0 288 
L 1080 288 
L 1080 0 
L 0 0 
z
" style="fill: #ffffff"/>
  </g>
  <g id="axes_1">
   <g id="patch_2">
    <path d="M 65.8775 228.04 
L 1062.72 228.04 
L 1062.72 17.28 
L 65.8775 17.28 
z
" style="fill: #ffffff"/>
   </g>
   <g id="PolyCollection_1">
    <defs>
     <path id="m1968b5bd2e" d="M 111.188523 -148.839104 
L 111.188523 -79.103626 
L 121.370775 -83.598115 
L 131.553027 -84.281359 
L 141.73528 -80.157127 
L 151.917532 -81.55763 
L 162.099784 -80.431782 
L 172.282037 -69.54 
L 182.464289 -73.66042 
L 192.646541 -82.434705 
L 202.828793 -81.872718 
L 213.011046 -88.00253 
L 223.193298 -84.938366 
L 233.37555 -92.962221 
L 243.557803 -93.290105 
L 253.740055 -88.871334 
L 263.922307 -82.229068 
L 274.104559 -88.53099 
L 284.286812 -85.153793 
L 294.469064 -92.772371 
L 304.651316 -92.344322 
L 314.833569 -82.731373 
L 325.015821 -75.121707 
L 335.198073 -94.309898 
L 345.380326 -99.181553 
L 355.562578 -88.272164 
L 365.74483 -89.114813 
L 375.927082 -105.936772 
L 386.109335 -108.238732 
L 396.291587 -89.556311 
L 406.473839 -96.409632 
L 416.656092 -98.918767 
L 426.838344 -107.135029 
L 437.020596 -97.602277 
L 447.202849 -86.935873 
L 457.385101 -101.916182 
L 467.567353 -98.219681 
L 477.749605 -90.506797 
L 487.931858 -104.714671 
L 498.11411 -105.404434 
L 508.296362 -97.099064 
L 518.478615 -100.918419 
L 528.660867 -101.601251 
L 538.843119 -94.498015 
L 549.025372 -105.061533 
L 559.207624 -107.890055 
L 569.389876 -112.266253 
L 579.572128 -96.921508 
L 589.754381 -87.413509 
L 599.936633 -97.876532 
L 610.118885 -104.079611 
L 620.301138 -108.527095 
L 630.48339 -98.788158 
L 640.665642 -100.7954 
L 650.847895 -106.521586 
L 661.030147 -104.878696 
L 671.212399 -102.637463 
L 681.394651 -97.857226 
L 691.576904 -118.559182 
L 701.759156 -110.93912 
L 711.941408 -104.715166 
L 722.123661 -116.386677 
L 732.305913 -107.854659 
L 742.488165 -115.892127 
L 752.670418 -104.72449 
L 762.85267 -98.387914 
L 773.034922 -98.07389 
L 783.217174 -110.601086 
L 793.399427 -102.460897 
L 803.581679 -109.46207 
L 813.763931 -113.186624 
L 823.946184 -97.79617 
L 834.128436 -103.587371 
L 844.310688 -113.143555 
L 854.492941 -108.60292 
L 864.675193 -109.474034 
L 874.857445 -118.765451 
L 885.039697 -112.003054 
L 895.22195 -113.023342 
L 905.404202 -107.142455 
L 915.586454 -106.119774 
L 925.768707 -109.3371 
L 935.950959 -128.654647 
L 946.133211 -113.533452 
L 956.315463 -119.250475 
L 966.497716 -112.791879 
L 976.679968 -124.588674 
L 986.86222 -116.395468 
L 997.044473 -112.495487 
L 1007.226725 -112.900773 
L 1017.408977 -117.47656 
L 1017.408977 -246.32716 
L 1017.408977 -246.32716 
L 1007.226725 -236.988632 
L 997.044473 -239.754118 
L 986.86222 -224.266718 
L 976.679968 -219.162061 
L 966.497716 -244.280232 
L 956.315463 -238.637627 
L 946.133211 -227.12618 
L 935.950959 -234.326445 
L 925.768707 -224.091719 
L 915.586454 -261.14 
L 905.404202 -226.689579 
L 895.22195 -228.554756 
L 885.039697 -211.029569 
L 874.857445 -216.562184 
L 864.675193 -223.37114 
L 854.492941 -213.078635 
L 844.310688 -214.00448 
L 834.128436 -223.843933 
L 823.946184 -216.646895 
L 813.763931 -222.02694 
L 803.581679 -210.428337 
L 793.399427 -208.915414 
L 783.217174 -207.529779 
L 773.034922 -210.428003 
L 762.85267 -210.776647 
L 752.670418 -203.107051 
L 742.488165 -218.736727 
L 732.305913 -203.113367 
L 722.123661 -201.797624 
L 711.941408 -204.903656 
L 701.759156 -204.258703 
L 691.576904 -201.810037 
L 681.394651 -205.68508 
L 671.212399 -202.458241 
L 661.030147 -201.854278 
L 650.847895 -191.643067 
L 640.665642 -183.522002 
L 630.48339 -179.33379 
L 620.301138 -185.314457 
L 610.118885 -181.870371 
L 599.936633 -196.928893 
L 589.754381 -187.829859 
L 579.572128 -186.396374 
L 569.389876 -171.1124 
L 559.207624 -185.386746 
L 549.025372 -185.602668 
L 538.843119 -188.258461 
L 528.660867 -176.904662 
L 518.478615 -186.16492 
L 508.296362 -175.848285 
L 498.11411 -173.500344 
L 487.931858 -182.447115 
L 477.749605 -174.872436 
L 467.567353 -182.59173 
L 457.385101 -168.913546 
L 447.202849 -174.14116 
L 437.020596 -167.735372 
L 426.838344 -167.124062 
L 416.656092 -166.601439 
L 406.473839 -169.591106 
L 396.291587 -162.496579 
L 386.109335 -168.203833 
L 375.927082 -162.073229 
L 365.74483 -170.592306 
L 355.562578 -161.62136 
L 345.380326 -161.945309 
L 335.198073 -159.322891 
L 325.015821 -161.341652 
L 314.833569 -162.459661 
L 304.651316 -154.017399 
L 294.469064 -161.172429 
L 284.286812 -154.905493 
L 274.104559 -152.591942 
L 263.922307 -161.587247 
L 253.740055 -154.585764 
L 243.557803 -152.670646 
L 233.37555 -152.884814 
L 223.193298 -151.609294 
L 213.011046 -161.711529 
L 202.828793 -153.07336 
L 192.646541 -149.101643 
L 182.464289 -150.005761 
L 172.282037 -149.155438 
L 162.099784 -150.566977 
L 151.917532 -145.123957 
L 141.73528 -147.986885 
L 131.553027 -145.291117 
L 121.370775 -144.68873 
L 111.188523 -148.839104 
z
" style="stroke: #d2dbe0"/>
    </defs>
    <g clip-path="url(#p1a4868eba2)">
     <use xlink:href="#m1968b5bd2e" x="0" y="288" style="fill: #d2dbe0; stroke: #d2dbe0"/>
    </g>
   </g>
   <g id="matplotlib.axis_1">
    <g id="xtick_1">
     <g id="line2d_1">
      <defs>
       <path id="m8b3024a2ce" d="M 0 0 
L 0 3.5 
" style="stroke: #000000; stroke-width: 0.8"/>
      </defs>
      <g>
       <use xlink:href="#m8b3024a2ce" x="213.011046" y="228.04" style="stroke: #000000; stroke-width: 0.8"/>
      </g>
     </g>
     <g id="text_1">
      <!-- 2000 -->
      <g transform="translate(195.637296 246.4) scale(0.16 -0.16)">
       <defs>
        <path id="Bahnschrift-32" d="M 400 0 
L 400 553 
L 1984 2666 
Q 2122 2847 2198 3040 
Q 2275 3234 2275 3406 
L 2275 3413 
Q 2275 3684 2115 3834 
Q 1956 3984 1663 3984 
Q 1388 3984 1214 3820 
Q 1041 3656 1003 3356 
L 1003 3353 
L 344 3353 
L 344 3356 
Q 428 3944 772 4267 
Q 1116 4591 1656 4591 
Q 2269 4591 2603 4281 
Q 2938 3972 2938 3406 
L 2938 3403 
Q 2938 3163 2838 2898 
Q 2738 2634 2559 2394 
L 1244 606 
L 2963 606 
L 2963 0 
L 400 0 
z
" transform="scale(0.015625)"/>
        <path id="Bahnschrift-30" d="M 1766 -47 
Q 1116 -47 792 301 
Q 469 650 469 1244 
L 469 3309 
Q 469 3913 797 4256 
Q 1125 4600 1766 4600 
Q 2409 4600 2736 4258 
Q 3063 3916 3063 3309 
L 3063 1244 
Q 3063 641 2736 297 
Q 2409 -47 1766 -47 
z
M 1766 559 
Q 2116 559 2270 742 
Q 2425 925 2425 1244 
L 2425 3309 
Q 2425 3631 2270 3812 
Q 2116 3994 1766 3994 
Q 1416 3994 1261 3812 
Q 1106 3631 1106 3309 
L 1106 1244 
Q 1106 925 1261 742 
Q 1416 559 1766 559 
z
" transform="scale(0.015625)"/>
       </defs>
       <use xlink:href="#Bahnschrift-32"/>
       <use xlink:href="#Bahnschrift-30" x="51.660156"/>
       <use xlink:href="#Bahnschrift-30" x="106.835938"/>
       <use xlink:href="#Bahnschrift-30" x="162.011719"/>
      </g>
     </g>
    </g>
    <g id="xtick_2">
     <g id="line2d_2">
      <g>
       <use xlink:href="#m8b3024a2ce" x="416.656092" y="228.04" style="stroke: #000000; stroke-width: 0.8"/>
      </g>
     </g>
     <g id="text_2">
      <!-- 4000 -->
      <g transform="translate(398.863592 246.4) scale(0.16 -0.16)">
       <defs>
        <path id="Bahnschrift-34" d="M 406 697 
L 406 1250 
L 1931 4541 
L 2588 4541 
L 1100 1288 
L 3328 1288 
L 3328 697 
L 406 697 
z
M 2366 -3 
L 2366 2672 
L 2988 2672 
L 2988 -3 
L 2366 -3 
z
" transform="scale(0.015625)"/>
       </defs>
       <use xlink:href="#Bahnschrift-34"/>
       <use xlink:href="#Bahnschrift-30" x="56.884766"/>
       <use xlink:href="#Bahnschrift-30" x="112.060547"/>
       <use xlink:href="#Bahnschrift-30" x="167.236328"/>
      </g>
     </g>
    </g>
    <g id="xtick_3">
     <g id="line2d_3">
      <g>
       <use xlink:href="#m8b3024a2ce" x="620.301138" y="228.04" style="stroke: #000000; stroke-width: 0.8"/>
      </g>
     </g>
     <g id="text_3">
      <!-- 6000 -->
      <g transform="translate(602.954888 246.4) scale(0.16 -0.16)">
       <defs>
        <path id="Bahnschrift-36" d="M 1641 -47 
Q 1038 -47 706 312 
Q 375 672 375 1325 
L 375 1328 
Q 375 1622 456 1951 
Q 538 2281 691 2588 
L 1678 4544 
L 2366 4544 
L 1206 2278 
L 1209 2391 
Q 1372 2700 1788 2700 
Q 2322 2700 2615 2345 
Q 2909 1991 2909 1344 
L 2909 1341 
Q 2909 681 2578 317 
Q 2247 -47 1641 -47 
z
M 1641 566 
Q 1947 566 2109 753 
Q 2272 941 2272 1288 
L 2272 1291 
Q 2272 1672 2100 1880 
Q 1928 2088 1609 2088 
Q 1325 2088 1169 1878 
Q 1013 1669 1013 1288 
L 1013 1284 
Q 1013 938 1177 752 
Q 1341 566 1641 566 
z
" transform="scale(0.015625)"/>
       </defs>
       <use xlink:href="#Bahnschrift-36"/>
       <use xlink:href="#Bahnschrift-30" x="51.318359"/>
       <use xlink:href="#Bahnschrift-30" x="106.494141"/>
       <use xlink:href="#Bahnschrift-30" x="161.669922"/>
      </g>
     </g>
    </g>
    <g id="xtick_4">
     <g id="line2d_4">
      <g>
       <use xlink:href="#m8b3024a2ce" x="823.946184" y="228.04" style="stroke: #000000; stroke-width: 0.8"/>
      </g>
     </g>
     <g id="text_4">
      <!-- 8000 -->
      <g transform="translate(806.204934 246.4) scale(0.16 -0.16)">
       <defs>
        <path id="Bahnschrift-38" d="M 1800 -47 
Q 1384 -47 1075 109 
Q 766 266 594 550 
Q 422 834 422 1216 
L 422 1291 
Q 422 1631 592 1931 
Q 763 2231 1047 2384 
Q 809 2516 662 2764 
Q 516 3013 516 3288 
L 516 3397 
Q 516 3938 867 4264 
Q 1219 4591 1800 4591 
Q 2381 4591 2732 4264 
Q 3084 3938 3084 3397 
L 3084 3288 
Q 3084 3006 2936 2759 
Q 2788 2513 2544 2384 
Q 2831 2231 3004 1931 
Q 3178 1631 3178 1291 
L 3178 1216 
Q 3178 834 3006 550 
Q 2834 266 2525 109 
Q 2216 -47 1800 -47 
z
M 1800 566 
Q 2134 566 2339 758 
Q 2544 950 2544 1263 
L 2544 1306 
Q 2544 1622 2339 1814 
Q 2134 2006 1800 2006 
Q 1466 2006 1261 1814 
Q 1056 1622 1056 1303 
L 1056 1256 
Q 1056 944 1261 755 
Q 1466 566 1800 566 
z
M 1800 2619 
Q 2091 2619 2269 2803 
Q 2447 2988 2447 3291 
L 2447 3334 
Q 2447 3625 2269 3801 
Q 2091 3978 1800 3978 
Q 1509 3978 1331 3801 
Q 1153 3625 1153 3331 
L 1153 3284 
Q 1153 2984 1331 2801 
Q 1509 2619 1800 2619 
z
" transform="scale(0.015625)"/>
       </defs>
       <use xlink:href="#Bahnschrift-38"/>
       <use xlink:href="#Bahnschrift-30" x="56.25"/>
       <use xlink:href="#Bahnschrift-30" x="111.425781"/>
       <use xlink:href="#Bahnschrift-30" x="166.601562"/>
      </g>
     </g>
    </g>
    <g id="xtick_5">
     <g id="line2d_5">
      <g>
       <use xlink:href="#m8b3024a2ce" x="1027.59123" y="228.04" style="stroke: #000000; stroke-width: 0.8"/>
      </g>
     </g>
     <g id="text_5">
      <!-- 10000 -->
      <g transform="translate(1007.27623 246.4) scale(0.16 -0.16)">
       <defs>
        <path id="Bahnschrift-31" d="M 1566 4544 
L 1566 0 
L 928 0 
L 928 3850 
L 281 3453 
L 281 4113 
L 928 4544 
L 1566 4544 
z
" transform="scale(0.015625)"/>
       </defs>
       <use xlink:href="#Bahnschrift-31"/>
       <use xlink:href="#Bahnschrift-30" x="33.251953"/>
       <use xlink:href="#Bahnschrift-30" x="88.427734"/>
       <use xlink:href="#Bahnschrift-30" x="143.603516"/>
       <use xlink:href="#Bahnschrift-30" x="198.779297"/>
      </g>
     </g>
    </g>
    <g id="text_6">
     <!-- Number of Sites -->
     <g transform="translate(506.17 265.0575) scale(0.16 -0.16)">
      <defs>
       <path id="Bahnschrift-4e" d="M 563 3 
L 563 4544 
L 1141 4544 
L 3363 1031 
L 3288 950 
L 3288 4544 
L 3919 4544 
L 3919 3 
L 3334 3 
L 1119 3463 
L 1194 3544 
L 1194 3 
L 563 3 
z
" transform="scale(0.015625)"/>
       <path id="Bahnschrift-75" d="M 2456 0 
L 2456 3244 
L 3091 3244 
L 3091 0 
L 2456 0 
z
M 1138 3244 
L 1138 1272 
Q 1138 931 1311 745 
Q 1484 559 1800 559 
Q 2116 559 2286 726 
Q 2456 894 2456 1197 
L 2500 519 
Q 2413 300 2194 126 
Q 1975 -47 1622 -47 
Q 1084 -47 792 298 
Q 500 644 500 1272 
L 500 3244 
L 1138 3244 
z
" transform="scale(0.015625)"/>
       <path id="Bahnschrift-6d" d="M 4375 0 
L 4375 1966 
Q 4375 2309 4198 2496 
Q 4022 2684 3697 2684 
Q 3400 2684 3237 2503 
Q 3075 2322 3075 1991 
L 2947 2616 
Q 3103 2941 3353 3116 
Q 3603 3291 3906 3291 
Q 4434 3291 4723 2945 
Q 5013 2600 5013 1969 
L 5013 0 
L 4375 0 
z
M 500 0 
L 500 3244 
L 1138 3244 
L 1138 0 
L 500 0 
z
M 2438 0 
L 2438 1966 
Q 2438 2309 2269 2496 
Q 2100 2684 1791 2684 
Q 1478 2684 1308 2518 
Q 1138 2353 1138 2053 
L 1072 2678 
Q 1222 2972 1464 3131 
Q 1706 3291 2000 3291 
Q 2513 3291 2794 2945 
Q 3075 2600 3075 1969 
L 3075 0 
L 2438 0 
z
" transform="scale(0.015625)"/>
       <path id="Bahnschrift-62" d="M 1953 -47 
Q 1650 -47 1425 98 
Q 1200 244 1094 509 
L 1138 1188 
Q 1138 978 1213 831 
Q 1288 684 1430 606 
Q 1572 528 1775 528 
Q 2091 528 2264 720 
Q 2438 913 2438 1263 
L 2438 1966 
Q 2438 2322 2264 2519 
Q 2091 2716 1775 2716 
Q 1572 2716 1430 2641 
Q 1288 2566 1213 2422 
Q 1138 2278 1138 2072 
L 1072 2697 
Q 1219 2981 1456 3136 
Q 1694 3291 1984 3291 
Q 2506 3291 2790 2945 
Q 3075 2600 3075 1969 
L 3075 1263 
Q 3075 641 2781 297 
Q 2488 -47 1953 -47 
z
M 500 0 
L 500 4544 
L 1138 4544 
L 1138 0 
L 500 0 
z
" transform="scale(0.015625)"/>
       <path id="Bahnschrift-65" d="M 1828 -47 
Q 1150 -47 778 331 
Q 406 709 406 1406 
L 406 1772 
Q 406 2497 764 2894 
Q 1122 3291 1772 3291 
Q 2384 3291 2720 2841 
Q 3056 2391 3056 1578 
L 3056 1366 
L 869 1366 
L 869 1878 
L 2450 1878 
L 2450 1878 
Q 2422 2272 2245 2494 
Q 2069 2716 1772 2716 
Q 1413 2716 1213 2478 
Q 1013 2241 1013 1806 
L 1013 1394 
Q 1013 991 1227 775 
Q 1441 559 1828 559 
Q 2022 559 2212 637 
Q 2403 716 2553 856 
L 2553 856 
L 2972 438 
L 2972 438 
Q 2731 206 2431 79 
Q 2131 -47 1828 -47 
z
" transform="scale(0.015625)"/>
       <path id="Bahnschrift-72" d="M 500 0 
L 500 3244 
L 1138 3244 
L 1138 0 
L 500 0 
z
M 2284 2475 
Q 2200 2578 2072 2631 
Q 1944 2684 1775 2684 
Q 1472 2684 1305 2517 
Q 1138 2350 1138 2053 
L 1072 2678 
Q 1219 2966 1458 3128 
Q 1697 3291 1984 3291 
Q 2206 3291 2386 3227 
Q 2566 3163 2700 3038 
L 2284 2475 
z
" transform="scale(0.015625)"/>
       <path id="Bahnschrift-20" transform="scale(0.015625)"/>
       <path id="Bahnschrift-6f" d="M 1744 -47 
Q 1106 -47 756 323 
Q 406 694 406 1366 
L 406 1894 
Q 406 2559 756 2925 
Q 1106 3291 1744 3291 
Q 2381 3291 2731 2925 
Q 3081 2559 3081 1894 
L 3081 1356 
Q 3081 688 2731 320 
Q 2381 -47 1744 -47 
z
M 1744 559 
Q 2078 559 2261 768 
Q 2444 978 2444 1356 
L 2444 1894 
Q 2444 2272 2261 2478 
Q 2078 2684 1744 2684 
Q 1413 2684 1228 2478 
Q 1044 2272 1044 1894 
L 1044 1356 
Q 1044 978 1228 768 
Q 1413 559 1744 559 
z
" transform="scale(0.015625)"/>
       <path id="Bahnschrift-66" d="M 594 0 
L 594 3684 
Q 594 4113 791 4328 
Q 988 4544 1403 4544 
L 1872 4544 
L 1872 3938 
L 1416 3938 
Q 1319 3938 1275 3864 
Q 1231 3791 1231 3691 
L 1231 0 
L 594 0 
z
M 250 2700 
L 250 3244 
L 1872 3244 
L 1872 2700 
L 250 2700 
z
" transform="scale(0.015625)"/>
       <path id="Bahnschrift-53" d="M 1928 -47 
Q 1597 -47 1305 15 
Q 1013 78 758 203 
Q 503 328 281 516 
L 281 516 
L 678 1003 
L 678 1003 
Q 938 778 1250 665 
Q 1563 553 1928 553 
Q 2422 553 2694 737 
Q 2966 922 2966 1253 
L 2966 1256 
Q 2966 1516 2828 1653 
Q 2691 1791 2467 1858 
Q 2244 1925 1978 1969 
Q 1722 2013 1461 2072 
Q 1200 2131 981 2257 
Q 763 2384 630 2621 
Q 497 2859 497 3256 
L 497 3259 
Q 497 3894 919 4242 
Q 1341 4591 2109 4591 
Q 2475 4591 2825 4473 
Q 3175 4356 3506 4116 
L 3506 4116 
L 3144 3609 
L 3144 3609 
Q 2884 3803 2626 3897 
Q 2369 3991 2109 3991 
Q 1644 3991 1386 3805 
Q 1128 3619 1128 3278 
L 1128 3275 
Q 1128 3019 1278 2884 
Q 1428 2750 1670 2686 
Q 1913 2622 2191 2566 
Q 2441 2516 2691 2445 
Q 2941 2375 3145 2242 
Q 3350 2109 3473 1878 
Q 3597 1647 3597 1275 
L 3597 1269 
Q 3597 641 3159 297 
Q 2722 -47 1928 -47 
z
" transform="scale(0.015625)"/>
       <path id="Bahnschrift-69" d="M 500 3906 
L 500 4544 
L 1138 4544 
L 1138 3906 
L 500 3906 
z
M 500 0 
L 500 3244 
L 1138 3244 
L 1138 0 
L 500 0 
z
" transform="scale(0.015625)"/>
       <path id="Bahnschrift-74" d="M 1344 -16 
Q 944 -16 764 206 
Q 584 428 584 844 
L 584 4188 
L 1222 4188 
L 1222 838 
Q 1222 722 1269 656 
Q 1316 591 1406 591 
L 1713 591 
L 1713 -16 
L 1344 -16 
z
M 250 2669 
L 250 3244 
L 1713 3244 
L 1713 2669 
L 250 2669 
z
" transform="scale(0.015625)"/>
       <path id="Bahnschrift-73" d="M 1647 -47 
Q 1216 -47 864 79 
Q 513 206 234 459 
L 234 459 
L 613 925 
L 613 925 
Q 878 725 1136 625 
Q 1394 525 1647 525 
Q 2025 525 2214 642 
Q 2403 759 2403 994 
Q 2403 1175 2276 1250 
Q 2150 1325 1945 1348 
Q 1741 1372 1506 1388 
Q 1309 1403 1115 1436 
Q 922 1469 762 1555 
Q 603 1641 508 1809 
Q 413 1978 413 2263 
Q 413 2778 728 3034 
Q 1044 3291 1669 3291 
Q 2050 3291 2378 3187 
Q 2706 3084 2994 2872 
L 2994 2872 
L 2609 2406 
L 2609 2406 
Q 2366 2563 2130 2641 
Q 1894 2719 1669 2719 
Q 1344 2719 1181 2608 
Q 1019 2497 1019 2275 
Q 1019 2128 1131 2064 
Q 1244 2000 1428 1981 
Q 1613 1963 1825 1947 
Q 2028 1934 2236 1901 
Q 2444 1869 2619 1775 
Q 2794 1681 2900 1497 
Q 3006 1313 3006 994 
Q 3006 472 2667 212 
Q 2328 -47 1647 -47 
z
" transform="scale(0.015625)"/>
      </defs>
      <use xlink:href="#Bahnschrift-4e"/>
      <use xlink:href="#Bahnschrift-75" x="70.019531"/>
      <use xlink:href="#Bahnschrift-6d" x="125.634766"/>
      <use xlink:href="#Bahnschrift-62" x="211.279297"/>
      <use xlink:href="#Bahnschrift-65" x="265.673828"/>
      <use xlink:href="#Bahnschrift-72" x="319.287109"/>
      <use xlink:href="#Bahnschrift-20" x="361.962891"/>
      <use xlink:href="#Bahnschrift-6f" x="388.818359"/>
      <use xlink:href="#Bahnschrift-66" x="443.310547"/>
      <use xlink:href="#Bahnschrift-20" x="475"/>
      <use xlink:href="#Bahnschrift-53" x="501.855469"/>
      <use xlink:href="#Bahnschrift-69" x="563.427734"/>
      <use xlink:href="#Bahnschrift-74" x="588.525391"/>
      <use xlink:href="#Bahnschrift-65" x="621.142578"/>
      <use xlink:href="#Bahnschrift-73" x="674.755859"/>
     </g>
    </g>
   </g>
   <g id="matplotlib.axis_2">
    <g id="ytick_1">
     <g id="line2d_6">
      <defs>
       <path id="me8c849e621" d="M 0 0 
L -3.5 0 
" style="stroke: #000000; stroke-width: 0.8"/>
      </defs>
      <g>
       <use xlink:href="#me8c849e621" x="65.8775" y="216.015427" style="stroke: #000000; stroke-width: 0.8"/>
      </g>
     </g>
     <g id="text_7">
      <!-- 0.4 -->
      <g transform="translate(37.3225 221.695427) scale(0.16 -0.16)">
       <defs>
        <path id="Bahnschrift-2e" d="M 391 0 
L 391 669 
L 1059 669 
L 1059 0 
L 391 0 
z
" transform="scale(0.015625)"/>
       </defs>
       <use xlink:href="#Bahnschrift-30"/>
       <use xlink:href="#Bahnschrift-2e" x="55.175781"/>
       <use xlink:href="#Bahnschrift-34" x="77.832031"/>
      </g>
     </g>
    </g>
    <g id="ytick_2">
     <g id="line2d_7">
      <g>
       <use xlink:href="#me8c849e621" x="65.8775" y="146.80312" style="stroke: #000000; stroke-width: 0.8"/>
      </g>
     </g>
     <g id="text_8">
      <!-- 0.6 -->
      <g transform="translate(38.215 152.48312) scale(0.16 -0.16)">
       <use xlink:href="#Bahnschrift-30"/>
       <use xlink:href="#Bahnschrift-2e" x="55.175781"/>
       <use xlink:href="#Bahnschrift-36" x="77.832031"/>
      </g>
     </g>
    </g>
    <g id="ytick_3">
     <g id="line2d_8">
      <g>
       <use xlink:href="#me8c849e621" x="65.8775" y="77.590813" style="stroke: #000000; stroke-width: 0.8"/>
      </g>
     </g>
     <g id="text_9">
      <!-- 0.8 -->
      <g transform="translate(37.425 83.270813) scale(0.16 -0.16)">
       <use xlink:href="#Bahnschrift-30"/>
       <use xlink:href="#Bahnschrift-2e" x="55.175781"/>
       <use xlink:href="#Bahnschrift-38" x="77.832031"/>
      </g>
     </g>
    </g>
    <g id="text_10">
     <!-- Time [s] -->
     <g transform="translate(30.025 150.65875) rotate(-90) scale(0.16 -0.16)">
      <defs>
       <path id="Bahnschrift-54" d="M 1222 0 
L 1222 4172 
L 1859 4172 
L 1859 0 
L 1222 0 
z
M -63 3938 
L -63 4544 
L 3144 4544 
L 3144 3938 
L -63 3938 
z
" transform="scale(0.015625)"/>
       <path id="Bahnschrift-5b" d="M 594 -1019 
L 594 5081 
L 1200 5081 
L 1200 -1019 
L 594 -1019 
z
M 906 -1019 
L 906 -444 
L 1788 -444 
L 1788 -1019 
L 906 -1019 
z
M 906 4506 
L 906 5081 
L 1788 5081 
L 1788 4506 
L 906 4506 
z
" transform="scale(0.015625)"/>
       <path id="Bahnschrift-5d" d="M 681 -1019 
L 681 5081 
L 1288 5081 
L 1288 -1019 
L 681 -1019 
z
M 94 -1019 
L 94 -444 
L 975 -444 
L 975 -1019 
L 94 -1019 
z
M 94 4506 
L 94 5081 
L 975 5081 
L 975 4506 
L 94 4506 
z
" transform="scale(0.015625)"/>
      </defs>
      <use xlink:href="#Bahnschrift-54"/>
      <use xlink:href="#Bahnschrift-69" x="48.144531"/>
      <use xlink:href="#Bahnschrift-6d" x="73.242188"/>
      <use xlink:href="#Bahnschrift-65" x="158.886719"/>
      <use xlink:href="#Bahnschrift-20" x="212.5"/>
      <use xlink:href="#Bahnschrift-5b" x="239.355469"/>
      <use xlink:href="#Bahnschrift-73" x="268.75"/>
      <use xlink:href="#Bahnschrift-5d" x="320.605469"/>
     </g>
    </g>
   </g>
   <g id="line2d_9">
    <path d="M 213.011046 167.353109 
L 223.193298 166.790579 
L 233.37555 166.401612 
L 243.557803 165.695896 
L 253.740055 165.050568 
L 263.922307 164.467875 
L 274.104559 163.556615 
L 284.286812 162.552751 
L 294.469064 161.964321 
L 304.651316 161.266118 
L 314.833569 161.030779 
L 325.015821 160.494929 
L 335.198073 160.161076 
L 345.380326 159.629977 
L 355.562578 159.091352 
L 365.74483 158.446691 
L 375.927082 157.851264 
L 386.109335 156.938536 
L 396.291587 156.092233 
L 406.473839 155.383501 
L 416.656092 154.67093 
L 426.838344 153.963816 
L 437.020596 153.255646 
L 447.202849 152.348453 
L 457.385101 151.251892 
L 467.567353 150.557612 
L 477.749605 150.121647 
L 487.931858 149.887755 
L 498.11411 149.167336 
L 508.296362 148.53165 
L 518.478615 147.66457 
L 528.660867 147.245571 
L 538.843119 146.602852 
L 549.025372 145.854113 
L 559.207624 145.088857 
L 569.389876 144.500193 
L 579.572128 143.838033 
L 589.754381 143.312188 
L 599.936633 142.788713 
L 610.118885 142.118611 
L 620.301138 141.550752 
L 630.48339 140.959345 
L 640.665642 140.032733 
L 650.847895 139.762618 
L 661.030147 139.673751 
L 671.212399 139.037201 
L 681.394651 138.337405 
L 691.576904 137.604897 
L 701.759156 136.682281 
L 711.941408 136.030454 
L 722.123661 135.509968 
L 732.305913 134.616411 
L 742.488165 133.791684 
L 752.670418 133.133284 
L 762.85267 132.516438 
L 773.034922 131.864678 
L 783.217174 131.403153 
L 793.399427 130.843655 
L 803.581679 130.24061 
L 813.763931 129.640256 
L 823.946184 129.145505 
L 834.128436 128.092811 
L 844.310688 127.774687 
L 854.492941 126.888162 
L 864.675193 125.799968 
L 874.857445 125.019515 
L 885.039697 124.297748 
L 895.22195 123.480155 
L 905.404202 123.063581 
L 915.586454 122.35165 
" clip-path="url(#p1a4868eba2)" style="fill: none; stroke: #5dc694; stroke-width: 1.5; stroke-linecap: square"/>
   </g>
   <g id="patch_3">
    <path d="M 65.8775 228.04 
L 65.8775 17.28 
" style="fill: none; stroke: #000000; stroke-width: 0.8; stroke-linejoin: miter; stroke-linecap: square"/>
   </g>
   <g id="patch_4">
    <path d="M 1062.72 228.04 
L 1062.72 17.28 
" style="fill: none; stroke: #000000; stroke-width: 0.8; stroke-linejoin: miter; stroke-linecap: square"/>
   </g>
   <g id="patch_5">
    <path d="M 65.8775 228.04 
L 1062.72 228.04 
" style="fill: none; stroke: #000000; stroke-width: 0.8; stroke-linejoin: miter; stroke-linecap: square"/>
   </g>
   <g id="patch_6">
    <path d="M 65.8775 17.28 
L 1062.72 17.28 
" style="fill: none; stroke: #000000; stroke-width: 0.8; stroke-linejoin: miter; stroke-linecap: square"/>
   </g>
   <g id="legend_1">
    <g id="patch_7">
     <path d="M 763.8 76.7375 
L 1051.52 76.7375 
Q 1054.72 76.7375 1054.72 73.5375 
L 1054.72 28.48 
Q 1054.72 25.28 1051.52 25.28 
L 763.8 25.28 
Q 760.6 25.28 760.6 28.48 
L 760.6 73.5375 
Q 760.6 76.7375 763.8 76.7375 
z
" style="fill: #ffffff; opacity: 0.8; stroke: #cccccc; stroke-linejoin: miter"/>
    </g>
    <g id="line2d_10">
     <path d="M 767 38.7825 
L 783 38.7825 
L 799 38.7825 
" style="fill: none; stroke: #5dc694; stroke-width: 1.5; stroke-linecap: square"/>
    </g>
    <g id="text_11">
     <!-- Mean Time [Rolling Average (20)] -->
     <g transform="translate(811.8 44.3825) scale(0.16 -0.16)">
      <defs>
       <path id="Bahnschrift-4d" d="M 2494 1544 
L 3828 4544 
L 4425 4544 
L 4425 0 
L 3803 0 
L 3803 3403 
L 3834 3203 
L 2716 631 
L 2272 631 
L 1153 3141 
L 1184 3403 
L 1184 0 
L 563 0 
L 563 4544 
L 1159 4544 
L 2494 1544 
z
" transform="scale(0.015625)"/>
       <path id="Bahnschrift-61" d="M 2331 0 
L 2331 2056 
Q 2331 2375 2161 2551 
Q 1991 2728 1678 2728 
Q 1488 2728 1302 2670 
Q 1116 2613 969 2503 
L 503 2822 
Q 688 3044 989 3167 
Q 1291 3291 1659 3291 
Q 2269 3291 2603 2975 
Q 2938 2659 2938 2084 
L 2938 0 
L 2331 0 
z
M 1538 -47 
Q 941 -47 642 200 
Q 344 447 344 956 
Q 344 1441 617 1680 
Q 891 1919 1438 1919 
L 2359 1919 
L 2403 1406 
L 1441 1406 
Q 1194 1406 1069 1295 
Q 944 1184 944 956 
Q 944 709 1109 590 
Q 1275 472 1606 472 
Q 1969 472 2150 550 
Q 2331 628 2331 794 
L 2397 338 
Q 2313 206 2188 122 
Q 2063 38 1902 -4 
Q 1741 -47 1538 -47 
z
" transform="scale(0.015625)"/>
       <path id="Bahnschrift-6e" d="M 500 0 
L 500 3244 
L 1138 3244 
L 1138 0 
L 500 0 
z
M 2469 0 
L 2469 1966 
Q 2469 2309 2292 2496 
Q 2116 2684 1791 2684 
Q 1478 2684 1308 2518 
Q 1138 2353 1138 2053 
L 1072 2678 
Q 1222 2972 1464 3131 
Q 1706 3291 2000 3291 
Q 2528 3291 2817 2945 
Q 3106 2600 3106 1969 
L 3106 0 
L 2469 0 
z
" transform="scale(0.015625)"/>
       <path id="Bahnschrift-52" d="M 841 1922 
L 841 2528 
L 2391 2528 
Q 2669 2528 2837 2722 
Q 3006 2916 3006 3234 
L 3006 3234 
Q 3006 3553 2837 3747 
Q 2669 3941 2391 3941 
L 841 3941 
L 841 4547 
L 2366 4547 
Q 2763 4547 3059 4383 
Q 3356 4219 3520 3925 
Q 3684 3631 3684 3234 
L 3684 3234 
Q 3684 2841 3518 2545 
Q 3353 2250 3058 2086 
Q 2763 1922 2366 1922 
L 841 1922 
z
M 563 0 
L 563 4547 
L 1200 4547 
L 1200 0 
L 563 0 
z
M 3119 0 
L 2078 2063 
L 2713 2206 
L 3875 0 
L 3119 0 
z
" transform="scale(0.015625)"/>
       <path id="Bahnschrift-6c" d="M 1138 4544 
L 1138 838 
Q 1138 722 1189 656 
Q 1241 591 1334 591 
L 1634 591 
L 1634 -16 
L 1259 -16 
Q 900 -16 700 209 
Q 500 434 500 844 
L 500 4544 
L 1138 4544 
z
" transform="scale(0.015625)"/>
       <path id="Bahnschrift-67" d="M 1588 -1319 
Q 1222 -1319 933 -1183 
Q 644 -1047 484 -800 
L 484 -800 
L 916 -409 
L 916 -409 
Q 1041 -581 1214 -675 
Q 1388 -769 1578 -769 
Q 1944 -769 2144 -567 
Q 2344 -366 2344 3 
L 2344 3244 
L 2981 3244 
L 2981 97 
Q 2981 -578 2617 -948 
Q 2253 -1319 1588 -1319 
z
M 1528 -56 
Q 991 -56 698 289 
Q 406 634 406 1263 
L 406 1978 
Q 406 2609 692 2954 
Q 978 3300 1497 3300 
Q 1784 3300 2023 3150 
Q 2263 3000 2409 2728 
L 2344 2066 
Q 2344 2272 2269 2419 
Q 2194 2566 2051 2642 
Q 1909 2719 1706 2719 
Q 1391 2719 1217 2522 
Q 1044 2325 1044 1969 
L 1044 1263 
Q 1044 909 1217 717 
Q 1391 525 1706 525 
Q 1909 525 2051 604 
Q 2194 684 2269 834 
Q 2344 984 2344 1194 
L 2388 509 
Q 2300 291 2086 117 
Q 1872 -56 1528 -56 
z
" transform="scale(0.015625)"/>
       <path id="Bahnschrift-41" d="M 125 0 
L 1800 4544 
L 2344 4544 
L 4019 0 
L 3331 0 
L 2072 3666 
L 813 0 
L 125 0 
z
M 897 997 
L 897 1603 
L 3288 1603 
L 3288 997 
L 897 997 
z
" transform="scale(0.015625)"/>
       <path id="Bahnschrift-76" d="M 1616 928 
L 2409 3244 
L 3075 3244 
L 1856 0 
L 1375 0 
L 156 3244 
L 822 3244 
L 1616 928 
z
" transform="scale(0.015625)"/>
       <path id="Bahnschrift-28" d="M 1672 -978 
Q 1116 -375 839 373 
Q 563 1122 563 2025 
Q 563 2928 839 3676 
Q 1116 4425 1672 5028 
L 2109 4631 
Q 1638 4106 1403 3456 
Q 1169 2806 1169 2025 
Q 1169 1244 1403 594 
Q 1638 -56 2109 -584 
L 1672 -978 
z
" transform="scale(0.015625)"/>
       <path id="Bahnschrift-29" d="M 500 -978 
L 63 -584 
Q 534 -56 768 594 
Q 1003 1244 1003 2025 
Q 1003 2806 768 3456 
Q 534 4106 63 4631 
L 500 5028 
Q 1056 4425 1332 3676 
Q 1609 2928 1609 2025 
Q 1609 1122 1332 373 
Q 1056 -375 500 -978 
z
" transform="scale(0.015625)"/>
      </defs>
      <use xlink:href="#Bahnschrift-4d"/>
      <use xlink:href="#Bahnschrift-65" x="77.929688"/>
      <use xlink:href="#Bahnschrift-61" x="131.542969"/>
      <use xlink:href="#Bahnschrift-6e" x="184.765625"/>
      <use xlink:href="#Bahnschrift-20" x="240.625"/>
      <use xlink:href="#Bahnschrift-54" x="267.480469"/>
      <use xlink:href="#Bahnschrift-69" x="315.625"/>
      <use xlink:href="#Bahnschrift-6d" x="340.722656"/>
      <use xlink:href="#Bahnschrift-65" x="426.367188"/>
      <use xlink:href="#Bahnschrift-20" x="479.980469"/>
      <use xlink:href="#Bahnschrift-5b" x="506.835938"/>
      <use xlink:href="#Bahnschrift-52" x="536.230469"/>
      <use xlink:href="#Bahnschrift-6f" x="601.416016"/>
      <use xlink:href="#Bahnschrift-6c" x="655.908203"/>
      <use xlink:href="#Bahnschrift-6c" x="684.863281"/>
      <use xlink:href="#Bahnschrift-69" x="713.818359"/>
      <use xlink:href="#Bahnschrift-6e" x="738.916016"/>
      <use xlink:href="#Bahnschrift-67" x="794.775391"/>
      <use xlink:href="#Bahnschrift-20" x="848.681641"/>
      <use xlink:href="#Bahnschrift-41" x="875.537109"/>
      <use xlink:href="#Bahnschrift-76" x="940.283203"/>
      <use xlink:href="#Bahnschrift-65" x="990.283203"/>
      <use xlink:href="#Bahnschrift-72" x="1043.896484"/>
      <use xlink:href="#Bahnschrift-61" x="1086.572266"/>
      <use xlink:href="#Bahnschrift-67" x="1139.794922"/>
      <use xlink:href="#Bahnschrift-65" x="1193.701172"/>
      <use xlink:href="#Bahnschrift-20" x="1247.314453"/>
      <use xlink:href="#Bahnschrift-28" x="1274.169922"/>
      <use xlink:href="#Bahnschrift-32" x="1308.105469"/>
      <use xlink:href="#Bahnschrift-30" x="1359.765625"/>
      <use xlink:href="#Bahnschrift-29" x="1414.941406"/>
      <use xlink:href="#Bahnschrift-5d" x="1448.876953"/>
     </g>
    </g>
    <g id="patch_8">
     <path d="M 767 67.04 
L 799 67.04 
L 799 55.84 
L 767 55.84 
z
" style="fill: #d2dbe0; stroke: #d2dbe0; stroke-linejoin: miter"/>
    </g>
    <g id="text_12">
     <!-- 90% Percentiles -->
     <g transform="translate(811.8 67.04) scale(0.16 -0.16)">
      <defs>
       <path id="Bahnschrift-39" d="M 934 0 
L 2078 2256 
L 2075 2144 
Q 1994 1997 1834 1931 
Q 1675 1866 1466 1866 
Q 975 1866 675 2230 
Q 375 2594 375 3197 
L 375 3200 
Q 375 3863 708 4227 
Q 1041 4591 1644 4591 
Q 2247 4591 2578 4223 
Q 2909 3856 2909 3184 
L 2909 3181 
Q 2909 2903 2828 2579 
Q 2747 2256 2591 1947 
L 1622 0 
L 934 0 
z
M 1644 2447 
Q 1944 2447 2108 2650 
Q 2272 2853 2272 3222 
L 2272 3225 
Q 2272 3584 2108 3781 
Q 1944 3978 1644 3978 
Q 1341 3978 1177 3781 
Q 1013 3584 1013 3222 
L 1013 3219 
Q 1013 2850 1177 2648 
Q 1341 2447 1644 2447 
z
" transform="scale(0.015625)"/>
       <path id="Bahnschrift-25" d="M 666 0 
L 3134 4544 
L 3694 4544 
L 1225 0 
L 666 0 
z
M 3328 -47 
Q 2966 -47 2769 164 
Q 2572 375 2572 753 
L 2572 1144 
Q 2572 1522 2769 1733 
Q 2966 1944 3328 1944 
Q 3691 1944 3887 1731 
Q 4084 1519 4084 1138 
L 4084 753 
Q 4084 375 3887 164 
Q 3691 -47 3328 -47 
z
M 3328 450 
Q 3563 450 3563 722 
L 3563 1181 
Q 3563 1444 3328 1444 
Q 3094 1444 3094 1178 
L 3094 722 
Q 3094 450 3328 450 
z
M 1069 2597 
Q 706 2597 509 2808 
Q 313 3019 313 3397 
L 313 3788 
Q 313 4166 509 4377 
Q 706 4588 1069 4588 
Q 1431 4588 1628 4375 
Q 1825 4163 1825 3781 
L 1825 3397 
Q 1825 3019 1628 2808 
Q 1431 2597 1069 2597 
z
M 1069 3094 
Q 1303 3094 1303 3366 
L 1303 3825 
Q 1303 4088 1069 4088 
Q 834 4088 834 3822 
L 834 3366 
Q 834 3094 1069 3094 
z
" transform="scale(0.015625)"/>
       <path id="Bahnschrift-50" d="M 891 1763 
L 891 2369 
L 2344 2369 
Q 2656 2369 2845 2584 
Q 3034 2800 3034 3150 
L 3034 3150 
Q 3034 3506 2845 3722 
Q 2656 3938 2344 3938 
L 891 3938 
L 891 4544 
L 2322 4544 
Q 2734 4544 3040 4370 
Q 3347 4197 3517 3884 
Q 3688 3572 3688 3150 
L 3688 3150 
Q 3688 2731 3517 2418 
Q 3347 2106 3040 1934 
Q 2734 1763 2322 1763 
L 891 1763 
z
M 563 0 
L 563 4544 
L 1200 4544 
L 1200 0 
L 563 0 
z
" transform="scale(0.015625)"/>
       <path id="Bahnschrift-63" d="M 1809 -47 
Q 1141 -47 773 322 
Q 406 691 406 1363 
L 406 1897 
Q 406 2563 773 2927 
Q 1141 3291 1809 3291 
Q 2191 3291 2497 3156 
Q 2803 3022 2984 2772 
L 2984 2772 
L 2525 2359 
L 2525 2359 
Q 2391 2516 2206 2600 
Q 2022 2684 1819 2684 
Q 1450 2684 1247 2478 
Q 1044 2272 1044 1897 
L 1044 1363 
Q 1044 978 1247 768 
Q 1450 559 1819 559 
Q 2022 559 2206 650 
Q 2391 741 2525 906 
L 2525 906 
L 2984 463 
L 2984 463 
Q 2803 219 2495 86 
Q 2188 -47 1809 -47 
z
" transform="scale(0.015625)"/>
      </defs>
      <use xlink:href="#Bahnschrift-39"/>
      <use xlink:href="#Bahnschrift-30" x="51.318359"/>
      <use xlink:href="#Bahnschrift-25" x="106.494141"/>
      <use xlink:href="#Bahnschrift-20" x="175.195312"/>
      <use xlink:href="#Bahnschrift-50" x="202.050781"/>
      <use xlink:href="#Bahnschrift-65" x="264.306641"/>
      <use xlink:href="#Bahnschrift-72" x="317.919922"/>
      <use xlink:href="#Bahnschrift-63" x="360.595703"/>
      <use xlink:href="#Bahnschrift-65" x="410.400391"/>
      <use xlink:href="#Bahnschrift-6e" x="464.013672"/>
      <use xlink:href="#Bahnschrift-74" x="519.873047"/>
      <use xlink:href="#Bahnschrift-69" x="552.490234"/>
      <use xlink:href="#Bahnschrift-6c" x="577.587891"/>
      <use xlink:href="#Bahnschrift-65" x="606.542969"/>
      <use xlink:href="#Bahnschrift-73" x="660.15625"/>
     </g>
    </g>
   </g>
  </g>
 </g>
 <defs>
  <clipPath id="p1a4868eba2">
   <rect x="65.8775" y="17.28" width="996.8425" height="210.76"/>
  </clipPath>
 </defs>
</svg>
