<?xml version="1.0" encoding="utf-8" standalone="no"?>
<!DOCTYPE svg PUBLIC "-//W3C//DTD SVG 1.1//EN"
  "http://www.w3.org/Graphics/SVG/1.1/DTD/svg11.dtd">
<svg xmlns:xlink="http://www.w3.org/1999/xlink" width="1080pt" height="288pt" viewBox="0 0 1080 288" xmlns="http://www.w3.org/2000/svg" version="1.1">
 <metadata>
  <rdf:RDF xmlns:dc="http://purl.org/dc/elements/1.1/" xmlns:cc="http://creativecommons.org/ns#" xmlns:rdf="http://www.w3.org/1999/02/22-rdf-syntax-ns#">
   <cc:Work>
    <dc:type rdf:resource="http://purl.org/dc/dcmitype/StillImage"/>
    <dc:date>2024-05-29T19:40:58.931373</dc:date>
    <dc:format>image/svg+xml</dc:format>
    <dc:creator>
     <cc:Agent>
      <dc:title>Matplotlib v3.8.2, https://matplotlib.org/</dc:title>
     </cc:Agent>
    </dc:creator>
   </cc:Work>
  </rdf:RDF>
 </metadata>
 <defs>
  <style type="text/css">*{stroke-linejoin: round; stroke-linecap: butt}</style>
 </defs>
 <g id="figure_1">
  <g id="patch_1">
   <path d="M 0 288 
L 1080 288 
L 1080 0 
L 0 0 
z
" style="fill: #ffffff"/>
  </g>
  <g id="axes_1">
   <g id="patch_2">
    <path d="M 74.6975 228.04 
L 1062.72 228.04 
L 1062.72 17.28 
L 74.6975 17.28 
z
" style="fill: #ffffff"/>
   </g>
   <g id="PolyCollection_1">
    <defs>
     <path id="m2c63e983be" d="M 119.607614 -121.983085 
L 119.607614 -69.54 
L 121.407618 -72.439355 
L 123.207623 -74.013268 
L 125.007627 -77.868342 
L 126.807632 -84.551157 
L 128.607636 -81.542131 
L 130.407641 -76.310767 
L 132.207646 -78.329819 
L 134.00765 -94.874689 
L 135.807655 -76.54414 
L 137.607659 -78.232176 
L 139.407664 -80.68028 
L 141.207668 -79.587226 
L 143.007673 -84.13636 
L 144.807677 -84.175237 
L 146.607682 -83.396013 
L 148.407687 -83.704773 
L 150.207691 -85.634521 
L 152.007696 -85.314492 
L 153.8077 -85.654241 
L 155.607705 -85.015311 
L 157.407709 -87.215505 
L 159.207714 -85.331959 
L 161.007718 -87.91923 
L 162.807723 -85.899896 
L 164.607728 -88.263485 
L 166.407732 -88.415611 
L 168.207737 -83.358263 
L 170.007741 -87.878663 
L 171.807746 -85.080106 
L 173.60775 -85.460421 
L 175.407755 -84.727398 
L 177.207759 -86.897167 
L 179.007764 -86.211473 
L 180.807768 -87.898383 
L 182.607773 -85.224907 
L 184.407778 -88.526044 
L 186.207782 -86.610382 
L 188.007787 -87.340023 
L 189.807791 -88.612812 
L 191.607796 -87.001965 
L 193.4078 -88.084315 
L 195.207805 -88.720427 
L 197.007809 -86.590662 
L 198.807814 -88.608868 
L 200.607819 -88.519283 
L 202.407823 -87.331009 
L 204.207828 -87.607653 
L 206.007832 -86.840824 
L 207.807837 -86.239645 
L 209.607841 -96.223062 
L 211.407846 -97.712771 
L 213.20785 -99.461658 
L 215.007855 -99.622799 
L 216.80786 -99.407005 
L 218.607864 -99.818873 
L 220.407869 -99.569837 
L 222.207873 -99.86113 
L 224.007878 -98.869493 
L 225.807882 -99.235722 
L 227.607887 -99.646463 
L 229.407891 -101.012781 
L 231.207896 -99.702243 
L 233.007901 -99.981704 
L 234.807905 -102.533479 
L 236.60791 -97.810244 
L 238.407914 -98.44354 
L 240.207919 -99.522508 
L 242.007923 -100.038047 
L 243.807928 -99.545609 
L 245.607932 -102.09513 
L 247.407937 -99.627306 
L 249.207942 -102.379099 
L 251.007946 -99.785067 
L 252.807951 -101.362108 
L 254.607955 -99.590683 
L 256.40796 -100.304549 
L 258.207964 -101.453947 
L 260.007969 -101.071941 
L 261.807973 -101.211672 
L 263.607978 -101.253929 
L 265.407983 -102.003291 
L 267.207987 -102.006108 
L 269.007992 -101.295623 
L 270.807996 -100.231303 
L 272.608001 -100.972214 
L 274.408005 -102.673773 
L 276.20801 -101.759889 
L 278.008014 -100.605984 
L 279.808019 -103.499198 
L 281.608024 -101.601565 
L 283.408028 -101.859616 
L 285.208033 -103.555541 
L 287.008037 -94.302892 
L 288.808042 -100.898968 
L 290.608046 -101.62861 
L 292.408051 -100.942916 
L 294.208055 -102.605034 
L 296.00806 -103.072118 
L 297.808065 -105.577691 
L 299.608069 -95.27988 
L 301.408074 -95.814012 
L 303.208078 -103.277206 
L 305.008083 -102.763358 
L 306.808087 -102.177954 
L 308.608092 -102.881678 
L 310.408096 -103.982621 
L 312.208101 -104.657047 
L 314.008106 -104.783818 
L 315.80811 -101.995403 
L 317.608115 -102.476009 
L 319.408119 -103.495254 
L 321.208124 -106.166476 
L 323.008128 -103.779786 
L 324.808133 -106.130416 
L 326.608137 -96.703668 
L 328.408142 -106.126472 
L 330.208147 -97.036091 
L 332.008151 -98.517349 
L 333.808156 -104.256448 
L 335.60816 -104.220952 
L 337.408165 -103.418064 
L 339.208169 -106.236341 
L 341.008174 -103.994453 
L 342.808178 -106.845972 
L 344.608183 -105.710661 
L 346.408188 -105.320204 
L 348.208192 -105.763623 
L 350.008197 -109.618612 
L 351.808201 -107.899587 
L 353.608206 -106.811603 
L 355.40821 -104.7348 
L 357.208215 -104.709446 
L 359.008219 -106.230707 
L 360.808224 -105.920257 
L 362.608229 -107.215019 
L 364.408233 -106.449318 
L 366.208238 -103.32059 
L 368.008242 -106.738921 
L 369.808247 -106.596373 
L 371.608251 -108.877701 
L 373.408256 -107.665763 
L 375.20826 -106.070693 
L 377.008265 -106.307897 
L 378.808269 -106.551298 
L 380.608274 -105.776582 
L 382.408279 -106.182815 
L 384.208283 -108.139608 
L 386.008288 -106.607078 
L 387.808292 -108.881645 
L 389.608297 -107.832538 
L 391.408301 -108.413435 
L 393.208306 -106.100554 
L 395.00831 -108.369487 
L 396.808315 -108.163272 
L 398.60832 -108.321596 
L 400.408324 -110.045128 
L 402.208329 -109.827081 
L 404.008333 -105.449793 
L 405.808338 -110.481787 
L 407.608342 -110.806886 
L 409.408347 -107.112475 
L 411.208351 -108.69853 
L 413.008356 -110.228243 
L 414.808361 -109.259143 
L 416.608365 -108.836571 
L 418.40837 -111.70443 
L 420.208374 -108.414562 
L 422.008379 -112.107846 
L 423.808383 -109.736369 
L 425.608388 -109.280554 
L 427.408392 -110.274444 
L 429.208397 -108.838825 
L 431.008402 -111.606393 
L 432.808406 -114.699624 
L 434.608411 -109.576918 
L 436.408415 -110.115557 
L 438.20842 -110.338675 
L 440.008424 -107.064583 
L 441.808429 -108.553729 
L 443.608433 -111.482438 
L 445.408438 -109.654108 
L 447.208443 -110.081188 
L 449.008447 -112.417732 
L 450.808452 -110.422063 
L 452.608456 -111.564699 
L 454.408461 -109.713268 
L 456.208465 -110.256978 
L 458.00847 -110.917881 
L 459.808474 -111.009157 
L 461.608479 -111.960227 
L 463.408484 -112.004738 
L 465.208488 -112.701138 
L 467.008493 -110.65476 
L 468.808497 -111.797396 
L 470.608502 -111.821623 
L 472.408506 -105.188925 
L 474.208511 -109.08448 
L 476.008515 -112.176584 
L 477.80852 -110.645745 
L 479.608525 -114.330577 
L 481.408529 -111.00634 
L 483.208534 -112.905099 
L 485.008538 -112.569295 
L 486.808543 -109.562269 
L 488.608547 -115.699149 
L 490.408552 -112.747902 
L 492.208556 -112.768749 
L 494.008561 -112.453792 
L 495.808566 -110.971971 
L 497.60857 -113.810531 
L 499.408575 -113.41613 
L 501.208579 -115.080503 
L 503.008584 -109.191532 
L 504.808588 -112.145032 
L 506.608593 -114.009986 
L 508.408597 -114.002098 
L 510.208602 -115.560545 
L 512.008607 -111.206921 
L 513.808611 -113.806024 
L 515.608616 -112.533799 
L 517.40862 -113.925471 
L 519.208625 -117.787221 
L 521.008629 -116.855871 
L 522.808634 -111.5123 
L 524.608638 -113.382888 
L 526.408643 -115.367852 
L 528.208648 -112.901155 
L 530.008652 -115.132902 
L 531.808657 -106.241975 
L 533.608661 -114.282686 
L 535.408666 -115.561109 
L 537.20867 -111.046344 
L 539.008675 -114.629759 
L 540.808679 -115.870995 
L 542.608684 -106.494955 
L 544.408689 -108.226939 
L 546.208693 -117.460995 
L 548.008698 -112.734943 
L 549.808702 -113.710241 
L 551.608707 -107.542935 
L 553.408711 -108.531755 
L 555.208716 -111.729221 
L 557.00872 -113.371619 
L 558.808725 -114.100134 
L 560.60873 -115.337427 
L 562.408734 -113.797573 
L 564.208739 -114.950914 
L 566.008743 -110.059214 
L 567.808748 -113.444865 
L 569.608752 -115.287282 
L 571.408757 -109.982024 
L 573.208761 -112.705645 
L 575.008766 -114.910347 
L 576.80877 -113.917583 
L 578.608775 -114.742445 
L 580.40878 -112.296031 
L 582.208784 -118.049216 
L 584.008789 -110.054707 
L 585.808793 -114.779068 
L 587.608798 -109.302527 
L 589.408802 -113.594174 
L 591.208807 -110.152743 
L 593.008811 -108.428084 
L 594.808816 -118.147253 
L 596.608821 -116.273284 
L 598.408825 -116.570775 
L 600.20883 -117.053635 
L 602.008834 -111.039019 
L 603.808839 -116.26934 
L 605.608843 -118.177114 
L 607.408848 -121.227525 
L 609.208852 -116.478373 
L 611.008857 -116.86714 
L 612.808862 -115.68619 
L 614.608866 -118.25036 
L 616.408871 -115.572377 
L 618.208875 -117.067157 
L 620.00888 -116.671629 
L 621.808884 -116.097494 
L 623.608889 -119.051558 
L 625.408893 -119.166498 
L 627.208898 -117.699326 
L 629.008903 -115.281084 
L 630.808907 -115.532374 
L 632.608912 -116.6536 
L 634.408916 -119.12255 
L 636.208921 -119.402575 
L 638.008925 -119.985162 
L 639.80893 -119.492724 
L 641.608934 -119.870222 
L 643.408939 -116.548802 
L 645.208944 -117.961321 
L 647.008948 -115.416871 
L 648.808953 -116.651346 
L 650.608957 -118.161338 
L 652.408962 -119.52991 
L 654.208966 -121.093428 
L 656.008971 -121.21682 
L 657.808975 -118.668989 
L 659.60898 -121.761093 
L 661.408985 -119.944031 
L 663.208989 -118.902812 
L 665.008994 -117.856523 
L 666.808998 -119.6826 
L 668.609003 -118.628985 
L 670.409007 -120.578453 
L 672.209012 -120.877071 
L 674.009016 -118.63631 
L 675.809021 -117.02659 
L 677.609026 -117.725244 
L 679.40903 -121.248935 
L 681.209035 -121.112022 
L 683.009039 -120.125456 
L 684.809044 -120.721565 
L 686.609048 -122.632719 
L 688.409053 -122.989371 
L 690.209057 -122.563417 
L 692.009062 -120.136724 
L 693.809067 -123.311653 
L 695.609071 -121.004406 
L 697.409076 -121.716582 
L 699.20908 -123.979317 
L 701.009085 -124.092003 
L 702.809089 -122.680048 
L 704.609094 -120.413368 
L 706.409098 -122.682301 
L 708.209103 -121.442192 
L 710.009108 -122.975285 
L 711.809112 -122.548768 
L 713.609117 -123.208545 
L 715.409121 -120.801572 
L 717.209126 -122.829356 
L 719.00913 -120.964966 
L 720.809135 -123.106564 
L 722.609139 -120.201519 
L 724.409144 -117.463249 
L 726.209149 -120.520984 
L 728.009153 -115.962271 
L 729.809158 -117.263794 
L 731.609162 -125.523679 
L 733.409167 -121.423598 
L 735.209171 -121.705313 
L 737.009176 -117.147164 
L 738.80918 -123.088534 
L 740.609185 -121.855749 
L 742.40919 -122.211837 
L 744.209194 -122.823159 
L 746.009199 -121.841664 
L 747.809203 -116.015233 
L 749.609208 -122.948804 
L 751.409212 -122.778648 
L 753.209217 -120.96722 
L 755.009221 -124.335968 
L 756.809226 -122.340299 
L 758.609231 -123.380391 
L 760.409235 -119.270732 
L 762.20924 -123.19953 
L 764.009244 -124.106089 
L 765.809249 -122.052386 
L 767.609253 -122.384247 
L 769.409258 -123.907198 
L 771.209262 -125.129278 
L 773.009267 -122.673286 
L 774.809271 -124.92588 
L 776.609276 -124.236241 
L 778.409281 -123.877336 
L 780.209285 -124.324136 
L 782.00929 -127.594848 
L 783.809294 -125.867935 
L 785.609299 -125.360284 
L 787.409303 -124.90954 
L 789.209308 -126.311918 
L 791.009312 -122.781465 
L 792.809317 -125.355213 
L 794.609322 -125.967099 
L 796.409326 -124.7715 
L 798.209331 -126.579547 
L 800.009335 -125.758066 
L 801.80934 -126.237545 
L 803.609344 -125.703977 
L 805.409349 -128.77129 
L 807.209353 -128.985957 
L 809.009358 -126.849993 
L 810.809363 -126.75083 
L 812.609367 -123.999601 
L 814.409372 -124.954615 
L 816.209376 -124.923063 
L 818.009381 -123.66267 
L 819.809385 -127.527236 
L 821.60939 -127.605553 
L 823.409394 -125.807084 
L 825.209399 -125.613264 
L 827.009404 -125.835819 
L 828.809408 -126.721531 
L 830.609413 -126.624058 
L 832.409417 -128.237158 
L 834.209422 -125.663973 
L 836.009426 -126.719278 
L 837.809431 -125.558048 
L 839.609435 -126.005412 
L 841.40944 -125.578332 
L 843.209445 -129.645733 
L 845.009449 -125.419444 
L 846.809454 -128.88623 
L 848.609458 -125.572697 
L 850.409463 -128.357732 
L 852.209467 -123.953963 
L 854.009472 -122.741461 
L 855.809476 -126.151904 
L 857.609481 -128.147009 
L 859.409486 -128.678887 
L 861.20949 -128.865383 
L 863.009495 -129.524596 
L 864.809499 -121.759966 
L 866.609504 -127.076492 
L 868.409508 -130.312271 
L 870.209513 -129.164564 
L 872.009517 -128.896371 
L 873.809522 -127.135652 
L 875.609527 -130.251421 
L 877.409531 -126.28769 
L 879.209536 -131.775499 
L 881.00954 -126.874784 
L 882.809545 -128.587048 
L 884.609549 -127.894029 
L 886.409554 -125.611574 
L 888.209558 -126.950847 
L 890.009563 -126.90521 
L 891.809568 -127.507516 
L 893.609572 -129.962945 
L 895.409577 -129.125687 
L 897.209581 -124.213141 
L 899.009586 -128.647335 
L 900.80959 -128.675507 
L 902.609595 -130.203529 
L 904.409599 -131.270666 
L 906.209604 -128.263076 
L 908.009609 -130.378756 
L 909.809613 -130.279029 
L 911.609618 -128.872707 
L 913.409622 -128.477743 
L 915.209627 -129.0654 
L 917.009631 -127.717676 
L 918.809636 -126.326567 
L 920.60964 -129.956183 
L 922.409645 -129.398951 
L 924.20965 -130.641878 
L 926.009654 -129.265418 
L 927.809659 -130.688642 
L 929.609663 -129.62376 
L 931.409668 -130.857671 
L 933.209672 -129.516145 
L 935.009677 -128.072637 
L 936.809681 -128.081652 
L 938.609686 -129.1409 
L 940.409691 -128.48225 
L 942.209695 -130.402983 
L 944.0097 -131.949036 
L 945.809704 -126.185146 
L 947.609709 -127.415677 
L 949.409713 -133.436491 
L 951.209718 -129.8373 
L 953.009722 -131.969319 
L 954.809727 -131.737186 
L 956.609732 -132.69558 
L 958.409736 -132.221172 
L 960.209741 -130.175921 
L 962.009745 -129.170198 
L 963.80975 -132.38513 
L 965.609754 -134.84732 
L 967.409759 -130.947257 
L 969.209763 -128.744809 
L 971.009768 -132.693327 
L 972.809772 -131.777189 
L 974.609777 -132.292728 
L 976.409782 -134.417986 
L 978.209786 -130.80978 
L 980.009791 -132.523171 
L 981.809795 -132.647689 
L 983.6098 -135.296374 
L 985.409804 -132.655013 
L 987.209809 -135.205098 
L 989.009813 -130.986697 
L 990.809818 -130.227757 
L 992.609823 -132.234695 
L 994.409827 -133.798213 
L 996.209832 -132.571626 
L 998.009836 -135.983758 
L 999.809841 -129.737573 
L 1001.609845 -130.880406 
L 1003.40985 -127.916257 
L 1005.209854 -130.483892 
L 1007.009859 -132.28315 
L 1008.809864 -131.799135 
L 1010.609868 -132.25495 
L 1012.409873 -134.920904 
L 1014.209877 -133.442069 
L 1016.009882 -132.074286 
L 1017.809886 -135.357393 
L 1017.809886 -216.748078 
L 1017.809886 -216.748078 
L 1016.009882 -213.377639 
L 1014.209877 -231.32176 
L 1012.409873 -211.028699 
L 1010.609868 -221.657807 
L 1008.809864 -215.005952 
L 1007.009859 -220.050341 
L 1005.209854 -226.404705 
L 1003.40985 -220.357974 
L 1001.609845 -231.463181 
L 999.809841 -230.533042 
L 998.009836 -223.404384 
L 996.209832 -228.192723 
L 994.409827 -235.016875 
L 992.609823 -216.429035 
L 990.809818 -221.439168 
L 989.009813 -209.44053 
L 987.209809 -239.740588 
L 985.409804 -206.878868 
L 983.6098 -212.157109 
L 981.809795 -234.027351 
L 980.009791 -204.933146 
L 978.209786 -261.14 
L 976.409782 -206.746264 
L 974.609777 -202.239472 
L 972.809772 -220.157449 
L 971.009768 -209.365566 
L 969.209763 -220.628167 
L 967.409759 -211.69025 
L 965.609754 -244.673587 
L 963.80975 -215.202645 
L 962.009745 -210.979568 
L 960.209741 -216.704862 
L 958.409736 -224.320549 
L 956.609732 -224.266404 
L 954.809727 -221.009074 
L 953.009722 -222.58772 
L 951.209718 -215.19656 
L 949.409713 -207.187458 
L 947.609709 -210.739011 
L 945.809704 -214.128888 
L 944.0097 -242.179789 
L 942.209695 -233.644049 
L 940.409691 -222.315415 
L 938.609686 -226.119384 
L 936.809681 -230.559974 
L 935.009677 -223.214424 
L 933.209672 -218.756593 
L 931.409668 -217.937929 
L 929.609663 -232.330553 
L 927.809659 -214.141706 
L 926.009654 -224.640944 
L 924.20965 -203.276634 
L 922.409645 -229.602087 
L 920.60964 -212.067805 
L 918.809636 -210.624466 
L 917.009631 -208.686436 
L 915.209627 -208.033477 
L 913.409622 -212.120908 
L 911.609618 -188.167749 
L 909.809613 -197.656165 
L 908.009609 -218.534771 
L 906.209604 -205.411048 
L 904.409599 -200.245042 
L 902.609595 -198.680735 
L 900.80959 -204.81415 
L 899.009586 -211.157386 
L 897.209581 -226.173558 
L 895.409577 -217.380922 
L 893.609572 -226.86731 
L 891.809568 -207.655077 
L 890.009563 -216.142334 
L 888.209558 -211.77437 
L 886.409554 -217.486622 
L 884.609549 -214.929241 
L 882.809545 -218.241843 
L 881.00954 -227.204241 
L 879.209536 -228.014256 
L 877.409531 -200.306005 
L 875.609527 -202.618547 
L 873.809522 -213.714035 
L 872.009517 -215.076747 
L 870.209513 -198.011183 
L 868.409508 -231.675143 
L 866.609504 -225.836796 
L 864.809499 -226.356673 
L 863.009495 -207.674994 
L 861.20949 -206.017411 
L 859.409486 -216.623588 
L 857.609481 -206.271715 
L 855.809476 -212.824041 
L 854.009472 -216.100358 
L 852.209467 -210.466227 
L 850.409463 -200.862054 
L 848.609458 -210.613479 
L 846.809454 -197.822574 
L 845.009449 -212.753556 
L 843.209445 -209.72602 
L 841.40944 -206.687132 
L 839.609435 -219.24165 
L 837.809431 -193.134414 
L 836.009426 -217.538598 
L 834.209422 -200.966486 
L 832.409417 -216.474082 
L 830.609413 -211.130905 
L 828.809408 -208.748807 
L 827.009404 -199.952255 
L 825.209399 -225.410702 
L 823.409394 -194.68241 
L 821.60939 -220.543765 
L 819.809385 -211.662924 
L 818.009381 -213.967635 
L 816.209376 -210.92731 
L 814.409372 -217.294661 
L 812.609367 -206.739616 
L 810.809363 -208.635924 
L 809.009358 -210.057599 
L 807.209353 -223.562032 
L 805.409349 -203.298889 
L 803.609344 -220.038988 
L 801.80934 -206.962142 
L 800.009335 -231.355791 
L 798.209331 -217.472311 
L 796.409326 -217.244093 
L 794.609322 -197.616331 
L 792.809317 -203.721405 
L 791.009312 -194.880399 
L 789.209308 -204.553141 
L 787.409303 -198.198551 
L 785.609299 -202.023819 
L 783.809294 -200.273664 
L 782.00929 -196.577535 
L 780.209285 -216.502169 
L 778.409281 -208.190899 
L 776.609276 -201.316207 
L 774.809271 -193.225971 
L 773.009267 -203.401603 
L 771.209262 -214.648596 
L 769.409258 -202.00469 
L 767.609253 -198.128573 
L 765.809249 -219.216465 
L 764.009244 -224.30421 
L 762.20924 -225.540883 
L 760.409235 -197.489334 
L 758.609231 -199.149255 
L 756.809226 -191.916334 
L 755.009221 -228.603632 
L 753.209217 -184.62445 
L 751.409212 -224.297449 
L 749.609208 -210.210486 
L 747.809203 -207.980317 
L 746.009199 -207.278847 
L 744.209194 -207.453707 
L 742.40919 -209.147152 
L 740.609185 -203.169047 
L 738.80918 -204.790063 
L 737.009176 -224.350749 
L 735.209171 -209.758784 
L 733.409167 -199.620761 
L 731.609162 -193.390464 
L 729.809158 -194.96573 
L 728.009153 -181.671908 
L 726.209149 -196.895563 
L 724.409144 -178.978909 
L 722.609139 -197.645516 
L 720.809135 -190.624305 
L 719.00913 -187.592206 
L 717.209126 -213.587601 
L 715.409121 -192.419731 
L 713.609117 -203.832035 
L 711.809112 -204.233507 
L 710.009108 -203.339287 
L 708.209103 -227.48204 
L 706.409098 -218.064307 
L 704.609094 -217.415742 
L 702.809089 -191.414374 
L 701.009085 -217.649763 
L 699.20908 -207.147877 
L 697.409076 -205.067074 
L 695.609071 -197.919203 
L 693.809067 -206.319241 
L 692.009062 -187.747571 
L 690.209057 -203.091688 
L 688.409053 -219.236805 
L 686.609048 -203.835782 
L 684.809044 -220.088373 
L 683.009039 -220.300645 
L 681.209035 -192.649864 
L 679.40903 -221.119985 
L 677.609026 -194.212791 
L 675.809021 -185.995755 
L 674.009016 -210.999175 
L 672.209012 -196.574098 
L 670.409007 -187.653366 
L 668.609003 -202.031341 
L 666.808998 -208.438104 
L 665.008994 -213.209483 
L 663.208989 -196.649597 
L 661.408985 -208.943472 
L 659.60898 -203.103069 
L 657.808975 -216.386158 
L 656.008971 -195.029623 
L 654.208966 -194.288121 
L 652.408962 -190.162123 
L 650.608957 -189.127102 
L 648.808953 -198.398879 
L 647.008948 -204.710028 
L 645.208944 -194.322631 
L 643.408939 -201.051874 
L 641.608934 -192.72187 
L 639.80893 -192.449931 
L 638.008925 -205.188944 
L 636.208921 -218.006161 
L 634.408916 -232.315932 
L 632.608912 -193.63026 
L 630.808907 -205.70282 
L 629.008903 -190.566891 
L 627.208898 -181.534938 
L 625.408893 -190.515563 
L 623.608889 -182.813981 
L 621.808884 -176.377017 
L 620.00888 -195.08529 
L 618.208875 -186.66973 
L 616.408871 -194.277303 
L 614.608866 -222.213546 
L 612.808862 -190.384537 
L 611.008857 -194.504619 
L 609.208852 -195.270856 
L 607.408848 -207.346205 
L 605.608843 -202.620041 
L 603.808839 -193.880141 
L 602.008834 -185.147201 
L 600.20883 -196.094563 
L 598.408825 -202.324014 
L 596.608821 -191.948055 
L 594.808816 -193.795345 
L 593.008811 -196.304356 
L 591.208807 -199.76731 
L 589.408802 -204.010361 
L 587.608798 -180.172705 
L 585.808793 -196.105803 
L 584.008789 -185.19667 
L 582.208784 -186.180757 
L 580.40878 -196.861053 
L 578.608775 -197.659715 
L 576.80877 -238.896288 
L 575.008766 -198.827001 
L 573.208761 -213.548048 
L 571.408757 -187.176338 
L 569.608752 -205.464179 
L 567.808748 -198.110008 
L 566.008743 -209.909192 
L 564.208739 -210.926352 
L 562.408734 -180.608096 
L 560.60873 -187.590374 
L 558.808725 -182.005571 
L 557.00872 -189.49643 
L 555.208716 -188.814539 
L 553.408711 -188.662413 
L 551.608707 -198.59053 
L 549.808702 -184.751081 
L 548.008698 -195.69264 
L 546.208693 -209.492958 
L 544.408689 -203.351598 
L 542.608684 -200.029164 
L 540.808679 -206.643917 
L 539.008675 -209.601841 
L 537.20867 -196.93258 
L 535.408666 -209.045003 
L 533.608661 -183.810998 
L 531.808657 -186.544141 
L 530.008652 -186.01477 
L 528.208648 -212.824632 
L 526.408643 -194.584119 
L 524.608638 -192.454692 
L 522.808634 -209.486704 
L 521.008629 -200.422213 
L 519.208625 -204.561226 
L 517.40862 -195.391543 
L 515.608616 -176.24864 
L 513.808611 -181.396588 
L 512.008607 -185.043868 
L 510.208602 -175.874043 
L 508.408597 -192.576364 
L 506.608593 -192.432746 
L 504.808588 -190.906977 
L 503.008584 -181.705995 
L 501.208579 -188.057571 
L 499.408575 -186.325812 
L 497.60857 -192.692346 
L 495.808566 -192.617128 
L 494.008561 -195.471916 
L 492.208556 -191.505087 
L 490.408552 -181.604296 
L 488.608547 -200.045137 
L 486.808543 -191.127166 
L 485.008538 -177.821455 
L 483.208534 -170.746351 
L 481.408529 -187.659141 
L 479.608525 -181.2679 
L 477.80852 -169.408993 
L 476.008515 -193.619302 
L 474.208511 -181.707348 
L 472.408506 -183.696735 
L 470.608502 -193.785232 
L 468.808497 -177.062853 
L 467.008493 -176.99372 
L 465.208488 -194.658858 
L 463.408484 -170.782213 
L 461.608479 -172.431655 
L 459.808474 -180.112587 
L 458.00847 -184.479649 
L 456.208465 -175.4786 
L 454.408461 -180.516425 
L 452.608456 -193.509348 
L 450.808452 -174.85339 
L 449.008447 -180.251134 
L 447.208443 -181.329032 
L 445.408438 -206.409784 
L 443.608433 -187.141602 
L 441.808429 -181.774818 
L 440.008424 -183.305292 
L 438.20842 -190.316249 
L 436.408415 -179.881496 
L 434.608411 -185.764664 
L 432.808406 -198.461138 
L 431.008402 -187.209355 
L 429.208397 -182.500037 
L 427.408392 -173.771322 
L 425.608388 -190.752175 
L 423.808383 -194.353676 
L 422.008379 -185.746099 
L 420.208374 -189.369489 
L 418.40837 -173.845216 
L 416.608365 -171.503854 
L 414.808361 -176.652957 
L 413.008356 -178.065307 
L 411.208351 -189.221505 
L 409.408347 -171.041391 
L 407.608342 -169.879767 
L 405.808338 -178.621131 
L 404.008333 -178.462357 
L 402.208329 -200.78016 
L 400.408324 -177.407841 
L 398.60832 -167.239985 
L 396.808315 -166.077995 
L 395.00831 -175.362815 
L 393.208306 -174.176908 
L 391.408301 -179.929472 
L 389.608297 -184.537992 
L 387.808292 -174.002103 
L 386.008288 -173.813242 
L 384.208283 -176.112149 
L 382.408279 -167.909931 
L 380.608274 -172.482082 
L 378.808269 -177.827653 
L 377.008265 -189.908185 
L 375.20826 -172.119881 
L 373.408256 -192.065108 
L 371.608251 -172.547862 
L 369.808247 -171.620428 
L 368.008242 -174.288636 
L 366.208238 -172.252118 
L 364.408233 -183.678733 
L 362.608229 -167.30168 
L 360.808224 -161.896189 
L 359.008219 -164.934204 
L 357.208215 -177.904223 
L 355.40821 -184.583574 
L 353.608206 -181.322976 
L 351.808201 -158.823213 
L 350.008197 -168.415018 
L 348.208192 -177.706994 
L 346.408188 -178.096803 
L 344.608183 -166.123943 
L 342.808178 -161.308897 
L 341.008174 -170.585971 
L 339.208169 -169.111812 
L 337.408165 -162.018707 
L 335.60816 -167.849898 
L 333.808156 -167.461638 
L 332.008151 -168.236946 
L 330.208147 -179.696156 
L 328.408142 -167.482175 
L 326.608137 -171.919835 
L 324.808133 -177.628114 
L 323.008128 -181.162285 
L 321.208124 -167.736677 
L 319.408119 -178.175064 
L 317.608115 -167.889282 
L 315.80811 -158.772927 
L 314.008106 -162.459619 
L 312.208101 -159.570913 
L 310.408096 -161.638363 
L 308.608092 -154.930362 
L 306.808087 -159.830119 
L 305.008083 -155.332228 
L 303.208078 -154.753501 
L 301.408074 -159.52181 
L 299.608069 -152.215108 
L 297.808065 -159.609057 
L 296.00806 -154.578105 
L 294.208055 -152.974245 
L 292.408051 -155.346145 
L 290.608046 -161.321941 
L 288.808042 -148.484891 
L 287.008037 -161.469503 
L 285.208033 -161.908359 
L 283.408028 -161.454516 
L 281.608024 -159.563729 
L 279.808019 -162.490551 
L 278.008014 -155.155621 
L 276.20801 -161.16218 
L 274.408005 -166.421772 
L 272.608001 -156.694236 
L 270.807996 -157.787375 
L 269.007992 -156.259719 
L 267.207987 -158.210652 
L 265.407983 -172.883047 
L 263.607978 -151.847723 
L 261.807973 -157.336208 
L 260.007969 -162.75787 
L 258.207964 -157.135853 
L 256.40796 -154.277966 
L 254.607955 -158.907418 
L 252.807951 -155.912082 
L 251.007946 -172.71044 
L 249.207942 -166.846175 
L 247.407937 -171.69111 
L 245.607932 -171.322486 
L 243.807928 -160.181192 
L 242.007923 -162.254108 
L 240.207919 -159.13417 
L 238.407914 -170.291578 
L 236.60791 -172.769206 
L 234.807905 -159.579815 
L 233.007901 -172.021252 
L 231.207896 -173.298154 
L 229.407891 -162.798184 
L 227.607887 -158.071034 
L 225.807882 -184.84585 
L 224.007878 -151.281645 
L 222.207873 -151.433067 
L 220.407869 -168.682816 
L 218.607864 -167.807753 
L 216.80786 -152.81271 
L 215.007855 -169.410177 
L 213.20785 -170.801623 
L 211.407846 -165.418697 
L 209.607841 -162.883121 
L 207.807837 -143.421542 
L 206.007832 -166.871896 
L 204.207828 -151.82913 
L 202.407823 -159.711179 
L 200.607819 -153.256327 
L 198.807814 -159.22029 
L 197.007809 -156.10379 
L 195.207805 -156.814669 
L 193.4078 -140.667806 
L 191.607796 -136.66317 
L 189.807791 -148.755873 
L 188.007787 -144.892574 
L 186.207782 -150.194507 
L 184.407778 -151.927871 
L 182.607773 -149.107932 
L 180.807768 -148.020484 
L 179.007764 -139.383298 
L 177.207759 -172.397877 
L 175.407755 -142.488981 
L 173.60775 -140.953268 
L 171.807746 -149.92823 
L 170.007741 -140.23974 
L 168.207737 -148.576167 
L 166.407732 -142.663785 
L 164.607728 -141.52591 
L 162.807723 -176.269205 
L 161.007718 -134.798048 
L 159.207714 -140.61335 
L 157.407709 -158.208257 
L 155.607705 -131.517138 
L 153.8077 -130.559448 
L 152.007696 -160.111806 
L 150.207691 -181.550996 
L 148.407687 -144.156706 
L 146.607682 -152.124001 
L 144.807677 -125.060371 
L 143.007673 -135.890116 
L 141.207668 -142.864479 
L 139.407664 -128.914091 
L 137.607659 -143.297193 
L 135.807655 -171.332487 
L 134.00765 -152.808907 
L 132.207646 -152.471412 
L 130.407641 -126.242616 
L 128.607636 -133.965552 
L 126.807632 -144.026722 
L 125.007627 -136.531976 
L 123.207623 -120.803262 
L 121.407618 -131.602526 
L 119.607614 -121.983085 
z
" style="stroke: #d2dbe0"/>
    </defs>
    <g clip-path="url(#p368739d224)">
     <use xlink:href="#m2c63e983be" x="0" y="288" style="fill: #d2dbe0; stroke: #d2dbe0"/>
    </g>
   </g>
   <g id="matplotlib.axis_1">
    <g id="xtick_1">
     <g id="line2d_1">
      <defs>
       <path id="m7979051632" d="M 0 0 
L 0 3.5 
" style="stroke: #000000; stroke-width: 0.8"/>
      </defs>
      <g>
       <use xlink:href="#m7979051632" x="117.807609" y="228.04" style="stroke: #000000; stroke-width: 0.8"/>
      </g>
     </g>
     <g id="text_1">
      <!-- 0 -->
      <g transform="translate(113.393859 246.4) scale(0.16 -0.16)">
       <defs>
        <path id="Bahnschrift-30" d="M 1766 -47 
Q 1116 -47 792 301 
Q 469 650 469 1244 
L 469 3309 
Q 469 3913 797 4256 
Q 1125 4600 1766 4600 
Q 2409 4600 2736 4258 
Q 3063 3916 3063 3309 
L 3063 1244 
Q 3063 641 2736 297 
Q 2409 -47 1766 -47 
z
M 1766 559 
Q 2116 559 2270 742 
Q 2425 925 2425 1244 
L 2425 3309 
Q 2425 3631 2270 3812 
Q 2116 3994 1766 3994 
Q 1416 3994 1261 3812 
Q 1106 3631 1106 3309 
L 1106 1244 
Q 1106 925 1261 742 
Q 1416 559 1766 559 
z
" transform="scale(0.015625)"/>
       </defs>
       <use xlink:href="#Bahnschrift-30"/>
      </g>
     </g>
    </g>
    <g id="xtick_2">
     <g id="line2d_2">
      <g>
       <use xlink:href="#m7979051632" x="297.808065" y="228.04" style="stroke: #000000; stroke-width: 0.8"/>
      </g>
     </g>
     <g id="text_2">
      <!-- 1000 -->
      <g transform="translate(281.906815 246.4) scale(0.16 -0.16)">
       <defs>
        <path id="Bahnschrift-31" d="M 1566 4544 
L 1566 0 
L 928 0 
L 928 3850 
L 281 3453 
L 281 4113 
L 928 4544 
L 1566 4544 
z
" transform="scale(0.015625)"/>
       </defs>
       <use xlink:href="#Bahnschrift-31"/>
       <use xlink:href="#Bahnschrift-30" x="33.251953"/>
       <use xlink:href="#Bahnschrift-30" x="88.427734"/>
       <use xlink:href="#Bahnschrift-30" x="143.603516"/>
      </g>
     </g>
    </g>
    <g id="xtick_3">
     <g id="line2d_3">
      <g>
       <use xlink:href="#m7979051632" x="477.80852" y="228.04" style="stroke: #000000; stroke-width: 0.8"/>
      </g>
     </g>
     <g id="text_3">
      <!-- 2000 -->
      <g transform="translate(460.43477 246.4) scale(0.16 -0.16)">
       <defs>
        <path id="Bahnschrift-32" d="M 400 0 
L 400 553 
L 1984 2666 
Q 2122 2847 2198 3040 
Q 2275 3234 2275 3406 
L 2275 3413 
Q 2275 3684 2115 3834 
Q 1956 3984 1663 3984 
Q 1388 3984 1214 3820 
Q 1041 3656 1003 3356 
L 1003 3353 
L 344 3353 
L 344 3356 
Q 428 3944 772 4267 
Q 1116 4591 1656 4591 
Q 2269 4591 2603 4281 
Q 2938 3972 2938 3406 
L 2938 3403 
Q 2938 3163 2838 2898 
Q 2738 2634 2559 2394 
L 1244 606 
L 2963 606 
L 2963 0 
L 400 0 
z
" transform="scale(0.015625)"/>
       </defs>
       <use xlink:href="#Bahnschrift-32"/>
       <use xlink:href="#Bahnschrift-30" x="51.660156"/>
       <use xlink:href="#Bahnschrift-30" x="106.835938"/>
       <use xlink:href="#Bahnschrift-30" x="162.011719"/>
      </g>
     </g>
    </g>
    <g id="xtick_4">
     <g id="line2d_4">
      <g>
       <use xlink:href="#m7979051632" x="657.808975" y="228.04" style="stroke: #000000; stroke-width: 0.8"/>
      </g>
     </g>
     <g id="text_4">
      <!-- 3000 -->
      <g transform="translate(640.337725 246.4) scale(0.16 -0.16)">
       <defs>
        <path id="Bahnschrift-33" d="M 1644 -47 
Q 1259 -47 970 92 
Q 681 231 506 493 
Q 331 756 281 1131 
L 281 1131 
L 931 1131 
L 931 1131 
Q 975 838 1162 702 
Q 1350 566 1644 566 
Q 1959 566 2134 734 
Q 2309 903 2309 1209 
L 2309 1347 
Q 2309 1688 2143 1873 
Q 1978 2059 1675 2059 
L 1353 2059 
L 1353 2666 
L 1675 2666 
Q 1944 2666 2089 2825 
Q 2234 2984 2234 3275 
L 2234 3416 
Q 2234 3684 2079 3831 
Q 1925 3978 1641 3978 
Q 1400 3978 1233 3842 
Q 1066 3706 1003 3413 
L 1003 3413 
L 356 3413 
L 356 3413 
Q 453 3975 789 4283 
Q 1125 4591 1641 4591 
Q 2228 4591 2550 4281 
Q 2872 3972 2872 3409 
L 2872 3334 
Q 2872 2994 2687 2742 
Q 2503 2491 2166 2372 
Q 2538 2294 2742 2008 
Q 2947 1722 2947 1281 
L 2947 1206 
Q 2947 609 2606 281 
Q 2266 -47 1644 -47 
z
" transform="scale(0.015625)"/>
       </defs>
       <use xlink:href="#Bahnschrift-33"/>
       <use xlink:href="#Bahnschrift-30" x="52.880859"/>
       <use xlink:href="#Bahnschrift-30" x="108.056641"/>
       <use xlink:href="#Bahnschrift-30" x="163.232422"/>
      </g>
     </g>
    </g>
    <g id="xtick_5">
     <g id="line2d_5">
      <g>
       <use xlink:href="#m7979051632" x="837.809431" y="228.04" style="stroke: #000000; stroke-width: 0.8"/>
      </g>
     </g>
     <g id="text_5">
      <!-- 4000 -->
      <g transform="translate(820.016931 246.4) scale(0.16 -0.16)">
       <defs>
        <path id="Bahnschrift-34" d="M 406 697 
L 406 1250 
L 1931 4541 
L 2588 4541 
L 1100 1288 
L 3328 1288 
L 3328 697 
L 406 697 
z
M 2366 -3 
L 2366 2672 
L 2988 2672 
L 2988 -3 
L 2366 -3 
z
" transform="scale(0.015625)"/>
       </defs>
       <use xlink:href="#Bahnschrift-34"/>
       <use xlink:href="#Bahnschrift-30" x="56.884766"/>
       <use xlink:href="#Bahnschrift-30" x="112.060547"/>
       <use xlink:href="#Bahnschrift-30" x="167.236328"/>
      </g>
     </g>
    </g>
    <g id="xtick_6">
     <g id="line2d_6">
      <g>
       <use xlink:href="#m7979051632" x="1017.809886" y="228.04" style="stroke: #000000; stroke-width: 0.8"/>
      </g>
     </g>
     <g id="text_6">
      <!-- 5000 -->
      <g transform="translate(1000.213636 246.4) scale(0.16 -0.16)">
       <defs>
        <path id="Bahnschrift-35" d="M 1738 -47 
Q 1219 -47 886 251 
Q 553 550 469 1094 
L 469 1097 
L 1106 1097 
L 1106 1094 
Q 1141 844 1306 705 
Q 1472 566 1738 566 
Q 2044 566 2211 770 
Q 2378 975 2378 1347 
L 2378 1728 
Q 2378 2100 2211 2303 
Q 2044 2506 1738 2506 
Q 1572 2506 1419 2412 
Q 1266 2319 1150 2150 
L 569 2150 
L 569 4544 
L 2884 4544 
L 2884 3938 
L 1206 3938 
L 1206 2916 
Q 1325 3013 1472 3066 
Q 1619 3119 1772 3119 
Q 2366 3119 2691 2755 
Q 3016 2391 3016 1728 
L 3016 1347 
Q 3016 681 2681 317 
Q 2347 -47 1738 -47 
z
" transform="scale(0.015625)"/>
       </defs>
       <use xlink:href="#Bahnschrift-35"/>
       <use xlink:href="#Bahnschrift-30" x="54.443359"/>
       <use xlink:href="#Bahnschrift-30" x="109.619141"/>
       <use xlink:href="#Bahnschrift-30" x="164.794922"/>
      </g>
     </g>
    </g>
    <g id="text_7">
     <!-- Number of Samples -->
     <g transform="translate(497.42125 265.175) scale(0.16 -0.16)">
      <defs>
       <path id="Bahnschrift-4e" d="M 563 3 
L 563 4544 
L 1141 4544 
L 3363 1031 
L 3288 950 
L 3288 4544 
L 3919 4544 
L 3919 3 
L 3334 3 
L 1119 3463 
L 1194 3544 
L 1194 3 
L 563 3 
z
" transform="scale(0.015625)"/>
       <path id="Bahnschrift-75" d="M 2456 0 
L 2456 3244 
L 3091 3244 
L 3091 0 
L 2456 0 
z
M 1138 3244 
L 1138 1272 
Q 1138 931 1311 745 
Q 1484 559 1800 559 
Q 2116 559 2286 726 
Q 2456 894 2456 1197 
L 2500 519 
Q 2413 300 2194 126 
Q 1975 -47 1622 -47 
Q 1084 -47 792 298 
Q 500 644 500 1272 
L 500 3244 
L 1138 3244 
z
" transform="scale(0.015625)"/>
       <path id="Bahnschrift-6d" d="M 4375 0 
L 4375 1966 
Q 4375 2309 4198 2496 
Q 4022 2684 3697 2684 
Q 3400 2684 3237 2503 
Q 3075 2322 3075 1991 
L 2947 2616 
Q 3103 2941 3353 3116 
Q 3603 3291 3906 3291 
Q 4434 3291 4723 2945 
Q 5013 2600 5013 1969 
L 5013 0 
L 4375 0 
z
M 500 0 
L 500 3244 
L 1138 3244 
L 1138 0 
L 500 0 
z
M 2438 0 
L 2438 1966 
Q 2438 2309 2269 2496 
Q 2100 2684 1791 2684 
Q 1478 2684 1308 2518 
Q 1138 2353 1138 2053 
L 1072 2678 
Q 1222 2972 1464 3131 
Q 1706 3291 2000 3291 
Q 2513 3291 2794 2945 
Q 3075 2600 3075 1969 
L 3075 0 
L 2438 0 
z
" transform="scale(0.015625)"/>
       <path id="Bahnschrift-62" d="M 1953 -47 
Q 1650 -47 1425 98 
Q 1200 244 1094 509 
L 1138 1188 
Q 1138 978 1213 831 
Q 1288 684 1430 606 
Q 1572 528 1775 528 
Q 2091 528 2264 720 
Q 2438 913 2438 1263 
L 2438 1966 
Q 2438 2322 2264 2519 
Q 2091 2716 1775 2716 
Q 1572 2716 1430 2641 
Q 1288 2566 1213 2422 
Q 1138 2278 1138 2072 
L 1072 2697 
Q 1219 2981 1456 3136 
Q 1694 3291 1984 3291 
Q 2506 3291 2790 2945 
Q 3075 2600 3075 1969 
L 3075 1263 
Q 3075 641 2781 297 
Q 2488 -47 1953 -47 
z
M 500 0 
L 500 4544 
L 1138 4544 
L 1138 0 
L 500 0 
z
" transform="scale(0.015625)"/>
       <path id="Bahnschrift-65" d="M 1828 -47 
Q 1150 -47 778 331 
Q 406 709 406 1406 
L 406 1772 
Q 406 2497 764 2894 
Q 1122 3291 1772 3291 
Q 2384 3291 2720 2841 
Q 3056 2391 3056 1578 
L 3056 1366 
L 869 1366 
L 869 1878 
L 2450 1878 
L 2450 1878 
Q 2422 2272 2245 2494 
Q 2069 2716 1772 2716 
Q 1413 2716 1213 2478 
Q 1013 2241 1013 1806 
L 1013 1394 
Q 1013 991 1227 775 
Q 1441 559 1828 559 
Q 2022 559 2212 637 
Q 2403 716 2553 856 
L 2553 856 
L 2972 438 
L 2972 438 
Q 2731 206 2431 79 
Q 2131 -47 1828 -47 
z
" transform="scale(0.015625)"/>
       <path id="Bahnschrift-72" d="M 500 0 
L 500 3244 
L 1138 3244 
L 1138 0 
L 500 0 
z
M 2284 2475 
Q 2200 2578 2072 2631 
Q 1944 2684 1775 2684 
Q 1472 2684 1305 2517 
Q 1138 2350 1138 2053 
L 1072 2678 
Q 1219 2966 1458 3128 
Q 1697 3291 1984 3291 
Q 2206 3291 2386 3227 
Q 2566 3163 2700 3038 
L 2284 2475 
z
" transform="scale(0.015625)"/>
       <path id="Bahnschrift-20" transform="scale(0.015625)"/>
       <path id="Bahnschrift-6f" d="M 1744 -47 
Q 1106 -47 756 323 
Q 406 694 406 1366 
L 406 1894 
Q 406 2559 756 2925 
Q 1106 3291 1744 3291 
Q 2381 3291 2731 2925 
Q 3081 2559 3081 1894 
L 3081 1356 
Q 3081 688 2731 320 
Q 2381 -47 1744 -47 
z
M 1744 559 
Q 2078 559 2261 768 
Q 2444 978 2444 1356 
L 2444 1894 
Q 2444 2272 2261 2478 
Q 2078 2684 1744 2684 
Q 1413 2684 1228 2478 
Q 1044 2272 1044 1894 
L 1044 1356 
Q 1044 978 1228 768 
Q 1413 559 1744 559 
z
" transform="scale(0.015625)"/>
       <path id="Bahnschrift-66" d="M 594 0 
L 594 3684 
Q 594 4113 791 4328 
Q 988 4544 1403 4544 
L 1872 4544 
L 1872 3938 
L 1416 3938 
Q 1319 3938 1275 3864 
Q 1231 3791 1231 3691 
L 1231 0 
L 594 0 
z
M 250 2700 
L 250 3244 
L 1872 3244 
L 1872 2700 
L 250 2700 
z
" transform="scale(0.015625)"/>
       <path id="Bahnschrift-53" d="M 1928 -47 
Q 1597 -47 1305 15 
Q 1013 78 758 203 
Q 503 328 281 516 
L 281 516 
L 678 1003 
L 678 1003 
Q 938 778 1250 665 
Q 1563 553 1928 553 
Q 2422 553 2694 737 
Q 2966 922 2966 1253 
L 2966 1256 
Q 2966 1516 2828 1653 
Q 2691 1791 2467 1858 
Q 2244 1925 1978 1969 
Q 1722 2013 1461 2072 
Q 1200 2131 981 2257 
Q 763 2384 630 2621 
Q 497 2859 497 3256 
L 497 3259 
Q 497 3894 919 4242 
Q 1341 4591 2109 4591 
Q 2475 4591 2825 4473 
Q 3175 4356 3506 4116 
L 3506 4116 
L 3144 3609 
L 3144 3609 
Q 2884 3803 2626 3897 
Q 2369 3991 2109 3991 
Q 1644 3991 1386 3805 
Q 1128 3619 1128 3278 
L 1128 3275 
Q 1128 3019 1278 2884 
Q 1428 2750 1670 2686 
Q 1913 2622 2191 2566 
Q 2441 2516 2691 2445 
Q 2941 2375 3145 2242 
Q 3350 2109 3473 1878 
Q 3597 1647 3597 1275 
L 3597 1269 
Q 3597 641 3159 297 
Q 2722 -47 1928 -47 
z
" transform="scale(0.015625)"/>
       <path id="Bahnschrift-61" d="M 2331 0 
L 2331 2056 
Q 2331 2375 2161 2551 
Q 1991 2728 1678 2728 
Q 1488 2728 1302 2670 
Q 1116 2613 969 2503 
L 503 2822 
Q 688 3044 989 3167 
Q 1291 3291 1659 3291 
Q 2269 3291 2603 2975 
Q 2938 2659 2938 2084 
L 2938 0 
L 2331 0 
z
M 1538 -47 
Q 941 -47 642 200 
Q 344 447 344 956 
Q 344 1441 617 1680 
Q 891 1919 1438 1919 
L 2359 1919 
L 2403 1406 
L 1441 1406 
Q 1194 1406 1069 1295 
Q 944 1184 944 956 
Q 944 709 1109 590 
Q 1275 472 1606 472 
Q 1969 472 2150 550 
Q 2331 628 2331 794 
L 2397 338 
Q 2313 206 2188 122 
Q 2063 38 1902 -4 
Q 1741 -47 1538 -47 
z
" transform="scale(0.015625)"/>
       <path id="Bahnschrift-70" d="M 500 -1319 
L 500 3244 
L 1138 3244 
L 1138 -1319 
L 500 -1319 
z
M 1953 -47 
Q 1650 -47 1425 98 
Q 1200 244 1094 509 
L 1138 1188 
Q 1138 978 1213 831 
Q 1288 684 1430 606 
Q 1572 528 1775 528 
Q 2091 528 2264 720 
Q 2438 913 2438 1263 
L 2438 1966 
Q 2438 2322 2264 2519 
Q 2091 2716 1775 2716 
Q 1572 2716 1430 2641 
Q 1288 2566 1213 2422 
Q 1138 2278 1138 2072 
L 1072 2697 
Q 1219 2981 1456 3136 
Q 1694 3291 1984 3291 
Q 2506 3291 2790 2945 
Q 3075 2600 3075 1969 
L 3075 1263 
Q 3075 641 2781 297 
Q 2488 -47 1953 -47 
z
" transform="scale(0.015625)"/>
       <path id="Bahnschrift-6c" d="M 1138 4544 
L 1138 838 
Q 1138 722 1189 656 
Q 1241 591 1334 591 
L 1634 591 
L 1634 -16 
L 1259 -16 
Q 900 -16 700 209 
Q 500 434 500 844 
L 500 4544 
L 1138 4544 
z
" transform="scale(0.015625)"/>
       <path id="Bahnschrift-73" d="M 1647 -47 
Q 1216 -47 864 79 
Q 513 206 234 459 
L 234 459 
L 613 925 
L 613 925 
Q 878 725 1136 625 
Q 1394 525 1647 525 
Q 2025 525 2214 642 
Q 2403 759 2403 994 
Q 2403 1175 2276 1250 
Q 2150 1325 1945 1348 
Q 1741 1372 1506 1388 
Q 1309 1403 1115 1436 
Q 922 1469 762 1555 
Q 603 1641 508 1809 
Q 413 1978 413 2263 
Q 413 2778 728 3034 
Q 1044 3291 1669 3291 
Q 2050 3291 2378 3187 
Q 2706 3084 2994 2872 
L 2994 2872 
L 2609 2406 
L 2609 2406 
Q 2366 2563 2130 2641 
Q 1894 2719 1669 2719 
Q 1344 2719 1181 2608 
Q 1019 2497 1019 2275 
Q 1019 2128 1131 2064 
Q 1244 2000 1428 1981 
Q 1613 1963 1825 1947 
Q 2028 1934 2236 1901 
Q 2444 1869 2619 1775 
Q 2794 1681 2900 1497 
Q 3006 1313 3006 994 
Q 3006 472 2667 212 
Q 2328 -47 1647 -47 
z
" transform="scale(0.015625)"/>
      </defs>
      <use xlink:href="#Bahnschrift-4e"/>
      <use xlink:href="#Bahnschrift-75" x="70.019531"/>
      <use xlink:href="#Bahnschrift-6d" x="125.634766"/>
      <use xlink:href="#Bahnschrift-62" x="211.279297"/>
      <use xlink:href="#Bahnschrift-65" x="265.673828"/>
      <use xlink:href="#Bahnschrift-72" x="319.287109"/>
      <use xlink:href="#Bahnschrift-20" x="361.962891"/>
      <use xlink:href="#Bahnschrift-6f" x="388.818359"/>
      <use xlink:href="#Bahnschrift-66" x="443.310547"/>
      <use xlink:href="#Bahnschrift-20" x="475"/>
      <use xlink:href="#Bahnschrift-53" x="501.855469"/>
      <use xlink:href="#Bahnschrift-61" x="563.427734"/>
      <use xlink:href="#Bahnschrift-6d" x="616.650391"/>
      <use xlink:href="#Bahnschrift-70" x="702.294922"/>
      <use xlink:href="#Bahnschrift-6c" x="756.689453"/>
      <use xlink:href="#Bahnschrift-65" x="785.644531"/>
      <use xlink:href="#Bahnschrift-73" x="839.257812"/>
     </g>
    </g>
   </g>
   <g id="matplotlib.axis_2">
    <g id="ytick_1">
     <g id="line2d_7">
      <defs>
       <path id="m7ef1b4172a" d="M 0 0 
L -3.5 0 
" style="stroke: #000000; stroke-width: 0.8"/>
      </defs>
      <g>
       <use xlink:href="#m7ef1b4172a" x="74.6975" y="191.534618" style="stroke: #000000; stroke-width: 0.8"/>
      </g>
     </g>
     <g id="text_8">
      <!-- 0.02 -->
      <g transform="translate(38.1525 197.214618) scale(0.16 -0.16)">
       <defs>
        <path id="Bahnschrift-2e" d="M 391 0 
L 391 669 
L 1059 669 
L 1059 0 
L 391 0 
z
" transform="scale(0.015625)"/>
       </defs>
       <use xlink:href="#Bahnschrift-30"/>
       <use xlink:href="#Bahnschrift-2e" x="55.175781"/>
       <use xlink:href="#Bahnschrift-30" x="77.832031"/>
       <use xlink:href="#Bahnschrift-32" x="133.007812"/>
      </g>
     </g>
    </g>
    <g id="ytick_2">
     <g id="line2d_8">
      <g>
       <use xlink:href="#m7ef1b4172a" x="74.6975" y="144.270679" style="stroke: #000000; stroke-width: 0.8"/>
      </g>
     </g>
     <g id="text_9">
      <!-- 0.04 -->
      <g transform="translate(37.315 149.950679) scale(0.16 -0.16)">
       <use xlink:href="#Bahnschrift-30"/>
       <use xlink:href="#Bahnschrift-2e" x="55.175781"/>
       <use xlink:href="#Bahnschrift-30" x="77.832031"/>
       <use xlink:href="#Bahnschrift-34" x="133.007812"/>
      </g>
     </g>
    </g>
    <g id="ytick_3">
     <g id="line2d_9">
      <g>
       <use xlink:href="#m7ef1b4172a" x="74.6975" y="97.006739" style="stroke: #000000; stroke-width: 0.8"/>
      </g>
     </g>
     <g id="text_10">
      <!-- 0.06 -->
      <g transform="translate(38.2075 102.686739) scale(0.16 -0.16)">
       <defs>
        <path id="Bahnschrift-36" d="M 1641 -47 
Q 1038 -47 706 312 
Q 375 672 375 1325 
L 375 1328 
Q 375 1622 456 1951 
Q 538 2281 691 2588 
L 1678 4544 
L 2366 4544 
L 1206 2278 
L 1209 2391 
Q 1372 2700 1788 2700 
Q 2322 2700 2615 2345 
Q 2909 1991 2909 1344 
L 2909 1341 
Q 2909 681 2578 317 
Q 2247 -47 1641 -47 
z
M 1641 566 
Q 1947 566 2109 753 
Q 2272 941 2272 1288 
L 2272 1291 
Q 2272 1672 2100 1880 
Q 1928 2088 1609 2088 
Q 1325 2088 1169 1878 
Q 1013 1669 1013 1288 
L 1013 1284 
Q 1013 938 1177 752 
Q 1341 566 1641 566 
z
" transform="scale(0.015625)"/>
       </defs>
       <use xlink:href="#Bahnschrift-30"/>
       <use xlink:href="#Bahnschrift-2e" x="55.175781"/>
       <use xlink:href="#Bahnschrift-30" x="77.832031"/>
       <use xlink:href="#Bahnschrift-36" x="133.007812"/>
      </g>
     </g>
    </g>
    <g id="ytick_4">
     <g id="line2d_10">
      <g>
       <use xlink:href="#m7ef1b4172a" x="74.6975" y="49.742799" style="stroke: #000000; stroke-width: 0.8"/>
      </g>
     </g>
     <g id="text_11">
      <!-- 0.08 -->
      <g transform="translate(37.4175 55.422799) scale(0.16 -0.16)">
       <defs>
        <path id="Bahnschrift-38" d="M 1800 -47 
Q 1384 -47 1075 109 
Q 766 266 594 550 
Q 422 834 422 1216 
L 422 1291 
Q 422 1631 592 1931 
Q 763 2231 1047 2384 
Q 809 2516 662 2764 
Q 516 3013 516 3288 
L 516 3397 
Q 516 3938 867 4264 
Q 1219 4591 1800 4591 
Q 2381 4591 2732 4264 
Q 3084 3938 3084 3397 
L 3084 3288 
Q 3084 3006 2936 2759 
Q 2788 2513 2544 2384 
Q 2831 2231 3004 1931 
Q 3178 1631 3178 1291 
L 3178 1216 
Q 3178 834 3006 550 
Q 2834 266 2525 109 
Q 2216 -47 1800 -47 
z
M 1800 566 
Q 2134 566 2339 758 
Q 2544 950 2544 1263 
L 2544 1306 
Q 2544 1622 2339 1814 
Q 2134 2006 1800 2006 
Q 1466 2006 1261 1814 
Q 1056 1622 1056 1303 
L 1056 1256 
Q 1056 944 1261 755 
Q 1466 566 1800 566 
z
M 1800 2619 
Q 2091 2619 2269 2803 
Q 2447 2988 2447 3291 
L 2447 3334 
Q 2447 3625 2269 3801 
Q 2091 3978 1800 3978 
Q 1509 3978 1331 3801 
Q 1153 3625 1153 3331 
L 1153 3284 
Q 1153 2984 1331 2801 
Q 1509 2619 1800 2619 
z
" transform="scale(0.015625)"/>
       </defs>
       <use xlink:href="#Bahnschrift-30"/>
       <use xlink:href="#Bahnschrift-2e" x="55.175781"/>
       <use xlink:href="#Bahnschrift-30" x="77.832031"/>
       <use xlink:href="#Bahnschrift-38" x="133.007812"/>
      </g>
     </g>
    </g>
    <g id="text_12">
     <!-- Time [s] -->
     <g transform="translate(30.0175 150.65875) rotate(-90) scale(0.16 -0.16)">
      <defs>
       <path id="Bahnschrift-54" d="M 1222 0 
L 1222 4172 
L 1859 4172 
L 1859 0 
L 1222 0 
z
M -63 3938 
L -63 4544 
L 3144 4544 
L 3144 3938 
L -63 3938 
z
" transform="scale(0.015625)"/>
       <path id="Bahnschrift-69" d="M 500 3906 
L 500 4544 
L 1138 4544 
L 1138 3906 
L 500 3906 
z
M 500 0 
L 500 3244 
L 1138 3244 
L 1138 0 
L 500 0 
z
" transform="scale(0.015625)"/>
       <path id="Bahnschrift-5b" d="M 594 -1019 
L 594 5081 
L 1200 5081 
L 1200 -1019 
L 594 -1019 
z
M 906 -1019 
L 906 -444 
L 1788 -444 
L 1788 -1019 
L 906 -1019 
z
M 906 4506 
L 906 5081 
L 1788 5081 
L 1788 4506 
L 906 4506 
z
" transform="scale(0.015625)"/>
       <path id="Bahnschrift-5d" d="M 681 -1019 
L 681 5081 
L 1288 5081 
L 1288 -1019 
L 681 -1019 
z
M 94 -1019 
L 94 -444 
L 975 -444 
L 975 -1019 
L 94 -1019 
z
M 94 4506 
L 94 5081 
L 975 5081 
L 975 4506 
L 94 4506 
z
" transform="scale(0.015625)"/>
      </defs>
      <use xlink:href="#Bahnschrift-54"/>
      <use xlink:href="#Bahnschrift-69" x="48.144531"/>
      <use xlink:href="#Bahnschrift-6d" x="73.242188"/>
      <use xlink:href="#Bahnschrift-65" x="158.886719"/>
      <use xlink:href="#Bahnschrift-20" x="212.5"/>
      <use xlink:href="#Bahnschrift-5b" x="239.355469"/>
      <use xlink:href="#Bahnschrift-73" x="268.75"/>
      <use xlink:href="#Bahnschrift-5d" x="320.605469"/>
     </g>
    </g>
   </g>
   <g id="line2d_11">
    <path d="M 137.607659 184.460017 
L 139.407664 183.518983 
L 141.207668 182.925459 
L 143.007673 182.586389 
L 144.807677 182.663769 
L 150.207691 181.326019 
L 152.007696 181.998219 
L 153.8077 181.517671 
L 157.407709 180.885309 
L 159.207714 180.393656 
L 162.807723 179.864039 
L 164.607728 179.802419 
L 166.407732 179.368217 
L 168.207737 179.357928 
L 170.007741 179.191791 
L 173.60775 178.512256 
L 175.407755 178.624185 
L 179.007764 178.213934 
L 182.607773 178.06728 
L 186.207782 177.642698 
L 189.807791 177.234741 
L 191.607796 176.652352 
L 195.207805 175.303057 
L 198.807814 174.004623 
L 200.607819 173.280986 
L 202.407823 172.816689 
L 218.607864 167.514924 
L 220.407869 167.152379 
L 224.007878 166.147851 
L 225.807882 165.633386 
L 227.607887 165.392677 
L 229.407891 165.294047 
L 231.207896 165.327694 
L 234.807905 165.190085 
L 238.407914 165.130071 
L 242.007923 165.000485 
L 245.607932 164.832422 
L 254.607955 164.570325 
L 256.40796 164.257704 
L 258.207964 164.099663 
L 260.007969 164.069116 
L 261.807973 163.864172 
L 263.607978 163.874261 
L 267.207987 163.634755 
L 270.807996 163.831579 
L 272.608001 163.67984 
L 278.008014 163.589552 
L 279.808019 163.533637 
L 283.408028 164.000938 
L 288.808042 163.792294 
L 292.408051 163.763855 
L 294.208055 163.807231 
L 296.00806 163.652888 
L 297.808065 163.709011 
L 301.408074 163.393654 
L 303.208078 163.293487 
L 305.008083 163.057151 
L 306.808087 162.665667 
L 308.608092 162.69843 
L 312.208101 162.176527 
L 315.80811 162.293142 
L 317.608115 161.721466 
L 321.208124 161.049868 
L 323.008128 161.041742 
L 326.608137 160.612913 
L 335.60816 159.526685 
L 339.208169 159.579115 
L 341.008174 159.323627 
L 342.808178 159.327028 
L 346.408188 158.856134 
L 348.208192 158.784807 
L 350.008197 158.456403 
L 351.808201 158.27037 
L 353.608206 158.248635 
L 355.40821 157.94029 
L 357.208215 158.011828 
L 360.808224 157.428053 
L 366.208238 157.18256 
L 368.008242 157.249331 
L 375.20826 156.449806 
L 380.608274 156.326777 
L 382.408279 156.200723 
L 384.208283 155.822231 
L 393.208306 154.994177 
L 395.00831 155.083063 
L 398.60832 154.806368 
L 404.008333 154.059248 
L 409.408347 153.702707 
L 411.208351 153.363149 
L 413.008356 153.219659 
L 414.808361 152.638405 
L 416.608365 152.503241 
L 420.208374 152.552574 
L 422.008379 152.333592 
L 423.808383 152.295974 
L 427.408392 151.914204 
L 429.208397 151.861004 
L 431.008402 151.46987 
L 434.608411 151.226408 
L 436.408415 151.265681 
L 440.008424 151.076261 
L 441.808429 151.061342 
L 443.608433 151.190778 
L 449.008447 150.957584 
L 450.808452 151.206215 
L 452.608456 151.042042 
L 454.408461 151.263542 
L 458.00847 151.287956 
L 465.208488 151.085929 
L 468.808497 151.145252 
L 470.608502 150.746215 
L 474.208511 150.541364 
L 477.80852 150.487561 
L 479.608525 150.353664 
L 485.008538 150.322633 
L 488.608547 150.147136 
L 490.408552 149.692684 
L 492.208556 149.368189 
L 494.008561 149.356861 
L 495.808566 149.192011 
L 497.60857 149.222264 
L 501.208579 148.789029 
L 504.808588 148.380328 
L 506.608593 148.569904 
L 512.008607 148.222041 
L 513.808611 148.37065 
L 515.608616 148.280971 
L 517.40862 148.026943 
L 519.208625 148.070151 
L 522.808634 147.666743 
L 526.408643 148.043681 
L 533.608661 147.85699 
L 537.20867 148.258636 
L 548.008698 148.449938 
L 549.808702 148.14122 
L 551.608707 148.012403 
L 553.408711 148.083015 
L 555.208716 147.963009 
L 557.00872 147.967571 
L 558.808725 147.773885 
L 560.60873 147.460423 
L 562.408734 147.267352 
L 566.008743 147.310685 
L 567.808748 147.145043 
L 569.608752 147.297613 
L 571.408757 146.94873 
L 573.208761 146.986254 
L 575.008766 147.170754 
L 578.608775 146.831319 
L 580.40878 146.509642 
L 584.008789 146.54062 
L 593.008811 145.470887 
L 594.808816 145.572167 
L 596.608821 145.362592 
L 600.20883 145.218581 
L 602.008834 144.940838 
L 603.808839 145.015475 
L 605.608843 144.623973 
L 607.408848 144.584207 
L 611.008857 144.063846 
L 616.408871 143.907671 
L 618.208875 143.577105 
L 620.00888 143.086575 
L 627.208898 143.295786 
L 629.008903 143.19568 
L 632.608912 143.284265 
L 638.008925 142.82395 
L 639.80893 142.460532 
L 643.408939 142.053696 
L 647.008948 141.822482 
L 650.608957 141.447276 
L 652.408962 141.563749 
L 657.808975 141.526379 
L 659.60898 141.412742 
L 661.408985 140.94251 
L 663.208989 140.879644 
L 672.209012 140.008319 
L 674.009016 139.973097 
L 675.809021 139.744141 
L 677.609026 139.766645 
L 679.40903 139.535578 
L 683.009039 138.814652 
L 686.609048 138.630809 
L 690.209057 138.161976 
L 692.009062 138.114976 
L 693.809067 137.734049 
L 695.609071 137.622943 
L 697.409076 137.863368 
L 699.20908 137.677724 
L 701.009085 137.836051 
L 702.809089 137.62133 
L 704.609094 137.654677 
L 710.009108 138.366718 
L 711.809112 138.799953 
L 713.609117 138.61724 
L 720.809135 138.880166 
L 724.409144 138.745813 
L 726.209149 138.87331 
L 728.009153 138.810381 
L 729.809158 139.076261 
L 735.209171 138.927361 
L 737.009176 138.483328 
L 738.80918 138.453126 
L 740.609185 138.263225 
L 742.40919 138.24472 
L 747.809203 136.816389 
L 751.409212 136.74571 
L 762.20924 136.248237 
L 764.009244 136.070244 
L 765.809249 135.772803 
L 771.209262 135.44299 
L 773.009267 135.544994 
L 776.609276 135.345592 
L 778.409281 134.968891 
L 780.209285 134.897287 
L 782.00929 134.986027 
L 783.809294 134.889838 
L 785.609299 134.643746 
L 787.409303 134.539202 
L 789.209308 134.226314 
L 791.009312 134.088728 
L 792.809317 133.784509 
L 796.409326 133.782581 
L 800.009335 133.749504 
L 801.80934 133.619341 
L 803.609344 133.317127 
L 805.409349 133.350218 
L 809.009358 133.046029 
L 827.009404 132.699983 
L 828.809408 132.757171 
L 836.009426 132.45174 
L 837.809431 132.486396 
L 839.609435 132.660782 
L 843.209445 132.389238 
L 846.809454 132.327359 
L 850.409463 131.996064 
L 857.609481 131.674016 
L 859.409486 131.666089 
L 879.209536 129.900529 
L 884.609549 129.780308 
L 888.209558 129.974686 
L 893.609572 129.756584 
L 895.409577 129.510664 
L 900.80959 129.809826 
L 913.409622 129.09734 
L 917.009631 129.069095 
L 920.60964 128.837513 
L 922.409645 128.75652 
L 924.20965 128.418887 
L 927.809659 128.186796 
L 933.209672 128.072196 
L 936.809681 127.651284 
L 938.609686 127.536168 
L 940.409691 127.589283 
L 942.209695 127.419142 
L 944.0097 127.555345 
L 945.809704 127.324588 
L 947.609709 126.92627 
L 951.209718 126.804348 
L 953.009722 126.613915 
L 954.809727 126.573649 
L 960.209741 126.123568 
L 962.009745 126.152743 
L 965.609754 125.343552 
L 967.409759 125.334712 
L 969.209763 125.02565 
L 971.009768 125.071848 
L 981.809795 124.308198 
L 983.6098 124.549574 
L 990.809818 124.253724 
L 992.609823 124.269364 
L 994.409827 124.064283 
L 999.809841 124.088288 
L 999.809841 124.088288 
" clip-path="url(#p368739d224)" style="fill: none; stroke: #5dc694; stroke-width: 1.5; stroke-linecap: square"/>
   </g>
   <g id="patch_3">
    <path d="M 74.6975 228.04 
L 74.6975 17.28 
" style="fill: none; stroke: #000000; stroke-width: 0.8; stroke-linejoin: miter; stroke-linecap: square"/>
   </g>
   <g id="patch_4">
    <path d="M 1062.72 228.04 
L 1062.72 17.28 
" style="fill: none; stroke: #000000; stroke-width: 0.8; stroke-linejoin: miter; stroke-linecap: square"/>
   </g>
   <g id="patch_5">
    <path d="M 74.6975 228.04 
L 1062.72 228.04 
" style="fill: none; stroke: #000000; stroke-width: 0.8; stroke-linejoin: miter; stroke-linecap: square"/>
   </g>
   <g id="patch_6">
    <path d="M 74.6975 17.28 
L 1062.72 17.28 
" style="fill: none; stroke: #000000; stroke-width: 0.8; stroke-linejoin: miter; stroke-linecap: square"/>
   </g>
   <g id="legend_1">
    <g id="patch_7">
     <path d="M 763.8 76.7375 
L 1051.52 76.7375 
Q 1054.72 76.7375 1054.72 73.5375 
L 1054.72 28.48 
Q 1054.72 25.28 1051.52 25.28 
L 763.8 25.28 
Q 760.6 25.28 760.6 28.48 
L 760.6 73.5375 
Q 760.6 76.7375 763.8 76.7375 
z
" style="fill: #ffffff; opacity: 0.8; stroke: #cccccc; stroke-linejoin: miter"/>
    </g>
    <g id="line2d_12">
     <path d="M 767 38.7825 
L 783 38.7825 
L 799 38.7825 
" style="fill: none; stroke: #5dc694; stroke-width: 1.5; stroke-linecap: square"/>
    </g>
    <g id="text_13">
     <!-- Mean Time [Rolling Average (20)] -->
     <g transform="translate(811.8 44.3825) scale(0.16 -0.16)">
      <defs>
       <path id="Bahnschrift-4d" d="M 2494 1544 
L 3828 4544 
L 4425 4544 
L 4425 0 
L 3803 0 
L 3803 3403 
L 3834 3203 
L 2716 631 
L 2272 631 
L 1153 3141 
L 1184 3403 
L 1184 0 
L 563 0 
L 563 4544 
L 1159 4544 
L 2494 1544 
z
" transform="scale(0.015625)"/>
       <path id="Bahnschrift-6e" d="M 500 0 
L 500 3244 
L 1138 3244 
L 1138 0 
L 500 0 
z
M 2469 0 
L 2469 1966 
Q 2469 2309 2292 2496 
Q 2116 2684 1791 2684 
Q 1478 2684 1308 2518 
Q 1138 2353 1138 2053 
L 1072 2678 
Q 1222 2972 1464 3131 
Q 1706 3291 2000 3291 
Q 2528 3291 2817 2945 
Q 3106 2600 3106 1969 
L 3106 0 
L 2469 0 
z
" transform="scale(0.015625)"/>
       <path id="Bahnschrift-52" d="M 841 1922 
L 841 2528 
L 2391 2528 
Q 2669 2528 2837 2722 
Q 3006 2916 3006 3234 
L 3006 3234 
Q 3006 3553 2837 3747 
Q 2669 3941 2391 3941 
L 841 3941 
L 841 4547 
L 2366 4547 
Q 2763 4547 3059 4383 
Q 3356 4219 3520 3925 
Q 3684 3631 3684 3234 
L 3684 3234 
Q 3684 2841 3518 2545 
Q 3353 2250 3058 2086 
Q 2763 1922 2366 1922 
L 841 1922 
z
M 563 0 
L 563 4547 
L 1200 4547 
L 1200 0 
L 563 0 
z
M 3119 0 
L 2078 2063 
L 2713 2206 
L 3875 0 
L 3119 0 
z
" transform="scale(0.015625)"/>
       <path id="Bahnschrift-67" d="M 1588 -1319 
Q 1222 -1319 933 -1183 
Q 644 -1047 484 -800 
L 484 -800 
L 916 -409 
L 916 -409 
Q 1041 -581 1214 -675 
Q 1388 -769 1578 -769 
Q 1944 -769 2144 -567 
Q 2344 -366 2344 3 
L 2344 3244 
L 2981 3244 
L 2981 97 
Q 2981 -578 2617 -948 
Q 2253 -1319 1588 -1319 
z
M 1528 -56 
Q 991 -56 698 289 
Q 406 634 406 1263 
L 406 1978 
Q 406 2609 692 2954 
Q 978 3300 1497 3300 
Q 1784 3300 2023 3150 
Q 2263 3000 2409 2728 
L 2344 2066 
Q 2344 2272 2269 2419 
Q 2194 2566 2051 2642 
Q 1909 2719 1706 2719 
Q 1391 2719 1217 2522 
Q 1044 2325 1044 1969 
L 1044 1263 
Q 1044 909 1217 717 
Q 1391 525 1706 525 
Q 1909 525 2051 604 
Q 2194 684 2269 834 
Q 2344 984 2344 1194 
L 2388 509 
Q 2300 291 2086 117 
Q 1872 -56 1528 -56 
z
" transform="scale(0.015625)"/>
       <path id="Bahnschrift-41" d="M 125 0 
L 1800 4544 
L 2344 4544 
L 4019 0 
L 3331 0 
L 2072 3666 
L 813 0 
L 125 0 
z
M 897 997 
L 897 1603 
L 3288 1603 
L 3288 997 
L 897 997 
z
" transform="scale(0.015625)"/>
       <path id="Bahnschrift-76" d="M 1616 928 
L 2409 3244 
L 3075 3244 
L 1856 0 
L 1375 0 
L 156 3244 
L 822 3244 
L 1616 928 
z
" transform="scale(0.015625)"/>
       <path id="Bahnschrift-28" d="M 1672 -978 
Q 1116 -375 839 373 
Q 563 1122 563 2025 
Q 563 2928 839 3676 
Q 1116 4425 1672 5028 
L 2109 4631 
Q 1638 4106 1403 3456 
Q 1169 2806 1169 2025 
Q 1169 1244 1403 594 
Q 1638 -56 2109 -584 
L 1672 -978 
z
" transform="scale(0.015625)"/>
       <path id="Bahnschrift-29" d="M 500 -978 
L 63 -584 
Q 534 -56 768 594 
Q 1003 1244 1003 2025 
Q 1003 2806 768 3456 
Q 534 4106 63 4631 
L 500 5028 
Q 1056 4425 1332 3676 
Q 1609 2928 1609 2025 
Q 1609 1122 1332 373 
Q 1056 -375 500 -978 
z
" transform="scale(0.015625)"/>
      </defs>
      <use xlink:href="#Bahnschrift-4d"/>
      <use xlink:href="#Bahnschrift-65" x="77.929688"/>
      <use xlink:href="#Bahnschrift-61" x="131.542969"/>
      <use xlink:href="#Bahnschrift-6e" x="184.765625"/>
      <use xlink:href="#Bahnschrift-20" x="240.625"/>
      <use xlink:href="#Bahnschrift-54" x="267.480469"/>
      <use xlink:href="#Bahnschrift-69" x="315.625"/>
      <use xlink:href="#Bahnschrift-6d" x="340.722656"/>
      <use xlink:href="#Bahnschrift-65" x="426.367188"/>
      <use xlink:href="#Bahnschrift-20" x="479.980469"/>
      <use xlink:href="#Bahnschrift-5b" x="506.835938"/>
      <use xlink:href="#Bahnschrift-52" x="536.230469"/>
      <use xlink:href="#Bahnschrift-6f" x="601.416016"/>
      <use xlink:href="#Bahnschrift-6c" x="655.908203"/>
      <use xlink:href="#Bahnschrift-6c" x="684.863281"/>
      <use xlink:href="#Bahnschrift-69" x="713.818359"/>
      <use xlink:href="#Bahnschrift-6e" x="738.916016"/>
      <use xlink:href="#Bahnschrift-67" x="794.775391"/>
      <use xlink:href="#Bahnschrift-20" x="848.681641"/>
      <use xlink:href="#Bahnschrift-41" x="875.537109"/>
      <use xlink:href="#Bahnschrift-76" x="940.283203"/>
      <use xlink:href="#Bahnschrift-65" x="990.283203"/>
      <use xlink:href="#Bahnschrift-72" x="1043.896484"/>
      <use xlink:href="#Bahnschrift-61" x="1086.572266"/>
      <use xlink:href="#Bahnschrift-67" x="1139.794922"/>
      <use xlink:href="#Bahnschrift-65" x="1193.701172"/>
      <use xlink:href="#Bahnschrift-20" x="1247.314453"/>
      <use xlink:href="#Bahnschrift-28" x="1274.169922"/>
      <use xlink:href="#Bahnschrift-32" x="1308.105469"/>
      <use xlink:href="#Bahnschrift-30" x="1359.765625"/>
      <use xlink:href="#Bahnschrift-29" x="1414.941406"/>
      <use xlink:href="#Bahnschrift-5d" x="1448.876953"/>
     </g>
    </g>
    <g id="patch_8">
     <path d="M 767 67.04 
L 799 67.04 
L 799 55.84 
L 767 55.84 
z
" style="fill: #d2dbe0; stroke: #d2dbe0; stroke-linejoin: miter"/>
    </g>
    <g id="text_14">
     <!-- 90% Percentiles -->
     <g transform="translate(811.8 67.04) scale(0.16 -0.16)">
      <defs>
       <path id="Bahnschrift-39" d="M 934 0 
L 2078 2256 
L 2075 2144 
Q 1994 1997 1834 1931 
Q 1675 1866 1466 1866 
Q 975 1866 675 2230 
Q 375 2594 375 3197 
L 375 3200 
Q 375 3863 708 4227 
Q 1041 4591 1644 4591 
Q 2247 4591 2578 4223 
Q 2909 3856 2909 3184 
L 2909 3181 
Q 2909 2903 2828 2579 
Q 2747 2256 2591 1947 
L 1622 0 
L 934 0 
z
M 1644 2447 
Q 1944 2447 2108 2650 
Q 2272 2853 2272 3222 
L 2272 3225 
Q 2272 3584 2108 3781 
Q 1944 3978 1644 3978 
Q 1341 3978 1177 3781 
Q 1013 3584 1013 3222 
L 1013 3219 
Q 1013 2850 1177 2648 
Q 1341 2447 1644 2447 
z
" transform="scale(0.015625)"/>
       <path id="Bahnschrift-25" d="M 666 0 
L 3134 4544 
L 3694 4544 
L 1225 0 
L 666 0 
z
M 3328 -47 
Q 2966 -47 2769 164 
Q 2572 375 2572 753 
L 2572 1144 
Q 2572 1522 2769 1733 
Q 2966 1944 3328 1944 
Q 3691 1944 3887 1731 
Q 4084 1519 4084 1138 
L 4084 753 
Q 4084 375 3887 164 
Q 3691 -47 3328 -47 
z
M 3328 450 
Q 3563 450 3563 722 
L 3563 1181 
Q 3563 1444 3328 1444 
Q 3094 1444 3094 1178 
L 3094 722 
Q 3094 450 3328 450 
z
M 1069 2597 
Q 706 2597 509 2808 
Q 313 3019 313 3397 
L 313 3788 
Q 313 4166 509 4377 
Q 706 4588 1069 4588 
Q 1431 4588 1628 4375 
Q 1825 4163 1825 3781 
L 1825 3397 
Q 1825 3019 1628 2808 
Q 1431 2597 1069 2597 
z
M 1069 3094 
Q 1303 3094 1303 3366 
L 1303 3825 
Q 1303 4088 1069 4088 
Q 834 4088 834 3822 
L 834 3366 
Q 834 3094 1069 3094 
z
" transform="scale(0.015625)"/>
       <path id="Bahnschrift-50" d="M 891 1763 
L 891 2369 
L 2344 2369 
Q 2656 2369 2845 2584 
Q 3034 2800 3034 3150 
L 3034 3150 
Q 3034 3506 2845 3722 
Q 2656 3938 2344 3938 
L 891 3938 
L 891 4544 
L 2322 4544 
Q 2734 4544 3040 4370 
Q 3347 4197 3517 3884 
Q 3688 3572 3688 3150 
L 3688 3150 
Q 3688 2731 3517 2418 
Q 3347 2106 3040 1934 
Q 2734 1763 2322 1763 
L 891 1763 
z
M 563 0 
L 563 4544 
L 1200 4544 
L 1200 0 
L 563 0 
z
" transform="scale(0.015625)"/>
       <path id="Bahnschrift-63" d="M 1809 -47 
Q 1141 -47 773 322 
Q 406 691 406 1363 
L 406 1897 
Q 406 2563 773 2927 
Q 1141 3291 1809 3291 
Q 2191 3291 2497 3156 
Q 2803 3022 2984 2772 
L 2984 2772 
L 2525 2359 
L 2525 2359 
Q 2391 2516 2206 2600 
Q 2022 2684 1819 2684 
Q 1450 2684 1247 2478 
Q 1044 2272 1044 1897 
L 1044 1363 
Q 1044 978 1247 768 
Q 1450 559 1819 559 
Q 2022 559 2206 650 
Q 2391 741 2525 906 
L 2525 906 
L 2984 463 
L 2984 463 
Q 2803 219 2495 86 
Q 2188 -47 1809 -47 
z
" transform="scale(0.015625)"/>
       <path id="Bahnschrift-74" d="M 1344 -16 
Q 944 -16 764 206 
Q 584 428 584 844 
L 584 4188 
L 1222 4188 
L 1222 838 
Q 1222 722 1269 656 
Q 1316 591 1406 591 
L 1713 591 
L 1713 -16 
L 1344 -16 
z
M 250 2669 
L 250 3244 
L 1713 3244 
L 1713 2669 
L 250 2669 
z
" transform="scale(0.015625)"/>
      </defs>
      <use xlink:href="#Bahnschrift-39"/>
      <use xlink:href="#Bahnschrift-30" x="51.318359"/>
      <use xlink:href="#Bahnschrift-25" x="106.494141"/>
      <use xlink:href="#Bahnschrift-20" x="175.195312"/>
      <use xlink:href="#Bahnschrift-50" x="202.050781"/>
      <use xlink:href="#Bahnschrift-65" x="264.306641"/>
      <use xlink:href="#Bahnschrift-72" x="317.919922"/>
      <use xlink:href="#Bahnschrift-63" x="360.595703"/>
      <use xlink:href="#Bahnschrift-65" x="410.400391"/>
      <use xlink:href="#Bahnschrift-6e" x="464.013672"/>
      <use xlink:href="#Bahnschrift-74" x="519.873047"/>
      <use xlink:href="#Bahnschrift-69" x="552.490234"/>
      <use xlink:href="#Bahnschrift-6c" x="577.587891"/>
      <use xlink:href="#Bahnschrift-65" x="606.542969"/>
      <use xlink:href="#Bahnschrift-73" x="660.15625"/>
     </g>
    </g>
   </g>
  </g>
 </g>
 <defs>
  <clipPath id="p368739d224">
   <rect x="74.6975" y="17.28" width="988.0225" height="210.76"/>
  </clipPath>
 </defs>
</svg>
