<?xml version="1.0" encoding="utf-8" standalone="no"?>
<!DOCTYPE svg PUBLIC "-//W3C//DTD SVG 1.1//EN"
  "http://www.w3.org/Graphics/SVG/1.1/DTD/svg11.dtd">
<svg xmlns:xlink="http://www.w3.org/1999/xlink" width="1080pt" height="288pt" viewBox="0 0 1080 288" xmlns="http://www.w3.org/2000/svg" version="1.1">
 <metadata>
  <rdf:RDF xmlns:dc="http://purl.org/dc/elements/1.1/" xmlns:cc="http://creativecommons.org/ns#" xmlns:rdf="http://www.w3.org/1999/02/22-rdf-syntax-ns#">
   <cc:Work>
    <dc:type rdf:resource="http://purl.org/dc/dcmitype/StillImage"/>
    <dc:date>2024-05-29T19:40:59.356138</dc:date>
    <dc:format>image/svg+xml</dc:format>
    <dc:creator>
     <cc:Agent>
      <dc:title>Matplotlib v3.8.2, https://matplotlib.org/</dc:title>
     </cc:Agent>
    </dc:creator>
   </cc:Work>
  </rdf:RDF>
 </metadata>
 <defs>
  <style type="text/css">*{stroke-linejoin: round; stroke-linecap: butt}</style>
 </defs>
 <g id="figure_1">
  <g id="patch_1">
   <path d="M 0 288 
L 1080 288 
L 1080 0 
L 0 0 
z
" style="fill: #ffffff"/>
  </g>
  <g id="axes_1">
   <g id="patch_2">
    <path d="M 99.02 228.04 
L 1062.72 228.04 
L 1062.72 17.28 
L 99.02 17.28 
z
" style="fill: #ffffff"/>
   </g>
   <g id="matplotlib.axis_1">
    <g id="xtick_1">
     <g id="line2d_1">
      <defs>
       <path id="m6244b05b96" d="M 0 0 
L 0 3.5 
" style="stroke: #000000; stroke-width: 0.8"/>
      </defs>
      <g>
       <use xlink:href="#m6244b05b96" x="103.596594" y="228.04" style="stroke: #000000; stroke-width: 0.8"/>
      </g>
     </g>
     <g id="text_1">
      <!-- 0 -->
      <g transform="translate(99.182844 246.4) scale(0.16 -0.16)">
       <defs>
        <path id="Bahnschrift-30" d="M 1766 -47 
Q 1116 -47 792 301 
Q 469 650 469 1244 
L 469 3309 
Q 469 3913 797 4256 
Q 1125 4600 1766 4600 
Q 2409 4600 2736 4258 
Q 3063 3916 3063 3309 
L 3063 1244 
Q 3063 641 2736 297 
Q 2409 -47 1766 -47 
z
M 1766 559 
Q 2116 559 2270 742 
Q 2425 925 2425 1244 
L 2425 3309 
Q 2425 3631 2270 3812 
Q 2116 3994 1766 3994 
Q 1416 3994 1261 3812 
Q 1106 3631 1106 3309 
L 1106 1244 
Q 1106 925 1261 742 
Q 1416 559 1766 559 
z
" transform="scale(0.015625)"/>
       </defs>
       <use xlink:href="#Bahnschrift-30"/>
      </g>
     </g>
    </g>
    <g id="xtick_2">
     <g id="line2d_2">
      <g>
       <use xlink:href="#m6244b05b96" x="290.396362" y="228.04" style="stroke: #000000; stroke-width: 0.8"/>
      </g>
     </g>
     <g id="text_2">
      <!-- 1000 -->
      <g transform="translate(274.495112 246.4) scale(0.16 -0.16)">
       <defs>
        <path id="Bahnschrift-31" d="M 1566 4544 
L 1566 0 
L 928 0 
L 928 3850 
L 281 3453 
L 281 4113 
L 928 4544 
L 1566 4544 
z
" transform="scale(0.015625)"/>
       </defs>
       <use xlink:href="#Bahnschrift-31"/>
       <use xlink:href="#Bahnschrift-30" x="33.251953"/>
       <use xlink:href="#Bahnschrift-30" x="88.427734"/>
       <use xlink:href="#Bahnschrift-30" x="143.603516"/>
      </g>
     </g>
    </g>
    <g id="xtick_3">
     <g id="line2d_3">
      <g>
       <use xlink:href="#m6244b05b96" x="477.196129" y="228.04" style="stroke: #000000; stroke-width: 0.8"/>
      </g>
     </g>
     <g id="text_3">
      <!-- 2000 -->
      <g transform="translate(459.822379 246.4) scale(0.16 -0.16)">
       <defs>
        <path id="Bahnschrift-32" d="M 400 0 
L 400 553 
L 1984 2666 
Q 2122 2847 2198 3040 
Q 2275 3234 2275 3406 
L 2275 3413 
Q 2275 3684 2115 3834 
Q 1956 3984 1663 3984 
Q 1388 3984 1214 3820 
Q 1041 3656 1003 3356 
L 1003 3353 
L 344 3353 
L 344 3356 
Q 428 3944 772 4267 
Q 1116 4591 1656 4591 
Q 2269 4591 2603 4281 
Q 2938 3972 2938 3406 
L 2938 3403 
Q 2938 3163 2838 2898 
Q 2738 2634 2559 2394 
L 1244 606 
L 2963 606 
L 2963 0 
L 400 0 
z
" transform="scale(0.015625)"/>
       </defs>
       <use xlink:href="#Bahnschrift-32"/>
       <use xlink:href="#Bahnschrift-30" x="51.660156"/>
       <use xlink:href="#Bahnschrift-30" x="106.835938"/>
       <use xlink:href="#Bahnschrift-30" x="162.011719"/>
      </g>
     </g>
    </g>
    <g id="xtick_4">
     <g id="line2d_4">
      <g>
       <use xlink:href="#m6244b05b96" x="663.995896" y="228.04" style="stroke: #000000; stroke-width: 0.8"/>
      </g>
     </g>
     <g id="text_4">
      <!-- 3000 -->
      <g transform="translate(646.524646 246.4) scale(0.16 -0.16)">
       <defs>
        <path id="Bahnschrift-33" d="M 1644 -47 
Q 1259 -47 970 92 
Q 681 231 506 493 
Q 331 756 281 1131 
L 281 1131 
L 931 1131 
L 931 1131 
Q 975 838 1162 702 
Q 1350 566 1644 566 
Q 1959 566 2134 734 
Q 2309 903 2309 1209 
L 2309 1347 
Q 2309 1688 2143 1873 
Q 1978 2059 1675 2059 
L 1353 2059 
L 1353 2666 
L 1675 2666 
Q 1944 2666 2089 2825 
Q 2234 2984 2234 3275 
L 2234 3416 
Q 2234 3684 2079 3831 
Q 1925 3978 1641 3978 
Q 1400 3978 1233 3842 
Q 1066 3706 1003 3413 
L 1003 3413 
L 356 3413 
L 356 3413 
Q 453 3975 789 4283 
Q 1125 4591 1641 4591 
Q 2228 4591 2550 4281 
Q 2872 3972 2872 3409 
L 2872 3334 
Q 2872 2994 2687 2742 
Q 2503 2491 2166 2372 
Q 2538 2294 2742 2008 
Q 2947 1722 2947 1281 
L 2947 1206 
Q 2947 609 2606 281 
Q 2266 -47 1644 -47 
z
" transform="scale(0.015625)"/>
       </defs>
       <use xlink:href="#Bahnschrift-33"/>
       <use xlink:href="#Bahnschrift-30" x="52.880859"/>
       <use xlink:href="#Bahnschrift-30" x="108.056641"/>
       <use xlink:href="#Bahnschrift-30" x="163.232422"/>
      </g>
     </g>
    </g>
    <g id="xtick_5">
     <g id="line2d_5">
      <g>
       <use xlink:href="#m6244b05b96" x="850.795664" y="228.04" style="stroke: #000000; stroke-width: 0.8"/>
      </g>
     </g>
     <g id="text_5">
      <!-- 4000 -->
      <g transform="translate(833.003164 246.4) scale(0.16 -0.16)">
       <defs>
        <path id="Bahnschrift-34" d="M 406 697 
L 406 1250 
L 1931 4541 
L 2588 4541 
L 1100 1288 
L 3328 1288 
L 3328 697 
L 406 697 
z
M 2366 -3 
L 2366 2672 
L 2988 2672 
L 2988 -3 
L 2366 -3 
z
" transform="scale(0.015625)"/>
       </defs>
       <use xlink:href="#Bahnschrift-34"/>
       <use xlink:href="#Bahnschrift-30" x="56.884766"/>
       <use xlink:href="#Bahnschrift-30" x="112.060547"/>
       <use xlink:href="#Bahnschrift-30" x="167.236328"/>
      </g>
     </g>
    </g>
    <g id="xtick_6">
     <g id="line2d_6">
      <g>
       <use xlink:href="#m6244b05b96" x="1037.595431" y="228.04" style="stroke: #000000; stroke-width: 0.8"/>
      </g>
     </g>
     <g id="text_6">
      <!-- 5000 -->
      <g transform="translate(1019.999181 246.4) scale(0.16 -0.16)">
       <defs>
        <path id="Bahnschrift-35" d="M 1738 -47 
Q 1219 -47 886 251 
Q 553 550 469 1094 
L 469 1097 
L 1106 1097 
L 1106 1094 
Q 1141 844 1306 705 
Q 1472 566 1738 566 
Q 2044 566 2211 770 
Q 2378 975 2378 1347 
L 2378 1728 
Q 2378 2100 2211 2303 
Q 2044 2506 1738 2506 
Q 1572 2506 1419 2412 
Q 1266 2319 1150 2150 
L 569 2150 
L 569 4544 
L 2884 4544 
L 2884 3938 
L 1206 3938 
L 1206 2916 
Q 1325 3013 1472 3066 
Q 1619 3119 1772 3119 
Q 2366 3119 2691 2755 
Q 3016 2391 3016 1728 
L 3016 1347 
Q 3016 681 2681 317 
Q 2347 -47 1738 -47 
z
" transform="scale(0.015625)"/>
       </defs>
       <use xlink:href="#Bahnschrift-35"/>
       <use xlink:href="#Bahnschrift-30" x="54.443359"/>
       <use xlink:href="#Bahnschrift-30" x="109.619141"/>
       <use xlink:href="#Bahnschrift-30" x="164.794922"/>
      </g>
     </g>
    </g>
    <g id="text_7">
     <!-- Number of Samples -->
     <g transform="translate(509.5825 265.175) scale(0.16 -0.16)">
      <defs>
       <path id="Bahnschrift-4e" d="M 563 3 
L 563 4544 
L 1141 4544 
L 3363 1031 
L 3288 950 
L 3288 4544 
L 3919 4544 
L 3919 3 
L 3334 3 
L 1119 3463 
L 1194 3544 
L 1194 3 
L 563 3 
z
" transform="scale(0.015625)"/>
       <path id="Bahnschrift-75" d="M 2456 0 
L 2456 3244 
L 3091 3244 
L 3091 0 
L 2456 0 
z
M 1138 3244 
L 1138 1272 
Q 1138 931 1311 745 
Q 1484 559 1800 559 
Q 2116 559 2286 726 
Q 2456 894 2456 1197 
L 2500 519 
Q 2413 300 2194 126 
Q 1975 -47 1622 -47 
Q 1084 -47 792 298 
Q 500 644 500 1272 
L 500 3244 
L 1138 3244 
z
" transform="scale(0.015625)"/>
       <path id="Bahnschrift-6d" d="M 4375 0 
L 4375 1966 
Q 4375 2309 4198 2496 
Q 4022 2684 3697 2684 
Q 3400 2684 3237 2503 
Q 3075 2322 3075 1991 
L 2947 2616 
Q 3103 2941 3353 3116 
Q 3603 3291 3906 3291 
Q 4434 3291 4723 2945 
Q 5013 2600 5013 1969 
L 5013 0 
L 4375 0 
z
M 500 0 
L 500 3244 
L 1138 3244 
L 1138 0 
L 500 0 
z
M 2438 0 
L 2438 1966 
Q 2438 2309 2269 2496 
Q 2100 2684 1791 2684 
Q 1478 2684 1308 2518 
Q 1138 2353 1138 2053 
L 1072 2678 
Q 1222 2972 1464 3131 
Q 1706 3291 2000 3291 
Q 2513 3291 2794 2945 
Q 3075 2600 3075 1969 
L 3075 0 
L 2438 0 
z
" transform="scale(0.015625)"/>
       <path id="Bahnschrift-62" d="M 1953 -47 
Q 1650 -47 1425 98 
Q 1200 244 1094 509 
L 1138 1188 
Q 1138 978 1213 831 
Q 1288 684 1430 606 
Q 1572 528 1775 528 
Q 2091 528 2264 720 
Q 2438 913 2438 1263 
L 2438 1966 
Q 2438 2322 2264 2519 
Q 2091 2716 1775 2716 
Q 1572 2716 1430 2641 
Q 1288 2566 1213 2422 
Q 1138 2278 1138 2072 
L 1072 2697 
Q 1219 2981 1456 3136 
Q 1694 3291 1984 3291 
Q 2506 3291 2790 2945 
Q 3075 2600 3075 1969 
L 3075 1263 
Q 3075 641 2781 297 
Q 2488 -47 1953 -47 
z
M 500 0 
L 500 4544 
L 1138 4544 
L 1138 0 
L 500 0 
z
" transform="scale(0.015625)"/>
       <path id="Bahnschrift-65" d="M 1828 -47 
Q 1150 -47 778 331 
Q 406 709 406 1406 
L 406 1772 
Q 406 2497 764 2894 
Q 1122 3291 1772 3291 
Q 2384 3291 2720 2841 
Q 3056 2391 3056 1578 
L 3056 1366 
L 869 1366 
L 869 1878 
L 2450 1878 
L 2450 1878 
Q 2422 2272 2245 2494 
Q 2069 2716 1772 2716 
Q 1413 2716 1213 2478 
Q 1013 2241 1013 1806 
L 1013 1394 
Q 1013 991 1227 775 
Q 1441 559 1828 559 
Q 2022 559 2212 637 
Q 2403 716 2553 856 
L 2553 856 
L 2972 438 
L 2972 438 
Q 2731 206 2431 79 
Q 2131 -47 1828 -47 
z
" transform="scale(0.015625)"/>
       <path id="Bahnschrift-72" d="M 500 0 
L 500 3244 
L 1138 3244 
L 1138 0 
L 500 0 
z
M 2284 2475 
Q 2200 2578 2072 2631 
Q 1944 2684 1775 2684 
Q 1472 2684 1305 2517 
Q 1138 2350 1138 2053 
L 1072 2678 
Q 1219 2966 1458 3128 
Q 1697 3291 1984 3291 
Q 2206 3291 2386 3227 
Q 2566 3163 2700 3038 
L 2284 2475 
z
" transform="scale(0.015625)"/>
       <path id="Bahnschrift-20" transform="scale(0.015625)"/>
       <path id="Bahnschrift-6f" d="M 1744 -47 
Q 1106 -47 756 323 
Q 406 694 406 1366 
L 406 1894 
Q 406 2559 756 2925 
Q 1106 3291 1744 3291 
Q 2381 3291 2731 2925 
Q 3081 2559 3081 1894 
L 3081 1356 
Q 3081 688 2731 320 
Q 2381 -47 1744 -47 
z
M 1744 559 
Q 2078 559 2261 768 
Q 2444 978 2444 1356 
L 2444 1894 
Q 2444 2272 2261 2478 
Q 2078 2684 1744 2684 
Q 1413 2684 1228 2478 
Q 1044 2272 1044 1894 
L 1044 1356 
Q 1044 978 1228 768 
Q 1413 559 1744 559 
z
" transform="scale(0.015625)"/>
       <path id="Bahnschrift-66" d="M 594 0 
L 594 3684 
Q 594 4113 791 4328 
Q 988 4544 1403 4544 
L 1872 4544 
L 1872 3938 
L 1416 3938 
Q 1319 3938 1275 3864 
Q 1231 3791 1231 3691 
L 1231 0 
L 594 0 
z
M 250 2700 
L 250 3244 
L 1872 3244 
L 1872 2700 
L 250 2700 
z
" transform="scale(0.015625)"/>
       <path id="Bahnschrift-53" d="M 1928 -47 
Q 1597 -47 1305 15 
Q 1013 78 758 203 
Q 503 328 281 516 
L 281 516 
L 678 1003 
L 678 1003 
Q 938 778 1250 665 
Q 1563 553 1928 553 
Q 2422 553 2694 737 
Q 2966 922 2966 1253 
L 2966 1256 
Q 2966 1516 2828 1653 
Q 2691 1791 2467 1858 
Q 2244 1925 1978 1969 
Q 1722 2013 1461 2072 
Q 1200 2131 981 2257 
Q 763 2384 630 2621 
Q 497 2859 497 3256 
L 497 3259 
Q 497 3894 919 4242 
Q 1341 4591 2109 4591 
Q 2475 4591 2825 4473 
Q 3175 4356 3506 4116 
L 3506 4116 
L 3144 3609 
L 3144 3609 
Q 2884 3803 2626 3897 
Q 2369 3991 2109 3991 
Q 1644 3991 1386 3805 
Q 1128 3619 1128 3278 
L 1128 3275 
Q 1128 3019 1278 2884 
Q 1428 2750 1670 2686 
Q 1913 2622 2191 2566 
Q 2441 2516 2691 2445 
Q 2941 2375 3145 2242 
Q 3350 2109 3473 1878 
Q 3597 1647 3597 1275 
L 3597 1269 
Q 3597 641 3159 297 
Q 2722 -47 1928 -47 
z
" transform="scale(0.015625)"/>
       <path id="Bahnschrift-61" d="M 2331 0 
L 2331 2056 
Q 2331 2375 2161 2551 
Q 1991 2728 1678 2728 
Q 1488 2728 1302 2670 
Q 1116 2613 969 2503 
L 503 2822 
Q 688 3044 989 3167 
Q 1291 3291 1659 3291 
Q 2269 3291 2603 2975 
Q 2938 2659 2938 2084 
L 2938 0 
L 2331 0 
z
M 1538 -47 
Q 941 -47 642 200 
Q 344 447 344 956 
Q 344 1441 617 1680 
Q 891 1919 1438 1919 
L 2359 1919 
L 2403 1406 
L 1441 1406 
Q 1194 1406 1069 1295 
Q 944 1184 944 956 
Q 944 709 1109 590 
Q 1275 472 1606 472 
Q 1969 472 2150 550 
Q 2331 628 2331 794 
L 2397 338 
Q 2313 206 2188 122 
Q 2063 38 1902 -4 
Q 1741 -47 1538 -47 
z
" transform="scale(0.015625)"/>
       <path id="Bahnschrift-70" d="M 500 -1319 
L 500 3244 
L 1138 3244 
L 1138 -1319 
L 500 -1319 
z
M 1953 -47 
Q 1650 -47 1425 98 
Q 1200 244 1094 509 
L 1138 1188 
Q 1138 978 1213 831 
Q 1288 684 1430 606 
Q 1572 528 1775 528 
Q 2091 528 2264 720 
Q 2438 913 2438 1263 
L 2438 1966 
Q 2438 2322 2264 2519 
Q 2091 2716 1775 2716 
Q 1572 2716 1430 2641 
Q 1288 2566 1213 2422 
Q 1138 2278 1138 2072 
L 1072 2697 
Q 1219 2981 1456 3136 
Q 1694 3291 1984 3291 
Q 2506 3291 2790 2945 
Q 3075 2600 3075 1969 
L 3075 1263 
Q 3075 641 2781 297 
Q 2488 -47 1953 -47 
z
" transform="scale(0.015625)"/>
       <path id="Bahnschrift-6c" d="M 1138 4544 
L 1138 838 
Q 1138 722 1189 656 
Q 1241 591 1334 591 
L 1634 591 
L 1634 -16 
L 1259 -16 
Q 900 -16 700 209 
Q 500 434 500 844 
L 500 4544 
L 1138 4544 
z
" transform="scale(0.015625)"/>
       <path id="Bahnschrift-73" d="M 1647 -47 
Q 1216 -47 864 79 
Q 513 206 234 459 
L 234 459 
L 613 925 
L 613 925 
Q 878 725 1136 625 
Q 1394 525 1647 525 
Q 2025 525 2214 642 
Q 2403 759 2403 994 
Q 2403 1175 2276 1250 
Q 2150 1325 1945 1348 
Q 1741 1372 1506 1388 
Q 1309 1403 1115 1436 
Q 922 1469 762 1555 
Q 603 1641 508 1809 
Q 413 1978 413 2263 
Q 413 2778 728 3034 
Q 1044 3291 1669 3291 
Q 2050 3291 2378 3187 
Q 2706 3084 2994 2872 
L 2994 2872 
L 2609 2406 
L 2609 2406 
Q 2366 2563 2130 2641 
Q 1894 2719 1669 2719 
Q 1344 2719 1181 2608 
Q 1019 2497 1019 2275 
Q 1019 2128 1131 2064 
Q 1244 2000 1428 1981 
Q 1613 1963 1825 1947 
Q 2028 1934 2236 1901 
Q 2444 1869 2619 1775 
Q 2794 1681 2900 1497 
Q 3006 1313 3006 994 
Q 3006 472 2667 212 
Q 2328 -47 1647 -47 
z
" transform="scale(0.015625)"/>
      </defs>
      <use xlink:href="#Bahnschrift-4e"/>
      <use xlink:href="#Bahnschrift-75" x="70.019531"/>
      <use xlink:href="#Bahnschrift-6d" x="125.634766"/>
      <use xlink:href="#Bahnschrift-62" x="211.279297"/>
      <use xlink:href="#Bahnschrift-65" x="265.673828"/>
      <use xlink:href="#Bahnschrift-72" x="319.287109"/>
      <use xlink:href="#Bahnschrift-20" x="361.962891"/>
      <use xlink:href="#Bahnschrift-6f" x="388.818359"/>
      <use xlink:href="#Bahnschrift-66" x="443.310547"/>
      <use xlink:href="#Bahnschrift-20" x="475"/>
      <use xlink:href="#Bahnschrift-53" x="501.855469"/>
      <use xlink:href="#Bahnschrift-61" x="563.427734"/>
      <use xlink:href="#Bahnschrift-6d" x="616.650391"/>
      <use xlink:href="#Bahnschrift-70" x="702.294922"/>
      <use xlink:href="#Bahnschrift-6c" x="756.689453"/>
      <use xlink:href="#Bahnschrift-65" x="785.644531"/>
      <use xlink:href="#Bahnschrift-73" x="839.257812"/>
     </g>
    </g>
   </g>
   <g id="matplotlib.axis_2">
    <g id="ytick_1">
     <g id="line2d_7">
      <defs>
       <path id="m9256fe6ebf" d="M 0 0 
L -3.5 0 
" style="stroke: #000000; stroke-width: 0.8"/>
      </defs>
      <g>
       <use xlink:href="#m9256fe6ebf" x="99.02" y="203.966746" style="stroke: #000000; stroke-width: 0.8"/>
      </g>
     </g>
     <g id="text_8">
      <!-- -0.0002 -->
      <g transform="translate(37.1475 209.646746) scale(0.16 -0.16)">
       <defs>
        <path id="Bahnschrift-2d" d="M 500 1931 
L 2600 1931 
L 2600 1325 
L 500 1325 
L 500 1931 
z
" transform="scale(0.015625)"/>
        <path id="Bahnschrift-2e" d="M 391 0 
L 391 669 
L 1059 669 
L 1059 0 
L 391 0 
z
" transform="scale(0.015625)"/>
       </defs>
       <use xlink:href="#Bahnschrift-2d"/>
       <use xlink:href="#Bahnschrift-30" x="47.949219"/>
       <use xlink:href="#Bahnschrift-2e" x="103.125"/>
       <use xlink:href="#Bahnschrift-30" x="125.78125"/>
       <use xlink:href="#Bahnschrift-30" x="180.957031"/>
       <use xlink:href="#Bahnschrift-30" x="236.132812"/>
       <use xlink:href="#Bahnschrift-32" x="291.308594"/>
      </g>
     </g>
    </g>
    <g id="ytick_2">
     <g id="line2d_8">
      <g>
       <use xlink:href="#m9256fe6ebf" x="99.02" y="165.518954" style="stroke: #000000; stroke-width: 0.8"/>
      </g>
     </g>
     <g id="text_9">
      <!-- -0.0001 -->
      <g transform="translate(40.0925 171.198954) scale(0.16 -0.16)">
       <use xlink:href="#Bahnschrift-2d"/>
       <use xlink:href="#Bahnschrift-30" x="47.949219"/>
       <use xlink:href="#Bahnschrift-2e" x="103.125"/>
       <use xlink:href="#Bahnschrift-30" x="125.78125"/>
       <use xlink:href="#Bahnschrift-30" x="180.957031"/>
       <use xlink:href="#Bahnschrift-30" x="236.132812"/>
       <use xlink:href="#Bahnschrift-31" x="291.308594"/>
      </g>
     </g>
    </g>
    <g id="ytick_3">
     <g id="line2d_9">
      <g>
       <use xlink:href="#m9256fe6ebf" x="99.02" y="127.071161" style="stroke: #000000; stroke-width: 0.8"/>
      </g>
     </g>
     <g id="text_10">
      <!-- 0.0000 -->
      <g transform="translate(44.2575 132.751161) scale(0.16 -0.16)">
       <use xlink:href="#Bahnschrift-30"/>
       <use xlink:href="#Bahnschrift-2e" x="55.175781"/>
       <use xlink:href="#Bahnschrift-30" x="77.832031"/>
       <use xlink:href="#Bahnschrift-30" x="133.007812"/>
       <use xlink:href="#Bahnschrift-30" x="188.183594"/>
       <use xlink:href="#Bahnschrift-30" x="243.359375"/>
      </g>
     </g>
    </g>
    <g id="ytick_4">
     <g id="line2d_10">
      <g>
       <use xlink:href="#m9256fe6ebf" x="99.02" y="88.623369" style="stroke: #000000; stroke-width: 0.8"/>
      </g>
     </g>
     <g id="text_11">
      <!-- 0.0001 -->
      <g transform="translate(47.765 94.303369) scale(0.16 -0.16)">
       <use xlink:href="#Bahnschrift-30"/>
       <use xlink:href="#Bahnschrift-2e" x="55.175781"/>
       <use xlink:href="#Bahnschrift-30" x="77.832031"/>
       <use xlink:href="#Bahnschrift-30" x="133.007812"/>
       <use xlink:href="#Bahnschrift-30" x="188.183594"/>
       <use xlink:href="#Bahnschrift-31" x="243.359375"/>
      </g>
     </g>
    </g>
    <g id="ytick_5">
     <g id="line2d_11">
      <g>
       <use xlink:href="#m9256fe6ebf" x="99.02" y="50.175576" style="stroke: #000000; stroke-width: 0.8"/>
      </g>
     </g>
     <g id="text_12">
      <!-- 0.0002 -->
      <g transform="translate(44.82 55.855576) scale(0.16 -0.16)">
       <use xlink:href="#Bahnschrift-30"/>
       <use xlink:href="#Bahnschrift-2e" x="55.175781"/>
       <use xlink:href="#Bahnschrift-30" x="77.832031"/>
       <use xlink:href="#Bahnschrift-30" x="133.007812"/>
       <use xlink:href="#Bahnschrift-30" x="188.183594"/>
       <use xlink:href="#Bahnschrift-32" x="243.359375"/>
      </g>
     </g>
    </g>
    <g id="text_13">
     <!-- 2nd. Difference, mean: -0.00000 -->
     <g transform="translate(29.85 236.51625) rotate(-90) scale(0.16 -0.16)">
      <defs>
       <path id="Bahnschrift-6e" d="M 500 0 
L 500 3244 
L 1138 3244 
L 1138 0 
L 500 0 
z
M 2469 0 
L 2469 1966 
Q 2469 2309 2292 2496 
Q 2116 2684 1791 2684 
Q 1478 2684 1308 2518 
Q 1138 2353 1138 2053 
L 1072 2678 
Q 1222 2972 1464 3131 
Q 1706 3291 2000 3291 
Q 2528 3291 2817 2945 
Q 3106 2600 3106 1969 
L 3106 0 
L 2469 0 
z
" transform="scale(0.015625)"/>
       <path id="Bahnschrift-64" d="M 2344 0 
L 2344 4544 
L 2981 4544 
L 2981 0 
L 2344 0 
z
M 1528 -56 
Q 991 -56 698 289 
Q 406 634 406 1263 
L 406 1978 
Q 406 2609 692 2954 
Q 978 3300 1497 3300 
Q 1784 3300 2023 3150 
Q 2263 3000 2409 2728 
L 2344 2066 
Q 2344 2272 2269 2419 
Q 2194 2566 2051 2642 
Q 1909 2719 1706 2719 
Q 1391 2719 1217 2522 
Q 1044 2325 1044 1969 
L 1044 1263 
Q 1044 909 1217 717 
Q 1391 525 1706 525 
Q 1909 525 2051 604 
Q 2194 684 2269 834 
Q 2344 984 2344 1194 
L 2388 509 
Q 2300 291 2086 117 
Q 1872 -56 1528 -56 
z
" transform="scale(0.015625)"/>
       <path id="Bahnschrift-44" d="M 994 0 
L 994 606 
L 2022 606 
Q 2525 606 2801 867 
Q 3078 1128 3078 1603 
L 3078 2941 
Q 3078 3416 2801 3677 
Q 2525 3938 2022 3938 
L 994 3938 
L 994 4544 
L 2003 4544 
Q 2828 4544 3279 4117 
Q 3731 3691 3731 2916 
L 3731 1628 
Q 3731 1113 3528 748 
Q 3325 384 2937 192 
Q 2550 0 2000 0 
L 994 0 
z
M 563 0 
L 563 4544 
L 1200 4544 
L 1200 0 
L 563 0 
z
" transform="scale(0.015625)"/>
       <path id="Bahnschrift-69" d="M 500 3906 
L 500 4544 
L 1138 4544 
L 1138 3906 
L 500 3906 
z
M 500 0 
L 500 3244 
L 1138 3244 
L 1138 0 
L 500 0 
z
" transform="scale(0.015625)"/>
       <path id="Bahnschrift-63" d="M 1809 -47 
Q 1141 -47 773 322 
Q 406 691 406 1363 
L 406 1897 
Q 406 2563 773 2927 
Q 1141 3291 1809 3291 
Q 2191 3291 2497 3156 
Q 2803 3022 2984 2772 
L 2984 2772 
L 2525 2359 
L 2525 2359 
Q 2391 2516 2206 2600 
Q 2022 2684 1819 2684 
Q 1450 2684 1247 2478 
Q 1044 2272 1044 1897 
L 1044 1363 
Q 1044 978 1247 768 
Q 1450 559 1819 559 
Q 2022 559 2206 650 
Q 2391 741 2525 906 
L 2525 906 
L 2984 463 
L 2984 463 
Q 2803 219 2495 86 
Q 2188 -47 1809 -47 
z
" transform="scale(0.015625)"/>
       <path id="Bahnschrift-2c" d="M 391 -1038 
L 391 669 
L 1059 669 
L 1059 -344 
L 391 -1038 
z
" transform="scale(0.015625)"/>
       <path id="Bahnschrift-3a" d="M 391 0 
L 391 669 
L 1059 669 
L 1059 0 
L 391 0 
z
M 391 2606 
L 391 3275 
L 1059 3275 
L 1059 2606 
L 391 2606 
z
" transform="scale(0.015625)"/>
      </defs>
      <use xlink:href="#Bahnschrift-32"/>
      <use xlink:href="#Bahnschrift-6e" x="51.660156"/>
      <use xlink:href="#Bahnschrift-64" x="107.519531"/>
      <use xlink:href="#Bahnschrift-2e" x="161.425781"/>
      <use xlink:href="#Bahnschrift-20" x="184.082031"/>
      <use xlink:href="#Bahnschrift-44" x="210.9375"/>
      <use xlink:href="#Bahnschrift-69" x="276.5625"/>
      <use xlink:href="#Bahnschrift-66" x="301.660156"/>
      <use xlink:href="#Bahnschrift-66" x="333.349609"/>
      <use xlink:href="#Bahnschrift-65" x="365.039062"/>
      <use xlink:href="#Bahnschrift-72" x="418.652344"/>
      <use xlink:href="#Bahnschrift-65" x="461.328125"/>
      <use xlink:href="#Bahnschrift-6e" x="514.941406"/>
      <use xlink:href="#Bahnschrift-63" x="570.800781"/>
      <use xlink:href="#Bahnschrift-65" x="620.605469"/>
      <use xlink:href="#Bahnschrift-2c" x="674.21875"/>
      <use xlink:href="#Bahnschrift-20" x="696.875"/>
      <use xlink:href="#Bahnschrift-6d" x="723.730469"/>
      <use xlink:href="#Bahnschrift-65" x="809.375"/>
      <use xlink:href="#Bahnschrift-61" x="862.988281"/>
      <use xlink:href="#Bahnschrift-6e" x="916.210938"/>
      <use xlink:href="#Bahnschrift-3a" x="972.070312"/>
      <use xlink:href="#Bahnschrift-20" x="994.726562"/>
      <use xlink:href="#Bahnschrift-2d" x="1021.582031"/>
      <use xlink:href="#Bahnschrift-30" x="1069.53125"/>
      <use xlink:href="#Bahnschrift-2e" x="1124.707031"/>
      <use xlink:href="#Bahnschrift-30" x="1147.363281"/>
      <use xlink:href="#Bahnschrift-30" x="1202.539062"/>
      <use xlink:href="#Bahnschrift-30" x="1257.714844"/>
      <use xlink:href="#Bahnschrift-30" x="1312.890625"/>
      <use xlink:href="#Bahnschrift-30" x="1368.066406"/>
     </g>
    </g>
   </g>
   <g id="line2d_12">
    <path d="M 142.824545 162.496621 
L 144.692543 109.70335 
L 146.560541 107.206991 
L 148.428538 167.188809 
L 150.296536 120.648031 
L 152.164534 163.340275 
L 154.032531 66.454323 
L 155.900529 196.039155 
L 157.768527 101.715791 
L 159.636525 105.204487 
L 161.504522 114.30708 
L 163.37252 206.941532 
L 165.240518 77.027295 
L 167.108515 123.993223 
L 168.976513 154.078961 
L 170.844511 119.019114 
L 172.712508 116.559559 
L 174.580506 110.929163 
L 176.448504 134.808929 
L 178.316501 130.442341 
L 180.184499 63.820601 
L 182.052497 104.498012 
L 183.920494 142.197309 
L 185.788492 128.40569 
L 187.65649 117.550935 
L 189.524487 119.723572 
L 191.392485 169.264234 
L 193.260483 105.329841 
L 195.12848 128.094024 
L 196.996478 132.194641 
L 198.864476 120.104631 
L 200.732473 115.324901 
L 202.600471 150.818744 
L 204.468469 106.614229 
L 206.336466 126.838557 
L 208.204464 163.351367 
L 210.072462 138.595038 
L 211.940459 96.311536 
L 213.808457 143.127589 
L 215.676455 117.057905 
L 217.544452 171.609664 
L 219.41245 150.18661 
L 221.280448 148.591748 
L 223.148445 108.303325 
L 225.016443 131.270274 
L 226.884441 137.507046 
L 228.752438 114.624659 
L 230.620436 133.558641 
L 232.488434 115.223701 
L 234.356431 122.454002 
L 236.224429 141.893022 
L 238.092427 124.467827 
L 239.960425 112.481126 
L 241.828422 149.329435 
L 243.69642 137.410246 
L 245.564418 99.655674 
L 247.432415 94.481594 
L 249.300413 152.220419 
L 251.168411 147.813543 
L 253.036408 98.697986 
L 254.904406 162.055658 
L 256.772404 102.87872 
L 258.640401 133.20687 
L 260.508399 155.815357 
L 262.376397 134.435479 
L 264.244394 82.690921 
L 266.112392 150.608094 
L 267.98039 115.963589 
L 269.848387 138.047375 
L 271.716385 119.255614 
L 273.584383 177.119519 
L 275.45238 121.195373 
L 277.320378 85.493263 
L 279.188376 111.40748 
L 281.056373 143.960518 
L 282.924371 121.019006 
L 284.792369 145.101814 
L 286.660366 127.426415 
L 288.528364 94.903352 
L 290.396362 161.312791 
L 292.264359 83.3506 
L 294.132357 144.943689 
L 296.000355 127.491682 
L 297.868352 104.917295 
L 299.73635 101.829641 
L 301.604348 196.093376 
L 303.472345 71.665757 
L 305.340343 142.311113 
L 307.208341 177.105906 
L 309.076338 115.644589 
L 310.944336 30.290076 
L 312.812334 159.61352 
L 314.680331 138.737763 
L 316.548329 174.548177 
L 318.416327 102.081128 
L 320.284324 109.927613 
L 322.152322 135.9395 
L 324.02032 130.499495 
L 325.888318 113.094834 
L 327.756315 138.663925 
L 329.624313 128.315628 
L 331.492311 164.431246 
L 333.360308 125.477261 
L 335.228306 82.036833 
L 337.096304 169.190717 
L 338.964301 81.246575 
L 340.832299 141.002205 
L 342.700297 146.807089 
L 344.568294 85.246084 
L 346.436292 150.234185 
L 348.30429 153.801394 
L 350.172287 80.441512 
L 352.040285 188.87577 
L 353.908283 60.451393 
L 355.77628 142.056509 
L 357.644278 150.45336 
L 359.512276 134.681054 
L 361.380273 121.751331 
L 363.248271 152.257911 
L 365.116269 83.202284 
L 366.984266 127.529036 
L 368.852264 120.450718 
L 370.720262 140.882534 
L 372.588259 150.063823 
L 374.456257 120.326602 
L 376.324255 127.636195 
L 378.192252 115.106551 
L 380.06025 86.000913 
L 381.928248 162.280975 
L 383.796245 119.945452 
L 385.664243 134.032283 
L 387.532241 150.056169 
L 389.400238 85.844255 
L 391.268236 186.307545 
L 393.136234 92.26216 
L 395.004231 122.749902 
L 396.872229 111.515005 
L 398.740227 141.271338 
L 400.608224 97.79429 
L 402.476222 165.018509 
L 404.34422 126.162148 
L 406.212217 122.945519 
L 408.080215 94.216264 
L 409.948213 158.970249 
L 411.816211 55.849496 
L 413.684208 199.647522 
L 415.552206 151.486627 
L 417.420204 130.24677 
L 419.288201 85.843292 
L 421.156199 156.577932 
L 423.024197 103.41937 
L 424.892194 124.503715 
L 426.760192 150.755356 
L 428.62819 72.091228 
L 430.496187 170.299884 
L 432.364185 128.274378 
L 434.232183 152.663994 
L 436.10018 101.776474 
L 437.968178 134.063908 
L 439.836176 136.556371 
L 441.704173 150.55676 
L 443.572171 92.686439 
L 445.440169 124.071002 
L 447.308166 135.1112 
L 449.176164 175.80841 
L 451.044162 59.91033 
L 452.912159 189.818012 
L 454.780157 97.323536 
L 456.648155 118.464714 
L 458.516152 117.34198 
L 460.38415 116.863068 
L 462.252148 157.321441 
L 464.120145 112.511926 
L 465.988143 141.99688 
L 467.856141 119.998252 
L 469.724138 60.860868 
L 471.592136 168.063126 
L 473.460134 141.601063 
L 477.196129 124.975615 
L 479.064127 110.711225 
L 480.932124 152.580027 
L 482.800122 117.750264 
L 484.66812 129.490932 
L 486.536117 120.558748 
L 488.404115 117.896976 
L 490.272113 71.997774 
L 492.14011 148.214402 
L 494.008108 178.021519 
L 495.876106 102.094007 
L 497.744104 158.813224 
L 499.612101 94.616114 
L 501.480099 111.652734 
L 503.348097 135.878771 
L 505.216094 128.865995 
L 507.084092 190.2631 
L 508.95209 79.739391 
L 510.820087 112.907192 
L 512.688085 148.270777 
L 514.556083 160.702245 
L 516.42408 88.303214 
L 518.292078 100.332357 
L 520.160076 175.429873 
L 522.028073 84.631688 
L 523.896071 132.258624 
L 525.764069 190.224646 
L 527.632066 122.534348 
L 529.500064 90.054276 
L 533.236059 144.710305 
L 535.104057 126.677819 
L 536.972055 167.544201 
L 538.840052 114.736126 
L 540.70805 108.385183 
L 542.576048 121.024781 
L 544.444045 141.05143 
L 546.312043 113.190259 
L 548.180041 121.368531 
L 550.048038 138.63858 
L 551.916036 69.107752 
L 553.784034 156.339828 
L 555.652031 159.517041 
L 557.520029 96.058902 
L 559.388027 147.33761 
L 561.256024 94.817231 
L 563.124022 107.584475 
L 564.99202 146.658085 
L 566.860017 159.670262 
L 568.728015 131.745703 
L 570.596013 94.260127 
L 572.46401 178.842165 
L 574.332008 45.487678 
L 576.200006 189.9375 
L 578.068003 150.983194 
L 579.936001 69.364877 
L 581.803999 127.22539 
L 583.671997 102.271291 
L 585.539994 178.991811 
L 589.27599 88.987734 
L 591.143987 130.128291 
L 593.011985 103.833428 
L 594.879983 153.801669 
L 596.74798 120.201752 
L 598.615978 176.497469 
L 600.483976 76.496958 
L 602.351973 147.976389 
L 604.219971 130.024295 
L 606.087969 92.122185 
L 607.955966 184.401428 
L 609.823964 51.23307 
L 611.691962 184.296561 
L 613.559959 89.812735 
L 615.427957 129.867774 
L 617.295955 161.541637 
L 619.163952 127.472799 
L 621.03195 120.242085 
L 622.899948 86.178426 
L 624.767945 101.046028 
L 626.635943 218.46 
L 628.503941 127.63922 
L 630.371938 130.714224 
L 632.239936 105.788083 
L 634.107934 116.273926 
L 635.975931 151.302377 
L 637.843929 125.594228 
L 639.711927 95.548365 
L 641.579924 122.540169 
L 643.447922 136.408283 
L 645.31592 88.194268 
L 647.183917 153.357132 
L 649.051915 126.561265 
L 650.919913 150.146735 
L 652.78791 110.002596 
L 654.655908 127.102694 
L 656.523906 120.649956 
L 658.391903 179.753194 
L 660.259901 107.569762 
L 662.127899 130.646757 
L 663.995896 115.495722 
L 665.863894 117.13486 
L 667.731892 69.055227 
L 669.59989 193.347225 
L 671.467887 107.654646 
L 673.335885 135.271617 
L 675.203883 121.943648 
L 677.07188 113.403384 
L 678.939878 143.450164 
L 680.807876 145.20086 
L 682.675873 95.552077 
L 684.543871 167.982001 
L 686.411869 85.816663 
L 688.279866 103.840074 
L 690.147864 131.429683 
L 692.015862 175.074893 
L 693.883859 114.085155 
L 695.751857 107.262175 
L 697.619855 133.30917 
L 699.487852 154.443611 
L 701.35585 72.743299 
L 703.223848 170.969418 
L 705.091845 184.263057 
L 706.959843 57.752451 
L 708.827841 183.032982 
L 710.695838 66.378606 
L 712.563836 167.430351 
L 714.431834 156.660249 
L 716.299831 143.999109 
L 718.167829 104.01667 
L 720.035827 168.667988 
L 721.903824 26.86 
L 723.771822 169.856722 
L 725.63982 129.916128 
L 727.507817 137.776225 
L 729.375815 87.666038 
L 731.243813 131.358641 
L 733.11181 122.229556 
L 734.979808 161.164337 
L 736.847806 96.089886 
L 738.715803 180.566278 
L 740.583801 75.985366 
L 742.451799 120.709539 
L 744.319796 139.055892 
L 746.187794 57.035296 
L 748.055792 194.399101 
L 749.923789 101.089065 
L 751.791787 154.956303 
L 753.659785 47.683141 
L 755.527783 124.547165 
L 757.39578 146.934093 
L 759.263778 192.660825 
L 761.131776 114.512184 
L 762.999773 126.049673 
L 764.867771 124.619123 
L 766.735769 135.859246 
L 768.603766 128.365265 
L 770.471764 118.738981 
L 772.339762 114.328163 
L 774.207759 124.608261 
L 776.075757 107.637871 
L 777.943755 158.693874 
L 779.811752 120.422577 
L 781.67975 137.016675 
L 783.547748 157.138703 
L 785.415745 86.762984 
L 787.283743 142.054997 
L 789.151741 74.513061 
L 791.019738 176.708623 
L 792.887736 153.158032 
L 794.755734 96.984507 
L 796.623731 102.682828 
L 798.491729 150.100031 
L 800.359727 93.174977 
L 802.227724 155.591553 
L 804.095722 99.961107 
L 805.96372 169.329363 
L 807.831717 141.230317 
L 809.699715 121.552139 
L 811.567713 118.882347 
L 813.43571 112.679401 
L 815.303708 99.079686 
L 817.171706 181.623194 
L 819.039703 89.442035 
L 820.907701 142.072138 
L 822.775699 137.108021 
L 824.643696 119.188331 
L 826.511694 125.866203 
L 828.379692 153.967082 
L 830.247689 93.619285 
L 832.115687 159.884441 
L 833.983685 110.80555 
L 837.71968 139.17703 
L 839.587678 118.097085 
L 841.455676 141.360759 
L 843.323673 102.310341 
L 845.191671 120.670398 
L 847.059669 135.527321 
L 848.927666 141.495784 
L 850.795664 131.68612 
L 852.663662 149.804315 
L 854.531659 69.350623 
L 856.399657 141.590522 
L 858.267655 136.522592 
L 860.135652 127.760265 
L 862.00365 102.74562 
L 863.871648 131.200837 
L 865.739645 137.209083 
L 867.607643 118.352056 
L 869.475641 130.691307 
L 871.343638 152.581219 
L 873.211636 120.117418 
L 875.079634 100.734682 
L 876.947631 129.091495 
L 878.815629 121.592748 
L 880.683627 134.382541 
L 882.551624 125.982986 
L 884.419622 129.762082 
L 886.28762 121.089314 
L 888.155617 125.260469 
L 890.023615 116.798718 
L 891.891613 140.257505 
L 893.75961 147.392839 
L 895.627608 127.356703 
L 897.495606 115.726172 
L 899.363603 149.526519 
L 901.231601 143.877284 
L 903.099599 115.745514 
L 904.967596 105.706912 
L 908.703592 137.210871 
L 910.571589 94.126156 
L 912.439587 185.839816 
L 914.307585 119.806439 
L 916.175582 133.995433 
L 918.04358 91.015585 
L 919.911578 116.645314 
L 921.779575 156.625782 
L 923.647573 81.554529 
L 925.515571 166.766409 
L 927.383569 116.996901 
L 929.251566 132.524549 
L 931.119564 134.218183 
L 932.987562 126.082857 
L 934.855559 102.071549 
L 936.723557 144.977101 
L 938.591555 123.779548 
L 940.459552 85.317263 
L 942.32755 157.995832 
L 944.195548 137.323988 
L 946.063545 138.954738 
L 947.931543 119.577685 
L 949.799541 129.023203 
L 951.667538 97.822615 
L 953.535536 131.911116 
L 955.403534 140.162355 
L 957.271531 154.441457 
L 959.139529 90.74856 
L 961.007527 176.91171 
L 962.875524 67.368789 
L 964.743522 99.810178 
L 966.61152 190.061617 
L 968.479517 110.862017 
L 970.347515 114.111326 
L 972.215513 151.502486 
L 974.08351 108.1837 
L 975.951508 129.460911 
L 977.819506 125.381698 
L 979.687503 156.556024 
L 981.555501 60.025922 
L 983.423499 120.017868 
L 985.291496 194.984759 
L 987.159494 78.227074 
L 989.027492 184.86957 
L 990.895489 98.88824 
L 992.763487 138.963721 
L 994.631485 105.826216 
L 996.499482 140.314292 
L 998.36748 99.671532 
L 1000.235478 167.418113 
L 1002.103475 170.170451 
L 1003.971473 72.666069 
L 1005.839471 128.237161 
L 1007.707469 121.691381 
L 1009.575466 146.738247 
L 1011.443464 129.297011 
L 1013.311462 91.161106 
L 1015.179459 166.245559 
L 1017.047457 110.740834 
L 1018.915455 146.21066 
L 1018.915455 146.21066 
" clip-path="url(#p2bab3e7f81)" style="fill: none; stroke: #d2dbe0; stroke-width: 1.5; stroke-linecap: square"/>
   </g>
   <g id="line2d_13">
    <path d="M 142.824545 129.678558 
L 144.692543 135.636702 
L 146.560541 130.307618 
L 148.428538 128.08381 
L 150.296536 126.046511 
L 152.164534 130.142882 
L 154.032531 130.418141 
L 155.900529 127.283014 
L 157.768527 119.859425 
L 159.636525 129.405251 
L 161.504522 124.47145 
L 163.37252 124.211184 
L 165.240518 125.960699 
L 167.108515 124.021544 
L 168.976513 123.866689 
L 170.844511 121.685854 
L 172.712508 126.826349 
L 174.580506 122.290883 
L 178.316501 124.959303 
L 180.184499 125.24918 
L 182.052497 120.668349 
L 183.920494 124.357921 
L 185.788492 123.488972 
L 187.65649 122.126951 
L 189.524487 124.343564 
L 191.392485 125.445338 
L 193.260483 124.714457 
L 195.12848 125.13039 
L 196.996478 124.461168 
L 198.864476 129.850621 
L 200.732473 132.135051 
L 202.600471 132.454773 
L 204.468469 131.449654 
L 206.336466 132.135621 
L 208.204464 133.024795 
L 210.072462 130.292816 
L 211.940459 131.704256 
L 213.808457 131.06074 
L 215.676455 130.573708 
L 217.544452 131.663128 
L 219.41245 132.120274 
L 221.280448 130.203393 
L 223.148445 132.339154 
L 225.016443 132.867738 
L 226.884441 129.682953 
L 228.752438 127.477281 
L 230.620436 130.272725 
L 232.488434 130.507023 
L 234.356431 129.589027 
L 236.224429 129.111327 
L 238.092427 126.745932 
L 239.960425 125.976688 
L 241.828422 128.35229 
L 243.69642 128.51055 
L 245.564418 125.769744 
L 247.432415 127.568916 
L 249.300413 126.689163 
L 251.168411 127.830347 
L 253.036408 127.670427 
L 254.904406 129.431752 
L 256.772404 129.26813 
L 258.640401 127.918736 
L 260.508399 126.022639 
L 262.376397 126.350152 
L 264.244394 127.418319 
L 266.112392 129.94933 
L 267.98039 128.70963 
L 269.848387 126.06412 
L 271.716385 129.19486 
L 273.584383 125.259607 
L 275.45238 127.362856 
L 277.320378 127.077097 
L 279.188376 124.532193 
L 281.056373 122.901901 
L 282.924371 128.572024 
L 284.792369 124.624907 
L 286.660366 125.942284 
L 288.528364 127.89521 
L 290.396362 127.714659 
L 292.264359 120.373187 
L 294.132357 122.294094 
L 296.000355 124.956319 
L 297.868352 128.113354 
L 299.73635 126.019384 
L 303.472345 125.006699 
L 305.340343 125.160353 
L 307.208341 126.069927 
L 309.076338 124.937484 
L 310.944336 127.185735 
L 312.812334 128.160113 
L 314.680331 128.059392 
L 316.548329 126.915369 
L 318.416327 130.283423 
L 320.284324 124.541083 
L 322.152322 128.007905 
L 324.02032 128.232704 
L 325.888318 123.639713 
L 327.756315 125.369193 
L 329.624313 131.544759 
L 331.492311 127.586158 
L 333.360308 130.093059 
L 335.228306 124.388219 
L 338.964301 128.413276 
L 340.832299 128.350354 
L 342.700297 127.912945 
L 344.568294 129.871099 
L 346.436292 127.098017 
L 348.30429 127.058688 
L 350.172287 124.859661 
L 352.040285 125.629925 
L 353.908283 129.031274 
L 355.77628 126.588069 
L 357.644278 128.907549 
L 359.512276 127.612767 
L 361.380273 124.572458 
L 363.248271 128.424203 
L 365.116269 126.909766 
L 366.984266 125.92131 
L 368.852264 129.402043 
L 370.720262 124.250467 
L 372.588259 130.543275 
L 374.456257 128.053557 
L 376.324255 126.668385 
L 378.192252 125.510082 
L 380.06025 126.486082 
L 381.928248 123.762901 
L 383.796245 127.853713 
L 385.664243 127.785368 
L 387.532241 127.910108 
L 389.400238 125.576795 
L 391.268236 126.022116 
L 393.136234 122.798261 
L 395.004231 126.398827 
L 396.872229 128.217831 
L 398.740227 130.430124 
L 400.608224 126.60824 
L 402.476222 128.439864 
L 404.34422 126.909218 
L 406.212217 125.631595 
L 408.080215 128.877151 
L 409.948213 123.166335 
L 411.816211 127.068221 
L 413.684208 127.344445 
L 415.552206 129.401894 
L 417.420204 127.427151 
L 419.288201 129.240632 
L 421.156199 127.817525 
L 423.024197 129.037256 
L 424.892194 127.524302 
L 426.760192 129.017038 
L 428.62819 127.824086 
L 430.496187 133.822032 
L 432.364185 126.835172 
L 434.232183 128.751741 
L 436.10018 127.10558 
L 437.968178 128.736651 
L 439.836176 126.774853 
L 441.704173 127.447038 
L 443.572171 129.087924 
L 445.440169 127.175753 
L 447.308166 130.671035 
L 449.176164 128.155954 
L 451.044162 124.785278 
L 452.912159 125.555235 
L 454.780157 127.546464 
L 456.648155 127.500338 
L 458.516152 126.9213 
L 460.38415 124.929023 
L 462.252148 127.923702 
L 465.988143 127.326652 
L 467.856141 124.564169 
L 469.724138 127.463501 
L 471.592136 121.572489 
L 473.460134 124.117033 
L 475.328131 127.094873 
L 477.196129 126.332474 
L 479.064127 128.429982 
L 480.932124 125.294716 
L 482.800122 125.251756 
L 484.66812 124.945851 
L 486.536117 125.389238 
L 488.404115 131.85935 
L 490.272113 127.443163 
L 492.14011 126.008469 
L 494.008108 126.764939 
L 495.876106 128.551271 
L 497.744104 127.43087 
L 499.612101 124.818487 
L 501.480099 127.702467 
L 503.348097 125.459505 
L 505.216094 126.044499 
L 507.084092 129.660882 
L 508.95209 132.187711 
L 512.688085 126.219378 
L 514.556083 128.350193 
L 516.42408 126.743423 
L 518.292078 130.389827 
L 520.160076 130.543997 
L 522.028073 129.169317 
L 523.896071 128.777257 
L 525.764069 126.316673 
L 527.632066 127.989217 
L 529.500064 128.412284 
L 531.368062 127.930674 
L 533.236059 123.350949 
L 535.104057 126.75278 
L 536.972055 129.712014 
L 538.840052 125.743465 
L 540.70805 128.878762 
L 542.576048 127.006692 
L 544.444045 122.874683 
L 546.312043 124.08087 
L 548.180041 127.561669 
L 550.048038 128.308205 
L 551.916036 125.785696 
L 553.784034 128.393914 
L 555.652031 122.291087 
L 557.520029 126.051156 
L 559.388027 128.181057 
L 561.256024 125.598061 
L 563.124022 124.90676 
L 564.99202 124.360811 
L 566.860017 127.241975 
L 568.728015 126.957025 
L 570.596013 127.951024 
L 572.46401 126.640447 
L 574.332008 123.856266 
L 576.200006 126.743405 
L 578.068003 125.386612 
L 579.936001 129.470624 
L 581.803999 127.916248 
L 583.671997 127.982163 
L 585.539994 126.499865 
L 587.407992 124.518689 
L 589.27599 129.025754 
L 591.143987 122.645299 
L 593.011985 129.585743 
L 594.879983 124.579505 
L 596.74798 123.523734 
L 598.615978 128.132572 
L 600.483976 128.144942 
L 602.351973 129.043482 
L 604.219971 124.402813 
L 606.087969 122.808136 
L 607.955966 129.281749 
L 609.823964 129.157295 
L 611.691962 130.501335 
L 613.559959 128.100656 
L 615.427957 127.904265 
L 617.295955 126.64451 
L 619.163952 129.099373 
L 621.03195 126.477972 
L 622.899948 126.103766 
L 624.767945 128.318071 
L 626.635943 123.507713 
L 628.503941 128.613916 
L 630.371938 125.727151 
L 632.239936 128.743851 
L 634.107934 127.750592 
L 635.975931 126.028645 
L 637.843929 125.687503 
L 639.711927 128.663058 
L 641.579924 129.732625 
L 643.447922 131.212662 
L 645.31592 126.064448 
L 647.183917 125.53923 
L 649.051915 122.45628 
L 650.919913 126.834237 
L 652.78791 126.403273 
L 654.655908 125.601735 
L 656.523906 125.419206 
L 658.391903 126.311957 
L 660.259901 127.357457 
L 663.995896 128.164976 
L 665.863894 128.896219 
L 667.731892 126.858989 
L 669.59989 124.543656 
L 671.467887 125.615011 
L 673.335885 128.013621 
L 675.203883 127.685381 
L 677.07188 124.06083 
L 680.807876 126.537643 
L 682.675873 124.400022 
L 684.543871 127.091749 
L 686.411869 132.852141 
L 688.279866 126.072402 
L 690.147864 129.841319 
L 692.015862 126.396668 
L 695.751857 130.833847 
L 697.619855 130.861294 
L 699.487852 128.802085 
L 701.35585 132.45788 
L 703.223848 125.40178 
L 705.091845 129.603783 
L 706.959843 130.907586 
L 708.827841 131.224913 
L 710.695838 126.85447 
L 714.431834 128.466514 
L 716.299831 129.859272 
L 718.167829 126.941586 
L 720.035827 132.332735 
L 721.903824 127.583532 
L 723.771822 124.405856 
L 725.63982 128.471028 
L 727.507817 122.171144 
L 729.375815 128.572169 
L 731.243813 125.255104 
L 733.11181 125.169907 
L 734.979808 120.354109 
L 736.847806 121.380633 
L 738.715803 120.293939 
L 740.583801 128.58398 
L 742.451799 125.816753 
L 744.319796 125.62343 
L 746.187794 124.965575 
L 748.055792 127.375236 
L 751.791787 127.051038 
L 753.659785 124.709229 
L 755.527783 126.135148 
L 757.39578 122.488728 
L 759.263778 126.624153 
L 762.999773 126.507844 
L 764.867771 131.513014 
L 766.735769 126.131209 
L 768.603766 128.179505 
L 770.471764 124.157343 
L 772.339762 130.608617 
L 774.207759 132.039161 
L 776.075757 129.541681 
L 777.943755 125.042781 
L 779.811752 126.822174 
L 781.67975 125.178439 
L 783.547748 126.72706 
L 785.415745 124.932153 
L 787.283743 126.980358 
L 789.151741 128.104925 
L 791.019738 128.466124 
L 792.887736 128.179828 
L 794.755734 128.431905 
L 796.623731 125.451195 
L 798.491729 128.511226 
L 800.359727 126.132494 
L 802.227724 125.379166 
L 804.095722 127.896418 
L 805.96372 126.753085 
L 807.831717 129.320742 
L 809.699715 128.183665 
L 811.567713 125.206727 
L 813.43571 128.351724 
L 815.303708 128.75786 
L 817.171706 127.51574 
L 819.039703 129.815843 
L 820.907701 127.941119 
L 822.775699 130.011102 
L 824.643696 126.660151 
L 826.511694 125.632155 
L 828.379692 126.330914 
L 830.247689 127.461586 
L 832.115687 128.411922 
L 833.983685 130.948153 
L 835.851682 125.334524 
L 837.71968 127.941949 
L 839.587678 127.664471 
L 841.455676 127.197084 
L 843.323673 126.374948 
L 845.191671 126.64168 
L 847.059669 125.80378 
L 848.927666 127.040418 
L 850.795664 125.580762 
L 852.663662 127.669545 
L 854.531659 127.412535 
L 856.399657 125.490417 
L 858.267655 126.040138 
L 860.135652 125.051737 
L 862.00365 126.655347 
L 863.871648 126.920977 
L 865.739645 126.632715 
L 867.607643 125.612391 
L 869.475641 125.291109 
L 871.343638 123.640829 
L 873.211636 127.186173 
L 875.079634 127.476289 
L 876.947631 127.017994 
L 878.815629 126.41629 
L 880.683627 128.755335 
L 882.551624 129.389157 
L 884.419622 128.315979 
L 886.28762 127.683721 
L 888.155617 127.203244 
L 890.023615 126.434726 
L 891.891613 125.135163 
L 893.75961 129.39042 
L 895.627608 128.926167 
L 897.495606 129.546301 
L 899.363603 127.377953 
L 901.231601 126.91107 
L 903.099599 128.254255 
L 904.967596 126.277516 
L 906.835594 128.352813 
L 908.703592 128.362722 
L 910.571589 127.976074 
L 912.439587 127.317341 
L 914.307585 127.253649 
L 916.175582 126.570918 
L 918.04358 126.343447 
L 919.911578 125.33856 
L 921.779575 123.817147 
L 923.647573 126.431593 
L 925.515571 127.243705 
L 927.383569 127.330899 
L 929.251566 128.603475 
L 931.119564 125.762644 
L 932.987562 124.663453 
L 934.855559 124.559237 
L 936.723557 127.016576 
L 938.591555 128.906383 
L 940.459552 125.612522 
L 942.32755 130.380381 
L 944.195548 125.4105 
L 946.063545 124.551164 
L 947.931543 127.428017 
L 949.799541 126.260209 
L 951.667538 125.661632 
L 953.535536 128.133179 
L 955.403534 126.293509 
L 957.271531 126.577577 
L 959.139529 128.580799 
L 961.007527 128.508809 
L 962.875524 124.643905 
L 964.743522 123.697062 
L 966.61152 127.467416 
L 968.479517 124.927609 
L 970.347515 129.279957 
L 972.215513 127.628813 
L 974.08351 127.568881 
L 975.951508 125.138119 
L 977.819506 127.616406 
L 979.687503 123.754397 
L 981.555501 128.756863 
L 983.423499 132.274877 
L 985.291496 126.4051 
L 987.159494 127.273857 
L 989.027492 127.65286 
L 990.895489 127.414648 
L 992.763487 128.470313 
L 994.631485 126.555323 
L 996.499482 128.598516 
L 998.36748 126.307756 
L 1000.235478 130.616993 
L 1000.235478 130.616993 
" clip-path="url(#p2bab3e7f81)" style="fill: none; stroke: #5dc694; stroke-width: 1.5; stroke-linecap: square"/>
   </g>
   <g id="patch_3">
    <path d="M 99.02 228.04 
L 99.02 17.28 
" style="fill: none; stroke: #000000; stroke-width: 0.8; stroke-linejoin: miter; stroke-linecap: square"/>
   </g>
   <g id="patch_4">
    <path d="M 1062.72 228.04 
L 1062.72 17.28 
" style="fill: none; stroke: #000000; stroke-width: 0.8; stroke-linejoin: miter; stroke-linecap: square"/>
   </g>
   <g id="patch_5">
    <path d="M 99.02 228.04 
L 1062.72 228.04 
" style="fill: none; stroke: #000000; stroke-width: 0.8; stroke-linejoin: miter; stroke-linecap: square"/>
   </g>
   <g id="patch_6">
    <path d="M 99.02 17.28 
L 1062.72 17.28 
" style="fill: none; stroke: #000000; stroke-width: 0.8; stroke-linejoin: miter; stroke-linecap: square"/>
   </g>
   <g id="legend_1">
    <g id="patch_7">
     <path d="M 854.2975 76.605 
L 1051.52 76.605 
Q 1054.72 76.605 1054.72 73.405 
L 1054.72 28.48 
Q 1054.72 25.28 1051.52 25.28 
L 854.2975 25.28 
Q 851.0975 25.28 851.0975 28.48 
L 851.0975 73.405 
Q 851.0975 76.605 854.2975 76.605 
z
" style="fill: #ffffff; opacity: 0.8; stroke: #cccccc; stroke-linejoin: miter"/>
    </g>
    <g id="line2d_14">
     <path d="M 857.4975 37.44 
L 873.4975 37.44 
L 889.4975 37.44 
" style="fill: none; stroke: #d2dbe0; stroke-width: 1.5; stroke-linecap: square"/>
    </g>
    <g id="text_14">
     <!-- 2nd. Difference -->
     <g transform="translate(902.2975 43.04) scale(0.16 -0.16)">
      <use xlink:href="#Bahnschrift-32"/>
      <use xlink:href="#Bahnschrift-6e" x="51.660156"/>
      <use xlink:href="#Bahnschrift-64" x="107.519531"/>
      <use xlink:href="#Bahnschrift-2e" x="161.425781"/>
      <use xlink:href="#Bahnschrift-20" x="184.082031"/>
      <use xlink:href="#Bahnschrift-44" x="210.9375"/>
      <use xlink:href="#Bahnschrift-69" x="276.5625"/>
      <use xlink:href="#Bahnschrift-66" x="301.660156"/>
      <use xlink:href="#Bahnschrift-66" x="333.349609"/>
      <use xlink:href="#Bahnschrift-65" x="365.039062"/>
      <use xlink:href="#Bahnschrift-72" x="418.652344"/>
      <use xlink:href="#Bahnschrift-65" x="461.328125"/>
      <use xlink:href="#Bahnschrift-6e" x="514.941406"/>
      <use xlink:href="#Bahnschrift-63" x="570.800781"/>
      <use xlink:href="#Bahnschrift-65" x="620.605469"/>
     </g>
    </g>
    <g id="line2d_15">
     <path d="M 857.4975 61.3075 
L 873.4975 61.3075 
L 889.4975 61.3075 
" style="fill: none; stroke: #5dc694; stroke-width: 1.5; stroke-linecap: square"/>
    </g>
    <g id="text_15">
     <!-- Rolling Average (20) -->
     <g transform="translate(902.2975 66.9075) scale(0.16 -0.16)">
      <defs>
       <path id="Bahnschrift-52" d="M 841 1922 
L 841 2528 
L 2391 2528 
Q 2669 2528 2837 2722 
Q 3006 2916 3006 3234 
L 3006 3234 
Q 3006 3553 2837 3747 
Q 2669 3941 2391 3941 
L 841 3941 
L 841 4547 
L 2366 4547 
Q 2763 4547 3059 4383 
Q 3356 4219 3520 3925 
Q 3684 3631 3684 3234 
L 3684 3234 
Q 3684 2841 3518 2545 
Q 3353 2250 3058 2086 
Q 2763 1922 2366 1922 
L 841 1922 
z
M 563 0 
L 563 4547 
L 1200 4547 
L 1200 0 
L 563 0 
z
M 3119 0 
L 2078 2063 
L 2713 2206 
L 3875 0 
L 3119 0 
z
" transform="scale(0.015625)"/>
       <path id="Bahnschrift-67" d="M 1588 -1319 
Q 1222 -1319 933 -1183 
Q 644 -1047 484 -800 
L 484 -800 
L 916 -409 
L 916 -409 
Q 1041 -581 1214 -675 
Q 1388 -769 1578 -769 
Q 1944 -769 2144 -567 
Q 2344 -366 2344 3 
L 2344 3244 
L 2981 3244 
L 2981 97 
Q 2981 -578 2617 -948 
Q 2253 -1319 1588 -1319 
z
M 1528 -56 
Q 991 -56 698 289 
Q 406 634 406 1263 
L 406 1978 
Q 406 2609 692 2954 
Q 978 3300 1497 3300 
Q 1784 3300 2023 3150 
Q 2263 3000 2409 2728 
L 2344 2066 
Q 2344 2272 2269 2419 
Q 2194 2566 2051 2642 
Q 1909 2719 1706 2719 
Q 1391 2719 1217 2522 
Q 1044 2325 1044 1969 
L 1044 1263 
Q 1044 909 1217 717 
Q 1391 525 1706 525 
Q 1909 525 2051 604 
Q 2194 684 2269 834 
Q 2344 984 2344 1194 
L 2388 509 
Q 2300 291 2086 117 
Q 1872 -56 1528 -56 
z
" transform="scale(0.015625)"/>
       <path id="Bahnschrift-41" d="M 125 0 
L 1800 4544 
L 2344 4544 
L 4019 0 
L 3331 0 
L 2072 3666 
L 813 0 
L 125 0 
z
M 897 997 
L 897 1603 
L 3288 1603 
L 3288 997 
L 897 997 
z
" transform="scale(0.015625)"/>
       <path id="Bahnschrift-76" d="M 1616 928 
L 2409 3244 
L 3075 3244 
L 1856 0 
L 1375 0 
L 156 3244 
L 822 3244 
L 1616 928 
z
" transform="scale(0.015625)"/>
       <path id="Bahnschrift-28" d="M 1672 -978 
Q 1116 -375 839 373 
Q 563 1122 563 2025 
Q 563 2928 839 3676 
Q 1116 4425 1672 5028 
L 2109 4631 
Q 1638 4106 1403 3456 
Q 1169 2806 1169 2025 
Q 1169 1244 1403 594 
Q 1638 -56 2109 -584 
L 1672 -978 
z
" transform="scale(0.015625)"/>
       <path id="Bahnschrift-29" d="M 500 -978 
L 63 -584 
Q 534 -56 768 594 
Q 1003 1244 1003 2025 
Q 1003 2806 768 3456 
Q 534 4106 63 4631 
L 500 5028 
Q 1056 4425 1332 3676 
Q 1609 2928 1609 2025 
Q 1609 1122 1332 373 
Q 1056 -375 500 -978 
z
" transform="scale(0.015625)"/>
      </defs>
      <use xlink:href="#Bahnschrift-52"/>
      <use xlink:href="#Bahnschrift-6f" x="65.185547"/>
      <use xlink:href="#Bahnschrift-6c" x="119.677734"/>
      <use xlink:href="#Bahnschrift-6c" x="148.632812"/>
      <use xlink:href="#Bahnschrift-69" x="177.587891"/>
      <use xlink:href="#Bahnschrift-6e" x="202.685547"/>
      <use xlink:href="#Bahnschrift-67" x="258.544922"/>
      <use xlink:href="#Bahnschrift-20" x="312.451172"/>
      <use xlink:href="#Bahnschrift-41" x="339.306641"/>
      <use xlink:href="#Bahnschrift-76" x="404.052734"/>
      <use xlink:href="#Bahnschrift-65" x="454.052734"/>
      <use xlink:href="#Bahnschrift-72" x="507.666016"/>
      <use xlink:href="#Bahnschrift-61" x="550.341797"/>
      <use xlink:href="#Bahnschrift-67" x="603.564453"/>
      <use xlink:href="#Bahnschrift-65" x="657.470703"/>
      <use xlink:href="#Bahnschrift-20" x="711.083984"/>
      <use xlink:href="#Bahnschrift-28" x="737.939453"/>
      <use xlink:href="#Bahnschrift-32" x="771.875"/>
      <use xlink:href="#Bahnschrift-30" x="823.535156"/>
      <use xlink:href="#Bahnschrift-29" x="878.710938"/>
     </g>
    </g>
   </g>
  </g>
 </g>
 <defs>
  <clipPath id="p2bab3e7f81">
   <rect x="99.02" y="17.28" width="963.7" height="210.76"/>
  </clipPath>
 </defs>
</svg>
