<?xml version="1.0" encoding="utf-8" standalone="no"?>
<!DOCTYPE svg PUBLIC "-//W3C//DTD SVG 1.1//EN"
  "http://www.w3.org/Graphics/SVG/1.1/DTD/svg11.dtd">
<svg xmlns:xlink="http://www.w3.org/1999/xlink" width="1080pt" height="288pt" viewBox="0 0 1080 288" xmlns="http://www.w3.org/2000/svg" version="1.1">
 <metadata>
  <rdf:RDF xmlns:dc="http://purl.org/dc/elements/1.1/" xmlns:cc="http://creativecommons.org/ns#" xmlns:rdf="http://www.w3.org/1999/02/22-rdf-syntax-ns#">
   <cc:Work>
    <dc:type rdf:resource="http://purl.org/dc/dcmitype/StillImage"/>
    <dc:date>2024-05-29T19:40:59.139591</dc:date>
    <dc:format>image/svg+xml</dc:format>
    <dc:creator>
     <cc:Agent>
      <dc:title>Matplotlib v3.8.2, https://matplotlib.org/</dc:title>
     </cc:Agent>
    </dc:creator>
   </cc:Work>
  </rdf:RDF>
 </metadata>
 <defs>
  <style type="text/css">*{stroke-linejoin: round; stroke-linecap: butt}</style>
 </defs>
 <g id="figure_1">
  <g id="patch_1">
   <path d="M 0 288 
L 1080 288 
L 1080 0 
L 0 0 
z
" style="fill: #ffffff"/>
  </g>
  <g id="axes_1">
   <g id="patch_2">
    <path d="M 99.02 228.04 
L 1062.72 228.04 
L 1062.72 17.28 
L 99.02 17.28 
z
" style="fill: #ffffff"/>
   </g>
   <g id="matplotlib.axis_1">
    <g id="xtick_1">
     <g id="line2d_1">
      <defs>
       <path id="md9378cc133" d="M 0 0 
L 0 3.5 
" style="stroke: #000000; stroke-width: 0.8"/>
      </defs>
      <g>
       <use xlink:href="#md9378cc133" x="122.705548" y="228.04" style="stroke: #000000; stroke-width: 0.8"/>
      </g>
     </g>
     <g id="text_1">
      <!-- 0 -->
      <g transform="translate(118.291798 246.4) scale(0.16 -0.16)">
       <defs>
        <path id="Bahnschrift-30" d="M 1766 -47 
Q 1116 -47 792 301 
Q 469 650 469 1244 
L 469 3309 
Q 469 3913 797 4256 
Q 1125 4600 1766 4600 
Q 2409 4600 2736 4258 
Q 3063 3916 3063 3309 
L 3063 1244 
Q 3063 641 2736 297 
Q 2409 -47 1766 -47 
z
M 1766 559 
Q 2116 559 2270 742 
Q 2425 925 2425 1244 
L 2425 3309 
Q 2425 3631 2270 3812 
Q 2116 3994 1766 3994 
Q 1416 3994 1261 3812 
Q 1106 3631 1106 3309 
L 1106 1244 
Q 1106 925 1261 742 
Q 1416 559 1766 559 
z
" transform="scale(0.015625)"/>
       </defs>
       <use xlink:href="#Bahnschrift-30"/>
      </g>
     </g>
    </g>
    <g id="xtick_2">
     <g id="line2d_2">
      <g>
       <use xlink:href="#md9378cc133" x="305.605529" y="228.04" style="stroke: #000000; stroke-width: 0.8"/>
      </g>
     </g>
     <g id="text_2">
      <!-- 1000 -->
      <g transform="translate(289.704279 246.4) scale(0.16 -0.16)">
       <defs>
        <path id="Bahnschrift-31" d="M 1566 4544 
L 1566 0 
L 928 0 
L 928 3850 
L 281 3453 
L 281 4113 
L 928 4544 
L 1566 4544 
z
" transform="scale(0.015625)"/>
       </defs>
       <use xlink:href="#Bahnschrift-31"/>
       <use xlink:href="#Bahnschrift-30" x="33.251953"/>
       <use xlink:href="#Bahnschrift-30" x="88.427734"/>
       <use xlink:href="#Bahnschrift-30" x="143.603516"/>
      </g>
     </g>
    </g>
    <g id="xtick_3">
     <g id="line2d_3">
      <g>
       <use xlink:href="#md9378cc133" x="488.50551" y="228.04" style="stroke: #000000; stroke-width: 0.8"/>
      </g>
     </g>
     <g id="text_3">
      <!-- 2000 -->
      <g transform="translate(471.13176 246.4) scale(0.16 -0.16)">
       <defs>
        <path id="Bahnschrift-32" d="M 400 0 
L 400 553 
L 1984 2666 
Q 2122 2847 2198 3040 
Q 2275 3234 2275 3406 
L 2275 3413 
Q 2275 3684 2115 3834 
Q 1956 3984 1663 3984 
Q 1388 3984 1214 3820 
Q 1041 3656 1003 3356 
L 1003 3353 
L 344 3353 
L 344 3356 
Q 428 3944 772 4267 
Q 1116 4591 1656 4591 
Q 2269 4591 2603 4281 
Q 2938 3972 2938 3406 
L 2938 3403 
Q 2938 3163 2838 2898 
Q 2738 2634 2559 2394 
L 1244 606 
L 2963 606 
L 2963 0 
L 400 0 
z
" transform="scale(0.015625)"/>
       </defs>
       <use xlink:href="#Bahnschrift-32"/>
       <use xlink:href="#Bahnschrift-30" x="51.660156"/>
       <use xlink:href="#Bahnschrift-30" x="106.835938"/>
       <use xlink:href="#Bahnschrift-30" x="162.011719"/>
      </g>
     </g>
    </g>
    <g id="xtick_4">
     <g id="line2d_4">
      <g>
       <use xlink:href="#md9378cc133" x="671.405491" y="228.04" style="stroke: #000000; stroke-width: 0.8"/>
      </g>
     </g>
     <g id="text_4">
      <!-- 3000 -->
      <g transform="translate(653.934241 246.4) scale(0.16 -0.16)">
       <defs>
        <path id="Bahnschrift-33" d="M 1644 -47 
Q 1259 -47 970 92 
Q 681 231 506 493 
Q 331 756 281 1131 
L 281 1131 
L 931 1131 
L 931 1131 
Q 975 838 1162 702 
Q 1350 566 1644 566 
Q 1959 566 2134 734 
Q 2309 903 2309 1209 
L 2309 1347 
Q 2309 1688 2143 1873 
Q 1978 2059 1675 2059 
L 1353 2059 
L 1353 2666 
L 1675 2666 
Q 1944 2666 2089 2825 
Q 2234 2984 2234 3275 
L 2234 3416 
Q 2234 3684 2079 3831 
Q 1925 3978 1641 3978 
Q 1400 3978 1233 3842 
Q 1066 3706 1003 3413 
L 1003 3413 
L 356 3413 
L 356 3413 
Q 453 3975 789 4283 
Q 1125 4591 1641 4591 
Q 2228 4591 2550 4281 
Q 2872 3972 2872 3409 
L 2872 3334 
Q 2872 2994 2687 2742 
Q 2503 2491 2166 2372 
Q 2538 2294 2742 2008 
Q 2947 1722 2947 1281 
L 2947 1206 
Q 2947 609 2606 281 
Q 2266 -47 1644 -47 
z
" transform="scale(0.015625)"/>
       </defs>
       <use xlink:href="#Bahnschrift-33"/>
       <use xlink:href="#Bahnschrift-30" x="52.880859"/>
       <use xlink:href="#Bahnschrift-30" x="108.056641"/>
       <use xlink:href="#Bahnschrift-30" x="163.232422"/>
      </g>
     </g>
    </g>
    <g id="xtick_5">
     <g id="line2d_5">
      <g>
       <use xlink:href="#md9378cc133" x="854.305472" y="228.04" style="stroke: #000000; stroke-width: 0.8"/>
      </g>
     </g>
     <g id="text_5">
      <!-- 4000 -->
      <g transform="translate(836.512972 246.4) scale(0.16 -0.16)">
       <defs>
        <path id="Bahnschrift-34" d="M 406 697 
L 406 1250 
L 1931 4541 
L 2588 4541 
L 1100 1288 
L 3328 1288 
L 3328 697 
L 406 697 
z
M 2366 -3 
L 2366 2672 
L 2988 2672 
L 2988 -3 
L 2366 -3 
z
" transform="scale(0.015625)"/>
       </defs>
       <use xlink:href="#Bahnschrift-34"/>
       <use xlink:href="#Bahnschrift-30" x="56.884766"/>
       <use xlink:href="#Bahnschrift-30" x="112.060547"/>
       <use xlink:href="#Bahnschrift-30" x="167.236328"/>
      </g>
     </g>
    </g>
    <g id="xtick_6">
     <g id="line2d_6">
      <g>
       <use xlink:href="#md9378cc133" x="1037.205453" y="228.04" style="stroke: #000000; stroke-width: 0.8"/>
      </g>
     </g>
     <g id="text_6">
      <!-- 5000 -->
      <g transform="translate(1019.609203 246.4) scale(0.16 -0.16)">
       <defs>
        <path id="Bahnschrift-35" d="M 1738 -47 
Q 1219 -47 886 251 
Q 553 550 469 1094 
L 469 1097 
L 1106 1097 
L 1106 1094 
Q 1141 844 1306 705 
Q 1472 566 1738 566 
Q 2044 566 2211 770 
Q 2378 975 2378 1347 
L 2378 1728 
Q 2378 2100 2211 2303 
Q 2044 2506 1738 2506 
Q 1572 2506 1419 2412 
Q 1266 2319 1150 2150 
L 569 2150 
L 569 4544 
L 2884 4544 
L 2884 3938 
L 1206 3938 
L 1206 2916 
Q 1325 3013 1472 3066 
Q 1619 3119 1772 3119 
Q 2366 3119 2691 2755 
Q 3016 2391 3016 1728 
L 3016 1347 
Q 3016 681 2681 317 
Q 2347 -47 1738 -47 
z
" transform="scale(0.015625)"/>
       </defs>
       <use xlink:href="#Bahnschrift-35"/>
       <use xlink:href="#Bahnschrift-30" x="54.443359"/>
       <use xlink:href="#Bahnschrift-30" x="109.619141"/>
       <use xlink:href="#Bahnschrift-30" x="164.794922"/>
      </g>
     </g>
    </g>
    <g id="text_7">
     <!-- Number of Samples -->
     <g transform="translate(509.5825 265.175) scale(0.16 -0.16)">
      <defs>
       <path id="Bahnschrift-4e" d="M 563 3 
L 563 4544 
L 1141 4544 
L 3363 1031 
L 3288 950 
L 3288 4544 
L 3919 4544 
L 3919 3 
L 3334 3 
L 1119 3463 
L 1194 3544 
L 1194 3 
L 563 3 
z
" transform="scale(0.015625)"/>
       <path id="Bahnschrift-75" d="M 2456 0 
L 2456 3244 
L 3091 3244 
L 3091 0 
L 2456 0 
z
M 1138 3244 
L 1138 1272 
Q 1138 931 1311 745 
Q 1484 559 1800 559 
Q 2116 559 2286 726 
Q 2456 894 2456 1197 
L 2500 519 
Q 2413 300 2194 126 
Q 1975 -47 1622 -47 
Q 1084 -47 792 298 
Q 500 644 500 1272 
L 500 3244 
L 1138 3244 
z
" transform="scale(0.015625)"/>
       <path id="Bahnschrift-6d" d="M 4375 0 
L 4375 1966 
Q 4375 2309 4198 2496 
Q 4022 2684 3697 2684 
Q 3400 2684 3237 2503 
Q 3075 2322 3075 1991 
L 2947 2616 
Q 3103 2941 3353 3116 
Q 3603 3291 3906 3291 
Q 4434 3291 4723 2945 
Q 5013 2600 5013 1969 
L 5013 0 
L 4375 0 
z
M 500 0 
L 500 3244 
L 1138 3244 
L 1138 0 
L 500 0 
z
M 2438 0 
L 2438 1966 
Q 2438 2309 2269 2496 
Q 2100 2684 1791 2684 
Q 1478 2684 1308 2518 
Q 1138 2353 1138 2053 
L 1072 2678 
Q 1222 2972 1464 3131 
Q 1706 3291 2000 3291 
Q 2513 3291 2794 2945 
Q 3075 2600 3075 1969 
L 3075 0 
L 2438 0 
z
" transform="scale(0.015625)"/>
       <path id="Bahnschrift-62" d="M 1953 -47 
Q 1650 -47 1425 98 
Q 1200 244 1094 509 
L 1138 1188 
Q 1138 978 1213 831 
Q 1288 684 1430 606 
Q 1572 528 1775 528 
Q 2091 528 2264 720 
Q 2438 913 2438 1263 
L 2438 1966 
Q 2438 2322 2264 2519 
Q 2091 2716 1775 2716 
Q 1572 2716 1430 2641 
Q 1288 2566 1213 2422 
Q 1138 2278 1138 2072 
L 1072 2697 
Q 1219 2981 1456 3136 
Q 1694 3291 1984 3291 
Q 2506 3291 2790 2945 
Q 3075 2600 3075 1969 
L 3075 1263 
Q 3075 641 2781 297 
Q 2488 -47 1953 -47 
z
M 500 0 
L 500 4544 
L 1138 4544 
L 1138 0 
L 500 0 
z
" transform="scale(0.015625)"/>
       <path id="Bahnschrift-65" d="M 1828 -47 
Q 1150 -47 778 331 
Q 406 709 406 1406 
L 406 1772 
Q 406 2497 764 2894 
Q 1122 3291 1772 3291 
Q 2384 3291 2720 2841 
Q 3056 2391 3056 1578 
L 3056 1366 
L 869 1366 
L 869 1878 
L 2450 1878 
L 2450 1878 
Q 2422 2272 2245 2494 
Q 2069 2716 1772 2716 
Q 1413 2716 1213 2478 
Q 1013 2241 1013 1806 
L 1013 1394 
Q 1013 991 1227 775 
Q 1441 559 1828 559 
Q 2022 559 2212 637 
Q 2403 716 2553 856 
L 2553 856 
L 2972 438 
L 2972 438 
Q 2731 206 2431 79 
Q 2131 -47 1828 -47 
z
" transform="scale(0.015625)"/>
       <path id="Bahnschrift-72" d="M 500 0 
L 500 3244 
L 1138 3244 
L 1138 0 
L 500 0 
z
M 2284 2475 
Q 2200 2578 2072 2631 
Q 1944 2684 1775 2684 
Q 1472 2684 1305 2517 
Q 1138 2350 1138 2053 
L 1072 2678 
Q 1219 2966 1458 3128 
Q 1697 3291 1984 3291 
Q 2206 3291 2386 3227 
Q 2566 3163 2700 3038 
L 2284 2475 
z
" transform="scale(0.015625)"/>
       <path id="Bahnschrift-20" transform="scale(0.015625)"/>
       <path id="Bahnschrift-6f" d="M 1744 -47 
Q 1106 -47 756 323 
Q 406 694 406 1366 
L 406 1894 
Q 406 2559 756 2925 
Q 1106 3291 1744 3291 
Q 2381 3291 2731 2925 
Q 3081 2559 3081 1894 
L 3081 1356 
Q 3081 688 2731 320 
Q 2381 -47 1744 -47 
z
M 1744 559 
Q 2078 559 2261 768 
Q 2444 978 2444 1356 
L 2444 1894 
Q 2444 2272 2261 2478 
Q 2078 2684 1744 2684 
Q 1413 2684 1228 2478 
Q 1044 2272 1044 1894 
L 1044 1356 
Q 1044 978 1228 768 
Q 1413 559 1744 559 
z
" transform="scale(0.015625)"/>
       <path id="Bahnschrift-66" d="M 594 0 
L 594 3684 
Q 594 4113 791 4328 
Q 988 4544 1403 4544 
L 1872 4544 
L 1872 3938 
L 1416 3938 
Q 1319 3938 1275 3864 
Q 1231 3791 1231 3691 
L 1231 0 
L 594 0 
z
M 250 2700 
L 250 3244 
L 1872 3244 
L 1872 2700 
L 250 2700 
z
" transform="scale(0.015625)"/>
       <path id="Bahnschrift-53" d="M 1928 -47 
Q 1597 -47 1305 15 
Q 1013 78 758 203 
Q 503 328 281 516 
L 281 516 
L 678 1003 
L 678 1003 
Q 938 778 1250 665 
Q 1563 553 1928 553 
Q 2422 553 2694 737 
Q 2966 922 2966 1253 
L 2966 1256 
Q 2966 1516 2828 1653 
Q 2691 1791 2467 1858 
Q 2244 1925 1978 1969 
Q 1722 2013 1461 2072 
Q 1200 2131 981 2257 
Q 763 2384 630 2621 
Q 497 2859 497 3256 
L 497 3259 
Q 497 3894 919 4242 
Q 1341 4591 2109 4591 
Q 2475 4591 2825 4473 
Q 3175 4356 3506 4116 
L 3506 4116 
L 3144 3609 
L 3144 3609 
Q 2884 3803 2626 3897 
Q 2369 3991 2109 3991 
Q 1644 3991 1386 3805 
Q 1128 3619 1128 3278 
L 1128 3275 
Q 1128 3019 1278 2884 
Q 1428 2750 1670 2686 
Q 1913 2622 2191 2566 
Q 2441 2516 2691 2445 
Q 2941 2375 3145 2242 
Q 3350 2109 3473 1878 
Q 3597 1647 3597 1275 
L 3597 1269 
Q 3597 641 3159 297 
Q 2722 -47 1928 -47 
z
" transform="scale(0.015625)"/>
       <path id="Bahnschrift-61" d="M 2331 0 
L 2331 2056 
Q 2331 2375 2161 2551 
Q 1991 2728 1678 2728 
Q 1488 2728 1302 2670 
Q 1116 2613 969 2503 
L 503 2822 
Q 688 3044 989 3167 
Q 1291 3291 1659 3291 
Q 2269 3291 2603 2975 
Q 2938 2659 2938 2084 
L 2938 0 
L 2331 0 
z
M 1538 -47 
Q 941 -47 642 200 
Q 344 447 344 956 
Q 344 1441 617 1680 
Q 891 1919 1438 1919 
L 2359 1919 
L 2403 1406 
L 1441 1406 
Q 1194 1406 1069 1295 
Q 944 1184 944 956 
Q 944 709 1109 590 
Q 1275 472 1606 472 
Q 1969 472 2150 550 
Q 2331 628 2331 794 
L 2397 338 
Q 2313 206 2188 122 
Q 2063 38 1902 -4 
Q 1741 -47 1538 -47 
z
" transform="scale(0.015625)"/>
       <path id="Bahnschrift-70" d="M 500 -1319 
L 500 3244 
L 1138 3244 
L 1138 -1319 
L 500 -1319 
z
M 1953 -47 
Q 1650 -47 1425 98 
Q 1200 244 1094 509 
L 1138 1188 
Q 1138 978 1213 831 
Q 1288 684 1430 606 
Q 1572 528 1775 528 
Q 2091 528 2264 720 
Q 2438 913 2438 1263 
L 2438 1966 
Q 2438 2322 2264 2519 
Q 2091 2716 1775 2716 
Q 1572 2716 1430 2641 
Q 1288 2566 1213 2422 
Q 1138 2278 1138 2072 
L 1072 2697 
Q 1219 2981 1456 3136 
Q 1694 3291 1984 3291 
Q 2506 3291 2790 2945 
Q 3075 2600 3075 1969 
L 3075 1263 
Q 3075 641 2781 297 
Q 2488 -47 1953 -47 
z
" transform="scale(0.015625)"/>
       <path id="Bahnschrift-6c" d="M 1138 4544 
L 1138 838 
Q 1138 722 1189 656 
Q 1241 591 1334 591 
L 1634 591 
L 1634 -16 
L 1259 -16 
Q 900 -16 700 209 
Q 500 434 500 844 
L 500 4544 
L 1138 4544 
z
" transform="scale(0.015625)"/>
       <path id="Bahnschrift-73" d="M 1647 -47 
Q 1216 -47 864 79 
Q 513 206 234 459 
L 234 459 
L 613 925 
L 613 925 
Q 878 725 1136 625 
Q 1394 525 1647 525 
Q 2025 525 2214 642 
Q 2403 759 2403 994 
Q 2403 1175 2276 1250 
Q 2150 1325 1945 1348 
Q 1741 1372 1506 1388 
Q 1309 1403 1115 1436 
Q 922 1469 762 1555 
Q 603 1641 508 1809 
Q 413 1978 413 2263 
Q 413 2778 728 3034 
Q 1044 3291 1669 3291 
Q 2050 3291 2378 3187 
Q 2706 3084 2994 2872 
L 2994 2872 
L 2609 2406 
L 2609 2406 
Q 2366 2563 2130 2641 
Q 1894 2719 1669 2719 
Q 1344 2719 1181 2608 
Q 1019 2497 1019 2275 
Q 1019 2128 1131 2064 
Q 1244 2000 1428 1981 
Q 1613 1963 1825 1947 
Q 2028 1934 2236 1901 
Q 2444 1869 2619 1775 
Q 2794 1681 2900 1497 
Q 3006 1313 3006 994 
Q 3006 472 2667 212 
Q 2328 -47 1647 -47 
z
" transform="scale(0.015625)"/>
      </defs>
      <use xlink:href="#Bahnschrift-4e"/>
      <use xlink:href="#Bahnschrift-75" x="70.019531"/>
      <use xlink:href="#Bahnschrift-6d" x="125.634766"/>
      <use xlink:href="#Bahnschrift-62" x="211.279297"/>
      <use xlink:href="#Bahnschrift-65" x="265.673828"/>
      <use xlink:href="#Bahnschrift-72" x="319.287109"/>
      <use xlink:href="#Bahnschrift-20" x="361.962891"/>
      <use xlink:href="#Bahnschrift-6f" x="388.818359"/>
      <use xlink:href="#Bahnschrift-66" x="443.310547"/>
      <use xlink:href="#Bahnschrift-20" x="475"/>
      <use xlink:href="#Bahnschrift-53" x="501.855469"/>
      <use xlink:href="#Bahnschrift-61" x="563.427734"/>
      <use xlink:href="#Bahnschrift-6d" x="616.650391"/>
      <use xlink:href="#Bahnschrift-70" x="702.294922"/>
      <use xlink:href="#Bahnschrift-6c" x="756.689453"/>
      <use xlink:href="#Bahnschrift-65" x="785.644531"/>
      <use xlink:href="#Bahnschrift-73" x="839.257812"/>
     </g>
    </g>
   </g>
   <g id="matplotlib.axis_2">
    <g id="ytick_1">
     <g id="line2d_7">
      <defs>
       <path id="md9ca8b92da" d="M 0 0 
L -3.5 0 
" style="stroke: #000000; stroke-width: 0.8"/>
      </defs>
      <g>
       <use xlink:href="#md9ca8b92da" x="99.02" y="194.75858" style="stroke: #000000; stroke-width: 0.8"/>
      </g>
     </g>
     <g id="text_8">
      <!-- -0.0002 -->
      <g transform="translate(37.1475 200.43858) scale(0.16 -0.16)">
       <defs>
        <path id="Bahnschrift-2d" d="M 500 1931 
L 2600 1931 
L 2600 1325 
L 500 1325 
L 500 1931 
z
" transform="scale(0.015625)"/>
        <path id="Bahnschrift-2e" d="M 391 0 
L 391 669 
L 1059 669 
L 1059 0 
L 391 0 
z
" transform="scale(0.015625)"/>
       </defs>
       <use xlink:href="#Bahnschrift-2d"/>
       <use xlink:href="#Bahnschrift-30" x="47.949219"/>
       <use xlink:href="#Bahnschrift-2e" x="103.125"/>
       <use xlink:href="#Bahnschrift-30" x="125.78125"/>
       <use xlink:href="#Bahnschrift-30" x="180.957031"/>
       <use xlink:href="#Bahnschrift-30" x="236.132812"/>
       <use xlink:href="#Bahnschrift-32" x="291.308594"/>
      </g>
     </g>
    </g>
    <g id="ytick_2">
     <g id="line2d_8">
      <g>
       <use xlink:href="#md9ca8b92da" x="99.02" y="138.624355" style="stroke: #000000; stroke-width: 0.8"/>
      </g>
     </g>
     <g id="text_9">
      <!-- 0.0000 -->
      <g transform="translate(44.2575 144.304355) scale(0.16 -0.16)">
       <use xlink:href="#Bahnschrift-30"/>
       <use xlink:href="#Bahnschrift-2e" x="55.175781"/>
       <use xlink:href="#Bahnschrift-30" x="77.832031"/>
       <use xlink:href="#Bahnschrift-30" x="133.007812"/>
       <use xlink:href="#Bahnschrift-30" x="188.183594"/>
       <use xlink:href="#Bahnschrift-30" x="243.359375"/>
      </g>
     </g>
    </g>
    <g id="ytick_3">
     <g id="line2d_9">
      <g>
       <use xlink:href="#md9ca8b92da" x="99.02" y="82.490131" style="stroke: #000000; stroke-width: 0.8"/>
      </g>
     </g>
     <g id="text_10">
      <!-- 0.0002 -->
      <g transform="translate(44.82 88.170131) scale(0.16 -0.16)">
       <use xlink:href="#Bahnschrift-30"/>
       <use xlink:href="#Bahnschrift-2e" x="55.175781"/>
       <use xlink:href="#Bahnschrift-30" x="77.832031"/>
       <use xlink:href="#Bahnschrift-30" x="133.007812"/>
       <use xlink:href="#Bahnschrift-30" x="188.183594"/>
       <use xlink:href="#Bahnschrift-32" x="243.359375"/>
      </g>
     </g>
    </g>
    <g id="ytick_4">
     <g id="line2d_10">
      <g>
       <use xlink:href="#md9ca8b92da" x="99.02" y="26.355906" style="stroke: #000000; stroke-width: 0.8"/>
      </g>
     </g>
     <g id="text_11">
      <!-- 0.0004 -->
      <g transform="translate(43.9825 32.035906) scale(0.16 -0.16)">
       <use xlink:href="#Bahnschrift-30"/>
       <use xlink:href="#Bahnschrift-2e" x="55.175781"/>
       <use xlink:href="#Bahnschrift-30" x="77.832031"/>
       <use xlink:href="#Bahnschrift-30" x="133.007812"/>
       <use xlink:href="#Bahnschrift-30" x="188.183594"/>
       <use xlink:href="#Bahnschrift-34" x="243.359375"/>
      </g>
     </g>
    </g>
    <g id="text_12">
     <!-- 1st. Difference,  mean: 0.00005 -->
     <g transform="translate(29.85 231.275) rotate(-90) scale(0.16 -0.16)">
      <defs>
       <path id="Bahnschrift-74" d="M 1344 -16 
Q 944 -16 764 206 
Q 584 428 584 844 
L 584 4188 
L 1222 4188 
L 1222 838 
Q 1222 722 1269 656 
Q 1316 591 1406 591 
L 1713 591 
L 1713 -16 
L 1344 -16 
z
M 250 2669 
L 250 3244 
L 1713 3244 
L 1713 2669 
L 250 2669 
z
" transform="scale(0.015625)"/>
       <path id="Bahnschrift-44" d="M 994 0 
L 994 606 
L 2022 606 
Q 2525 606 2801 867 
Q 3078 1128 3078 1603 
L 3078 2941 
Q 3078 3416 2801 3677 
Q 2525 3938 2022 3938 
L 994 3938 
L 994 4544 
L 2003 4544 
Q 2828 4544 3279 4117 
Q 3731 3691 3731 2916 
L 3731 1628 
Q 3731 1113 3528 748 
Q 3325 384 2937 192 
Q 2550 0 2000 0 
L 994 0 
z
M 563 0 
L 563 4544 
L 1200 4544 
L 1200 0 
L 563 0 
z
" transform="scale(0.015625)"/>
       <path id="Bahnschrift-69" d="M 500 3906 
L 500 4544 
L 1138 4544 
L 1138 3906 
L 500 3906 
z
M 500 0 
L 500 3244 
L 1138 3244 
L 1138 0 
L 500 0 
z
" transform="scale(0.015625)"/>
       <path id="Bahnschrift-6e" d="M 500 0 
L 500 3244 
L 1138 3244 
L 1138 0 
L 500 0 
z
M 2469 0 
L 2469 1966 
Q 2469 2309 2292 2496 
Q 2116 2684 1791 2684 
Q 1478 2684 1308 2518 
Q 1138 2353 1138 2053 
L 1072 2678 
Q 1222 2972 1464 3131 
Q 1706 3291 2000 3291 
Q 2528 3291 2817 2945 
Q 3106 2600 3106 1969 
L 3106 0 
L 2469 0 
z
" transform="scale(0.015625)"/>
       <path id="Bahnschrift-63" d="M 1809 -47 
Q 1141 -47 773 322 
Q 406 691 406 1363 
L 406 1897 
Q 406 2563 773 2927 
Q 1141 3291 1809 3291 
Q 2191 3291 2497 3156 
Q 2803 3022 2984 2772 
L 2984 2772 
L 2525 2359 
L 2525 2359 
Q 2391 2516 2206 2600 
Q 2022 2684 1819 2684 
Q 1450 2684 1247 2478 
Q 1044 2272 1044 1897 
L 1044 1363 
Q 1044 978 1247 768 
Q 1450 559 1819 559 
Q 2022 559 2206 650 
Q 2391 741 2525 906 
L 2525 906 
L 2984 463 
L 2984 463 
Q 2803 219 2495 86 
Q 2188 -47 1809 -47 
z
" transform="scale(0.015625)"/>
       <path id="Bahnschrift-2c" d="M 391 -1038 
L 391 669 
L 1059 669 
L 1059 -344 
L 391 -1038 
z
" transform="scale(0.015625)"/>
       <path id="Bahnschrift-3a" d="M 391 0 
L 391 669 
L 1059 669 
L 1059 0 
L 391 0 
z
M 391 2606 
L 391 3275 
L 1059 3275 
L 1059 2606 
L 391 2606 
z
" transform="scale(0.015625)"/>
      </defs>
      <use xlink:href="#Bahnschrift-31"/>
      <use xlink:href="#Bahnschrift-73" x="33.251953"/>
      <use xlink:href="#Bahnschrift-74" x="85.107422"/>
      <use xlink:href="#Bahnschrift-2e" x="117.724609"/>
      <use xlink:href="#Bahnschrift-20" x="140.380859"/>
      <use xlink:href="#Bahnschrift-44" x="167.236328"/>
      <use xlink:href="#Bahnschrift-69" x="232.861328"/>
      <use xlink:href="#Bahnschrift-66" x="257.958984"/>
      <use xlink:href="#Bahnschrift-66" x="289.648438"/>
      <use xlink:href="#Bahnschrift-65" x="321.337891"/>
      <use xlink:href="#Bahnschrift-72" x="374.951172"/>
      <use xlink:href="#Bahnschrift-65" x="417.626953"/>
      <use xlink:href="#Bahnschrift-6e" x="471.240234"/>
      <use xlink:href="#Bahnschrift-63" x="527.099609"/>
      <use xlink:href="#Bahnschrift-65" x="576.904297"/>
      <use xlink:href="#Bahnschrift-2c" x="630.517578"/>
      <use xlink:href="#Bahnschrift-20" x="653.173828"/>
      <use xlink:href="#Bahnschrift-20" x="680.029297"/>
      <use xlink:href="#Bahnschrift-6d" x="706.884766"/>
      <use xlink:href="#Bahnschrift-65" x="792.529297"/>
      <use xlink:href="#Bahnschrift-61" x="846.142578"/>
      <use xlink:href="#Bahnschrift-6e" x="899.365234"/>
      <use xlink:href="#Bahnschrift-3a" x="955.224609"/>
      <use xlink:href="#Bahnschrift-20" x="977.880859"/>
      <use xlink:href="#Bahnschrift-30" x="1004.736328"/>
      <use xlink:href="#Bahnschrift-2e" x="1059.912109"/>
      <use xlink:href="#Bahnschrift-30" x="1082.568359"/>
      <use xlink:href="#Bahnschrift-30" x="1137.744141"/>
      <use xlink:href="#Bahnschrift-30" x="1192.919922"/>
      <use xlink:href="#Bahnschrift-30" x="1248.095703"/>
      <use xlink:href="#Bahnschrift-35" x="1303.271484"/>
     </g>
    </g>
   </g>
   <g id="line2d_11">
    <path d="M 142.824545 55.543761 
L 144.653545 26.86 
L 146.482545 68.132929 
L 148.311545 98.353879 
L 150.140545 147.814531 
L 151.969545 82.128998 
L 153.798544 70.436655 
L 155.627544 104.426114 
L 157.456544 218.46 
L 159.285544 81.5508 
L 161.114544 107.411592 
L 162.943543 94.732989 
L 164.772543 80.232029 
L 166.601543 109.518146 
L 168.430543 104.829223 
L 170.259543 131.305888 
L 172.088542 87.055243 
L 173.917542 137.40228 
L 175.746542 118.892712 
L 177.575542 102.929912 
L 179.404542 93.612059 
L 181.233541 151.917894 
L 183.062541 115.385581 
L 184.891541 113.138668 
L 186.720541 132.854519 
L 188.549541 126.976478 
L 190.378541 119.302948 
L 192.20754 107.519195 
L 194.03654 113.16781 
L 195.86554 115.628791 
L 197.69454 69.455515 
L 199.52354 52.976984 
L 201.352539 64.01916 
L 203.181539 64.993375 
L 205.010539 58.043554 
L 206.839539 52.679771 
L 208.668539 83.48096 
L 210.497538 67.60967 
L 212.326538 68.356366 
L 214.155538 72.096536 
L 215.984538 67.010928 
L 217.813538 58.43609 
L 219.642537 75.771964 
L 221.471537 60.838284 
L 223.300537 60.668482 
L 225.129537 87.153243 
L 226.958537 95.56574 
L 228.787537 73.111034 
L 230.616536 84.83232 
L 232.445536 77.522585 
L 234.274536 110.035951 
L 236.103536 126.910364 
L 237.932536 142.620517 
L 239.761535 128.919888 
L 241.590535 131.985265 
L 243.419535 139.603521 
L 245.248535 130.517502 
L 247.077535 135.253401 
L 248.906534 126.604686 
L 250.735534 123.234133 
L 252.564534 134.054177 
L 254.393534 132.153729 
L 256.222534 121.502918 
L 258.051533 137.751588 
L 259.880533 145.29918 
L 261.709533 125.285714 
L 263.538533 101.49514 
L 265.367533 119.854245 
L 267.196533 134.996305 
L 269.025532 114.283722 
L 270.854532 139.822608 
L 272.683532 122.161985 
L 274.512532 126.641089 
L 276.341532 147.624519 
L 278.170531 153.000514 
L 279.999531 120.602681 
L 281.828531 137.784778 
L 283.657531 129.676186 
L 285.486531 137.688886 
L 287.31553 131.983491 
L 289.14453 168.519084 
L 290.97353 164.229724 
L 292.80253 133.877616 
L 294.63153 122.443038 
L 296.46053 134.772366 
L 298.289529 130.354258 
L 300.118529 143.516739 
L 301.947529 143.776077 
L 303.776529 120.293389 
L 305.605529 145.289979 
L 307.434528 113.373715 
L 309.263528 126.420764 
L 311.092528 126.727747 
L 312.921528 110.555296 
L 314.750528 92.128839 
L 316.579527 142.515457 
L 318.408527 102.06919 
L 320.237527 113.194443 
L 322.066527 149.720099 
L 323.895527 141.378634 
L 325.724526 70.727878 
L 327.553526 94.48399 
L 329.382526 103.000677 
L 331.211526 137.659175 
L 333.040526 119.416305 
L 334.869526 106.901415 
L 336.698525 113.375354 
L 338.527525 115.878058 
L 340.356525 105.675258 
L 342.185525 114.138043 
L 344.014525 115.046511 
L 345.843524 142.319591 
L 347.672524 141.156034 
L 349.501524 108.280713 
L 351.330524 139.028234 
L 353.159524 105.576019 
L 354.988523 115.745763 
L 356.817523 130.153105 
L 358.646523 99.620555 
L 360.475523 116.529698 
L 362.304523 136.042923 
L 364.133522 102.003008 
L 365.962522 147.120733 
L 367.791522 98.487914 
L 369.620522 109.427306 
L 371.449522 126.496447 
L 373.278522 132.051713 
L 375.107521 128.168207 
L 376.936521 146.55468 
L 378.765521 114.530144 
L 380.594521 114.864396 
L 382.423521 110.031434 
L 384.25252 120.113817 
L 386.08152 136.898594 
L 387.91052 131.975026 
L 389.73952 132.387504 
L 391.56852 123.653269 
L 393.397519 93.671749 
L 395.226519 119.375118 
L 397.055519 114.173308 
L 398.884519 119.254968 
L 400.713519 136.034157 
L 402.542519 105.938276 
L 404.371518 149.181181 
L 406.200518 123.770407 
L 408.029518 120.615863 
L 409.858518 109.259778 
L 411.687518 119.62599 
L 413.516517 98.253704 
L 415.345517 125.955489 
L 417.174517 125.291904 
L 419.003517 122.280161 
L 420.832517 98.295895 
L 422.661516 121.582415 
L 424.490516 69.590185 
L 426.319516 122.571351 
L 428.148516 140.394784 
L 429.977516 142.712997 
L 431.806515 112.616413 
L 433.635515 134.156527 
L 435.464515 116.890582 
L 437.293515 115.016331 
L 439.122515 132.305932 
L 440.951515 92.17026 
L 442.780514 123.72748 
L 444.609514 124.605835 
L 446.438514 143.288752 
L 448.267514 124.823484 
L 450.096514 129.92823 
L 451.925513 136.852488 
L 453.754513 153.997112 
L 455.583513 128.896065 
L 457.412513 126.705932 
L 459.241513 132.575207 
L 461.070512 168.153682 
L 462.899512 119.125885 
L 464.728512 164.931451 
L 466.557512 143.215512 
L 468.386512 136.932755 
L 472.044511 122.378429 
L 473.873511 144.461309 
L 475.702511 133.832983 
L 477.531511 144.728844 
L 479.360511 139.565579 
L 481.18951 91.23168 
L 483.01851 121.156052 
L 484.84751 131.762966 
L 486.67651 136.194257 
L 488.50551 134.664496 
L 490.334509 122.721647 
L 492.163509 141.343268 
L 493.992509 134.538959 
L 495.821509 136.305406 
L 497.650509 131.551306 
L 499.479508 124.854098 
L 501.308508 84.650205 
L 503.137508 100.084894 
L 504.966508 137.278951 
L 506.795508 119.045484 
L 508.624507 142.217374 
L 510.453507 118.525002 
L 512.282507 107.26946 
L 514.111507 113.699066 
L 515.940507 115.009305 
L 517.769507 161.139788 
L 519.598506 126.587321 
L 521.427506 116.247541 
L 523.256506 131.723384 
L 525.085506 156.274271 
L 526.914506 127.973444 
L 528.743505 108.453961 
L 530.572505 143.756102 
L 532.401505 112.77504 
L 534.230505 116.561918 
L 536.059505 162.66433 
L 537.888504 159.35243 
L 539.717504 132.329888 
L 541.546504 124.842823 
L 543.375504 137.719501 
L 545.204504 137.432359 
L 547.033504 166.977913 
L 548.862503 157.973266 
L 550.691503 144.332393 
L 552.520503 139.918501 
L 554.349503 150.124178 
L 556.178503 139.991039 
L 558.007502 135.828086 
L 559.836502 144.272369 
L 561.665502 101.958743 
L 563.494502 123.32504 
L 565.323502 147.010721 
L 567.152501 124.371592 
L 568.981501 139.166217 
L 570.810501 115.620661 
L 572.639501 101.395266 
L 574.468501 115.693835 
L 576.2975 139.491368 
L 578.1265 142.903811 
L 579.9555 118.951565 
L 581.7845 156.744699 
L 583.6135 97.188282 
L 585.4425 143.081075 
L 587.271499 160.536998 
L 589.100499 118.411075 
L 590.929499 118.523663 
L 592.758499 100.419613 
L 594.587499 138.32199 
L 596.416498 142.605963 
L 598.245498 114.80484 
L 600.074498 117.036562 
L 601.903498 100.072882 
L 603.732498 119.586309 
L 605.561497 114.5716 
L 607.390497 150.653092 
L 609.219497 113.733629 
L 611.048497 128.994567 
L 612.877497 131.150372 
L 614.706496 105.637416 
L 616.535496 147.488845 
L 618.364496 92.126597 
L 620.193496 133.901472 
L 622.022496 106.702604 
L 623.851496 108.744148 
L 625.680495 133.907796 
L 627.509495 134.200994 
L 629.338495 129.215729 
L 631.167495 99.363794 
L 632.996495 80.365295 
L 634.825494 147.079679 
L 636.654494 147.494365 
L 638.483494 150.153823 
L 640.312494 134.617052 
L 642.141494 126.735007 
L 643.970493 144.423936 
L 645.799493 143.345766 
L 647.628493 120.333941 
L 649.457493 117.02629 
L 651.286493 123.842444 
L 653.115493 95.462085 
L 654.944492 114.650997 
L 656.773492 114.27877 
L 658.602492 131.124074 
L 660.431492 118.663922 
L 662.260492 118.686941 
L 664.089491 113.999424 
L 665.918491 152.457615 
L 667.747491 138.22148 
L 669.576491 140.831686 
L 671.405491 132.381548 
L 673.23449 125.12799 
L 675.06349 82.776021 
L 676.89249 131.157934 
L 678.72149 116.983764 
L 680.55049 122.970145 
L 682.379489 119.22703 
L 684.208489 109.249473 
L 686.037489 121.20624 
L 687.866489 134.441026 
L 689.695489 111.431911 
L 691.524489 141.297062 
L 693.353488 111.181038 
L 695.182488 94.22221 
L 697.011488 97.403956 
L 698.840488 132.44696 
L 700.669488 122.9671 
L 702.498487 108.506424 
L 704.327487 113.060208 
L 706.156487 133.042255 
L 707.985487 93.3826 
L 709.814487 125.428582 
L 711.643486 167.179 
L 713.472486 116.575937 
L 715.301486 157.428392 
L 717.130486 113.122474 
L 718.959486 142.584917 
L 720.788485 164.185124 
L 722.617485 176.542624 
L 724.446485 159.712712 
L 726.275485 190.078638 
L 728.104485 116.923907 
L 729.933485 148.157615 
L 731.762484 150.234458 
L 733.591484 158.049217 
L 735.420484 129.283248 
L 737.249484 132.413133 
L 739.078484 128.878733 
L 740.907483 153.76695 
L 742.736483 131.150439 
L 744.565483 170.202185 
L 746.394483 132.909257 
L 748.223483 128.265236 
L 750.052482 137.01416 
L 751.881482 85.887571 
L 753.710482 135.037359 
L 755.539482 116.070278 
L 757.368482 136.426593 
L 759.197481 78.472876 
L 761.026481 76.630344 
L 762.855481 91.130401 
L 764.684481 139.011237 
L 766.513481 129.843111 
L 768.342481 129.097419 
L 770.17148 127.307417 
L 772.00048 133.72277 
L 773.82948 134.667474 
L 775.65848 128.584933 
L 777.48748 119.282471 
L 779.316479 117.484539 
L 781.145479 103.298124 
L 782.974479 126.382889 
L 784.803479 121.529384 
L 786.632479 128.789667 
L 788.461478 150.739147 
L 790.290478 121.313944 
L 792.119478 132.252231 
L 793.948478 93.884512 
L 795.777478 130.120148 
L 797.606478 149.163715 
L 799.435477 127.200283 
L 801.264477 109.396658 
L 803.093477 126.207867 
L 804.922477 101.463455 
L 806.751477 122.283507 
L 808.580476 102.49301 
L 810.409476 133.341743 
L 812.238476 143.67801 
L 814.067476 139.649092 
L 815.896476 133.67121 
L 817.725475 123.165141 
L 819.554475 102.731202 
L 821.383475 142.554503 
L 823.212475 115.085022 
L 825.041475 126.035823 
L 826.870474 133.362789 
L 828.699474 127.608277 
L 830.528474 126.72865 
L 832.357474 146.362829 
L 834.186474 121.942765 
L 836.015474 145.89665 
L 837.844473 134.022659 
L 839.673473 132.698769 
L 841.502473 141.536124 
L 843.331473 134.984996 
L 845.160473 145.416486 
L 846.989472 127.340943 
L 848.818472 122.668348 
L 850.647472 128.841394 
L 852.476472 139.371452 
L 854.305472 142.740399 
L 856.134471 159.335734 
L 857.963471 117.199405 
L 859.792471 127.798623 
L 861.621471 134.698222 
L 863.450471 135.201272 
L 865.27947 117.443486 
L 867.10847 120.458173 
L 868.93747 127.858915 
L 870.76647 121.493917 
L 872.59547 124.136645 
L 874.42447 142.759136 
L 876.253469 137.682864 
L 878.082469 118.457081 
L 879.911469 119.931936 
L 881.740469 115.932662 
L 883.569469 121.270012 
L 885.398468 120.475638 
L 887.227468 122.440026 
L 889.056468 118.073243 
L 890.885468 116.751428 
L 892.714468 109.252484 
L 894.543467 118.878592 
L 896.372467 133.713535 
L 898.201467 133.921982 
L 900.030467 125.640074 
L 901.859467 142.032616 
L 903.688467 154.301184 
L 905.517466 146.033395 
L 907.346466 130.437369 
L 909.175466 126.065066 
L 911.004466 133.467113 
L 912.833466 109.417067 
L 914.662465 152.318527 
L 916.491465 147.015238 
L 918.320465 152.069997 
L 920.149465 125.749216 
L 921.978465 118.138287 
L 923.807464 139.713332 
L 925.636464 106.485926 
L 927.465464 135.463688 
L 929.294464 128.10942 
L 931.123464 132.090425 
L 932.952463 137.307793 
L 934.781463 136.586325 
L 936.610463 118.336462 
L 938.439463 131.407903 
L 940.268463 129.005006 
L 942.097463 98.524418 
L 943.926462 121.099608 
L 945.755462 128.584231 
L 947.584462 137.259311 
L 949.413462 131.78903 
L 951.242462 133.214032 
L 953.071461 111.862423 
L 954.900461 115.395618 
L 956.729461 124.952266 
L 958.558461 144.932741 
L 960.387461 118.417031 
L 962.21646 154.800922 
L 964.04546 111.217843 
L 965.87446 91.317166 
L 967.70346 137.300566 
L 969.53246 125.467796 
L 971.361459 116.007041 
L 973.190459 133.84205 
L 975.019459 120.054093 
L 976.848459 121.798625 
L 978.677459 120.565307 
L 980.506459 142.089429 
L 982.335458 93.146014 
L 984.164458 87.997069 
L 985.993458 137.574391 
L 987.822458 101.917923 
L 989.651458 144.111098 
L 991.480457 123.537402 
L 993.309457 132.21904 
L 995.138457 116.710106 
L 996.967457 126.377669 
L 998.796457 106.37578 
L 1000.625456 135.82929 
L 1002.454456 167.292023 
L 1004.283456 127.575989 
L 1006.112456 128.427176 
L 1007.941456 124.499905 
L 1009.770455 138.856993 
L 1011.599455 140.481877 
L 1013.428455 114.267327 
L 1015.257455 142.864865 
L 1017.086455 130.943631 
L 1018.915455 144.915577 
L 1018.915455 144.915577 
" clip-path="url(#p729100275c)" style="fill: none; stroke: #d2dbe0; stroke-width: 1.5; stroke-linecap: square"/>
   </g>
   <g id="line2d_12">
    <path d="M 161.114544 103.304299 
L 162.943543 109.557194 
L 164.772543 111.919826 
L 166.601543 112.659066 
L 168.430543 111.911065 
L 170.259543 114.153439 
L 172.088542 116.596754 
L 173.917542 116.751408 
L 175.746542 111.486798 
L 177.575542 113.190698 
L 179.404542 111.292894 
L 181.233541 109.205094 
L 183.062541 108.39445 
L 186.720541 103.828928 
L 188.549541 99.897622 
L 190.378541 99.718908 
L 192.20754 96.229278 
L 194.03654 93.702461 
L 195.86554 92.160792 
L 197.69454 90.830735 
L 199.52354 86.156645 
L 201.352539 84.175964 
L 203.181539 81.560945 
L 205.010539 77.951643 
L 206.839539 75.960481 
L 208.668539 74.773621 
L 210.497538 73.053213 
L 212.326538 71.636438 
L 214.155538 69.731128 
L 215.984538 71.76015 
L 219.642537 79.386887 
L 221.471537 82.583212 
L 223.300537 86.280298 
L 225.129537 90.626485 
L 226.958537 92.978313 
L 228.787537 96.360499 
L 230.616536 99.272915 
L 232.445536 101.829795 
L 234.274536 105.181957 
L 236.103536 108.867839 
L 237.932536 111.154387 
L 239.761535 115.000052 
L 241.590535 119.231587 
L 243.419535 121.138211 
L 245.248535 121.434681 
L 248.906534 126.28004 
L 250.735534 128.118097 
L 252.564534 129.60743 
L 254.393534 129.370011 
L 256.222534 128.57104 
L 259.880533 130.557034 
L 261.709533 129.606992 
L 263.538533 129.970356 
L 265.367533 129.691495 
L 267.196533 130.245705 
L 269.025532 130.683173 
L 272.683532 134.010218 
L 274.512532 134.628953 
L 276.341532 133.863525 
L 278.170531 133.337185 
L 279.999531 133.590612 
L 281.828531 135.691692 
L 283.657531 136.887783 
L 285.486531 136.152638 
L 287.31553 137.70295 
L 289.14453 136.380506 
L 290.97353 136.593445 
L 292.80253 136.597778 
L 294.63153 134.744316 
L 296.46053 131.700733 
L 298.289529 132.796371 
L 300.118529 131.010592 
L 301.947529 130.186505 
L 303.776529 130.788066 
L 305.605529 131.257823 
L 307.434528 126.368262 
L 309.263528 122.880976 
L 311.092528 121.337129 
L 312.921528 122.097936 
L 314.750528 121.330133 
L 316.579527 120.15749 
L 320.237527 117.25552 
L 322.066527 116.524614 
L 323.895527 114.967017 
L 325.724526 115.050657 
L 329.382526 116.567012 
L 331.211526 116.453283 
L 333.040526 118.798253 
L 334.869526 116.951281 
L 336.698525 117.63511 
L 338.527525 118.483043 
L 340.356525 115.978066 
L 342.185525 114.735619 
L 344.014525 118.001371 
L 345.843524 118.377322 
L 347.672524 120.583325 
L 349.501524 118.624762 
L 351.330524 118.125312 
L 354.988523 120.038881 
L 356.817523 120.653389 
L 358.646523 122.69736 
L 362.304523 122.707859 
L 364.133522 121.093451 
L 365.962522 120.041341 
L 367.791522 121.472235 
L 369.620522 121.119574 
L 371.449522 122.460148 
L 373.278522 122.855524 
L 375.107521 121.031456 
L 376.936521 122.019184 
L 378.765521 121.901365 
L 380.594521 121.061967 
L 382.423521 122.763524 
L 384.25252 120.704401 
L 386.08152 123.239065 
L 387.91052 123.95622 
L 389.73952 123.662191 
L 391.56852 122.522594 
L 393.397519 122.095483 
L 395.226519 119.680434 
L 400.713519 121.385513 
L 402.542519 120.294617 
L 404.371518 119.528808 
L 406.200518 116.409566 
L 408.029518 115.918759 
L 409.858518 116.755834 
L 411.687518 119.207897 
L 413.516517 118.869961 
L 415.345517 119.869122 
L 417.174517 119.750903 
L 419.003517 118.700012 
L 420.832517 120.018395 
L 422.661516 117.167849 
L 424.490516 117.165702 
L 426.319516 117.365201 
L 428.148516 119.06665 
L 429.977516 119.326524 
L 431.806515 120.91025 
L 433.635515 121.4551 
L 435.464515 122.890361 
L 437.293515 123.221156 
L 439.122515 124.641658 
L 440.951515 125.191297 
L 442.780514 130.119472 
L 444.609514 129.947199 
L 446.438514 131.174032 
L 448.267514 131.199158 
L 450.096514 132.414975 
L 451.925513 132.198669 
L 453.754513 132.473061 
L 455.583513 133.94531 
L 457.412513 134.021662 
L 459.241513 136.649592 
L 461.070512 137.441497 
L 462.899512 135.772789 
L 464.728512 134.666154 
L 468.386512 135.326429 
L 470.215511 135.21703 
L 472.044511 133.653256 
L 473.873511 134.275617 
L 475.702511 134.667268 
L 477.531511 134.853778 
L 479.360511 133.023659 
L 481.18951 133.31007 
L 483.01851 129.296007 
L 484.84751 127.139477 
L 486.67651 127.156786 
L 488.50551 126.617541 
L 490.334509 127.609488 
L 493.992509 124.984496 
L 495.821509 123.433008 
L 497.650509 122.205194 
L 499.479508 125.700599 
L 501.308508 125.972163 
L 503.137508 125.196391 
L 504.966508 124.972848 
L 506.795508 126.053337 
L 508.624507 126.315926 
L 510.453507 124.671461 
L 512.282507 125.132318 
L 514.111507 123.9558 
L 515.940507 123.206331 
L 517.769507 125.096842 
L 519.598506 128.831953 
L 521.427506 130.444203 
L 523.256506 129.822397 
L 525.085506 130.756097 
L 526.914506 130.516847 
L 530.572505 135.474683 
L 532.401505 137.006349 
L 534.230505 138.251809 
L 536.059505 137.701028 
L 537.888504 138.371214 
L 539.717504 139.350241 
L 541.546504 139.977691 
L 543.375504 137.261914 
L 545.204504 137.029494 
L 547.033504 138.957332 
L 548.862503 137.988106 
L 550.691503 139.307665 
L 552.520503 139.260602 
L 554.349503 136.197149 
L 556.178503 134.014219 
L 558.007502 134.372293 
L 559.836502 135.275343 
L 561.665502 134.336946 
L 563.494502 135.302563 
L 565.323502 131.813082 
L 567.152501 131.068472 
L 568.981501 131.878702 
L 570.810501 130.803331 
L 572.639501 129.223305 
L 574.468501 127.244734 
L 576.2975 127.369429 
L 578.1265 127.286109 
L 579.9555 127.928414 
L 581.7845 127.61399 
L 583.6135 125.267098 
L 585.4425 125.027834 
L 587.271499 123.798103 
L 589.100499 125.549724 
L 592.758499 126.831679 
L 594.587499 126.414629 
L 596.416498 124.55131 
L 598.245498 125.978174 
L 600.074498 122.747268 
L 601.903498 124.582928 
L 603.732498 122.764004 
L 605.561497 120.174362 
L 609.219497 121.733064 
L 611.048497 123.17287 
L 612.877497 121.22496 
L 614.706496 118.112927 
L 618.364496 121.249559 
L 620.193496 123.753606 
L 622.022496 124.505143 
L 623.851496 125.113314 
L 625.680495 124.801856 
L 627.509495 126.282463 
L 629.338495 125.849432 
L 631.167495 125.143227 
L 632.996495 126.053479 
L 634.825494 123.452141 
L 636.654494 124.578361 
L 638.483494 123.597226 
L 640.312494 124.818299 
L 642.141494 125.314288 
L 643.970493 124.553245 
L 645.799493 123.543167 
L 647.628493 124.705261 
L 649.457493 126.648145 
L 651.286493 129.671465 
L 653.115493 128.936558 
L 654.944492 127.81824 
L 656.773492 124.449349 
L 658.602492 124.276394 
L 660.431492 123.788831 
L 662.260492 122.716142 
L 664.089491 121.510205 
L 665.918491 120.955982 
L 667.747491 121.164979 
L 669.576491 121.694908 
L 671.405491 122.4934 
L 673.23449 123.825703 
L 675.06349 123.670816 
L 676.89249 121.825723 
L 678.72149 120.762725 
L 680.55049 121.450726 
L 682.379489 121.899109 
L 684.208489 119.70155 
L 686.037489 118.443486 
L 687.866489 118.054015 
L 689.695489 116.104067 
L 691.524489 116.119097 
L 693.353488 120.339246 
L 695.182488 119.610146 
L 697.011488 121.632377 
L 698.840488 121.139994 
L 700.669488 122.307888 
L 704.327487 127.82149 
L 706.156487 129.085074 
L 707.985487 133.017411 
L 709.814487 131.798753 
L 711.643486 133.647582 
L 713.472486 136.448194 
L 715.301486 139.480457 
L 717.130486 139.322272 
L 718.959486 139.794573 
L 720.788485 140.813189 
L 722.617485 142.848526 
L 724.446485 142.753935 
L 726.275485 146.594914 
L 728.104485 146.968948 
L 729.933485 145.02326 
L 731.762484 146.045171 
L 733.591484 142.46813 
L 735.420484 143.563874 
L 739.078484 140.850216 
L 740.907483 135.946728 
L 742.736483 131.79261 
L 744.565483 126.845198 
L 746.394483 127.949565 
L 748.223483 127.033839 
L 750.052482 125.976987 
L 751.881482 124.439897 
L 755.539482 124.774591 
L 757.368482 124.759901 
L 759.197481 123.035677 
L 761.026481 122.352382 
L 762.855481 119.007179 
L 768.342481 117.932843 
L 770.17148 121.175422 
L 772.00048 120.489251 
L 773.82948 121.298349 
L 775.65848 119.171244 
L 777.48748 121.753608 
L 779.316479 125.380277 
L 781.145479 127.183771 
L 782.974479 125.703042 
L 784.803479 125.52128 
L 786.632479 124.139581 
L 788.461478 123.888386 
L 790.290478 122.326898 
L 792.119478 122.260611 
L 793.948478 123.015265 
L 795.777478 124.033596 
L 797.606478 124.84293 
L 799.435477 125.836281 
L 801.264477 124.653696 
L 803.093477 125.704952 
L 804.922477 125.01972 
L 806.751477 123.784554 
L 808.580476 124.386996 
L 810.409476 124.154798 
L 812.238476 125.797005 
L 814.067476 126.609139 
L 815.896476 125.248092 
L 817.725475 126.18291 
L 819.554475 127.41421 
L 821.383475 127.738755 
L 823.212475 129.742389 
L 825.041475 130.377463 
L 826.870474 132.523637 
L 828.699474 132.223597 
L 830.528474 131.173114 
L 832.357474 130.632729 
L 834.186474 130.917741 
L 836.015474 131.896504 
L 837.844473 134.726731 
L 839.673473 133.458976 
L 841.502473 134.094656 
L 843.331473 134.527776 
L 845.160473 134.6197 
L 846.989472 134.11146 
L 848.818472 133.797936 
L 850.647472 132.872741 
L 852.476472 132.850298 
L 854.305472 131.762298 
L 856.134471 132.199122 
L 857.963471 132.448327 
L 859.792471 131.294374 
L 861.621471 130.541722 
L 863.450471 129.06753 
L 865.27947 128.763984 
L 867.10847 128.654348 
L 868.93747 128.33428 
L 870.76647 127.26937 
L 872.59547 125.969921 
L 874.42447 123.465758 
L 876.253469 123.549718 
L 878.082469 123.845463 
L 879.911469 123.806651 
L 881.740469 123.328592 
L 883.569469 124.558048 
L 885.398468 126.250199 
L 887.227468 127.158923 
L 889.056468 127.606095 
L 890.885468 127.702516 
L 892.714468 127.237915 
L 894.543467 125.824625 
L 896.372467 127.517698 
L 898.201467 128.871863 
L 900.030467 130.678729 
L 901.859467 130.90269 
L 903.688467 130.785822 
L 905.517466 131.649487 
L 907.346466 131.070122 
L 911.004466 132.948581 
L 912.833466 133.609173 
L 916.491465 133.922103 
L 918.320465 133.556922 
L 920.149465 133.025687 
L 921.978465 131.760878 
L 923.807464 129.385429 
L 925.636464 128.918541 
L 929.294464 129.234109 
L 931.123464 130.352707 
L 932.952463 129.397482 
L 936.610463 125.806123 
L 938.439463 125.766275 
L 940.268463 127.105998 
L 942.097463 126.041183 
L 943.926462 128.456933 
L 945.755462 127.24464 
L 947.584462 125.405028 
L 949.413462 125.665535 
L 951.242462 125.073535 
L 953.071461 124.044571 
L 954.900461 124.81985 
L 956.729461 124.25216 
L 958.558461 123.89184 
L 962.21646 126.043376 
L 964.04546 124.271465 
L 965.87446 121.808353 
L 967.70346 122.097621 
L 969.53246 120.532816 
L 971.361459 122.145249 
L 975.019459 122.915677 
L 976.848459 121.504546 
L 978.677459 121.902577 
L 980.506459 119.48132 
L 982.335458 120.711893 
L 984.164458 124.510636 
L 985.993458 124.024407 
L 987.822458 124.172376 
L 989.651458 124.597019 
L 991.480457 124.847766 
L 993.309457 125.869155 
L 995.138457 125.49259 
L 996.967457 126.607568 
L 998.796457 126.050278 
L 1000.625456 128.638757 
L 1000.625456 128.638757 
" clip-path="url(#p729100275c)" style="fill: none; stroke: #5dc694; stroke-width: 1.5; stroke-linecap: square"/>
   </g>
   <g id="patch_3">
    <path d="M 99.02 228.04 
L 99.02 17.28 
" style="fill: none; stroke: #000000; stroke-width: 0.8; stroke-linejoin: miter; stroke-linecap: square"/>
   </g>
   <g id="patch_4">
    <path d="M 1062.72 228.04 
L 1062.72 17.28 
" style="fill: none; stroke: #000000; stroke-width: 0.8; stroke-linejoin: miter; stroke-linecap: square"/>
   </g>
   <g id="patch_5">
    <path d="M 99.02 228.04 
L 1062.72 228.04 
" style="fill: none; stroke: #000000; stroke-width: 0.8; stroke-linejoin: miter; stroke-linecap: square"/>
   </g>
   <g id="patch_6">
    <path d="M 99.02 17.28 
L 1062.72 17.28 
" style="fill: none; stroke: #000000; stroke-width: 0.8; stroke-linejoin: miter; stroke-linecap: square"/>
   </g>
   <g id="legend_1">
    <g id="patch_7">
     <path d="M 854.2975 76.605 
L 1051.52 76.605 
Q 1054.72 76.605 1054.72 73.405 
L 1054.72 28.48 
Q 1054.72 25.28 1051.52 25.28 
L 854.2975 25.28 
Q 851.0975 25.28 851.0975 28.48 
L 851.0975 73.405 
Q 851.0975 76.605 854.2975 76.605 
z
" style="fill: #ffffff; opacity: 0.8; stroke: #cccccc; stroke-linejoin: miter"/>
    </g>
    <g id="line2d_13">
     <path d="M 857.4975 37.44 
L 873.4975 37.44 
L 889.4975 37.44 
" style="fill: none; stroke: #d2dbe0; stroke-width: 1.5; stroke-linecap: square"/>
    </g>
    <g id="text_13">
     <!-- 1st. Difference -->
     <g transform="translate(902.2975 43.04) scale(0.16 -0.16)">
      <use xlink:href="#Bahnschrift-31"/>
      <use xlink:href="#Bahnschrift-73" x="33.251953"/>
      <use xlink:href="#Bahnschrift-74" x="85.107422"/>
      <use xlink:href="#Bahnschrift-2e" x="117.724609"/>
      <use xlink:href="#Bahnschrift-20" x="140.380859"/>
      <use xlink:href="#Bahnschrift-44" x="167.236328"/>
      <use xlink:href="#Bahnschrift-69" x="232.861328"/>
      <use xlink:href="#Bahnschrift-66" x="257.958984"/>
      <use xlink:href="#Bahnschrift-66" x="289.648438"/>
      <use xlink:href="#Bahnschrift-65" x="321.337891"/>
      <use xlink:href="#Bahnschrift-72" x="374.951172"/>
      <use xlink:href="#Bahnschrift-65" x="417.626953"/>
      <use xlink:href="#Bahnschrift-6e" x="471.240234"/>
      <use xlink:href="#Bahnschrift-63" x="527.099609"/>
      <use xlink:href="#Bahnschrift-65" x="576.904297"/>
     </g>
    </g>
    <g id="line2d_14">
     <path d="M 857.4975 61.3075 
L 873.4975 61.3075 
L 889.4975 61.3075 
" style="fill: none; stroke: #5dc694; stroke-width: 1.5; stroke-linecap: square"/>
    </g>
    <g id="text_14">
     <!-- Rolling Average (20) -->
     <g transform="translate(902.2975 66.9075) scale(0.16 -0.16)">
      <defs>
       <path id="Bahnschrift-52" d="M 841 1922 
L 841 2528 
L 2391 2528 
Q 2669 2528 2837 2722 
Q 3006 2916 3006 3234 
L 3006 3234 
Q 3006 3553 2837 3747 
Q 2669 3941 2391 3941 
L 841 3941 
L 841 4547 
L 2366 4547 
Q 2763 4547 3059 4383 
Q 3356 4219 3520 3925 
Q 3684 3631 3684 3234 
L 3684 3234 
Q 3684 2841 3518 2545 
Q 3353 2250 3058 2086 
Q 2763 1922 2366 1922 
L 841 1922 
z
M 563 0 
L 563 4547 
L 1200 4547 
L 1200 0 
L 563 0 
z
M 3119 0 
L 2078 2063 
L 2713 2206 
L 3875 0 
L 3119 0 
z
" transform="scale(0.015625)"/>
       <path id="Bahnschrift-67" d="M 1588 -1319 
Q 1222 -1319 933 -1183 
Q 644 -1047 484 -800 
L 484 -800 
L 916 -409 
L 916 -409 
Q 1041 -581 1214 -675 
Q 1388 -769 1578 -769 
Q 1944 -769 2144 -567 
Q 2344 -366 2344 3 
L 2344 3244 
L 2981 3244 
L 2981 97 
Q 2981 -578 2617 -948 
Q 2253 -1319 1588 -1319 
z
M 1528 -56 
Q 991 -56 698 289 
Q 406 634 406 1263 
L 406 1978 
Q 406 2609 692 2954 
Q 978 3300 1497 3300 
Q 1784 3300 2023 3150 
Q 2263 3000 2409 2728 
L 2344 2066 
Q 2344 2272 2269 2419 
Q 2194 2566 2051 2642 
Q 1909 2719 1706 2719 
Q 1391 2719 1217 2522 
Q 1044 2325 1044 1969 
L 1044 1263 
Q 1044 909 1217 717 
Q 1391 525 1706 525 
Q 1909 525 2051 604 
Q 2194 684 2269 834 
Q 2344 984 2344 1194 
L 2388 509 
Q 2300 291 2086 117 
Q 1872 -56 1528 -56 
z
" transform="scale(0.015625)"/>
       <path id="Bahnschrift-41" d="M 125 0 
L 1800 4544 
L 2344 4544 
L 4019 0 
L 3331 0 
L 2072 3666 
L 813 0 
L 125 0 
z
M 897 997 
L 897 1603 
L 3288 1603 
L 3288 997 
L 897 997 
z
" transform="scale(0.015625)"/>
       <path id="Bahnschrift-76" d="M 1616 928 
L 2409 3244 
L 3075 3244 
L 1856 0 
L 1375 0 
L 156 3244 
L 822 3244 
L 1616 928 
z
" transform="scale(0.015625)"/>
       <path id="Bahnschrift-28" d="M 1672 -978 
Q 1116 -375 839 373 
Q 563 1122 563 2025 
Q 563 2928 839 3676 
Q 1116 4425 1672 5028 
L 2109 4631 
Q 1638 4106 1403 3456 
Q 1169 2806 1169 2025 
Q 1169 1244 1403 594 
Q 1638 -56 2109 -584 
L 1672 -978 
z
" transform="scale(0.015625)"/>
       <path id="Bahnschrift-29" d="M 500 -978 
L 63 -584 
Q 534 -56 768 594 
Q 1003 1244 1003 2025 
Q 1003 2806 768 3456 
Q 534 4106 63 4631 
L 500 5028 
Q 1056 4425 1332 3676 
Q 1609 2928 1609 2025 
Q 1609 1122 1332 373 
Q 1056 -375 500 -978 
z
" transform="scale(0.015625)"/>
      </defs>
      <use xlink:href="#Bahnschrift-52"/>
      <use xlink:href="#Bahnschrift-6f" x="65.185547"/>
      <use xlink:href="#Bahnschrift-6c" x="119.677734"/>
      <use xlink:href="#Bahnschrift-6c" x="148.632812"/>
      <use xlink:href="#Bahnschrift-69" x="177.587891"/>
      <use xlink:href="#Bahnschrift-6e" x="202.685547"/>
      <use xlink:href="#Bahnschrift-67" x="258.544922"/>
      <use xlink:href="#Bahnschrift-20" x="312.451172"/>
      <use xlink:href="#Bahnschrift-41" x="339.306641"/>
      <use xlink:href="#Bahnschrift-76" x="404.052734"/>
      <use xlink:href="#Bahnschrift-65" x="454.052734"/>
      <use xlink:href="#Bahnschrift-72" x="507.666016"/>
      <use xlink:href="#Bahnschrift-61" x="550.341797"/>
      <use xlink:href="#Bahnschrift-67" x="603.564453"/>
      <use xlink:href="#Bahnschrift-65" x="657.470703"/>
      <use xlink:href="#Bahnschrift-20" x="711.083984"/>
      <use xlink:href="#Bahnschrift-28" x="737.939453"/>
      <use xlink:href="#Bahnschrift-32" x="771.875"/>
      <use xlink:href="#Bahnschrift-30" x="823.535156"/>
      <use xlink:href="#Bahnschrift-29" x="878.710938"/>
     </g>
    </g>
   </g>
  </g>
 </g>
 <defs>
  <clipPath id="p729100275c">
   <rect x="99.02" y="17.28" width="963.7" height="210.76"/>
  </clipPath>
 </defs>
</svg>
