<?xml version="1.0" encoding="utf-8" standalone="no"?>
<!DOCTYPE svg PUBLIC "-//W3C//DTD SVG 1.1//EN"
  "http://www.w3.org/Graphics/SVG/1.1/DTD/svg11.dtd">
<svg xmlns:xlink="http://www.w3.org/1999/xlink" width="1080pt" height="288pt" viewBox="0 0 1080 288" xmlns="http://www.w3.org/2000/svg" version="1.1">
 <metadata>
  <rdf:RDF xmlns:dc="http://purl.org/dc/elements/1.1/" xmlns:cc="http://creativecommons.org/ns#" xmlns:rdf="http://www.w3.org/1999/02/22-rdf-syntax-ns#">
   <cc:Work>
    <dc:type rdf:resource="http://purl.org/dc/dcmitype/StillImage"/>
    <dc:date>2024-05-29T19:41:01.148813</dc:date>
    <dc:format>image/svg+xml</dc:format>
    <dc:creator>
     <cc:Agent>
      <dc:title>Matplotlib v3.8.2, https://matplotlib.org/</dc:title>
     </cc:Agent>
    </dc:creator>
   </cc:Work>
  </rdf:RDF>
 </metadata>
 <defs>
  <style type="text/css">*{stroke-linejoin: round; stroke-linecap: butt}</style>
 </defs>
 <g id="figure_1">
  <g id="patch_1">
   <path d="M 0 288 
L 1080 288 
L 1080 0 
L 0 0 
z
" style="fill: #ffffff"/>
  </g>
  <g id="axes_1">
   <g id="patch_2">
    <path d="M 74.6975 228.04 
L 1062.72 228.04 
L 1062.72 17.28 
L 74.6975 17.28 
z
" style="fill: #ffffff"/>
   </g>
   <g id="PolyCollection_1">
    <defs>
     <path id="mb692e12ada" d="M 119.607614 -261.14 
L 119.607614 -132.915451 
L 121.436946 -126.794663 
L 123.266279 -118.239874 
L 125.095611 -112.390699 
L 126.924944 -112.415548 
L 128.754276 -107.361418 
L 130.583609 -103.603857 
L 132.412941 -100.807193 
L 134.242274 -99.612195 
L 136.071606 -96.905398 
L 137.900939 -94.398737 
L 139.730271 -93.617764 
L 141.559604 -91.268448 
L 143.388937 -89.167305 
L 145.218269 -89.81076 
L 147.047602 -88.850054 
L 148.876934 -87.869521 
L 150.706267 -84.447567 
L 152.535599 -85.871355 
L 154.364932 -84.643929 
L 156.194264 -84.230097 
L 158.023597 -83.206069 
L 159.852929 -81.981841 
L 161.682262 -82.023416 
L 163.511594 -81.643483 
L 165.340927 -82.746184 
L 167.170259 -80.592592 
L 168.999592 -80.830529 
L 170.828925 -78.623209 
L 172.658257 -77.669539 
L 174.48759 -77.824966 
L 176.316922 -76.268137 
L 178.146255 -76.521426 
L 179.975587 -77.571038 
L 181.80492 -77.863343 
L 183.634252 -76.470256 
L 185.463585 -76.339774 
L 187.292917 -73.518421 
L 189.12225 -76.204815 
L 190.951582 -74.477208 
L 192.780915 -74.843069 
L 194.610247 -74.715146 
L 196.43958 -74.594898 
L 198.268912 -75.038792 
L 200.098245 -73.748684 
L 201.927578 -73.885562 
L 203.75691 -73.362355 
L 205.586243 -74.331375 
L 207.415575 -74.158678 
L 209.244908 -73.861896 
L 211.07424 -74.237351 
L 212.903573 -74.111347 
L 214.732905 -75.372673 
L 216.562238 -71.485077 
L 218.39157 -73.980225 
L 220.220903 -72.752799 
L 222.050235 -73.162154 
L 223.879568 -73.241467 
L 225.7089 -73.33613 
L 227.538233 -72.825715 
L 229.367565 -72.498231 
L 231.196898 -74.651184 
L 233.026231 -72.484799 
L 234.855563 -71.389774 
L 236.684896 -72.553878 
L 238.514228 -72.83403 
L 240.343561 -72.036427 
L 242.172893 -72.033229 
L 244.002226 -70.278758 
L 245.831558 -71.038624 
L 247.660891 -76.07881 
L 249.490223 -73.497314 
L 251.319556 -71.055254 
L 253.148888 -70.723932 
L 254.978221 -72.156036 
L 256.807553 -72.621038 
L 258.636886 -70.749517 
L 260.466219 -71.875244 
L 262.295551 -72.010203 
L 264.124884 -71.856055 
L 265.954216 -71.537526 
L 267.783549 -72.418919 
L 269.612881 -71.179979 
L 271.442214 -70.847378 
L 273.271546 -71.306624 
L 275.100879 -72.850661 
L 276.930211 -70.121412 
L 278.759544 -71.337325 
L 280.588876 -71.83047 
L 282.418209 -72.826355 
L 284.247541 -72.163072 
L 286.076874 -72.96835 
L 287.906206 -72.621038 
L 289.735539 -71.068686 
L 291.564872 -71.752437 
L 293.394204 -71.701268 
L 295.223537 -72.511024 
L 297.052869 -73.113543 
L 298.882202 -71.347559 
L 300.711534 -72.271167 
L 302.540867 -72.01468 
L 304.370199 -72.705467 
L 306.199532 -71.869487 
L 308.028864 -71.853497 
L 309.858197 -73.535691 
L 311.687529 -73.194135 
L 313.516862 -69.54 
L 315.346194 -73.373228 
L 317.175527 -72.768789 
L 319.00486 -73.699433 
L 320.834192 -72.971548 
L 322.663525 -74.040989 
L 324.492857 -72.390775 
L 326.32219 -74.782945 
L 328.151522 -71.885478 
L 329.980855 -72.507826 
L 331.810187 -73.923299 
L 333.63952 -73.009286 
L 335.468852 -71.675683 
L 337.298185 -71.847101 
L 339.127517 -73.01952 
L 340.95685 -70.830109 
L 342.786182 -74.442029 
L 344.615515 -74.023719 
L 346.444847 -75.871574 
L 348.27418 -74.112626 
L 350.103513 -74.860979 
L 351.932845 -71.419196 
L 353.762178 -70.82755 
L 355.59151 -71.88164 
L 357.420843 -72.495033 
L 359.250175 -74.911508 
L 361.079508 -73.232512 
L 362.90884 -74.330096 
L 364.738173 -74.181065 
L 366.567505 -72.693954 
L 368.396838 -74.136931 
L 370.22617 -71.089154 
L 372.055503 -72.012762 
L 373.884835 -75.756443 
L 375.714168 -72.628713 
L 377.543501 -74.222001 
L 379.372833 -76.410132 
L 381.202166 -73.184541 
L 383.031498 -74.378067 
L 384.860831 -77.988069 
L 386.690163 -75.363718 
L 388.519496 -73.050221 
L 390.348828 -74.831556 
L 392.178161 -75.574792 
L 394.007493 -73.521619 
L 395.836826 -74.988902 
L 397.666158 -77.693845 
L 399.495491 -73.079644 
L 401.324823 -75.375231 
L 403.154156 -76.053226 
L 404.983488 -75.780109 
L 406.812821 -73.652101 
L 408.642154 -76.754247 
L 410.471486 -75.461579 
L 412.300819 -75.91251 
L 414.130151 -73.914984 
L 415.959484 -78.147973 
L 417.788816 -76.286686 
L 419.618149 -77.279373 
L 421.447481 -73.491557 
L 423.276814 -73.355958 
L 425.106146 -74.85906 
L 426.935479 -74.750964 
L 428.764811 -77.901081 
L 430.594144 -77.256346 
L 432.423476 -77.282571 
L 434.252809 -74.195137 
L 436.082142 -76.857865 
L 437.911474 -74.312187 
L 439.740807 -73.678965 
L 441.570139 -72.974746 
L 443.399472 -72.475205 
L 445.228804 -72.25006 
L 447.058137 -75.61189 
L 448.887469 -74.098554 
L 450.716802 -74.199614 
L 452.546134 -74.371031 
L 454.375467 -72.192494 
L 456.204799 -71.921936 
L 458.034132 -74.609609 
L 459.863464 -75.285685 
L 461.692797 -76.589865 
L 463.522129 -76.337216 
L 465.351462 -78.509997 
L 467.180795 -76.181789 
L 469.010127 -77.102838 
L 470.83946 -82.04964 
L 472.668792 -80.180678 
L 474.498125 -78.199782 
L 476.327457 -78.050112 
L 478.15679 -77.4348 
L 479.986122 -76.967239 
L 481.815455 -79.208459 
L 483.644787 -76.633359 
L 485.47412 -77.921549 
L 487.303452 -74.094077 
L 489.132785 -76.900079 
L 490.962117 -76.670457 
L 492.79145 -76.433158 
L 494.620782 -76.004615 
L 496.450115 -77.044633 
L 498.279448 -77.244194 
L 500.10878 -78.716593 
L 501.938113 -76.31355 
L 503.767445 -76.780471 
L 505.596778 -77.811534 
L 507.42611 -76.32954 
L 509.255443 -75.700157 
L 511.084775 -76.211851 
L 512.914108 -76.930781 
L 514.74344 -76.638476 
L 516.572773 -78.785672 
L 518.402105 -78.550293 
L 520.231438 -81.423455 
L 522.06077 -81.512362 
L 523.890103 -82.194194 
L 525.719436 -75.837035 
L 527.548768 -75.453904 
L 529.378101 -78.525348 
L 531.207433 -75.701436 
L 533.036766 -76.653187 
L 534.866098 -77.03312 
L 536.695431 -80.928391 
L 538.524763 -74.405571 
L 540.354096 -77.432881 
L 542.183428 -78.834283 
L 544.012761 -83.473429 
L 545.842093 -77.076614 
L 547.671426 -79.076058 
L 549.500758 -77.022246 
L 551.330091 -74.625599 
L 553.159423 -76.775354 
L 554.988756 -75.51019 
L 556.818089 -78.1371 
L 558.647421 -78.78951 
L 560.476754 -80.861231 
L 562.306086 -81.888457 
L 564.135419 -74.976749 
L 565.964751 -75.800577 
L 567.794084 -76.572595 
L 569.623416 -77.545453 
L 571.452749 -81.335188 
L 573.282081 -78.8733 
L 575.111414 -81.520037 
L 576.940746 -74.7919 
L 578.770079 -77.605577 
L 580.599411 -77.407296 
L 582.428744 -80.714119 
L 584.258077 -77.269139 
L 586.087409 -76.034037 
L 587.916742 -76.442113 
L 589.746074 -76.157483 
L 591.575407 -76.793263 
L 593.404739 -81.943464 
L 595.234072 -80.106482 
L 597.063404 -77.90236 
L 598.892737 -80.991713 
L 600.722069 -78.841319 
L 602.551402 -82.045163 
L 604.380734 -80.640563 
L 606.210067 -84.501934 
L 608.039399 -82.360494 
L 609.868732 -82.804389 
L 611.698064 -78.218331 
L 613.527397 -82.93615 
L 615.35673 -79.532745 
L 617.186062 -83.667873 
L 619.015395 -77.475096 
L 620.844727 -79.361328 
L 622.67406 -79.300564 
L 624.503392 -78.126866 
L 626.332725 -82.173726 
L 628.162057 -79.531466 
L 629.99139 -82.561334 
L 631.820722 -81.554576 
L 633.650055 -79.266025 
L 635.479387 -81.839206 
L 637.30872 -80.191551 
L 639.138052 -81.888457 
L 640.967385 -81.469507 
L 642.796718 -80.483217 
L 644.62605 -81.614061 
L 646.455383 -86.435498 
L 648.284715 -80.716038 
L 650.114048 -83.487501 
L 651.94338 -86.386887 
L 653.772713 -81.172725 
L 655.602045 -83.373649 
L 657.431378 -84.078507 
L 659.26071 -81.141383 
L 661.090043 -78.333462 
L 662.919375 -81.033928 
L 664.748708 -86.551269 
L 666.57804 -85.657723 
L 668.407373 -85.160101 
L 670.236705 -81.958175 
L 672.066038 -82.909926 
L 673.895371 -85.386525 
L 675.724703 -80.370005 
L 677.554036 -81.044801 
L 679.383368 -80.404544 
L 681.212701 -78.8394 
L 683.042033 -85.59504 
L 684.871366 -81.589116 
L 686.700698 -82.806948 
L 688.530031 -81.759254 
L 690.359363 -83.836092 
L 692.188696 -81.792514 
L 694.018028 -83.834813 
L 695.847361 -83.908369 
L 697.676693 -84.99316 
L 699.506026 -79.386273 
L 701.335358 -85.381408 
L 703.164691 -84.217944 
L 704.994024 -85.069275 
L 706.823356 -83.005869 
L 708.652689 -85.218306 
L 710.482021 -83.557859 
L 712.311354 -85.146029 
L 714.140686 -85.832978 
L 715.970019 -81.234768 
L 717.799351 -84.027977 
L 719.628684 -87.996165 
L 721.458016 -85.175451 
L 723.287349 -81.488696 
L 725.116681 -81.576323 
L 726.946014 -87.641817 
L 728.775346 -83.351262 
L 730.604679 -88.665844 
L 732.434012 -85.715289 
L 734.263344 -80.664229 
L 736.092677 -87.995525 
L 737.922009 -89.586254 
L 739.751342 -80.056592 
L 741.580674 -89.939963 
L 743.410007 -80.86251 
L 745.239339 -80.77936 
L 747.068672 -87.031622 
L 748.898004 -96.314391 
L 750.727337 -82.929114 
L 752.556669 -84.773132 
L 754.386002 -86.118887 
L 756.215334 -82.112962 
L 758.044667 -84.283824 
L 759.873999 -87.331602 
L 761.703332 -87.495984 
L 763.532665 -86.504577 
L 765.361997 -89.106541 
L 767.19133 -88.490589 
L 769.020662 -89.943161 
L 770.849995 -88.165024 
L 772.679327 -83.582804 
L 774.50866 -85.91293 
L 776.337992 -89.519734 
L 778.167325 -87.520289 
L 779.996657 -87.609196 
L 781.82599 -88.566704 
L 783.655322 -91.271646 
L 785.484655 -89.198006 
L 787.313987 -92.873249 
L 789.14332 -83.765734 
L 790.972653 -84.833896 
L 792.801985 -89.501185 
L 794.631318 -87.675716 
L 796.46065 -86.237856 
L 798.289983 -87.384051 
L 800.119315 -85.849608 
L 801.948648 -87.973778 
L 803.77798 -89.529968 
L 805.607313 -84.738593 
L 807.436645 -90.628191 
L 809.265978 -86.033179 
L 811.09531 -88.510417 
L 812.924643 -90.424793 
L 814.753975 -89.771743 
L 816.583308 -84.135433 
L 818.41264 -86.207794 
L 820.241973 -87.061684 
L 822.071306 -86.304376 
L 823.900638 -90.625633 
L 825.729971 -88.080594 
L 827.559303 -86.048529 
L 829.388636 -88.725968 
L 831.217968 -89.320173 
L 833.047301 -92.726776 
L 834.876633 -87.605358 
L 836.705966 -85.505494 
L 838.535298 -88.837902 
L 840.364631 -93.131654 
L 842.193963 -90.644182 
L 844.023296 -90.655695 
L 845.852628 -85.885427 
L 847.681961 -82.203149 
L 849.511294 -91.061852 
L 851.340626 -88.231544 
L 853.169959 -83.841209 
L 854.999291 -82.458996 
L 856.828624 -94.64435 
L 858.657956 -90.855255 
L 860.487289 -95.79758 
L 862.316621 -87.93668 
L 864.145954 -82.481382 
L 865.975286 -94.341171 
L 867.804619 -86.057484 
L 869.633951 -88.253291 
L 871.463284 -96.888128 
L 873.292616 -94.584865 
L 875.121949 -89.343199 
L 876.951281 -83.051921 
L 878.780614 -95.072254 
L 880.609947 -88.688231 
L 882.439279 -91.500629 
L 884.268612 -92.166471 
L 886.097944 -85.477351 
L 887.927277 -88.40616 
L 889.756609 -81.232209 
L 891.585942 -90.330769 
L 893.415274 -94.817686 
L 895.244607 -92.464533 
L 897.073939 -90.325012 
L 898.903272 -92.793936 
L 900.732604 -93.77383 
L 902.561937 -94.355882 
L 904.391269 -91.452658 
L 906.220602 -84.263357 
L 908.049935 -85.325761 
L 909.879267 -87.958427 
L 911.7086 -94.221563 
L 913.537932 -90.658893 
L 915.367265 -95.828282 
L 917.196597 -100.326712 
L 919.02593 -93.535253 
L 920.855262 -91.397651 
L 922.684595 -89.49287 
L 924.513927 -96.057265 
L 926.34326 -94.416646 
L 928.172592 -88.851973 
L 930.001925 -93.614566 
L 931.831257 -85.864319 
L 933.66059 -95.683728 
L 935.489922 -87.73712 
L 937.319255 -94.5273 
L 939.148588 -86.209073 
L 940.97792 -99.839324 
L 942.807253 -91.562672 
L 944.636585 -95.579471 
L 946.465918 -99.135105 
L 948.29525 -92.125536 
L 950.124583 -93.688122 
L 951.953915 -90.154234 
L 953.783248 -89.421872 
L 955.61258 -95.837237 
L 957.441913 -94.314307 
L 959.271245 -103.420542 
L 961.100578 -94.144808 
L 962.92991 -89.707142 
L 964.759243 -87.313053 
L 966.588575 -96.441036 
L 968.417908 -91.032429 
L 970.247241 -98.528747 
L 972.076573 -95.608253 
L 973.905906 -97.463784 
L 975.735238 -95.699719 
L 977.564571 -91.01516 
L 979.393903 -92.036629 
L 981.223236 -97.026286 
L 983.052568 -98.760928 
L 984.881901 -96.261303 
L 986.711233 -91.336887 
L 988.540566 -97.329464 
L 990.369898 -91.479522 
L 992.199231 -91.787178 
L 994.028563 -98.174399 
L 995.857896 -87.797883 
L 997.687229 -97.01925 
L 999.516561 -91.436668 
L 1001.345894 -94.461323 
L 1003.175226 -91.273086 
L 1005.004559 -91.553142 
L 1006.833891 -94.654104 
L 1008.663224 -92.368495 
L 1010.492556 -92.352632 
L 1012.321889 -94.52666 
L 1014.151221 -96.298433 
L 1015.980554 -99.904565 
L 1017.809886 -100.709044 
L 1017.809886 -203.461846 
L 1017.809886 -203.461846 
L 1015.980554 -209.714748 
L 1014.151221 -198.065393 
L 1012.321889 -227.864536 
L 1010.492556 -227.769233 
L 1008.663224 -224.232787 
L 1006.833891 -222.423309 
L 1005.004559 -206.061252 
L 1003.175226 -203.718333 
L 1001.345894 -210.31343 
L 999.516561 -204.980363 
L 997.687229 -190.819422 
L 995.857896 -203.672473 
L 994.028563 -220.95657 
L 992.199231 -212.038478 
L 990.369898 -230.337137 
L 988.540566 -213.265489 
L 986.711233 -201.333711 
L 984.881901 -208.36378 
L 983.052568 -230.545941 
L 981.223236 -226.274287 
L 979.393903 -190.828504 
L 977.564571 -224.732488 
L 975.735238 -221.599706 
L 973.905906 -212.297012 
L 972.076573 -206.673046 
L 970.247241 -216.473491 
L 968.417908 -208.133965 
L 966.588575 -215.418761 
L 964.759243 -228.972929 
L 962.92991 -219.921573 
L 961.100578 -195.384948 
L 959.271245 -205.219675 
L 957.441913 -198.975569 
L 955.61258 -223.336267 
L 953.783248 -206.00874 
L 951.953915 -223.438638 
L 950.124583 -217.136486 
L 948.29525 -196.105189 
L 946.465918 -207.707148 
L 944.636585 -189.64761 
L 942.807253 -195.3309 
L 940.97792 -193.566867 
L 939.148588 -194.406653 
L 937.319255 -197.895319 
L 935.489922 -209.819901 
L 933.66059 -200.297307 
L 931.831257 -201.032579 
L 930.001925 -191.97633 
L 928.172592 -188.573596 
L 926.34326 -202.382492 
L 924.513927 -220.15724 
L 922.684595 -181.587885 
L 920.855262 -220.099898 
L 919.02593 -180.545564 
L 917.196597 -194.209906 
L 915.367265 -181.658467 
L 913.537932 -209.902635 
L 911.7086 -207.758509 
L 909.879267 -189.15357 
L 908.049935 -191.969806 
L 906.220602 -199.209445 
L 904.391269 -228.510422 
L 902.561937 -209.11952 
L 900.732604 -179.75682 
L 898.903272 -207.534707 
L 897.073939 -185.594801 
L 895.244607 -205.251241 
L 893.415274 -188.07495 
L 891.585942 -189.990477 
L 889.756609 -203.411764 
L 887.927277 -195.18398 
L 886.097944 -191.923465 
L 884.268612 -179.187816 
L 882.439279 -198.196387 
L 880.609947 -195.824877 
L 878.780614 -191.238051 
L 876.951281 -197.153682 
L 875.121949 -188.430802 
L 873.292616 -204.269971 
L 871.463284 -200.770176 
L 869.633951 -202.956101 
L 867.804619 -184.492197 
L 865.975286 -177.893966 
L 864.145954 -201.228014 
L 862.316621 -222.59284 
L 860.487289 -204.661769 
L 858.657956 -193.074649 
L 856.828624 -186.391221 
L 854.999291 -193.666775 
L 853.169959 -192.241579 
L 851.340626 -207.077157 
L 849.511294 -170.814007 
L 847.681961 -195.332851 
L 845.852628 -195.062453 
L 844.023296 -198.265849 
L 842.193963 -187.382341 
L 840.364631 -189.341233 
L 838.535298 -190.780213 
L 836.705966 -179.283183 
L 834.876633 -186.411785 
L 833.047301 -189.025774 
L 831.217968 -192.817363 
L 829.388636 -180.658713 
L 827.559303 -191.460254 
L 825.729971 -195.539959 
L 823.900638 -199.614899 
L 822.071306 -184.065188 
L 820.241973 -194.628344 
L 818.41264 -180.584869 
L 816.583308 -197.236065 
L 814.753975 -181.176099 
L 812.924643 -199.780432 
L 811.09531 -177.385598 
L 809.265978 -169.915824 
L 807.436645 -176.770254 
L 805.607313 -184.564026 
L 803.77798 -181.722493 
L 801.948648 -195.382549 
L 800.119315 -206.202928 
L 798.289983 -186.474116 
L 796.46065 -184.347771 
L 794.631318 -174.328738 
L 792.801985 -185.965684 
L 790.972653 -198.019181 
L 789.14332 -166.246082 
L 787.313987 -192.402603 
L 785.484655 -178.735511 
L 783.655322 -188.735004 
L 781.82599 -199.564081 
L 779.996657 -187.623093 
L 778.167325 -175.938751 
L 776.337992 -173.738371 
L 774.50866 -180.109121 
L 772.679327 -179.122096 
L 770.849995 -171.991799 
L 769.020662 -175.419957 
L 767.19133 -184.461975 
L 765.361997 -178.659972 
L 763.532665 -192.061047 
L 761.703332 -187.981534 
L 759.873999 -182.196705 
L 758.044667 -184.894356 
L 756.215334 -172.438891 
L 754.386002 -178.851761 
L 752.556669 -160.862997 
L 750.727337 -181.333797 
L 748.898004 -178.727835 
L 747.068672 -171.537766 
L 745.239339 -170.667471 
L 743.410007 -168.641226 
L 741.580674 -162.63042 
L 739.751342 -168.457368 
L 737.922009 -182.649267 
L 736.092677 -191.720195 
L 734.263344 -173.750907 
L 732.434012 -161.220415 
L 730.604679 -175.424466 
L 728.775346 -193.472747 
L 726.946014 -161.17609 
L 725.116681 -176.880332 
L 723.287349 -175.206996 
L 721.458016 -176.979569 
L 719.628684 -179.585051 
L 717.799351 -168.290556 
L 715.970019 -157.341454 
L 714.140686 -155.832469 
L 712.311354 -163.225904 
L 710.482021 -164.344243 
L 708.652689 -165.816739 
L 706.823356 -178.280615 
L 704.994024 -172.818089 
L 703.164691 -181.672379 
L 701.335358 -175.535536 
L 699.506026 -176.46893 
L 697.676693 -169.988261 
L 695.847361 -168.646919 
L 694.018028 -172.596109 
L 692.188696 -172.566303 
L 690.359363 -173.391314 
L 688.530031 -193.174845 
L 686.700698 -166.023399 
L 684.871366 -173.382551 
L 683.042033 -160.541045 
L 681.212701 -151.414886 
L 679.383368 -168.025722 
L 677.554036 -166.808754 
L 675.724703 -180.380191 
L 673.895371 -143.298363 
L 672.066038 -154.667437 
L 670.236705 -160.882441 
L 668.407373 -179.741949 
L 666.57804 -157.293643 
L 664.748708 -183.292306 
L 662.919375 -177.765882 
L 661.090043 -169.104597 
L 659.26071 -163.753748 
L 657.431378 -151.927444 
L 655.602045 -164.118522 
L 653.772713 -171.430438 
L 651.94338 -168.143476 
L 650.114048 -152.27869 
L 648.284715 -162.565755 
L 646.455383 -164.197451 
L 644.62605 -165.757031 
L 642.796718 -177.810304 
L 640.967385 -170.145831 
L 639.138052 -150.338825 
L 637.30872 -153.899097 
L 635.479387 -165.03503 
L 633.650055 -160.546546 
L 631.820722 -159.626968 
L 629.99139 -168.305203 
L 628.162057 -169.092348 
L 626.332725 -174.128953 
L 624.503392 -169.62451 
L 622.67406 -173.283666 
L 620.844727 -150.67277 
L 619.015395 -158.357295 
L 617.186062 -162.493894 
L 615.35673 -169.4411 
L 613.527397 -165.932254 
L 611.698064 -153.184996 
L 609.868732 -164.781518 
L 608.039399 -156.857328 
L 606.210067 -148.514796 
L 604.380734 -143.015812 
L 602.551402 -171.757859 
L 600.722069 -141.906011 
L 598.892737 -167.984979 
L 597.063404 -153.58159 
L 595.234072 -170.628134 
L 593.404739 -164.946571 
L 591.575407 -149.708482 
L 589.746074 -153.084704 
L 587.916742 -155.597921 
L 586.087409 -159.529202 
L 584.258077 -144.757586 
L 582.428744 -150.242787 
L 580.599411 -144.22389 
L 578.770079 -142.623215 
L 576.940746 -154.828109 
L 575.111414 -162.147701 
L 573.282081 -149.617753 
L 571.452749 -156.767174 
L 569.623416 -143.986496 
L 567.794084 -153.160019 
L 565.964751 -157.35527 
L 564.135419 -148.437338 
L 562.306086 -136.466576 
L 560.476754 -141.070703 
L 558.647421 -138.857466 
L 556.818089 -145.298383 
L 554.988756 -138.590746 
L 553.159423 -177.39484 
L 551.330091 -141.851228 
L 549.500758 -148.08331 
L 547.671426 -155.326883 
L 545.842093 -143.654982 
L 544.012761 -155.277345 
L 542.183428 -159.418101 
L 540.354096 -161.708827 
L 538.524763 -147.852824 
L 536.695431 -149.13321 
L 534.866098 -157.550322 
L 533.036766 -148.758874 
L 531.207433 -157.459144 
L 529.378101 -156.303899 
L 527.548768 -155.542498 
L 525.719436 -140.502307 
L 523.890103 -159.98106 
L 522.06077 -146.165193 
L 520.231438 -142.670227 
L 518.402105 -142.719445 
L 516.572773 -141.628098 
L 514.74344 -148.084653 
L 512.914108 -140.713157 
L 511.084775 -137.217998 
L 509.255443 -135.1552 
L 507.42611 -141.196484 
L 505.596778 -143.727322 
L 503.767445 -130.49258 
L 501.938113 -132.007482 
L 500.10878 -135.212638 
L 498.279448 -130.23734 
L 496.450115 -142.683818 
L 494.620782 -144.12235 
L 492.79145 -141.33397 
L 490.962117 -151.902339 
L 489.132785 -138.174611 
L 487.303452 -147.60785 
L 485.47412 -143.847027 
L 483.644787 -144.928109 
L 481.815455 -129.414025 
L 479.986122 -144.771434 
L 478.15679 -143.232131 
L 476.327457 -148.588864 
L 474.498125 -138.814868 
L 472.668792 -141.140389 
L 470.83946 -151.568586 
L 469.010127 -147.752948 
L 467.180795 -149.02003 
L 465.351462 -139.041516 
L 463.522129 -125.73197 
L 461.692797 -145.891532 
L 459.863464 -131.489839 
L 458.034132 -142.684234 
L 456.204799 -133.650947 
L 454.375467 -137.079553 
L 452.546134 -135.960606 
L 450.716802 -140.797842 
L 448.887469 -138.764146 
L 447.058137 -133.844815 
L 445.228804 -130.835703 
L 443.399472 -139.951308 
L 441.570139 -145.414474 
L 439.740807 -151.04685 
L 437.911474 -130.189145 
L 436.082142 -142.05242 
L 434.252809 -146.789556 
L 432.423476 -124.037495 
L 430.594144 -125.947617 
L 428.764811 -137.114253 
L 426.935479 -131.225262 
L 425.106146 -130.264556 
L 423.276814 -125.337742 
L 421.447481 -133.098446 
L 419.618149 -132.763158 
L 417.788816 -124.582322 
L 415.959484 -137.326638 
L 414.130151 -145.090284 
L 412.300819 -130.136089 
L 410.471486 -137.458495 
L 408.642154 -124.61443 
L 406.812821 -135.263775 
L 404.983488 -135.726698 
L 403.154156 -137.8438 
L 401.324823 -123.003298 
L 399.495491 -151.238991 
L 397.666158 -130.122817 
L 395.836826 -131.099065 
L 394.007493 -125.361887 
L 392.178161 -160.508521 
L 390.348828 -146.188635 
L 388.519496 -123.526025 
L 386.690163 -133.034068 
L 384.860831 -123.75795 
L 383.031498 -120.00557 
L 381.202166 -123.288183 
L 379.372833 -127.434792 
L 377.543501 -118.062124 
L 375.714168 -125.730019 
L 373.884835 -122.953535 
L 372.055503 -118.080865 
L 370.22617 -133.359857 
L 368.396838 -137.059469 
L 366.567505 -129.954661 
L 364.738173 -126.379679 
L 362.90884 -123.923579 
L 361.079508 -125.246532 
L 359.250175 -131.58623 
L 357.420843 -130.443009 
L 355.59151 -130.827004 
L 353.762178 -145.924089 
L 351.932845 -118.312598 
L 350.103513 -123.589379 
L 348.27418 -123.244497 
L 346.444847 -135.811288 
L 344.615515 -126.085966 
L 342.786182 -134.677246 
L 340.95685 -123.482275 
L 339.127517 -122.236396 
L 337.298185 -134.857906 
L 335.468852 -117.287067 
L 333.63952 -124.146838 
L 331.810187 -123.183926 
L 329.980855 -119.217081 
L 328.151522 -120.790349 
L 326.32219 -129.602744 
L 324.492857 -127.511962 
L 322.663525 -127.735828 
L 320.834192 -117.173663 
L 319.00486 -127.893206 
L 317.175527 -124.951413 
L 315.346194 -129.028495 
L 313.516862 -123.168575 
L 311.687529 -126.991025 
L 309.858197 -123.493149 
L 308.028864 -120.458835 
L 306.199532 -135.916409 
L 304.370199 -124.474514 
L 302.540867 -117.933657 
L 300.711534 -124.742866 
L 298.882202 -121.402399 
L 297.052869 -130.94626 
L 295.223537 -117.703139 
L 293.394204 -133.02457 
L 291.564872 -119.311969 
L 289.735539 -135.619818 
L 287.906206 -117.683598 
L 286.076874 -127.970312 
L 284.247541 -130.326311 
L 282.418209 -120.396984 
L 280.588876 -112.445962 
L 278.759544 -120.885012 
L 276.930211 -113.576422 
L 275.100879 -127.608608 
L 273.271546 -119.91193 
L 271.442214 -119.138728 
L 269.612881 -126.990418 
L 267.783549 -113.197449 
L 265.954216 -132.074162 
L 264.124884 -114.344987 
L 262.295551 -128.378196 
L 260.466219 -119.141543 
L 258.636886 -137.26178 
L 256.807553 -116.770672 
L 254.978221 -123.402739 
L 253.148888 -114.109383 
L 251.319556 -124.458747 
L 249.490223 -122.214873 
L 247.660891 -138.995368 
L 245.831558 -125.260348 
L 244.002226 -127.429707 
L 242.172893 -124.119622 
L 240.343561 -124.166218 
L 238.514228 -123.049734 
L 236.684896 -119.804794 
L 234.855563 -118.375697 
L 233.026231 -126.700959 
L 231.196898 -136.229757 
L 229.367565 -127.316591 
L 227.538233 -136.830198 
L 225.7089 -133.226721 
L 223.879568 -129.066968 
L 222.050235 -137.634294 
L 220.220903 -126.281913 
L 218.39157 -124.389445 
L 216.562238 -123.000483 
L 214.732905 -131.331694 
L 212.903573 -129.027728 
L 211.07424 -125.073836 
L 209.244908 -137.983301 
L 207.415575 -131.726466 
L 205.586243 -133.059333 
L 203.75691 -127.341408 
L 201.927578 -135.43193 
L 200.098245 -128.076808 
L 198.268912 -123.779058 
L 196.43958 -124.820259 
L 194.610247 -135.993451 
L 192.780915 -144.510438 
L 190.951582 -137.006637 
L 189.12225 -136.453272 
L 187.292917 -124.307094 
L 185.463585 -143.329448 
L 183.634252 -135.967258 
L 181.80492 -127.685714 
L 179.975587 -127.118917 
L 178.146255 -129.837196 
L 176.316922 -135.413957 
L 174.48759 -142.39679 
L 172.658257 -132.715443 
L 170.828925 -142.207463 
L 168.999592 -142.159748 
L 167.170259 -140.953781 
L 165.340927 -142.186772 
L 163.511594 -159.311477 
L 161.682262 -153.085599 
L 159.852929 -145.461773 
L 158.023597 -155.804198 
L 156.194264 -147.783329 
L 154.364932 -160.207933 
L 152.535599 -158.666774 
L 150.706267 -165.150801 
L 148.876934 -165.642443 
L 147.047602 -167.06524 
L 145.218269 -170.399855 
L 143.388937 -178.189789 
L 141.559604 -162.631507 
L 139.730271 -169.729887 
L 137.900939 -173.650487 
L 136.071606 -184.010661 
L 134.242274 -187.682481 
L 132.412941 -198.349383 
L 130.583609 -186.656535 
L 128.754276 -203.985054 
L 126.924944 -220.208953 
L 125.095611 -235.248281 
L 123.266279 -247.001893 
L 121.436946 -241.289469 
L 119.607614 -261.14 
z
" style="stroke: #d2dbe0"/>
    </defs>
    <g clip-path="url(#pd9bc46a590)">
     <use xlink:href="#mb692e12ada" x="0" y="288" style="fill: #d2dbe0; stroke: #d2dbe0"/>
    </g>
   </g>
   <g id="matplotlib.axis_1">
    <g id="xtick_1">
     <g id="line2d_1">
      <defs>
       <path id="m74cea0d1ef" d="M 0 0 
L 0 3.5 
" style="stroke: #000000; stroke-width: 0.8"/>
      </defs>
      <g>
       <use xlink:href="#m74cea0d1ef" x="101.314288" y="228.04" style="stroke: #000000; stroke-width: 0.8"/>
      </g>
     </g>
     <g id="text_1">
      <!-- 0.0 -->
      <g transform="translate(90.674288 246.4) scale(0.16 -0.16)">
       <defs>
        <path id="Bahnschrift-30" d="M 1766 -47 
Q 1116 -47 792 301 
Q 469 650 469 1244 
L 469 3309 
Q 469 3913 797 4256 
Q 1125 4600 1766 4600 
Q 2409 4600 2736 4258 
Q 3063 3916 3063 3309 
L 3063 1244 
Q 3063 641 2736 297 
Q 2409 -47 1766 -47 
z
M 1766 559 
Q 2116 559 2270 742 
Q 2425 925 2425 1244 
L 2425 3309 
Q 2425 3631 2270 3812 
Q 2116 3994 1766 3994 
Q 1416 3994 1261 3812 
Q 1106 3631 1106 3309 
L 1106 1244 
Q 1106 925 1261 742 
Q 1416 559 1766 559 
z
" transform="scale(0.015625)"/>
        <path id="Bahnschrift-2e" d="M 391 0 
L 391 669 
L 1059 669 
L 1059 0 
L 391 0 
z
" transform="scale(0.015625)"/>
       </defs>
       <use xlink:href="#Bahnschrift-30"/>
       <use xlink:href="#Bahnschrift-2e" x="55.175781"/>
       <use xlink:href="#Bahnschrift-30" x="77.832031"/>
      </g>
     </g>
    </g>
    <g id="xtick_2">
     <g id="line2d_2">
      <g>
       <use xlink:href="#m74cea0d1ef" x="284.247541" y="228.04" style="stroke: #000000; stroke-width: 0.8"/>
      </g>
     </g>
     <g id="text_2">
      <!-- 0.1 -->
      <g transform="translate(275.361291 246.4) scale(0.16 -0.16)">
       <defs>
        <path id="Bahnschrift-31" d="M 1566 4544 
L 1566 0 
L 928 0 
L 928 3850 
L 281 3453 
L 281 4113 
L 928 4544 
L 1566 4544 
z
" transform="scale(0.015625)"/>
       </defs>
       <use xlink:href="#Bahnschrift-30"/>
       <use xlink:href="#Bahnschrift-2e" x="55.175781"/>
       <use xlink:href="#Bahnschrift-31" x="77.832031"/>
      </g>
     </g>
    </g>
    <g id="xtick_3">
     <g id="line2d_3">
      <g>
       <use xlink:href="#m74cea0d1ef" x="467.180795" y="228.04" style="stroke: #000000; stroke-width: 0.8"/>
      </g>
     </g>
     <g id="text_3">
      <!-- 0.2 -->
      <g transform="translate(456.822045 246.4) scale(0.16 -0.16)">
       <defs>
        <path id="Bahnschrift-32" d="M 400 0 
L 400 553 
L 1984 2666 
Q 2122 2847 2198 3040 
Q 2275 3234 2275 3406 
L 2275 3413 
Q 2275 3684 2115 3834 
Q 1956 3984 1663 3984 
Q 1388 3984 1214 3820 
Q 1041 3656 1003 3356 
L 1003 3353 
L 344 3353 
L 344 3356 
Q 428 3944 772 4267 
Q 1116 4591 1656 4591 
Q 2269 4591 2603 4281 
Q 2938 3972 2938 3406 
L 2938 3403 
Q 2938 3163 2838 2898 
Q 2738 2634 2559 2394 
L 1244 606 
L 2963 606 
L 2963 0 
L 400 0 
z
" transform="scale(0.015625)"/>
       </defs>
       <use xlink:href="#Bahnschrift-30"/>
       <use xlink:href="#Bahnschrift-2e" x="55.175781"/>
       <use xlink:href="#Bahnschrift-32" x="77.832031"/>
      </g>
     </g>
    </g>
    <g id="xtick_4">
     <g id="line2d_4">
      <g>
       <use xlink:href="#m74cea0d1ef" x="650.114048" y="228.04" style="stroke: #000000; stroke-width: 0.8"/>
      </g>
     </g>
     <g id="text_4">
      <!-- 0.3 -->
      <g transform="translate(639.657798 246.4) scale(0.16 -0.16)">
       <defs>
        <path id="Bahnschrift-33" d="M 1644 -47 
Q 1259 -47 970 92 
Q 681 231 506 493 
Q 331 756 281 1131 
L 281 1131 
L 931 1131 
L 931 1131 
Q 975 838 1162 702 
Q 1350 566 1644 566 
Q 1959 566 2134 734 
Q 2309 903 2309 1209 
L 2309 1347 
Q 2309 1688 2143 1873 
Q 1978 2059 1675 2059 
L 1353 2059 
L 1353 2666 
L 1675 2666 
Q 1944 2666 2089 2825 
Q 2234 2984 2234 3275 
L 2234 3416 
Q 2234 3684 2079 3831 
Q 1925 3978 1641 3978 
Q 1400 3978 1233 3842 
Q 1066 3706 1003 3413 
L 1003 3413 
L 356 3413 
L 356 3413 
Q 453 3975 789 4283 
Q 1125 4591 1641 4591 
Q 2228 4591 2550 4281 
Q 2872 3972 2872 3409 
L 2872 3334 
Q 2872 2994 2687 2742 
Q 2503 2491 2166 2372 
Q 2538 2294 2742 2008 
Q 2947 1722 2947 1281 
L 2947 1206 
Q 2947 609 2606 281 
Q 2266 -47 1644 -47 
z
" transform="scale(0.015625)"/>
       </defs>
       <use xlink:href="#Bahnschrift-30"/>
       <use xlink:href="#Bahnschrift-2e" x="55.175781"/>
       <use xlink:href="#Bahnschrift-33" x="77.832031"/>
      </g>
     </g>
    </g>
    <g id="xtick_5">
     <g id="line2d_5">
      <g>
       <use xlink:href="#m74cea0d1ef" x="833.047301" y="228.04" style="stroke: #000000; stroke-width: 0.8"/>
      </g>
     </g>
     <g id="text_5">
      <!-- 0.4 -->
      <g transform="translate(822.269801 246.4) scale(0.16 -0.16)">
       <defs>
        <path id="Bahnschrift-34" d="M 406 697 
L 406 1250 
L 1931 4541 
L 2588 4541 
L 1100 1288 
L 3328 1288 
L 3328 697 
L 406 697 
z
M 2366 -3 
L 2366 2672 
L 2988 2672 
L 2988 -3 
L 2366 -3 
z
" transform="scale(0.015625)"/>
       </defs>
       <use xlink:href="#Bahnschrift-30"/>
       <use xlink:href="#Bahnschrift-2e" x="55.175781"/>
       <use xlink:href="#Bahnschrift-34" x="77.832031"/>
      </g>
     </g>
    </g>
    <g id="xtick_6">
     <g id="line2d_6">
      <g>
       <use xlink:href="#m74cea0d1ef" x="1015.980554" y="228.04" style="stroke: #000000; stroke-width: 0.8"/>
      </g>
     </g>
     <g id="text_6">
      <!-- 0.5 -->
      <g transform="translate(1005.399304 246.4) scale(0.16 -0.16)">
       <defs>
        <path id="Bahnschrift-35" d="M 1738 -47 
Q 1219 -47 886 251 
Q 553 550 469 1094 
L 469 1097 
L 1106 1097 
L 1106 1094 
Q 1141 844 1306 705 
Q 1472 566 1738 566 
Q 2044 566 2211 770 
Q 2378 975 2378 1347 
L 2378 1728 
Q 2378 2100 2211 2303 
Q 2044 2506 1738 2506 
Q 1572 2506 1419 2412 
Q 1266 2319 1150 2150 
L 569 2150 
L 569 4544 
L 2884 4544 
L 2884 3938 
L 1206 3938 
L 1206 2916 
Q 1325 3013 1472 3066 
Q 1619 3119 1772 3119 
Q 2366 3119 2691 2755 
Q 3016 2391 3016 1728 
L 3016 1347 
Q 3016 681 2681 317 
Q 2347 -47 1738 -47 
z
" transform="scale(0.015625)"/>
       </defs>
       <use xlink:href="#Bahnschrift-30"/>
       <use xlink:href="#Bahnschrift-2e" x="55.175781"/>
       <use xlink:href="#Bahnschrift-35" x="77.832031"/>
      </g>
     </g>
    </g>
    <g id="text_7">
     <!-- Rho -->
     <g transform="translate(554.665 265.0575) scale(0.16 -0.16)">
      <defs>
       <path id="Bahnschrift-52" d="M 841 1922 
L 841 2528 
L 2391 2528 
Q 2669 2528 2837 2722 
Q 3006 2916 3006 3234 
L 3006 3234 
Q 3006 3553 2837 3747 
Q 2669 3941 2391 3941 
L 841 3941 
L 841 4547 
L 2366 4547 
Q 2763 4547 3059 4383 
Q 3356 4219 3520 3925 
Q 3684 3631 3684 3234 
L 3684 3234 
Q 3684 2841 3518 2545 
Q 3353 2250 3058 2086 
Q 2763 1922 2366 1922 
L 841 1922 
z
M 563 0 
L 563 4547 
L 1200 4547 
L 1200 0 
L 563 0 
z
M 3119 0 
L 2078 2063 
L 2713 2206 
L 3875 0 
L 3119 0 
z
" transform="scale(0.015625)"/>
       <path id="Bahnschrift-68" d="M 500 0 
L 500 4544 
L 1138 4544 
L 1138 0 
L 500 0 
z
M 2469 0 
L 2469 1966 
Q 2469 2309 2292 2496 
Q 2116 2684 1791 2684 
Q 1478 2684 1308 2521 
Q 1138 2359 1138 2063 
L 1072 2688 
Q 1222 2975 1464 3133 
Q 1706 3291 2000 3291 
Q 2528 3291 2817 2945 
Q 3106 2600 3106 1969 
L 3106 0 
L 2469 0 
z
" transform="scale(0.015625)"/>
       <path id="Bahnschrift-6f" d="M 1744 -47 
Q 1106 -47 756 323 
Q 406 694 406 1366 
L 406 1894 
Q 406 2559 756 2925 
Q 1106 3291 1744 3291 
Q 2381 3291 2731 2925 
Q 3081 2559 3081 1894 
L 3081 1356 
Q 3081 688 2731 320 
Q 2381 -47 1744 -47 
z
M 1744 559 
Q 2078 559 2261 768 
Q 2444 978 2444 1356 
L 2444 1894 
Q 2444 2272 2261 2478 
Q 2078 2684 1744 2684 
Q 1413 2684 1228 2478 
Q 1044 2272 1044 1894 
L 1044 1356 
Q 1044 978 1228 768 
Q 1413 559 1744 559 
z
" transform="scale(0.015625)"/>
      </defs>
      <use xlink:href="#Bahnschrift-52"/>
      <use xlink:href="#Bahnschrift-68" x="65.185547"/>
      <use xlink:href="#Bahnschrift-6f" x="121.044922"/>
     </g>
    </g>
   </g>
   <g id="matplotlib.axis_2">
    <g id="ytick_1">
     <g id="line2d_7">
      <defs>
       <path id="m4c8e7614ee" d="M 0 0 
L -3.5 0 
" style="stroke: #000000; stroke-width: 0.8"/>
      </defs>
      <g>
       <use xlink:href="#m4c8e7614ee" x="74.6975" y="192.284879" style="stroke: #000000; stroke-width: 0.8"/>
      </g>
     </g>
     <g id="text_8">
      <!-- 0.02 -->
      <g transform="translate(38.1525 197.964879) scale(0.16 -0.16)">
       <use xlink:href="#Bahnschrift-30"/>
       <use xlink:href="#Bahnschrift-2e" x="55.175781"/>
       <use xlink:href="#Bahnschrift-30" x="77.832031"/>
       <use xlink:href="#Bahnschrift-32" x="133.007812"/>
      </g>
     </g>
    </g>
    <g id="ytick_2">
     <g id="line2d_8">
      <g>
       <use xlink:href="#m4c8e7614ee" x="74.6975" y="138.629869" style="stroke: #000000; stroke-width: 0.8"/>
      </g>
     </g>
     <g id="text_9">
      <!-- 0.04 -->
      <g transform="translate(37.315 144.309869) scale(0.16 -0.16)">
       <use xlink:href="#Bahnschrift-30"/>
       <use xlink:href="#Bahnschrift-2e" x="55.175781"/>
       <use xlink:href="#Bahnschrift-30" x="77.832031"/>
       <use xlink:href="#Bahnschrift-34" x="133.007812"/>
      </g>
     </g>
    </g>
    <g id="ytick_3">
     <g id="line2d_9">
      <g>
       <use xlink:href="#m4c8e7614ee" x="74.6975" y="84.974859" style="stroke: #000000; stroke-width: 0.8"/>
      </g>
     </g>
     <g id="text_10">
      <!-- 0.06 -->
      <g transform="translate(38.2075 90.654859) scale(0.16 -0.16)">
       <defs>
        <path id="Bahnschrift-36" d="M 1641 -47 
Q 1038 -47 706 312 
Q 375 672 375 1325 
L 375 1328 
Q 375 1622 456 1951 
Q 538 2281 691 2588 
L 1678 4544 
L 2366 4544 
L 1206 2278 
L 1209 2391 
Q 1372 2700 1788 2700 
Q 2322 2700 2615 2345 
Q 2909 1991 2909 1344 
L 2909 1341 
Q 2909 681 2578 317 
Q 2247 -47 1641 -47 
z
M 1641 566 
Q 1947 566 2109 753 
Q 2272 941 2272 1288 
L 2272 1291 
Q 2272 1672 2100 1880 
Q 1928 2088 1609 2088 
Q 1325 2088 1169 1878 
Q 1013 1669 1013 1288 
L 1013 1284 
Q 1013 938 1177 752 
Q 1341 566 1641 566 
z
" transform="scale(0.015625)"/>
       </defs>
       <use xlink:href="#Bahnschrift-30"/>
       <use xlink:href="#Bahnschrift-2e" x="55.175781"/>
       <use xlink:href="#Bahnschrift-30" x="77.832031"/>
       <use xlink:href="#Bahnschrift-36" x="133.007812"/>
      </g>
     </g>
    </g>
    <g id="ytick_4">
     <g id="line2d_10">
      <g>
       <use xlink:href="#m4c8e7614ee" x="74.6975" y="31.319849" style="stroke: #000000; stroke-width: 0.8"/>
      </g>
     </g>
     <g id="text_11">
      <!-- 0.08 -->
      <g transform="translate(37.4175 36.999849) scale(0.16 -0.16)">
       <defs>
        <path id="Bahnschrift-38" d="M 1800 -47 
Q 1384 -47 1075 109 
Q 766 266 594 550 
Q 422 834 422 1216 
L 422 1291 
Q 422 1631 592 1931 
Q 763 2231 1047 2384 
Q 809 2516 662 2764 
Q 516 3013 516 3288 
L 516 3397 
Q 516 3938 867 4264 
Q 1219 4591 1800 4591 
Q 2381 4591 2732 4264 
Q 3084 3938 3084 3397 
L 3084 3288 
Q 3084 3006 2936 2759 
Q 2788 2513 2544 2384 
Q 2831 2231 3004 1931 
Q 3178 1631 3178 1291 
L 3178 1216 
Q 3178 834 3006 550 
Q 2834 266 2525 109 
Q 2216 -47 1800 -47 
z
M 1800 566 
Q 2134 566 2339 758 
Q 2544 950 2544 1263 
L 2544 1306 
Q 2544 1622 2339 1814 
Q 2134 2006 1800 2006 
Q 1466 2006 1261 1814 
Q 1056 1622 1056 1303 
L 1056 1256 
Q 1056 944 1261 755 
Q 1466 566 1800 566 
z
M 1800 2619 
Q 2091 2619 2269 2803 
Q 2447 2988 2447 3291 
L 2447 3334 
Q 2447 3625 2269 3801 
Q 2091 3978 1800 3978 
Q 1509 3978 1331 3801 
Q 1153 3625 1153 3331 
L 1153 3284 
Q 1153 2984 1331 2801 
Q 1509 2619 1800 2619 
z
" transform="scale(0.015625)"/>
       </defs>
       <use xlink:href="#Bahnschrift-30"/>
       <use xlink:href="#Bahnschrift-2e" x="55.175781"/>
       <use xlink:href="#Bahnschrift-30" x="77.832031"/>
       <use xlink:href="#Bahnschrift-38" x="133.007812"/>
      </g>
     </g>
    </g>
    <g id="text_12">
     <!-- Time [s] -->
     <g transform="translate(30.0175 150.65875) rotate(-90) scale(0.16 -0.16)">
      <defs>
       <path id="Bahnschrift-54" d="M 1222 0 
L 1222 4172 
L 1859 4172 
L 1859 0 
L 1222 0 
z
M -63 3938 
L -63 4544 
L 3144 4544 
L 3144 3938 
L -63 3938 
z
" transform="scale(0.015625)"/>
       <path id="Bahnschrift-69" d="M 500 3906 
L 500 4544 
L 1138 4544 
L 1138 3906 
L 500 3906 
z
M 500 0 
L 500 3244 
L 1138 3244 
L 1138 0 
L 500 0 
z
" transform="scale(0.015625)"/>
       <path id="Bahnschrift-6d" d="M 4375 0 
L 4375 1966 
Q 4375 2309 4198 2496 
Q 4022 2684 3697 2684 
Q 3400 2684 3237 2503 
Q 3075 2322 3075 1991 
L 2947 2616 
Q 3103 2941 3353 3116 
Q 3603 3291 3906 3291 
Q 4434 3291 4723 2945 
Q 5013 2600 5013 1969 
L 5013 0 
L 4375 0 
z
M 500 0 
L 500 3244 
L 1138 3244 
L 1138 0 
L 500 0 
z
M 2438 0 
L 2438 1966 
Q 2438 2309 2269 2496 
Q 2100 2684 1791 2684 
Q 1478 2684 1308 2518 
Q 1138 2353 1138 2053 
L 1072 2678 
Q 1222 2972 1464 3131 
Q 1706 3291 2000 3291 
Q 2513 3291 2794 2945 
Q 3075 2600 3075 1969 
L 3075 0 
L 2438 0 
z
" transform="scale(0.015625)"/>
       <path id="Bahnschrift-65" d="M 1828 -47 
Q 1150 -47 778 331 
Q 406 709 406 1406 
L 406 1772 
Q 406 2497 764 2894 
Q 1122 3291 1772 3291 
Q 2384 3291 2720 2841 
Q 3056 2391 3056 1578 
L 3056 1366 
L 869 1366 
L 869 1878 
L 2450 1878 
L 2450 1878 
Q 2422 2272 2245 2494 
Q 2069 2716 1772 2716 
Q 1413 2716 1213 2478 
Q 1013 2241 1013 1806 
L 1013 1394 
Q 1013 991 1227 775 
Q 1441 559 1828 559 
Q 2022 559 2212 637 
Q 2403 716 2553 856 
L 2553 856 
L 2972 438 
L 2972 438 
Q 2731 206 2431 79 
Q 2131 -47 1828 -47 
z
" transform="scale(0.015625)"/>
       <path id="Bahnschrift-20" transform="scale(0.015625)"/>
       <path id="Bahnschrift-5b" d="M 594 -1019 
L 594 5081 
L 1200 5081 
L 1200 -1019 
L 594 -1019 
z
M 906 -1019 
L 906 -444 
L 1788 -444 
L 1788 -1019 
L 906 -1019 
z
M 906 4506 
L 906 5081 
L 1788 5081 
L 1788 4506 
L 906 4506 
z
" transform="scale(0.015625)"/>
       <path id="Bahnschrift-73" d="M 1647 -47 
Q 1216 -47 864 79 
Q 513 206 234 459 
L 234 459 
L 613 925 
L 613 925 
Q 878 725 1136 625 
Q 1394 525 1647 525 
Q 2025 525 2214 642 
Q 2403 759 2403 994 
Q 2403 1175 2276 1250 
Q 2150 1325 1945 1348 
Q 1741 1372 1506 1388 
Q 1309 1403 1115 1436 
Q 922 1469 762 1555 
Q 603 1641 508 1809 
Q 413 1978 413 2263 
Q 413 2778 728 3034 
Q 1044 3291 1669 3291 
Q 2050 3291 2378 3187 
Q 2706 3084 2994 2872 
L 2994 2872 
L 2609 2406 
L 2609 2406 
Q 2366 2563 2130 2641 
Q 1894 2719 1669 2719 
Q 1344 2719 1181 2608 
Q 1019 2497 1019 2275 
Q 1019 2128 1131 2064 
Q 1244 2000 1428 1981 
Q 1613 1963 1825 1947 
Q 2028 1934 2236 1901 
Q 2444 1869 2619 1775 
Q 2794 1681 2900 1497 
Q 3006 1313 3006 994 
Q 3006 472 2667 212 
Q 2328 -47 1647 -47 
z
" transform="scale(0.015625)"/>
       <path id="Bahnschrift-5d" d="M 681 -1019 
L 681 5081 
L 1288 5081 
L 1288 -1019 
L 681 -1019 
z
M 94 -1019 
L 94 -444 
L 975 -444 
L 975 -1019 
L 94 -1019 
z
M 94 4506 
L 94 5081 
L 975 5081 
L 975 4506 
L 94 4506 
z
" transform="scale(0.015625)"/>
      </defs>
      <use xlink:href="#Bahnschrift-54"/>
      <use xlink:href="#Bahnschrift-69" x="48.144531"/>
      <use xlink:href="#Bahnschrift-6d" x="73.242188"/>
      <use xlink:href="#Bahnschrift-65" x="158.886719"/>
      <use xlink:href="#Bahnschrift-20" x="212.5"/>
      <use xlink:href="#Bahnschrift-5b" x="239.355469"/>
      <use xlink:href="#Bahnschrift-73" x="268.75"/>
      <use xlink:href="#Bahnschrift-5d" x="320.605469"/>
     </g>
    </g>
   </g>
   <g id="line2d_11">
    <path d="M 137.900939 158.910483 
L 139.730271 162.249409 
L 141.559604 164.973101 
L 143.388937 167.494056 
L 145.218269 169.822294 
L 147.047602 171.842036 
L 148.876934 173.646382 
L 154.364932 178.073768 
L 159.852929 181.666254 
L 163.511594 183.702031 
L 168.999592 186.331742 
L 172.658257 187.774842 
L 176.316922 188.893079 
L 178.146255 189.689508 
L 189.12225 192.732415 
L 194.610247 193.436827 
L 196.43958 193.517117 
L 201.927578 194.34738 
L 205.586243 194.589593 
L 212.903573 194.974968 
L 214.732905 195.026384 
L 216.562238 195.257733 
L 222.050235 195.590504 
L 225.7089 195.845594 
L 227.538233 196.088946 
L 229.367565 196.100206 
L 236.684896 196.640961 
L 242.172893 196.733734 
L 245.831558 196.971705 
L 247.660891 197.024773 
L 249.490223 197.215428 
L 253.148888 197.303366 
L 256.807553 197.29079 
L 260.466219 197.507322 
L 262.295551 197.579517 
L 264.124884 197.477474 
L 265.954216 197.591579 
L 267.783549 197.360207 
L 269.612881 197.41246 
L 273.271546 197.288485 
L 276.930211 197.264815 
L 280.588876 197.257401 
L 282.418209 197.205204 
L 284.247541 197.269999 
L 295.223537 196.579271 
L 300.711534 196.038827 
L 306.199532 196.037948 
L 320.834192 195.49584 
L 322.663525 195.583237 
L 328.151522 194.975317 
L 329.980855 195.035462 
L 331.810187 194.686465 
L 333.63952 194.873213 
L 353.762178 193.324974 
L 355.59151 193.301143 
L 359.250175 192.89982 
L 361.079508 192.800193 
L 362.90884 192.831095 
L 364.738173 193.09439 
L 366.567505 192.949047 
L 372.055503 192.881075 
L 375.714168 192.619907 
L 379.372833 192.561621 
L 386.690163 192.202858 
L 390.348828 191.931806 
L 394.007493 191.659975 
L 395.836826 191.53601 
L 401.324823 190.734662 
L 403.154156 190.668479 
L 404.983488 190.795451 
L 406.812821 190.45407 
L 408.642154 190.296293 
L 414.130151 190.218013 
L 417.788816 189.801724 
L 419.618149 189.763805 
L 421.447481 189.537582 
L 425.106146 189.498268 
L 430.594144 189.247344 
L 432.423476 189.067912 
L 434.252809 189.18512 
L 439.740807 189.04504 
L 443.399472 188.503605 
L 445.228804 188.491905 
L 447.058137 188.275626 
L 448.887469 188.226479 
L 450.716802 187.761283 
L 452.546134 187.559256 
L 454.375467 187.47943 
L 456.204799 187.241628 
L 458.034132 187.222065 
L 465.351462 186.419279 
L 469.010127 186.182019 
L 470.83946 186.212863 
L 472.668792 186.105642 
L 476.327457 186.020096 
L 478.15679 185.863321 
L 479.986122 185.921601 
L 481.815455 185.646976 
L 483.644787 185.714876 
L 485.47412 185.575783 
L 489.132785 185.614016 
L 500.10878 185.216481 
L 507.42611 184.487185 
L 509.255443 184.016904 
L 516.572773 183.263088 
L 520.231438 183.111871 
L 522.06077 182.790582 
L 523.890103 182.700924 
L 525.719436 182.339197 
L 527.548768 182.257351 
L 531.207433 181.704052 
L 533.036766 181.795903 
L 534.866098 181.4558 
L 536.695431 181.454872 
L 542.183428 181.781402 
L 544.012761 181.509635 
L 545.842093 181.824437 
L 549.500758 181.760759 
L 551.330091 181.823685 
L 556.818089 181.374056 
L 558.647421 181.539696 
L 562.306086 181.741116 
L 564.135419 181.534823 
L 565.964751 181.637751 
L 567.794084 181.590291 
L 569.623416 181.384224 
L 571.452749 181.574647 
L 573.282081 181.45008 
L 576.940746 180.467367 
L 578.770079 180.376986 
L 582.428744 179.917755 
L 584.258077 179.414781 
L 589.746074 178.96585 
L 591.575407 178.631571 
L 595.234072 178.141288 
L 598.892737 177.522513 
L 602.551402 177.464561 
L 606.210067 176.928008 
L 609.868732 175.876139 
L 613.527397 175.793532 
L 615.35673 175.425644 
L 620.844727 175.242079 
L 624.503392 174.634944 
L 626.332725 174.743447 
L 628.162057 174.574749 
L 631.820722 174.739777 
L 633.650055 174.488776 
L 635.479387 174.464228 
L 637.30872 174.285627 
L 639.138052 173.924336 
L 640.967385 173.963913 
L 642.796718 173.869273 
L 646.455383 174.072982 
L 648.284715 174.103473 
L 650.114048 173.917956 
L 651.94338 173.985247 
L 653.772713 174.193655 
L 655.602045 174.21421 
L 657.431378 173.987787 
L 659.26071 174.053301 
L 662.919375 173.683698 
L 664.748708 173.785468 
L 666.57804 173.250528 
L 668.407373 173.199093 
L 673.895371 172.691877 
L 675.724703 172.373433 
L 677.554036 172.35471 
L 681.212701 171.964774 
L 683.042033 171.666377 
L 684.871366 171.252101 
L 688.530031 170.841358 
L 690.359363 170.364542 
L 692.188696 170.052502 
L 694.018028 170.09173 
L 695.847361 170.018725 
L 697.676693 170.143833 
L 699.506026 169.888775 
L 703.164691 169.592607 
L 704.994024 169.245461 
L 710.482021 168.530768 
L 712.311354 168.542234 
L 715.970019 168.267939 
L 717.799351 167.87375 
L 719.628684 167.752664 
L 721.458016 168.03519 
L 726.946014 168.039688 
L 732.434012 167.156717 
L 737.922009 166.85584 
L 739.751342 166.844087 
L 741.580674 166.560472 
L 747.068672 166.138899 
L 748.898004 165.913257 
L 750.727337 165.402024 
L 752.556669 165.172937 
L 756.215334 165.2268 
L 758.044667 164.763783 
L 759.873999 164.646336 
L 761.703332 164.228079 
L 763.532665 163.935614 
L 767.19133 163.872296 
L 769.020662 163.433856 
L 770.849995 163.385553 
L 772.679327 163.042196 
L 774.50866 162.826548 
L 776.337992 162.791906 
L 778.167325 162.580548 
L 779.996657 162.489641 
L 781.82599 161.976332 
L 785.484655 161.881381 
L 787.313987 162.213167 
L 789.14332 162.054303 
L 790.972653 162.334333 
L 792.801985 162.259612 
L 798.289983 161.671484 
L 800.119315 161.750907 
L 801.948648 161.596523 
L 803.77798 161.310708 
L 805.607313 161.172207 
L 807.436645 160.60444 
L 811.09531 160.440478 
L 812.924643 160.147112 
L 816.583308 160.088225 
L 818.41264 160.390839 
L 820.241973 160.440322 
L 823.900638 159.705112 
L 825.729971 159.740856 
L 827.559303 159.086648 
L 829.388636 158.903529 
L 831.217968 158.947738 
L 833.047301 158.69289 
L 834.876633 158.866682 
L 836.705966 158.714203 
L 838.535298 158.43989 
L 840.364631 158.455564 
L 844.023296 157.67773 
L 847.681961 157.534341 
L 849.511294 157.715613 
L 856.828624 156.385647 
L 858.657956 156.556713 
L 860.487289 156.243427 
L 867.804619 155.984371 
L 869.633951 156.097838 
L 871.463284 155.719415 
L 873.292616 155.525624 
L 875.121949 155.482383 
L 876.951281 155.316233 
L 878.780614 155.723128 
L 880.609947 155.943483 
L 882.439279 155.86765 
L 884.268612 155.103655 
L 886.097944 154.611459 
L 891.585942 154.855166 
L 893.415274 154.5904 
L 895.244607 154.172616 
L 897.073939 154.137057 
L 898.903272 153.66355 
L 900.732604 153.789866 
L 902.561937 153.441216 
L 904.391269 153.345077 
L 906.220602 152.843226 
L 913.537932 152.381259 
L 915.367265 151.826856 
L 917.196597 151.87993 
L 919.02593 151.544169 
L 920.855262 151.771381 
L 924.513927 151.706376 
L 928.172592 151.160058 
L 930.001925 151.301329 
L 931.831257 151.236596 
L 933.66059 150.905949 
L 935.489922 150.91686 
L 937.319255 150.258499 
L 939.148588 150.364741 
L 940.97792 149.723365 
L 942.807253 149.790728 
L 944.636585 149.743576 
L 948.29525 149.003579 
L 950.124583 148.811505 
L 951.953915 148.778835 
L 955.61258 148.354295 
L 957.441913 148.317345 
L 959.271245 147.961928 
L 961.100578 147.927382 
L 962.92991 147.427779 
L 968.417908 146.819096 
L 970.247241 146.917726 
L 972.076573 146.546088 
L 973.905906 146.625199 
L 975.735238 146.354316 
L 977.564571 146.671592 
L 986.711233 147.152187 
L 988.540566 147.15716 
L 992.199231 146.719997 
L 994.028563 146.141549 
L 995.857896 146.297373 
L 997.687229 146.007225 
L 999.516561 146.022567 
L 999.516561 146.022567 
" clip-path="url(#pd9bc46a590)" style="fill: none; stroke: #5dc694; stroke-width: 1.5; stroke-linecap: square"/>
   </g>
   <g id="line2d_12">
    <path d="M 265.954216 228.04 
L 265.954216 17.28 
" clip-path="url(#pd9bc46a590)" style="fill: none; stroke-dasharray: 5.55,2.4; stroke-dashoffset: 0; stroke: #204e66; stroke-width: 1.5"/>
   </g>
   <g id="patch_3">
    <path d="M 74.6975 228.04 
L 74.6975 17.28 
" style="fill: none; stroke: #000000; stroke-width: 0.8; stroke-linejoin: miter; stroke-linecap: square"/>
   </g>
   <g id="patch_4">
    <path d="M 1062.72 228.04 
L 1062.72 17.28 
" style="fill: none; stroke: #000000; stroke-width: 0.8; stroke-linejoin: miter; stroke-linecap: square"/>
   </g>
   <g id="patch_5">
    <path d="M 74.6975 228.04 
L 1062.72 228.04 
" style="fill: none; stroke: #000000; stroke-width: 0.8; stroke-linejoin: miter; stroke-linecap: square"/>
   </g>
   <g id="patch_6">
    <path d="M 74.6975 17.28 
L 1062.72 17.28 
" style="fill: none; stroke: #000000; stroke-width: 0.8; stroke-linejoin: miter; stroke-linecap: square"/>
   </g>
   <g id="legend_1">
    <g id="patch_7">
     <path d="M 763.8 76.7375 
L 1051.52 76.7375 
Q 1054.72 76.7375 1054.72 73.5375 
L 1054.72 28.48 
Q 1054.72 25.28 1051.52 25.28 
L 763.8 25.28 
Q 760.6 25.28 760.6 28.48 
L 760.6 73.5375 
Q 760.6 76.7375 763.8 76.7375 
z
" style="fill: #ffffff; opacity: 0.8; stroke: #cccccc; stroke-linejoin: miter"/>
    </g>
    <g id="line2d_13">
     <path d="M 767 38.7825 
L 783 38.7825 
L 799 38.7825 
" style="fill: none; stroke: #5dc694; stroke-width: 1.5; stroke-linecap: square"/>
    </g>
    <g id="text_13">
     <!-- Mean Time [Rolling Average (20)] -->
     <g transform="translate(811.8 44.3825) scale(0.16 -0.16)">
      <defs>
       <path id="Bahnschrift-4d" d="M 2494 1544 
L 3828 4544 
L 4425 4544 
L 4425 0 
L 3803 0 
L 3803 3403 
L 3834 3203 
L 2716 631 
L 2272 631 
L 1153 3141 
L 1184 3403 
L 1184 0 
L 563 0 
L 563 4544 
L 1159 4544 
L 2494 1544 
z
" transform="scale(0.015625)"/>
       <path id="Bahnschrift-61" d="M 2331 0 
L 2331 2056 
Q 2331 2375 2161 2551 
Q 1991 2728 1678 2728 
Q 1488 2728 1302 2670 
Q 1116 2613 969 2503 
L 503 2822 
Q 688 3044 989 3167 
Q 1291 3291 1659 3291 
Q 2269 3291 2603 2975 
Q 2938 2659 2938 2084 
L 2938 0 
L 2331 0 
z
M 1538 -47 
Q 941 -47 642 200 
Q 344 447 344 956 
Q 344 1441 617 1680 
Q 891 1919 1438 1919 
L 2359 1919 
L 2403 1406 
L 1441 1406 
Q 1194 1406 1069 1295 
Q 944 1184 944 956 
Q 944 709 1109 590 
Q 1275 472 1606 472 
Q 1969 472 2150 550 
Q 2331 628 2331 794 
L 2397 338 
Q 2313 206 2188 122 
Q 2063 38 1902 -4 
Q 1741 -47 1538 -47 
z
" transform="scale(0.015625)"/>
       <path id="Bahnschrift-6e" d="M 500 0 
L 500 3244 
L 1138 3244 
L 1138 0 
L 500 0 
z
M 2469 0 
L 2469 1966 
Q 2469 2309 2292 2496 
Q 2116 2684 1791 2684 
Q 1478 2684 1308 2518 
Q 1138 2353 1138 2053 
L 1072 2678 
Q 1222 2972 1464 3131 
Q 1706 3291 2000 3291 
Q 2528 3291 2817 2945 
Q 3106 2600 3106 1969 
L 3106 0 
L 2469 0 
z
" transform="scale(0.015625)"/>
       <path id="Bahnschrift-6c" d="M 1138 4544 
L 1138 838 
Q 1138 722 1189 656 
Q 1241 591 1334 591 
L 1634 591 
L 1634 -16 
L 1259 -16 
Q 900 -16 700 209 
Q 500 434 500 844 
L 500 4544 
L 1138 4544 
z
" transform="scale(0.015625)"/>
       <path id="Bahnschrift-67" d="M 1588 -1319 
Q 1222 -1319 933 -1183 
Q 644 -1047 484 -800 
L 484 -800 
L 916 -409 
L 916 -409 
Q 1041 -581 1214 -675 
Q 1388 -769 1578 -769 
Q 1944 -769 2144 -567 
Q 2344 -366 2344 3 
L 2344 3244 
L 2981 3244 
L 2981 97 
Q 2981 -578 2617 -948 
Q 2253 -1319 1588 -1319 
z
M 1528 -56 
Q 991 -56 698 289 
Q 406 634 406 1263 
L 406 1978 
Q 406 2609 692 2954 
Q 978 3300 1497 3300 
Q 1784 3300 2023 3150 
Q 2263 3000 2409 2728 
L 2344 2066 
Q 2344 2272 2269 2419 
Q 2194 2566 2051 2642 
Q 1909 2719 1706 2719 
Q 1391 2719 1217 2522 
Q 1044 2325 1044 1969 
L 1044 1263 
Q 1044 909 1217 717 
Q 1391 525 1706 525 
Q 1909 525 2051 604 
Q 2194 684 2269 834 
Q 2344 984 2344 1194 
L 2388 509 
Q 2300 291 2086 117 
Q 1872 -56 1528 -56 
z
" transform="scale(0.015625)"/>
       <path id="Bahnschrift-41" d="M 125 0 
L 1800 4544 
L 2344 4544 
L 4019 0 
L 3331 0 
L 2072 3666 
L 813 0 
L 125 0 
z
M 897 997 
L 897 1603 
L 3288 1603 
L 3288 997 
L 897 997 
z
" transform="scale(0.015625)"/>
       <path id="Bahnschrift-76" d="M 1616 928 
L 2409 3244 
L 3075 3244 
L 1856 0 
L 1375 0 
L 156 3244 
L 822 3244 
L 1616 928 
z
" transform="scale(0.015625)"/>
       <path id="Bahnschrift-72" d="M 500 0 
L 500 3244 
L 1138 3244 
L 1138 0 
L 500 0 
z
M 2284 2475 
Q 2200 2578 2072 2631 
Q 1944 2684 1775 2684 
Q 1472 2684 1305 2517 
Q 1138 2350 1138 2053 
L 1072 2678 
Q 1219 2966 1458 3128 
Q 1697 3291 1984 3291 
Q 2206 3291 2386 3227 
Q 2566 3163 2700 3038 
L 2284 2475 
z
" transform="scale(0.015625)"/>
       <path id="Bahnschrift-28" d="M 1672 -978 
Q 1116 -375 839 373 
Q 563 1122 563 2025 
Q 563 2928 839 3676 
Q 1116 4425 1672 5028 
L 2109 4631 
Q 1638 4106 1403 3456 
Q 1169 2806 1169 2025 
Q 1169 1244 1403 594 
Q 1638 -56 2109 -584 
L 1672 -978 
z
" transform="scale(0.015625)"/>
       <path id="Bahnschrift-29" d="M 500 -978 
L 63 -584 
Q 534 -56 768 594 
Q 1003 1244 1003 2025 
Q 1003 2806 768 3456 
Q 534 4106 63 4631 
L 500 5028 
Q 1056 4425 1332 3676 
Q 1609 2928 1609 2025 
Q 1609 1122 1332 373 
Q 1056 -375 500 -978 
z
" transform="scale(0.015625)"/>
      </defs>
      <use xlink:href="#Bahnschrift-4d"/>
      <use xlink:href="#Bahnschrift-65" x="77.929688"/>
      <use xlink:href="#Bahnschrift-61" x="131.542969"/>
      <use xlink:href="#Bahnschrift-6e" x="184.765625"/>
      <use xlink:href="#Bahnschrift-20" x="240.625"/>
      <use xlink:href="#Bahnschrift-54" x="267.480469"/>
      <use xlink:href="#Bahnschrift-69" x="315.625"/>
      <use xlink:href="#Bahnschrift-6d" x="340.722656"/>
      <use xlink:href="#Bahnschrift-65" x="426.367188"/>
      <use xlink:href="#Bahnschrift-20" x="479.980469"/>
      <use xlink:href="#Bahnschrift-5b" x="506.835938"/>
      <use xlink:href="#Bahnschrift-52" x="536.230469"/>
      <use xlink:href="#Bahnschrift-6f" x="601.416016"/>
      <use xlink:href="#Bahnschrift-6c" x="655.908203"/>
      <use xlink:href="#Bahnschrift-6c" x="684.863281"/>
      <use xlink:href="#Bahnschrift-69" x="713.818359"/>
      <use xlink:href="#Bahnschrift-6e" x="738.916016"/>
      <use xlink:href="#Bahnschrift-67" x="794.775391"/>
      <use xlink:href="#Bahnschrift-20" x="848.681641"/>
      <use xlink:href="#Bahnschrift-41" x="875.537109"/>
      <use xlink:href="#Bahnschrift-76" x="940.283203"/>
      <use xlink:href="#Bahnschrift-65" x="990.283203"/>
      <use xlink:href="#Bahnschrift-72" x="1043.896484"/>
      <use xlink:href="#Bahnschrift-61" x="1086.572266"/>
      <use xlink:href="#Bahnschrift-67" x="1139.794922"/>
      <use xlink:href="#Bahnschrift-65" x="1193.701172"/>
      <use xlink:href="#Bahnschrift-20" x="1247.314453"/>
      <use xlink:href="#Bahnschrift-28" x="1274.169922"/>
      <use xlink:href="#Bahnschrift-32" x="1308.105469"/>
      <use xlink:href="#Bahnschrift-30" x="1359.765625"/>
      <use xlink:href="#Bahnschrift-29" x="1414.941406"/>
      <use xlink:href="#Bahnschrift-5d" x="1448.876953"/>
     </g>
    </g>
    <g id="patch_8">
     <path d="M 767 67.04 
L 799 67.04 
L 799 55.84 
L 767 55.84 
z
" style="fill: #d2dbe0; stroke: #d2dbe0; stroke-linejoin: miter"/>
    </g>
    <g id="text_14">
     <!-- 90% Percentiles -->
     <g transform="translate(811.8 67.04) scale(0.16 -0.16)">
      <defs>
       <path id="Bahnschrift-39" d="M 934 0 
L 2078 2256 
L 2075 2144 
Q 1994 1997 1834 1931 
Q 1675 1866 1466 1866 
Q 975 1866 675 2230 
Q 375 2594 375 3197 
L 375 3200 
Q 375 3863 708 4227 
Q 1041 4591 1644 4591 
Q 2247 4591 2578 4223 
Q 2909 3856 2909 3184 
L 2909 3181 
Q 2909 2903 2828 2579 
Q 2747 2256 2591 1947 
L 1622 0 
L 934 0 
z
M 1644 2447 
Q 1944 2447 2108 2650 
Q 2272 2853 2272 3222 
L 2272 3225 
Q 2272 3584 2108 3781 
Q 1944 3978 1644 3978 
Q 1341 3978 1177 3781 
Q 1013 3584 1013 3222 
L 1013 3219 
Q 1013 2850 1177 2648 
Q 1341 2447 1644 2447 
z
" transform="scale(0.015625)"/>
       <path id="Bahnschrift-25" d="M 666 0 
L 3134 4544 
L 3694 4544 
L 1225 0 
L 666 0 
z
M 3328 -47 
Q 2966 -47 2769 164 
Q 2572 375 2572 753 
L 2572 1144 
Q 2572 1522 2769 1733 
Q 2966 1944 3328 1944 
Q 3691 1944 3887 1731 
Q 4084 1519 4084 1138 
L 4084 753 
Q 4084 375 3887 164 
Q 3691 -47 3328 -47 
z
M 3328 450 
Q 3563 450 3563 722 
L 3563 1181 
Q 3563 1444 3328 1444 
Q 3094 1444 3094 1178 
L 3094 722 
Q 3094 450 3328 450 
z
M 1069 2597 
Q 706 2597 509 2808 
Q 313 3019 313 3397 
L 313 3788 
Q 313 4166 509 4377 
Q 706 4588 1069 4588 
Q 1431 4588 1628 4375 
Q 1825 4163 1825 3781 
L 1825 3397 
Q 1825 3019 1628 2808 
Q 1431 2597 1069 2597 
z
M 1069 3094 
Q 1303 3094 1303 3366 
L 1303 3825 
Q 1303 4088 1069 4088 
Q 834 4088 834 3822 
L 834 3366 
Q 834 3094 1069 3094 
z
" transform="scale(0.015625)"/>
       <path id="Bahnschrift-50" d="M 891 1763 
L 891 2369 
L 2344 2369 
Q 2656 2369 2845 2584 
Q 3034 2800 3034 3150 
L 3034 3150 
Q 3034 3506 2845 3722 
Q 2656 3938 2344 3938 
L 891 3938 
L 891 4544 
L 2322 4544 
Q 2734 4544 3040 4370 
Q 3347 4197 3517 3884 
Q 3688 3572 3688 3150 
L 3688 3150 
Q 3688 2731 3517 2418 
Q 3347 2106 3040 1934 
Q 2734 1763 2322 1763 
L 891 1763 
z
M 563 0 
L 563 4544 
L 1200 4544 
L 1200 0 
L 563 0 
z
" transform="scale(0.015625)"/>
       <path id="Bahnschrift-63" d="M 1809 -47 
Q 1141 -47 773 322 
Q 406 691 406 1363 
L 406 1897 
Q 406 2563 773 2927 
Q 1141 3291 1809 3291 
Q 2191 3291 2497 3156 
Q 2803 3022 2984 2772 
L 2984 2772 
L 2525 2359 
L 2525 2359 
Q 2391 2516 2206 2600 
Q 2022 2684 1819 2684 
Q 1450 2684 1247 2478 
Q 1044 2272 1044 1897 
L 1044 1363 
Q 1044 978 1247 768 
Q 1450 559 1819 559 
Q 2022 559 2206 650 
Q 2391 741 2525 906 
L 2525 906 
L 2984 463 
L 2984 463 
Q 2803 219 2495 86 
Q 2188 -47 1809 -47 
z
" transform="scale(0.015625)"/>
       <path id="Bahnschrift-74" d="M 1344 -16 
Q 944 -16 764 206 
Q 584 428 584 844 
L 584 4188 
L 1222 4188 
L 1222 838 
Q 1222 722 1269 656 
Q 1316 591 1406 591 
L 1713 591 
L 1713 -16 
L 1344 -16 
z
M 250 2669 
L 250 3244 
L 1713 3244 
L 1713 2669 
L 250 2669 
z
" transform="scale(0.015625)"/>
      </defs>
      <use xlink:href="#Bahnschrift-39"/>
      <use xlink:href="#Bahnschrift-30" x="51.318359"/>
      <use xlink:href="#Bahnschrift-25" x="106.494141"/>
      <use xlink:href="#Bahnschrift-20" x="175.195312"/>
      <use xlink:href="#Bahnschrift-50" x="202.050781"/>
      <use xlink:href="#Bahnschrift-65" x="264.306641"/>
      <use xlink:href="#Bahnschrift-72" x="317.919922"/>
      <use xlink:href="#Bahnschrift-63" x="360.595703"/>
      <use xlink:href="#Bahnschrift-65" x="410.400391"/>
      <use xlink:href="#Bahnschrift-6e" x="464.013672"/>
      <use xlink:href="#Bahnschrift-74" x="519.873047"/>
      <use xlink:href="#Bahnschrift-69" x="552.490234"/>
      <use xlink:href="#Bahnschrift-6c" x="577.587891"/>
      <use xlink:href="#Bahnschrift-65" x="606.542969"/>
      <use xlink:href="#Bahnschrift-73" x="660.15625"/>
     </g>
    </g>
   </g>
  </g>
 </g>
 <defs>
  <clipPath id="pd9bc46a590">
   <rect x="74.6975" y="17.28" width="988.0225" height="210.76"/>
  </clipPath>
 </defs>
</svg>
