<?xml version="1.0" encoding="utf-8" standalone="no"?>
<!DOCTYPE svg PUBLIC "-//W3C//DTD SVG 1.1//EN"
  "http://www.w3.org/Graphics/SVG/1.1/DTD/svg11.dtd">
<svg xmlns:xlink="http://www.w3.org/1999/xlink" width="1080pt" height="288pt" viewBox="0 0 1080 288" xmlns="http://www.w3.org/2000/svg" version="1.1">
 <metadata>
  <rdf:RDF xmlns:dc="http://purl.org/dc/elements/1.1/" xmlns:cc="http://creativecommons.org/ns#" xmlns:rdf="http://www.w3.org/1999/02/22-rdf-syntax-ns#">
   <cc:Work>
    <dc:type rdf:resource="http://purl.org/dc/dcmitype/StillImage"/>
    <dc:date>2024-05-29T19:41:01.347070</dc:date>
    <dc:format>image/svg+xml</dc:format>
    <dc:creator>
     <cc:Agent>
      <dc:title>Matplotlib v3.8.2, https://matplotlib.org/</dc:title>
     </cc:Agent>
    </dc:creator>
   </cc:Work>
  </rdf:RDF>
 </metadata>
 <defs>
  <style type="text/css">*{stroke-linejoin: round; stroke-linecap: butt}</style>
 </defs>
 <g id="figure_1">
  <g id="patch_1">
   <path d="M 0 288 
L 1080 288 
L 1080 0 
L 0 0 
z
" style="fill: #ffffff"/>
  </g>
  <g id="axes_1">
   <g id="patch_2">
    <path d="M 99.47 228.04 
L 1062.72 228.04 
L 1062.72 17.28 
L 99.47 17.28 
z
" style="fill: #ffffff"/>
   </g>
   <g id="matplotlib.axis_1">
    <g id="xtick_1">
     <g id="line2d_1">
      <defs>
       <path id="mdd1a425ef2" d="M 0 0 
L 0 3.5 
" style="stroke: #000000; stroke-width: 0.8"/>
      </defs>
      <g>
       <use xlink:href="#mdd1a425ef2" x="106.07015" y="228.04" style="stroke: #000000; stroke-width: 0.8"/>
      </g>
     </g>
     <g id="text_1">
      <!-- 0.0 -->
      <g transform="translate(95.43015 246.4) scale(0.16 -0.16)">
       <defs>
        <path id="Bahnschrift-30" d="M 1766 -47 
Q 1116 -47 792 301 
Q 469 650 469 1244 
L 469 3309 
Q 469 3913 797 4256 
Q 1125 4600 1766 4600 
Q 2409 4600 2736 4258 
Q 3063 3916 3063 3309 
L 3063 1244 
Q 3063 641 2736 297 
Q 2409 -47 1766 -47 
z
M 1766 559 
Q 2116 559 2270 742 
Q 2425 925 2425 1244 
L 2425 3309 
Q 2425 3631 2270 3812 
Q 2116 3994 1766 3994 
Q 1416 3994 1261 3812 
Q 1106 3631 1106 3309 
L 1106 1244 
Q 1106 925 1261 742 
Q 1416 559 1766 559 
z
" transform="scale(0.015625)"/>
        <path id="Bahnschrift-2e" d="M 391 0 
L 391 669 
L 1059 669 
L 1059 0 
L 391 0 
z
" transform="scale(0.015625)"/>
       </defs>
       <use xlink:href="#Bahnschrift-30"/>
       <use xlink:href="#Bahnschrift-2e" x="55.175781"/>
       <use xlink:href="#Bahnschrift-30" x="77.832031"/>
      </g>
     </g>
    </g>
    <g id="xtick_2">
     <g id="line2d_2">
      <g>
       <use xlink:href="#mdd1a425ef2" x="291.989856" y="228.04" style="stroke: #000000; stroke-width: 0.8"/>
      </g>
     </g>
     <g id="text_2">
      <!-- 0.1 -->
      <g transform="translate(283.103606 246.4) scale(0.16 -0.16)">
       <defs>
        <path id="Bahnschrift-31" d="M 1566 4544 
L 1566 0 
L 928 0 
L 928 3850 
L 281 3453 
L 281 4113 
L 928 4544 
L 1566 4544 
z
" transform="scale(0.015625)"/>
       </defs>
       <use xlink:href="#Bahnschrift-30"/>
       <use xlink:href="#Bahnschrift-2e" x="55.175781"/>
       <use xlink:href="#Bahnschrift-31" x="77.832031"/>
      </g>
     </g>
    </g>
    <g id="xtick_3">
     <g id="line2d_3">
      <g>
       <use xlink:href="#mdd1a425ef2" x="477.909563" y="228.04" style="stroke: #000000; stroke-width: 0.8"/>
      </g>
     </g>
     <g id="text_3">
      <!-- 0.2 -->
      <g transform="translate(467.550813 246.4) scale(0.16 -0.16)">
       <defs>
        <path id="Bahnschrift-32" d="M 400 0 
L 400 553 
L 1984 2666 
Q 2122 2847 2198 3040 
Q 2275 3234 2275 3406 
L 2275 3413 
Q 2275 3684 2115 3834 
Q 1956 3984 1663 3984 
Q 1388 3984 1214 3820 
Q 1041 3656 1003 3356 
L 1003 3353 
L 344 3353 
L 344 3356 
Q 428 3944 772 4267 
Q 1116 4591 1656 4591 
Q 2269 4591 2603 4281 
Q 2938 3972 2938 3406 
L 2938 3403 
Q 2938 3163 2838 2898 
Q 2738 2634 2559 2394 
L 1244 606 
L 2963 606 
L 2963 0 
L 400 0 
z
" transform="scale(0.015625)"/>
       </defs>
       <use xlink:href="#Bahnschrift-30"/>
       <use xlink:href="#Bahnschrift-2e" x="55.175781"/>
       <use xlink:href="#Bahnschrift-32" x="77.832031"/>
      </g>
     </g>
    </g>
    <g id="xtick_4">
     <g id="line2d_4">
      <g>
       <use xlink:href="#mdd1a425ef2" x="663.829269" y="228.04" style="stroke: #000000; stroke-width: 0.8"/>
      </g>
     </g>
     <g id="text_4">
      <!-- 0.3 -->
      <g transform="translate(653.373019 246.4) scale(0.16 -0.16)">
       <defs>
        <path id="Bahnschrift-33" d="M 1644 -47 
Q 1259 -47 970 92 
Q 681 231 506 493 
Q 331 756 281 1131 
L 281 1131 
L 931 1131 
L 931 1131 
Q 975 838 1162 702 
Q 1350 566 1644 566 
Q 1959 566 2134 734 
Q 2309 903 2309 1209 
L 2309 1347 
Q 2309 1688 2143 1873 
Q 1978 2059 1675 2059 
L 1353 2059 
L 1353 2666 
L 1675 2666 
Q 1944 2666 2089 2825 
Q 2234 2984 2234 3275 
L 2234 3416 
Q 2234 3684 2079 3831 
Q 1925 3978 1641 3978 
Q 1400 3978 1233 3842 
Q 1066 3706 1003 3413 
L 1003 3413 
L 356 3413 
L 356 3413 
Q 453 3975 789 4283 
Q 1125 4591 1641 4591 
Q 2228 4591 2550 4281 
Q 2872 3972 2872 3409 
L 2872 3334 
Q 2872 2994 2687 2742 
Q 2503 2491 2166 2372 
Q 2538 2294 2742 2008 
Q 2947 1722 2947 1281 
L 2947 1206 
Q 2947 609 2606 281 
Q 2266 -47 1644 -47 
z
" transform="scale(0.015625)"/>
       </defs>
       <use xlink:href="#Bahnschrift-30"/>
       <use xlink:href="#Bahnschrift-2e" x="55.175781"/>
       <use xlink:href="#Bahnschrift-33" x="77.832031"/>
      </g>
     </g>
    </g>
    <g id="xtick_5">
     <g id="line2d_5">
      <g>
       <use xlink:href="#mdd1a425ef2" x="849.748976" y="228.04" style="stroke: #000000; stroke-width: 0.8"/>
      </g>
     </g>
     <g id="text_5">
      <!-- 0.4 -->
      <g transform="translate(838.971476 246.4) scale(0.16 -0.16)">
       <defs>
        <path id="Bahnschrift-34" d="M 406 697 
L 406 1250 
L 1931 4541 
L 2588 4541 
L 1100 1288 
L 3328 1288 
L 3328 697 
L 406 697 
z
M 2366 -3 
L 2366 2672 
L 2988 2672 
L 2988 -3 
L 2366 -3 
z
" transform="scale(0.015625)"/>
       </defs>
       <use xlink:href="#Bahnschrift-30"/>
       <use xlink:href="#Bahnschrift-2e" x="55.175781"/>
       <use xlink:href="#Bahnschrift-34" x="77.832031"/>
      </g>
     </g>
    </g>
    <g id="xtick_6">
     <g id="line2d_6">
      <g>
       <use xlink:href="#mdd1a425ef2" x="1035.668683" y="228.04" style="stroke: #000000; stroke-width: 0.8"/>
      </g>
     </g>
     <g id="text_6">
      <!-- 0.5 -->
      <g transform="translate(1025.087433 246.4) scale(0.16 -0.16)">
       <defs>
        <path id="Bahnschrift-35" d="M 1738 -47 
Q 1219 -47 886 251 
Q 553 550 469 1094 
L 469 1097 
L 1106 1097 
L 1106 1094 
Q 1141 844 1306 705 
Q 1472 566 1738 566 
Q 2044 566 2211 770 
Q 2378 975 2378 1347 
L 2378 1728 
Q 2378 2100 2211 2303 
Q 2044 2506 1738 2506 
Q 1572 2506 1419 2412 
Q 1266 2319 1150 2150 
L 569 2150 
L 569 4544 
L 2884 4544 
L 2884 3938 
L 1206 3938 
L 1206 2916 
Q 1325 3013 1472 3066 
Q 1619 3119 1772 3119 
Q 2366 3119 2691 2755 
Q 3016 2391 3016 1728 
L 3016 1347 
Q 3016 681 2681 317 
Q 2347 -47 1738 -47 
z
" transform="scale(0.015625)"/>
       </defs>
       <use xlink:href="#Bahnschrift-30"/>
       <use xlink:href="#Bahnschrift-2e" x="55.175781"/>
       <use xlink:href="#Bahnschrift-35" x="77.832031"/>
      </g>
     </g>
    </g>
    <g id="text_7">
     <!-- Rho -->
     <g transform="translate(567.05125 265.0575) scale(0.16 -0.16)">
      <defs>
       <path id="Bahnschrift-52" d="M 841 1922 
L 841 2528 
L 2391 2528 
Q 2669 2528 2837 2722 
Q 3006 2916 3006 3234 
L 3006 3234 
Q 3006 3553 2837 3747 
Q 2669 3941 2391 3941 
L 841 3941 
L 841 4547 
L 2366 4547 
Q 2763 4547 3059 4383 
Q 3356 4219 3520 3925 
Q 3684 3631 3684 3234 
L 3684 3234 
Q 3684 2841 3518 2545 
Q 3353 2250 3058 2086 
Q 2763 1922 2366 1922 
L 841 1922 
z
M 563 0 
L 563 4547 
L 1200 4547 
L 1200 0 
L 563 0 
z
M 3119 0 
L 2078 2063 
L 2713 2206 
L 3875 0 
L 3119 0 
z
" transform="scale(0.015625)"/>
       <path id="Bahnschrift-68" d="M 500 0 
L 500 4544 
L 1138 4544 
L 1138 0 
L 500 0 
z
M 2469 0 
L 2469 1966 
Q 2469 2309 2292 2496 
Q 2116 2684 1791 2684 
Q 1478 2684 1308 2521 
Q 1138 2359 1138 2063 
L 1072 2688 
Q 1222 2975 1464 3133 
Q 1706 3291 2000 3291 
Q 2528 3291 2817 2945 
Q 3106 2600 3106 1969 
L 3106 0 
L 2469 0 
z
" transform="scale(0.015625)"/>
       <path id="Bahnschrift-6f" d="M 1744 -47 
Q 1106 -47 756 323 
Q 406 694 406 1366 
L 406 1894 
Q 406 2559 756 2925 
Q 1106 3291 1744 3291 
Q 2381 3291 2731 2925 
Q 3081 2559 3081 1894 
L 3081 1356 
Q 3081 688 2731 320 
Q 2381 -47 1744 -47 
z
M 1744 559 
Q 2078 559 2261 768 
Q 2444 978 2444 1356 
L 2444 1894 
Q 2444 2272 2261 2478 
Q 2078 2684 1744 2684 
Q 1413 2684 1228 2478 
Q 1044 2272 1044 1894 
L 1044 1356 
Q 1044 978 1228 768 
Q 1413 559 1744 559 
z
" transform="scale(0.015625)"/>
      </defs>
      <use xlink:href="#Bahnschrift-52"/>
      <use xlink:href="#Bahnschrift-68" x="65.185547"/>
      <use xlink:href="#Bahnschrift-6f" x="121.044922"/>
     </g>
    </g>
   </g>
   <g id="matplotlib.axis_2">
    <g id="ytick_1">
     <g id="line2d_7">
      <defs>
       <path id="m0db45f3779" d="M 0 0 
L -3.5 0 
" style="stroke: #000000; stroke-width: 0.8"/>
      </defs>
      <g>
       <use xlink:href="#m0db45f3779" x="99.47" y="213.750168" style="stroke: #000000; stroke-width: 0.8"/>
      </g>
     </g>
     <g id="text_8">
      <!-- -0.0015 -->
      <g transform="translate(40.66 219.430168) scale(0.16 -0.16)">
       <defs>
        <path id="Bahnschrift-2d" d="M 500 1931 
L 2600 1931 
L 2600 1325 
L 500 1325 
L 500 1931 
z
" transform="scale(0.015625)"/>
       </defs>
       <use xlink:href="#Bahnschrift-2d"/>
       <use xlink:href="#Bahnschrift-30" x="47.949219"/>
       <use xlink:href="#Bahnschrift-2e" x="103.125"/>
       <use xlink:href="#Bahnschrift-30" x="125.78125"/>
       <use xlink:href="#Bahnschrift-30" x="180.957031"/>
       <use xlink:href="#Bahnschrift-31" x="236.132812"/>
       <use xlink:href="#Bahnschrift-35" x="269.384766"/>
      </g>
     </g>
    </g>
    <g id="ytick_2">
     <g id="line2d_8">
      <g>
       <use xlink:href="#m0db45f3779" x="99.47" y="161.39355" style="stroke: #000000; stroke-width: 0.8"/>
      </g>
     </g>
     <g id="text_9">
      <!-- -0.0010 -->
      <g transform="translate(40.5425 167.07355) scale(0.16 -0.16)">
       <use xlink:href="#Bahnschrift-2d"/>
       <use xlink:href="#Bahnschrift-30" x="47.949219"/>
       <use xlink:href="#Bahnschrift-2e" x="103.125"/>
       <use xlink:href="#Bahnschrift-30" x="125.78125"/>
       <use xlink:href="#Bahnschrift-30" x="180.957031"/>
       <use xlink:href="#Bahnschrift-31" x="236.132812"/>
       <use xlink:href="#Bahnschrift-30" x="269.384766"/>
      </g>
     </g>
    </g>
    <g id="ytick_3">
     <g id="line2d_9">
      <g>
       <use xlink:href="#m0db45f3779" x="99.47" y="109.036931" style="stroke: #000000; stroke-width: 0.8"/>
      </g>
     </g>
     <g id="text_10">
      <!-- -0.0005 -->
      <g transform="translate(37.1525 114.716931) scale(0.16 -0.16)">
       <use xlink:href="#Bahnschrift-2d"/>
       <use xlink:href="#Bahnschrift-30" x="47.949219"/>
       <use xlink:href="#Bahnschrift-2e" x="103.125"/>
       <use xlink:href="#Bahnschrift-30" x="125.78125"/>
       <use xlink:href="#Bahnschrift-30" x="180.957031"/>
       <use xlink:href="#Bahnschrift-30" x="236.132812"/>
       <use xlink:href="#Bahnschrift-35" x="291.308594"/>
      </g>
     </g>
    </g>
    <g id="ytick_4">
     <g id="line2d_10">
      <g>
       <use xlink:href="#m0db45f3779" x="99.47" y="56.680313" style="stroke: #000000; stroke-width: 0.8"/>
      </g>
     </g>
     <g id="text_11">
      <!-- 0.0000 -->
      <g transform="translate(44.7075 62.360313) scale(0.16 -0.16)">
       <use xlink:href="#Bahnschrift-30"/>
       <use xlink:href="#Bahnschrift-2e" x="55.175781"/>
       <use xlink:href="#Bahnschrift-30" x="77.832031"/>
       <use xlink:href="#Bahnschrift-30" x="133.007812"/>
       <use xlink:href="#Bahnschrift-30" x="188.183594"/>
       <use xlink:href="#Bahnschrift-30" x="243.359375"/>
      </g>
     </g>
    </g>
    <g id="text_12">
     <!-- 1st. Difference,  mean: 0.00003 -->
     <g transform="translate(29.855 231.15) rotate(-90) scale(0.16 -0.16)">
      <defs>
       <path id="Bahnschrift-73" d="M 1647 -47 
Q 1216 -47 864 79 
Q 513 206 234 459 
L 234 459 
L 613 925 
L 613 925 
Q 878 725 1136 625 
Q 1394 525 1647 525 
Q 2025 525 2214 642 
Q 2403 759 2403 994 
Q 2403 1175 2276 1250 
Q 2150 1325 1945 1348 
Q 1741 1372 1506 1388 
Q 1309 1403 1115 1436 
Q 922 1469 762 1555 
Q 603 1641 508 1809 
Q 413 1978 413 2263 
Q 413 2778 728 3034 
Q 1044 3291 1669 3291 
Q 2050 3291 2378 3187 
Q 2706 3084 2994 2872 
L 2994 2872 
L 2609 2406 
L 2609 2406 
Q 2366 2563 2130 2641 
Q 1894 2719 1669 2719 
Q 1344 2719 1181 2608 
Q 1019 2497 1019 2275 
Q 1019 2128 1131 2064 
Q 1244 2000 1428 1981 
Q 1613 1963 1825 1947 
Q 2028 1934 2236 1901 
Q 2444 1869 2619 1775 
Q 2794 1681 2900 1497 
Q 3006 1313 3006 994 
Q 3006 472 2667 212 
Q 2328 -47 1647 -47 
z
" transform="scale(0.015625)"/>
       <path id="Bahnschrift-74" d="M 1344 -16 
Q 944 -16 764 206 
Q 584 428 584 844 
L 584 4188 
L 1222 4188 
L 1222 838 
Q 1222 722 1269 656 
Q 1316 591 1406 591 
L 1713 591 
L 1713 -16 
L 1344 -16 
z
M 250 2669 
L 250 3244 
L 1713 3244 
L 1713 2669 
L 250 2669 
z
" transform="scale(0.015625)"/>
       <path id="Bahnschrift-20" transform="scale(0.015625)"/>
       <path id="Bahnschrift-44" d="M 994 0 
L 994 606 
L 2022 606 
Q 2525 606 2801 867 
Q 3078 1128 3078 1603 
L 3078 2941 
Q 3078 3416 2801 3677 
Q 2525 3938 2022 3938 
L 994 3938 
L 994 4544 
L 2003 4544 
Q 2828 4544 3279 4117 
Q 3731 3691 3731 2916 
L 3731 1628 
Q 3731 1113 3528 748 
Q 3325 384 2937 192 
Q 2550 0 2000 0 
L 994 0 
z
M 563 0 
L 563 4544 
L 1200 4544 
L 1200 0 
L 563 0 
z
" transform="scale(0.015625)"/>
       <path id="Bahnschrift-69" d="M 500 3906 
L 500 4544 
L 1138 4544 
L 1138 3906 
L 500 3906 
z
M 500 0 
L 500 3244 
L 1138 3244 
L 1138 0 
L 500 0 
z
" transform="scale(0.015625)"/>
       <path id="Bahnschrift-66" d="M 594 0 
L 594 3684 
Q 594 4113 791 4328 
Q 988 4544 1403 4544 
L 1872 4544 
L 1872 3938 
L 1416 3938 
Q 1319 3938 1275 3864 
Q 1231 3791 1231 3691 
L 1231 0 
L 594 0 
z
M 250 2700 
L 250 3244 
L 1872 3244 
L 1872 2700 
L 250 2700 
z
" transform="scale(0.015625)"/>
       <path id="Bahnschrift-65" d="M 1828 -47 
Q 1150 -47 778 331 
Q 406 709 406 1406 
L 406 1772 
Q 406 2497 764 2894 
Q 1122 3291 1772 3291 
Q 2384 3291 2720 2841 
Q 3056 2391 3056 1578 
L 3056 1366 
L 869 1366 
L 869 1878 
L 2450 1878 
L 2450 1878 
Q 2422 2272 2245 2494 
Q 2069 2716 1772 2716 
Q 1413 2716 1213 2478 
Q 1013 2241 1013 1806 
L 1013 1394 
Q 1013 991 1227 775 
Q 1441 559 1828 559 
Q 2022 559 2212 637 
Q 2403 716 2553 856 
L 2553 856 
L 2972 438 
L 2972 438 
Q 2731 206 2431 79 
Q 2131 -47 1828 -47 
z
" transform="scale(0.015625)"/>
       <path id="Bahnschrift-72" d="M 500 0 
L 500 3244 
L 1138 3244 
L 1138 0 
L 500 0 
z
M 2284 2475 
Q 2200 2578 2072 2631 
Q 1944 2684 1775 2684 
Q 1472 2684 1305 2517 
Q 1138 2350 1138 2053 
L 1072 2678 
Q 1219 2966 1458 3128 
Q 1697 3291 1984 3291 
Q 2206 3291 2386 3227 
Q 2566 3163 2700 3038 
L 2284 2475 
z
" transform="scale(0.015625)"/>
       <path id="Bahnschrift-6e" d="M 500 0 
L 500 3244 
L 1138 3244 
L 1138 0 
L 500 0 
z
M 2469 0 
L 2469 1966 
Q 2469 2309 2292 2496 
Q 2116 2684 1791 2684 
Q 1478 2684 1308 2518 
Q 1138 2353 1138 2053 
L 1072 2678 
Q 1222 2972 1464 3131 
Q 1706 3291 2000 3291 
Q 2528 3291 2817 2945 
Q 3106 2600 3106 1969 
L 3106 0 
L 2469 0 
z
" transform="scale(0.015625)"/>
       <path id="Bahnschrift-63" d="M 1809 -47 
Q 1141 -47 773 322 
Q 406 691 406 1363 
L 406 1897 
Q 406 2563 773 2927 
Q 1141 3291 1809 3291 
Q 2191 3291 2497 3156 
Q 2803 3022 2984 2772 
L 2984 2772 
L 2525 2359 
L 2525 2359 
Q 2391 2516 2206 2600 
Q 2022 2684 1819 2684 
Q 1450 2684 1247 2478 
Q 1044 2272 1044 1897 
L 1044 1363 
Q 1044 978 1247 768 
Q 1450 559 1819 559 
Q 2022 559 2206 650 
Q 2391 741 2525 906 
L 2525 906 
L 2984 463 
L 2984 463 
Q 2803 219 2495 86 
Q 2188 -47 1809 -47 
z
" transform="scale(0.015625)"/>
       <path id="Bahnschrift-2c" d="M 391 -1038 
L 391 669 
L 1059 669 
L 1059 -344 
L 391 -1038 
z
" transform="scale(0.015625)"/>
       <path id="Bahnschrift-6d" d="M 4375 0 
L 4375 1966 
Q 4375 2309 4198 2496 
Q 4022 2684 3697 2684 
Q 3400 2684 3237 2503 
Q 3075 2322 3075 1991 
L 2947 2616 
Q 3103 2941 3353 3116 
Q 3603 3291 3906 3291 
Q 4434 3291 4723 2945 
Q 5013 2600 5013 1969 
L 5013 0 
L 4375 0 
z
M 500 0 
L 500 3244 
L 1138 3244 
L 1138 0 
L 500 0 
z
M 2438 0 
L 2438 1966 
Q 2438 2309 2269 2496 
Q 2100 2684 1791 2684 
Q 1478 2684 1308 2518 
Q 1138 2353 1138 2053 
L 1072 2678 
Q 1222 2972 1464 3131 
Q 1706 3291 2000 3291 
Q 2513 3291 2794 2945 
Q 3075 2600 3075 1969 
L 3075 0 
L 2438 0 
z
" transform="scale(0.015625)"/>
       <path id="Bahnschrift-61" d="M 2331 0 
L 2331 2056 
Q 2331 2375 2161 2551 
Q 1991 2728 1678 2728 
Q 1488 2728 1302 2670 
Q 1116 2613 969 2503 
L 503 2822 
Q 688 3044 989 3167 
Q 1291 3291 1659 3291 
Q 2269 3291 2603 2975 
Q 2938 2659 2938 2084 
L 2938 0 
L 2331 0 
z
M 1538 -47 
Q 941 -47 642 200 
Q 344 447 344 956 
Q 344 1441 617 1680 
Q 891 1919 1438 1919 
L 2359 1919 
L 2403 1406 
L 1441 1406 
Q 1194 1406 1069 1295 
Q 944 1184 944 956 
Q 944 709 1109 590 
Q 1275 472 1606 472 
Q 1969 472 2150 550 
Q 2331 628 2331 794 
L 2397 338 
Q 2313 206 2188 122 
Q 2063 38 1902 -4 
Q 1741 -47 1538 -47 
z
" transform="scale(0.015625)"/>
       <path id="Bahnschrift-3a" d="M 391 0 
L 391 669 
L 1059 669 
L 1059 0 
L 391 0 
z
M 391 2606 
L 391 3275 
L 1059 3275 
L 1059 2606 
L 391 2606 
z
" transform="scale(0.015625)"/>
      </defs>
      <use xlink:href="#Bahnschrift-31"/>
      <use xlink:href="#Bahnschrift-73" x="33.251953"/>
      <use xlink:href="#Bahnschrift-74" x="85.107422"/>
      <use xlink:href="#Bahnschrift-2e" x="117.724609"/>
      <use xlink:href="#Bahnschrift-20" x="140.380859"/>
      <use xlink:href="#Bahnschrift-44" x="167.236328"/>
      <use xlink:href="#Bahnschrift-69" x="232.861328"/>
      <use xlink:href="#Bahnschrift-66" x="257.958984"/>
      <use xlink:href="#Bahnschrift-66" x="289.648438"/>
      <use xlink:href="#Bahnschrift-65" x="321.337891"/>
      <use xlink:href="#Bahnschrift-72" x="374.951172"/>
      <use xlink:href="#Bahnschrift-65" x="417.626953"/>
      <use xlink:href="#Bahnschrift-6e" x="471.240234"/>
      <use xlink:href="#Bahnschrift-63" x="527.099609"/>
      <use xlink:href="#Bahnschrift-65" x="576.904297"/>
      <use xlink:href="#Bahnschrift-2c" x="630.517578"/>
      <use xlink:href="#Bahnschrift-20" x="653.173828"/>
      <use xlink:href="#Bahnschrift-20" x="680.029297"/>
      <use xlink:href="#Bahnschrift-6d" x="706.884766"/>
      <use xlink:href="#Bahnschrift-65" x="792.529297"/>
      <use xlink:href="#Bahnschrift-61" x="846.142578"/>
      <use xlink:href="#Bahnschrift-6e" x="899.365234"/>
      <use xlink:href="#Bahnschrift-3a" x="955.224609"/>
      <use xlink:href="#Bahnschrift-20" x="977.880859"/>
      <use xlink:href="#Bahnschrift-30" x="1004.736328"/>
      <use xlink:href="#Bahnschrift-2e" x="1059.912109"/>
      <use xlink:href="#Bahnschrift-30" x="1082.568359"/>
      <use xlink:href="#Bahnschrift-30" x="1137.744141"/>
      <use xlink:href="#Bahnschrift-30" x="1192.919922"/>
      <use xlink:href="#Bahnschrift-30" x="1248.095703"/>
      <use xlink:href="#Bahnschrift-33" x="1303.271484"/>
     </g>
    </g>
   </g>
   <g id="line2d_11">
    <path d="M 143.254091 218.46 
L 145.113288 187.005427 
L 146.972485 162.991597 
L 150.690879 147.556214 
L 152.550076 135.514952 
L 154.409273 127.107656 
L 156.26847 115.323739 
L 158.127667 117.660905 
L 159.986865 109.866213 
L 161.846062 104.610846 
L 163.705259 105.75588 
L 165.564456 99.896271 
L 167.423653 97.105381 
L 169.28285 95.715772 
L 171.142047 91.227098 
L 173.001244 91.078852 
L 174.860441 90.378006 
L 176.719638 83.880201 
L 178.578835 85.807582 
L 180.438032 77.179776 
L 182.297229 79.827913 
L 184.156426 87.766556 
L 186.015623 76.578643 
L 187.87482 81.06904 
L 189.734018 76.16897 
L 191.593215 75.320203 
L 193.452412 77.73546 
L 195.311609 71.980432 
L 197.170806 67.195242 
L 199.030003 65.7116 
L 200.8892 64.628767 
L 202.748397 59.814168 
L 204.607594 68.684701 
L 206.466791 65.907779 
L 208.325988 67.855357 
L 210.185185 62.775335 
L 212.044382 60.039345 
L 215.762776 62.157499 
L 217.621974 61.971793 
L 219.481171 56.597577 
L 221.340368 58.687171 
L 223.199565 65.710351 
L 225.058762 59.875658 
L 226.917959 63.177069 
L 228.777156 59.976956 
L 230.636353 61.378149 
L 232.49555 61.939151 
L 234.354747 66.178855 
L 236.213944 57.119795 
L 238.073141 62.080156 
L 239.932338 64.448366 
L 241.791535 61.619516 
L 243.650732 59.680003 
L 245.50993 56.455086 
L 247.369127 60.225825 
L 249.228324 56.981123 
L 251.087521 62.139175 
L 254.805915 58.751657 
L 256.665112 64.121941 
L 258.524309 59.318963 
L 260.383506 57.474069 
L 262.242703 55.432284 
L 264.1019 57.437482 
L 265.961097 62.402986 
L 267.820294 59.409351 
L 269.679491 59.498216 
L 271.538688 52.697354 
L 273.397886 61.134085 
L 275.257083 47.649389 
L 277.11628 58.719839 
L 278.975477 52.968718 
L 280.834674 55.55293 
L 282.693871 54.802302 
L 284.553068 57.63441 
L 286.412265 57.462809 
L 288.271462 55.608441 
L 290.130659 54.642959 
L 291.989856 59.209414 
L 293.849053 52.50613 
L 295.70825 55.388444 
L 297.567447 51.934057 
L 299.426644 53.139944 
L 301.285842 48.09239 
L 303.145039 52.060382 
L 305.004236 48.235543 
L 306.863433 47.788509 
L 308.72263 52.922257 
L 312.441024 61.117658 
L 314.300221 51.746927 
L 316.159418 54.060962 
L 318.018615 53.425725 
L 319.877812 55.963576 
L 321.737009 52.553503 
L 323.596206 50.663021 
L 325.455403 59.258758 
L 327.3146 49.850791 
L 329.173798 56.506578 
L 331.032995 60.091598 
L 332.892192 49.462839 
L 334.751389 53.399424 
L 336.610586 43.45034 
L 338.469783 59.027877 
L 340.32898 43.058256 
L 342.188177 63.969476 
L 344.047374 50.83662 
L 345.906571 53.976628 
L 347.765768 51.429028 
L 349.624965 45.20788 
L 351.484162 52.963013 
L 353.343359 52.46631 
L 355.202556 50.967377 
L 357.061754 52.614194 
L 358.920951 48.16494 
L 360.780148 53.533239 
L 362.639345 50.893266 
L 364.498542 55.750146 
L 366.357739 48.038927 
L 368.216936 49.657245 
L 370.076133 52.791662 
L 371.93533 57.8865 
L 373.794527 66.957245 
L 375.653724 51.007272 
L 377.512921 56.068082 
L 379.372118 53.320495 
L 381.231315 57.999295 
L 383.090512 50.54421 
L 384.94971 52.62247 
L 386.808907 56.836498 
L 388.668104 54.249115 
L 390.527301 54.110656 
L 392.386498 54.508632 
L 394.245695 53.715326 
L 396.104892 50.383369 
L 397.964089 53.487752 
L 399.823286 49.29316 
L 401.682483 53.261339 
L 403.54168 49.489177 
L 405.400877 51.841709 
L 407.260074 46.856719 
L 409.119271 46.332729 
L 410.978468 45.573251 
L 412.837666 54.09705 
L 414.696863 61.636306 
L 416.55606 43.355483 
L 418.415257 50.521953 
L 420.274454 55.164977 
L 422.133651 51.303513 
L 423.992848 60.517036 
L 425.852045 49.28391 
L 427.711242 47.828105 
L 429.570439 55.200241 
L 431.429636 47.850399 
L 433.288833 56.99604 
L 435.14803 54.830051 
L 438.866424 53.517224 
L 440.725622 52.56591 
L 442.584819 49.676719 
L 444.444016 61.255181 
L 446.303213 54.40344 
L 448.16241 55.83428 
L 450.021607 54.335608 
L 451.880804 44.36418 
L 453.740001 47.863119 
L 455.599198 56.223655 
L 457.458395 48.238514 
L 459.317592 54.76197 
L 461.176789 38.522759 
L 463.035986 48.794822 
L 464.895183 53.564521 
L 466.75438 47.398422 
L 468.613577 55.916716 
L 470.472775 48.240611 
L 472.331972 46.050855 
L 474.191169 51.996833 
L 476.050366 49.098578 
L 477.909563 51.407782 
L 479.76876 52.692111 
L 481.627957 57.884203 
L 483.487154 52.495283 
L 485.346351 56.95265 
L 487.205548 53.068929 
L 489.064745 50.561074 
L 490.923942 58.955102 
L 492.783139 45.961141 
L 494.642336 59.330559 
L 496.501533 51.25126 
L 498.360731 58.795772 
L 500.219928 56.057147 
L 502.079125 54.714523 
L 503.938322 53.705677 
L 505.797519 54.927917 
L 507.656716 53.983194 
L 509.515913 56.26883 
L 511.37511 50.965117 
L 513.234307 50.186591 
L 515.093504 52.448635 
L 516.952701 45.329025 
L 518.811898 50.291122 
L 520.671095 38.324257 
L 522.530292 48.963065 
L 524.389489 48.050798 
L 526.248687 53.77915 
L 528.107884 46.505278 
L 529.967081 54.375528 
L 531.826278 53.082798 
L 533.685475 44.13974 
L 535.544672 53.180763 
L 537.403869 42.561366 
L 539.263066 53.485705 
L 541.122263 47.463907 
L 542.98146 44.300318 
L 544.840657 60.26547 
L 546.699854 43.405377 
L 548.559051 56.644088 
L 550.418248 61.931249 
L 552.277445 60.32927 
L 554.136643 60.525549 
L 555.99584 46.072725 
L 557.855037 68.967673 
L 559.714234 54.920389 
L 561.573431 55.954738 
L 563.432628 59.136427 
L 565.291825 50.75316 
L 567.151022 53.894554 
L 569.010219 47.843296 
L 570.869416 63.145587 
L 572.728613 58.612637 
L 574.58781 62.609838 
L 576.447007 48.628277 
L 578.306204 60.697799 
L 582.024599 48.637102 
L 583.883796 64.112929 
L 585.742993 51.818179 
L 587.60219 36.093033 
L 589.461387 38.910299 
L 591.320584 53.152577 
L 593.179781 46.260653 
L 595.038978 49.175235 
L 596.898175 37.048229 
L 598.757372 51.735955 
L 600.616569 47.403278 
L 602.475766 53.37899 
L 604.334963 43.632739 
L 606.19416 48.906006 
L 608.053357 45.317878 
L 609.912555 45.345765 
L 611.771752 43.862784 
L 613.630949 57.206151 
L 615.490146 53.892507 
L 617.349343 46.156846 
L 619.20854 46.261003 
L 621.067737 38.355926 
L 622.926934 33.948128 
L 624.786131 54.329966 
L 626.645328 55.806318 
L 628.504525 42.320897 
L 630.363722 54.900429 
L 632.222919 50.866903 
L 634.082116 57.108698 
L 635.941313 43.571835 
L 637.800511 46.091062 
L 639.659708 60.915387 
L 641.518905 50.095704 
L 643.378102 61.487573 
L 645.237299 58.314435 
L 647.096496 46.883232 
L 648.955693 55.722147 
L 650.81489 49.709149 
L 652.674087 42.57838 
L 654.533284 58.225108 
L 656.392481 52.986318 
L 658.251678 61.304064 
L 660.110875 60.007738 
L 661.970072 57.870422 
L 663.829269 49.439221 
L 665.688467 59.306805 
L 667.547664 64.814898 
L 669.406861 57.48262 
L 671.266058 47.84256 
L 673.125255 59.237488 
L 674.984452 48.722097 
L 676.843649 50.212143 
L 678.702846 60.652612 
L 680.562043 35.800499 
L 682.42124 54.672706 
L 684.280437 50.242314 
L 686.139634 53.939617 
L 687.998831 46.061328 
L 689.858028 44.250824 
L 691.717225 55.949508 
L 693.576423 50.416112 
L 697.294817 45.03327 
L 699.154014 40.510293 
L 701.013211 49.563175 
L 702.872408 47.765316 
L 704.731605 38.069209 
L 706.590802 44.500755 
L 708.449999 58.211427 
L 710.309196 53.830779 
L 712.168393 61.563568 
L 714.02759 46.724876 
L 715.886787 51.913323 
L 717.745984 49.887241 
L 719.605181 43.130494 
L 721.464378 48.287784 
L 723.323576 47.211068 
L 725.182773 46.646159 
L 727.04197 57.127871 
L 728.901167 50.629093 
L 730.760364 52.025243 
L 732.619561 41.2943 
L 734.478758 51.954079 
L 736.337955 67.707872 
L 738.197152 57.540427 
L 740.056349 57.131878 
L 741.915546 55.544192 
L 743.774743 45.609551 
L 745.63394 41.508417 
L 747.493137 48.458823 
L 749.352334 51.880505 
L 751.211532 55.77968 
L 753.070729 50.636907 
L 754.929926 56.221583 
L 756.789123 45.610212 
L 758.64832 52.254377 
L 760.507517 55.02693 
L 762.366714 46.30478 
L 764.225911 47.873043 
L 766.085108 36.725873 
L 769.803502 58.393239 
L 771.662699 57.069751 
L 773.521896 38.607804 
L 775.381093 52.096108 
L 777.24029 40.354908 
L 779.099488 45.264801 
L 780.958685 53.732153 
L 782.817882 57.157043 
L 784.677079 39.567119 
L 786.536276 54.794937 
L 788.395473 43.27839 
L 790.25467 48.263142 
L 792.113867 55.32814 
L 793.973064 48.430599 
L 795.832261 53.132017 
L 797.691458 36.644823 
L 799.550655 56.456834 
L 801.409852 53.197664 
L 803.269049 69.630584 
L 805.128246 50.479524 
L 806.987444 67.610444 
L 808.846641 53.763796 
L 810.705838 49.27697 
L 812.565035 48.888218 
L 814.424232 48.919925 
L 816.283429 59.780364 
L 818.142626 50.654383 
L 820.001823 45.524356 
L 821.86102 51.274341 
L 823.720217 34.519216 
L 825.579414 53.281274 
L 827.438611 53.6796 
L 829.297808 45.229637 
L 831.157005 56.223306 
L 833.016202 54.838814 
L 834.8754 68.491979 
L 836.734597 58.611713 
L 838.593794 42.865085 
L 840.452991 41.798805 
L 842.312188 58.075477 
L 844.171385 31.14523 
L 846.030582 49.532817 
L 847.889779 58.405872 
L 849.748976 46.733077 
L 851.608173 63.463786 
L 853.46737 50.728731 
L 855.326567 45.973312 
L 857.185764 57.292095 
L 859.044961 42.27511 
L 860.904158 40.725072 
L 862.763356 52.506742 
L 864.622553 55.2571 
L 866.48175 63.755746 
L 868.340947 43.358966 
L 870.200144 43.288363 
L 872.059341 40.539378 
L 873.918538 47.62325 
L 875.777735 63.35737 
L 877.636932 44.452109 
L 879.496129 53.240605 
L 881.355326 54.420691 
L 883.214523 53.037947 
L 885.07372 55.910549 
L 886.932917 61.109145 
L 888.792114 41.909714 
L 890.651312 49.116229 
L 892.510509 54.99254 
L 894.369706 50.195154 
L 896.228903 72.562242 
L 898.0881 65.281218 
L 899.947297 53.720406 
L 901.806494 26.86 
L 903.665691 37.468924 
L 905.524888 59.40467 
L 907.384085 62.977457 
L 909.243282 57.171199 
L 911.102479 46.345923 
L 912.961676 40.373357 
L 914.820873 55.292377 
L 916.68007 38.198368 
L 918.539268 61.610691 
L 920.398465 43.0718 
L 922.257662 52.927812 
L 924.116859 37.092044 
L 925.976056 52.367809 
L 927.835253 49.944162 
L 929.69445 53.1812 
L 931.553647 53.196541 
L 933.412844 35.040846 
L 935.272041 58.751907 
L 937.131238 43.574844 
L 938.990435 65.548861 
L 940.849632 57.266992 
L 942.708829 53.556395 
L 944.568026 47.948164 
L 946.427224 44.088548 
L 948.286421 62.194386 
L 950.145618 54.153659 
L 952.004815 43.774506 
L 953.864012 57.106164 
L 955.723209 30.983153 
L 957.582406 60.827159 
L 959.441603 31.646089 
L 961.3008 59.309638 
L 963.159997 54.839863 
L 965.019194 40.527932 
L 966.878391 43.949103 
L 968.737588 49.183274 
L 970.596785 55.405146 
L 972.455982 47.002518 
L 974.31518 49.787416 
L 976.174377 55.238076 
L 978.033574 42.807664 
L 979.892771 55.331935 
L 981.751968 37.17976 
L 983.611165 48.873176 
L 985.470362 45.879541 
L 987.329559 51.530113 
L 989.188756 60.530031 
L 991.047953 42.174524 
L 992.90715 59.768169 
L 994.766347 46.10719 
L 996.625544 69.064265 
L 998.484741 60.66321 
L 1000.343938 56.70438 
L 1002.203135 62.832719 
L 1004.062333 64.823162 
L 1005.92153 57.136709 
L 1007.780727 56.874383 
L 1009.639924 47.490121 
L 1011.499121 48.807167 
L 1013.358318 34.10229 
L 1015.217515 62.762453 
L 1017.076712 45.355251 
L 1018.935909 57.279113 
L 1018.935909 57.279113 
" clip-path="url(#peb3f40f43e)" style="fill: none; stroke: #d2dbe0; stroke-width: 1.5; stroke-linecap: square"/>
   </g>
   <g id="line2d_12">
    <path d="M 161.846062 114.037034 
L 163.705259 108.678159 
L 167.423653 100.991923 
L 169.28285 97.667564 
L 171.142047 94.700265 
L 173.001244 92.110892 
L 174.860441 90.231478 
L 178.578835 85.813906 
L 182.297229 81.812588 
L 184.156426 79.808483 
L 187.87482 76.897049 
L 189.734018 75.728462 
L 193.452412 72.796353 
L 197.170806 70.471657 
L 199.030003 69.711258 
L 200.8892 68.549741 
L 202.748397 67.095772 
L 204.607594 66.552357 
L 206.466791 65.492688 
L 210.185185 64.075931 
L 212.044382 63.258065 
L 213.903579 62.756001 
L 215.762776 62.705182 
L 217.621974 62.275592 
L 219.481171 62.148161 
L 221.340368 62.379871 
L 225.058762 61.715223 
L 226.917959 61.145209 
L 230.636353 60.864823 
L 232.49555 60.919964 
L 236.213944 60.676581 
L 238.073141 61.052799 
L 239.932338 61.084388 
L 241.791535 60.672574 
L 245.50993 60.163426 
L 247.369127 60.284728 
L 251.087521 60.064241 
L 252.946718 59.390166 
L 254.805915 59.59088 
L 256.665112 58.869342 
L 258.524309 58.582916 
L 260.383506 58.150376 
L 262.242703 57.944022 
L 267.820294 57.755897 
L 271.538688 57.136009 
L 273.397886 57.158897 
L 275.257083 56.578107 
L 280.834674 55.989963 
L 284.553068 55.005578 
L 288.271462 53.861403 
L 290.130659 53.872648 
L 291.989856 53.673045 
L 293.849053 54.346458 
L 295.70825 53.997813 
L 297.567447 54.052425 
L 299.426644 53.946065 
L 301.285842 54.004128 
L 305.004236 53.410093 
L 306.863433 53.592609 
L 310.581827 53.217859 
L 312.441024 53.597133 
L 314.300221 53.300852 
L 316.159418 53.374121 
L 318.018615 52.88964 
L 319.877812 53.436415 
L 321.737009 52.986308 
L 323.596206 53.773005 
L 327.3146 53.978129 
L 329.173798 53.692479 
L 331.032995 52.89699 
L 332.892192 52.957795 
L 336.610586 52.755145 
L 340.32898 52.368247 
L 342.188177 52.511758 
L 344.047374 52.093484 
L 345.906571 52.388451 
L 349.624965 51.443351 
L 353.343359 51.834146 
L 355.202556 53.009491 
L 357.061754 52.608461 
L 358.920951 53.258952 
L 360.780148 52.726503 
L 362.639345 53.084637 
L 364.498542 52.913016 
L 366.357739 52.972688 
L 368.216936 53.554119 
L 371.93533 53.700642 
L 373.794527 53.877704 
L 379.372118 54.041408 
L 384.94971 53.909475 
L 386.808907 54.018698 
L 388.668104 53.721951 
L 390.527301 53.144262 
L 392.386498 52.075063 
L 394.245695 52.229552 
L 396.104892 52.507963 
L 397.964089 52.009712 
L 399.823286 51.635845 
L 401.682483 51.866884 
L 403.54168 51.800936 
L 405.400877 51.984963 
L 409.119271 51.422575 
L 410.978468 51.457155 
L 412.837666 51.163909 
L 414.696863 51.494543 
L 416.55606 51.561657 
L 418.415257 51.805187 
L 420.274454 51.817981 
L 422.133651 51.971818 
L 423.992848 51.863568 
L 425.852045 52.583491 
L 429.570439 53.500078 
L 431.429636 53.512006 
L 433.288833 52.6484 
L 437.007227 53.158867 
L 438.866424 52.812544 
L 440.725622 52.985466 
L 442.584819 51.885753 
L 444.444016 51.861298 
L 446.303213 52.148119 
L 448.16241 51.758028 
L 450.021607 52.161344 
L 453.740001 51.284613 
L 455.599198 51.176267 
L 457.458395 50.955335 
L 459.317592 50.897428 
L 461.176789 51.048198 
L 464.895183 50.784241 
L 466.75438 50.84016 
L 468.613577 50.776826 
L 470.472775 51.08667 
L 472.331972 51.64127 
L 474.191169 51.128144 
L 476.050366 51.682746 
L 477.909563 51.507211 
L 479.76876 52.520861 
L 481.627957 52.883978 
L 483.487154 52.941478 
L 485.346351 53.25684 
L 487.205548 53.2074 
L 489.064745 53.49453 
L 490.923942 54.005428 
L 494.642336 54.008243 
L 496.501533 54.060286 
L 500.219928 53.312477 
L 502.079125 52.603926 
L 503.938322 52.204447 
L 505.797519 51.95354 
L 507.656716 52.114444 
L 509.515913 51.491953 
L 511.37511 51.912672 
L 516.952701 50.963958 
L 518.811898 50.289169 
L 520.671095 50.227728 
L 522.530292 49.915639 
L 524.389489 49.384259 
L 526.248687 49.698373 
L 528.107884 49.055201 
L 529.967081 49.339149 
L 531.826278 49.926382 
L 533.685475 50.320414 
L 535.544672 51.08024 
L 537.403869 50.86932 
L 539.263066 52.401491 
L 546.699854 53.574812 
L 548.559051 53.550763 
L 550.418248 53.288788 
L 552.277445 54.239081 
L 554.136643 54.510674 
L 555.99584 55.513098 
L 557.855037 55.270227 
L 559.714234 55.931921 
L 561.573431 56.458297 
L 563.432628 55.876879 
L 565.291825 56.912256 
L 567.151022 56.670961 
L 569.010219 55.37905 
L 570.869416 54.308102 
L 572.728613 53.939453 
L 574.58781 53.948849 
L 578.306204 52.06562 
L 580.165401 51.85468 
L 582.024599 51.268023 
L 583.883796 51.399314 
L 585.742993 50.886224 
L 587.60219 50.939359 
L 589.461387 50.047974 
L 591.320584 49.38463 
L 593.179781 48.447277 
L 595.038978 48.876171 
L 598.757372 48.102357 
L 600.616569 47.983552 
L 602.475766 46.695702 
L 604.334963 45.802199 
L 608.053357 47.558847 
L 609.912555 47.017263 
L 611.771752 47.449251 
L 613.630949 47.533835 
L 615.490146 48.536858 
L 617.349343 48.128652 
L 619.20854 48.063041 
L 622.926934 48.76301 
L 626.645328 50.041916 
L 628.504525 50.118789 
L 630.363722 50.711757 
L 632.222919 50.336907 
L 634.082116 49.771201 
L 635.941313 50.374614 
L 637.800511 50.71088 
L 639.659708 51.858287 
L 641.518905 53.161267 
L 643.378102 53.33829 
L 645.237299 53.019935 
L 647.096496 53.869231 
L 648.955693 54.364954 
L 650.81489 54.69574 
L 652.674087 54.232433 
L 654.533284 55.015716 
L 656.392481 55.147267 
L 658.251678 54.612105 
L 660.110875 55.13995 
L 661.970072 53.855597 
L 663.829269 53.67351 
L 665.688467 53.841464 
L 674.984452 53.411279 
L 678.702846 51.983577 
L 680.562043 51.115571 
L 682.42124 51.121768 
L 684.280437 50.544694 
L 686.139634 49.207409 
L 687.998831 48.558316 
L 689.858028 49.07676 
L 691.717225 48.806424 
L 693.576423 49.448498 
L 695.43562 49.274134 
L 697.294817 48.83717 
L 699.154014 49.541507 
L 701.013211 48.964396 
L 702.872408 48.86667 
L 704.731605 48.530242 
L 706.590802 48.559484 
L 708.449999 49.203336 
L 710.309196 48.937316 
L 712.168393 49.017772 
L 714.02759 48.696262 
L 715.886787 49.042303 
L 717.745984 50.402182 
L 721.464378 51.269372 
L 723.323576 52.143121 
L 725.182773 52.198561 
L 727.04197 51.363411 
L 728.901167 51.094813 
L 730.760364 50.61066 
L 732.619561 51.0634 
L 734.478758 50.999579 
L 736.337955 51.316296 
L 740.056349 51.638612 
L 741.915546 52.029405 
L 743.774743 52.012336 
L 745.63394 51.549595 
L 747.493137 50.854434 
L 749.352334 50.6401 
L 751.211532 51.495047 
L 753.070729 51.750831 
L 754.929926 50.295828 
L 756.789123 50.023612 
L 758.64832 49.184763 
L 760.507517 48.670794 
L 762.366714 49.076924 
L 764.225911 49.859355 
L 766.085108 49.41477 
L 767.944305 49.560491 
L 769.803502 48.935427 
L 773.521896 48.772066 
L 777.24029 48.956968 
L 779.099488 48.037862 
L 780.958685 48.545465 
L 782.817882 48.811696 
L 784.677079 50.456932 
L 786.536276 50.593979 
L 788.395473 51.054839 
L 790.25467 50.889542 
L 792.113867 51.423 
L 793.973064 51.262605 
L 795.832261 51.690856 
L 797.691458 52.416634 
L 799.550655 52.262746 
L 801.409852 51.681112 
L 803.269049 52.266473 
L 805.128246 51.252687 
L 806.987444 51.752831 
L 808.846641 52.023654 
L 810.705838 51.518729 
L 812.565035 51.908364 
L 814.424232 51.993704 
L 816.283429 53.586062 
L 818.142626 53.693805 
L 820.001823 53.177176 
L 821.86102 51.785588 
L 823.720217 52.165385 
L 825.579414 50.342124 
L 827.438611 50.130575 
L 829.297808 50.587021 
L 831.157005 50.479263 
L 833.016202 51.206457 
L 834.8754 50.753875 
L 836.734597 50.519821 
L 838.593794 51.108208 
L 840.452991 50.658247 
L 842.312188 50.96854 
L 844.171385 50.929813 
L 846.030582 51.008688 
L 847.889779 51.934993 
L 851.608173 50.714254 
L 853.46737 49.316624 
L 855.326567 48.767201 
L 857.185764 49.791815 
L 859.044961 49.92448 
L 860.904158 49.682737 
L 862.763356 50.84651 
L 864.622553 51.021766 
L 866.48175 50.897 
L 868.340947 51.615803 
L 870.200144 50.5381 
L 872.059341 50.457475 
L 873.918538 50.908436 
L 875.777735 50.553589 
L 877.636932 52.067946 
L 879.496129 53.295753 
L 881.355326 53.356436 
L 885.07372 50.62224 
L 886.932917 51.424525 
L 888.792114 52.40898 
L 890.651312 53.240571 
L 892.510509 53.176705 
L 894.369706 52.027504 
L 896.228903 52.569517 
L 898.0881 51.817406 
L 899.947297 52.176906 
L 901.806494 51.678598 
L 903.665691 51.529461 
L 905.524888 50.328606 
L 907.384085 50.851511 
L 909.243282 50.892908 
L 911.102479 50.802341 
L 912.961676 50.95241 
L 914.820873 49.07634 
L 916.68007 48.749875 
L 918.539268 48.242596 
L 920.398465 50.17704 
L 922.257662 51.166943 
L 924.116859 50.874529 
L 927.835253 49.468932 
L 931.553647 50.95037 
L 933.412844 50.374477 
L 935.272041 51.319866 
L 937.131238 49.78849 
L 938.990435 50.676258 
L 940.849632 49.612171 
L 942.708829 50.723051 
L 944.568026 50.846654 
L 948.286421 49.914237 
L 950.145618 49.713574 
L 952.004815 50.731789 
L 953.864012 50.14432 
L 955.723209 50.454948 
L 957.582406 49.939409 
L 959.441603 49.216443 
L 961.3008 49.30522 
L 963.159997 48.766799 
L 965.019194 49.006031 
L 966.878391 48.190289 
L 968.737588 48.059111 
L 970.596785 48.896888 
L 972.455982 48.150306 
L 974.31518 49.589556 
L 976.174377 48.853558 
L 978.033574 50.724467 
L 981.751968 50.885371 
L 985.470362 53.044313 
L 987.329559 53.441985 
L 991.047953 53.539827 
L 992.90715 53.490815 
L 994.766347 52.434025 
L 996.625544 53.431765 
L 998.484741 52.932931 
L 1000.343938 53.937898 
L 1000.343938 53.937898 
" clip-path="url(#peb3f40f43e)" style="fill: none; stroke: #5dc694; stroke-width: 1.5; stroke-linecap: square"/>
   </g>
   <g id="patch_3">
    <path d="M 99.47 228.04 
L 99.47 17.28 
" style="fill: none; stroke: #000000; stroke-width: 0.8; stroke-linejoin: miter; stroke-linecap: square"/>
   </g>
   <g id="patch_4">
    <path d="M 1062.72 228.04 
L 1062.72 17.28 
" style="fill: none; stroke: #000000; stroke-width: 0.8; stroke-linejoin: miter; stroke-linecap: square"/>
   </g>
   <g id="patch_5">
    <path d="M 99.47 228.04 
L 1062.72 228.04 
" style="fill: none; stroke: #000000; stroke-width: 0.8; stroke-linejoin: miter; stroke-linecap: square"/>
   </g>
   <g id="patch_6">
    <path d="M 99.47 17.28 
L 1062.72 17.28 
" style="fill: none; stroke: #000000; stroke-width: 0.8; stroke-linejoin: miter; stroke-linecap: square"/>
   </g>
   <g id="legend_1">
    <g id="patch_7">
     <path d="M 854.2975 76.605 
L 1051.52 76.605 
Q 1054.72 76.605 1054.72 73.405 
L 1054.72 28.48 
Q 1054.72 25.28 1051.52 25.28 
L 854.2975 25.28 
Q 851.0975 25.28 851.0975 28.48 
L 851.0975 73.405 
Q 851.0975 76.605 854.2975 76.605 
z
" style="fill: #ffffff; opacity: 0.8; stroke: #cccccc; stroke-linejoin: miter"/>
    </g>
    <g id="line2d_13">
     <path d="M 857.4975 37.44 
L 873.4975 37.44 
L 889.4975 37.44 
" style="fill: none; stroke: #d2dbe0; stroke-width: 1.5; stroke-linecap: square"/>
    </g>
    <g id="text_13">
     <!-- 1st. Difference -->
     <g transform="translate(902.2975 43.04) scale(0.16 -0.16)">
      <use xlink:href="#Bahnschrift-31"/>
      <use xlink:href="#Bahnschrift-73" x="33.251953"/>
      <use xlink:href="#Bahnschrift-74" x="85.107422"/>
      <use xlink:href="#Bahnschrift-2e" x="117.724609"/>
      <use xlink:href="#Bahnschrift-20" x="140.380859"/>
      <use xlink:href="#Bahnschrift-44" x="167.236328"/>
      <use xlink:href="#Bahnschrift-69" x="232.861328"/>
      <use xlink:href="#Bahnschrift-66" x="257.958984"/>
      <use xlink:href="#Bahnschrift-66" x="289.648438"/>
      <use xlink:href="#Bahnschrift-65" x="321.337891"/>
      <use xlink:href="#Bahnschrift-72" x="374.951172"/>
      <use xlink:href="#Bahnschrift-65" x="417.626953"/>
      <use xlink:href="#Bahnschrift-6e" x="471.240234"/>
      <use xlink:href="#Bahnschrift-63" x="527.099609"/>
      <use xlink:href="#Bahnschrift-65" x="576.904297"/>
     </g>
    </g>
    <g id="line2d_14">
     <path d="M 857.4975 61.3075 
L 873.4975 61.3075 
L 889.4975 61.3075 
" style="fill: none; stroke: #5dc694; stroke-width: 1.5; stroke-linecap: square"/>
    </g>
    <g id="text_14">
     <!-- Rolling Average (20) -->
     <g transform="translate(902.2975 66.9075) scale(0.16 -0.16)">
      <defs>
       <path id="Bahnschrift-6c" d="M 1138 4544 
L 1138 838 
Q 1138 722 1189 656 
Q 1241 591 1334 591 
L 1634 591 
L 1634 -16 
L 1259 -16 
Q 900 -16 700 209 
Q 500 434 500 844 
L 500 4544 
L 1138 4544 
z
" transform="scale(0.015625)"/>
       <path id="Bahnschrift-67" d="M 1588 -1319 
Q 1222 -1319 933 -1183 
Q 644 -1047 484 -800 
L 484 -800 
L 916 -409 
L 916 -409 
Q 1041 -581 1214 -675 
Q 1388 -769 1578 -769 
Q 1944 -769 2144 -567 
Q 2344 -366 2344 3 
L 2344 3244 
L 2981 3244 
L 2981 97 
Q 2981 -578 2617 -948 
Q 2253 -1319 1588 -1319 
z
M 1528 -56 
Q 991 -56 698 289 
Q 406 634 406 1263 
L 406 1978 
Q 406 2609 692 2954 
Q 978 3300 1497 3300 
Q 1784 3300 2023 3150 
Q 2263 3000 2409 2728 
L 2344 2066 
Q 2344 2272 2269 2419 
Q 2194 2566 2051 2642 
Q 1909 2719 1706 2719 
Q 1391 2719 1217 2522 
Q 1044 2325 1044 1969 
L 1044 1263 
Q 1044 909 1217 717 
Q 1391 525 1706 525 
Q 1909 525 2051 604 
Q 2194 684 2269 834 
Q 2344 984 2344 1194 
L 2388 509 
Q 2300 291 2086 117 
Q 1872 -56 1528 -56 
z
" transform="scale(0.015625)"/>
       <path id="Bahnschrift-41" d="M 125 0 
L 1800 4544 
L 2344 4544 
L 4019 0 
L 3331 0 
L 2072 3666 
L 813 0 
L 125 0 
z
M 897 997 
L 897 1603 
L 3288 1603 
L 3288 997 
L 897 997 
z
" transform="scale(0.015625)"/>
       <path id="Bahnschrift-76" d="M 1616 928 
L 2409 3244 
L 3075 3244 
L 1856 0 
L 1375 0 
L 156 3244 
L 822 3244 
L 1616 928 
z
" transform="scale(0.015625)"/>
       <path id="Bahnschrift-28" d="M 1672 -978 
Q 1116 -375 839 373 
Q 563 1122 563 2025 
Q 563 2928 839 3676 
Q 1116 4425 1672 5028 
L 2109 4631 
Q 1638 4106 1403 3456 
Q 1169 2806 1169 2025 
Q 1169 1244 1403 594 
Q 1638 -56 2109 -584 
L 1672 -978 
z
" transform="scale(0.015625)"/>
       <path id="Bahnschrift-29" d="M 500 -978 
L 63 -584 
Q 534 -56 768 594 
Q 1003 1244 1003 2025 
Q 1003 2806 768 3456 
Q 534 4106 63 4631 
L 500 5028 
Q 1056 4425 1332 3676 
Q 1609 2928 1609 2025 
Q 1609 1122 1332 373 
Q 1056 -375 500 -978 
z
" transform="scale(0.015625)"/>
      </defs>
      <use xlink:href="#Bahnschrift-52"/>
      <use xlink:href="#Bahnschrift-6f" x="65.185547"/>
      <use xlink:href="#Bahnschrift-6c" x="119.677734"/>
      <use xlink:href="#Bahnschrift-6c" x="148.632812"/>
      <use xlink:href="#Bahnschrift-69" x="177.587891"/>
      <use xlink:href="#Bahnschrift-6e" x="202.685547"/>
      <use xlink:href="#Bahnschrift-67" x="258.544922"/>
      <use xlink:href="#Bahnschrift-20" x="312.451172"/>
      <use xlink:href="#Bahnschrift-41" x="339.306641"/>
      <use xlink:href="#Bahnschrift-76" x="404.052734"/>
      <use xlink:href="#Bahnschrift-65" x="454.052734"/>
      <use xlink:href="#Bahnschrift-72" x="507.666016"/>
      <use xlink:href="#Bahnschrift-61" x="550.341797"/>
      <use xlink:href="#Bahnschrift-67" x="603.564453"/>
      <use xlink:href="#Bahnschrift-65" x="657.470703"/>
      <use xlink:href="#Bahnschrift-20" x="711.083984"/>
      <use xlink:href="#Bahnschrift-28" x="737.939453"/>
      <use xlink:href="#Bahnschrift-32" x="771.875"/>
      <use xlink:href="#Bahnschrift-30" x="823.535156"/>
      <use xlink:href="#Bahnschrift-29" x="878.710938"/>
     </g>
    </g>
   </g>
  </g>
 </g>
 <defs>
  <clipPath id="peb3f40f43e">
   <rect x="99.47" y="17.28" width="963.25" height="210.76"/>
  </clipPath>
 </defs>
</svg>
