<?xml version="1.0" encoding="utf-8" standalone="no"?>
<!DOCTYPE svg PUBLIC "-//W3C//DTD SVG 1.1//EN"
  "http://www.w3.org/Graphics/SVG/1.1/DTD/svg11.dtd">
<svg xmlns:xlink="http://www.w3.org/1999/xlink" width="1080pt" height="288pt" viewBox="0 0 1080 288" xmlns="http://www.w3.org/2000/svg" version="1.1">
 <metadata>
  <rdf:RDF xmlns:dc="http://purl.org/dc/elements/1.1/" xmlns:cc="http://creativecommons.org/ns#" xmlns:rdf="http://www.w3.org/1999/02/22-rdf-syntax-ns#">
   <cc:Work>
    <dc:type rdf:resource="http://purl.org/dc/dcmitype/StillImage"/>
    <dc:date>2024-05-29T19:41:01.551302</dc:date>
    <dc:format>image/svg+xml</dc:format>
    <dc:creator>
     <cc:Agent>
      <dc:title>Matplotlib v3.8.2, https://matplotlib.org/</dc:title>
     </cc:Agent>
    </dc:creator>
   </cc:Work>
  </rdf:RDF>
 </metadata>
 <defs>
  <style type="text/css">*{stroke-linejoin: round; stroke-linecap: butt}</style>
 </defs>
 <g id="figure_1">
  <g id="patch_1">
   <path d="M 0 288 
L 1080 288 
L 1080 0 
L 0 0 
z
" style="fill: #ffffff"/>
  </g>
  <g id="axes_1">
   <g id="patch_2">
    <path d="M 99.02 228.04 
L 1062.72 228.04 
L 1062.72 17.28 
L 99.02 17.28 
z
" style="fill: #ffffff"/>
   </g>
   <g id="matplotlib.axis_1">
    <g id="xtick_1">
     <g id="line2d_1">
      <defs>
       <path id="m38c4e716ea" d="M 0 0 
L 0 3.5 
" style="stroke: #000000; stroke-width: 0.8"/>
      </defs>
      <g>
       <use xlink:href="#m38c4e716ea" x="275.853534" y="228.04" style="stroke: #000000; stroke-width: 0.8"/>
      </g>
     </g>
     <g id="text_1">
      <!-- 0.1 -->
      <g transform="translate(266.967284 246.4) scale(0.16 -0.16)">
       <defs>
        <path id="Bahnschrift-30" d="M 1766 -47 
Q 1116 -47 792 301 
Q 469 650 469 1244 
L 469 3309 
Q 469 3913 797 4256 
Q 1125 4600 1766 4600 
Q 2409 4600 2736 4258 
Q 3063 3916 3063 3309 
L 3063 1244 
Q 3063 641 2736 297 
Q 2409 -47 1766 -47 
z
M 1766 559 
Q 2116 559 2270 742 
Q 2425 925 2425 1244 
L 2425 3309 
Q 2425 3631 2270 3812 
Q 2116 3994 1766 3994 
Q 1416 3994 1261 3812 
Q 1106 3631 1106 3309 
L 1106 1244 
Q 1106 925 1261 742 
Q 1416 559 1766 559 
z
" transform="scale(0.015625)"/>
        <path id="Bahnschrift-2e" d="M 391 0 
L 391 669 
L 1059 669 
L 1059 0 
L 391 0 
z
" transform="scale(0.015625)"/>
        <path id="Bahnschrift-31" d="M 1566 4544 
L 1566 0 
L 928 0 
L 928 3850 
L 281 3453 
L 281 4113 
L 928 4544 
L 1566 4544 
z
" transform="scale(0.015625)"/>
       </defs>
       <use xlink:href="#Bahnschrift-30"/>
       <use xlink:href="#Bahnschrift-2e" x="55.175781"/>
       <use xlink:href="#Bahnschrift-31" x="77.832031"/>
      </g>
     </g>
    </g>
    <g id="xtick_2">
     <g id="line2d_2">
      <g>
       <use xlink:href="#m38c4e716ea" x="465.894946" y="228.04" style="stroke: #000000; stroke-width: 0.8"/>
      </g>
     </g>
     <g id="text_2">
      <!-- 0.2 -->
      <g transform="translate(455.536196 246.4) scale(0.16 -0.16)">
       <defs>
        <path id="Bahnschrift-32" d="M 400 0 
L 400 553 
L 1984 2666 
Q 2122 2847 2198 3040 
Q 2275 3234 2275 3406 
L 2275 3413 
Q 2275 3684 2115 3834 
Q 1956 3984 1663 3984 
Q 1388 3984 1214 3820 
Q 1041 3656 1003 3356 
L 1003 3353 
L 344 3353 
L 344 3356 
Q 428 3944 772 4267 
Q 1116 4591 1656 4591 
Q 2269 4591 2603 4281 
Q 2938 3972 2938 3406 
L 2938 3403 
Q 2938 3163 2838 2898 
Q 2738 2634 2559 2394 
L 1244 606 
L 2963 606 
L 2963 0 
L 400 0 
z
" transform="scale(0.015625)"/>
       </defs>
       <use xlink:href="#Bahnschrift-30"/>
       <use xlink:href="#Bahnschrift-2e" x="55.175781"/>
       <use xlink:href="#Bahnschrift-32" x="77.832031"/>
      </g>
     </g>
    </g>
    <g id="xtick_3">
     <g id="line2d_3">
      <g>
       <use xlink:href="#m38c4e716ea" x="655.936358" y="228.04" style="stroke: #000000; stroke-width: 0.8"/>
      </g>
     </g>
     <g id="text_3">
      <!-- 0.3 -->
      <g transform="translate(645.480108 246.4) scale(0.16 -0.16)">
       <defs>
        <path id="Bahnschrift-33" d="M 1644 -47 
Q 1259 -47 970 92 
Q 681 231 506 493 
Q 331 756 281 1131 
L 281 1131 
L 931 1131 
L 931 1131 
Q 975 838 1162 702 
Q 1350 566 1644 566 
Q 1959 566 2134 734 
Q 2309 903 2309 1209 
L 2309 1347 
Q 2309 1688 2143 1873 
Q 1978 2059 1675 2059 
L 1353 2059 
L 1353 2666 
L 1675 2666 
Q 1944 2666 2089 2825 
Q 2234 2984 2234 3275 
L 2234 3416 
Q 2234 3684 2079 3831 
Q 1925 3978 1641 3978 
Q 1400 3978 1233 3842 
Q 1066 3706 1003 3413 
L 1003 3413 
L 356 3413 
L 356 3413 
Q 453 3975 789 4283 
Q 1125 4591 1641 4591 
Q 2228 4591 2550 4281 
Q 2872 3972 2872 3409 
L 2872 3334 
Q 2872 2994 2687 2742 
Q 2503 2491 2166 2372 
Q 2538 2294 2742 2008 
Q 2947 1722 2947 1281 
L 2947 1206 
Q 2947 609 2606 281 
Q 2266 -47 1644 -47 
z
" transform="scale(0.015625)"/>
       </defs>
       <use xlink:href="#Bahnschrift-30"/>
       <use xlink:href="#Bahnschrift-2e" x="55.175781"/>
       <use xlink:href="#Bahnschrift-33" x="77.832031"/>
      </g>
     </g>
    </g>
    <g id="xtick_4">
     <g id="line2d_4">
      <g>
       <use xlink:href="#m38c4e716ea" x="845.97777" y="228.04" style="stroke: #000000; stroke-width: 0.8"/>
      </g>
     </g>
     <g id="text_4">
      <!-- 0.4 -->
      <g transform="translate(835.20027 246.4) scale(0.16 -0.16)">
       <defs>
        <path id="Bahnschrift-34" d="M 406 697 
L 406 1250 
L 1931 4541 
L 2588 4541 
L 1100 1288 
L 3328 1288 
L 3328 697 
L 406 697 
z
M 2366 -3 
L 2366 2672 
L 2988 2672 
L 2988 -3 
L 2366 -3 
z
" transform="scale(0.015625)"/>
       </defs>
       <use xlink:href="#Bahnschrift-30"/>
       <use xlink:href="#Bahnschrift-2e" x="55.175781"/>
       <use xlink:href="#Bahnschrift-34" x="77.832031"/>
      </g>
     </g>
    </g>
    <g id="xtick_5">
     <g id="line2d_5">
      <g>
       <use xlink:href="#m38c4e716ea" x="1036.019182" y="228.04" style="stroke: #000000; stroke-width: 0.8"/>
      </g>
     </g>
     <g id="text_5">
      <!-- 0.5 -->
      <g transform="translate(1025.437932 246.4) scale(0.16 -0.16)">
       <defs>
        <path id="Bahnschrift-35" d="M 1738 -47 
Q 1219 -47 886 251 
Q 553 550 469 1094 
L 469 1097 
L 1106 1097 
L 1106 1094 
Q 1141 844 1306 705 
Q 1472 566 1738 566 
Q 2044 566 2211 770 
Q 2378 975 2378 1347 
L 2378 1728 
Q 2378 2100 2211 2303 
Q 2044 2506 1738 2506 
Q 1572 2506 1419 2412 
Q 1266 2319 1150 2150 
L 569 2150 
L 569 4544 
L 2884 4544 
L 2884 3938 
L 1206 3938 
L 1206 2916 
Q 1325 3013 1472 3066 
Q 1619 3119 1772 3119 
Q 2366 3119 2691 2755 
Q 3016 2391 3016 1728 
L 3016 1347 
Q 3016 681 2681 317 
Q 2347 -47 1738 -47 
z
" transform="scale(0.015625)"/>
       </defs>
       <use xlink:href="#Bahnschrift-30"/>
       <use xlink:href="#Bahnschrift-2e" x="55.175781"/>
       <use xlink:href="#Bahnschrift-35" x="77.832031"/>
      </g>
     </g>
    </g>
    <g id="text_6">
     <!-- Rho -->
     <g transform="translate(566.82625 265.0575) scale(0.16 -0.16)">
      <defs>
       <path id="Bahnschrift-52" d="M 841 1922 
L 841 2528 
L 2391 2528 
Q 2669 2528 2837 2722 
Q 3006 2916 3006 3234 
L 3006 3234 
Q 3006 3553 2837 3747 
Q 2669 3941 2391 3941 
L 841 3941 
L 841 4547 
L 2366 4547 
Q 2763 4547 3059 4383 
Q 3356 4219 3520 3925 
Q 3684 3631 3684 3234 
L 3684 3234 
Q 3684 2841 3518 2545 
Q 3353 2250 3058 2086 
Q 2763 1922 2366 1922 
L 841 1922 
z
M 563 0 
L 563 4547 
L 1200 4547 
L 1200 0 
L 563 0 
z
M 3119 0 
L 2078 2063 
L 2713 2206 
L 3875 0 
L 3119 0 
z
" transform="scale(0.015625)"/>
       <path id="Bahnschrift-68" d="M 500 0 
L 500 4544 
L 1138 4544 
L 1138 0 
L 500 0 
z
M 2469 0 
L 2469 1966 
Q 2469 2309 2292 2496 
Q 2116 2684 1791 2684 
Q 1478 2684 1308 2521 
Q 1138 2359 1138 2063 
L 1072 2688 
Q 1222 2975 1464 3133 
Q 1706 3291 2000 3291 
Q 2528 3291 2817 2945 
Q 3106 2600 3106 1969 
L 3106 0 
L 2469 0 
z
" transform="scale(0.015625)"/>
       <path id="Bahnschrift-6f" d="M 1744 -47 
Q 1106 -47 756 323 
Q 406 694 406 1366 
L 406 1894 
Q 406 2559 756 2925 
Q 1106 3291 1744 3291 
Q 2381 3291 2731 2925 
Q 3081 2559 3081 1894 
L 3081 1356 
Q 3081 688 2731 320 
Q 2381 -47 1744 -47 
z
M 1744 559 
Q 2078 559 2261 768 
Q 2444 978 2444 1356 
L 2444 1894 
Q 2444 2272 2261 2478 
Q 2078 2684 1744 2684 
Q 1413 2684 1228 2478 
Q 1044 2272 1044 1894 
L 1044 1356 
Q 1044 978 1228 768 
Q 1413 559 1744 559 
z
" transform="scale(0.015625)"/>
      </defs>
      <use xlink:href="#Bahnschrift-52"/>
      <use xlink:href="#Bahnschrift-68" x="65.185547"/>
      <use xlink:href="#Bahnschrift-6f" x="121.044922"/>
     </g>
    </g>
   </g>
   <g id="matplotlib.axis_2">
    <g id="ytick_1">
     <g id="line2d_6">
      <defs>
       <path id="mb6fba9f7ad" d="M 0 0 
L -3.5 0 
" style="stroke: #000000; stroke-width: 0.8"/>
      </defs>
      <g>
       <use xlink:href="#mb6fba9f7ad" x="99.02" y="189.565497" style="stroke: #000000; stroke-width: 0.8"/>
      </g>
     </g>
     <g id="text_7">
      <!-- -0.0002 -->
      <g transform="translate(37.1475 195.245497) scale(0.16 -0.16)">
       <defs>
        <path id="Bahnschrift-2d" d="M 500 1931 
L 2600 1931 
L 2600 1325 
L 500 1325 
L 500 1931 
z
" transform="scale(0.015625)"/>
       </defs>
       <use xlink:href="#Bahnschrift-2d"/>
       <use xlink:href="#Bahnschrift-30" x="47.949219"/>
       <use xlink:href="#Bahnschrift-2e" x="103.125"/>
       <use xlink:href="#Bahnschrift-30" x="125.78125"/>
       <use xlink:href="#Bahnschrift-30" x="180.957031"/>
       <use xlink:href="#Bahnschrift-30" x="236.132812"/>
       <use xlink:href="#Bahnschrift-32" x="291.308594"/>
      </g>
     </g>
    </g>
    <g id="ytick_2">
     <g id="line2d_7">
      <g>
       <use xlink:href="#mb6fba9f7ad" x="99.02" y="121.584029" style="stroke: #000000; stroke-width: 0.8"/>
      </g>
     </g>
     <g id="text_8">
      <!-- 0.0000 -->
      <g transform="translate(44.2575 127.264029) scale(0.16 -0.16)">
       <use xlink:href="#Bahnschrift-30"/>
       <use xlink:href="#Bahnschrift-2e" x="55.175781"/>
       <use xlink:href="#Bahnschrift-30" x="77.832031"/>
       <use xlink:href="#Bahnschrift-30" x="133.007812"/>
       <use xlink:href="#Bahnschrift-30" x="188.183594"/>
       <use xlink:href="#Bahnschrift-30" x="243.359375"/>
      </g>
     </g>
    </g>
    <g id="ytick_3">
     <g id="line2d_8">
      <g>
       <use xlink:href="#mb6fba9f7ad" x="99.02" y="53.602561" style="stroke: #000000; stroke-width: 0.8"/>
      </g>
     </g>
     <g id="text_9">
      <!-- 0.0002 -->
      <g transform="translate(44.82 59.282561) scale(0.16 -0.16)">
       <use xlink:href="#Bahnschrift-30"/>
       <use xlink:href="#Bahnschrift-2e" x="55.175781"/>
       <use xlink:href="#Bahnschrift-30" x="77.832031"/>
       <use xlink:href="#Bahnschrift-30" x="133.007812"/>
       <use xlink:href="#Bahnschrift-30" x="188.183594"/>
       <use xlink:href="#Bahnschrift-32" x="243.359375"/>
      </g>
     </g>
    </g>
    <g id="text_10">
     <!-- 2nd. Difference, mean: 0.00000 -->
     <g transform="translate(29.85 232.68) rotate(-90) scale(0.16 -0.16)">
      <defs>
       <path id="Bahnschrift-6e" d="M 500 0 
L 500 3244 
L 1138 3244 
L 1138 0 
L 500 0 
z
M 2469 0 
L 2469 1966 
Q 2469 2309 2292 2496 
Q 2116 2684 1791 2684 
Q 1478 2684 1308 2518 
Q 1138 2353 1138 2053 
L 1072 2678 
Q 1222 2972 1464 3131 
Q 1706 3291 2000 3291 
Q 2528 3291 2817 2945 
Q 3106 2600 3106 1969 
L 3106 0 
L 2469 0 
z
" transform="scale(0.015625)"/>
       <path id="Bahnschrift-64" d="M 2344 0 
L 2344 4544 
L 2981 4544 
L 2981 0 
L 2344 0 
z
M 1528 -56 
Q 991 -56 698 289 
Q 406 634 406 1263 
L 406 1978 
Q 406 2609 692 2954 
Q 978 3300 1497 3300 
Q 1784 3300 2023 3150 
Q 2263 3000 2409 2728 
L 2344 2066 
Q 2344 2272 2269 2419 
Q 2194 2566 2051 2642 
Q 1909 2719 1706 2719 
Q 1391 2719 1217 2522 
Q 1044 2325 1044 1969 
L 1044 1263 
Q 1044 909 1217 717 
Q 1391 525 1706 525 
Q 1909 525 2051 604 
Q 2194 684 2269 834 
Q 2344 984 2344 1194 
L 2388 509 
Q 2300 291 2086 117 
Q 1872 -56 1528 -56 
z
" transform="scale(0.015625)"/>
       <path id="Bahnschrift-20" transform="scale(0.015625)"/>
       <path id="Bahnschrift-44" d="M 994 0 
L 994 606 
L 2022 606 
Q 2525 606 2801 867 
Q 3078 1128 3078 1603 
L 3078 2941 
Q 3078 3416 2801 3677 
Q 2525 3938 2022 3938 
L 994 3938 
L 994 4544 
L 2003 4544 
Q 2828 4544 3279 4117 
Q 3731 3691 3731 2916 
L 3731 1628 
Q 3731 1113 3528 748 
Q 3325 384 2937 192 
Q 2550 0 2000 0 
L 994 0 
z
M 563 0 
L 563 4544 
L 1200 4544 
L 1200 0 
L 563 0 
z
" transform="scale(0.015625)"/>
       <path id="Bahnschrift-69" d="M 500 3906 
L 500 4544 
L 1138 4544 
L 1138 3906 
L 500 3906 
z
M 500 0 
L 500 3244 
L 1138 3244 
L 1138 0 
L 500 0 
z
" transform="scale(0.015625)"/>
       <path id="Bahnschrift-66" d="M 594 0 
L 594 3684 
Q 594 4113 791 4328 
Q 988 4544 1403 4544 
L 1872 4544 
L 1872 3938 
L 1416 3938 
Q 1319 3938 1275 3864 
Q 1231 3791 1231 3691 
L 1231 0 
L 594 0 
z
M 250 2700 
L 250 3244 
L 1872 3244 
L 1872 2700 
L 250 2700 
z
" transform="scale(0.015625)"/>
       <path id="Bahnschrift-65" d="M 1828 -47 
Q 1150 -47 778 331 
Q 406 709 406 1406 
L 406 1772 
Q 406 2497 764 2894 
Q 1122 3291 1772 3291 
Q 2384 3291 2720 2841 
Q 3056 2391 3056 1578 
L 3056 1366 
L 869 1366 
L 869 1878 
L 2450 1878 
L 2450 1878 
Q 2422 2272 2245 2494 
Q 2069 2716 1772 2716 
Q 1413 2716 1213 2478 
Q 1013 2241 1013 1806 
L 1013 1394 
Q 1013 991 1227 775 
Q 1441 559 1828 559 
Q 2022 559 2212 637 
Q 2403 716 2553 856 
L 2553 856 
L 2972 438 
L 2972 438 
Q 2731 206 2431 79 
Q 2131 -47 1828 -47 
z
" transform="scale(0.015625)"/>
       <path id="Bahnschrift-72" d="M 500 0 
L 500 3244 
L 1138 3244 
L 1138 0 
L 500 0 
z
M 2284 2475 
Q 2200 2578 2072 2631 
Q 1944 2684 1775 2684 
Q 1472 2684 1305 2517 
Q 1138 2350 1138 2053 
L 1072 2678 
Q 1219 2966 1458 3128 
Q 1697 3291 1984 3291 
Q 2206 3291 2386 3227 
Q 2566 3163 2700 3038 
L 2284 2475 
z
" transform="scale(0.015625)"/>
       <path id="Bahnschrift-63" d="M 1809 -47 
Q 1141 -47 773 322 
Q 406 691 406 1363 
L 406 1897 
Q 406 2563 773 2927 
Q 1141 3291 1809 3291 
Q 2191 3291 2497 3156 
Q 2803 3022 2984 2772 
L 2984 2772 
L 2525 2359 
L 2525 2359 
Q 2391 2516 2206 2600 
Q 2022 2684 1819 2684 
Q 1450 2684 1247 2478 
Q 1044 2272 1044 1897 
L 1044 1363 
Q 1044 978 1247 768 
Q 1450 559 1819 559 
Q 2022 559 2206 650 
Q 2391 741 2525 906 
L 2525 906 
L 2984 463 
L 2984 463 
Q 2803 219 2495 86 
Q 2188 -47 1809 -47 
z
" transform="scale(0.015625)"/>
       <path id="Bahnschrift-2c" d="M 391 -1038 
L 391 669 
L 1059 669 
L 1059 -344 
L 391 -1038 
z
" transform="scale(0.015625)"/>
       <path id="Bahnschrift-6d" d="M 4375 0 
L 4375 1966 
Q 4375 2309 4198 2496 
Q 4022 2684 3697 2684 
Q 3400 2684 3237 2503 
Q 3075 2322 3075 1991 
L 2947 2616 
Q 3103 2941 3353 3116 
Q 3603 3291 3906 3291 
Q 4434 3291 4723 2945 
Q 5013 2600 5013 1969 
L 5013 0 
L 4375 0 
z
M 500 0 
L 500 3244 
L 1138 3244 
L 1138 0 
L 500 0 
z
M 2438 0 
L 2438 1966 
Q 2438 2309 2269 2496 
Q 2100 2684 1791 2684 
Q 1478 2684 1308 2518 
Q 1138 2353 1138 2053 
L 1072 2678 
Q 1222 2972 1464 3131 
Q 1706 3291 2000 3291 
Q 2513 3291 2794 2945 
Q 3075 2600 3075 1969 
L 3075 0 
L 2438 0 
z
" transform="scale(0.015625)"/>
       <path id="Bahnschrift-61" d="M 2331 0 
L 2331 2056 
Q 2331 2375 2161 2551 
Q 1991 2728 1678 2728 
Q 1488 2728 1302 2670 
Q 1116 2613 969 2503 
L 503 2822 
Q 688 3044 989 3167 
Q 1291 3291 1659 3291 
Q 2269 3291 2603 2975 
Q 2938 2659 2938 2084 
L 2938 0 
L 2331 0 
z
M 1538 -47 
Q 941 -47 642 200 
Q 344 447 344 956 
Q 344 1441 617 1680 
Q 891 1919 1438 1919 
L 2359 1919 
L 2403 1406 
L 1441 1406 
Q 1194 1406 1069 1295 
Q 944 1184 944 956 
Q 944 709 1109 590 
Q 1275 472 1606 472 
Q 1969 472 2150 550 
Q 2331 628 2331 794 
L 2397 338 
Q 2313 206 2188 122 
Q 2063 38 1902 -4 
Q 1741 -47 1538 -47 
z
" transform="scale(0.015625)"/>
       <path id="Bahnschrift-3a" d="M 391 0 
L 391 669 
L 1059 669 
L 1059 0 
L 391 0 
z
M 391 2606 
L 391 3275 
L 1059 3275 
L 1059 2606 
L 391 2606 
z
" transform="scale(0.015625)"/>
      </defs>
      <use xlink:href="#Bahnschrift-32"/>
      <use xlink:href="#Bahnschrift-6e" x="51.660156"/>
      <use xlink:href="#Bahnschrift-64" x="107.519531"/>
      <use xlink:href="#Bahnschrift-2e" x="161.425781"/>
      <use xlink:href="#Bahnschrift-20" x="184.082031"/>
      <use xlink:href="#Bahnschrift-44" x="210.9375"/>
      <use xlink:href="#Bahnschrift-69" x="276.5625"/>
      <use xlink:href="#Bahnschrift-66" x="301.660156"/>
      <use xlink:href="#Bahnschrift-66" x="333.349609"/>
      <use xlink:href="#Bahnschrift-65" x="365.039062"/>
      <use xlink:href="#Bahnschrift-72" x="418.652344"/>
      <use xlink:href="#Bahnschrift-65" x="461.328125"/>
      <use xlink:href="#Bahnschrift-6e" x="514.941406"/>
      <use xlink:href="#Bahnschrift-63" x="570.800781"/>
      <use xlink:href="#Bahnschrift-65" x="620.605469"/>
      <use xlink:href="#Bahnschrift-2c" x="674.21875"/>
      <use xlink:href="#Bahnschrift-20" x="696.875"/>
      <use xlink:href="#Bahnschrift-6d" x="723.730469"/>
      <use xlink:href="#Bahnschrift-65" x="809.375"/>
      <use xlink:href="#Bahnschrift-61" x="862.988281"/>
      <use xlink:href="#Bahnschrift-6e" x="916.210938"/>
      <use xlink:href="#Bahnschrift-3a" x="972.070312"/>
      <use xlink:href="#Bahnschrift-20" x="994.726562"/>
      <use xlink:href="#Bahnschrift-30" x="1021.582031"/>
      <use xlink:href="#Bahnschrift-2e" x="1076.757812"/>
      <use xlink:href="#Bahnschrift-30" x="1099.414062"/>
      <use xlink:href="#Bahnschrift-30" x="1154.589844"/>
      <use xlink:href="#Bahnschrift-30" x="1209.765625"/>
      <use xlink:href="#Bahnschrift-30" x="1264.941406"/>
      <use xlink:href="#Bahnschrift-30" x="1320.117188"/>
     </g>
    </g>
   </g>
   <g id="line2d_9">
    <path d="M 142.824545 104.524697 
L 144.72496 125.300898 
L 146.625374 102.56328 
L 148.525788 112.524583 
L 150.426202 117.073249 
L 152.326616 107.013442 
L 154.22703 121.102812 
L 156.127444 119.309027 
L 158.027858 100.491649 
L 159.928273 127.840456 
L 161.828687 93.5775 
L 163.729101 130.180087 
L 165.629515 147.353483 
L 167.529929 85.267189 
L 169.430343 136.160207 
L 171.330757 105.678021 
L 173.231171 118.828864 
L 175.131585 129.424144 
L 177.032 102.902758 
L 178.932414 106.050927 
L 180.832828 116.768011 
L 182.733242 118.069071 
L 184.633656 105.955462 
L 186.53407 150.378472 
L 188.434484 112.569925 
L 190.334898 127.906017 
L 192.235313 105.093883 
L 194.135727 112.70279 
L 196.036141 124.820411 
L 197.936555 125.223343 
L 199.836969 120.981211 
L 201.737383 104.138905 
L 203.637797 128.367015 
L 205.538211 144.381819 
L 207.438626 102.644158 
L 209.33904 132.300667 
L 211.239454 111.196212 
L 213.139868 126.132412 
L 215.040282 123.405084 
L 216.940696 135.346442 
L 218.84111 92.177611 
L 220.741524 137.685749 
L 222.641938 129.271424 
L 224.542353 112.401361 
L 226.442767 115.288216 
L 228.343181 111.115698 
L 230.243595 133.824142 
L 232.144009 111.051474 
L 234.044423 138.327466 
L 235.944837 116.295506 
L 237.845251 115.876406 
L 239.745666 139.016389 
L 241.64608 105.993186 
L 243.546494 115.595359 
L 245.446908 114.956235 
L 247.347322 128.093058 
L 249.247736 137.702443 
L 251.14815 111.866455 
L 253.048564 121.872492 
L 254.948979 99.507902 
L 256.849393 148.970317 
L 258.749807 77.811651 
L 260.650221 157.519574 
L 262.550635 102.915441 
L 264.451049 129.972584 
L 266.351463 119.147433 
L 268.251877 130.777273 
L 270.152291 121.026999 
L 272.052706 115.564604 
L 273.95312 118.450001 
L 275.853534 136.407096 
L 277.753948 99.824648 
L 279.654362 130.940244 
L 281.554776 110.370817 
L 283.45519 125.498434 
L 285.355604 105.199276 
L 287.256019 134.464441 
L 289.156433 109.168302 
L 291.056847 120.132923 
L 292.957261 138.248573 
L 294.857675 135.281731 
L 296.758089 134.489239 
L 298.658503 91.165905 
L 300.558917 129.095566 
L 302.459331 119.522001 
L 304.359746 129.822092 
L 306.26016 110.514664 
L 308.160574 115.447379 
L 310.060988 149.486462 
L 311.961402 91.045033 
L 313.861816 143.189231 
L 315.76223 133.221284 
L 317.662644 87.082247 
L 319.563059 134.362492 
L 321.463473 89.288527 
L 323.363887 172.149928 
L 325.264301 69.745393 
L 327.164715 189.463483 
L 329.065129 78.953751 
L 330.965543 131.776742 
L 332.865957 113.31432 
L 334.766372 101.389696 
L 336.666786 146.757797 
L 338.5672 119.971693 
L 340.467614 116.718374 
L 342.368028 126.929726 
L 344.268442 107.141405 
L 346.168856 139.009946 
L 348.06927 113.014471 
L 349.969684 137.349837 
L 351.870099 96.552811 
L 353.770513 126.837218 
L 355.670927 131.758589 
L 357.571341 138.122272 
L 359.471755 151.028374 
L 361.372169 69.809172 
L 363.272583 138.011814 
L 365.172997 112.665147 
L 367.073412 136.771777 
L 368.973826 97.384243 
L 370.87424 128.330222 
L 372.774654 135.263092 
L 374.675068 113.185182 
L 376.575482 121.13458 
L 378.475896 122.875891 
L 380.37631 119.008895 
L 382.276725 110.768238 
L 384.177139 131.661097 
L 386.077553 107.968056 
L 387.977967 134.465049 
L 389.878381 109.339297 
L 391.778795 129.22053 
L 393.679209 105.402363 
L 395.579623 119.883116 
L 397.480037 119.118704 
L 399.380452 149.252945 
L 401.280866 146.057042 
L 403.18128 62.243054 
L 405.081694 144.84695 
L 406.982108 136.655647 
L 408.882522 109.049416 
L 410.782936 151.491843 
L 412.68335 85.120425 
L 414.583765 116.858371 
L 416.484179 145.514559 
L 418.384593 97.725868 
L 420.285007 151.271495 
L 422.185421 114.55306 
L 424.085835 119.421146 
L 425.986249 119.485371 
L 427.886663 118.495991 
L 429.787077 112.205487 
L 431.687492 159.168621 
L 433.587906 99.342742 
L 435.48832 126.228647 
L 437.388734 116.719225 
L 439.289148 89.215996 
L 441.189562 132.941857 
L 443.089976 148.722982 
L 444.99039 95.663637 
L 446.890805 142.759678 
L 448.791219 68.87028 
L 450.691633 154.927948 
L 452.592047 137.066845 
L 454.492461 101.56839 
L 456.392875 149.235075 
L 458.293289 96.666794 
L 460.193703 114.47591 
L 462.094118 140.885136 
L 463.994532 112.176069 
L 465.894946 129.079885 
L 467.79536 125.753062 
L 469.695774 138.437965 
L 471.596188 104.091172 
L 473.496602 136.052991 
L 475.397016 108.977168 
L 477.29743 113.443336 
L 479.197845 148.831698 
L 481.098259 79.404618 
L 482.998673 164.982204 
L 484.899087 95.357994 
L 486.799501 146.074101 
L 488.699915 112.69424 
L 490.600329 117.225767 
L 492.500743 118.309234 
L 494.401158 125.551515 
L 496.301572 118.517386 
L 498.201986 129.003383 
L 500.1024 104.367763 
L 502.002814 119.056871 
L 503.903228 128.9268 
L 505.803642 98.473221 
L 507.704056 137.691381 
L 509.604471 82.738653 
L 511.504885 156.118429 
L 513.405299 118.622738 
L 515.305713 140.178709 
L 517.206127 97.972473 
L 519.106541 147.131474 
L 521.006955 117.387726 
L 522.907369 92.554164 
L 524.807783 150.931895 
L 526.708198 87.112637 
L 528.608612 157.045286 
L 530.509026 102.036803 
L 532.40944 111.314774 
L 534.309854 173.408159 
L 536.210268 66.85485 
L 538.110682 164.557918 
L 540.011096 138.746566 
L 541.911511 116.38388 
L 543.811925 122.221167 
L 545.712339 74.669032 
L 547.612753 195.902818 
L 549.513167 75.98545 
L 551.413581 124.941606 
L 553.313995 131.912038 
L 555.214409 94.371289 
L 557.114824 131.781239 
L 559.015238 101.941175 
L 560.915652 171.25646 
L 562.816066 106.869717 
L 564.71648 134.559258 
L 566.616894 76.198788 
L 568.517308 160.762642 
L 570.417722 102.529689 
L 572.318136 101.488403 
L 574.218551 171.81977 
L 576.118965 81.674311 
L 578.019379 70.538979 
L 579.919793 130.729094 
L 581.820207 167.815573 
L 583.720621 99.212308 
L 585.621035 131.044989 
L 587.521449 82.218821 
L 589.421864 169.261533 
L 591.322278 107.519822 
L 593.222692 140.981655 
L 595.123106 89.946938 
L 597.02352 138.701467 
L 598.923934 109.936685 
L 600.824348 121.674551 
L 602.724762 116.770159 
L 604.625176 164.897638 
L 606.525591 110.827681 
L 608.426005 96.473472 
L 610.326419 121.922129 
L 612.226833 95.923533 
L 614.127247 107.275972 
L 616.027661 187.745066 
L 617.928075 126.376383 
L 619.828489 77.809301 
L 621.728904 162.418172 
L 623.629318 108.490887 
L 625.529732 141.845382 
L 627.430146 77.642317 
L 629.33056 129.761636 
L 631.230974 169.704945 
L 633.131388 86.462492 
L 635.031802 158.562927 
L 636.932217 111.283776 
L 638.832631 84.477452 
L 640.733045 150.275834 
L 642.633459 102.065369 
L 644.533873 98.436996 
L 646.434287 172.374531 
L 648.334701 104.578508 
L 650.235115 148.584079 
L 652.135529 117.376056 
L 654.035944 114.646135 
L 655.936358 94.215691 
L 657.836772 153.614975 
L 659.737186 139.463731 
L 661.6376 97.78288 
L 663.538014 90.291643 
L 665.438428 158.572854 
L 667.338842 87.450251 
L 669.239257 126.420834 
L 671.139671 155.474605 
L 673.040085 40.912132 
L 674.940499 182.844685 
L 676.840913 107.202631 
L 678.741327 133.585762 
L 680.641741 96.010489 
L 682.542155 115.706992 
L 684.44257 159.558871 
L 686.342984 103.622192 
L 688.243398 112.846839 
L 690.143812 112.848095 
L 692.044226 106.902093 
L 693.94464 150.97039 
L 695.845054 115.748039 
L 697.745468 90.109707 
L 699.645882 142.461328 
L 701.546297 166.089943 
L 703.446711 107.364103 
L 705.347125 146.685266 
L 707.247539 73.416475 
L 709.147953 138.426133 
L 711.048367 115.007209 
L 712.948781 99.6511 
L 714.849195 138.324994 
L 716.74961 118.088926 
L 718.650024 119.750291 
L 720.550438 155.608484 
L 722.450852 100.488489 
L 724.351266 126.116041 
L 726.25168 86.75055 
L 728.152094 156.186503 
L 730.052508 172.722072 
L 731.952923 88.579709 
L 733.853337 120.257846 
L 735.753751 116.430276 
L 737.654165 89.335409 
L 739.554579 108.27143 
L 741.454993 144.145587 
L 743.355407 132.691078 
L 745.255821 134.241053 
L 747.156235 104.890188 
L 749.05665 139.712322 
L 750.957064 87.138692 
L 752.857478 143.151507 
L 754.757892 130.583951 
L 756.658306 93.271249 
L 758.55872 126.674733 
L 760.459134 85.399447 
L 762.359548 157.332128 
L 764.259963 156.16989 
L 766.160377 117.287884 
L 768.060791 61.655107 
L 769.961205 165.368117 
L 771.861619 83.471176 
L 773.762033 137.521926 
L 775.662447 149.069713 
L 777.562861 132.701492 
L 779.463275 64.485761 
L 781.36369 171.014717 
L 783.264104 84.200416 
L 785.164518 137.764925 
L 787.064932 144.517562 
L 788.965346 99.194074 
L 790.86576 136.8452 
L 792.766174 68.065308 
L 794.666588 185.895363 
L 796.567003 111.004511 
L 798.467417 174.926569 
L 800.367831 59.418194 
L 802.268245 177.192332 
L 804.168659 76.63673 
L 806.069073 107.019439 
L 807.969487 120.322111 
L 809.869901 121.68695 
L 811.770316 156.837864 
L 813.67073 91.960383 
L 815.571144 104.931559 
L 817.471558 140.24893 
L 819.371972 67.195584 
L 821.272386 182.487136 
L 823.1728 122.877026 
L 825.073214 94.15479 
L 826.973628 157.270335 
L 828.874043 117.089862 
L 830.774457 165.903267 
L 832.674871 89.511914 
L 834.575285 70.469244 
L 836.475699 118.122801 
L 838.376113 174.419379 
L 840.276527 34.166344 
L 842.176941 181.271573 
L 844.077356 150.386657 
L 845.97777 83.693226 
L 847.878184 175.893217 
L 849.778598 80.245046 
L 851.679012 106.147568 
L 853.579426 158.325681 
L 855.47984 72.837726 
L 859.280669 159.828248 
L 861.181083 130.511906 
L 863.081497 149.171297 
L 864.981911 55.374489 
L 866.882325 121.354847 
L 868.782739 112.660609 
L 870.683153 144.578828 
L 872.583567 172.658212 
L 874.483981 60.216076 
L 876.384396 150.112174 
L 878.28481 125.414679 
L 880.185224 117.095535 
L 882.085638 130.90872 
L 883.986052 138.459075 
L 885.886466 59.261179 
L 887.78688 144.976938 
L 889.687294 140.658993 
L 891.587709 106.011339 
L 893.488123 194.189344 
L 895.388537 97.949255 
L 897.288951 84.056732 
L 899.189365 34.393054 
L 901.089779 156.021424 
L 902.990193 192.789172 
L 904.890607 133.181574 
L 906.791021 102.736463 
L 908.691436 86.444339 
L 910.59185 102.196614 
L 912.492264 170.01233 
L 914.392678 66.095544 
L 916.293092 197.582255 
L 918.193506 61.405341 
L 920.09392 153.577413 
L 921.994334 70.17989 
L 923.894749 171.170354 
L 925.795163 113.716684 
L 927.695577 132.091704 
L 929.595991 121.633828 
L 931.496405 62.649227 
L 933.396819 198.551983 
L 935.297233 72.318096 
L 937.197647 192.913406 
L 939.098062 94.700434 
L 940.998476 109.539142 
L 942.89889 103.379274 
L 944.799304 109.055413 
L 946.699718 180.356993 
L 948.600132 95.483201 
L 950.500546 87.892487 
L 952.40096 164.859631 
L 954.301374 36.786698 
L 956.201789 218.46 
L 958.102203 26.86 
L 960.002617 211.382068 
L 961.903031 107.07479 
L 963.803445 75.126383 
L 965.703859 132.689417 
L 967.604273 138.574558 
L 969.504687 141.780712 
L 971.405102 94.308442 
L 973.305516 130.624025 
L 975.20593 139.277298 
L 977.106344 81.233939 
L 979.006758 162.23879 
L 980.907172 62.660654 
L 982.807586 159.541771 
L 984.708 111.866455 
L 986.608415 139.926228 
L 988.508829 150.798463 
L 990.409243 62.000622 
L 992.309657 178.694372 
L 994.210071 77.239426 
L 996.110485 196.104487 
L 998.010899 94.313548 
L 999.911313 108.733359 
L 1001.811727 141.477094 
L 1003.712142 128.045163 
L 1005.612556 96.633202 
L 1007.51297 120.732499 
L 1009.413384 91.121981 
L 1011.313798 125.859265 
L 1013.214212 73.85085 
L 1015.114626 214.617154 
L 1017.01504 65.078894 
L 1018.915455 160.289813 
L 1018.915455 160.289813 
" clip-path="url(#p22091f19d9)" style="fill: none; stroke: #d2dbe0; stroke-width: 1.5; stroke-linecap: square"/>
   </g>
   <g id="line2d_10">
    <path d="M 142.824545 98.653697 
L 144.72496 104.1887 
L 146.625374 109.374711 
L 148.525788 108.843225 
L 150.426202 110.792901 
L 154.22703 113.178723 
L 156.127444 115.483305 
L 158.027858 114.16991 
L 159.928273 114.658364 
L 161.828687 115.270529 
L 163.729101 114.908938 
L 165.629515 115.078547 
L 167.529929 116.971242 
L 169.430343 116.746075 
L 171.330757 117.790704 
L 173.231171 116.990258 
L 175.131585 116.659946 
L 177.032 117.876384 
L 178.932414 117.745528 
L 180.832828 119.115714 
L 182.733242 117.813655 
L 184.633656 116.864331 
L 186.53407 119.820063 
L 188.434484 118.14426 
L 190.334898 119.475393 
L 192.235313 119.09376 
L 194.135727 118.929173 
L 196.036141 119.95429 
L 197.936555 121.419065 
L 199.836969 120.189545 
L 201.737383 121.170379 
L 203.637797 122.336177 
L 205.538211 120.437322 
L 207.438626 120.573236 
L 209.33904 119.733721 
L 211.239454 121.170233 
L 213.139868 121.087668 
L 215.040282 121.76302 
L 216.940696 121.316629 
L 218.84111 121.061388 
L 220.741524 122.805263 
L 222.641938 121.686571 
L 224.542353 120.247248 
L 226.442767 120.862852 
L 228.343181 120.652472 
L 230.243595 121.977783 
L 232.144009 121.264485 
L 234.044423 121.187856 
L 235.944837 119.395929 
L 237.845251 122.235564 
L 239.745666 119.241859 
L 241.64608 120.654267 
L 243.546494 120.179971 
L 245.446908 120.914189 
L 247.347322 121.315776 
L 249.247736 121.163432 
L 251.14815 121.662208 
L 253.048564 120.524065 
L 254.948979 120.63179 
L 256.849393 121.658325 
L 258.749807 119.698738 
L 260.650221 120.94609 
L 262.550635 120.684863 
L 264.451049 121.211973 
L 266.351463 120.067284 
L 272.052706 119.683498 
L 273.95312 121.620531 
L 275.853534 120.936102 
L 277.753948 123.769982 
L 279.654362 120.452298 
L 281.554776 121.761304 
L 283.45519 121.238775 
L 285.355604 121.772508 
L 287.256019 120.759378 
L 289.156433 120.480397 
L 291.056847 122.17649 
L 292.957261 120.806241 
L 294.857675 121.145348 
L 296.758089 122.81518 
L 298.658503 120.62228 
L 300.558917 121.821864 
L 302.459331 120.011368 
L 304.359746 123.358901 
L 306.26016 120.122949 
L 308.160574 124.137708 
L 310.060988 122.078749 
L 311.961402 121.755158 
L 313.861816 120.656787 
L 315.76223 119.00181 
L 317.662644 121.781404 
L 319.563059 121.325211 
L 325.264301 120.871748 
L 327.164715 122.049877 
L 329.065129 120.226277 
L 330.965543 122.541517 
L 332.865957 120.209696 
L 334.766372 119.890493 
L 336.666786 122.12431 
L 338.5672 122.312299 
L 340.467614 125.399291 
L 342.368028 120.282253 
L 344.268442 123.695575 
L 346.168856 119.855658 
L 348.06927 122.746559 
L 349.969684 121.026934 
L 351.870099 121.777729 
L 353.770513 123.471399 
L 355.670927 121.792768 
L 357.571341 121.850913 
L 359.471755 122.158788 
L 361.372169 121.762747 
L 363.272583 121.944089 
L 365.172997 121.576646 
L 368.973826 121.180086 
L 370.87424 121.81941 
L 372.774654 121.938576 
L 374.675068 120.620765 
L 376.575482 119.708807 
L 378.475896 118.113323 
L 380.37631 122.085512 
L 382.276725 122.487773 
L 384.177139 119.966669 
L 386.077553 120.370427 
L 387.977967 122.333997 
L 389.878381 121.369957 
L 391.778795 122.181395 
L 393.679209 120.778157 
L 395.579623 120.564346 
L 397.480037 121.69628 
L 399.380452 120.632128 
L 401.280866 122.657291 
L 403.18128 121.801889 
L 405.081694 122.374544 
L 406.982108 121.62556 
L 408.882522 122.083395 
L 410.782936 121.232643 
L 412.68335 123.920956 
L 414.583765 122.893937 
L 416.484179 123.249434 
L 418.384593 121.622748 
L 420.285007 118.780696 
L 422.185421 122.315636 
L 424.085835 122.509437 
L 425.986249 120.459837 
L 427.886663 122.14535 
L 429.787077 118.014272 
L 431.687492 121.504648 
L 433.587906 122.515072 
L 435.48832 120.317763 
L 437.388734 122.893224 
L 439.289148 120.162989 
L 441.189562 120.159131 
L 443.089976 121.232331 
L 444.99039 120.866865 
L 446.890805 121.39606 
L 448.791219 122.073439 
L 450.691633 121.036906 
L 452.592047 121.274328 
L 454.492461 121.765545 
L 456.392875 121.378442 
L 458.293289 122.589809 
L 460.193703 123.384301 
L 462.094118 119.918383 
L 463.994532 123.384311 
L 465.894946 121.014227 
L 467.79536 124.874418 
L 469.695774 122.762733 
L 471.596188 121.770679 
L 473.496602 122.607721 
L 475.397016 121.423543 
L 477.29743 122.516073 
L 479.197845 123.242446 
L 481.098259 121.416578 
L 482.998673 121.760618 
L 484.899087 121.752963 
L 486.799501 120.388971 
L 488.699915 120.351642 
L 490.600329 119.284016 
L 492.500743 120.287288 
L 494.401158 120.769567 
L 496.301572 122.106335 
L 498.201986 119.563374 
L 500.1024 122.949717 
L 502.002814 120.569993 
L 503.903228 120.429801 
L 505.803642 120.672691 
L 507.704056 119.393611 
L 509.604471 121.384587 
L 513.405299 119.859128 
L 515.305713 122.603667 
L 517.206127 119.49624 
L 519.106541 122.505748 
L 521.006955 123.490233 
L 522.907369 122.863087 
L 524.807783 124.050484 
L 526.708198 120.899367 
L 528.608612 126.557575 
L 530.509026 122.550926 
L 532.40944 122.866869 
L 534.309854 122.453536 
L 536.210268 122.273477 
L 540.011096 120.733637 
L 541.911511 124.668752 
L 543.811925 122.465643 
L 545.712339 124.837974 
L 547.612753 120.795649 
L 549.513167 123.731941 
L 551.413581 123.292687 
L 553.313995 119.696699 
L 555.214409 124.944945 
L 557.114824 120.800765 
L 559.015238 117.390386 
L 560.915652 118.107646 
L 562.816066 120.387367 
L 564.71648 121.61453 
L 566.616894 118.371639 
L 568.517308 118.683308 
L 570.417722 120.899304 
L 572.318136 119.679693 
L 574.218551 122.010211 
L 576.118965 119.918496 
L 578.019379 121.756511 
L 579.919793 118.690522 
L 581.820207 119.430764 
L 583.720621 118.541309 
L 585.621035 122.976251 
L 587.521449 120.479503 
L 589.421864 120.176692 
L 591.322278 121.198379 
L 593.222692 117.403567 
L 595.123106 118.68365 
L 597.02352 124.543954 
L 598.923934 124.326319 
L 600.824348 119.826005 
L 602.724762 122.986298 
L 604.625176 121.858593 
L 606.525591 124.839921 
L 608.426005 120.25896 
L 610.326419 121.371051 
L 612.226833 122.807216 
L 614.127247 122.632993 
L 616.027661 123.626066 
L 617.928075 123.693421 
L 619.828489 121.833566 
L 621.728904 123.50885 
L 623.629318 120.367236 
L 625.529732 119.747702 
L 627.430146 123.542755 
L 629.33056 122.675574 
L 631.230974 125.308601 
L 633.131388 125.813605 
L 635.031802 122.158659 
L 636.932217 120.550624 
L 638.832631 124.340908 
L 640.733045 123.193186 
L 642.633459 122.657786 
L 644.533873 120.080099 
L 646.434287 124.126625 
L 650.235115 119.846851 
L 652.135529 123.297456 
L 654.035944 117.414917 
L 655.936358 120.992962 
L 657.836772 122.129221 
L 659.737186 121.294717 
L 661.6376 120.991973 
L 663.538014 121.855473 
L 665.438428 121.21469 
L 667.338842 121.166874 
L 669.239257 119.380012 
L 671.139671 119.153614 
L 673.040085 118.766412 
L 674.940499 121.604147 
L 676.840913 119.7108 
L 678.741327 117.243099 
L 680.641741 119.477022 
L 682.542155 123.266937 
L 684.44257 120.706499 
L 686.342984 123.66825 
L 688.243398 121.018032 
L 690.143812 120.165608 
L 692.044226 123.870362 
L 693.94464 119.710683 
L 695.845054 121.266801 
L 697.745468 120.491959 
L 699.645882 121.678949 
L 701.546297 123.674024 
L 703.446711 120.720505 
L 705.347125 121.845197 
L 707.247539 120.540383 
L 709.147953 122.707303 
L 711.048367 125.998302 
L 712.948781 122.878768 
L 714.849195 123.104258 
L 716.74961 124.420287 
L 718.650024 121.763991 
L 720.550438 118.873065 
L 722.450852 120.712139 
L 724.351266 120.01243 
L 726.25168 123.053659 
L 728.152094 121.376862 
L 730.052508 122.612117 
L 731.952923 121.986497 
L 733.853337 122.227823 
L 735.753751 122.852574 
L 739.554579 120.081934 
L 741.454993 119.327482 
L 743.355407 120.888286 
L 745.255821 124.359253 
L 747.156235 122.414323 
L 749.05665 116.860974 
L 750.957064 120.700395 
L 752.857478 118.861061 
L 754.757892 119.915644 
L 756.658306 122.902359 
L 758.55872 124.123862 
L 760.459134 120.140871 
L 762.359548 122.057053 
L 764.259963 119.555021 
L 766.160377 121.198758 
L 768.060791 121.43902 
L 769.961205 122.041789 
L 771.861619 121.726473 
L 773.762033 118.600541 
L 775.662447 123.231747 
L 777.562861 122.448236 
L 779.463275 126.924592 
L 781.36369 122.028895 
L 783.264104 123.080017 
L 785.164518 121.04746 
L 787.064932 123.315676 
L 788.965346 121.063376 
L 790.86576 122.974165 
L 792.766174 123.939961 
L 794.666588 121.084495 
L 796.567003 119.695998 
L 798.467417 123.484157 
L 800.367831 118.2932 
L 802.268245 123.207536 
L 804.168659 122.463141 
L 806.069073 119.945003 
L 807.969487 122.848816 
L 809.869901 121.861049 
L 811.770316 126.752947 
L 813.67073 121.933774 
L 815.571144 119.907011 
L 817.471558 117.066822 
L 819.371972 122.816882 
L 821.272386 115.665582 
L 823.1728 120.897324 
L 825.073214 123.065685 
L 826.973628 121.234241 
L 828.874043 123.944554 
L 830.774457 120.114914 
L 832.674871 120.824273 
L 834.575285 123.493979 
L 836.475699 120.123419 
L 838.376113 122.591264 
L 840.276527 121.458319 
L 842.176941 121.840063 
L 844.077356 124.590889 
L 845.97777 119.496096 
L 847.878184 119.709346 
L 849.778598 117.047213 
L 851.679012 119.800558 
L 853.579426 124.910007 
L 855.47984 122.014671 
L 857.380254 120.79931 
L 859.280669 125.361727 
L 861.181083 122.152925 
L 863.081497 121.179028 
L 864.981911 123.917321 
L 866.882325 118.085719 
L 868.782739 121.322314 
L 870.683153 123.047885 
L 872.583567 120.432168 
L 874.483981 126.499749 
L 876.384396 125.569587 
L 878.28481 121.781011 
L 880.185224 116.975069 
L 882.085638 117.317575 
L 883.986052 124.188309 
L 885.886466 124.779646 
L 887.78688 124.283438 
L 889.687294 121.376714 
L 891.587709 117.853634 
L 893.488123 123.343447 
L 895.388537 119.142615 
L 897.288951 122.750994 
L 899.189365 119.966484 
L 901.089779 121.099919 
L 902.990193 117.68596 
L 904.890607 123.281418 
L 906.791021 121.718406 
L 908.691436 121.290041 
L 910.59185 122.071166 
L 912.492264 115.49416 
L 914.392678 120.524296 
L 916.293092 119.937365 
L 918.193506 127.863382 
L 920.09392 124.797333 
L 921.994334 120.634831 
L 923.894749 119.144716 
L 925.795163 119.460664 
L 927.695577 124.156296 
L 929.595991 123.820626 
L 931.496405 119.714634 
L 933.396819 124.652838 
L 935.297233 116.61306 
L 937.197647 124.465793 
L 939.098062 118.129922 
L 940.998476 125.190031 
L 942.89889 121.985253 
L 944.799304 120.055738 
L 946.699718 120.085624 
L 948.600132 120.93266 
L 950.500546 124.889234 
L 952.40096 119.677057 
L 954.301374 122.592354 
L 956.201789 119.910548 
L 958.102203 119.237224 
L 960.002617 121.872206 
L 961.903031 119.836275 
L 963.803445 122.360593 
L 965.703859 118.936066 
L 967.604273 121.158217 
L 969.504687 124.303516 
L 971.405102 119.160566 
L 973.305516 126.255949 
L 975.20593 119.194921 
L 977.106344 127.657145 
L 979.006758 121.803719 
L 980.907172 121.886647 
L 982.807586 125.204183 
L 984.708 124.97197 
L 986.608415 122.874902 
L 988.508829 121.822492 
L 992.309657 121.424931 
L 994.210071 118.153608 
L 996.110485 124.822769 
L 998.010899 119.964774 
L 999.911313 124.846232 
L 999.911313 124.846232 
" clip-path="url(#p22091f19d9)" style="fill: none; stroke: #5dc694; stroke-width: 1.5; stroke-linecap: square"/>
   </g>
   <g id="patch_3">
    <path d="M 99.02 228.04 
L 99.02 17.28 
" style="fill: none; stroke: #000000; stroke-width: 0.8; stroke-linejoin: miter; stroke-linecap: square"/>
   </g>
   <g id="patch_4">
    <path d="M 1062.72 228.04 
L 1062.72 17.28 
" style="fill: none; stroke: #000000; stroke-width: 0.8; stroke-linejoin: miter; stroke-linecap: square"/>
   </g>
   <g id="patch_5">
    <path d="M 99.02 228.04 
L 1062.72 228.04 
" style="fill: none; stroke: #000000; stroke-width: 0.8; stroke-linejoin: miter; stroke-linecap: square"/>
   </g>
   <g id="patch_6">
    <path d="M 99.02 17.28 
L 1062.72 17.28 
" style="fill: none; stroke: #000000; stroke-width: 0.8; stroke-linejoin: miter; stroke-linecap: square"/>
   </g>
   <g id="legend_1">
    <g id="patch_7">
     <path d="M 854.2975 76.605 
L 1051.52 76.605 
Q 1054.72 76.605 1054.72 73.405 
L 1054.72 28.48 
Q 1054.72 25.28 1051.52 25.28 
L 854.2975 25.28 
Q 851.0975 25.28 851.0975 28.48 
L 851.0975 73.405 
Q 851.0975 76.605 854.2975 76.605 
z
" style="fill: #ffffff; opacity: 0.8; stroke: #cccccc; stroke-linejoin: miter"/>
    </g>
    <g id="line2d_11">
     <path d="M 857.4975 37.44 
L 873.4975 37.44 
L 889.4975 37.44 
" style="fill: none; stroke: #d2dbe0; stroke-width: 1.5; stroke-linecap: square"/>
    </g>
    <g id="text_11">
     <!-- 2nd. Difference -->
     <g transform="translate(902.2975 43.04) scale(0.16 -0.16)">
      <use xlink:href="#Bahnschrift-32"/>
      <use xlink:href="#Bahnschrift-6e" x="51.660156"/>
      <use xlink:href="#Bahnschrift-64" x="107.519531"/>
      <use xlink:href="#Bahnschrift-2e" x="161.425781"/>
      <use xlink:href="#Bahnschrift-20" x="184.082031"/>
      <use xlink:href="#Bahnschrift-44" x="210.9375"/>
      <use xlink:href="#Bahnschrift-69" x="276.5625"/>
      <use xlink:href="#Bahnschrift-66" x="301.660156"/>
      <use xlink:href="#Bahnschrift-66" x="333.349609"/>
      <use xlink:href="#Bahnschrift-65" x="365.039062"/>
      <use xlink:href="#Bahnschrift-72" x="418.652344"/>
      <use xlink:href="#Bahnschrift-65" x="461.328125"/>
      <use xlink:href="#Bahnschrift-6e" x="514.941406"/>
      <use xlink:href="#Bahnschrift-63" x="570.800781"/>
      <use xlink:href="#Bahnschrift-65" x="620.605469"/>
     </g>
    </g>
    <g id="line2d_12">
     <path d="M 857.4975 61.3075 
L 873.4975 61.3075 
L 889.4975 61.3075 
" style="fill: none; stroke: #5dc694; stroke-width: 1.5; stroke-linecap: square"/>
    </g>
    <g id="text_12">
     <!-- Rolling Average (20) -->
     <g transform="translate(902.2975 66.9075) scale(0.16 -0.16)">
      <defs>
       <path id="Bahnschrift-6c" d="M 1138 4544 
L 1138 838 
Q 1138 722 1189 656 
Q 1241 591 1334 591 
L 1634 591 
L 1634 -16 
L 1259 -16 
Q 900 -16 700 209 
Q 500 434 500 844 
L 500 4544 
L 1138 4544 
z
" transform="scale(0.015625)"/>
       <path id="Bahnschrift-67" d="M 1588 -1319 
Q 1222 -1319 933 -1183 
Q 644 -1047 484 -800 
L 484 -800 
L 916 -409 
L 916 -409 
Q 1041 -581 1214 -675 
Q 1388 -769 1578 -769 
Q 1944 -769 2144 -567 
Q 2344 -366 2344 3 
L 2344 3244 
L 2981 3244 
L 2981 97 
Q 2981 -578 2617 -948 
Q 2253 -1319 1588 -1319 
z
M 1528 -56 
Q 991 -56 698 289 
Q 406 634 406 1263 
L 406 1978 
Q 406 2609 692 2954 
Q 978 3300 1497 3300 
Q 1784 3300 2023 3150 
Q 2263 3000 2409 2728 
L 2344 2066 
Q 2344 2272 2269 2419 
Q 2194 2566 2051 2642 
Q 1909 2719 1706 2719 
Q 1391 2719 1217 2522 
Q 1044 2325 1044 1969 
L 1044 1263 
Q 1044 909 1217 717 
Q 1391 525 1706 525 
Q 1909 525 2051 604 
Q 2194 684 2269 834 
Q 2344 984 2344 1194 
L 2388 509 
Q 2300 291 2086 117 
Q 1872 -56 1528 -56 
z
" transform="scale(0.015625)"/>
       <path id="Bahnschrift-41" d="M 125 0 
L 1800 4544 
L 2344 4544 
L 4019 0 
L 3331 0 
L 2072 3666 
L 813 0 
L 125 0 
z
M 897 997 
L 897 1603 
L 3288 1603 
L 3288 997 
L 897 997 
z
" transform="scale(0.015625)"/>
       <path id="Bahnschrift-76" d="M 1616 928 
L 2409 3244 
L 3075 3244 
L 1856 0 
L 1375 0 
L 156 3244 
L 822 3244 
L 1616 928 
z
" transform="scale(0.015625)"/>
       <path id="Bahnschrift-28" d="M 1672 -978 
Q 1116 -375 839 373 
Q 563 1122 563 2025 
Q 563 2928 839 3676 
Q 1116 4425 1672 5028 
L 2109 4631 
Q 1638 4106 1403 3456 
Q 1169 2806 1169 2025 
Q 1169 1244 1403 594 
Q 1638 -56 2109 -584 
L 1672 -978 
z
" transform="scale(0.015625)"/>
       <path id="Bahnschrift-29" d="M 500 -978 
L 63 -584 
Q 534 -56 768 594 
Q 1003 1244 1003 2025 
Q 1003 2806 768 3456 
Q 534 4106 63 4631 
L 500 5028 
Q 1056 4425 1332 3676 
Q 1609 2928 1609 2025 
Q 1609 1122 1332 373 
Q 1056 -375 500 -978 
z
" transform="scale(0.015625)"/>
      </defs>
      <use xlink:href="#Bahnschrift-52"/>
      <use xlink:href="#Bahnschrift-6f" x="65.185547"/>
      <use xlink:href="#Bahnschrift-6c" x="119.677734"/>
      <use xlink:href="#Bahnschrift-6c" x="148.632812"/>
      <use xlink:href="#Bahnschrift-69" x="177.587891"/>
      <use xlink:href="#Bahnschrift-6e" x="202.685547"/>
      <use xlink:href="#Bahnschrift-67" x="258.544922"/>
      <use xlink:href="#Bahnschrift-20" x="312.451172"/>
      <use xlink:href="#Bahnschrift-41" x="339.306641"/>
      <use xlink:href="#Bahnschrift-76" x="404.052734"/>
      <use xlink:href="#Bahnschrift-65" x="454.052734"/>
      <use xlink:href="#Bahnschrift-72" x="507.666016"/>
      <use xlink:href="#Bahnschrift-61" x="550.341797"/>
      <use xlink:href="#Bahnschrift-67" x="603.564453"/>
      <use xlink:href="#Bahnschrift-65" x="657.470703"/>
      <use xlink:href="#Bahnschrift-20" x="711.083984"/>
      <use xlink:href="#Bahnschrift-28" x="737.939453"/>
      <use xlink:href="#Bahnschrift-32" x="771.875"/>
      <use xlink:href="#Bahnschrift-30" x="823.535156"/>
      <use xlink:href="#Bahnschrift-29" x="878.710938"/>
     </g>
    </g>
   </g>
  </g>
 </g>
 <defs>
  <clipPath id="p22091f19d9">
   <rect x="99.02" y="17.28" width="963.7" height="210.76"/>
  </clipPath>
 </defs>
</svg>
