<?xml version="1.0" encoding="utf-8" standalone="no"?>
<!DOCTYPE svg PUBLIC "-//W3C//DTD SVG 1.1//EN"
  "http://www.w3.org/Graphics/SVG/1.1/DTD/svg11.dtd">
<svg xmlns:xlink="http://www.w3.org/1999/xlink" width="1080pt" height="288pt" viewBox="0 0 1080 288" xmlns="http://www.w3.org/2000/svg" version="1.1">
 <metadata>
  <rdf:RDF xmlns:dc="http://purl.org/dc/elements/1.1/" xmlns:cc="http://creativecommons.org/ns#" xmlns:rdf="http://www.w3.org/1999/02/22-rdf-syntax-ns#">
   <cc:Work>
    <dc:type rdf:resource="http://purl.org/dc/dcmitype/StillImage"/>
    <dc:date>2024-05-29T19:41:00.642092</dc:date>
    <dc:format>image/svg+xml</dc:format>
    <dc:creator>
     <cc:Agent>
      <dc:title>Matplotlib v3.8.2, https://matplotlib.org/</dc:title>
     </cc:Agent>
    </dc:creator>
   </cc:Work>
  </rdf:RDF>
 </metadata>
 <defs>
  <style type="text/css">*{stroke-linejoin: round; stroke-linecap: butt}</style>
 </defs>
 <g id="figure_1">
  <g id="patch_1">
   <path d="M 0 288 
L 1080 288 
L 1080 0 
L 0 0 
z
" style="fill: #ffffff"/>
  </g>
  <g id="axes_1">
   <g id="patch_2">
    <path d="M 99.02 228.04 
L 1062.72 228.04 
L 1062.72 17.28 
L 99.02 17.28 
z
" style="fill: #ffffff"/>
   </g>
   <g id="matplotlib.axis_1">
    <g id="xtick_1">
     <g id="line2d_1">
      <defs>
       <path id="m25812c57ba" d="M 0 0 
L 0 3.5 
" style="stroke: #000000; stroke-width: 0.8"/>
      </defs>
      <g>
       <use xlink:href="#m25812c57ba" x="133.875711" y="228.04" style="stroke: #000000; stroke-width: 0.8"/>
      </g>
     </g>
     <g id="text_1">
      <!-- 0 -->
      <g transform="translate(129.461961 246.4) scale(0.16 -0.16)">
       <defs>
        <path id="Bahnschrift-30" d="M 1766 -47 
Q 1116 -47 792 301 
Q 469 650 469 1244 
L 469 3309 
Q 469 3913 797 4256 
Q 1125 4600 1766 4600 
Q 2409 4600 2736 4258 
Q 3063 3916 3063 3309 
L 3063 1244 
Q 3063 641 2736 297 
Q 2409 -47 1766 -47 
z
M 1766 559 
Q 2116 559 2270 742 
Q 2425 925 2425 1244 
L 2425 3309 
Q 2425 3631 2270 3812 
Q 2116 3994 1766 3994 
Q 1416 3994 1261 3812 
Q 1106 3631 1106 3309 
L 1106 1244 
Q 1106 925 1261 742 
Q 1416 559 1766 559 
z
" transform="scale(0.015625)"/>
       </defs>
       <use xlink:href="#Bahnschrift-30"/>
      </g>
     </g>
    </g>
    <g id="xtick_2">
     <g id="line2d_2">
      <g>
       <use xlink:href="#m25812c57ba" x="312.852403" y="228.04" style="stroke: #000000; stroke-width: 0.8"/>
      </g>
     </g>
     <g id="text_2">
      <!-- 200 -->
      <g transform="translate(299.892403 246.4) scale(0.16 -0.16)">
       <defs>
        <path id="Bahnschrift-32" d="M 400 0 
L 400 553 
L 1984 2666 
Q 2122 2847 2198 3040 
Q 2275 3234 2275 3406 
L 2275 3413 
Q 2275 3684 2115 3834 
Q 1956 3984 1663 3984 
Q 1388 3984 1214 3820 
Q 1041 3656 1003 3356 
L 1003 3353 
L 344 3353 
L 344 3356 
Q 428 3944 772 4267 
Q 1116 4591 1656 4591 
Q 2269 4591 2603 4281 
Q 2938 3972 2938 3406 
L 2938 3403 
Q 2938 3163 2838 2898 
Q 2738 2634 2559 2394 
L 1244 606 
L 2963 606 
L 2963 0 
L 400 0 
z
" transform="scale(0.015625)"/>
       </defs>
       <use xlink:href="#Bahnschrift-32"/>
       <use xlink:href="#Bahnschrift-30" x="51.660156"/>
       <use xlink:href="#Bahnschrift-30" x="106.835938"/>
      </g>
     </g>
    </g>
    <g id="xtick_3">
     <g id="line2d_3">
      <g>
       <use xlink:href="#m25812c57ba" x="491.829096" y="228.04" style="stroke: #000000; stroke-width: 0.8"/>
      </g>
     </g>
     <g id="text_3">
      <!-- 400 -->
      <g transform="translate(478.450346 246.4) scale(0.16 -0.16)">
       <defs>
        <path id="Bahnschrift-34" d="M 406 697 
L 406 1250 
L 1931 4541 
L 2588 4541 
L 1100 1288 
L 3328 1288 
L 3328 697 
L 406 697 
z
M 2366 -3 
L 2366 2672 
L 2988 2672 
L 2988 -3 
L 2366 -3 
z
" transform="scale(0.015625)"/>
       </defs>
       <use xlink:href="#Bahnschrift-34"/>
       <use xlink:href="#Bahnschrift-30" x="56.884766"/>
       <use xlink:href="#Bahnschrift-30" x="112.060547"/>
      </g>
     </g>
    </g>
    <g id="xtick_4">
     <g id="line2d_4">
      <g>
       <use xlink:href="#m25812c57ba" x="670.805788" y="228.04" style="stroke: #000000; stroke-width: 0.8"/>
      </g>
     </g>
     <g id="text_4">
      <!-- 600 -->
      <g transform="translate(657.873288 246.4) scale(0.16 -0.16)">
       <defs>
        <path id="Bahnschrift-36" d="M 1641 -47 
Q 1038 -47 706 312 
Q 375 672 375 1325 
L 375 1328 
Q 375 1622 456 1951 
Q 538 2281 691 2588 
L 1678 4544 
L 2366 4544 
L 1206 2278 
L 1209 2391 
Q 1372 2700 1788 2700 
Q 2322 2700 2615 2345 
Q 2909 1991 2909 1344 
L 2909 1341 
Q 2909 681 2578 317 
Q 2247 -47 1641 -47 
z
M 1641 566 
Q 1947 566 2109 753 
Q 2272 941 2272 1288 
L 2272 1291 
Q 2272 1672 2100 1880 
Q 1928 2088 1609 2088 
Q 1325 2088 1169 1878 
Q 1013 1669 1013 1288 
L 1013 1284 
Q 1013 938 1177 752 
Q 1341 566 1641 566 
z
" transform="scale(0.015625)"/>
       </defs>
       <use xlink:href="#Bahnschrift-36"/>
       <use xlink:href="#Bahnschrift-30" x="51.318359"/>
       <use xlink:href="#Bahnschrift-30" x="106.494141"/>
      </g>
     </g>
    </g>
    <g id="xtick_5">
     <g id="line2d_5">
      <g>
       <use xlink:href="#m25812c57ba" x="849.78248" y="228.04" style="stroke: #000000; stroke-width: 0.8"/>
      </g>
     </g>
     <g id="text_5">
      <!-- 800 -->
      <g transform="translate(836.45498 246.4) scale(0.16 -0.16)">
       <defs>
        <path id="Bahnschrift-38" d="M 1800 -47 
Q 1384 -47 1075 109 
Q 766 266 594 550 
Q 422 834 422 1216 
L 422 1291 
Q 422 1631 592 1931 
Q 763 2231 1047 2384 
Q 809 2516 662 2764 
Q 516 3013 516 3288 
L 516 3397 
Q 516 3938 867 4264 
Q 1219 4591 1800 4591 
Q 2381 4591 2732 4264 
Q 3084 3938 3084 3397 
L 3084 3288 
Q 3084 3006 2936 2759 
Q 2788 2513 2544 2384 
Q 2831 2231 3004 1931 
Q 3178 1631 3178 1291 
L 3178 1216 
Q 3178 834 3006 550 
Q 2834 266 2525 109 
Q 2216 -47 1800 -47 
z
M 1800 566 
Q 2134 566 2339 758 
Q 2544 950 2544 1263 
L 2544 1306 
Q 2544 1622 2339 1814 
Q 2134 2006 1800 2006 
Q 1466 2006 1261 1814 
Q 1056 1622 1056 1303 
L 1056 1256 
Q 1056 944 1261 755 
Q 1466 566 1800 566 
z
M 1800 2619 
Q 2091 2619 2269 2803 
Q 2447 2988 2447 3291 
L 2447 3334 
Q 2447 3625 2269 3801 
Q 2091 3978 1800 3978 
Q 1509 3978 1331 3801 
Q 1153 3625 1153 3331 
L 1153 3284 
Q 1153 2984 1331 2801 
Q 1509 2619 1800 2619 
z
" transform="scale(0.015625)"/>
       </defs>
       <use xlink:href="#Bahnschrift-38"/>
       <use xlink:href="#Bahnschrift-30" x="56.25"/>
       <use xlink:href="#Bahnschrift-30" x="111.425781"/>
      </g>
     </g>
    </g>
    <g id="xtick_6">
     <g id="line2d_6">
      <g>
       <use xlink:href="#m25812c57ba" x="1028.759173" y="228.04" style="stroke: #000000; stroke-width: 0.8"/>
      </g>
     </g>
     <g id="text_6">
      <!-- 1000 -->
      <g transform="translate(1012.857923 246.4) scale(0.16 -0.16)">
       <defs>
        <path id="Bahnschrift-31" d="M 1566 4544 
L 1566 0 
L 928 0 
L 928 3850 
L 281 3453 
L 281 4113 
L 928 4544 
L 1566 4544 
z
" transform="scale(0.015625)"/>
       </defs>
       <use xlink:href="#Bahnschrift-31"/>
       <use xlink:href="#Bahnschrift-30" x="33.251953"/>
       <use xlink:href="#Bahnschrift-30" x="88.427734"/>
       <use xlink:href="#Bahnschrift-30" x="143.603516"/>
      </g>
     </g>
    </g>
    <g id="text_7">
     <!-- Theta -->
     <g transform="translate(561.39375 265.0575) scale(0.16 -0.16)">
      <defs>
       <path id="Bahnschrift-54" d="M 1222 0 
L 1222 4172 
L 1859 4172 
L 1859 0 
L 1222 0 
z
M -63 3938 
L -63 4544 
L 3144 4544 
L 3144 3938 
L -63 3938 
z
" transform="scale(0.015625)"/>
       <path id="Bahnschrift-68" d="M 500 0 
L 500 4544 
L 1138 4544 
L 1138 0 
L 500 0 
z
M 2469 0 
L 2469 1966 
Q 2469 2309 2292 2496 
Q 2116 2684 1791 2684 
Q 1478 2684 1308 2521 
Q 1138 2359 1138 2063 
L 1072 2688 
Q 1222 2975 1464 3133 
Q 1706 3291 2000 3291 
Q 2528 3291 2817 2945 
Q 3106 2600 3106 1969 
L 3106 0 
L 2469 0 
z
" transform="scale(0.015625)"/>
       <path id="Bahnschrift-65" d="M 1828 -47 
Q 1150 -47 778 331 
Q 406 709 406 1406 
L 406 1772 
Q 406 2497 764 2894 
Q 1122 3291 1772 3291 
Q 2384 3291 2720 2841 
Q 3056 2391 3056 1578 
L 3056 1366 
L 869 1366 
L 869 1878 
L 2450 1878 
L 2450 1878 
Q 2422 2272 2245 2494 
Q 2069 2716 1772 2716 
Q 1413 2716 1213 2478 
Q 1013 2241 1013 1806 
L 1013 1394 
Q 1013 991 1227 775 
Q 1441 559 1828 559 
Q 2022 559 2212 637 
Q 2403 716 2553 856 
L 2553 856 
L 2972 438 
L 2972 438 
Q 2731 206 2431 79 
Q 2131 -47 1828 -47 
z
" transform="scale(0.015625)"/>
       <path id="Bahnschrift-74" d="M 1344 -16 
Q 944 -16 764 206 
Q 584 428 584 844 
L 584 4188 
L 1222 4188 
L 1222 838 
Q 1222 722 1269 656 
Q 1316 591 1406 591 
L 1713 591 
L 1713 -16 
L 1344 -16 
z
M 250 2669 
L 250 3244 
L 1713 3244 
L 1713 2669 
L 250 2669 
z
" transform="scale(0.015625)"/>
       <path id="Bahnschrift-61" d="M 2331 0 
L 2331 2056 
Q 2331 2375 2161 2551 
Q 1991 2728 1678 2728 
Q 1488 2728 1302 2670 
Q 1116 2613 969 2503 
L 503 2822 
Q 688 3044 989 3167 
Q 1291 3291 1659 3291 
Q 2269 3291 2603 2975 
Q 2938 2659 2938 2084 
L 2938 0 
L 2331 0 
z
M 1538 -47 
Q 941 -47 642 200 
Q 344 447 344 956 
Q 344 1441 617 1680 
Q 891 1919 1438 1919 
L 2359 1919 
L 2403 1406 
L 1441 1406 
Q 1194 1406 1069 1295 
Q 944 1184 944 956 
Q 944 709 1109 590 
Q 1275 472 1606 472 
Q 1969 472 2150 550 
Q 2331 628 2331 794 
L 2397 338 
Q 2313 206 2188 122 
Q 2063 38 1902 -4 
Q 1741 -47 1538 -47 
z
" transform="scale(0.015625)"/>
      </defs>
      <use xlink:href="#Bahnschrift-54"/>
      <use xlink:href="#Bahnschrift-68" x="48.144531"/>
      <use xlink:href="#Bahnschrift-65" x="104.003906"/>
      <use xlink:href="#Bahnschrift-74" x="157.617188"/>
      <use xlink:href="#Bahnschrift-61" x="190.234375"/>
     </g>
    </g>
   </g>
   <g id="matplotlib.axis_2">
    <g id="ytick_1">
     <g id="line2d_7">
      <defs>
       <path id="m282f7ca8b2" d="M 0 0 
L -3.5 0 
" style="stroke: #000000; stroke-width: 0.8"/>
      </defs>
      <g>
       <use xlink:href="#m282f7ca8b2" x="99.02" y="208.776274" style="stroke: #000000; stroke-width: 0.8"/>
      </g>
     </g>
     <g id="text_8">
      <!-- -0.0002 -->
      <g transform="translate(37.1475 214.456274) scale(0.16 -0.16)">
       <defs>
        <path id="Bahnschrift-2d" d="M 500 1931 
L 2600 1931 
L 2600 1325 
L 500 1325 
L 500 1931 
z
" transform="scale(0.015625)"/>
        <path id="Bahnschrift-2e" d="M 391 0 
L 391 669 
L 1059 669 
L 1059 0 
L 391 0 
z
" transform="scale(0.015625)"/>
       </defs>
       <use xlink:href="#Bahnschrift-2d"/>
       <use xlink:href="#Bahnschrift-30" x="47.949219"/>
       <use xlink:href="#Bahnschrift-2e" x="103.125"/>
       <use xlink:href="#Bahnschrift-30" x="125.78125"/>
       <use xlink:href="#Bahnschrift-30" x="180.957031"/>
       <use xlink:href="#Bahnschrift-30" x="236.132812"/>
       <use xlink:href="#Bahnschrift-32" x="291.308594"/>
      </g>
     </g>
    </g>
    <g id="ytick_2">
     <g id="line2d_8">
      <g>
       <use xlink:href="#m282f7ca8b2" x="99.02" y="167.521866" style="stroke: #000000; stroke-width: 0.8"/>
      </g>
     </g>
     <g id="text_9">
      <!-- -0.0001 -->
      <g transform="translate(40.0925 173.201866) scale(0.16 -0.16)">
       <use xlink:href="#Bahnschrift-2d"/>
       <use xlink:href="#Bahnschrift-30" x="47.949219"/>
       <use xlink:href="#Bahnschrift-2e" x="103.125"/>
       <use xlink:href="#Bahnschrift-30" x="125.78125"/>
       <use xlink:href="#Bahnschrift-30" x="180.957031"/>
       <use xlink:href="#Bahnschrift-30" x="236.132812"/>
       <use xlink:href="#Bahnschrift-31" x="291.308594"/>
      </g>
     </g>
    </g>
    <g id="ytick_3">
     <g id="line2d_9">
      <g>
       <use xlink:href="#m282f7ca8b2" x="99.02" y="126.267458" style="stroke: #000000; stroke-width: 0.8"/>
      </g>
     </g>
     <g id="text_10">
      <!-- 0.0000 -->
      <g transform="translate(44.2575 131.947458) scale(0.16 -0.16)">
       <use xlink:href="#Bahnschrift-30"/>
       <use xlink:href="#Bahnschrift-2e" x="55.175781"/>
       <use xlink:href="#Bahnschrift-30" x="77.832031"/>
       <use xlink:href="#Bahnschrift-30" x="133.007812"/>
       <use xlink:href="#Bahnschrift-30" x="188.183594"/>
       <use xlink:href="#Bahnschrift-30" x="243.359375"/>
      </g>
     </g>
    </g>
    <g id="ytick_4">
     <g id="line2d_10">
      <g>
       <use xlink:href="#m282f7ca8b2" x="99.02" y="85.01305" style="stroke: #000000; stroke-width: 0.8"/>
      </g>
     </g>
     <g id="text_11">
      <!-- 0.0001 -->
      <g transform="translate(47.765 90.69305) scale(0.16 -0.16)">
       <use xlink:href="#Bahnschrift-30"/>
       <use xlink:href="#Bahnschrift-2e" x="55.175781"/>
       <use xlink:href="#Bahnschrift-30" x="77.832031"/>
       <use xlink:href="#Bahnschrift-30" x="133.007812"/>
       <use xlink:href="#Bahnschrift-30" x="188.183594"/>
       <use xlink:href="#Bahnschrift-31" x="243.359375"/>
      </g>
     </g>
    </g>
    <g id="ytick_5">
     <g id="line2d_11">
      <g>
       <use xlink:href="#m282f7ca8b2" x="99.02" y="43.758642" style="stroke: #000000; stroke-width: 0.8"/>
      </g>
     </g>
     <g id="text_12">
      <!-- 0.0002 -->
      <g transform="translate(44.82 49.438642) scale(0.16 -0.16)">
       <use xlink:href="#Bahnschrift-30"/>
       <use xlink:href="#Bahnschrift-2e" x="55.175781"/>
       <use xlink:href="#Bahnschrift-30" x="77.832031"/>
       <use xlink:href="#Bahnschrift-30" x="133.007812"/>
       <use xlink:href="#Bahnschrift-30" x="188.183594"/>
       <use xlink:href="#Bahnschrift-32" x="243.359375"/>
      </g>
     </g>
    </g>
    <g id="text_13">
     <!-- 1st. Difference,  mean: 0.00005 -->
     <g transform="translate(29.85 231.275) rotate(-90) scale(0.16 -0.16)">
      <defs>
       <path id="Bahnschrift-73" d="M 1647 -47 
Q 1216 -47 864 79 
Q 513 206 234 459 
L 234 459 
L 613 925 
L 613 925 
Q 878 725 1136 625 
Q 1394 525 1647 525 
Q 2025 525 2214 642 
Q 2403 759 2403 994 
Q 2403 1175 2276 1250 
Q 2150 1325 1945 1348 
Q 1741 1372 1506 1388 
Q 1309 1403 1115 1436 
Q 922 1469 762 1555 
Q 603 1641 508 1809 
Q 413 1978 413 2263 
Q 413 2778 728 3034 
Q 1044 3291 1669 3291 
Q 2050 3291 2378 3187 
Q 2706 3084 2994 2872 
L 2994 2872 
L 2609 2406 
L 2609 2406 
Q 2366 2563 2130 2641 
Q 1894 2719 1669 2719 
Q 1344 2719 1181 2608 
Q 1019 2497 1019 2275 
Q 1019 2128 1131 2064 
Q 1244 2000 1428 1981 
Q 1613 1963 1825 1947 
Q 2028 1934 2236 1901 
Q 2444 1869 2619 1775 
Q 2794 1681 2900 1497 
Q 3006 1313 3006 994 
Q 3006 472 2667 212 
Q 2328 -47 1647 -47 
z
" transform="scale(0.015625)"/>
       <path id="Bahnschrift-20" transform="scale(0.015625)"/>
       <path id="Bahnschrift-44" d="M 994 0 
L 994 606 
L 2022 606 
Q 2525 606 2801 867 
Q 3078 1128 3078 1603 
L 3078 2941 
Q 3078 3416 2801 3677 
Q 2525 3938 2022 3938 
L 994 3938 
L 994 4544 
L 2003 4544 
Q 2828 4544 3279 4117 
Q 3731 3691 3731 2916 
L 3731 1628 
Q 3731 1113 3528 748 
Q 3325 384 2937 192 
Q 2550 0 2000 0 
L 994 0 
z
M 563 0 
L 563 4544 
L 1200 4544 
L 1200 0 
L 563 0 
z
" transform="scale(0.015625)"/>
       <path id="Bahnschrift-69" d="M 500 3906 
L 500 4544 
L 1138 4544 
L 1138 3906 
L 500 3906 
z
M 500 0 
L 500 3244 
L 1138 3244 
L 1138 0 
L 500 0 
z
" transform="scale(0.015625)"/>
       <path id="Bahnschrift-66" d="M 594 0 
L 594 3684 
Q 594 4113 791 4328 
Q 988 4544 1403 4544 
L 1872 4544 
L 1872 3938 
L 1416 3938 
Q 1319 3938 1275 3864 
Q 1231 3791 1231 3691 
L 1231 0 
L 594 0 
z
M 250 2700 
L 250 3244 
L 1872 3244 
L 1872 2700 
L 250 2700 
z
" transform="scale(0.015625)"/>
       <path id="Bahnschrift-72" d="M 500 0 
L 500 3244 
L 1138 3244 
L 1138 0 
L 500 0 
z
M 2284 2475 
Q 2200 2578 2072 2631 
Q 1944 2684 1775 2684 
Q 1472 2684 1305 2517 
Q 1138 2350 1138 2053 
L 1072 2678 
Q 1219 2966 1458 3128 
Q 1697 3291 1984 3291 
Q 2206 3291 2386 3227 
Q 2566 3163 2700 3038 
L 2284 2475 
z
" transform="scale(0.015625)"/>
       <path id="Bahnschrift-6e" d="M 500 0 
L 500 3244 
L 1138 3244 
L 1138 0 
L 500 0 
z
M 2469 0 
L 2469 1966 
Q 2469 2309 2292 2496 
Q 2116 2684 1791 2684 
Q 1478 2684 1308 2518 
Q 1138 2353 1138 2053 
L 1072 2678 
Q 1222 2972 1464 3131 
Q 1706 3291 2000 3291 
Q 2528 3291 2817 2945 
Q 3106 2600 3106 1969 
L 3106 0 
L 2469 0 
z
" transform="scale(0.015625)"/>
       <path id="Bahnschrift-63" d="M 1809 -47 
Q 1141 -47 773 322 
Q 406 691 406 1363 
L 406 1897 
Q 406 2563 773 2927 
Q 1141 3291 1809 3291 
Q 2191 3291 2497 3156 
Q 2803 3022 2984 2772 
L 2984 2772 
L 2525 2359 
L 2525 2359 
Q 2391 2516 2206 2600 
Q 2022 2684 1819 2684 
Q 1450 2684 1247 2478 
Q 1044 2272 1044 1897 
L 1044 1363 
Q 1044 978 1247 768 
Q 1450 559 1819 559 
Q 2022 559 2206 650 
Q 2391 741 2525 906 
L 2525 906 
L 2984 463 
L 2984 463 
Q 2803 219 2495 86 
Q 2188 -47 1809 -47 
z
" transform="scale(0.015625)"/>
       <path id="Bahnschrift-2c" d="M 391 -1038 
L 391 669 
L 1059 669 
L 1059 -344 
L 391 -1038 
z
" transform="scale(0.015625)"/>
       <path id="Bahnschrift-6d" d="M 4375 0 
L 4375 1966 
Q 4375 2309 4198 2496 
Q 4022 2684 3697 2684 
Q 3400 2684 3237 2503 
Q 3075 2322 3075 1991 
L 2947 2616 
Q 3103 2941 3353 3116 
Q 3603 3291 3906 3291 
Q 4434 3291 4723 2945 
Q 5013 2600 5013 1969 
L 5013 0 
L 4375 0 
z
M 500 0 
L 500 3244 
L 1138 3244 
L 1138 0 
L 500 0 
z
M 2438 0 
L 2438 1966 
Q 2438 2309 2269 2496 
Q 2100 2684 1791 2684 
Q 1478 2684 1308 2518 
Q 1138 2353 1138 2053 
L 1072 2678 
Q 1222 2972 1464 3131 
Q 1706 3291 2000 3291 
Q 2513 3291 2794 2945 
Q 3075 2600 3075 1969 
L 3075 0 
L 2438 0 
z
" transform="scale(0.015625)"/>
       <path id="Bahnschrift-3a" d="M 391 0 
L 391 669 
L 1059 669 
L 1059 0 
L 391 0 
z
M 391 2606 
L 391 3275 
L 1059 3275 
L 1059 2606 
L 391 2606 
z
" transform="scale(0.015625)"/>
       <path id="Bahnschrift-35" d="M 1738 -47 
Q 1219 -47 886 251 
Q 553 550 469 1094 
L 469 1097 
L 1106 1097 
L 1106 1094 
Q 1141 844 1306 705 
Q 1472 566 1738 566 
Q 2044 566 2211 770 
Q 2378 975 2378 1347 
L 2378 1728 
Q 2378 2100 2211 2303 
Q 2044 2506 1738 2506 
Q 1572 2506 1419 2412 
Q 1266 2319 1150 2150 
L 569 2150 
L 569 4544 
L 2884 4544 
L 2884 3938 
L 1206 3938 
L 1206 2916 
Q 1325 3013 1472 3066 
Q 1619 3119 1772 3119 
Q 2366 3119 2691 2755 
Q 3016 2391 3016 1728 
L 3016 1347 
Q 3016 681 2681 317 
Q 2347 -47 1738 -47 
z
" transform="scale(0.015625)"/>
      </defs>
      <use xlink:href="#Bahnschrift-31"/>
      <use xlink:href="#Bahnschrift-73" x="33.251953"/>
      <use xlink:href="#Bahnschrift-74" x="85.107422"/>
      <use xlink:href="#Bahnschrift-2e" x="117.724609"/>
      <use xlink:href="#Bahnschrift-20" x="140.380859"/>
      <use xlink:href="#Bahnschrift-44" x="167.236328"/>
      <use xlink:href="#Bahnschrift-69" x="232.861328"/>
      <use xlink:href="#Bahnschrift-66" x="257.958984"/>
      <use xlink:href="#Bahnschrift-66" x="289.648438"/>
      <use xlink:href="#Bahnschrift-65" x="321.337891"/>
      <use xlink:href="#Bahnschrift-72" x="374.951172"/>
      <use xlink:href="#Bahnschrift-65" x="417.626953"/>
      <use xlink:href="#Bahnschrift-6e" x="471.240234"/>
      <use xlink:href="#Bahnschrift-63" x="527.099609"/>
      <use xlink:href="#Bahnschrift-65" x="576.904297"/>
      <use xlink:href="#Bahnschrift-2c" x="630.517578"/>
      <use xlink:href="#Bahnschrift-20" x="653.173828"/>
      <use xlink:href="#Bahnschrift-20" x="680.029297"/>
      <use xlink:href="#Bahnschrift-6d" x="706.884766"/>
      <use xlink:href="#Bahnschrift-65" x="792.529297"/>
      <use xlink:href="#Bahnschrift-61" x="846.142578"/>
      <use xlink:href="#Bahnschrift-6e" x="899.365234"/>
      <use xlink:href="#Bahnschrift-3a" x="955.224609"/>
      <use xlink:href="#Bahnschrift-20" x="977.880859"/>
      <use xlink:href="#Bahnschrift-30" x="1004.736328"/>
      <use xlink:href="#Bahnschrift-2e" x="1059.912109"/>
      <use xlink:href="#Bahnschrift-30" x="1082.568359"/>
      <use xlink:href="#Bahnschrift-30" x="1137.744141"/>
      <use xlink:href="#Bahnschrift-30" x="1192.919922"/>
      <use xlink:href="#Bahnschrift-30" x="1248.095703"/>
      <use xlink:href="#Bahnschrift-35" x="1303.271484"/>
     </g>
    </g>
   </g>
   <g id="line2d_12">
    <path d="M 142.824545 118.65365 
L 143.719429 81.743959 
L 144.614312 98.838068 
L 145.509196 91.480779 
L 146.404079 94.170285 
L 147.298963 135.555961 
L 148.193846 84.122505 
L 149.08873 118.13909 
L 149.983613 139.172936 
L 150.878497 149.957713 
L 151.77338 126.740659 
L 152.668264 97.56256 
L 153.563147 105.225891 
L 154.45803 76.421257 
L 155.352914 116.093977 
L 156.247797 92.764156 
L 157.142681 113.329424 
L 158.037564 94.249758 
L 158.932448 93.02215 
L 159.827331 99.635852 
L 160.722215 110.499463 
L 161.617098 105.953299 
L 162.511982 92.770845 
L 163.406865 109.884085 
L 164.301749 113.694677 
L 165.196632 85.617451 
L 166.091515 116.481263 
L 166.986399 75.834944 
L 167.881282 113.125134 
L 168.776166 80.623364 
L 169.671049 102.991931 
L 170.565933 84.121227 
L 171.460816 110.794636 
L 172.3557 127.454936 
L 173.250583 118.671748 
L 174.145467 107.490293 
L 175.04035 121.540414 
L 175.935234 110.611001 
L 176.830117 103.354282 
L 177.725 71.800931 
L 178.619884 105.534686 
L 179.514767 93.382091 
L 180.409651 134.669164 
L 181.304534 121.73954 
L 182.199418 112.248714 
L 183.094301 108.308239 
L 184.884068 129.959431 
L 185.778952 101.28999 
L 186.673835 113.558451 
L 187.568719 122.599977 
L 188.463602 130.416845 
L 189.358485 108.736343 
L 191.148252 77.576031 
L 192.043136 124.805315 
L 192.938019 74.184494 
L 193.832903 126.719168 
L 194.727786 106.473712 
L 195.62267 148.95682 
L 196.517553 101.563869 
L 197.412437 115.395929 
L 198.30732 94.376198 
L 199.202204 80.981634 
L 200.097087 122.221544 
L 200.99197 108.552413 
L 201.886854 110.635836 
L 202.781737 86.063063 
L 203.676621 107.523685 
L 204.571504 101.112355 
L 205.466388 104.056855 
L 206.361271 92.869842 
L 207.256155 80.010199 
L 208.151038 94.644125 
L 209.045922 130.394764 
L 209.940805 113.000563 
L 210.835689 127.206484 
L 211.730572 87.995801 
L 212.625455 82.447171 
L 213.520339 115.245392 
L 214.415222 109.021434 
L 215.310106 128.208901 
L 216.204989 90.076863 
L 217.099873 140.172648 
L 217.994756 83.099236 
L 218.88964 108.386188 
L 219.784523 101.783945 
L 220.679407 142.602734 
L 221.57429 134.981402 
L 222.469174 97.76026 
L 223.364057 99.777143 
L 224.25894 105.264005 
L 225.153824 128.760198 
L 226.048707 132.865718 
L 226.943591 88.282614 
L 227.838474 106.543399 
L 228.733358 110.911387 
L 229.628241 138.645883 
L 230.523125 130.240637 
L 231.418008 69.938519 
L 232.312892 88.201075 
L 233.207775 99.403579 
L 234.102659 119.127737 
L 234.997542 107.313838 
L 235.892425 109.995623 
L 236.787309 87.206674 
L 237.682192 113.905459 
L 238.577076 96.014009 
L 239.471959 87.440963 
L 240.366843 129.674487 
L 241.261726 106.07964 
L 242.15661 127.526098 
L 243.051493 81.094402 
L 243.946377 72.986688 
L 244.84126 107.489555 
L 245.736144 99.834584 
L 246.631027 78.896146 
L 247.52591 78.883015 
L 249.315677 143.292225 
L 250.210561 120.754335 
L 251.105444 85.566403 
L 252.000328 109.780317 
L 252.895211 88.197239 
L 253.790095 110.090686 
L 254.684978 116.20345 
L 255.579862 85.708285 
L 256.474745 97.461398 
L 257.369629 128.967587 
L 258.264512 98.702187 
L 259.159395 108.017443 
L 260.054279 99.780389 
L 260.949162 138.715964 
L 261.844046 134.956911 
L 262.738929 127.777404 
L 263.633813 103.44787 
L 264.528696 136.402874 
L 265.42358 73.057752 
L 266.318463 91.234096 
L 267.213347 105.305758 
L 268.10823 99.515166 
L 269.003114 120.905069 
L 269.897997 109.072187 
L 270.79288 68.252906 
L 271.687764 87.648695 
L 272.582647 124.325769 
L 273.477531 125.145585 
L 274.372414 121.044344 
L 275.267298 81.524473 
L 276.162181 80.473221 
L 277.057065 87.166002 
L 277.951948 96.054729 
L 278.846832 93.821556 
L 279.741715 102.644628 
L 280.636599 98.339393 
L 281.531482 57.800039 
L 282.426365 118.480245 
L 283.321249 138.445872 
L 284.216132 119.885636 
L 285.111016 111.51806 
L 286.005899 121.638772 
L 286.900783 94.231906 
L 287.795666 61.860707 
L 288.69055 167.897161 
L 289.585433 130.006003 
L 290.480317 105.477196 
L 291.3752 104.390338 
L 292.270084 128.259309 
L 293.164967 115.084429 
L 294.05985 130.23921 
L 294.954734 124.562468 
L 295.849617 124.166429 
L 296.744501 111.715219 
L 297.639384 109.395933 
L 298.534268 87.335228 
L 299.429151 156.075099 
L 300.324035 103.861515 
L 301.218918 103.236056 
L 302.113802 112.163634 
L 303.008685 116.20763 
L 303.903569 80.363945 
L 304.798452 112.518166 
L 305.693336 153.163992 
L 306.588219 97.696228 
L 307.483102 107.649338 
L 308.377986 109.024139 
L 309.272869 120.346985 
L 310.167753 56.375763 
L 311.062636 112.261599 
L 311.95752 128.444075 
L 312.852403 109.425637 
L 313.747287 100.00617 
L 314.64217 121.56756 
L 315.537054 54.072559 
L 316.431937 108.599134 
L 317.326821 112.367432 
L 318.221704 89.775494 
L 319.116587 104.670315 
L 320.011471 51.094962 
L 320.906354 93.864686 
L 321.801238 113.783888 
L 322.696121 122.943001 
L 323.591005 120.691287 
L 325.380772 112.187682 
L 326.275655 108.865045 
L 327.170539 59.795923 
L 328.065422 144.132991 
L 328.960306 116.509737 
L 329.855189 73.115537 
L 330.750072 90.110551 
L 331.644956 62.529198 
L 332.539839 77.902236 
L 333.434723 145.511087 
L 334.329606 132.362862 
L 335.22449 101.613392 
L 336.119373 112.582689 
L 337.014257 91.517516 
L 337.90914 147.126423 
L 338.804024 103.2933 
L 339.698907 117.726674 
L 340.593791 98.340671 
L 341.488674 68.926561 
L 342.383557 115.525664 
L 343.278441 126.090905 
L 344.173324 113.803658 
L 345.068208 144.121286 
L 345.963091 59.813086 
L 346.857975 90.213926 
L 347.752858 138.555394 
L 348.647742 105.531834 
L 349.542625 158.89011 
L 350.437509 98.99254 
L 351.332392 116.474132 
L 352.227276 91.312242 
L 353.122159 120.074237 
L 354.017042 109.782137 
L 354.911926 97.420924 
L 355.806809 115.303817 
L 356.701693 112.597344 
L 357.596576 118.229972 
L 358.49146 113.38298 
L 359.386343 111.73312 
L 361.17611 73.829126 
L 362.070994 103.433756 
L 362.965877 99.530215 
L 363.860761 101.290187 
L 364.755644 71.595805 
L 365.650527 89.360718 
L 367.440294 117.811311 
L 368.335178 95.917323 
L 369.230061 117.542793 
L 370.124945 121.438564 
L 371.019828 121.591461 
L 371.914712 107.845366 
L 372.809595 87.975097 
L 374.599362 108.395434 
L 375.494246 79.480147 
L 376.389129 109.199118 
L 377.284012 72.136136 
L 378.178896 77.54318 
L 379.073779 100.238394 
L 379.968663 96.696614 
L 380.863546 112.149913 
L 381.75843 44.290199 
L 382.653313 114.307842 
L 383.548197 89.710381 
L 384.44308 116.305595 
L 385.337964 84.112965 
L 386.232847 101.575622 
L 387.127731 112.046342 
L 388.022614 104.788443 
L 388.917497 82.072967 
L 389.812381 74.762102 
L 390.707264 145.278864 
L 391.602148 119.70387 
L 392.497031 97.420727 
L 393.391915 83.814005 
L 394.286798 111.668991 
L 395.181682 168.483229 
L 396.076565 122.526848 
L 396.971449 86.145438 
L 397.866332 102.573122 
L 398.761216 93.083132 
L 399.656099 218.46 
L 400.550982 90.843615 
L 401.445866 133.245282 
L 402.340749 134.269141 
L 403.235633 98.604124 
L 404.130516 97.457267 
L 405.0254 79.009897 
L 405.920283 81.205399 
L 407.71005 125.033211 
L 408.604934 130.182163 
L 409.499817 93.906832 
L 410.394701 107.324461 
L 411.289584 110.665196 
L 412.184467 78.020807 
L 413.079351 92.936676 
L 413.974234 115.06697 
L 414.869118 149.578345 
L 415.764001 72.147152 
L 416.658885 108.743081 
L 417.553768 114.632621 
L 418.448652 150.254607 
L 419.343535 60.498938 
L 420.238419 68.605815 
L 421.133302 106.138655 
L 422.028186 128.236343 
L 422.923069 80.538235 
L 423.817952 124.90387 
L 424.712836 111.955901 
L 425.607719 118.460721 
L 426.502603 76.789068 
L 427.397486 116.765911 
L 428.29237 122.977181 
L 429.187253 139.241639 
L 430.082137 125.559574 
L 430.97702 96.4788 
L 431.871904 104.056019 
L 432.766787 96.285576 
L 433.661671 121.117031 
L 434.556554 105.905005 
L 435.451437 98.499323 
L 436.346321 132.396058 
L 437.241204 123.315631 
L 438.136088 129.874351 
L 439.030971 96.292608 
L 439.925855 120.08068 
L 440.820738 97.283272 
L 441.715622 102.349308 
L 442.610505 109.070466 
L 443.505389 95.72936 
L 444.400272 94.16035 
L 445.295156 105.8334 
L 446.190039 88.83637 
L 447.979806 112.96481 
L 448.874689 104.05415 
L 449.769573 107.136007 
L 450.664456 62.618065 
L 451.55934 75.905221 
L 452.454223 119.396255 
L 453.349107 71.337763 
L 455.138874 108.064163 
L 456.033757 88.674177 
L 456.928641 115.434141 
L 457.823524 90.65757 
L 458.718407 85.239608 
L 459.613291 109.319165 
L 460.508174 100.508584 
L 461.403058 121.18534 
L 462.297941 101.309121 
L 463.192825 87.571632 
L 464.087708 131.306151 
L 464.982592 115.941129 
L 465.877475 55.288709 
L 466.772359 113.427389 
L 467.667242 123.238518 
L 468.562126 150.472568 
L 469.457009 135.413539 
L 470.351892 82.652788 
L 471.246776 122.389786 
L 472.141659 94.326723 
L 473.036543 148.705466 
L 473.931426 66.818254 
L 474.82631 103.233843 
L 475.721193 132.477892 
L 476.616077 185.558896 
L 477.51096 60.461709 
L 478.405844 104.188606 
L 479.300727 82.876848 
L 480.195611 155.586259 
L 481.090494 108.981452 
L 481.985377 109.182496 
L 482.880261 95.749278 
L 483.775144 123.257846 
L 484.670028 110.016868 
L 485.564911 100.338867 
L 486.459795 121.158636 
L 487.354678 131.099254 
L 488.249562 120.887315 
L 489.144445 113.470912 
L 490.039329 122.309624 
L 490.934212 107.423458 
L 491.829096 132.631822 
L 492.723979 140.994529 
L 493.618862 110.557691 
L 494.513746 90.315136 
L 495.408629 161.942017 
L 496.303513 122.1523 
L 497.198396 118.00065 
L 498.09328 111.790856 
L 498.988163 147.58974 
L 499.883047 82.663608 
L 500.77793 81.375903 
L 501.672814 131.529129 
L 502.567697 131.488556 
L 503.462581 101.266483 
L 504.357464 105.948725 
L 505.252347 71.374106 
L 506.147231 103.611096 
L 507.042114 96.392884 
L 507.936998 113.177411 
L 508.831881 63.155789 
L 509.726765 98.224953 
L 510.621648 96.738121 
L 511.516532 63.649252 
L 512.411415 126.051513 
L 513.306299 108.738212 
L 514.201182 45.770244 
L 515.096066 118.20976 
L 515.990949 107.998264 
L 516.885832 75.874287 
L 517.780716 122.021975 
L 518.675599 139.700824 
L 519.570483 110.163815 
L 520.465366 68.971265 
L 521.36025 104.623398 
L 522.255133 100.902557 
L 523.150017 152.863016 
L 524.0449 120.56352 
L 524.939784 65.604416 
L 525.834667 97.41576 
L 526.729551 143.468335 
L 527.624434 145.472973 
L 528.519317 111.930131 
L 529.414201 94.065287 
L 530.309084 58.06295 
L 531.203968 75.477216 
L 532.098851 153.870893 
L 532.993735 72.837725 
L 533.888618 105.737599 
L 534.783502 103.107994 
L 535.678385 72.48934 
L 536.573269 115.535893 
L 537.468152 102.263589 
L 538.363036 72.05199 
L 539.257919 113.369898 
L 540.152802 113.345899 
L 541.047686 77.34907 
L 541.942569 119.167572 
L 542.837453 177.239467 
L 543.732336 49.24573 
L 544.62722 98.838708 
L 545.522103 118.593701 
L 546.416987 100.95572 
L 547.31187 112.243255 
L 548.206754 154.216474 
L 549.101637 109.656091 
L 549.996521 92.738927 
L 550.891404 67.860211 
L 552.681171 124.790905 
L 553.576054 108.078327 
L 554.470938 61.627204 
L 556.260705 178.618842 
L 557.155588 110.231437 
L 558.050472 76.969407 
L 558.945355 136.962139 
L 559.840239 104.835311 
L 560.735122 101.350235 
L 561.630006 166.013848 
L 562.524889 87.850182 
L 563.419772 48.556387 
L 564.314656 115.789559 
L 565.209539 173.455775 
L 566.104423 93.964519 
L 566.999306 91.248653 
L 567.89419 118.03901 
L 568.789073 192.12332 
L 569.683957 86.398219 
L 570.57884 105.821991 
L 571.473724 137.349277 
L 572.368607 97.559166 
L 573.263491 83.078384 
L 575.053257 104.796213 
L 575.948141 103.598063 
L 576.843024 95.344386 
L 577.737908 119.530366 
L 578.632791 101.355989 
L 579.527675 100.588746 
L 580.422558 75.721537 
L 581.317442 148.849757 
L 583.107209 55.820826 
L 584.002092 129.35379 
L 584.896976 125.817125 
L 585.791859 87.186313 
L 586.686743 95.089343 
L 587.581626 122.068499 
L 588.476509 66.927136 
L 589.371393 73.666687 
L 590.266276 156.23857 
L 591.16116 130.921472 
L 592.056043 84.1318 
L 592.950927 122.563289 
L 593.84581 139.720348 
L 594.740694 112.273598 
L 595.635577 31.708615 
L 596.530461 111.42339 
L 597.425344 85.686941 
L 598.320228 170.486932 
L 599.215111 113.28831 
L 600.109994 91.039298 
L 601.004878 89.969555 
L 601.899761 26.86 
L 602.794645 118.847711 
L 603.689528 105.050617 
L 604.584412 112.231403 
L 605.479295 112.767012 
L 606.374179 101.797125 
L 607.269062 140.13837 
L 608.163946 107.462556 
L 609.058829 86.202781 
L 609.953713 125.005719 
L 610.848596 101.941121 
L 611.743479 61.367145 
L 612.638363 78.227753 
L 613.533246 118.806794 
L 614.42813 115.123526 
L 615.323013 122.210921 
L 616.217897 63.538845 
L 617.11278 117.223818 
L 618.007664 132.872701 
L 618.902547 158.015558 
L 619.797431 149.951418 
L 620.692314 108.016411 
L 621.587198 144.196383 
L 622.482081 68.467868 
L 623.376964 94.657453 
L 624.271848 154.434091 
L 625.166731 68.380526 
L 626.061615 106.089525 
L 626.956498 131.303495 
L 627.851382 118.080911 
L 628.746265 62.783454 
L 629.641149 148.662975 
L 631.430916 116.770091 
L 632.325799 97.531577 
L 633.220683 126.976522 
L 634.115566 114.013849 
L 635.010449 73.374465 
L 635.905333 101.018718 
L 636.800216 112.348252 
L 637.6951 140.534065 
L 638.589983 54.377469 
L 639.484867 65.196672 
L 640.37975 160.663115 
L 641.274634 95.425237 
L 642.169517 111.306246 
L 643.064401 138.82701 
L 643.959284 80.025986 
L 644.854168 90.531475 
L 645.749051 99.435545 
L 646.643934 95.779178 
L 647.538818 115.7931 
L 648.433701 110.427464 
L 649.328585 156.343961 
L 650.223468 112.058194 
L 651.118352 50.859247 
L 652.013235 126.032087 
L 652.908119 123.536445 
L 653.803002 60.870338 
L 654.697886 102.041889 
L 655.592769 105.391624 
L 656.487653 173.338286 
L 657.382536 139.387848 
L 658.277419 53.625128 
L 659.172303 160.290632 
L 660.067186 129.81568 
L 660.96207 82.431827 
L 661.856953 157.421918 
L 662.751837 136.870076 
L 663.64672 121.026885 
L 664.541604 107.762745 
L 665.436487 120.577782 
L 666.331371 108.288764 
L 667.226254 41.229195 
L 668.121138 101.956859 
L 669.016021 150.754561 
L 669.910904 80.404517 
L 670.805788 40.388921 
L 671.700671 148.499208 
L 673.490438 62.316548 
L 674.385322 107.221381 
L 675.280205 76.964834 
L 676.175089 115.160902 
L 677.069972 82.869963 
L 677.964856 95.742491 
L 678.859739 135.968672 
L 680.649506 66.883367 
L 681.544389 84.880208 
L 682.439273 167.787246 
L 683.334156 97.549085 
L 684.22904 78.844409 
L 685.123923 143.261832 
L 686.018807 103.889941 
L 686.91369 77.945711 
L 687.808574 145.837833 
L 688.703457 175.259566 
L 689.598341 69.226406 
L 690.493224 120.050238 
L 691.388108 127.78483 
L 692.282991 64.525918 
L 694.072758 143.648921 
L 694.967641 87.874821 
L 695.862525 96.651468 
L 696.757408 101.875418 
L 697.652292 60.766521 
L 698.547175 127.540016 
L 699.442059 123.253174 
L 700.336942 95.220602 
L 701.231826 49.846453 
L 702.126709 152.378406 
L 703.021593 97.228535 
L 703.916476 121.060376 
L 704.811359 84.105932 
L 705.706243 106.911947 
L 706.601126 95.475203 
L 707.49601 102.727347 
L 708.390893 93.80813 
L 709.285777 112.798487 
L 710.18066 148.415506 
L 711.075544 101.846353 
L 711.970427 102.515631 
L 712.865311 135.086154 
L 713.760194 41.206818 
L 714.655078 120.110974 
L 715.549961 129.940595 
L 716.444844 62.876501 
L 717.339728 102.83382 
L 718.234611 99.245419 
L 719.129495 150.738726 
L 720.024378 65.624579 
L 720.919262 120.873988 
L 721.814145 94.970133 
L 722.709029 117.016429 
L 723.603912 75.999694 
L 724.498796 129.290054 
L 725.393679 102.880786 
L 726.288563 117.129885 
L 727.183446 104.566891 
L 728.078329 55.033469 
L 728.973213 154.157115 
L 729.868096 82.312076 
L 730.76298 73.786094 
L 731.657863 148.236445 
L 732.552747 92.242464 
L 733.44763 59.195004 
L 734.342514 154.080592 
L 735.237397 105.151778 
L 736.132281 91.777575 
L 737.027164 63.053545 
L 737.922048 125.156748 
L 738.816931 119.810047 
L 739.711814 103.493312 
L 740.606698 132.203964 
L 741.501581 114.874828 
L 742.396465 89.989866 
L 743.291348 117.105591 
L 744.186232 88.274745 
L 745.081115 130.421468 
L 745.975999 103.990611 
L 746.870882 89.654858 
L 747.765766 133.65819 
L 748.660649 124.065661 
L 749.555533 118.465147 
L 750.450416 59.278903 
L 751.345299 154.30775 
L 752.240183 95.996206 
L 753.135066 106.470515 
L 754.02995 74.067251 
L 754.924833 144.472376 
L 756.7146 76.0233 
L 757.609484 111.534781 
L 758.504367 78.194704 
L 759.399251 126.52373 
L 760.294134 83.555077 
L 761.189018 88.197583 
L 762.083901 110.302009 
L 762.978784 103.499459 
L 763.873668 109.151808 
L 764.768551 119.039067 
L 765.663435 103.687471 
L 766.558318 114.206238 
L 767.453202 81.351854 
L 768.348085 174.707776 
L 769.242969 112.176174 
L 770.137852 108.642854 
L 771.032736 90.995529 
L 771.927619 165.509812 
L 772.822503 116.321578 
L 773.717386 99.356465 
L 774.612269 99.964122 
L 775.507153 98.887297 
L 776.402036 146.524521 
L 777.29692 65.774821 
L 778.191803 137.937557 
L 779.086687 100.970179 
L 779.98157 109.08699 
L 780.876454 95.546611 
L 781.771337 144.141007 
L 782.666221 99.243107 
L 783.561104 105.539408 
L 784.455988 62.831649 
L 785.350871 136.424956 
L 786.245754 102.132674 
L 787.140638 80.697526 
L 788.035521 117.032904 
L 788.930405 96.042926 
L 789.825288 53.151435 
L 790.720172 119.016395 
L 791.615055 125.221763 
L 792.509939 101.200288 
L 793.404822 122.319656 
L 794.299706 113.954097 
L 795.194589 125.28968 
L 796.089473 106.789146 
L 796.984356 159.464423 
L 797.879239 68.296971 
L 798.774123 129.628259 
L 799.669006 131.355477 
L 800.56389 126.549008 
L 801.458773 96.687959 
L 802.353657 128.952095 
L 803.24854 138.208878 
L 804.143424 82.052361 
L 805.038307 154.34075 
L 805.933191 123.432333 
L 806.828074 97.947091 
L 807.722958 129.74619 
L 808.617841 108.39268 
L 809.512724 117.797295 
L 810.407608 134.157505 
L 811.302491 69.885848 
L 812.197375 125.182371 
L 813.092258 94.325543 
L 813.987142 106.832375 
L 814.882025 123.093784 
L 815.776909 105.479655 
L 816.671792 102.254097 
L 817.566676 96.22597 
L 818.461559 84.087097 
L 819.356443 122.327918 
L 820.251326 89.584384 
L 821.146209 79.51954 
L 822.041093 145.572807 
L 822.935976 52.088478 
L 823.83086 78.819721 
L 824.725743 149.158405 
L 825.620627 78.553613 
L 826.51551 87.944557 
L 827.410394 88.97953 
L 828.305277 118.002863 
L 829.200161 105.48713 
L 830.095044 83.821677 
L 830.989928 156.376567 
L 831.884811 85.94464 
L 832.779694 76.412897 
L 833.674578 165.386963 
L 834.569461 43.749869 
L 835.464345 107.587618 
L 836.359228 126.570795 
L 837.254112 61.084218 
L 838.148995 133.025747 
L 839.043879 126.699988 
L 839.938762 62.679489 
L 840.833646 167.017003 
L 841.728529 117.796065 
L 842.623413 79.547818 
L 843.518296 138.062226 
L 844.413179 124.262673 
L 845.308063 96.832152 
L 846.202946 104.437403 
L 847.09783 129.331266 
L 848.887597 79.060846 
L 849.78248 119.31747 
L 850.677364 148.757251 
L 851.572247 90.40597 
L 852.467131 138.124929 
L 853.362014 109.311296 
L 854.256898 65.524647 
L 855.151781 180.004413 
L 856.046664 107.220644 
L 856.941548 96.127809 
L 857.836431 100.745676 
L 858.731315 65.090396 
L 859.626198 69.731967 
L 860.521082 125.351448 
L 861.415965 69.791769 
L 862.310849 77.411675 
L 863.205732 124.835658 
L 864.100616 81.169154 
L 864.995499 115.361061 
L 865.890383 121.097605 
L 866.785266 86.90673 
L 867.68015 118.91666 
L 868.575033 42.039027 
L 869.469916 67.012314 
L 870.3648 68.841235 
L 871.259683 119.642297 
L 872.154567 147.548282 
L 873.04945 52.244228 
L 873.944334 128.300325 
L 874.839217 119.62356 
L 875.734101 86.150946 
L 876.628984 140.590572 
L 877.523868 128.675365 
L 878.418751 137.701891 
L 879.313635 130.556022 
L 880.208518 137.203707 
L 881.103401 123.412219 
L 881.998285 106.005133 
L 882.893168 128.874835 
L 883.788052 104.926784 
L 884.682935 95.072967 
L 885.577819 107.244889 
L 886.472702 183.376328 
L 887.367586 122.809037 
L 888.262469 175.513822 
L 889.157353 108.050197 
L 890.052236 87.465306 
L 890.94712 118.295577 
L 891.842003 122.877199 
L 892.736886 68.007797 
L 893.63177 170.574668 
L 894.526653 80.073985 
L 895.421537 140.734716 
L 896.31642 73.107472 
L 897.211304 183.092516 
L 898.106187 59.823316 
L 899.001071 103.21663 
L 899.895954 110.967451 
L 900.790838 78.530893 
L 901.685721 124.950098 
L 902.580605 123.592116 
L 903.475488 107.373886 
L 904.370371 93.694625 
L 905.265255 121.719179 
L 906.160138 87.666695 
L 907.055022 99.853715 
L 907.949905 122.106612 
L 908.844789 108.480219 
L 909.739672 97.007426 
L 910.634556 92.539703 
L 911.529439 96.983919 
L 912.424323 84.499365 
L 913.319206 93.092968 
L 914.21409 94.402754 
L 915.108973 65.435682 
L 916.003856 114.250696 
L 916.89874 92.718666 
L 917.793623 144.662551 
L 918.688507 95.594216 
L 919.58339 95.16744 
L 920.478274 158.279699 
L 921.373157 86.513839 
L 922.268041 106.994027 
L 923.162924 138.738881 
L 924.057808 114.126174 
L 924.952691 58.59197 
L 925.847575 109.851381 
L 926.742458 127.114715 
L 927.637341 90.475411 
L 928.532225 138.596508 
L 929.427108 108.075966 
L 930.321992 130.966864 
L 931.216875 105.556522 
L 932.111759 138.022588 
L 933.006642 127.094159 
L 933.901526 99.702834 
L 934.796409 113.404127 
L 935.691293 86.003261 
L 936.586176 131.704305 
L 937.48106 89.659235 
L 938.375943 81.613487 
L 939.270826 117.46568 
L 940.16571 100.796675 
L 941.060593 55.286201 
L 941.955477 117.198736 
L 942.85036 151.324596 
L 943.745244 77.426625 
L 944.640127 39.131953 
L 945.535011 111.016532 
L 946.429894 84.681721 
L 947.324778 121.358992 
L 948.219661 92.713551 
L 949.114545 122.622501 
L 950.009428 100.824707 
L 950.904311 52.525877 
L 951.799195 134.272092 
L 952.694078 105.646962 
L 953.588962 89.733741 
L 954.483845 132.511137 
L 955.378729 120.182726 
L 956.273612 65.349225 
L 957.168496 144.554013 
L 958.063379 104.532171 
L 958.958263 129.601456 
L 959.853146 84.01082 
L 960.74803 97.390925 
L 961.642913 121.776768 
L 962.537796 171.096753 
L 963.43268 118.793221 
L 964.327563 118.299315 
L 965.222447 99.279549 
L 966.11733 116.8205 
L 967.012214 58.512103 
L 967.907097 119.308863 
L 968.801981 151.529575 
L 970.591748 71.055573 
L 971.486631 69.039722 
L 972.381515 77.316218 
L 974.171281 137.298967 
L 975.066165 92.984577 
L 975.961048 73.409137 
L 976.855932 125.423594 
L 977.750815 86.584361 
L 978.645699 130.61425 
L 979.540582 96.341099 
L 980.435466 112.912631 
L 981.330349 88.422971 
L 982.225233 113.81133 
L 983.120116 72.847216 
L 984.015 96.946149 
L 984.909883 127.265548 
L 985.804766 73.347663 
L 986.69965 123.301959 
L 987.594533 57.459769 
L 988.489417 144.583668 
L 989.3843 166.039667 
L 990.279184 119.036952 
L 991.174067 80.326372 
L 992.068951 119.254324 
L 992.963834 108.219569 
L 993.858718 156.246144 
L 994.753601 47.810094 
L 995.648485 143.731099 
L 996.543368 63.090479 
L 997.438251 138.629753 
L 998.333135 126.753643 
L 999.228018 66.945283 
L 1000.122902 120.927544 
L 1001.017785 82.736245 
L 1001.912669 128.898687 
L 1002.807552 70.605142 
L 1003.702436 123.538511 
L 1004.597319 92.53208 
L 1005.492203 109.673402 
L 1006.387086 96.902035 
L 1007.28197 70.085319 
L 1008.176853 109.342279 
L 1009.071736 117.017708 
L 1009.96662 96.685942 
L 1010.861503 82.038394 
L 1011.756387 70.826694 
L 1012.65127 132.117114 
L 1013.546154 126.06066 
L 1014.441037 131.843432 
L 1015.335921 62.403595 
L 1016.230804 108.457104 
L 1017.125688 169.799015 
L 1018.020571 92.778172 
L 1018.915455 132.577823 
L 1018.915455 132.577823 
" clip-path="url(#p2413b60cb0)" style="fill: none; stroke: #d2dbe0; stroke-width: 1.5; stroke-linecap: square"/>
   </g>
   <g id="line2d_13">
    <path d="M 151.77338 105.936322 
L 152.668264 107.146789 
L 153.563147 106.843428 
L 155.352914 108.739813 
L 156.247797 106.242887 
L 157.142681 107.860825 
L 158.037564 105.745618 
L 158.932448 104.443228 
L 159.827331 100.97651 
L 160.722215 99.789074 
L 161.617098 99.117007 
L 162.511982 99.395445 
L 163.406865 101.947129 
L 164.301749 102.076017 
L 165.196632 102.812324 
L 166.091515 103.222873 
L 166.986399 104.040936 
L 167.881282 104.557542 
L 168.776166 103.165796 
L 169.671049 102.917557 
L 170.565933 102.288997 
L 171.460816 104.383913 
L 172.3557 104.976686 
L 173.250583 104.904388 
L 174.145467 106.038927 
L 175.04035 106.142518 
L 175.935234 108.848742 
L 176.830117 108.256985 
L 177.725 109.903739 
L 178.619884 110.884141 
L 179.514767 113.198922 
L 180.409651 113.096008 
L 181.304534 111.35153 
L 182.199418 109.296744 
L 183.094301 110.162495 
L 183.989185 107.794699 
L 184.884068 108.600107 
L 185.778952 108.756079 
L 186.673835 112.613873 
L 187.568719 112.415332 
L 188.463602 113.516024 
L 190.253369 109.463481 
L 191.148252 109.962122 
L 192.043136 109.974331 
L 192.938019 109.578469 
L 193.832903 107.38365 
L 194.727786 107.695335 
L 195.62267 107.07303 
L 196.517553 106.145874 
L 197.412437 104.268524 
L 198.30732 102.832217 
L 199.202204 102.936154 
L 200.097087 105.577091 
L 200.99197 104.986853 
L 201.886854 107.637953 
L 202.781737 105.701785 
L 203.676621 104.500458 
L 204.571504 102.814886 
L 205.466388 103.187764 
L 206.361271 103.828413 
L 207.256155 103.613446 
L 208.151038 106.572997 
L 209.045922 104.616882 
L 209.940805 104.60857 
L 210.835689 104.165976 
L 211.730572 106.992959 
L 212.625455 108.365845 
L 214.415222 107.984255 
L 215.310106 108.603963 
L 216.204989 111.041463 
L 217.099873 112.952543 
L 217.994756 110.846935 
L 218.88964 110.524077 
L 219.784523 109.709322 
L 221.57429 114.631499 
L 222.469174 112.366156 
L 223.364057 111.325138 
L 224.25894 109.884872 
L 225.153824 111.337415 
L 226.048707 109.694475 
L 226.943591 111.039294 
L 227.838474 109.980318 
L 228.733358 110.586394 
L 230.523125 105.879936 
L 231.418008 107.475647 
L 232.312892 107.790772 
L 233.207775 108.903877 
L 234.102659 106.520587 
L 234.997542 103.526635 
L 235.892425 104.486982 
L 236.787309 104.151542 
L 237.682192 102.55078 
L 238.577076 99.562636 
L 239.471959 98.60193 
L 240.366843 102.269615 
L 241.261726 103.897278 
L 242.15661 103.20542 
L 243.051493 102.738049 
L 243.946377 101.782219 
L 244.84126 101.786972 
L 245.736144 103.236811 
L 246.631027 101.826952 
L 247.52591 101.899322 
L 248.420794 103.975653 
L 249.315677 102.427038 
L 250.210561 102.523928 
L 251.105444 101.136642 
L 252.895211 107.116232 
L 253.790095 108.130624 
L 254.684978 108.311288 
L 255.579862 111.186625 
L 256.474745 110.895362 
L 257.369629 109.905741 
L 258.264512 108.006417 
L 259.159395 106.944459 
L 260.054279 108.711392 
L 260.949162 108.675986 
L 262.738929 106.55667 
L 263.633813 106.962786 
L 264.528696 108.934651 
L 265.42358 110.113798 
L 266.318463 107.741642 
L 268.10823 105.787622 
L 269.003114 105.601339 
L 269.897997 103.356618 
L 271.687764 100.269104 
L 272.582647 97.986712 
L 273.477531 97.090581 
L 274.372414 100.359987 
L 275.267298 101.792564 
L 276.162181 102.103179 
L 277.057065 103.209359 
L 277.951948 101.875701 
L 278.846832 99.515127 
L 279.741715 104.49734 
L 280.636599 106.615205 
L 282.426365 104.635014 
L 283.321249 104.995762 
L 284.216132 106.67376 
L 285.111016 109.16206 
L 286.005899 111.031883 
L 286.900783 112.437468 
L 287.795666 113.332151 
L 288.69055 113.669716 
L 289.585433 113.119508 
L 290.480317 118.033261 
L 291.3752 117.302325 
L 292.270084 115.541834 
L 293.164967 115.155734 
L 294.05985 115.390212 
L 294.954734 113.326471 
L 295.849617 114.240784 
L 296.744501 118.805948 
L 297.639384 115.295901 
L 298.534268 114.178068 
L 299.429151 114.355415 
L 300.324035 115.153248 
L 301.218918 111.55907 
L 303.008685 111.328172 
L 303.903569 110.571331 
L 304.798452 109.363318 
L 305.693336 109.855935 
L 306.588219 107.089766 
L 307.483102 108.152961 
L 308.377986 105.967578 
L 309.272869 105.263277 
L 310.167753 105.33499 
L 311.062636 102.281556 
L 311.95752 101.164409 
L 312.852403 102.835406 
L 313.747287 103.356648 
L 314.64217 101.733013 
L 315.537054 102.661076 
L 316.431937 102.887993 
L 317.326821 102.880039 
L 318.221704 99.852486 
L 319.116587 104.240347 
L 320.011471 104.452754 
L 320.906354 101.686327 
L 321.801238 100.720573 
L 322.696121 98.846724 
L 323.591005 96.663458 
L 324.485888 101.235384 
L 325.380772 102.423571 
L 326.275655 101.885869 
L 327.170539 103.026228 
L 328.065422 102.368588 
L 328.960306 107.170161 
L 329.855189 107.641592 
L 330.750072 107.838731 
L 331.644956 106.608615 
L 332.539839 104.020379 
L 333.434723 103.983787 
L 334.329606 104.678948 
L 335.22449 104.925879 
L 336.119373 109.142147 
L 337.014257 104.926152 
L 337.90914 103.611361 
L 338.804024 106.883354 
L 339.698907 107.654418 
L 340.593791 112.472464 
L 341.488674 113.526979 
L 342.383557 112.075131 
L 343.278441 110.0226 
L 344.173324 110.945642 
L 345.068208 110.805615 
L 345.963091 111.100785 
L 346.857975 109.509655 
L 347.752858 109.974857 
L 348.647742 110.000022 
L 349.542625 110.752137 
L 350.437509 112.892465 
L 351.332392 111.712853 
L 352.227276 109.099764 
L 353.122159 108.581269 
L 354.017042 106.351716 
L 354.911926 108.425571 
L 355.806809 107.494665 
L 356.701693 105.034931 
L 357.596576 104.920199 
L 358.49146 102.866259 
L 359.386343 102.712498 
L 360.281227 102.765931 
L 361.17611 104.272247 
L 362.070994 104.348108 
L 362.965877 104.25127 
L 363.860761 103.778978 
L 364.755644 102.954722 
L 365.650527 102.744626 
L 366.545411 100.807135 
L 367.440294 100.597942 
L 368.335178 98.618093 
L 369.230061 97.898581 
L 370.124945 99.219044 
L 371.019828 98.882187 
L 371.914712 99.513172 
L 372.809595 96.663173 
L 373.704479 98.798774 
L 374.599362 98.816258 
L 375.494246 99.469678 
L 376.389129 97.784761 
L 377.284012 98.067676 
L 378.178896 97.792853 
L 379.073779 96.960347 
L 379.968663 94.984422 
L 380.863546 93.330259 
L 381.75843 96.195447 
L 382.653313 97.239706 
L 383.548197 96.690971 
L 385.337964 97.031158 
L 386.232847 101.848512 
L 387.127731 104.097696 
L 388.022614 103.393048 
L 388.917497 103.686873 
L 389.812381 102.733534 
L 390.707264 111.442024 
L 391.602148 110.268813 
L 392.497031 112.445558 
L 393.391915 113.343735 
L 394.286798 114.068293 
L 395.181682 113.862375 
L 396.076565 112.210553 
L 396.971449 111.031401 
L 397.866332 112.117044 
L 398.761216 114.630599 
L 399.656099 113.875764 
L 400.550982 112.585912 
L 401.445866 113.081099 
L 402.340749 114.423659 
L 403.235633 112.74125 
L 404.130516 108.963922 
L 405.0254 108.590928 
L 405.920283 111.762573 
L 406.815167 110.241275 
L 407.71005 111.024272 
L 408.604934 105.832903 
L 409.499817 108.803453 
L 411.289584 101.88297 
L 412.184467 102.259696 
L 413.079351 103.79865 
L 413.974234 103.875067 
L 414.869118 106.05999 
L 415.764001 106.468494 
L 416.658885 106.139869 
L 417.553768 103.470215 
L 418.448652 104.613169 
L 419.343535 105.395805 
L 420.238419 106.824627 
L 421.133302 109.201565 
L 422.028186 109.378671 
L 422.923069 108.828124 
L 423.817952 106.163485 
L 424.712836 108.611979 
L 425.607719 108.470075 
L 427.397486 106.770483 
L 429.187253 112.974744 
L 430.97702 112.074659 
L 431.871904 112.911911 
L 432.766787 111.784183 
L 433.661671 111.639911 
L 434.556554 110.503343 
L 435.451437 111.371907 
L 436.346321 110.825282 
L 438.136088 107.230113 
L 439.030971 106.600375 
L 439.925855 106.979143 
L 440.820738 107.133142 
L 441.715622 105.449766 
L 442.610505 103.189176 
L 443.505389 103.863738 
L 444.400272 102.50566 
L 445.295156 100.37449 
L 446.190039 99.611916 
L 447.084922 97.551908 
L 447.979806 98.508984 
L 448.874689 97.037829 
L 449.769573 96.435646 
L 450.664456 96.784138 
L 451.55934 96.356044 
L 452.454223 97.628843 
L 453.349107 97.986282 
L 454.24399 97.073193 
L 455.138874 99.196682 
L 456.033757 99.919785 
L 456.928641 97.03598 
L 457.823524 97.504641 
L 458.718407 98.309767 
L 459.613291 102.702492 
L 460.508174 105.677908 
L 461.403058 103.840735 
L 462.297941 106.393336 
L 463.192825 106.62104 
L 464.087708 108.653105 
L 464.982592 107.560309 
L 465.877475 106.950294 
L 466.772359 109.04131 
L 467.667242 114.057275 
L 468.562126 111.614402 
L 469.457009 111.798403 
L 470.351892 109.882978 
L 471.246776 112.596835 
L 472.141659 113.667326 
L 473.931426 111.551551 
L 474.82631 114.950008 
L 475.721193 114.779482 
L 476.616077 113.634499 
L 477.51096 112.168803 
L 478.405844 111.953088 
L 479.300727 113.864815 
L 480.195611 113.418871 
L 481.090494 114.818016 
L 481.985377 112.753916 
L 482.880261 116.044594 
L 483.775144 117.932628 
L 484.670028 116.836618 
L 485.564911 112.07443 
L 486.459795 117.148446 
L 487.354678 118.04663 
L 488.249562 119.80282 
L 489.144445 117.61305 
L 490.039329 119.543465 
L 490.934212 118.21752 
L 491.829096 117.498852 
L 492.723979 117.912416 
L 493.618862 118.986 
L 494.513746 119.032381 
L 495.408629 118.271885 
L 496.303513 115.285628 
L 498.09328 113.567916 
L 498.988163 113.111305 
L 499.883047 110.897921 
L 500.77793 109.177578 
L 502.567697 104.619336 
L 503.462581 106.406155 
L 504.357464 103.745964 
L 505.252347 99.926861 
L 506.147231 99.937317 
L 507.042114 99.747687 
L 507.936998 96.161915 
L 508.831881 98.129833 
L 509.726765 101.046079 
L 510.621648 99.977813 
L 511.516532 96.851949 
L 512.411415 97.019795 
L 513.306299 96.767486 
L 514.201182 100.841932 
L 515.096066 101.689553 
L 515.990949 100.15013 
L 516.885832 99.362047 
L 517.780716 103.377674 
L 518.675599 105.740075 
L 519.570483 106.499676 
L 520.465366 108.020478 
L 521.36025 104.62105 
L 522.255133 102.958 
L 523.150017 108.363032 
L 524.0449 106.09443 
L 524.939784 105.981397 
L 525.834667 107.343083 
L 526.729551 104.866451 
L 527.624434 103.658204 
L 528.519317 103.263193 
L 529.414201 103.417229 
L 530.309084 103.854554 
L 531.203968 104.476721 
L 532.098851 100.701024 
L 532.993735 100.631227 
L 533.888618 106.212979 
L 535.678385 101.572996 
L 536.573269 100.229033 
L 537.468152 99.680312 
L 538.363036 100.58921 
L 539.257919 105.396887 
L 540.152802 107.10583 
L 541.047686 104.049232 
L 541.942569 103.800356 
L 542.837453 103.272687 
L 543.732336 104.356832 
L 544.62722 106.136282 
L 545.522103 103.440847 
L 546.416987 104.185881 
L 547.31187 109.514224 
L 548.206754 109.357301 
L 549.101637 107.538476 
L 549.996521 110.519129 
L 550.891404 109.802516 
L 551.786287 106.008055 
L 552.681171 111.846461 
L 553.576054 111.297034 
L 554.470938 107.795169 
L 555.365821 108.536861 
L 556.260705 111.597487 
L 557.155588 108.584889 
L 558.050472 107.664517 
L 558.945355 108.929521 
L 559.840239 115.142677 
L 560.735122 114.703377 
L 561.630006 113.754931 
L 562.524889 115.218479 
L 563.419772 117.015077 
L 564.314656 115.310783 
L 565.209539 111.087679 
L 566.104423 110.815918 
L 566.999306 112.147351 
L 567.89419 110.066463 
L 568.789073 110.801216 
L 569.683957 110.801503 
L 570.57884 107.530248 
L 571.473724 106.923816 
L 572.368607 111.938485 
L 573.263491 111.272932 
L 574.158374 105.391184 
L 575.948141 108.889071 
L 576.843024 107.346437 
L 577.737908 102.494738 
L 578.632791 104.278252 
L 579.527675 102.333509 
L 580.422558 99.149379 
L 581.317442 102.08335 
L 582.212325 104.475504 
L 583.107209 103.974256 
L 584.002092 104.86261 
L 584.896976 106.668724 
L 585.791859 107.515185 
L 586.686743 103.124097 
L 587.581626 103.627467 
L 588.476509 102.882377 
L 589.371393 107.620647 
L 590.266276 105.842574 
L 591.16116 105.270614 
L 592.056043 106.978051 
L 592.950927 101.853361 
L 593.84581 101.504891 
L 595.635577 103.255209 
L 596.530461 102.790134 
L 597.425344 104.533634 
L 598.320228 107.857218 
L 600.109994 103.182483 
L 601.004878 105.226179 
L 601.899761 104.19507 
L 602.794645 100.27741 
L 603.689528 98.575118 
L 604.584412 102.930027 
L 605.479295 103.115033 
L 606.374179 104.941232 
L 607.269062 99.593828 
L 608.163946 99.790603 
L 609.058829 101.882274 
L 609.953713 105.284574 
L 610.848596 111.439145 
L 611.743479 110.89758 
L 612.638363 112.854868 
L 613.533246 110.666691 
L 614.42813 109.761213 
L 615.323013 112.393062 
L 616.217897 108.805169 
L 617.11278 108.736518 
L 618.007664 110.991554 
L 618.902547 110.645313 
L 619.797431 108.68743 
L 620.692314 113.052221 
L 621.587198 115.786647 
L 622.482081 115.684812 
L 623.376964 114.805215 
L 624.271848 115.043495 
L 625.166731 117.567245 
L 626.061615 115.374777 
L 626.956498 113.782078 
L 627.851382 111.498713 
L 628.746265 111.027845 
L 629.641149 108.345898 
L 630.536032 104.395913 
L 631.430916 109.005675 
L 632.325799 109.044064 
L 633.220683 106.887672 
L 634.115566 110.409996 
L 635.010449 109.106819 
L 635.905333 107.068218 
L 636.800216 106.13595 
L 637.6951 107.785736 
L 638.589983 106.142242 
L 639.484867 105.017802 
L 640.37975 106.996495 
L 641.274634 107.722826 
L 642.169517 103.916962 
L 643.064401 104.517874 
L 643.959284 107.025973 
L 644.854168 105.018554 
L 645.749051 104.503236 
L 646.643934 102.746114 
L 647.538818 108.694155 
L 648.433701 112.403714 
L 649.328585 107.051814 
L 650.223468 110.295084 
L 651.118352 111.220556 
L 652.013235 108.400797 
L 652.908119 112.270593 
L 653.803002 114.587523 
L 654.697886 115.66709 
L 655.592769 116.266269 
L 656.487653 116.505503 
L 657.382536 116.398568 
L 658.277419 110.64283 
L 659.172303 110.137763 
L 660.067186 115.132529 
L 660.96207 112.85115 
L 661.856953 108.693774 
L 662.751837 113.075217 
L 663.64672 113.148376 
L 664.541604 110.994622 
L 666.331371 104.567626 
L 667.226254 107.644415 
L 668.121138 103.773382 
L 669.016021 102.069722 
L 669.910904 104.746564 
L 670.805788 101.850125 
L 671.700671 98.35079 
L 672.595555 96.543456 
L 673.490438 99.544681 
L 674.385322 98.393246 
L 675.280205 96.921028 
L 676.175089 102.02266 
L 677.069972 102.119314 
L 677.964856 98.478872 
L 678.859739 101.750538 
L 679.754623 108.49407 
L 680.649506 104.53043 
L 681.544389 105.357688 
L 682.439273 108.631102 
L 683.334156 106.496329 
L 685.123923 109.239558 
L 686.018807 109.489801 
L 686.91369 109.53525 
L 688.703457 105.894257 
L 689.598341 108.927089 
L 690.493224 110.845738 
L 691.388108 107.217405 
L 692.282991 104.832274 
L 693.177874 108.508974 
L 694.072758 106.207309 
L 694.967641 107.06583 
L 695.862525 107.373842 
L 696.757408 105.427547 
L 697.652292 101.438329 
L 698.547175 103.113376 
L 699.442059 101.801271 
L 700.336942 101.051954 
L 701.231826 105.246433 
L 702.126709 105.171681 
L 703.021593 103.115016 
L 703.916476 105.475583 
L 704.811359 102.70335 
L 705.706243 103.615128 
L 706.601126 107.073832 
L 707.49601 103.840656 
L 708.390893 102.819688 
L 709.285777 103.020929 
L 710.18066 108.065543 
L 711.075544 103.727852 
L 711.970427 104.910124 
L 712.865311 103.605612 
L 713.760194 105.251137 
L 714.655078 103.705524 
L 715.549961 105.396267 
L 716.444844 105.403939 
L 717.339728 106.570027 
L 718.234611 106.158447 
L 719.129495 101.489345 
L 720.024378 104.104883 
L 720.919262 103.094705 
L 721.814145 100.029702 
L 722.709029 105.381184 
L 723.603912 103.987758 
L 724.498796 100.450479 
L 725.393679 105.010683 
L 726.288563 105.126581 
L 727.183446 104.753189 
L 728.078329 100.36893 
L 728.973213 103.345538 
L 729.868096 103.292341 
L 730.76298 103.7185 
L 731.657863 104.477877 
L 732.552747 106.421634 
L 733.44763 104.456624 
L 734.342514 105.167864 
L 735.237397 103.725107 
L 736.132281 105.017836 
L 737.027164 107.465693 
L 737.922048 104.24058 
L 739.711814 109.321865 
L 741.501581 106.185122 
L 742.396465 110.940759 
L 743.291348 108.03654 
L 744.186232 108.102476 
L 745.081115 107.21696 
L 745.975999 111.287902 
L 746.870882 110.529319 
L 747.765766 108.339982 
L 748.660649 108.742055 
L 749.555533 106.041592 
L 750.450416 106.624038 
L 751.345299 106.302298 
L 752.240183 104.856898 
L 753.135066 105.958261 
L 754.02995 104.61216 
L 754.924833 104.87022 
L 755.819717 106.339431 
L 756.7146 104.840895 
L 757.609484 104.347924 
L 758.504367 102.492259 
L 759.399251 108.263703 
L 760.294134 106.157124 
L 761.189018 106.789456 
L 762.083901 106.015707 
L 762.978784 110.587835 
L 763.873668 109.180295 
L 764.768551 108.648863 
L 765.663435 109.845905 
L 766.558318 109.21353 
L 767.453202 112.630021 
L 768.348085 109.592576 
L 769.242969 112.3117 
L 770.137852 112.95033 
L 771.032736 112.889579 
L 771.927619 112.491936 
L 772.822503 114.241396 
L 773.717386 113.251598 
L 774.612269 113.344195 
L 775.507153 110.775466 
L 776.402036 113.529121 
L 777.29692 109.900366 
L 778.191803 108.326433 
L 779.086687 108.745936 
L 779.98157 108.998305 
L 780.876454 103.380387 
L 781.771337 103.515127 
L 782.666221 104.808392 
L 783.561104 104.870201 
L 784.455988 106.041819 
L 785.350871 104.413297 
L 786.245754 107.38904 
L 787.140638 105.83162 
L 788.035521 108.756332 
L 788.930405 106.716831 
L 789.825288 108.420913 
L 790.720172 107.781637 
L 791.615055 109.146932 
L 792.509939 108.70436 
L 793.404822 112.010382 
L 794.299706 112.099578 
L 795.194589 111.095562 
L 796.089473 114.777724 
L 796.984356 115.097695 
L 797.879239 115.192903 
L 798.774123 119.022641 
L 799.669006 118.491455 
L 800.56389 118.120232 
L 801.458773 119.768093 
L 802.353657 117.146402 
L 803.24854 117.707816 
L 804.143424 116.159609 
L 805.038307 116.161771 
L 805.933191 114.343239 
L 806.828074 116.202373 
L 807.722958 114.833665 
L 808.617841 113.077189 
L 809.512724 110.954094 
L 810.407608 112.236092 
L 811.302491 110.267706 
L 812.197375 107.333239 
L 813.092258 110.509262 
L 813.987142 105.396648 
L 814.882025 103.166017 
L 815.776909 105.726583 
L 816.671792 103.166954 
L 817.566676 102.144548 
L 818.461559 100.70366 
L 819.356443 99.895928 
L 820.251326 101.675992 
L 821.146209 99.607957 
L 822.041093 102.710508 
L 822.935976 101.666122 
L 823.83086 99.332077 
L 824.725743 102.327443 
L 825.620627 99.402231 
L 826.51551 99.970314 
L 827.410394 102.094499 
L 828.305277 99.032314 
L 830.095044 103.563404 
L 830.989928 99.418738 
L 831.884811 105.165165 
L 832.779694 107.113982 
L 833.674578 103.633452 
L 834.569461 106.608883 
L 835.464345 108.424789 
L 836.359228 108.81742 
L 837.254112 108.139147 
L 838.148995 109.331354 
L 839.043879 110.309159 
L 839.938762 106.443373 
L 840.833646 108.112015 
L 841.728529 111.729232 
L 842.623413 107.980183 
L 843.518296 112.698936 
L 844.413179 112.78512 
L 845.308063 109.732812 
L 846.202946 115.678822 
L 847.09783 114.388567 
L 847.992713 112.859958 
L 848.887597 114.763267 
L 849.78248 109.666937 
L 850.677364 107.263732 
L 851.572247 109.553914 
L 852.467131 106.140391 
L 853.362014 103.797841 
L 854.256898 105.198016 
L 855.151781 104.034604 
L 856.046664 103.336093 
L 856.941548 104.222084 
L 857.836431 104.614378 
L 858.731315 104.594338 
L 859.626198 99.258427 
L 860.521082 98.088744 
L 861.415965 94.624559 
L 862.310849 95.141109 
L 863.205732 99.242291 
L 864.100616 92.854282 
L 865.890383 95.083053 
L 866.785266 94.353317 
L 867.68015 98.128326 
L 868.575033 101.075496 
L 869.469916 101.693018 
L 871.259683 107.720832 
L 872.154567 107.64966 
L 873.04945 108.891459 
L 873.944334 109.567148 
L 874.839217 108.758607 
L 875.734101 109.166918 
L 876.628984 108.58333 
L 877.523868 115.650195 
L 878.418751 118.440031 
L 879.313635 123.77366 
L 880.208518 123.194055 
L 881.103401 120.189907 
L 881.998285 123.492474 
L 882.893168 123.221318 
L 883.788052 120.64053 
L 884.682935 124.861716 
L 885.577819 121.835886 
L 886.472702 122.438854 
L 887.367586 119.209133 
L 888.262469 121.835958 
L 889.157353 117.966938 
L 890.052236 116.957159 
L 890.94712 117.205275 
L 891.842003 114.688077 
L 892.736886 115.689243 
L 893.63177 117.115201 
L 894.526653 117.12165 
L 895.421537 112.637565 
L 896.31642 112.583072 
L 897.211304 108.190716 
L 898.106187 107.780892 
L 899.001071 109.512957 
L 899.895954 109.022189 
L 900.790838 107.728701 
L 901.685721 108.955296 
L 902.580605 105.275758 
L 903.475488 105.497027 
L 904.370371 103.11494 
L 905.265255 104.179704 
L 906.160138 98.296862 
L 907.055022 101.018231 
L 907.949905 100.493333 
L 908.844789 102.178088 
L 909.739672 103.031254 
L 910.634556 101.542122 
L 911.529439 103.276501 
L 912.424323 102.233498 
L 913.319206 102.898468 
L 914.21409 103.749454 
L 915.108973 105.072428 
L 916.003856 103.00934 
L 916.89874 102.396579 
L 917.793623 103.328304 
L 918.688507 103.001703 
L 919.58339 105.304543 
L 920.478274 105.859145 
L 921.373157 108.18252 
L 922.268041 108.805698 
L 923.162924 110.98669 
L 924.057808 114.069614 
L 924.952691 113.34222 
L 925.847575 114.376494 
L 926.742458 111.443529 
L 927.637341 113.249033 
L 928.532225 112.973623 
L 929.427108 109.140313 
L 930.321992 110.687905 
L 931.216875 110.378037 
L 932.111759 106.205403 
L 933.006642 106.359031 
L 933.901526 110.995662 
L 934.796409 109.374425 
L 935.691293 104.975287 
L 936.586176 106.002343 
L 937.48106 103.306603 
L 938.375943 103.970755 
L 939.270826 102.058089 
L 940.16571 102.911388 
L 941.060593 101.051494 
L 941.955477 97.32308 
L 942.85036 99.051543 
L 943.745244 98.663684 
L 944.640127 98.850208 
L 945.535011 98.89055 
L 946.429894 100.416725 
L 947.324778 99.603511 
L 948.219661 100.957928 
L 949.114545 101.144703 
L 950.009428 104.860466 
L 950.904311 103.20107 
L 951.799195 100.504386 
L 952.694078 102.721893 
L 953.588962 109.320133 
L 954.483845 109.708968 
L 955.378729 111.389848 
L 956.273612 110.285875 
L 957.168496 111.491223 
L 958.063379 108.285703 
L 958.958263 109.209911 
L 959.853146 114.160096 
L 960.74803 113.069146 
L 961.642913 111.339577 
L 962.537796 110.304876 
L 963.43268 107.54513 
L 964.327563 106.879961 
L 965.222447 110.477448 
L 966.11733 107.898976 
L 967.012214 106.342824 
L 967.907097 106.133931 
L 968.801981 106.262608 
L 969.696864 107.923774 
L 970.591748 106.651991 
L 971.486631 103.742785 
L 972.381515 102.224272 
L 973.276398 101.999873 
L 974.171281 100.678256 
L 975.066165 99.684539 
L 975.961048 103.122211 
L 976.855932 100.824151 
L 977.750815 99.41277 
L 978.645699 96.663104 
L 979.540582 100.339508 
L 980.435466 105.189506 
L 981.330349 107.275542 
L 982.225233 105.947894 
L 983.120116 105.045662 
L 984.015 105.807411 
L 984.909883 109.949262 
L 985.804766 106.068587 
L 986.69965 108.925924 
L 987.594533 105.549735 
L 988.489417 107.664168 
L 989.3843 108.356218 
L 990.279184 107.282334 
L 991.174067 107.638145 
L 992.068951 108.132596 
L 992.963834 109.730223 
L 993.858718 106.897203 
L 994.753601 109.406745 
L 995.648485 107.868251 
L 996.543368 110.478933 
L 997.438251 108.094851 
L 998.333135 103.297134 
L 999.228018 102.8124 
L 1000.122902 104.646967 
L 1001.017785 103.518548 
L 1001.912669 102.209489 
L 1002.807552 97.938517 
L 1003.702436 102.153868 
L 1004.597319 101.270346 
L 1005.492203 104.707993 
L 1006.387086 100.896685 
L 1007.28197 99.981858 
L 1008.176853 105.124545 
L 1009.071736 103.717076 
L 1009.96662 106.209155 
L 1009.96662 106.209155 
" clip-path="url(#p2413b60cb0)" style="fill: none; stroke: #5dc694; stroke-width: 1.5; stroke-linecap: square"/>
   </g>
   <g id="patch_3">
    <path d="M 99.02 228.04 
L 99.02 17.28 
" style="fill: none; stroke: #000000; stroke-width: 0.8; stroke-linejoin: miter; stroke-linecap: square"/>
   </g>
   <g id="patch_4">
    <path d="M 1062.72 228.04 
L 1062.72 17.28 
" style="fill: none; stroke: #000000; stroke-width: 0.8; stroke-linejoin: miter; stroke-linecap: square"/>
   </g>
   <g id="patch_5">
    <path d="M 99.02 228.04 
L 1062.72 228.04 
" style="fill: none; stroke: #000000; stroke-width: 0.8; stroke-linejoin: miter; stroke-linecap: square"/>
   </g>
   <g id="patch_6">
    <path d="M 99.02 17.28 
L 1062.72 17.28 
" style="fill: none; stroke: #000000; stroke-width: 0.8; stroke-linejoin: miter; stroke-linecap: square"/>
   </g>
   <g id="legend_1">
    <g id="patch_7">
     <path d="M 854.2975 76.605 
L 1051.52 76.605 
Q 1054.72 76.605 1054.72 73.405 
L 1054.72 28.48 
Q 1054.72 25.28 1051.52 25.28 
L 854.2975 25.28 
Q 851.0975 25.28 851.0975 28.48 
L 851.0975 73.405 
Q 851.0975 76.605 854.2975 76.605 
z
" style="fill: #ffffff; opacity: 0.8; stroke: #cccccc; stroke-linejoin: miter"/>
    </g>
    <g id="line2d_14">
     <path d="M 857.4975 37.44 
L 873.4975 37.44 
L 889.4975 37.44 
" style="fill: none; stroke: #d2dbe0; stroke-width: 1.5; stroke-linecap: square"/>
    </g>
    <g id="text_14">
     <!-- 1st. Difference -->
     <g transform="translate(902.2975 43.04) scale(0.16 -0.16)">
      <use xlink:href="#Bahnschrift-31"/>
      <use xlink:href="#Bahnschrift-73" x="33.251953"/>
      <use xlink:href="#Bahnschrift-74" x="85.107422"/>
      <use xlink:href="#Bahnschrift-2e" x="117.724609"/>
      <use xlink:href="#Bahnschrift-20" x="140.380859"/>
      <use xlink:href="#Bahnschrift-44" x="167.236328"/>
      <use xlink:href="#Bahnschrift-69" x="232.861328"/>
      <use xlink:href="#Bahnschrift-66" x="257.958984"/>
      <use xlink:href="#Bahnschrift-66" x="289.648438"/>
      <use xlink:href="#Bahnschrift-65" x="321.337891"/>
      <use xlink:href="#Bahnschrift-72" x="374.951172"/>
      <use xlink:href="#Bahnschrift-65" x="417.626953"/>
      <use xlink:href="#Bahnschrift-6e" x="471.240234"/>
      <use xlink:href="#Bahnschrift-63" x="527.099609"/>
      <use xlink:href="#Bahnschrift-65" x="576.904297"/>
     </g>
    </g>
    <g id="line2d_15">
     <path d="M 857.4975 61.3075 
L 873.4975 61.3075 
L 889.4975 61.3075 
" style="fill: none; stroke: #5dc694; stroke-width: 1.5; stroke-linecap: square"/>
    </g>
    <g id="text_15">
     <!-- Rolling Average (20) -->
     <g transform="translate(902.2975 66.9075) scale(0.16 -0.16)">
      <defs>
       <path id="Bahnschrift-52" d="M 841 1922 
L 841 2528 
L 2391 2528 
Q 2669 2528 2837 2722 
Q 3006 2916 3006 3234 
L 3006 3234 
Q 3006 3553 2837 3747 
Q 2669 3941 2391 3941 
L 841 3941 
L 841 4547 
L 2366 4547 
Q 2763 4547 3059 4383 
Q 3356 4219 3520 3925 
Q 3684 3631 3684 3234 
L 3684 3234 
Q 3684 2841 3518 2545 
Q 3353 2250 3058 2086 
Q 2763 1922 2366 1922 
L 841 1922 
z
M 563 0 
L 563 4547 
L 1200 4547 
L 1200 0 
L 563 0 
z
M 3119 0 
L 2078 2063 
L 2713 2206 
L 3875 0 
L 3119 0 
z
" transform="scale(0.015625)"/>
       <path id="Bahnschrift-6f" d="M 1744 -47 
Q 1106 -47 756 323 
Q 406 694 406 1366 
L 406 1894 
Q 406 2559 756 2925 
Q 1106 3291 1744 3291 
Q 2381 3291 2731 2925 
Q 3081 2559 3081 1894 
L 3081 1356 
Q 3081 688 2731 320 
Q 2381 -47 1744 -47 
z
M 1744 559 
Q 2078 559 2261 768 
Q 2444 978 2444 1356 
L 2444 1894 
Q 2444 2272 2261 2478 
Q 2078 2684 1744 2684 
Q 1413 2684 1228 2478 
Q 1044 2272 1044 1894 
L 1044 1356 
Q 1044 978 1228 768 
Q 1413 559 1744 559 
z
" transform="scale(0.015625)"/>
       <path id="Bahnschrift-6c" d="M 1138 4544 
L 1138 838 
Q 1138 722 1189 656 
Q 1241 591 1334 591 
L 1634 591 
L 1634 -16 
L 1259 -16 
Q 900 -16 700 209 
Q 500 434 500 844 
L 500 4544 
L 1138 4544 
z
" transform="scale(0.015625)"/>
       <path id="Bahnschrift-67" d="M 1588 -1319 
Q 1222 -1319 933 -1183 
Q 644 -1047 484 -800 
L 484 -800 
L 916 -409 
L 916 -409 
Q 1041 -581 1214 -675 
Q 1388 -769 1578 -769 
Q 1944 -769 2144 -567 
Q 2344 -366 2344 3 
L 2344 3244 
L 2981 3244 
L 2981 97 
Q 2981 -578 2617 -948 
Q 2253 -1319 1588 -1319 
z
M 1528 -56 
Q 991 -56 698 289 
Q 406 634 406 1263 
L 406 1978 
Q 406 2609 692 2954 
Q 978 3300 1497 3300 
Q 1784 3300 2023 3150 
Q 2263 3000 2409 2728 
L 2344 2066 
Q 2344 2272 2269 2419 
Q 2194 2566 2051 2642 
Q 1909 2719 1706 2719 
Q 1391 2719 1217 2522 
Q 1044 2325 1044 1969 
L 1044 1263 
Q 1044 909 1217 717 
Q 1391 525 1706 525 
Q 1909 525 2051 604 
Q 2194 684 2269 834 
Q 2344 984 2344 1194 
L 2388 509 
Q 2300 291 2086 117 
Q 1872 -56 1528 -56 
z
" transform="scale(0.015625)"/>
       <path id="Bahnschrift-41" d="M 125 0 
L 1800 4544 
L 2344 4544 
L 4019 0 
L 3331 0 
L 2072 3666 
L 813 0 
L 125 0 
z
M 897 997 
L 897 1603 
L 3288 1603 
L 3288 997 
L 897 997 
z
" transform="scale(0.015625)"/>
       <path id="Bahnschrift-76" d="M 1616 928 
L 2409 3244 
L 3075 3244 
L 1856 0 
L 1375 0 
L 156 3244 
L 822 3244 
L 1616 928 
z
" transform="scale(0.015625)"/>
       <path id="Bahnschrift-28" d="M 1672 -978 
Q 1116 -375 839 373 
Q 563 1122 563 2025 
Q 563 2928 839 3676 
Q 1116 4425 1672 5028 
L 2109 4631 
Q 1638 4106 1403 3456 
Q 1169 2806 1169 2025 
Q 1169 1244 1403 594 
Q 1638 -56 2109 -584 
L 1672 -978 
z
" transform="scale(0.015625)"/>
       <path id="Bahnschrift-29" d="M 500 -978 
L 63 -584 
Q 534 -56 768 594 
Q 1003 1244 1003 2025 
Q 1003 2806 768 3456 
Q 534 4106 63 4631 
L 500 5028 
Q 1056 4425 1332 3676 
Q 1609 2928 1609 2025 
Q 1609 1122 1332 373 
Q 1056 -375 500 -978 
z
" transform="scale(0.015625)"/>
      </defs>
      <use xlink:href="#Bahnschrift-52"/>
      <use xlink:href="#Bahnschrift-6f" x="65.185547"/>
      <use xlink:href="#Bahnschrift-6c" x="119.677734"/>
      <use xlink:href="#Bahnschrift-6c" x="148.632812"/>
      <use xlink:href="#Bahnschrift-69" x="177.587891"/>
      <use xlink:href="#Bahnschrift-6e" x="202.685547"/>
      <use xlink:href="#Bahnschrift-67" x="258.544922"/>
      <use xlink:href="#Bahnschrift-20" x="312.451172"/>
      <use xlink:href="#Bahnschrift-41" x="339.306641"/>
      <use xlink:href="#Bahnschrift-76" x="404.052734"/>
      <use xlink:href="#Bahnschrift-65" x="454.052734"/>
      <use xlink:href="#Bahnschrift-72" x="507.666016"/>
      <use xlink:href="#Bahnschrift-61" x="550.341797"/>
      <use xlink:href="#Bahnschrift-67" x="603.564453"/>
      <use xlink:href="#Bahnschrift-65" x="657.470703"/>
      <use xlink:href="#Bahnschrift-20" x="711.083984"/>
      <use xlink:href="#Bahnschrift-28" x="737.939453"/>
      <use xlink:href="#Bahnschrift-32" x="771.875"/>
      <use xlink:href="#Bahnschrift-30" x="823.535156"/>
      <use xlink:href="#Bahnschrift-29" x="878.710938"/>
     </g>
    </g>
   </g>
  </g>
 </g>
 <defs>
  <clipPath id="p2413b60cb0">
   <rect x="99.02" y="17.28" width="963.7" height="210.76"/>
  </clipPath>
 </defs>
</svg>
