<?xml version="1.0" encoding="utf-8" standalone="no"?>
<!DOCTYPE svg PUBLIC "-//W3C//DTD SVG 1.1//EN"
  "http://www.w3.org/Graphics/SVG/1.1/DTD/svg11.dtd">
<svg xmlns:xlink="http://www.w3.org/1999/xlink" width="1080pt" height="288pt" viewBox="0 0 1080 288" xmlns="http://www.w3.org/2000/svg" version="1.1">
 <metadata>
  <rdf:RDF xmlns:dc="http://purl.org/dc/elements/1.1/" xmlns:cc="http://creativecommons.org/ns#" xmlns:rdf="http://www.w3.org/1999/02/22-rdf-syntax-ns#">
   <cc:Work>
    <dc:type rdf:resource="http://purl.org/dc/dcmitype/StillImage"/>
    <dc:date>2024-05-29T19:41:00.440343</dc:date>
    <dc:format>image/svg+xml</dc:format>
    <dc:creator>
     <cc:Agent>
      <dc:title>Matplotlib v3.8.2, https://matplotlib.org/</dc:title>
     </cc:Agent>
    </dc:creator>
   </cc:Work>
  </rdf:RDF>
 </metadata>
 <defs>
  <style type="text/css">*{stroke-linejoin: round; stroke-linecap: butt}</style>
 </defs>
 <g id="figure_1">
  <g id="patch_1">
   <path d="M 0 288 
L 1080 288 
L 1080 0 
L 0 0 
z
" style="fill: #ffffff"/>
  </g>
  <g id="axes_1">
   <g id="patch_2">
    <path d="M 74.6975 228.04 
L 1062.72 228.04 
L 1062.72 17.28 
L 74.6975 17.28 
z
" style="fill: #ffffff"/>
   </g>
   <g id="PolyCollection_1">
    <defs>
     <path id="m1927906fa1" d="M 119.607614 -109.678392 
L 119.607614 -72.577103 
L 120.506715 -70.999232 
L 121.405816 -71.622616 
L 122.304918 -72.29092 
L 123.204019 -70.444657 
L 124.103121 -71.23086 
L 125.002222 -70.138257 
L 125.901323 -73.63228 
L 126.800425 -73.748199 
L 127.699526 -73.32427 
L 128.598627 -71.518969 
L 129.497729 -71.141545 
L 130.39683 -71.554336 
L 131.295931 -69.54 
L 132.195033 -73.763983 
L 133.094134 -73.611429 
L 133.993236 -73.920759 
L 134.892337 -73.892782 
L 135.791438 -71.79082 
L 136.69054 -75.561366 
L 137.589641 -71.816158 
L 138.488742 -74.11343 
L 139.387844 -74.696722 
L 140.286945 -73.740229 
L 141.186047 -73.147963 
L 142.085148 -74.490326 
L 142.984249 -74.290793 
L 143.883351 -73.9007 
L 144.782452 -74.044279 
L 145.681553 -74.045863 
L 146.580655 -75.640018 
L 147.479756 -73.922342 
L 148.378858 -74.44968 
L 149.277959 -75.286348 
L 150.17706 -73.832077 
L 151.076162 -74.78118 
L 151.975263 -76.680969 
L 152.874364 -75.986298 
L 153.773466 -75.471101 
L 154.672567 -74.838718 
L 155.571669 -74.253314 
L 156.47077 -74.614375 
L 157.369871 -75.067283 
L 158.268973 -76.66355 
L 159.168074 -76.276096 
L 160.067175 -75.842718 
L 160.966277 -75.094205 
L 161.865378 -77.214642 
L 162.76448 -74.327743 
L 163.663581 -76.244952 
L 164.562682 -73.533833 
L 165.461784 -75.173912 
L 166.360885 -76.099261 
L 167.259986 -74.393199 
L 168.159088 -75.071506 
L 169.058189 -77.696055 
L 169.957291 -75.075201 
L 170.856392 -75.565589 
L 171.755493 -76.646658 
L 172.654595 -77.257927 
L 173.553696 -75.583536 
L 174.452797 -76.41862 
L 175.351899 -75.153853 
L 176.251 -75.873862 
L 177.150102 -76.366361 
L 178.049203 -75.191332 
L 178.948304 -76.022193 
L 179.847406 -75.19925 
L 180.746507 -75.847469 
L 181.645608 -76.16894 
L 182.54471 -75.920843 
L 183.443811 -75.907646 
L 184.342913 -75.813686 
L 185.242014 -76.171051 
L 186.141115 -77.196694 
L 187.040217 -76.644019 
L 187.939318 -79.311325 
L 188.838419 -77.545614 
L 189.737521 -76.388004 
L 190.636622 -78.935484 
L 191.535724 -77.407313 
L 192.434825 -77.335523 
L 193.333926 -76.984492 
L 194.233028 -79.458072 
L 195.132129 -76.290877 
L 196.03123 -77.449014 
L 196.930332 -76.379558 
L 197.829433 -78.371724 
L 198.728535 -76.542669 
L 199.627636 -78.03864 
L 200.526737 -76.582786 
L 201.425839 -78.491549 
L 202.32494 -77.972657 
L 203.224041 -77.127016 
L 204.123143 -78.865278 
L 205.022244 -78.215475 
L 205.921346 -79.831273 
L 206.820447 -78.895367 
L 207.719548 -78.028083 
L 208.61865 -78.818826 
L 209.517751 -76.712641 
L 210.416852 -78.461461 
L 211.315954 -78.712197 
L 212.215055 -79.349331 
L 213.114157 -80.112625 
L 214.013258 -78.199639 
L 214.912359 -78.893255 
L 215.811461 -77.641685 
L 216.710562 -76.453459 
L 217.609663 -79.256955 
L 218.508765 -79.038418 
L 219.407866 -78.930206 
L 220.306968 -78.673135 
L 221.206069 -78.238174 
L 222.10517 -79.193083 
L 223.004272 -79.75526 
L 223.903373 -79.601651 
L 224.802474 -77.561978 
L 225.701576 -79.403702 
L 226.600677 -80.524361 
L 227.499779 -79.305518 
L 228.39888 -79.356194 
L 229.297981 -82.135935 
L 230.197083 -79.621182 
L 231.096184 -81.023722 
L 231.995285 -82.106903 
L 232.894387 -80.958794 
L 233.793488 -80.730756 
L 234.69259 -80.467879 
L 235.591691 -79.157716 
L 236.490792 -79.84447 
L 237.389894 -80.659494 
L 238.288995 -81.670358 
L 239.188096 -80.88331 
L 240.087198 -80.901785 
L 240.986299 -80.027639 
L 241.885401 -82.435235 
L 242.784502 -81.554227 
L 243.683603 -79.540419 
L 244.582705 -80.121071 
L 245.481806 -79.236896 
L 246.380907 -82.656939 
L 247.280009 -82.70867 
L 248.17911 -81.290294 
L 249.078212 -81.024778 
L 249.977313 -83.104041 
L 250.876414 -80.803074 
L 251.775516 -81.327773 
L 252.674617 -80.099429 
L 253.573718 -80.019721 
L 254.47282 -80.117904 
L 255.371921 -82.024556 
L 256.271022 -79.90623 
L 257.170124 -80.279431 
L 258.069225 -81.623905 
L 258.968327 -82.125906 
L 259.867428 -81.37053 
L 260.766529 -84.607403 
L 261.665631 -83.874725 
L 262.564732 -81.761678 
L 263.463833 -83.050199 
L 264.362935 -82.955711 
L 265.262036 -82.220922 
L 266.161138 -84.608459 
L 267.060239 -84.145521 
L 267.95934 -82.53553 
L 268.858442 -81.570591 
L 269.757543 -83.251844 
L 270.656644 -82.204558 
L 271.555746 -84.084816 
L 272.454847 -82.141214 
L 273.353949 -84.557256 
L 274.25305 -83.914843 
L 275.152151 -82.257872 
L 276.051253 -83.404925 
L 276.950354 -84.687111 
L 277.849455 -83.622405 
L 278.748557 -83.512609 
L 279.647658 -83.177415 
L 280.54676 -83.631379 
L 281.445861 -82.392478 
L 282.344962 -83.371141 
L 283.244064 -86.197863 
L 284.143165 -83.252372 
L 285.042266 -83.158411 
L 285.941368 -82.365029 
L 286.840469 -82.734007 
L 287.739571 -81.726839 
L 288.638672 -82.859111 
L 289.537773 -85.781905 
L 290.436875 -83.817716 
L 291.335976 -83.26768 
L 292.235077 -83.76229 
L 293.134179 -85.024417 
L 294.03328 -83.405453 
L 294.932382 -85.126823 
L 295.831483 -84.623767 
L 296.730584 -83.862057 
L 297.629686 -83.789739 
L 298.528787 -83.843053 
L 299.427888 -87.073592 
L 300.32699 -85.991995 
L 301.226091 -85.672109 
L 302.125193 -83.989272 
L 303.024294 -86.197863 
L 303.923395 -84.941014 
L 304.822497 -85.355917 
L 305.721598 -85.606125 
L 306.620699 -84.177193 
L 307.519801 -84.807992 
L 308.418902 -85.292045 
L 309.318004 -86.834469 
L 310.217105 -83.570147 
L 311.116206 -88.637131 
L 312.015308 -87.548144 
L 312.914409 -85.724367 
L 313.81351 -87.53917 
L 314.712612 -85.199141 
L 315.611713 -88.528919 
L 316.510815 -86.503497 
L 317.409916 -87.359168 
L 318.309017 -84.882949 
L 319.208119 -85.413454 
L 320.10722 -86.170942 
L 321.006321 -87.707559 
L 321.905423 -85.312104 
L 322.804524 -88.287156 
L 323.703626 -85.64466 
L 324.602727 -86.056395 
L 325.501828 -89.261069 
L 326.40093 -86.383672 
L 327.300031 -89.964714 
L 328.199132 -87.695946 
L 329.098234 -87.548672 
L 329.997335 -86.425373 
L 330.896437 -87.892312 
L 331.795538 -87.249372 
L 332.694639 -86.769014 
L 333.593741 -86.429068 
L 334.492842 -87.498525 
L 335.391943 -86.623851 
L 336.291045 -87.722868 
L 337.190146 -87.778821 
L 338.089248 -85.678971 
L 338.988349 -84.69978 
L 339.88745 -85.924429 
L 340.786552 -86.246427 
L 341.685653 -89.657496 
L 342.584754 -88.165747 
L 343.483856 -87.125851 
L 344.382957 -88.301408 
L 345.282059 -87.706504 
L 346.18116 -87.977299 
L 347.080261 -87.202392 
L 347.979363 -88.616017 
L 348.878464 -89.533447 
L 349.777565 -88.819245 
L 350.676667 -88.983411 
L 351.575768 -88.059646 
L 352.47487 -88.867281 
L 353.373971 -87.532836 
L 354.273072 -87.944571 
L 355.172174 -87.10632 
L 356.071275 -90.048644 
L 356.970376 -87.724979 
L 357.869478 -88.814494 
L 358.768579 -87.624157 
L 359.667681 -89.583595 
L 360.566782 -92.196531 
L 361.465883 -88.790212 
L 362.364985 -90.604487 
L 363.264086 -87.23987 
L 364.163187 -90.217034 
L 365.062289 -88.400119 
L 365.96139 -90.202781 
L 366.860492 -88.621823 
L 367.759593 -90.125185 
L 368.658694 -92.204449 
L 369.557796 -88.451322 
L 370.456897 -89.563536 
L 371.355998 -91.285434 
L 372.2551 -89.823246 
L 373.154201 -91.098042 
L 374.053303 -91.904621 
L 374.952404 -88.544755 
L 375.851505 -89.900314 
L 376.750607 -88.88734 
L 377.649708 -96.025142 
L 378.548809 -92.717534 
L 379.447911 -90.550645 
L 380.347012 -90.390174 
L 381.246113 -89.747761 
L 382.145215 -91.384145 
L 383.044316 -91.506082 
L 383.943418 -90.856807 
L 384.842519 -91.333998 
L 385.74162 -93.006805 
L 386.640722 -92.470493 
L 387.539823 -92.648384 
L 388.438924 -91.691363 
L 389.338026 -95.025892 
L 390.237127 -91.676055 
L 391.136229 -91.826497 
L 392.03533 -91.768959 
L 392.934431 -93.943239 
L 393.833533 -91.201504 
L 394.732634 -92.192308 
L 395.631735 -91.660747 
L 396.530837 -93.744233 
L 397.429938 -90.826191 
L 398.32904 -89.70342 
L 399.228141 -93.353613 
L 400.127242 -93.827636 
L 401.026344 -93.982301 
L 401.925445 -93.892564 
L 402.824546 -92.203393 
L 403.723648 -90.768654 
L 404.622749 -92.215006 
L 405.521851 -94.196087 
L 406.420952 -94.320663 
L 407.320053 -96.345029 
L 408.219155 -93.785407 
L 409.118256 -94.614684 
L 410.017357 -93.657136 
L 410.916459 -93.610683 
L 411.81556 -95.07815 
L 412.714662 -94.185529 
L 413.613763 -93.400065 
L 414.512864 -94.077845 
L 415.411966 -94.17286 
L 416.311067 -94.168638 
L 417.210168 -93.560536 
L 418.10927 -95.287713 
L 419.008371 -96.973189 
L 419.907473 -93.08229 
L 420.806574 -94.427292 
L 421.705675 -93.775905 
L 422.604777 -95.414929 
L 423.503878 -95.502555 
L 424.402979 -93.741594 
L 425.302081 -95.552174 
L 426.201182 -94.101071 
L 427.100284 -94.827414 
L 427.999385 -95.500971 
L 428.898486 -94.468465 
L 429.797588 -95.30091 
L 430.696689 -95.408067 
L 431.59579 -94.794686 
L 432.494892 -94.121657 
L 433.393993 -95.282962 
L 434.293095 -94.624186 
L 435.192196 -95.924847 
L 436.091297 -96.146551 
L 436.990399 -95.149412 
L 437.8895 -95.342611 
L 438.788601 -95.126714 
L 439.687703 -96.107489 
L 440.586804 -98.381535 
L 441.485906 -94.108989 
L 442.385007 -95.373227 
L 443.284108 -97.112545 
L 444.18321 -93.074372 
L 445.082311 -98.506111 
L 445.981412 -95.837749 
L 446.880514 -97.408678 
L 447.779615 -95.140966 
L 448.678717 -95.271349 
L 449.577818 -96.917235 
L 450.476919 -95.642967 
L 451.376021 -97.191197 
L 452.275122 -98.31608 
L 453.174223 -98.044229 
L 454.073325 -98.451213 
L 454.972426 -100.800744 
L 455.871528 -95.531059 
L 456.770629 -96.358753 
L 457.66973 -96.616352 
L 458.568832 -98.568927 
L 459.467933 -95.915346 
L 460.367034 -96.630604 
L 461.266136 -96.377756 
L 462.165237 -98.146107 
L 463.064339 -96.229954 
L 463.96344 -97.545395 
L 464.862541 -97.302049 
L 465.761643 -98.321886 
L 466.660744 -96.764154 
L 467.559845 -97.776073 
L 468.458947 -98.666055 
L 469.358048 -95.093459 
L 470.25715 -98.453853 
L 471.156251 -99.818386 
L 472.055352 -97.119936 
L 472.954454 -97.19542 
L 473.853555 -100.905262 
L 474.752656 -97.939183 
L 475.651758 -98.910457 
L 476.550859 -96.49547 
L 477.449961 -98.111268 
L 478.349062 -96.604739 
L 479.248163 -99.985191 
L 480.147265 -100.312468 
L 481.046366 -97.114129 
L 481.945467 -98.437489 
L 482.844569 -97.994609 
L 483.74367 -98.791687 
L 484.642772 -99.722842 
L 485.541873 -99.041895 
L 486.440974 -97.962937 
L 487.340076 -98.122353 
L 488.239177 -99.944018 
L 489.138278 -98.575262 
L 490.03738 -98.698782 
L 490.936481 -99.697505 
L 491.835583 -99.404539 
L 492.734684 -99.53545 
L 493.633785 -99.634689 
L 494.532887 -99.065121 
L 495.431988 -97.800883 
L 496.331089 -99.092042 
L 497.230191 -101.450547 
L 498.129292 -100.122437 
L 499.028394 -98.503472 
L 499.927495 -98.402122 
L 500.826596 -99.533866 
L 501.725698 -102.474079 
L 502.624799 -101.27424 
L 503.5239 -101.20984 
L 504.423002 -99.169111 
L 505.322103 -100.608601 
L 506.221204 -101.831138 
L 507.120306 -100.150941 
L 508.019407 -100.934294 
L 508.918509 -99.98308 
L 509.81761 -98.845529 
L 510.716711 -102.353198 
L 511.615813 -101.412541 
L 512.514914 -100.375812 
L 513.414015 -102.818248 
L 514.313117 -100.240151 
L 515.212218 -101.528143 
L 516.11132 -101.457937 
L 517.010421 -100.165194 
L 517.909522 -100.889426 
L 518.808624 -101.161277 
L 519.707725 -100.119797 
L 520.606826 -100.137217 
L 521.505928 -102.287742 
L 522.405029 -101.863866 
L 523.304131 -100.055398 
L 524.203232 -99.961438 
L 525.102333 -101.452131 
L 526.001435 -102.284047 
L 526.900536 -103.885592 
L 527.799637 -100.981274 
L 528.698739 -102.601823 
L 529.59784 -102.912736 
L 530.496942 -100.566372 
L 531.396043 -103.10963 
L 532.295144 -103.374618 
L 533.194246 -100.61388 
L 534.093347 -102.883175 
L 534.992448 -103.822248 
L 535.89155 -100.712063 
L 536.790651 -101.772017 
L 537.689753 -104.634106 
L 538.588854 -102.626104 
L 539.487955 -102.796077 
L 540.387057 -103.436378 
L 541.286158 -104.104129 
L 542.185259 -102.777602 
L 543.084361 -101.424682 
L 543.983462 -104.948714 
L 544.882564 -102.386981 
L 545.781665 -101.418347 
L 546.680766 -103.674974 
L 547.579868 -106.259405 
L 548.478969 -103.018837 
L 549.37807 -103.091154 
L 550.277172 -105.699339 
L 551.176273 -105.294466 
L 552.075375 -104.901206 
L 552.974476 -100.541034 
L 553.873577 -103.10963 
L 554.772679 -104.50689 
L 555.67178 -103.595266 
L 556.570881 -103.576791 
L 557.469983 -102.890037 
L 558.369084 -103.003528 
L 559.268186 -103.708229 
L 560.167287 -104.601906 
L 561.066388 -103.289632 
L 561.96549 -104.320554 
L 562.864591 -104.080903 
L 563.763692 -106.65636 
L 564.662794 -103.980608 
L 565.561895 -102.61238 
L 566.460997 -104.040257 
L 567.360098 -104.179614 
L 568.259199 -104.642552 
L 569.158301 -104.225538 
L 570.057402 -104.745486 
L 570.956503 -104.693227 
L 571.855605 -104.49475 
L 572.754706 -104.380731 
L 573.653808 -105.569484 
L 574.552909 -104.506363 
L 575.45201 -104.916514 
L 576.351112 -104.754987 
L 577.250213 -106.624688 
L 578.149314 -105.968023 
L 579.048416 -105.330889 
L 579.947517 -106.449965 
L 580.846619 -105.240096 
L 581.74572 -108.851227 
L 582.644821 -107.905819 
L 583.543923 -105.893594 
L 584.443024 -105.876175 
L 585.342125 -108.786827 
L 586.241227 -106.648442 
L 587.140328 -106.104213 
L 588.03943 -104.69006 
L 588.938531 -106.149609 
L 589.837632 -105.306079 
L 590.736734 -104.564428 
L 591.635835 -105.353587 
L 592.534936 -108.573041 
L 593.434038 -106.348087 
L 594.333139 -106.418821 
L 595.232241 -104.635162 
L 596.131342 -105.237985 
L 597.030443 -107.143053 
L 597.929545 -109.436102 
L 598.828646 -109.479915 
L 599.727747 -106.404568 
L 600.626849 -106.160166 
L 601.52595 -105.443325 
L 602.425052 -107.817665 
L 603.324153 -109.236041 
L 604.223254 -105.593238 
L 605.122356 -106.840585 
L 606.021457 -106.437296 
L 606.920558 -107.83139 
L 607.81966 -107.529978 
L 608.718761 -107.777019 
L 609.617863 -108.586766 
L 610.516964 -110.05001 
L 611.416065 -106.793078 
L 612.315167 -108.701313 
L 613.214268 -107.525227 
L 614.113369 -107.275547 
L 615.012471 -107.701007 
L 615.911572 -108.487527 
L 616.810674 -106.994722 
L 617.709775 -107.980248 
L 618.608876 -107.822944 
L 619.507978 -111.506392 
L 620.407079 -109.927545 
L 621.30618 -109.192756 
L 622.205282 -111.08146 
L 623.104383 -109.554344 
L 624.003485 -109.721677 
L 624.902586 -109.478859 
L 625.801687 -108.07368 
L 626.700789 -108.522366 
L 627.59989 -107.701007 
L 628.498991 -110.318694 
L 629.398093 -108.428406 
L 630.297194 -107.104518 
L 631.196296 -111.768741 
L 632.095397 -110.195173 
L 632.994498 -108.479609 
L 633.8936 -109.16953 
L 634.792701 -109.553288 
L 635.691802 -110.828084 
L 636.590904 -111.950327 
L 637.490005 -108.80583 
L 638.389106 -108.383537 
L 639.288208 -108.9568 
L 640.187309 -107.410681 
L 641.086411 -112.40957 
L 641.985512 -110.220511 
L 642.884613 -110.308664 
L 643.783715 -113.500669 
L 644.682816 -109.264545 
L 645.581917 -109.498918 
L 646.481019 -109.245014 
L 647.38012 -108.76624 
L 648.279222 -112.06593 
L 649.178323 -111.263046 
L 650.077424 -109.981915 
L 650.976526 -112.433324 
L 651.875627 -110.430073 
L 652.774728 -108.497029 
L 653.67383 -110.69559 
L 654.572931 -110.606381 
L 655.472033 -113.312749 
L 656.371134 -109.570708 
L 657.270235 -110.234235 
L 658.169337 -112.691451 
L 659.068438 -110.217871 
L 659.967539 -110.666029 
L 660.866641 -112.771686 
L 661.765742 -112.695674 
L 662.664844 -109.886371 
L 663.563945 -113.378732 
L 664.463046 -115.277993 
L 665.362148 -111.716482 
L 666.261249 -111.755544 
L 667.16035 -112.593268 
L 668.059452 -115.377232 
L 668.958553 -111.587683 
L 669.857655 -112.091795 
L 670.756756 -111.513254 
L 671.655857 -110.866091 
L 672.554959 -113.066235 
L 673.45406 -111.287327 
L 674.353161 -112.661362 
L 675.252263 -111.208675 
L 676.151364 -111.898596 
L 677.050466 -112.400597 
L 677.949567 -113.353922 
L 678.848668 -113.306414 
L 679.74777 -111.969858 
L 680.646871 -111.321111 
L 681.545972 -114.649833 
L 682.445074 -114.295635 
L 683.344175 -112.714677 
L 684.243277 -112.967525 
L 685.142378 -112.453911 
L 686.041479 -113.725012 
L 686.940581 -114.790773 
L 687.839682 -113.922962 
L 688.738783 -113.894985 
L 689.637885 -115.265325 
L 690.536986 -113.288995 
L 691.436088 -113.038786 
L 692.335189 -114.612882 
L 693.23429 -113.864369 
L 694.133392 -113.837447 
L 695.032493 -116.044455 
L 695.931594 -114.976054 
L 696.830696 -113.743487 
L 697.729797 -114.19798 
L 698.628899 -114.178977 
L 699.528 -113.20612 
L 700.427101 -116.062402 
L 701.326203 -113.018728 
L 702.225304 -118.664781 
L 703.124405 -114.537925 
L 704.023507 -114.851478 
L 704.922608 -115.875538 
L 705.82171 -115.627441 
L 706.720811 -115.499697 
L 707.619912 -114.580155 
L 708.519014 -115.515533 
L 709.418115 -116.424518 
L 710.317216 -114.467191 
L 711.216318 -117.774271 
L 712.115419 -115.146555 
L 713.014521 -115.791607 
L 713.913622 -117.098603 
L 714.812723 -114.676754 
L 715.711825 -114.61341 
L 716.610926 -113.83692 
L 717.510027 -116.088795 
L 718.409129 -116.178533 
L 719.30823 -117.262241 
L 720.207332 -117.73732 
L 721.106433 -117.479194 
L 722.005534 -115.536648 
L 722.904636 -117.209455 
L 723.803737 -115.858646 
L 724.702838 -116.000642 
L 725.60194 -116.360118 
L 726.501041 -115.27641 
L 727.400143 -115.661752 
L 728.299244 -118.027647 
L 729.198345 -116.343227 
L 730.097447 -115.391485 
L 730.996548 -118.896514 
L 731.895649 -117.316083 
L 732.794751 -117.039482 
L 733.693852 -116.701648 
L 734.592954 -119.013172 
L 735.492055 -118.520146 
L 736.391156 -116.057123 
L 737.290258 -115.353478 
L 738.189359 -119.410655 
L 739.08846 -118.008116 
L 739.987562 -118.631525 
L 740.886663 -118.295275 
L 741.785765 -117.021006 
L 742.684866 -114.839865 
L 743.583967 -120.016117 
L 744.483069 -119.871482 
L 745.38217 -117.52723 
L 746.281271 -118.391346 
L 747.180373 -117.260658 
L 748.079474 -118.969359 
L 748.978576 -118.252518 
L 749.877677 -119.120857 
L 750.776778 -115.488084 
L 751.67588 -120.842227 
L 752.574981 -118.610411 
L 753.474082 -117.366231 
L 754.373184 -119.992891 
L 755.272285 -117.67556 
L 756.171387 -119.517284 
L 757.070488 -117.576849 
L 757.969589 -120.812667 
L 758.868691 -119.755352 
L 759.767792 -119.591185 
L 760.666893 -118.543899 
L 761.565995 -122.636971 
L 762.465096 -116.699536 
L 763.364197 -118.727069 
L 764.263299 -118.92713 
L 765.1624 -119.449189 
L 766.061502 -117.613272 
L 766.960603 -120.093186 
L 767.859704 -119.36737 
L 768.758806 -120.091602 
L 769.657907 -118.434631 
L 770.557008 -118.653168 
L 771.45611 -120.053596 
L 772.355211 -123.115746 
L 773.254313 -119.535232 
L 774.153414 -120.454246 
L 775.052515 -122.650168 
L 775.951617 -118.287357 
L 776.850718 -123.794581 
L 777.749819 -123.23082 
L 778.648921 -120.39143 
L 779.548022 -118.192869 
L 780.447124 -120.23307 
L 781.346225 -120.612078 
L 782.245326 -120.98 
L 783.144428 -119.430714 
L 784.043529 -120.211428 
L 784.94263 -122.734099 
L 785.841732 -119.90157 
L 786.740833 -123.150057 
L 787.639935 -121.721652 
L 788.539036 -117.94266 
L 789.438137 -120.191897 
L 790.337239 -123.109939 
L 791.23634 -120.630553 
L 792.135441 -120.230959 
L 793.034543 -120.765159 
L 793.933644 -120.535537 
L 794.832746 -122.154502 
L 795.731847 -121.98189 
L 796.630948 -119.668254 
L 797.53005 -120.23571 
L 798.429151 -120.153363 
L 799.328252 -121.045984 
L 800.227354 -122.834393 
L 801.126455 -117.80911 
L 802.025557 -120.462692 
L 802.924658 -119.724208 
L 803.823759 -121.929631 
L 804.722861 -124.007311 
L 805.621962 -125.235127 
L 806.521063 -119.551068 
L 807.420165 -121.670977 
L 808.319266 -120.152835 
L 809.218368 -125.455775 
L 810.117469 -122.182479 
L 811.01657 -122.841255 
L 811.915672 -120.364509 
L 812.814773 -122.05104 
L 813.713874 -125.267855 
L 814.612976 -122.330281 
L 815.512077 -122.267993 
L 816.411179 -123.544373 
L 817.31028 -124.646029 
L 818.209381 -124.56157 
L 819.108483 -122.952635 
L 820.007584 -121.436604 
L 820.906685 -126.676729 
L 821.805787 -123.283607 
L 822.704888 -122.117024 
L 823.60399 -125.638417 
L 824.503091 -122.799554 
L 825.402192 -122.283301 
L 826.301294 -122.913045 
L 827.200395 -126.73585 
L 828.099496 -124.462859 
L 828.998598 -122.846006 
L 829.897699 -126.943829 
L 830.796801 -124.397932 
L 831.695902 -123.420324 
L 832.595003 -125.594076 
L 833.494105 -123.00331 
L 834.393206 -122.706122 
L 835.292307 -126.069155 
L 836.191409 -125.254658 
L 837.09051 -123.281496 
L 837.989612 -125.716541 
L 838.888713 -121.93227 
L 839.787814 -124.928437 
L 840.686916 -125.658476 
L 841.586017 -124.487141 
L 842.485118 -122.70401 
L 843.38422 -125.309028 
L 844.283321 -124.747907 
L 845.182423 -125.575601 
L 846.081524 -125.960415 
L 846.980625 -121.889513 
L 847.879727 -125.286858 
L 848.778828 -122.569932 
L 849.677929 -125.32592 
L 850.577031 -126.791276 
L 851.476132 -125.532316 
L 852.375234 -126.648224 
L 853.274335 -122.287524 
L 854.173436 -126.314085 
L 855.072538 -124.768494 
L 855.971639 -128.128888 
L 856.87074 -124.041095 
L 857.769842 -127.989003 
L 858.668943 -124.023147 
L 859.568045 -127.092687 
L 860.467146 -126.683591 
L 861.366247 -123.620913 
L 862.265349 -126.818725 
L 863.16445 -127.603661 
L 864.063551 -123.712234 
L 864.962653 -129.749436 
L 865.861754 -126.01848 
L 866.760856 -130.153253 
L 867.659957 -126.89157 
L 868.559058 -128.878457 
L 869.45816 -123.751296 
L 870.357261 -125.22457 
L 871.256362 -129.028371 
L 872.155464 -126.563238 
L 873.054565 -124.879873 
L 873.953667 -128.498922 
L 874.852768 -125.651085 
L 875.751869 -125.263104 
L 876.650971 -126.829282 
L 877.550072 -129.130249 
L 878.449173 -126.405934 
L 879.348275 -125.108967 
L 880.247376 -129.893016 
L 881.146478 -124.335644 
L 882.045579 -127.620553 
L 882.94468 -127.984253 
L 883.843782 -126.762771 
L 884.742883 -123.656808 
L 885.641984 -130.859538 
L 886.541086 -127.569878 
L 887.440187 -126.907934 
L 888.339288 -127.046235 
L 889.23839 -128.588659 
L 890.137491 -126.282413 
L 891.036593 -129.752075 
L 891.935694 -126.560598 
L 892.834795 -127.813752 
L 893.733897 -126.960193 
L 894.632998 -130.297889 
L 895.532099 -125.318002 
L 896.431201 -128.349536 
L 897.330302 -125.672728 
L 898.229404 -126.370039 
L 899.128505 -129.803278 
L 900.027606 -124.212651 
L 900.926708 -127.274801 
L 901.825809 -128.02437 
L 902.72491 -127.957331 
L 903.624012 -129.782164 
L 904.523113 -130.49531 
L 905.422215 -128.815641 
L 906.321316 -130.902823 
L 907.220417 -129.015702 
L 908.119519 -127.2009 
L 909.01862 -127.521314 
L 909.917721 -126.96336 
L 910.816823 -131.01473 
L 911.715924 -128.324198 
L 912.615026 -129.974835 
L 913.514127 -127.904017 
L 914.413228 -129.576296 
L 915.31233 -129.572601 
L 916.211431 -128.142612 
L 917.110532 -130.333256 
L 918.009634 -130.937662 
L 918.908735 -128.266133 
L 919.807837 -132.418854 
L 920.706938 -129.282803 
L 921.606039 -129.343507 
L 922.505141 -129.749436 
L 923.404242 -132.90449 
L 924.303343 -130.931856 
L 925.202445 -128.999866 
L 926.101546 -132.371874 
L 927.000648 -130.617775 
L 927.899749 -130.743935 
L 928.79885 -132.480086 
L 929.697952 -130.276774 
L 930.597053 -131.503534 
L 931.496154 -129.232655 
L 932.395256 -132.703373 
L 933.294357 -130.134778 
L 934.193459 -135.026511 
L 935.09256 -131.481892 
L 935.991661 -133.459277 
L 936.890763 -132.176035 
L 937.789864 -131.965945 
L 938.688965 -130.792499 
L 939.588067 -134.124388 
L 940.487168 -131.136668 
L 941.38627 -132.332812 
L 942.285371 -132.236212 
L 943.184472 -135.15795 
L 944.083574 -132.498561 
L 944.982675 -130.196011 
L 945.881776 -132.381375 
L 946.780878 -133.706846 
L 947.679979 -130.731794 
L 948.579081 -130.300528 
L 949.478182 -131.794916 
L 950.377283 -131.938496 
L 951.276385 -131.954332 
L 952.175486 -135.044986 
L 953.074587 -130.596133 
L 953.973689 -132.717098 
L 954.87279 -135.633557 
L 955.771892 -132.465306 
L 956.670993 -133.046486 
L 957.570094 -132.245714 
L 958.469196 -131.040596 
L 959.368297 -133.098217 
L 960.267398 -133.357399 
L 961.1665 -132.793638 
L 962.065601 -131.583242 
L 962.964703 -133.619749 
L 963.863804 -132.938802 
L 964.762905 -133.545319 
L 965.662007 -134.345036 
L 966.561108 -133.182676 
L 967.460209 -133.07763 
L 968.359311 -133.016926 
L 969.258412 -134.565156 
L 970.157514 -137.696984 
L 971.056615 -134.266912 
L 971.955716 -135.156366 
L 972.854818 -134.342397 
L 973.753919 -133.506785 
L 974.65302 -134.081103 
L 975.552122 -133.931189 
L 976.451223 -134.493894 
L 977.350325 -131.817087 
L 978.249426 -134.149198 
L 979.148527 -134.325505 
L 980.047629 -134.063156 
L 980.94673 -135.108858 
L 981.845831 -134.789499 
L 982.744933 -136.539375 
L 983.644034 -135.770274 
L 984.543136 -137.934524 
L 985.442237 -134.068962 
L 986.341338 -137.267302 
L 987.24044 -132.700206 
L 988.139541 -135.979837 
L 989.038642 -131.734212 
L 989.937744 -136.829173 
L 990.836845 -135.946581 
L 991.735947 -135.678425 
L 992.635048 -134.975308 
L 993.534149 -140.334202 
L 994.433251 -133.781275 
L 995.332352 -137.810476 
L 996.231453 -133.754882 
L 997.130555 -133.73799 
L 998.029656 -137.814171 
L 998.928758 -136.410047 
L 999.827859 -137.123194 
L 1000.72696 -137.831062 
L 1001.626062 -137.576631 
L 1002.525163 -134.113831 
L 1003.424264 -136.292861 
L 1004.323366 -139.802641 
L 1005.222467 -136.804891 
L 1006.121569 -139.134363 
L 1007.02067 -133.784443 
L 1007.919771 -135.87268 
L 1008.818873 -136.760023 
L 1009.717974 -135.82533 
L 1010.617075 -138.177791 
L 1011.516177 -138.430348 
L 1012.415278 -136.069812 
L 1013.314379 -138.347896 
L 1014.213481 -139.318034 
L 1015.112582 -134.63114 
L 1016.011684 -136.638244 
L 1016.910785 -134.717472 
L 1017.809886 -139.988345 
L 1017.809886 -259.125136 
L 1017.809886 -259.125136 
L 1016.910785 -261.14 
L 1016.011684 -248.490222 
L 1015.112582 -250.027368 
L 1014.213481 -258.839033 
L 1013.314379 -260.398876 
L 1012.415278 -251.297413 
L 1011.516177 -250.149833 
L 1010.617075 -259.937522 
L 1009.717974 -254.611883 
L 1008.818873 -256.550576 
L 1007.919771 -249.033423 
L 1007.02067 -246.147501 
L 1006.121569 -255.228694 
L 1005.222467 -250.650144 
L 1004.323366 -256.470155 
L 1003.424264 -248.407823 
L 1002.525163 -256.528432 
L 1001.626062 -253.826366 
L 1000.72696 -248.537493 
L 999.827859 -256.438563 
L 998.928758 -249.337685 
L 998.029656 -253.164422 
L 997.130555 -251.612391 
L 996.231453 -249.46337 
L 995.332352 -245.979428 
L 994.433251 -248.734704 
L 993.534149 -257.67559 
L 992.635048 -247.277477 
L 991.735947 -245.190454 
L 990.836845 -245.00285 
L 989.937744 -252.570626 
L 989.038642 -257.775937 
L 988.139541 -245.119403 
L 987.24044 -253.086456 
L 986.341338 -258.861889 
L 985.442237 -251.340513 
L 984.543136 -251.767742 
L 983.644034 -244.357772 
L 982.744933 -251.315756 
L 981.845831 -251.8664 
L 980.94673 -247.789401 
L 980.047629 -246.694449 
L 979.148527 -257.174381 
L 978.249426 -246.006798 
L 977.350325 -242.512036 
L 976.451223 -256.981948 
L 975.552122 -245.684404 
L 974.65302 -248.435799 
L 973.753919 -248.264375 
L 972.854818 -246.21776 
L 971.955716 -250.471356 
L 971.056615 -246.5647 
L 970.157514 -251.815883 
L 969.258412 -255.031721 
L 968.359311 -251.374191 
L 967.460209 -244.498765 
L 966.561108 -252.300913 
L 965.662007 -246.958197 
L 964.762905 -249.393876 
L 963.863804 -244.38237 
L 962.964703 -244.724586 
L 962.065601 -238.703959 
L 961.1665 -246.112503 
L 960.267398 -242.17114 
L 959.368297 -246.077638 
L 958.469196 -249.215035 
L 957.570094 -243.032169 
L 956.670993 -245.187128 
L 955.771892 -239.013975 
L 954.87279 -241.281897 
L 953.973689 -239.967142 
L 953.074587 -247.017002 
L 952.175486 -243.823809 
L 951.276385 -245.382227 
L 950.377283 -248.416691 
L 949.478182 -244.586813 
L 948.579081 -239.172308 
L 947.679979 -239.421487 
L 946.780878 -245.861371 
L 945.881776 -237.651685 
L 944.982675 -247.376795 
L 944.083574 -240.0639 
L 943.184472 -251.693049 
L 942.285371 -247.464474 
L 941.38627 -236.361026 
L 940.487168 -235.266787 
L 939.588067 -241.53398 
L 938.688965 -236.675027 
L 937.789864 -240.350267 
L 936.890763 -239.141058 
L 935.991661 -246.061564 
L 935.09256 -241.144283 
L 934.193459 -236.359258 
L 933.294357 -237.057783 
L 932.395256 -244.392373 
L 931.496154 -235.557667 
L 930.597053 -236.160094 
L 929.697952 -242.99213 
L 928.79885 -237.1102 
L 927.899749 -236.204936 
L 927.000648 -246.97018 
L 926.101546 -241.228662 
L 925.202445 -238.763159 
L 924.303343 -234.640421 
L 923.404242 -248.325581 
L 922.505141 -241.449125 
L 921.606039 -227.751165 
L 920.706938 -238.16353 
L 919.807837 -241.736839 
L 918.908735 -237.247181 
L 918.009634 -238.205812 
L 917.110532 -236.236899 
L 916.211431 -241.434055 
L 915.31233 -237.842297 
L 914.413228 -235.108321 
L 913.514127 -237.672139 
L 912.615026 -235.58765 
L 911.715924 -236.861997 
L 910.816823 -229.980923 
L 909.917721 -244.899916 
L 909.01862 -233.377238 
L 908.119519 -235.101274 
L 907.220417 -232.149105 
L 906.321316 -231.600917 
L 905.422215 -235.168604 
L 904.523113 -233.14693 
L 903.624012 -225.936494 
L 902.72491 -236.504052 
L 901.825809 -237.215324 
L 900.926708 -239.917496 
L 900.027606 -238.556922 
L 899.128505 -235.187026 
L 898.229404 -232.118911 
L 897.330302 -234.134382 
L 896.431201 -233.817293 
L 895.532099 -230.040809 
L 894.632998 -231.065423 
L 893.733897 -231.526725 
L 892.834795 -230.319813 
L 891.935694 -231.070279 
L 891.036593 -228.712118 
L 890.137491 -226.49685 
L 889.23839 -227.643691 
L 888.339288 -231.550822 
L 887.440187 -231.371665 
L 886.541086 -228.886393 
L 885.641984 -231.192401 
L 884.742883 -231.139404 
L 883.843782 -234.454929 
L 882.94468 -229.982216 
L 882.045579 -235.474792 
L 881.146478 -232.155361 
L 880.247376 -226.341578 
L 879.348275 -228.829806 
L 878.449173 -225.130363 
L 877.550072 -231.859465 
L 876.650971 -224.99069 
L 875.751869 -230.008847 
L 874.852768 -231.185565 
L 873.953667 -240.912946 
L 873.054565 -221.129668 
L 872.155464 -228.886551 
L 871.256362 -233.734234 
L 870.357261 -236.889842 
L 869.45816 -232.126565 
L 868.559058 -233.603085 
L 867.659957 -243.922784 
L 866.760856 -231.144471 
L 865.861754 -231.462114 
L 864.962653 -231.226449 
L 864.063551 -228.233396 
L 863.16445 -234.767188 
L 862.265349 -233.865804 
L 861.366247 -224.048898 
L 860.467146 -226.043571 
L 859.568045 -230.557194 
L 858.668943 -234.550526 
L 857.769842 -227.361336 
L 856.87074 -226.176224 
L 855.971639 -225.549119 
L 855.072538 -232.237787 
L 854.173436 -223.590077 
L 853.274335 -227.169456 
L 852.375234 -224.641454 
L 851.476132 -224.054335 
L 850.577031 -226.25324 
L 849.677929 -228.141944 
L 848.778828 -229.021949 
L 847.879727 -224.855345 
L 846.980625 -229.591754 
L 846.081524 -223.071185 
L 845.182423 -238.658932 
L 844.283321 -229.632901 
L 843.38422 -221.096122 
L 842.485118 -224.744678 
L 841.586017 -218.608317 
L 840.686916 -233.54407 
L 839.787814 -220.467777 
L 838.888713 -219.104431 
L 837.989612 -222.872206 
L 837.09051 -213.914586 
L 836.191409 -225.130865 
L 835.292307 -231.194697 
L 834.393206 -225.447901 
L 833.494105 -221.369372 
L 832.595003 -223.873013 
L 831.695902 -229.957908 
L 830.796801 -229.326686 
L 829.897699 -225.83451 
L 828.998598 -219.958545 
L 828.099496 -218.752794 
L 827.200395 -222.814563 
L 826.301294 -224.149509 
L 825.402192 -220.854254 
L 824.503091 -220.072009 
L 823.60399 -221.320676 
L 822.704888 -228.368583 
L 821.805787 -220.430114 
L 820.906685 -219.311751 
L 820.007584 -214.443165 
L 819.108483 -221.730142 
L 818.209381 -220.857975 
L 817.31028 -218.744955 
L 816.411179 -222.513574 
L 815.512077 -224.058004 
L 814.612976 -214.97879 
L 813.713874 -221.015517 
L 812.814773 -218.744717 
L 811.915672 -221.488274 
L 811.01657 -222.701679 
L 810.117469 -217.076635 
L 809.218368 -228.332846 
L 808.319266 -220.333699 
L 807.420165 -217.498901 
L 806.521063 -224.061646 
L 805.621962 -218.396141 
L 804.722861 -221.2392 
L 803.823759 -209.934266 
L 802.924658 -213.026373 
L 802.025557 -222.288624 
L 801.126455 -211.344223 
L 800.227354 -212.902298 
L 799.328252 -210.310212 
L 798.429151 -216.193172 
L 797.53005 -217.194058 
L 796.630948 -206.152873 
L 795.731847 -225.956605 
L 794.832746 -220.588289 
L 793.933644 -222.329771 
L 793.034543 -212.907999 
L 792.135441 -216.530109 
L 791.23634 -211.450086 
L 790.337239 -214.051779 
L 789.438137 -217.149797 
L 788.539036 -211.447236 
L 787.639935 -214.600178 
L 786.740833 -217.511543 
L 785.841732 -219.32859 
L 784.94263 -221.88573 
L 784.043529 -216.685275 
L 783.144428 -217.791418 
L 782.245326 -216.582552 
L 781.346225 -207.478846 
L 780.447124 -218.472391 
L 779.548022 -223.397195 
L 778.648921 -216.820329 
L 777.749819 -215.044773 
L 776.850718 -216.15989 
L 775.951617 -214.486582 
L 775.052515 -208.174916 
L 774.153414 -217.669243 
L 773.254313 -206.113916 
L 772.355211 -220.248211 
L 771.45611 -215.97482 
L 770.557008 -208.709723 
L 769.657907 -212.455961 
L 768.758806 -208.730072 
L 767.859704 -213.889565 
L 766.960603 -206.253035 
L 766.061502 -211.09924 
L 765.1624 -217.958118 
L 764.263299 -206.985766 
L 763.364197 -212.208656 
L 762.465096 -213.085626 
L 761.565995 -210.796219 
L 760.666893 -208.413089 
L 759.767792 -206.274388 
L 758.868691 -222.347243 
L 757.969589 -217.495892 
L 757.070488 -211.728958 
L 756.171387 -211.932529 
L 755.272285 -208.463157 
L 754.373184 -205.345792 
L 753.474082 -202.117655 
L 752.574981 -208.390259 
L 751.67588 -212.153335 
L 750.776778 -210.350937 
L 749.877677 -206.217589 
L 748.978576 -207.639053 
L 748.079474 -207.685426 
L 747.180373 -208.215139 
L 746.281271 -219.909559 
L 745.38217 -203.015423 
L 744.483069 -209.23107 
L 743.583967 -215.967113 
L 742.684866 -200.527644 
L 741.785765 -208.36793 
L 740.886663 -213.937786 
L 739.987562 -211.96655 
L 739.08846 -208.369514 
L 738.189359 -200.981529 
L 737.290258 -206.291332 
L 736.391156 -203.606976 
L 735.492055 -203.513966 
L 734.592954 -208.827253 
L 733.693852 -214.839486 
L 732.794751 -207.023614 
L 731.895649 -204.421763 
L 730.996548 -210.262203 
L 730.097447 -205.565701 
L 729.198345 -214.601445 
L 728.299244 -203.278775 
L 727.400143 -220.682354 
L 726.501041 -206.519001 
L 725.60194 -212.35242 
L 724.702838 -207.573149 
L 723.803737 -206.81611 
L 722.904636 -203.532573 
L 722.005534 -200.517483 
L 721.106433 -204.865619 
L 720.207332 -204.286049 
L 719.30823 -200.66415 
L 718.409129 -204.669306 
L 717.510027 -200.804404 
L 716.610926 -211.313633 
L 715.711825 -210.711285 
L 714.812723 -207.779228 
L 713.913622 -203.416707 
L 713.014521 -209.464703 
L 712.115419 -208.740445 
L 711.216318 -204.532615 
L 710.317216 -194.18201 
L 709.418115 -199.265596 
L 708.519014 -198.186955 
L 707.619912 -200.539917 
L 706.720811 -203.593463 
L 705.82171 -200.605768 
L 704.922608 -202.097332 
L 704.023507 -203.40161 
L 703.124405 -201.316619 
L 702.225304 -202.506138 
L 701.326203 -195.833412 
L 700.427101 -212.497715 
L 699.528 -195.048423 
L 698.628899 -202.808975 
L 697.729797 -205.101998 
L 696.830696 -201.262618 
L 695.931594 -200.991005 
L 695.032493 -211.536709 
L 694.133392 -202.182055 
L 693.23429 -196.274998 
L 692.335189 -202.314417 
L 691.436088 -197.120323 
L 690.536986 -197.553964 
L 689.637885 -205.972132 
L 688.738783 -198.596552 
L 687.839682 -195.19187 
L 686.940581 -206.904264 
L 686.041479 -194.53341 
L 685.142378 -198.833432 
L 684.243277 -199.86124 
L 683.344175 -198.743484 
L 682.445074 -203.463898 
L 681.545972 -195.19926 
L 680.646871 -192.719901 
L 679.74777 -193.397496 
L 678.848668 -202.198287 
L 677.949567 -193.764151 
L 677.050466 -189.233901 
L 676.151364 -202.462167 
L 675.252263 -191.481818 
L 674.353161 -194.68467 
L 673.45406 -202.960551 
L 672.554959 -206.452358 
L 671.655857 -197.530501 
L 670.756756 -190.029659 
L 669.857655 -197.310882 
L 668.958553 -198.299179 
L 668.059452 -200.693394 
L 667.16035 -209.457128 
L 666.261249 -191.89548 
L 665.362148 -198.917468 
L 664.463046 -197.303888 
L 663.563945 -193.419165 
L 662.664844 -185.868307 
L 661.765742 -195.058373 
L 660.866641 -191.479152 
L 659.967539 -194.782035 
L 659.068438 -190.30217 
L 658.169337 -189.958001 
L 657.270235 -195.308001 
L 656.371134 -189.318676 
L 655.472033 -188.955346 
L 654.572931 -200.674048 
L 653.67383 -193.688561 
L 652.774728 -193.498133 
L 651.875627 -190.728105 
L 650.976526 -192.354512 
L 650.077424 -203.42254 
L 649.178323 -191.376561 
L 648.279222 -194.269293 
L 647.38012 -194.196711 
L 646.481019 -184.980411 
L 645.581917 -194.733973 
L 644.682816 -186.636695 
L 643.783715 -197.958811 
L 642.884613 -189.443728 
L 641.985512 -193.656599 
L 641.086411 -189.928177 
L 640.187309 -205.123482 
L 639.288208 -189.437842 
L 638.389106 -185.144894 
L 637.490005 -191.195319 
L 636.590904 -198.57388 
L 635.691802 -201.257128 
L 634.792701 -186.380021 
L 633.8936 -184.21965 
L 632.994498 -179.851692 
L 632.095397 -190.606907 
L 631.196296 -194.521349 
L 630.297194 -182.957893 
L 629.398093 -187.139804 
L 628.498991 -189.03991 
L 627.59989 -185.451821 
L 626.700789 -185.876991 
L 625.801687 -188.642612 
L 624.902586 -188.231748 
L 624.003485 -185.715833 
L 623.104383 -187.598731 
L 622.205282 -188.181231 
L 621.30618 -186.904455 
L 620.407079 -184.082537 
L 619.507978 -193.023767 
L 618.608876 -186.202051 
L 617.709775 -188.54237 
L 616.810674 -181.594098 
L 615.911572 -181.794318 
L 615.012471 -191.229999 
L 614.113369 -183.498322 
L 613.214268 -186.223667 
L 612.315167 -181.870595 
L 611.416065 -185.979555 
L 610.516964 -184.572555 
L 609.617863 -186.32412 
L 608.718761 -190.318058 
L 607.81966 -185.876595 
L 606.920558 -189.161267 
L 606.021457 -185.778913 
L 605.122356 -175.595457 
L 604.223254 -184.37962 
L 603.324153 -184.646905 
L 602.425052 -183.228503 
L 601.52595 -189.899725 
L 600.626849 -183.691494 
L 599.727747 -193.028386 
L 598.828646 -189.147252 
L 597.929545 -187.789132 
L 597.030443 -180.954958 
L 596.131342 -178.846768 
L 595.232241 -182.363489 
L 594.333139 -186.132716 
L 593.434038 -187.537736 
L 592.534936 -186.703233 
L 591.635835 -182.470092 
L 590.736734 -177.990649 
L 589.837632 -178.543403 
L 588.938531 -178.560612 
L 588.03943 -175.939019 
L 587.140328 -180.411019 
L 586.241227 -183.725093 
L 585.342125 -179.320739 
L 584.443024 -180.161075 
L 583.543923 -185.355143 
L 582.644821 -177.046877 
L 581.74572 -182.467796 
L 580.846619 -182.302969 
L 579.947517 -177.12194 
L 579.048416 -183.736416 
L 578.149314 -181.888542 
L 577.250213 -182.233661 
L 576.351112 -183.822643 
L 575.45201 -178.776562 
L 574.552909 -170.334165 
L 573.653808 -177.508153 
L 572.754706 -174.793286 
L 571.855605 -181.934308 
L 570.956503 -179.772301 
L 570.057402 -182.843187 
L 569.158301 -182.248705 
L 568.259199 -184.271434 
L 567.360098 -178.091497 
L 566.460997 -175.546366 
L 565.561895 -185.090048 
L 564.662794 -179.788058 
L 563.763692 -177.779529 
L 562.864591 -175.45676 
L 561.96549 -170.412131 
L 561.066388 -173.404814 
L 560.167287 -179.162669 
L 559.268186 -179.282072 
L 558.369084 -173.810558 
L 557.469983 -176.294088 
L 556.570881 -172.62059 
L 555.67178 -173.202826 
L 554.772679 -176.906306 
L 553.873577 -172.816718 
L 552.974476 -179.728251 
L 552.075375 -169.411535 
L 551.176273 -173.42511 
L 550.277172 -172.364364 
L 549.37807 -175.084193 
L 548.478969 -180.285994 
L 547.579868 -185.599413 
L 546.680766 -180.818215 
L 545.781665 -182.511001 
L 544.882564 -177.678944 
L 543.983462 -179.189247 
L 543.084361 -171.532606 
L 542.185259 -179.108378 
L 541.286158 -170.599207 
L 540.387057 -175.454438 
L 539.487955 -175.776383 
L 538.588854 -169.989443 
L 537.689753 -175.013116 
L 536.790651 -165.68818 
L 535.89155 -171.794981 
L 534.992448 -179.443098 
L 534.093347 -167.17151 
L 533.194246 -176.497659 
L 532.295144 -174.546456 
L 531.396043 -170.007469 
L 530.496942 -170.724153 
L 529.59784 -171.261071 
L 528.698739 -178.529151 
L 527.799637 -175.871135 
L 526.900536 -183.93492 
L 526.001435 -177.781587 
L 525.102333 -169.473084 
L 524.203232 -171.814196 
L 523.304131 -166.421914 
L 522.405029 -163.848594 
L 521.505928 -174.19305 
L 520.606826 -167.771297 
L 519.707725 -164.552371 
L 518.808624 -172.075093 
L 517.909522 -174.344494 
L 517.010421 -171.511702 
L 516.11132 -171.477232 
L 515.212218 -169.866872 
L 514.313117 -168.991248 
L 513.414015 -167.046511 
L 512.514914 -179.283814 
L 511.615813 -168.623141 
L 510.716711 -167.575459 
L 509.81761 -166.441366 
L 508.918509 -164.961626 
L 508.019407 -167.626134 
L 507.120306 -175.309248 
L 506.221204 -176.687005 
L 505.322103 -178.449786 
L 504.423002 -172.40947 
L 503.5239 -171.208232 
L 502.624799 -164.633663 
L 501.725698 -171.545459 
L 500.826596 -166.732141 
L 499.927495 -167.076124 
L 499.028394 -169.451046 
L 498.129292 -166.142594 
L 497.230191 -168.023591 
L 496.331089 -171.114747 
L 495.431988 -163.572468 
L 494.532887 -161.824017 
L 493.633785 -165.493187 
L 492.734684 -162.101305 
L 491.835583 -165.598338 
L 490.936481 -165.926855 
L 490.03738 -163.466023 
L 489.138278 -163.639427 
L 488.239177 -168.195833 
L 487.340076 -164.519169 
L 486.440974 -162.329106 
L 485.541873 -160.711197 
L 484.642772 -159.366749 
L 483.74367 -161.608727 
L 482.844569 -157.081143 
L 481.945467 -162.027694 
L 481.046366 -166.454193 
L 480.147265 -164.760614 
L 479.248163 -165.445204 
L 478.349062 -161.728896 
L 477.449961 -164.557967 
L 476.550859 -161.728527 
L 475.651758 -165.803625 
L 474.752656 -158.881561 
L 473.853555 -167.162774 
L 472.954454 -164.098565 
L 472.055352 -161.805437 
L 471.156251 -167.734479 
L 470.25715 -165.748964 
L 469.358048 -156.463381 
L 468.458947 -162.86386 
L 467.559845 -164.384299 
L 466.660744 -163.799292 
L 465.761643 -164.947453 
L 464.862541 -167.668759 
L 463.96344 -161.868649 
L 463.064339 -161.909875 
L 462.165237 -160.490628 
L 461.266136 -171.087879 
L 460.367034 -154.089173 
L 459.467933 -165.057301 
L 458.568832 -160.93752 
L 457.66973 -163.501786 
L 456.770629 -162.304085 
L 455.871528 -156.887944 
L 454.972426 -163.446228 
L 454.073325 -162.273522 
L 453.174223 -174.59597 
L 452.275122 -162.865048 
L 451.376021 -159.486152 
L 450.476919 -150.411505 
L 449.577818 -174.45817 
L 448.678717 -158.330469 
L 447.779615 -159.490666 
L 446.880514 -156.298318 
L 445.981412 -160.620906 
L 445.082311 -165.183197 
L 444.18321 -158.205365 
L 443.284108 -156.212064 
L 442.385007 -168.065108 
L 441.485906 -170.306083 
L 440.586804 -153.261558 
L 439.687703 -155.237096 
L 438.788601 -153.03418 
L 437.8895 -154.394279 
L 436.990399 -162.775047 
L 436.091297 -155.095074 
L 435.192196 -158.788525 
L 434.293095 -149.764394 
L 433.393993 -159.5742 
L 432.494892 -151.944665 
L 431.59579 -149.274825 
L 430.696689 -159.353605 
L 429.797588 -158.839992 
L 428.898486 -149.521602 
L 427.999385 -153.010056 
L 427.100284 -157.67222 
L 426.201182 -153.596779 
L 425.302081 -154.201687 
L 424.402979 -151.786358 
L 423.503878 -149.042749 
L 422.604777 -155.201307 
L 421.705675 -150.305747 
L 420.806574 -149.572699 
L 419.907473 -154.335316 
L 419.008371 -154.600516 
L 418.10927 -157.325914 
L 417.210168 -155.261114 
L 416.311067 -159.779804 
L 415.411966 -157.673593 
L 414.512864 -152.013578 
L 413.613763 -149.358122 
L 412.714662 -153.990488 
L 411.81556 -150.71677 
L 410.916459 -144.613426 
L 410.017357 -150.563794 
L 409.118256 -152.851829 
L 408.219155 -149.946085 
L 407.320053 -150.142214 
L 406.420952 -149.385888 
L 405.521851 -158.147036 
L 404.622749 -155.586913 
L 403.723648 -149.597113 
L 402.824546 -157.846073 
L 401.925445 -152.309235 
L 401.026344 -156.84553 
L 400.127242 -150.854648 
L 399.228141 -152.857873 
L 398.32904 -149.297919 
L 397.429938 -154.14217 
L 396.530837 -155.133318 
L 395.631735 -147.667658 
L 394.732634 -148.836459 
L 393.833533 -154.729975 
L 392.934431 -146.727291 
L 392.03533 -141.733944 
L 391.136229 -144.520126 
L 390.237127 -145.153987 
L 389.338026 -149.266933 
L 388.438924 -150.197455 
L 387.539823 -142.987652 
L 386.640722 -151.622271 
L 385.74162 -147.209708 
L 384.842519 -153.807292 
L 383.943418 -144.861893 
L 383.044316 -149.735361 
L 382.145215 -144.821458 
L 381.246113 -156.203618 
L 380.347012 -155.851875 
L 379.447911 -153.302362 
L 378.548809 -152.867981 
L 377.649708 -150.577413 
L 376.750607 -154.042483 
L 375.851505 -147.378071 
L 374.952404 -148.366764 
L 374.053303 -151.871661 
L 373.154201 -149.367518 
L 372.2551 -148.845907 
L 371.355998 -143.435652 
L 370.456897 -148.496803 
L 369.557796 -152.173627 
L 368.658694 -151.168491 
L 367.759593 -140.952228 
L 366.860492 -144.00865 
L 365.96139 -138.68478 
L 365.062289 -144.942366 
L 364.163187 -141.981777 
L 363.264086 -148.689633 
L 362.364985 -143.975052 
L 361.465883 -139.454567 
L 360.566782 -161.24252 
L 359.667681 -146.969212 
L 358.768579 -154.485494 
L 357.869478 -143.567407 
L 356.970376 -151.590335 
L 356.071275 -141.192459 
L 355.172174 -151.301671 
L 354.273072 -144.862605 
L 353.373971 -142.454719 
L 352.47487 -137.804933 
L 351.575768 -151.686486 
L 350.676667 -145.602409 
L 349.777565 -143.144613 
L 348.878464 -140.165576 
L 347.979363 -138.25478 
L 347.080261 -149.842571 
L 346.18116 -136.799982 
L 345.282059 -139.055157 
L 344.382957 -144.19174 
L 343.483856 -142.379498 
L 342.584754 -145.795898 
L 341.685653 -139.690417 
L 340.786552 -149.978259 
L 339.88745 -139.58875 
L 338.988349 -138.404193 
L 338.089248 -137.496818 
L 337.190146 -145.42795 
L 336.291045 -134.927958 
L 335.391943 -138.781775 
L 334.492842 -138.311394 
L 333.593741 -141.456841 
L 332.694639 -148.654055 
L 331.795538 -145.908571 
L 330.896437 -141.703513 
L 329.997335 -134.425905 
L 329.098234 -144.624854 
L 328.199132 -152.278144 
L 327.300031 -147.505973 
L 326.40093 -144.76078 
L 325.501828 -138.656592 
L 324.602727 -135.260646 
L 323.703626 -138.478041 
L 322.804524 -146.158173 
L 321.905423 -130.80369 
L 321.006321 -139.900138 
L 320.10722 -136.361959 
L 319.208119 -133.478175 
L 318.309017 -140.030336 
L 317.409916 -143.867499 
L 316.510815 -141.812068 
L 315.611713 -146.053603 
L 314.712612 -148.995953 
L 313.81351 -136.651731 
L 312.914409 -141.998326 
L 312.015308 -131.630328 
L 311.116206 -143.607499 
L 310.217105 -134.971666 
L 309.318004 -133.082381 
L 308.418902 -142.886091 
L 307.519801 -136.443435 
L 306.620699 -131.27766 
L 305.721598 -137.899632 
L 304.822497 -131.395454 
L 303.923395 -131.950162 
L 303.024294 -131.012012 
L 302.125193 -134.549294 
L 301.226091 -131.755537 
L 300.32699 -130.095795 
L 299.427888 -127.908979 
L 298.528787 -127.890583 
L 297.629686 -127.931651 
L 296.730584 -134.851814 
L 295.831483 -129.482996 
L 294.932382 -133.304349 
L 294.03328 -129.51311 
L 293.134179 -131.186419 
L 292.235077 -131.293338 
L 291.335976 -135.756127 
L 290.436875 -135.934731 
L 289.537773 -130.218709 
L 288.638672 -131.889906 
L 287.739571 -131.508021 
L 286.840469 -140.552158 
L 285.941368 -136.630036 
L 285.042266 -133.087581 
L 284.143165 -130.491246 
L 283.244064 -135.849982 
L 282.344962 -135.112078 
L 281.445861 -134.284728 
L 280.54676 -134.620213 
L 279.647658 -128.570368 
L 278.748557 -133.333751 
L 277.849455 -129.93506 
L 276.950354 -132.598882 
L 276.051253 -133.51531 
L 275.152151 -132.806624 
L 274.25305 -124.420709 
L 273.353949 -137.650216 
L 272.454847 -131.961827 
L 271.555746 -137.510357 
L 270.656644 -127.345931 
L 269.757543 -128.660633 
L 268.858442 -135.110996 
L 267.95934 -136.948761 
L 267.060239 -138.95956 
L 266.161138 -136.2595 
L 265.262036 -133.305906 
L 264.362935 -130.159799 
L 263.463833 -126.97207 
L 262.564732 -134.702718 
L 261.665631 -134.183615 
L 260.766529 -141.910568 
L 259.867428 -128.147073 
L 258.968327 -141.924134 
L 258.069225 -123.993983 
L 257.170124 -131.699293 
L 256.271022 -131.360667 
L 255.371921 -128.424387 
L 254.47282 -126.200567 
L 253.573718 -127.957147 
L 252.674617 -119.604699 
L 251.775516 -127.609837 
L 250.876414 -134.984625 
L 249.977313 -124.760602 
L 249.078212 -130.796616 
L 248.17911 -130.369705 
L 247.280009 -128.113817 
L 246.380907 -135.007983 
L 245.481806 -124.134606 
L 244.582705 -129.114651 
L 243.683603 -124.884677 
L 242.784502 -123.467304 
L 241.885401 -120.927689 
L 240.986299 -119.301545 
L 240.087198 -138.545001 
L 239.188096 -138.084148 
L 238.288995 -125.10485 
L 237.389894 -119.073428 
L 236.490792 -119.064613 
L 235.591691 -126.7941 
L 234.69259 -129.832443 
L 233.793488 -122.185857 
L 232.894387 -115.027152 
L 231.995285 -128.498315 
L 231.096184 -115.909611 
L 230.197083 -118.706588 
L 229.297981 -130.487551 
L 228.39888 -121.199329 
L 227.499779 -130.031079 
L 226.600677 -119.483422 
L 225.701576 -127.638078 
L 224.802474 -117.382331 
L 223.903373 -120.023613 
L 223.004272 -116.512302 
L 222.10517 -133.254624 
L 221.206069 -114.922291 
L 220.306968 -116.442334 
L 219.407866 -129.479855 
L 218.508765 -117.848199 
L 217.609663 -133.341827 
L 216.710562 -115.715885 
L 215.811461 -117.490675 
L 214.912359 -117.183959 
L 214.013258 -126.099824 
L 213.114157 -118.504917 
L 212.215055 -123.843303 
L 211.315954 -122.261606 
L 210.416852 -110.618231 
L 209.517751 -115.369657 
L 208.61865 -119.258076 
L 207.719548 -115.114909 
L 206.820447 -120.886093 
L 205.921346 -122.968893 
L 205.022244 -125.536591 
L 204.123143 -110.707176 
L 203.224041 -117.279687 
L 202.32494 -119.224345 
L 201.425839 -119.956627 
L 200.526737 -111.270515 
L 199.627636 -129.511685 
L 198.728535 -138.24388 
L 197.829433 -120.72805 
L 196.930332 -114.877897 
L 196.03123 -113.485176 
L 195.132129 -113.273449 
L 194.233028 -114.980567 
L 193.333926 -112.43277 
L 192.434825 -109.891096 
L 191.535724 -108.127417 
L 190.636622 -110.873929 
L 189.737521 -117.121539 
L 188.838419 -114.906745 
L 187.939318 -118.985538 
L 187.040217 -114.901282 
L 186.141115 -125.530706 
L 185.242014 -108.742486 
L 184.342913 -109.050945 
L 183.443811 -111.987146 
L 182.54471 -113.348723 
L 181.645608 -115.847297 
L 180.746507 -111.238764 
L 179.847406 -110.737608 
L 178.948304 -108.823909 
L 178.049203 -114.038195 
L 177.150102 -117.143471 
L 176.251 -109.08874 
L 175.351899 -117.751282 
L 174.452797 -113.993247 
L 173.553696 -105.823124 
L 172.654595 -122.734099 
L 171.755493 -111.243594 
L 170.856392 -119.663002 
L 169.957291 -108.136391 
L 169.058189 -117.828483 
L 168.159088 -111.506709 
L 167.259986 -109.237651 
L 166.360885 -106.948587 
L 165.461784 -121.945071 
L 164.562682 -110.304468 
L 163.663581 -123.203794 
L 162.76448 -110.652754 
L 161.865378 -122.077381 
L 160.966277 -109.365737 
L 160.067175 -117.37246 
L 159.168074 -112.241076 
L 158.268973 -112.168415 
L 157.369871 -120.951443 
L 156.47077 -110.747242 
L 155.571669 -110.490356 
L 154.672567 -119.941002 
L 153.773466 -109.115846 
L 152.874364 -119.428075 
L 151.975263 -110.094799 
L 151.076162 -121.971438 
L 150.17706 -108.754416 
L 149.277959 -110.782318 
L 148.378858 -103.201927 
L 147.479756 -105.161814 
L 146.580655 -103.667003 
L 145.681553 -100.010635 
L 144.782452 -115.525114 
L 143.883351 -110.117999 
L 142.984249 -109.340057 
L 142.085148 -103.01076 
L 141.186047 -113.891501 
L 140.286945 -123.809784 
L 139.387844 -109.501293 
L 138.488742 -104.241374 
L 137.589641 -107.490837 
L 136.69054 -111.974477 
L 135.791438 -99.376034 
L 134.892337 -104.466641 
L 133.993236 -110.055183 
L 133.094134 -102.94863 
L 132.195033 -109.20685 
L 131.295931 -100.534911 
L 130.39683 -117.511235 
L 129.497729 -107.381859 
L 128.598627 -115.468949 
L 127.699526 -111.425945 
L 126.800425 -128.510535 
L 125.901323 -105.262794 
L 125.002222 -114.060735 
L 124.103121 -122.031509 
L 123.204019 -110.524033 
L 122.304918 -118.034509 
L 121.405816 -105.228483 
L 120.506715 -100.849836 
L 119.607614 -109.678392 
z
" style="stroke: #d2dbe0"/>
    </defs>
    <g clip-path="url(#p0e51940155)">
     <use xlink:href="#m1927906fa1" x="0" y="288" style="fill: #d2dbe0; stroke: #d2dbe0"/>
    </g>
   </g>
   <g id="matplotlib.axis_1">
    <g id="xtick_1">
     <g id="line2d_1">
      <defs>
       <path id="m990f0404cf" d="M 0 0 
L 0 3.5 
" style="stroke: #000000; stroke-width: 0.8"/>
      </defs>
      <g>
       <use xlink:href="#m990f0404cf" x="119.607614" y="228.04" style="stroke: #000000; stroke-width: 0.8"/>
      </g>
     </g>
     <g id="text_1">
      <!-- 0 -->
      <g transform="translate(115.193864 246.4) scale(0.16 -0.16)">
       <defs>
        <path id="Bahnschrift-30" d="M 1766 -47 
Q 1116 -47 792 301 
Q 469 650 469 1244 
L 469 3309 
Q 469 3913 797 4256 
Q 1125 4600 1766 4600 
Q 2409 4600 2736 4258 
Q 3063 3916 3063 3309 
L 3063 1244 
Q 3063 641 2736 297 
Q 2409 -47 1766 -47 
z
M 1766 559 
Q 2116 559 2270 742 
Q 2425 925 2425 1244 
L 2425 3309 
Q 2425 3631 2270 3812 
Q 2116 3994 1766 3994 
Q 1416 3994 1261 3812 
Q 1106 3631 1106 3309 
L 1106 1244 
Q 1106 925 1261 742 
Q 1416 559 1766 559 
z
" transform="scale(0.015625)"/>
       </defs>
       <use xlink:href="#Bahnschrift-30"/>
      </g>
     </g>
    </g>
    <g id="xtick_2">
     <g id="line2d_2">
      <g>
       <use xlink:href="#m990f0404cf" x="299.427888" y="228.04" style="stroke: #000000; stroke-width: 0.8"/>
      </g>
     </g>
     <g id="text_2">
      <!-- 200 -->
      <g transform="translate(286.467888 246.4) scale(0.16 -0.16)">
       <defs>
        <path id="Bahnschrift-32" d="M 400 0 
L 400 553 
L 1984 2666 
Q 2122 2847 2198 3040 
Q 2275 3234 2275 3406 
L 2275 3413 
Q 2275 3684 2115 3834 
Q 1956 3984 1663 3984 
Q 1388 3984 1214 3820 
Q 1041 3656 1003 3356 
L 1003 3353 
L 344 3353 
L 344 3356 
Q 428 3944 772 4267 
Q 1116 4591 1656 4591 
Q 2269 4591 2603 4281 
Q 2938 3972 2938 3406 
L 2938 3403 
Q 2938 3163 2838 2898 
Q 2738 2634 2559 2394 
L 1244 606 
L 2963 606 
L 2963 0 
L 400 0 
z
" transform="scale(0.015625)"/>
       </defs>
       <use xlink:href="#Bahnschrift-32"/>
       <use xlink:href="#Bahnschrift-30" x="51.660156"/>
       <use xlink:href="#Bahnschrift-30" x="106.835938"/>
      </g>
     </g>
    </g>
    <g id="xtick_3">
     <g id="line2d_3">
      <g>
       <use xlink:href="#m990f0404cf" x="479.248163" y="228.04" style="stroke: #000000; stroke-width: 0.8"/>
      </g>
     </g>
     <g id="text_3">
      <!-- 400 -->
      <g transform="translate(465.869413 246.4) scale(0.16 -0.16)">
       <defs>
        <path id="Bahnschrift-34" d="M 406 697 
L 406 1250 
L 1931 4541 
L 2588 4541 
L 1100 1288 
L 3328 1288 
L 3328 697 
L 406 697 
z
M 2366 -3 
L 2366 2672 
L 2988 2672 
L 2988 -3 
L 2366 -3 
z
" transform="scale(0.015625)"/>
       </defs>
       <use xlink:href="#Bahnschrift-34"/>
       <use xlink:href="#Bahnschrift-30" x="56.884766"/>
       <use xlink:href="#Bahnschrift-30" x="112.060547"/>
      </g>
     </g>
    </g>
    <g id="xtick_4">
     <g id="line2d_4">
      <g>
       <use xlink:href="#m990f0404cf" x="659.068438" y="228.04" style="stroke: #000000; stroke-width: 0.8"/>
      </g>
     </g>
     <g id="text_4">
      <!-- 600 -->
      <g transform="translate(646.135938 246.4) scale(0.16 -0.16)">
       <defs>
        <path id="Bahnschrift-36" d="M 1641 -47 
Q 1038 -47 706 312 
Q 375 672 375 1325 
L 375 1328 
Q 375 1622 456 1951 
Q 538 2281 691 2588 
L 1678 4544 
L 2366 4544 
L 1206 2278 
L 1209 2391 
Q 1372 2700 1788 2700 
Q 2322 2700 2615 2345 
Q 2909 1991 2909 1344 
L 2909 1341 
Q 2909 681 2578 317 
Q 2247 -47 1641 -47 
z
M 1641 566 
Q 1947 566 2109 753 
Q 2272 941 2272 1288 
L 2272 1291 
Q 2272 1672 2100 1880 
Q 1928 2088 1609 2088 
Q 1325 2088 1169 1878 
Q 1013 1669 1013 1288 
L 1013 1284 
Q 1013 938 1177 752 
Q 1341 566 1641 566 
z
" transform="scale(0.015625)"/>
       </defs>
       <use xlink:href="#Bahnschrift-36"/>
       <use xlink:href="#Bahnschrift-30" x="51.318359"/>
       <use xlink:href="#Bahnschrift-30" x="106.494141"/>
      </g>
     </g>
    </g>
    <g id="xtick_5">
     <g id="line2d_5">
      <g>
       <use xlink:href="#m990f0404cf" x="838.888713" y="228.04" style="stroke: #000000; stroke-width: 0.8"/>
      </g>
     </g>
     <g id="text_5">
      <!-- 800 -->
      <g transform="translate(825.561213 246.4) scale(0.16 -0.16)">
       <defs>
        <path id="Bahnschrift-38" d="M 1800 -47 
Q 1384 -47 1075 109 
Q 766 266 594 550 
Q 422 834 422 1216 
L 422 1291 
Q 422 1631 592 1931 
Q 763 2231 1047 2384 
Q 809 2516 662 2764 
Q 516 3013 516 3288 
L 516 3397 
Q 516 3938 867 4264 
Q 1219 4591 1800 4591 
Q 2381 4591 2732 4264 
Q 3084 3938 3084 3397 
L 3084 3288 
Q 3084 3006 2936 2759 
Q 2788 2513 2544 2384 
Q 2831 2231 3004 1931 
Q 3178 1631 3178 1291 
L 3178 1216 
Q 3178 834 3006 550 
Q 2834 266 2525 109 
Q 2216 -47 1800 -47 
z
M 1800 566 
Q 2134 566 2339 758 
Q 2544 950 2544 1263 
L 2544 1306 
Q 2544 1622 2339 1814 
Q 2134 2006 1800 2006 
Q 1466 2006 1261 1814 
Q 1056 1622 1056 1303 
L 1056 1256 
Q 1056 944 1261 755 
Q 1466 566 1800 566 
z
M 1800 2619 
Q 2091 2619 2269 2803 
Q 2447 2988 2447 3291 
L 2447 3334 
Q 2447 3625 2269 3801 
Q 2091 3978 1800 3978 
Q 1509 3978 1331 3801 
Q 1153 3625 1153 3331 
L 1153 3284 
Q 1153 2984 1331 2801 
Q 1509 2619 1800 2619 
z
" transform="scale(0.015625)"/>
       </defs>
       <use xlink:href="#Bahnschrift-38"/>
       <use xlink:href="#Bahnschrift-30" x="56.25"/>
       <use xlink:href="#Bahnschrift-30" x="111.425781"/>
      </g>
     </g>
    </g>
    <g id="xtick_6">
     <g id="line2d_6">
      <g>
       <use xlink:href="#m990f0404cf" x="1018.708988" y="228.04" style="stroke: #000000; stroke-width: 0.8"/>
      </g>
     </g>
     <g id="text_6">
      <!-- 1000 -->
      <g transform="translate(1002.807738 246.4) scale(0.16 -0.16)">
       <defs>
        <path id="Bahnschrift-31" d="M 1566 4544 
L 1566 0 
L 928 0 
L 928 3850 
L 281 3453 
L 281 4113 
L 928 4544 
L 1566 4544 
z
" transform="scale(0.015625)"/>
       </defs>
       <use xlink:href="#Bahnschrift-31"/>
       <use xlink:href="#Bahnschrift-30" x="33.251953"/>
       <use xlink:href="#Bahnschrift-30" x="88.427734"/>
       <use xlink:href="#Bahnschrift-30" x="143.603516"/>
      </g>
     </g>
    </g>
    <g id="text_7">
     <!-- Theta -->
     <g transform="translate(549.2325 265.0575) scale(0.16 -0.16)">
      <defs>
       <path id="Bahnschrift-54" d="M 1222 0 
L 1222 4172 
L 1859 4172 
L 1859 0 
L 1222 0 
z
M -63 3938 
L -63 4544 
L 3144 4544 
L 3144 3938 
L -63 3938 
z
" transform="scale(0.015625)"/>
       <path id="Bahnschrift-68" d="M 500 0 
L 500 4544 
L 1138 4544 
L 1138 0 
L 500 0 
z
M 2469 0 
L 2469 1966 
Q 2469 2309 2292 2496 
Q 2116 2684 1791 2684 
Q 1478 2684 1308 2521 
Q 1138 2359 1138 2063 
L 1072 2688 
Q 1222 2975 1464 3133 
Q 1706 3291 2000 3291 
Q 2528 3291 2817 2945 
Q 3106 2600 3106 1969 
L 3106 0 
L 2469 0 
z
" transform="scale(0.015625)"/>
       <path id="Bahnschrift-65" d="M 1828 -47 
Q 1150 -47 778 331 
Q 406 709 406 1406 
L 406 1772 
Q 406 2497 764 2894 
Q 1122 3291 1772 3291 
Q 2384 3291 2720 2841 
Q 3056 2391 3056 1578 
L 3056 1366 
L 869 1366 
L 869 1878 
L 2450 1878 
L 2450 1878 
Q 2422 2272 2245 2494 
Q 2069 2716 1772 2716 
Q 1413 2716 1213 2478 
Q 1013 2241 1013 1806 
L 1013 1394 
Q 1013 991 1227 775 
Q 1441 559 1828 559 
Q 2022 559 2212 637 
Q 2403 716 2553 856 
L 2553 856 
L 2972 438 
L 2972 438 
Q 2731 206 2431 79 
Q 2131 -47 1828 -47 
z
" transform="scale(0.015625)"/>
       <path id="Bahnschrift-74" d="M 1344 -16 
Q 944 -16 764 206 
Q 584 428 584 844 
L 584 4188 
L 1222 4188 
L 1222 838 
Q 1222 722 1269 656 
Q 1316 591 1406 591 
L 1713 591 
L 1713 -16 
L 1344 -16 
z
M 250 2669 
L 250 3244 
L 1713 3244 
L 1713 2669 
L 250 2669 
z
" transform="scale(0.015625)"/>
       <path id="Bahnschrift-61" d="M 2331 0 
L 2331 2056 
Q 2331 2375 2161 2551 
Q 1991 2728 1678 2728 
Q 1488 2728 1302 2670 
Q 1116 2613 969 2503 
L 503 2822 
Q 688 3044 989 3167 
Q 1291 3291 1659 3291 
Q 2269 3291 2603 2975 
Q 2938 2659 2938 2084 
L 2938 0 
L 2331 0 
z
M 1538 -47 
Q 941 -47 642 200 
Q 344 447 344 956 
Q 344 1441 617 1680 
Q 891 1919 1438 1919 
L 2359 1919 
L 2403 1406 
L 1441 1406 
Q 1194 1406 1069 1295 
Q 944 1184 944 956 
Q 944 709 1109 590 
Q 1275 472 1606 472 
Q 1969 472 2150 550 
Q 2331 628 2331 794 
L 2397 338 
Q 2313 206 2188 122 
Q 2063 38 1902 -4 
Q 1741 -47 1538 -47 
z
" transform="scale(0.015625)"/>
      </defs>
      <use xlink:href="#Bahnschrift-54"/>
      <use xlink:href="#Bahnschrift-68" x="48.144531"/>
      <use xlink:href="#Bahnschrift-65" x="104.003906"/>
      <use xlink:href="#Bahnschrift-74" x="157.617188"/>
      <use xlink:href="#Bahnschrift-61" x="190.234375"/>
     </g>
    </g>
   </g>
   <g id="matplotlib.axis_2">
    <g id="ytick_1">
     <g id="line2d_7">
      <defs>
       <path id="mc181ee6150" d="M 0 0 
L -3.5 0 
" style="stroke: #000000; stroke-width: 0.8"/>
      </defs>
      <g>
       <use xlink:href="#mc181ee6150" x="74.6975" y="190.345294" style="stroke: #000000; stroke-width: 0.8"/>
      </g>
     </g>
     <g id="text_8">
      <!-- 0.02 -->
      <g transform="translate(38.1525 196.025294) scale(0.16 -0.16)">
       <defs>
        <path id="Bahnschrift-2e" d="M 391 0 
L 391 669 
L 1059 669 
L 1059 0 
L 391 0 
z
" transform="scale(0.015625)"/>
       </defs>
       <use xlink:href="#Bahnschrift-30"/>
       <use xlink:href="#Bahnschrift-2e" x="55.175781"/>
       <use xlink:href="#Bahnschrift-30" x="77.832031"/>
       <use xlink:href="#Bahnschrift-32" x="133.007812"/>
      </g>
     </g>
    </g>
    <g id="ytick_2">
     <g id="line2d_8">
      <g>
       <use xlink:href="#mc181ee6150" x="74.6975" y="146.064696" style="stroke: #000000; stroke-width: 0.8"/>
      </g>
     </g>
     <g id="text_9">
      <!-- 0.04 -->
      <g transform="translate(37.315 151.744696) scale(0.16 -0.16)">
       <use xlink:href="#Bahnschrift-30"/>
       <use xlink:href="#Bahnschrift-2e" x="55.175781"/>
       <use xlink:href="#Bahnschrift-30" x="77.832031"/>
       <use xlink:href="#Bahnschrift-34" x="133.007812"/>
      </g>
     </g>
    </g>
    <g id="ytick_3">
     <g id="line2d_9">
      <g>
       <use xlink:href="#mc181ee6150" x="74.6975" y="101.784098" style="stroke: #000000; stroke-width: 0.8"/>
      </g>
     </g>
     <g id="text_10">
      <!-- 0.06 -->
      <g transform="translate(38.2075 107.464098) scale(0.16 -0.16)">
       <use xlink:href="#Bahnschrift-30"/>
       <use xlink:href="#Bahnschrift-2e" x="55.175781"/>
       <use xlink:href="#Bahnschrift-30" x="77.832031"/>
       <use xlink:href="#Bahnschrift-36" x="133.007812"/>
      </g>
     </g>
    </g>
    <g id="ytick_4">
     <g id="line2d_10">
      <g>
       <use xlink:href="#mc181ee6150" x="74.6975" y="57.5035" style="stroke: #000000; stroke-width: 0.8"/>
      </g>
     </g>
     <g id="text_11">
      <!-- 0.08 -->
      <g transform="translate(37.4175 63.1835) scale(0.16 -0.16)">
       <use xlink:href="#Bahnschrift-30"/>
       <use xlink:href="#Bahnschrift-2e" x="55.175781"/>
       <use xlink:href="#Bahnschrift-30" x="77.832031"/>
       <use xlink:href="#Bahnschrift-38" x="133.007812"/>
      </g>
     </g>
    </g>
    <g id="text_12">
     <!-- Time [s] -->
     <g transform="translate(30.0175 150.65875) rotate(-90) scale(0.16 -0.16)">
      <defs>
       <path id="Bahnschrift-69" d="M 500 3906 
L 500 4544 
L 1138 4544 
L 1138 3906 
L 500 3906 
z
M 500 0 
L 500 3244 
L 1138 3244 
L 1138 0 
L 500 0 
z
" transform="scale(0.015625)"/>
       <path id="Bahnschrift-6d" d="M 4375 0 
L 4375 1966 
Q 4375 2309 4198 2496 
Q 4022 2684 3697 2684 
Q 3400 2684 3237 2503 
Q 3075 2322 3075 1991 
L 2947 2616 
Q 3103 2941 3353 3116 
Q 3603 3291 3906 3291 
Q 4434 3291 4723 2945 
Q 5013 2600 5013 1969 
L 5013 0 
L 4375 0 
z
M 500 0 
L 500 3244 
L 1138 3244 
L 1138 0 
L 500 0 
z
M 2438 0 
L 2438 1966 
Q 2438 2309 2269 2496 
Q 2100 2684 1791 2684 
Q 1478 2684 1308 2518 
Q 1138 2353 1138 2053 
L 1072 2678 
Q 1222 2972 1464 3131 
Q 1706 3291 2000 3291 
Q 2513 3291 2794 2945 
Q 3075 2600 3075 1969 
L 3075 0 
L 2438 0 
z
" transform="scale(0.015625)"/>
       <path id="Bahnschrift-20" transform="scale(0.015625)"/>
       <path id="Bahnschrift-5b" d="M 594 -1019 
L 594 5081 
L 1200 5081 
L 1200 -1019 
L 594 -1019 
z
M 906 -1019 
L 906 -444 
L 1788 -444 
L 1788 -1019 
L 906 -1019 
z
M 906 4506 
L 906 5081 
L 1788 5081 
L 1788 4506 
L 906 4506 
z
" transform="scale(0.015625)"/>
       <path id="Bahnschrift-73" d="M 1647 -47 
Q 1216 -47 864 79 
Q 513 206 234 459 
L 234 459 
L 613 925 
L 613 925 
Q 878 725 1136 625 
Q 1394 525 1647 525 
Q 2025 525 2214 642 
Q 2403 759 2403 994 
Q 2403 1175 2276 1250 
Q 2150 1325 1945 1348 
Q 1741 1372 1506 1388 
Q 1309 1403 1115 1436 
Q 922 1469 762 1555 
Q 603 1641 508 1809 
Q 413 1978 413 2263 
Q 413 2778 728 3034 
Q 1044 3291 1669 3291 
Q 2050 3291 2378 3187 
Q 2706 3084 2994 2872 
L 2994 2872 
L 2609 2406 
L 2609 2406 
Q 2366 2563 2130 2641 
Q 1894 2719 1669 2719 
Q 1344 2719 1181 2608 
Q 1019 2497 1019 2275 
Q 1019 2128 1131 2064 
Q 1244 2000 1428 1981 
Q 1613 1963 1825 1947 
Q 2028 1934 2236 1901 
Q 2444 1869 2619 1775 
Q 2794 1681 2900 1497 
Q 3006 1313 3006 994 
Q 3006 472 2667 212 
Q 2328 -47 1647 -47 
z
" transform="scale(0.015625)"/>
       <path id="Bahnschrift-5d" d="M 681 -1019 
L 681 5081 
L 1288 5081 
L 1288 -1019 
L 681 -1019 
z
M 94 -1019 
L 94 -444 
L 975 -444 
L 975 -1019 
L 94 -1019 
z
M 94 4506 
L 94 5081 
L 975 5081 
L 975 4506 
L 94 4506 
z
" transform="scale(0.015625)"/>
      </defs>
      <use xlink:href="#Bahnschrift-54"/>
      <use xlink:href="#Bahnschrift-69" x="48.144531"/>
      <use xlink:href="#Bahnschrift-6d" x="73.242188"/>
      <use xlink:href="#Bahnschrift-65" x="158.886719"/>
      <use xlink:href="#Bahnschrift-20" x="212.5"/>
      <use xlink:href="#Bahnschrift-5b" x="239.355469"/>
      <use xlink:href="#Bahnschrift-73" x="268.75"/>
      <use xlink:href="#Bahnschrift-5d" x="320.605469"/>
     </g>
    </g>
   </g>
   <g id="line2d_11">
    <path d="M 128.598627 203.09483 
L 130.39683 202.708675 
L 132.195033 202.349725 
L 133.094134 202.399574 
L 133.993236 202.173392 
L 134.892337 202.129769 
L 137.589641 202.328709 
L 145.681553 200.997202 
L 147.479756 200.803557 
L 149.277959 200.535863 
L 150.17706 200.468388 
L 151.076162 200.250228 
L 151.975263 200.197708 
L 152.874364 199.927048 
L 153.773466 199.856516 
L 154.672567 199.611555 
L 158.268973 199.183785 
L 161.865378 198.932854 
L 162.76448 198.809884 
L 163.663581 198.517575 
L 166.360885 198.274909 
L 168.159088 198.175373 
L 169.957291 198.037589 
L 170.856392 198.057403 
L 172.654595 197.855148 
L 175.351899 197.763649 
L 178.948304 197.034097 
L 181.645608 197.052062 
L 187.040217 196.33016 
L 187.939318 196.246269 
L 188.838419 196.030501 
L 191.535724 195.675707 
L 194.233028 195.078502 
L 196.930332 195.034491 
L 198.728535 194.593922 
L 203.224041 194.333033 
L 204.123143 194.101359 
L 205.921346 193.873997 
L 207.719548 194.00843 
L 210.416852 193.60055 
L 212.215055 193.64934 
L 214.013258 193.339629 
L 214.912359 193.257216 
L 216.710562 193.344972 
L 218.508765 192.838374 
L 220.306968 192.655884 
L 223.903373 192.190863 
L 225.701576 191.820126 
L 226.600677 191.838411 
L 227.499779 191.730068 
L 228.39888 191.736823 
L 231.096184 191.107667 
L 232.894387 190.711576 
L 233.793488 190.457275 
L 234.69259 190.37548 
L 235.591691 190.466848 
L 236.490792 190.437261 
L 237.389894 190.218827 
L 238.288995 190.130345 
L 239.188096 189.926031 
L 241.885401 189.56753 
L 242.784502 189.412935 
L 243.683603 189.427426 
L 246.380907 189.039396 
L 249.078212 189.160942 
L 249.977313 189.038474 
L 250.876414 189.092869 
L 252.674617 188.619288 
L 256.271022 188.242156 
L 258.069225 187.723547 
L 260.766529 187.679075 
L 264.362935 186.821189 
L 267.060239 186.370397 
L 267.95934 186.002948 
L 269.757543 186.026515 
L 272.454847 185.888267 
L 273.353949 185.71634 
L 274.25305 185.370683 
L 275.152151 185.5941 
L 276.051253 185.614164 
L 277.849455 185.385178 
L 282.344962 185.336741 
L 284.143165 185.168097 
L 285.042266 184.959156 
L 285.941368 185.119127 
L 291.335976 184.425451 
L 292.235077 184.569799 
L 294.03328 184.316544 
L 295.831483 184.19223 
L 296.730584 183.817137 
L 301.226091 183.497104 
L 302.125193 183.109651 
L 305.721598 182.62848 
L 306.620699 182.225046 
L 308.418902 181.984151 
L 312.015308 181.807099 
L 312.914409 181.713705 
L 313.81351 181.356967 
L 314.712612 181.452847 
L 315.611713 181.40048 
L 319.208119 180.319546 
L 321.006321 180.455535 
L 323.703626 180.063284 
L 324.602727 180.175229 
L 327.300031 179.856219 
L 328.199132 179.548484 
L 330.896437 179.422997 
L 331.795538 179.518814 
L 332.694639 179.162169 
L 333.593741 178.968678 
L 334.492842 179.034624 
L 335.391943 178.923341 
L 336.291045 179.098419 
L 338.988349 178.711886 
L 340.786552 178.590175 
L 342.584754 178.376523 
L 347.080261 177.92861 
L 347.979363 177.647185 
L 350.676667 177.247102 
L 352.47487 176.755622 
L 355.172174 176.423759 
L 358.768579 176.227058 
L 360.566782 175.87424 
L 361.465883 175.778325 
L 362.364985 175.527229 
L 363.264086 175.435627 
L 365.062289 174.883624 
L 367.759593 174.509467 
L 368.658694 174.069513 
L 369.557796 174.005329 
L 370.456897 173.809135 
L 371.355998 173.755672 
L 373.154201 173.396923 
L 374.952404 173.205329 
L 376.750607 172.69173 
L 377.649708 172.793759 
L 378.548809 172.758534 
L 381.246113 172.297536 
L 382.145215 172.524098 
L 383.044316 172.504023 
L 384.842519 172.161535 
L 385.74162 171.983443 
L 386.640722 172.478219 
L 387.539823 172.288107 
L 389.338026 172.368499 
L 392.03533 171.811798 
L 392.934431 171.56996 
L 393.833533 171.449306 
L 395.631735 171.463692 
L 397.429938 171.188357 
L 398.32904 171.104623 
L 400.127242 170.666816 
L 401.026344 170.606705 
L 401.925445 170.731809 
L 402.824546 170.441358 
L 404.622749 170.284867 
L 405.521851 170.413601 
L 407.320053 169.751179 
L 408.219155 169.643152 
L 409.118256 169.653719 
L 410.017357 169.408301 
L 412.714662 169.282279 
L 413.613763 169.01674 
L 415.411966 168.948089 
L 417.210168 169.013919 
L 419.907473 168.573941 
L 421.705675 168.437019 
L 422.604777 168.287994 
L 425.302081 168.3244 
L 426.201182 168.163532 
L 427.100284 168.130329 
L 434.293095 166.974337 
L 436.990399 166.681056 
L 438.788601 166.069182 
L 439.687703 166.032306 
L 441.485906 165.541651 
L 444.18321 165.184064 
L 446.880514 164.681809 
L 448.678717 164.516292 
L 451.376021 164.201717 
L 452.275122 164.146298 
L 453.174223 163.765371 
L 454.972426 163.680205 
L 456.770629 163.859194 
L 457.66973 163.625124 
L 458.568832 163.604313 
L 459.467933 163.432894 
L 460.367034 163.553314 
L 461.266136 163.234264 
L 462.165237 163.110648 
L 463.064339 163.143978 
L 463.96344 163.462181 
L 464.862541 163.109017 
L 465.761643 162.990525 
L 466.660744 162.757657 
L 467.559845 162.915004 
L 473.853555 162.296823 
L 475.651758 162.293881 
L 478.349062 162.102832 
L 481.046366 162.131714 
L 481.945467 161.938766 
L 482.844569 162.130224 
L 486.440974 162.100512 
L 488.239177 161.625577 
L 490.03738 161.681836 
L 491.835583 161.438615 
L 492.734684 161.144015 
L 495.431988 160.791842 
L 496.331089 160.453136 
L 498.129292 160.144161 
L 499.028394 159.808104 
L 500.826596 159.712869 
L 501.725698 159.280859 
L 503.5239 159.139569 
L 504.423002 158.86912 
L 507.120306 158.832005 
L 508.019407 158.524509 
L 509.81761 158.272223 
L 510.716711 158.414955 
L 511.615813 158.384343 
L 512.514914 158.058779 
L 513.414015 157.903938 
L 515.212218 158.099323 
L 517.010421 157.849556 
L 518.808624 157.210939 
L 519.707725 157.35908 
L 520.606826 157.072335 
L 522.405029 156.837864 
L 523.304131 156.549249 
L 525.102333 156.362832 
L 526.001435 156.07187 
L 527.799637 155.933305 
L 528.698739 155.670771 
L 529.59784 155.632667 
L 530.496942 155.906222 
L 531.396043 155.492864 
L 533.194246 155.304477 
L 534.992448 155.09337 
L 535.89155 155.243366 
L 537.689753 154.974277 
L 538.588854 154.660819 
L 539.487955 154.494002 
L 541.286158 154.388461 
L 542.185259 154.041551 
L 543.084361 153.992696 
L 543.983462 154.273654 
L 544.882564 154.187593 
L 545.781665 153.923021 
L 546.680766 153.980417 
L 548.478969 153.731671 
L 549.37807 153.94498 
L 550.277172 153.738804 
L 551.176273 153.321746 
L 552.075375 153.265514 
L 552.974476 153.518763 
L 554.772679 153.157462 
L 555.67178 153.113302 
L 556.570881 153.466735 
L 558.369084 153.14304 
L 559.268186 153.202514 
L 566.460997 152.071626 
L 567.360098 151.933814 
L 568.259199 151.662545 
L 569.158301 151.783739 
L 570.057402 151.65607 
L 570.956503 151.277999 
L 572.754706 151.292145 
L 574.552909 150.91508 
L 575.45201 150.892545 
L 577.250213 150.291783 
L 578.149314 150.452631 
L 579.048416 150.477608 
L 579.947517 150.251476 
L 582.644821 150.228693 
L 583.543923 149.721217 
L 584.443024 149.641552 
L 585.342125 149.423766 
L 586.241227 149.661082 
L 587.140328 149.591426 
L 588.938531 149.207562 
L 589.837632 148.674065 
L 592.534936 148.44505 
L 598.828646 147.862447 
L 600.626849 147.256323 
L 603.324153 147.134706 
L 604.223254 146.798056 
L 606.021457 146.78497 
L 607.81966 147.082461 
L 608.718761 146.984512 
L 609.617863 147.080732 
L 610.516964 146.770535 
L 611.416065 146.600891 
L 612.315167 146.752055 
L 613.214268 146.441389 
L 614.113369 146.333099 
L 615.911572 146.316191 
L 616.810674 145.975487 
L 618.608876 146.131361 
L 622.205282 145.864215 
L 623.104383 145.58035 
L 624.902586 145.370145 
L 625.801687 145.446711 
L 627.59989 144.73314 
L 628.498991 144.917734 
L 630.297194 144.671918 
L 631.196296 144.739322 
L 632.994498 144.299367 
L 635.691802 143.93553 
L 636.590904 143.85052 
L 637.490005 144.011934 
L 638.389106 143.935676 
L 639.288208 143.530977 
L 641.086411 143.515057 
L 641.985512 143.164086 
L 643.783715 142.922037 
L 644.682816 143.174655 
L 645.581917 143.245069 
L 646.481019 142.855215 
L 647.38012 143.037809 
L 648.279222 143.056852 
L 649.178323 142.821596 
L 650.976526 143.045697 
L 653.67383 142.887726 
L 654.572931 142.791238 
L 655.472033 142.334857 
L 656.371134 142.204388 
L 657.270235 142.335805 
L 658.169337 142.089669 
L 659.068438 141.628778 
L 659.967539 141.748091 
L 660.866641 141.62593 
L 661.765742 141.28272 
L 662.664844 141.180504 
L 663.563945 140.915909 
L 664.463046 140.856302 
L 666.261249 140.459577 
L 667.16035 140.511641 
L 668.059452 140.36795 
L 669.857655 139.827133 
L 670.756756 140.04996 
L 672.554959 139.641327 
L 673.45406 139.732531 
L 674.353161 139.612436 
L 675.252263 139.353105 
L 676.151364 139.458134 
L 677.050466 139.721064 
L 677.949567 139.414938 
L 679.74777 139.389715 
L 680.646871 139.058362 
L 681.545972 138.935323 
L 682.445074 139.028605 
L 684.243277 138.663618 
L 685.142378 138.532712 
L 686.041479 138.181183 
L 687.839682 138.171836 
L 688.738783 138.005214 
L 689.637885 137.59508 
L 690.536986 137.735212 
L 691.436088 137.579367 
L 692.335189 137.551421 
L 693.23429 137.32515 
L 695.931594 136.929684 
L 697.729797 136.683197 
L 698.628899 136.802061 
L 700.427101 136.543528 
L 701.326203 136.590856 
L 702.225304 136.134355 
L 704.023507 136.121027 
L 704.922608 135.780822 
L 706.720811 135.510038 
L 707.619912 135.64137 
L 708.519014 135.315913 
L 709.418115 135.286968 
L 710.317216 135.119002 
L 711.216318 135.069354 
L 712.115419 134.799579 
L 713.014521 134.8158 
L 715.711825 134.524788 
L 716.610926 134.142491 
L 717.510027 134.292169 
L 719.30823 133.774615 
L 720.207332 133.892517 
L 721.106433 133.709913 
L 722.005534 133.34995 
L 722.904636 133.499217 
L 724.702838 133.200795 
L 725.60194 132.86154 
L 727.400143 132.820924 
L 728.299244 132.6987 
L 730.097447 132.669418 
L 730.996548 132.474725 
L 731.895649 132.425555 
L 732.794751 132.221657 
L 733.693852 132.243951 
L 736.391156 131.967569 
L 738.189359 131.913879 
L 739.08846 131.554367 
L 739.987562 131.704852 
L 742.684866 131.156001 
L 743.583967 131.253703 
L 744.483069 131.166319 
L 745.38217 130.89667 
L 746.281271 130.817603 
L 747.180373 130.559608 
L 748.079474 130.560983 
L 749.877677 130.127443 
L 755.272285 129.603009 
L 756.171387 129.361958 
L 757.070488 129.621926 
L 758.868691 129.451714 
L 759.767792 129.262417 
L 760.666893 129.473022 
L 762.465096 129.27522 
L 764.263299 128.987113 
L 765.1624 129.095828 
L 766.061502 128.771178 
L 766.960603 128.833808 
L 769.657907 128.440968 
L 770.557008 128.536891 
L 772.355211 128.280615 
L 773.254313 127.94017 
L 774.153414 127.994683 
L 775.052515 127.865157 
L 775.951617 127.620593 
L 776.850718 127.571034 
L 777.749819 127.408825 
L 778.648921 127.016428 
L 784.94263 126.640319 
L 785.841732 126.818479 
L 786.740833 126.507365 
L 789.438137 126.554219 
L 790.337239 126.395472 
L 792.135441 126.473967 
L 793.034543 126.236675 
L 793.933644 126.387338 
L 794.832746 126.372122 
L 795.731847 126.220133 
L 796.630948 126.238803 
L 798.429151 126.097416 
L 799.328252 126.13976 
L 800.227354 125.837172 
L 801.126455 125.831349 
L 802.924658 125.55562 
L 804.722861 125.427025 
L 806.521063 125.136925 
L 807.420165 124.910552 
L 808.319266 124.88941 
L 810.117469 124.441654 
L 811.01657 124.545262 
L 811.915672 124.14716 
L 812.814773 123.892519 
L 813.713874 124.01537 
L 816.411179 123.353514 
L 818.209381 123.197637 
L 819.108483 122.96984 
L 820.007584 123.131429 
L 821.805787 122.647467 
L 822.704888 122.857413 
L 823.60399 122.41456 
L 825.402192 122.315937 
L 826.301294 121.966113 
L 828.099496 122.004705 
L 828.998598 121.663443 
L 829.897699 121.882136 
L 830.796801 121.836672 
L 831.695902 121.585939 
L 833.494105 121.638479 
L 835.292307 121.36335 
L 836.191409 121.379793 
L 837.09051 121.256949 
L 837.989612 121.003602 
L 838.888713 120.966303 
L 839.787814 121.087 
L 840.686916 120.89454 
L 841.586017 120.958176 
L 842.485118 120.867176 
L 843.38422 120.541184 
L 844.283321 120.829578 
L 846.980625 120.428636 
L 848.778828 119.796899 
L 849.677929 119.791983 
L 851.476132 119.226693 
L 852.375234 119.219009 
L 853.274335 118.976977 
L 855.072538 118.890699 
L 855.971639 118.679459 
L 856.87074 118.640009 
L 857.769842 118.187974 
L 859.568045 117.561772 
L 860.467146 117.526216 
L 861.366247 117.640426 
L 862.265349 117.24316 
L 864.063551 117.218413 
L 864.962653 117.003117 
L 867.659957 117.154275 
L 870.357261 117.22066 
L 871.256362 117.111916 
L 872.155464 117.125909 
L 874.852768 116.741875 
L 875.751869 117.048366 
L 876.650971 117.029805 
L 877.550072 117.294099 
L 881.146478 116.927111 
L 882.045579 116.614445 
L 882.94468 116.852231 
L 883.843782 116.604322 
L 884.742883 116.681964 
L 885.641984 116.396666 
L 886.541086 116.701634 
L 887.440187 116.345043 
L 891.036593 115.875962 
L 892.834795 115.760206 
L 893.733897 115.585395 
L 894.632998 115.560986 
L 896.431201 115.212068 
L 898.229404 115.094277 
L 902.72491 114.196878 
L 903.624012 114.025868 
L 904.523113 113.699398 
L 905.422215 113.634906 
L 906.321316 113.454858 
L 907.220417 113.55358 
L 909.01862 113.222057 
L 909.917721 113.393859 
L 911.715924 113.077075 
L 912.615026 113.144006 
L 913.514127 113.078846 
L 914.413228 112.715647 
L 917.110532 112.440005 
L 918.009634 112.506173 
L 918.908735 112.408543 
L 919.807837 112.433764 
L 920.706938 112.322613 
L 922.505141 112.390137 
L 925.202445 111.962447 
L 926.101546 111.991625 
L 928.79885 111.508273 
L 929.697952 111.371577 
L 930.597053 110.990636 
L 931.496154 110.941967 
L 932.395256 111.076443 
L 933.294357 110.814325 
L 934.193459 110.346689 
L 935.09256 110.26484 
L 935.991661 110.041659 
L 936.890763 110.015317 
L 937.789864 109.83524 
L 938.688965 109.815679 
L 939.588067 109.679133 
L 940.487168 109.283379 
L 941.38627 109.326338 
L 944.083574 109.053113 
L 944.982675 109.020458 
L 945.881776 108.693523 
L 946.780878 108.791663 
L 947.679979 108.675015 
L 948.579081 108.692908 
L 950.377283 108.311152 
L 951.276385 108.287052 
L 952.175486 108.52764 
L 954.87279 108.299927 
L 955.771892 108.249227 
L 956.670993 107.885599 
L 957.570094 107.848254 
L 958.469196 107.98383 
L 959.368297 107.909692 
L 962.065601 107.043544 
L 962.964703 106.939492 
L 963.863804 106.998696 
L 967.460209 106.318897 
L 968.359311 106.342225 
L 971.056615 105.906842 
L 971.955716 105.839993 
L 972.854818 105.553298 
L 973.753919 105.395938 
L 974.65302 105.401294 
L 975.552122 105.117286 
L 976.451223 105.101371 
L 977.350325 104.732095 
L 978.249426 104.830394 
L 979.148527 105.043843 
L 980.047629 105.005038 
L 980.94673 104.758483 
L 982.744933 104.623986 
L 983.644034 104.784875 
L 984.543136 104.363812 
L 985.442237 104.457535 
L 986.341338 104.118479 
L 988.139541 104.187434 
L 989.038642 103.869065 
L 989.937744 103.840407 
L 990.836845 103.606785 
L 991.735947 103.620906 
L 992.635048 103.322179 
L 993.534149 103.307534 
L 995.332352 103.037427 
L 996.231453 102.87983 
L 997.130555 102.578313 
L 999.827859 102.279081 
L 1001.626062 101.744176 
L 1004.323366 101.804385 
L 1005.222467 101.461642 
L 1006.121569 101.366058 
L 1007.02067 101.599682 
L 1007.919771 101.419952 
L 1008.818873 101.453819 
L 1008.818873 101.453819 
" clip-path="url(#p0e51940155)" style="fill: none; stroke: #5dc694; stroke-width: 1.5; stroke-linecap: square"/>
   </g>
   <g id="patch_3">
    <path d="M 74.6975 228.04 
L 74.6975 17.28 
" style="fill: none; stroke: #000000; stroke-width: 0.8; stroke-linejoin: miter; stroke-linecap: square"/>
   </g>
   <g id="patch_4">
    <path d="M 1062.72 228.04 
L 1062.72 17.28 
" style="fill: none; stroke: #000000; stroke-width: 0.8; stroke-linejoin: miter; stroke-linecap: square"/>
   </g>
   <g id="patch_5">
    <path d="M 74.6975 228.04 
L 1062.72 228.04 
" style="fill: none; stroke: #000000; stroke-width: 0.8; stroke-linejoin: miter; stroke-linecap: square"/>
   </g>
   <g id="patch_6">
    <path d="M 74.6975 17.28 
L 1062.72 17.28 
" style="fill: none; stroke: #000000; stroke-width: 0.8; stroke-linejoin: miter; stroke-linecap: square"/>
   </g>
   <g id="legend_1">
    <g id="patch_7">
     <path d="M 763.8 76.7375 
L 1051.52 76.7375 
Q 1054.72 76.7375 1054.72 73.5375 
L 1054.72 28.48 
Q 1054.72 25.28 1051.52 25.28 
L 763.8 25.28 
Q 760.6 25.28 760.6 28.48 
L 760.6 73.5375 
Q 760.6 76.7375 763.8 76.7375 
z
" style="fill: #ffffff; opacity: 0.8; stroke: #cccccc; stroke-linejoin: miter"/>
    </g>
    <g id="line2d_12">
     <path d="M 767 38.7825 
L 783 38.7825 
L 799 38.7825 
" style="fill: none; stroke: #5dc694; stroke-width: 1.5; stroke-linecap: square"/>
    </g>
    <g id="text_13">
     <!-- Mean Time [Rolling Average (20)] -->
     <g transform="translate(811.8 44.3825) scale(0.16 -0.16)">
      <defs>
       <path id="Bahnschrift-4d" d="M 2494 1544 
L 3828 4544 
L 4425 4544 
L 4425 0 
L 3803 0 
L 3803 3403 
L 3834 3203 
L 2716 631 
L 2272 631 
L 1153 3141 
L 1184 3403 
L 1184 0 
L 563 0 
L 563 4544 
L 1159 4544 
L 2494 1544 
z
" transform="scale(0.015625)"/>
       <path id="Bahnschrift-6e" d="M 500 0 
L 500 3244 
L 1138 3244 
L 1138 0 
L 500 0 
z
M 2469 0 
L 2469 1966 
Q 2469 2309 2292 2496 
Q 2116 2684 1791 2684 
Q 1478 2684 1308 2518 
Q 1138 2353 1138 2053 
L 1072 2678 
Q 1222 2972 1464 3131 
Q 1706 3291 2000 3291 
Q 2528 3291 2817 2945 
Q 3106 2600 3106 1969 
L 3106 0 
L 2469 0 
z
" transform="scale(0.015625)"/>
       <path id="Bahnschrift-52" d="M 841 1922 
L 841 2528 
L 2391 2528 
Q 2669 2528 2837 2722 
Q 3006 2916 3006 3234 
L 3006 3234 
Q 3006 3553 2837 3747 
Q 2669 3941 2391 3941 
L 841 3941 
L 841 4547 
L 2366 4547 
Q 2763 4547 3059 4383 
Q 3356 4219 3520 3925 
Q 3684 3631 3684 3234 
L 3684 3234 
Q 3684 2841 3518 2545 
Q 3353 2250 3058 2086 
Q 2763 1922 2366 1922 
L 841 1922 
z
M 563 0 
L 563 4547 
L 1200 4547 
L 1200 0 
L 563 0 
z
M 3119 0 
L 2078 2063 
L 2713 2206 
L 3875 0 
L 3119 0 
z
" transform="scale(0.015625)"/>
       <path id="Bahnschrift-6f" d="M 1744 -47 
Q 1106 -47 756 323 
Q 406 694 406 1366 
L 406 1894 
Q 406 2559 756 2925 
Q 1106 3291 1744 3291 
Q 2381 3291 2731 2925 
Q 3081 2559 3081 1894 
L 3081 1356 
Q 3081 688 2731 320 
Q 2381 -47 1744 -47 
z
M 1744 559 
Q 2078 559 2261 768 
Q 2444 978 2444 1356 
L 2444 1894 
Q 2444 2272 2261 2478 
Q 2078 2684 1744 2684 
Q 1413 2684 1228 2478 
Q 1044 2272 1044 1894 
L 1044 1356 
Q 1044 978 1228 768 
Q 1413 559 1744 559 
z
" transform="scale(0.015625)"/>
       <path id="Bahnschrift-6c" d="M 1138 4544 
L 1138 838 
Q 1138 722 1189 656 
Q 1241 591 1334 591 
L 1634 591 
L 1634 -16 
L 1259 -16 
Q 900 -16 700 209 
Q 500 434 500 844 
L 500 4544 
L 1138 4544 
z
" transform="scale(0.015625)"/>
       <path id="Bahnschrift-67" d="M 1588 -1319 
Q 1222 -1319 933 -1183 
Q 644 -1047 484 -800 
L 484 -800 
L 916 -409 
L 916 -409 
Q 1041 -581 1214 -675 
Q 1388 -769 1578 -769 
Q 1944 -769 2144 -567 
Q 2344 -366 2344 3 
L 2344 3244 
L 2981 3244 
L 2981 97 
Q 2981 -578 2617 -948 
Q 2253 -1319 1588 -1319 
z
M 1528 -56 
Q 991 -56 698 289 
Q 406 634 406 1263 
L 406 1978 
Q 406 2609 692 2954 
Q 978 3300 1497 3300 
Q 1784 3300 2023 3150 
Q 2263 3000 2409 2728 
L 2344 2066 
Q 2344 2272 2269 2419 
Q 2194 2566 2051 2642 
Q 1909 2719 1706 2719 
Q 1391 2719 1217 2522 
Q 1044 2325 1044 1969 
L 1044 1263 
Q 1044 909 1217 717 
Q 1391 525 1706 525 
Q 1909 525 2051 604 
Q 2194 684 2269 834 
Q 2344 984 2344 1194 
L 2388 509 
Q 2300 291 2086 117 
Q 1872 -56 1528 -56 
z
" transform="scale(0.015625)"/>
       <path id="Bahnschrift-41" d="M 125 0 
L 1800 4544 
L 2344 4544 
L 4019 0 
L 3331 0 
L 2072 3666 
L 813 0 
L 125 0 
z
M 897 997 
L 897 1603 
L 3288 1603 
L 3288 997 
L 897 997 
z
" transform="scale(0.015625)"/>
       <path id="Bahnschrift-76" d="M 1616 928 
L 2409 3244 
L 3075 3244 
L 1856 0 
L 1375 0 
L 156 3244 
L 822 3244 
L 1616 928 
z
" transform="scale(0.015625)"/>
       <path id="Bahnschrift-72" d="M 500 0 
L 500 3244 
L 1138 3244 
L 1138 0 
L 500 0 
z
M 2284 2475 
Q 2200 2578 2072 2631 
Q 1944 2684 1775 2684 
Q 1472 2684 1305 2517 
Q 1138 2350 1138 2053 
L 1072 2678 
Q 1219 2966 1458 3128 
Q 1697 3291 1984 3291 
Q 2206 3291 2386 3227 
Q 2566 3163 2700 3038 
L 2284 2475 
z
" transform="scale(0.015625)"/>
       <path id="Bahnschrift-28" d="M 1672 -978 
Q 1116 -375 839 373 
Q 563 1122 563 2025 
Q 563 2928 839 3676 
Q 1116 4425 1672 5028 
L 2109 4631 
Q 1638 4106 1403 3456 
Q 1169 2806 1169 2025 
Q 1169 1244 1403 594 
Q 1638 -56 2109 -584 
L 1672 -978 
z
" transform="scale(0.015625)"/>
       <path id="Bahnschrift-29" d="M 500 -978 
L 63 -584 
Q 534 -56 768 594 
Q 1003 1244 1003 2025 
Q 1003 2806 768 3456 
Q 534 4106 63 4631 
L 500 5028 
Q 1056 4425 1332 3676 
Q 1609 2928 1609 2025 
Q 1609 1122 1332 373 
Q 1056 -375 500 -978 
z
" transform="scale(0.015625)"/>
      </defs>
      <use xlink:href="#Bahnschrift-4d"/>
      <use xlink:href="#Bahnschrift-65" x="77.929688"/>
      <use xlink:href="#Bahnschrift-61" x="131.542969"/>
      <use xlink:href="#Bahnschrift-6e" x="184.765625"/>
      <use xlink:href="#Bahnschrift-20" x="240.625"/>
      <use xlink:href="#Bahnschrift-54" x="267.480469"/>
      <use xlink:href="#Bahnschrift-69" x="315.625"/>
      <use xlink:href="#Bahnschrift-6d" x="340.722656"/>
      <use xlink:href="#Bahnschrift-65" x="426.367188"/>
      <use xlink:href="#Bahnschrift-20" x="479.980469"/>
      <use xlink:href="#Bahnschrift-5b" x="506.835938"/>
      <use xlink:href="#Bahnschrift-52" x="536.230469"/>
      <use xlink:href="#Bahnschrift-6f" x="601.416016"/>
      <use xlink:href="#Bahnschrift-6c" x="655.908203"/>
      <use xlink:href="#Bahnschrift-6c" x="684.863281"/>
      <use xlink:href="#Bahnschrift-69" x="713.818359"/>
      <use xlink:href="#Bahnschrift-6e" x="738.916016"/>
      <use xlink:href="#Bahnschrift-67" x="794.775391"/>
      <use xlink:href="#Bahnschrift-20" x="848.681641"/>
      <use xlink:href="#Bahnschrift-41" x="875.537109"/>
      <use xlink:href="#Bahnschrift-76" x="940.283203"/>
      <use xlink:href="#Bahnschrift-65" x="990.283203"/>
      <use xlink:href="#Bahnschrift-72" x="1043.896484"/>
      <use xlink:href="#Bahnschrift-61" x="1086.572266"/>
      <use xlink:href="#Bahnschrift-67" x="1139.794922"/>
      <use xlink:href="#Bahnschrift-65" x="1193.701172"/>
      <use xlink:href="#Bahnschrift-20" x="1247.314453"/>
      <use xlink:href="#Bahnschrift-28" x="1274.169922"/>
      <use xlink:href="#Bahnschrift-32" x="1308.105469"/>
      <use xlink:href="#Bahnschrift-30" x="1359.765625"/>
      <use xlink:href="#Bahnschrift-29" x="1414.941406"/>
      <use xlink:href="#Bahnschrift-5d" x="1448.876953"/>
     </g>
    </g>
    <g id="patch_8">
     <path d="M 767 67.04 
L 799 67.04 
L 799 55.84 
L 767 55.84 
z
" style="fill: #d2dbe0; stroke: #d2dbe0; stroke-linejoin: miter"/>
    </g>
    <g id="text_14">
     <!-- 90% Percentiles -->
     <g transform="translate(811.8 67.04) scale(0.16 -0.16)">
      <defs>
       <path id="Bahnschrift-39" d="M 934 0 
L 2078 2256 
L 2075 2144 
Q 1994 1997 1834 1931 
Q 1675 1866 1466 1866 
Q 975 1866 675 2230 
Q 375 2594 375 3197 
L 375 3200 
Q 375 3863 708 4227 
Q 1041 4591 1644 4591 
Q 2247 4591 2578 4223 
Q 2909 3856 2909 3184 
L 2909 3181 
Q 2909 2903 2828 2579 
Q 2747 2256 2591 1947 
L 1622 0 
L 934 0 
z
M 1644 2447 
Q 1944 2447 2108 2650 
Q 2272 2853 2272 3222 
L 2272 3225 
Q 2272 3584 2108 3781 
Q 1944 3978 1644 3978 
Q 1341 3978 1177 3781 
Q 1013 3584 1013 3222 
L 1013 3219 
Q 1013 2850 1177 2648 
Q 1341 2447 1644 2447 
z
" transform="scale(0.015625)"/>
       <path id="Bahnschrift-25" d="M 666 0 
L 3134 4544 
L 3694 4544 
L 1225 0 
L 666 0 
z
M 3328 -47 
Q 2966 -47 2769 164 
Q 2572 375 2572 753 
L 2572 1144 
Q 2572 1522 2769 1733 
Q 2966 1944 3328 1944 
Q 3691 1944 3887 1731 
Q 4084 1519 4084 1138 
L 4084 753 
Q 4084 375 3887 164 
Q 3691 -47 3328 -47 
z
M 3328 450 
Q 3563 450 3563 722 
L 3563 1181 
Q 3563 1444 3328 1444 
Q 3094 1444 3094 1178 
L 3094 722 
Q 3094 450 3328 450 
z
M 1069 2597 
Q 706 2597 509 2808 
Q 313 3019 313 3397 
L 313 3788 
Q 313 4166 509 4377 
Q 706 4588 1069 4588 
Q 1431 4588 1628 4375 
Q 1825 4163 1825 3781 
L 1825 3397 
Q 1825 3019 1628 2808 
Q 1431 2597 1069 2597 
z
M 1069 3094 
Q 1303 3094 1303 3366 
L 1303 3825 
Q 1303 4088 1069 4088 
Q 834 4088 834 3822 
L 834 3366 
Q 834 3094 1069 3094 
z
" transform="scale(0.015625)"/>
       <path id="Bahnschrift-50" d="M 891 1763 
L 891 2369 
L 2344 2369 
Q 2656 2369 2845 2584 
Q 3034 2800 3034 3150 
L 3034 3150 
Q 3034 3506 2845 3722 
Q 2656 3938 2344 3938 
L 891 3938 
L 891 4544 
L 2322 4544 
Q 2734 4544 3040 4370 
Q 3347 4197 3517 3884 
Q 3688 3572 3688 3150 
L 3688 3150 
Q 3688 2731 3517 2418 
Q 3347 2106 3040 1934 
Q 2734 1763 2322 1763 
L 891 1763 
z
M 563 0 
L 563 4544 
L 1200 4544 
L 1200 0 
L 563 0 
z
" transform="scale(0.015625)"/>
       <path id="Bahnschrift-63" d="M 1809 -47 
Q 1141 -47 773 322 
Q 406 691 406 1363 
L 406 1897 
Q 406 2563 773 2927 
Q 1141 3291 1809 3291 
Q 2191 3291 2497 3156 
Q 2803 3022 2984 2772 
L 2984 2772 
L 2525 2359 
L 2525 2359 
Q 2391 2516 2206 2600 
Q 2022 2684 1819 2684 
Q 1450 2684 1247 2478 
Q 1044 2272 1044 1897 
L 1044 1363 
Q 1044 978 1247 768 
Q 1450 559 1819 559 
Q 2022 559 2206 650 
Q 2391 741 2525 906 
L 2525 906 
L 2984 463 
L 2984 463 
Q 2803 219 2495 86 
Q 2188 -47 1809 -47 
z
" transform="scale(0.015625)"/>
      </defs>
      <use xlink:href="#Bahnschrift-39"/>
      <use xlink:href="#Bahnschrift-30" x="51.318359"/>
      <use xlink:href="#Bahnschrift-25" x="106.494141"/>
      <use xlink:href="#Bahnschrift-20" x="175.195312"/>
      <use xlink:href="#Bahnschrift-50" x="202.050781"/>
      <use xlink:href="#Bahnschrift-65" x="264.306641"/>
      <use xlink:href="#Bahnschrift-72" x="317.919922"/>
      <use xlink:href="#Bahnschrift-63" x="360.595703"/>
      <use xlink:href="#Bahnschrift-65" x="410.400391"/>
      <use xlink:href="#Bahnschrift-6e" x="464.013672"/>
      <use xlink:href="#Bahnschrift-74" x="519.873047"/>
      <use xlink:href="#Bahnschrift-69" x="552.490234"/>
      <use xlink:href="#Bahnschrift-6c" x="577.587891"/>
      <use xlink:href="#Bahnschrift-65" x="606.542969"/>
      <use xlink:href="#Bahnschrift-73" x="660.15625"/>
     </g>
    </g>
   </g>
  </g>
 </g>
 <defs>
  <clipPath id="p0e51940155">
   <rect x="74.6975" y="17.28" width="988.0225" height="210.76"/>
  </clipPath>
 </defs>
</svg>
