<?xml version="1.0" encoding="utf-8" standalone="no"?>
<!DOCTYPE svg PUBLIC "-//W3C//DTD SVG 1.1//EN"
  "http://www.w3.org/Graphics/SVG/1.1/DTD/svg11.dtd">
<svg xmlns:xlink="http://www.w3.org/1999/xlink" width="1080pt" height="288pt" viewBox="0 0 1080 288" xmlns="http://www.w3.org/2000/svg" version="1.1">
 <metadata>
  <rdf:RDF xmlns:dc="http://purl.org/dc/elements/1.1/" xmlns:cc="http://creativecommons.org/ns#" xmlns:rdf="http://www.w3.org/1999/02/22-rdf-syntax-ns#">
   <cc:Work>
    <dc:type rdf:resource="http://purl.org/dc/dcmitype/StillImage"/>
    <dc:date>2024-05-29T19:41:00.869168</dc:date>
    <dc:format>image/svg+xml</dc:format>
    <dc:creator>
     <cc:Agent>
      <dc:title>Matplotlib v3.8.2, https://matplotlib.org/</dc:title>
     </cc:Agent>
    </dc:creator>
   </cc:Work>
  </rdf:RDF>
 </metadata>
 <defs>
  <style type="text/css">*{stroke-linejoin: round; stroke-linecap: butt}</style>
 </defs>
 <g id="figure_1">
  <g id="patch_1">
   <path d="M 0 288 
L 1080 288 
L 1080 0 
L 0 0 
z
" style="fill: #ffffff"/>
  </g>
  <g id="axes_1">
   <g id="patch_2">
    <path d="M 99.02 228.04 
L 1062.72 228.04 
L 1062.72 17.28 
L 99.02 17.28 
z
" style="fill: #ffffff"/>
   </g>
   <g id="matplotlib.axis_1">
    <g id="xtick_1">
     <g id="line2d_1">
      <defs>
       <path id="m5dcb03a06b" d="M 0 0 
L 0 3.5 
" style="stroke: #000000; stroke-width: 0.8"/>
      </defs>
      <g>
       <use xlink:href="#m5dcb03a06b" x="124.742174" y="228.04" style="stroke: #000000; stroke-width: 0.8"/>
      </g>
     </g>
     <g id="text_1">
      <!-- 0 -->
      <g transform="translate(120.328424 246.4) scale(0.16 -0.16)">
       <defs>
        <path id="Bahnschrift-30" d="M 1766 -47 
Q 1116 -47 792 301 
Q 469 650 469 1244 
L 469 3309 
Q 469 3913 797 4256 
Q 1125 4600 1766 4600 
Q 2409 4600 2736 4258 
Q 3063 3916 3063 3309 
L 3063 1244 
Q 3063 641 2736 297 
Q 2409 -47 1766 -47 
z
M 1766 559 
Q 2116 559 2270 742 
Q 2425 925 2425 1244 
L 2425 3309 
Q 2425 3631 2270 3812 
Q 2116 3994 1766 3994 
Q 1416 3994 1261 3812 
Q 1106 3631 1106 3309 
L 1106 1244 
Q 1106 925 1261 742 
Q 1416 559 1766 559 
z
" transform="scale(0.015625)"/>
       </defs>
       <use xlink:href="#Bahnschrift-30"/>
      </g>
     </g>
    </g>
    <g id="xtick_2">
     <g id="line2d_2">
      <g>
       <use xlink:href="#m5dcb03a06b" x="305.565891" y="228.04" style="stroke: #000000; stroke-width: 0.8"/>
      </g>
     </g>
     <g id="text_2">
      <!-- 200 -->
      <g transform="translate(292.605891 246.4) scale(0.16 -0.16)">
       <defs>
        <path id="Bahnschrift-32" d="M 400 0 
L 400 553 
L 1984 2666 
Q 2122 2847 2198 3040 
Q 2275 3234 2275 3406 
L 2275 3413 
Q 2275 3684 2115 3834 
Q 1956 3984 1663 3984 
Q 1388 3984 1214 3820 
Q 1041 3656 1003 3356 
L 1003 3353 
L 344 3353 
L 344 3356 
Q 428 3944 772 4267 
Q 1116 4591 1656 4591 
Q 2269 4591 2603 4281 
Q 2938 3972 2938 3406 
L 2938 3403 
Q 2938 3163 2838 2898 
Q 2738 2634 2559 2394 
L 1244 606 
L 2963 606 
L 2963 0 
L 400 0 
z
" transform="scale(0.015625)"/>
       </defs>
       <use xlink:href="#Bahnschrift-32"/>
       <use xlink:href="#Bahnschrift-30" x="51.660156"/>
       <use xlink:href="#Bahnschrift-30" x="106.835938"/>
      </g>
     </g>
    </g>
    <g id="xtick_3">
     <g id="line2d_3">
      <g>
       <use xlink:href="#m5dcb03a06b" x="486.389608" y="228.04" style="stroke: #000000; stroke-width: 0.8"/>
      </g>
     </g>
     <g id="text_3">
      <!-- 400 -->
      <g transform="translate(473.010858 246.4) scale(0.16 -0.16)">
       <defs>
        <path id="Bahnschrift-34" d="M 406 697 
L 406 1250 
L 1931 4541 
L 2588 4541 
L 1100 1288 
L 3328 1288 
L 3328 697 
L 406 697 
z
M 2366 -3 
L 2366 2672 
L 2988 2672 
L 2988 -3 
L 2366 -3 
z
" transform="scale(0.015625)"/>
       </defs>
       <use xlink:href="#Bahnschrift-34"/>
       <use xlink:href="#Bahnschrift-30" x="56.884766"/>
       <use xlink:href="#Bahnschrift-30" x="112.060547"/>
      </g>
     </g>
    </g>
    <g id="xtick_4">
     <g id="line2d_4">
      <g>
       <use xlink:href="#m5dcb03a06b" x="667.213325" y="228.04" style="stroke: #000000; stroke-width: 0.8"/>
      </g>
     </g>
     <g id="text_4">
      <!-- 600 -->
      <g transform="translate(654.280825 246.4) scale(0.16 -0.16)">
       <defs>
        <path id="Bahnschrift-36" d="M 1641 -47 
Q 1038 -47 706 312 
Q 375 672 375 1325 
L 375 1328 
Q 375 1622 456 1951 
Q 538 2281 691 2588 
L 1678 4544 
L 2366 4544 
L 1206 2278 
L 1209 2391 
Q 1372 2700 1788 2700 
Q 2322 2700 2615 2345 
Q 2909 1991 2909 1344 
L 2909 1341 
Q 2909 681 2578 317 
Q 2247 -47 1641 -47 
z
M 1641 566 
Q 1947 566 2109 753 
Q 2272 941 2272 1288 
L 2272 1291 
Q 2272 1672 2100 1880 
Q 1928 2088 1609 2088 
Q 1325 2088 1169 1878 
Q 1013 1669 1013 1288 
L 1013 1284 
Q 1013 938 1177 752 
Q 1341 566 1641 566 
z
" transform="scale(0.015625)"/>
       </defs>
       <use xlink:href="#Bahnschrift-36"/>
       <use xlink:href="#Bahnschrift-30" x="51.318359"/>
       <use xlink:href="#Bahnschrift-30" x="106.494141"/>
      </g>
     </g>
    </g>
    <g id="xtick_5">
     <g id="line2d_5">
      <g>
       <use xlink:href="#m5dcb03a06b" x="848.037042" y="228.04" style="stroke: #000000; stroke-width: 0.8"/>
      </g>
     </g>
     <g id="text_5">
      <!-- 800 -->
      <g transform="translate(834.709542 246.4) scale(0.16 -0.16)">
       <defs>
        <path id="Bahnschrift-38" d="M 1800 -47 
Q 1384 -47 1075 109 
Q 766 266 594 550 
Q 422 834 422 1216 
L 422 1291 
Q 422 1631 592 1931 
Q 763 2231 1047 2384 
Q 809 2516 662 2764 
Q 516 3013 516 3288 
L 516 3397 
Q 516 3938 867 4264 
Q 1219 4591 1800 4591 
Q 2381 4591 2732 4264 
Q 3084 3938 3084 3397 
L 3084 3288 
Q 3084 3006 2936 2759 
Q 2788 2513 2544 2384 
Q 2831 2231 3004 1931 
Q 3178 1631 3178 1291 
L 3178 1216 
Q 3178 834 3006 550 
Q 2834 266 2525 109 
Q 2216 -47 1800 -47 
z
M 1800 566 
Q 2134 566 2339 758 
Q 2544 950 2544 1263 
L 2544 1306 
Q 2544 1622 2339 1814 
Q 2134 2006 1800 2006 
Q 1466 2006 1261 1814 
Q 1056 1622 1056 1303 
L 1056 1256 
Q 1056 944 1261 755 
Q 1466 566 1800 566 
z
M 1800 2619 
Q 2091 2619 2269 2803 
Q 2447 2988 2447 3291 
L 2447 3334 
Q 2447 3625 2269 3801 
Q 2091 3978 1800 3978 
Q 1509 3978 1331 3801 
Q 1153 3625 1153 3331 
L 1153 3284 
Q 1153 2984 1331 2801 
Q 1509 2619 1800 2619 
z
" transform="scale(0.015625)"/>
       </defs>
       <use xlink:href="#Bahnschrift-38"/>
       <use xlink:href="#Bahnschrift-30" x="56.25"/>
       <use xlink:href="#Bahnschrift-30" x="111.425781"/>
      </g>
     </g>
    </g>
    <g id="xtick_6">
     <g id="line2d_6">
      <g>
       <use xlink:href="#m5dcb03a06b" x="1028.860759" y="228.04" style="stroke: #000000; stroke-width: 0.8"/>
      </g>
     </g>
     <g id="text_6">
      <!-- 1000 -->
      <g transform="translate(1012.959509 246.4) scale(0.16 -0.16)">
       <defs>
        <path id="Bahnschrift-31" d="M 1566 4544 
L 1566 0 
L 928 0 
L 928 3850 
L 281 3453 
L 281 4113 
L 928 4544 
L 1566 4544 
z
" transform="scale(0.015625)"/>
       </defs>
       <use xlink:href="#Bahnschrift-31"/>
       <use xlink:href="#Bahnschrift-30" x="33.251953"/>
       <use xlink:href="#Bahnschrift-30" x="88.427734"/>
       <use xlink:href="#Bahnschrift-30" x="143.603516"/>
      </g>
     </g>
    </g>
    <g id="text_7">
     <!-- Theta -->
     <g transform="translate(561.39375 265.0575) scale(0.16 -0.16)">
      <defs>
       <path id="Bahnschrift-54" d="M 1222 0 
L 1222 4172 
L 1859 4172 
L 1859 0 
L 1222 0 
z
M -63 3938 
L -63 4544 
L 3144 4544 
L 3144 3938 
L -63 3938 
z
" transform="scale(0.015625)"/>
       <path id="Bahnschrift-68" d="M 500 0 
L 500 4544 
L 1138 4544 
L 1138 0 
L 500 0 
z
M 2469 0 
L 2469 1966 
Q 2469 2309 2292 2496 
Q 2116 2684 1791 2684 
Q 1478 2684 1308 2521 
Q 1138 2359 1138 2063 
L 1072 2688 
Q 1222 2975 1464 3133 
Q 1706 3291 2000 3291 
Q 2528 3291 2817 2945 
Q 3106 2600 3106 1969 
L 3106 0 
L 2469 0 
z
" transform="scale(0.015625)"/>
       <path id="Bahnschrift-65" d="M 1828 -47 
Q 1150 -47 778 331 
Q 406 709 406 1406 
L 406 1772 
Q 406 2497 764 2894 
Q 1122 3291 1772 3291 
Q 2384 3291 2720 2841 
Q 3056 2391 3056 1578 
L 3056 1366 
L 869 1366 
L 869 1878 
L 2450 1878 
L 2450 1878 
Q 2422 2272 2245 2494 
Q 2069 2716 1772 2716 
Q 1413 2716 1213 2478 
Q 1013 2241 1013 1806 
L 1013 1394 
Q 1013 991 1227 775 
Q 1441 559 1828 559 
Q 2022 559 2212 637 
Q 2403 716 2553 856 
L 2553 856 
L 2972 438 
L 2972 438 
Q 2731 206 2431 79 
Q 2131 -47 1828 -47 
z
" transform="scale(0.015625)"/>
       <path id="Bahnschrift-74" d="M 1344 -16 
Q 944 -16 764 206 
Q 584 428 584 844 
L 584 4188 
L 1222 4188 
L 1222 838 
Q 1222 722 1269 656 
Q 1316 591 1406 591 
L 1713 591 
L 1713 -16 
L 1344 -16 
z
M 250 2669 
L 250 3244 
L 1713 3244 
L 1713 2669 
L 250 2669 
z
" transform="scale(0.015625)"/>
       <path id="Bahnschrift-61" d="M 2331 0 
L 2331 2056 
Q 2331 2375 2161 2551 
Q 1991 2728 1678 2728 
Q 1488 2728 1302 2670 
Q 1116 2613 969 2503 
L 503 2822 
Q 688 3044 989 3167 
Q 1291 3291 1659 3291 
Q 2269 3291 2603 2975 
Q 2938 2659 2938 2084 
L 2938 0 
L 2331 0 
z
M 1538 -47 
Q 941 -47 642 200 
Q 344 447 344 956 
Q 344 1441 617 1680 
Q 891 1919 1438 1919 
L 2359 1919 
L 2403 1406 
L 1441 1406 
Q 1194 1406 1069 1295 
Q 944 1184 944 956 
Q 944 709 1109 590 
Q 1275 472 1606 472 
Q 1969 472 2150 550 
Q 2331 628 2331 794 
L 2397 338 
Q 2313 206 2188 122 
Q 2063 38 1902 -4 
Q 1741 -47 1538 -47 
z
" transform="scale(0.015625)"/>
      </defs>
      <use xlink:href="#Bahnschrift-54"/>
      <use xlink:href="#Bahnschrift-68" x="48.144531"/>
      <use xlink:href="#Bahnschrift-65" x="104.003906"/>
      <use xlink:href="#Bahnschrift-74" x="157.617188"/>
      <use xlink:href="#Bahnschrift-61" x="190.234375"/>
     </g>
    </g>
   </g>
   <g id="matplotlib.axis_2">
    <g id="ytick_1">
     <g id="line2d_7">
      <defs>
       <path id="mf411e75d50" d="M 0 0 
L -3.5 0 
" style="stroke: #000000; stroke-width: 0.8"/>
      </defs>
      <g>
       <use xlink:href="#mf411e75d50" x="99.02" y="186.042984" style="stroke: #000000; stroke-width: 0.8"/>
      </g>
     </g>
     <g id="text_8">
      <!-- -0.0002 -->
      <g transform="translate(37.1475 191.722984) scale(0.16 -0.16)">
       <defs>
        <path id="Bahnschrift-2d" d="M 500 1931 
L 2600 1931 
L 2600 1325 
L 500 1325 
L 500 1931 
z
" transform="scale(0.015625)"/>
        <path id="Bahnschrift-2e" d="M 391 0 
L 391 669 
L 1059 669 
L 1059 0 
L 391 0 
z
" transform="scale(0.015625)"/>
       </defs>
       <use xlink:href="#Bahnschrift-2d"/>
       <use xlink:href="#Bahnschrift-30" x="47.949219"/>
       <use xlink:href="#Bahnschrift-2e" x="103.125"/>
       <use xlink:href="#Bahnschrift-30" x="125.78125"/>
       <use xlink:href="#Bahnschrift-30" x="180.957031"/>
       <use xlink:href="#Bahnschrift-30" x="236.132812"/>
       <use xlink:href="#Bahnschrift-32" x="291.308594"/>
      </g>
     </g>
    </g>
    <g id="ytick_2">
     <g id="line2d_8">
      <g>
       <use xlink:href="#mf411e75d50" x="99.02" y="123.649444" style="stroke: #000000; stroke-width: 0.8"/>
      </g>
     </g>
     <g id="text_9">
      <!-- 0.0000 -->
      <g transform="translate(44.2575 129.329444) scale(0.16 -0.16)">
       <use xlink:href="#Bahnschrift-30"/>
       <use xlink:href="#Bahnschrift-2e" x="55.175781"/>
       <use xlink:href="#Bahnschrift-30" x="77.832031"/>
       <use xlink:href="#Bahnschrift-30" x="133.007812"/>
       <use xlink:href="#Bahnschrift-30" x="188.183594"/>
       <use xlink:href="#Bahnschrift-30" x="243.359375"/>
      </g>
     </g>
    </g>
    <g id="ytick_3">
     <g id="line2d_9">
      <g>
       <use xlink:href="#mf411e75d50" x="99.02" y="61.255903" style="stroke: #000000; stroke-width: 0.8"/>
      </g>
     </g>
     <g id="text_10">
      <!-- 0.0002 -->
      <g transform="translate(44.82 66.935903) scale(0.16 -0.16)">
       <use xlink:href="#Bahnschrift-30"/>
       <use xlink:href="#Bahnschrift-2e" x="55.175781"/>
       <use xlink:href="#Bahnschrift-30" x="77.832031"/>
       <use xlink:href="#Bahnschrift-30" x="133.007812"/>
       <use xlink:href="#Bahnschrift-30" x="188.183594"/>
       <use xlink:href="#Bahnschrift-32" x="243.359375"/>
      </g>
     </g>
    </g>
    <g id="text_11">
     <!-- 2nd. Difference, mean: 0.00000 -->
     <g transform="translate(29.85 232.68) rotate(-90) scale(0.16 -0.16)">
      <defs>
       <path id="Bahnschrift-6e" d="M 500 0 
L 500 3244 
L 1138 3244 
L 1138 0 
L 500 0 
z
M 2469 0 
L 2469 1966 
Q 2469 2309 2292 2496 
Q 2116 2684 1791 2684 
Q 1478 2684 1308 2518 
Q 1138 2353 1138 2053 
L 1072 2678 
Q 1222 2972 1464 3131 
Q 1706 3291 2000 3291 
Q 2528 3291 2817 2945 
Q 3106 2600 3106 1969 
L 3106 0 
L 2469 0 
z
" transform="scale(0.015625)"/>
       <path id="Bahnschrift-64" d="M 2344 0 
L 2344 4544 
L 2981 4544 
L 2981 0 
L 2344 0 
z
M 1528 -56 
Q 991 -56 698 289 
Q 406 634 406 1263 
L 406 1978 
Q 406 2609 692 2954 
Q 978 3300 1497 3300 
Q 1784 3300 2023 3150 
Q 2263 3000 2409 2728 
L 2344 2066 
Q 2344 2272 2269 2419 
Q 2194 2566 2051 2642 
Q 1909 2719 1706 2719 
Q 1391 2719 1217 2522 
Q 1044 2325 1044 1969 
L 1044 1263 
Q 1044 909 1217 717 
Q 1391 525 1706 525 
Q 1909 525 2051 604 
Q 2194 684 2269 834 
Q 2344 984 2344 1194 
L 2388 509 
Q 2300 291 2086 117 
Q 1872 -56 1528 -56 
z
" transform="scale(0.015625)"/>
       <path id="Bahnschrift-20" transform="scale(0.015625)"/>
       <path id="Bahnschrift-44" d="M 994 0 
L 994 606 
L 2022 606 
Q 2525 606 2801 867 
Q 3078 1128 3078 1603 
L 3078 2941 
Q 3078 3416 2801 3677 
Q 2525 3938 2022 3938 
L 994 3938 
L 994 4544 
L 2003 4544 
Q 2828 4544 3279 4117 
Q 3731 3691 3731 2916 
L 3731 1628 
Q 3731 1113 3528 748 
Q 3325 384 2937 192 
Q 2550 0 2000 0 
L 994 0 
z
M 563 0 
L 563 4544 
L 1200 4544 
L 1200 0 
L 563 0 
z
" transform="scale(0.015625)"/>
       <path id="Bahnschrift-69" d="M 500 3906 
L 500 4544 
L 1138 4544 
L 1138 3906 
L 500 3906 
z
M 500 0 
L 500 3244 
L 1138 3244 
L 1138 0 
L 500 0 
z
" transform="scale(0.015625)"/>
       <path id="Bahnschrift-66" d="M 594 0 
L 594 3684 
Q 594 4113 791 4328 
Q 988 4544 1403 4544 
L 1872 4544 
L 1872 3938 
L 1416 3938 
Q 1319 3938 1275 3864 
Q 1231 3791 1231 3691 
L 1231 0 
L 594 0 
z
M 250 2700 
L 250 3244 
L 1872 3244 
L 1872 2700 
L 250 2700 
z
" transform="scale(0.015625)"/>
       <path id="Bahnschrift-72" d="M 500 0 
L 500 3244 
L 1138 3244 
L 1138 0 
L 500 0 
z
M 2284 2475 
Q 2200 2578 2072 2631 
Q 1944 2684 1775 2684 
Q 1472 2684 1305 2517 
Q 1138 2350 1138 2053 
L 1072 2678 
Q 1219 2966 1458 3128 
Q 1697 3291 1984 3291 
Q 2206 3291 2386 3227 
Q 2566 3163 2700 3038 
L 2284 2475 
z
" transform="scale(0.015625)"/>
       <path id="Bahnschrift-63" d="M 1809 -47 
Q 1141 -47 773 322 
Q 406 691 406 1363 
L 406 1897 
Q 406 2563 773 2927 
Q 1141 3291 1809 3291 
Q 2191 3291 2497 3156 
Q 2803 3022 2984 2772 
L 2984 2772 
L 2525 2359 
L 2525 2359 
Q 2391 2516 2206 2600 
Q 2022 2684 1819 2684 
Q 1450 2684 1247 2478 
Q 1044 2272 1044 1897 
L 1044 1363 
Q 1044 978 1247 768 
Q 1450 559 1819 559 
Q 2022 559 2206 650 
Q 2391 741 2525 906 
L 2525 906 
L 2984 463 
L 2984 463 
Q 2803 219 2495 86 
Q 2188 -47 1809 -47 
z
" transform="scale(0.015625)"/>
       <path id="Bahnschrift-2c" d="M 391 -1038 
L 391 669 
L 1059 669 
L 1059 -344 
L 391 -1038 
z
" transform="scale(0.015625)"/>
       <path id="Bahnschrift-6d" d="M 4375 0 
L 4375 1966 
Q 4375 2309 4198 2496 
Q 4022 2684 3697 2684 
Q 3400 2684 3237 2503 
Q 3075 2322 3075 1991 
L 2947 2616 
Q 3103 2941 3353 3116 
Q 3603 3291 3906 3291 
Q 4434 3291 4723 2945 
Q 5013 2600 5013 1969 
L 5013 0 
L 4375 0 
z
M 500 0 
L 500 3244 
L 1138 3244 
L 1138 0 
L 500 0 
z
M 2438 0 
L 2438 1966 
Q 2438 2309 2269 2496 
Q 2100 2684 1791 2684 
Q 1478 2684 1308 2518 
Q 1138 2353 1138 2053 
L 1072 2678 
Q 1222 2972 1464 3131 
Q 1706 3291 2000 3291 
Q 2513 3291 2794 2945 
Q 3075 2600 3075 1969 
L 3075 0 
L 2438 0 
z
" transform="scale(0.015625)"/>
       <path id="Bahnschrift-3a" d="M 391 0 
L 391 669 
L 1059 669 
L 1059 0 
L 391 0 
z
M 391 2606 
L 391 3275 
L 1059 3275 
L 1059 2606 
L 391 2606 
z
" transform="scale(0.015625)"/>
      </defs>
      <use xlink:href="#Bahnschrift-32"/>
      <use xlink:href="#Bahnschrift-6e" x="51.660156"/>
      <use xlink:href="#Bahnschrift-64" x="107.519531"/>
      <use xlink:href="#Bahnschrift-2e" x="161.425781"/>
      <use xlink:href="#Bahnschrift-20" x="184.082031"/>
      <use xlink:href="#Bahnschrift-44" x="210.9375"/>
      <use xlink:href="#Bahnschrift-69" x="276.5625"/>
      <use xlink:href="#Bahnschrift-66" x="301.660156"/>
      <use xlink:href="#Bahnschrift-66" x="333.349609"/>
      <use xlink:href="#Bahnschrift-65" x="365.039062"/>
      <use xlink:href="#Bahnschrift-72" x="418.652344"/>
      <use xlink:href="#Bahnschrift-65" x="461.328125"/>
      <use xlink:href="#Bahnschrift-6e" x="514.941406"/>
      <use xlink:href="#Bahnschrift-63" x="570.800781"/>
      <use xlink:href="#Bahnschrift-65" x="620.605469"/>
      <use xlink:href="#Bahnschrift-2c" x="674.21875"/>
      <use xlink:href="#Bahnschrift-20" x="696.875"/>
      <use xlink:href="#Bahnschrift-6d" x="723.730469"/>
      <use xlink:href="#Bahnschrift-65" x="809.375"/>
      <use xlink:href="#Bahnschrift-61" x="862.988281"/>
      <use xlink:href="#Bahnschrift-6e" x="916.210938"/>
      <use xlink:href="#Bahnschrift-3a" x="972.070312"/>
      <use xlink:href="#Bahnschrift-20" x="994.726562"/>
      <use xlink:href="#Bahnschrift-30" x="1021.582031"/>
      <use xlink:href="#Bahnschrift-2e" x="1076.757812"/>
      <use xlink:href="#Bahnschrift-30" x="1099.414062"/>
      <use xlink:href="#Bahnschrift-30" x="1154.589844"/>
      <use xlink:href="#Bahnschrift-30" x="1209.765625"/>
      <use xlink:href="#Bahnschrift-30" x="1264.941406"/>
      <use xlink:href="#Bahnschrift-30" x="1320.117188"/>
     </g>
    </g>
   </g>
   <g id="line2d_10">
    <path d="M 142.824545 106.092603 
L 143.728664 101.584833 
L 144.632783 129.44449 
L 145.536901 101.867249 
L 146.44102 153.650135 
L 147.345138 106.007327 
L 148.249257 139.200993 
L 149.153376 109.221314 
L 150.057494 122.721121 
L 150.961613 128.650755 
L 151.865731 131.864556 
L 152.76985 120.211614 
L 153.673968 113.680812 
L 154.578087 136.590554 
L 155.482206 126.531031 
L 156.386324 102.417318 
L 157.290443 146.988798 
L 158.194561 92.912514 
L 159.09868 151.848455 
L 160.002799 99.071458 
L 160.906917 140.564655 
L 161.811036 109.379332 
L 162.715154 143.819996 
L 163.619273 136.248039 
L 164.523392 117.007557 
L 165.42751 115.193977 
L 166.331629 134.274209 
L 167.235747 115.384572 
L 168.139866 118.16188 
L 169.043984 99.788657 
L 169.948103 149.159062 
L 170.852222 114.459597 
L 171.75634 154.870915 
L 172.660459 113.872003 
L 173.564577 116.472438 
L 174.468696 120.669639 
L 175.372815 131.396638 
L 176.276933 132.274979 
L 177.181052 101.969483 
L 178.08517 132.92691 
L 178.989289 130.486687 
L 179.893407 129.560595 
L 180.797526 107.25455 
L 181.701645 111.420884 
L 182.605763 112.314435 
L 183.509882 159.364442 
L 184.414 85.36975 
L 185.318119 163.376403 
L 186.222238 108.339738 
L 187.126356 155.775363 
L 188.030475 87.810679 
L 188.934593 134.109311 
L 189.838712 107.754227 
L 190.74283 113.520414 
L 191.646949 154.835251 
L 192.551068 113.312785 
L 193.455186 125.224938 
L 194.359305 105.067401 
L 195.263423 139.878064 
L 196.167542 118.801167 
L 197.071661 125.876088 
L 197.975779 115.189774 
L 198.879898 113.924924 
L 199.784016 134.715685 
L 200.688135 150.684239 
L 201.592253 110.495871 
L 202.496372 134.392025 
L 203.400491 93.998148 
L 204.304609 119.453544 
L 205.208728 148.451608 
L 206.112846 118.942859 
L 207.016965 138.159093 
L 207.921084 94.813824 
L 208.825202 161.532103 
L 209.729321 80.490271 
L 210.633439 142.771552 
L 211.537558 118.656798 
L 212.441677 154.516797 
L 213.345795 117.886158 
L 214.249914 95.502647 
L 215.154032 125.17462 
L 216.058151 127.798633 
L 216.962269 141.417372 
L 217.866388 126.754056 
L 218.770507 89.935498 
L 219.674625 137.458332 
L 220.578744 126.952536 
L 221.482862 144.622396 
L 222.386981 117.293358 
L 223.2911 78.048709 
L 224.195218 137.459671 
L 225.099337 132.120828 
L 226.003455 138.564941 
L 226.907574 114.71572 
L 227.811692 125.677422 
L 228.715811 106.416337 
L 229.61993 143.839186 
L 230.524048 110.119848 
L 231.428167 117.166468 
L 232.332285 155.586626 
L 233.236404 105.806914 
L 234.140523 139.867353 
L 235.044641 88.537584 
L 236.852878 149.740668 
L 237.756997 117.86072 
L 238.661115 107.815702 
L 239.565234 123.639514 
L 240.469353 147.956504 
L 241.373471 148.04892 
L 242.27759 106.606189 
L 243.181708 97.040171 
L 244.085827 141.960115 
L 244.989946 107.328222 
L 245.894064 140.205368 
L 246.798183 128.271944 
L 247.702301 100.588862 
L 248.60642 132.537201 
L 249.510539 147.474566 
L 250.414657 100.762611 
L 251.318776 130.693683 
L 252.222894 117.420546 
L 253.127013 153.092702 
L 254.031131 120.806831 
L 254.93525 118.220268 
L 255.839369 105.25134 
L 256.743487 148.570167 
L 257.647606 75.747575 
L 258.551724 137.394478 
L 259.455843 134.290498 
L 260.359962 119.270572 
L 261.26408 139.824585 
L 262.168199 114.701365 
L 263.072317 92.781718 
L 263.976436 138.316628 
L 264.880554 151.384814 
L 265.784673 124.269392 
L 266.688792 120.548067 
L 267.59291 93.764338 
L 268.497029 122.854482 
L 269.401147 128.710556 
L 270.305266 130.371139 
L 271.209385 121.960708 
L 272.113503 130.321491 
L 273.017622 120.393805 
L 273.92174 92.993401 
L 274.825859 169.536091 
L 276.634096 109.614109 
L 277.538215 117.321845 
L 278.442333 131.302772 
L 279.346452 102.924248 
L 280.25057 99.170196 
L 281.154689 203.834692 
L 282.058808 94.995978 
L 282.962926 105.100649 
L 284.771163 141.699268 
L 285.675282 113.686539 
L 286.579401 135.109558 
L 287.483519 119.356666 
L 288.387638 123.349957 
L 289.291756 114.233782 
L 290.195875 121.895589 
L 291.099993 106.967038 
L 292.004112 175.630846 
L 292.908231 84.165295 
L 293.812349 123.176468 
L 294.716468 130.400519 
L 295.620586 126.707532 
L 296.524705 96.544286 
L 297.428824 147.964612 
L 298.332942 154.386002 
L 299.237061 81.704469 
L 300.141179 131.17603 
L 301.045298 124.689075 
L 301.949416 132.211831 
L 302.853535 75.274116 
L 303.757654 165.910566 
L 305.565891 109.267615 
L 306.470009 116.5264 
L 307.374128 139.954265 
L 308.278247 72.609418 
L 309.182365 164.882687 
L 310.086484 126.499048 
L 310.990602 106.565318 
L 311.894721 134.912975 
L 312.798839 83.135519 
L 313.702958 155.992103 
L 314.607077 138.712435 
L 316.415314 121.946688 
L 317.319432 120.296592 
L 318.223551 120.571831 
L 319.12767 121.13685 
L 320.031788 86.543151 
L 320.935907 187.425517 
L 321.840025 102.760614 
L 322.744144 90.834553 
L 323.648263 136.50115 
L 324.552381 102.7923 
L 325.4565 135.274605 
L 326.360618 174.775563 
L 327.264737 113.706696 
L 328.168855 100.396555 
L 329.072974 131.944476 
L 329.977093 107.719864 
L 330.881211 165.701152 
L 331.78533 90.502637 
L 332.689448 134.564026 
L 333.593567 108.989661 
L 334.497686 101.406361 
L 335.401804 158.887896 
L 336.305923 131.638927 
L 337.210041 114.357772 
L 338.11416 146.575772 
L 339.018278 59.895201 
L 339.922397 146.638696 
L 340.826516 160.205481 
L 341.730634 98.676878 
L 342.634753 163.999214 
L 343.538871 78.35463 
L 344.44299 136.869103 
L 345.347109 104.621909 
L 346.251227 145.399395 
L 347.155346 115.866511 
L 348.059464 114.301839 
L 348.963583 137.172569 
L 349.867701 121.602797 
L 350.77182 127.908863 
L 351.675939 119.984126 
L 352.580057 122.401812 
L 353.484176 108.676823 
L 354.388294 109.958892 
L 355.292413 146.036599 
L 356.196532 120.697569 
L 357.10065 124.980343 
L 358.004769 101.194418 
L 358.908887 137.083351 
L 359.813006 134.142893 
L 360.717124 134.670462 
L 361.621243 107.093111 
L 362.525362 140.002723 
L 363.42948 126.595443 
L 364.333599 123.765066 
L 365.237717 113.254584 
L 366.141836 108.623456 
L 367.045955 131.84942 
L 367.950073 130.891419 
L 368.854192 101.783573 
L 369.75831 146.123065 
L 370.662429 95.622248 
L 371.566548 127.738275 
L 372.470666 140.811668 
L 373.374785 120.971134 
L 374.278903 135.335298 
L 375.183022 72.333621 
L 376.08714 176.597103 
L 376.991259 105.048732 
L 377.895378 143.760865 
L 378.799496 99.305231 
L 379.703615 136.854785 
L 380.607733 131.567449 
L 381.511852 118.160988 
L 382.415971 106.471898 
L 383.320089 118.120935 
L 384.224208 176.974538 
L 385.128326 104.309518 
L 386.032445 106.798831 
L 386.936563 113.359979 
L 387.840682 144.71351 
L 388.744801 166.612628 
L 389.648919 88.89702 
L 390.553038 96.137657 
L 391.457156 136.072133 
L 392.361275 116.47307 
L 393.265394 218.46 
L 394.169512 27.145355 
L 395.073631 155.713777 
L 396.881868 96.679396 
L 397.785986 122.782186 
L 398.690105 109.699459 
L 400.498342 140.724867 
L 401.402461 139.71681 
L 402.306579 127.543105 
L 403.210698 96.217875 
L 404.114817 133.795915 
L 405.018935 126.175723 
L 405.923054 98.963609 
L 406.827172 134.928892 
L 407.731291 140.384472 
L 408.63541 149.747102 
L 409.539528 65.095625 
L 410.443647 151.323451 
L 411.347765 128.103141 
L 412.251884 150.586951 
L 413.156002 55.7758 
L 414.060121 129.779901 
L 414.96424 152.031947 
L 415.868358 140.359816 
L 416.772477 87.579919 
L 417.676595 157.198938 
L 418.580714 113.858132 
L 419.484833 128.568418 
L 420.388951 92.137151 
L 421.29307 153.880114 
L 422.197188 128.346434 
L 423.101307 135.948701 
L 424.005425 113.303005 
L 424.909544 101.658431 
L 425.813663 129.379371 
L 426.717781 117.773399 
L 427.6219 142.427103 
L 428.526018 112.146041 
L 429.430137 118.049234 
L 430.334256 149.282308 
L 431.238374 116.782784 
L 432.142493 128.609177 
L 433.046611 98.254778 
L 433.95073 141.638092 
L 434.854848 106.40994 
L 435.758967 127.480403 
L 436.663086 128.732014 
L 437.567204 113.560839 
L 438.471323 122.462952 
L 439.375441 132.476657 
L 440.27956 110.796213 
L 441.183679 133.209921 
L 442.087797 132.335002 
L 442.991916 116.911162 
L 443.896034 125.979958 
L 444.800153 89.984774 
L 445.704272 133.697252 
L 446.60839 156.53756 
L 447.512509 87.307394 
L 448.416627 137.589983 
L 449.320746 137.481576 
L 450.224864 108.986649 
L 451.128983 143.88545 
L 452.033102 104.913288 
L 452.93722 119.552357 
L 453.841339 141.858513 
L 454.745457 116.986843 
L 455.649576 139.285301 
L 456.553695 108.618956 
L 457.457813 113.261092 
L 458.361932 156.721685 
L 459.26605 112.030345 
L 460.170169 77.783809 
L 461.074287 167.614177 
L 461.978406 131.068664 
L 462.882525 144.243956 
L 464.690762 83.751525 
L 465.59488 153.698741 
L 466.498999 102.428029 
L 467.403118 164.770895 
L 468.307236 61.725963 
L 469.211355 151.187077 
L 470.115473 145.763926 
L 471.019592 163.78954 
L 471.92371 29.050384 
L 472.827829 156.715921 
L 473.731948 107.533396 
L 474.636066 178.63263 
L 475.540185 88.406677 
L 476.444303 123.801474 
L 477.348422 113.491183 
L 478.252541 144.451548 
L 479.156659 113.636557 
L 480.060778 116.330895 
L 480.964896 139.393448 
L 481.869015 131.166584 
L 482.773134 115.927129 
L 483.677252 118.041126 
L 484.581371 130.333317 
L 485.485489 112.392458 
L 486.389608 142.712123 
L 487.293726 129.973361 
L 488.197845 100.632969 
L 489.101964 108.341932 
L 490.006082 177.814016 
L 490.910201 93.560279 
L 491.814319 120.509948 
L 492.718438 118.953569 
L 493.622557 150.720722 
L 494.526675 74.552009 
L 495.430794 122.675675 
L 496.334912 161.575541 
L 497.239031 123.618763 
L 498.143149 100.795375 
L 499.047268 127.190177 
L 499.951387 97.50396 
L 500.855505 148.027202 
L 501.759624 118.191 
L 502.663742 136.341979 
L 503.567861 85.822866 
L 504.47198 150.168905 
L 505.376098 122.525095 
L 506.280217 98.627491 
L 507.184335 170.838317 
L 508.088454 110.557047 
L 508.992572 76.032781 
L 509.896691 178.428534 
L 510.80081 115.927464 
L 511.704928 99.357148 
L 512.609047 158.546534 
L 513.513165 137.01827 
L 514.417284 101.313424 
L 515.321403 92.49945 
L 516.225521 150.609748 
L 517.12964 120.835727 
L 518.033758 162.942179 
L 518.937877 99.224418 
L 519.841995 82.08912 
L 520.746114 147.705327 
L 521.650233 158.47461 
L 522.554351 125.16536 
L 523.45847 98.284195 
L 524.362588 110.139968 
L 525.266707 96.424313 
L 526.170826 136.81819 
L 527.074944 182.931098 
L 527.979063 62.371795 
L 528.883181 148.528478 
L 529.7873 121.660924 
L 530.691419 100.495479 
L 531.595537 156.201442 
L 532.499656 113.612867 
L 533.403774 100.803296 
L 534.307893 154.894233 
L 535.212011 123.631295 
L 536.11613 96.428478 
L 537.020249 155.272785 
L 537.924367 167.563674 
L 538.828486 26.86 
L 539.732604 161.151878 
L 540.636723 138.588259 
L 541.540842 110.311523 
L 543.349079 155.389783 
L 544.253197 89.95268 
L 545.157316 110.856608 
L 546.061434 104.836046 
L 546.965553 144.311976 
L 547.869672 146.038161 
L 548.77379 111.011316 
L 549.677909 88.522894 
L 550.582027 165.646818 
L 551.486146 170.121676 
L 552.390265 71.934578 
L 553.294383 98.496547 
L 554.198502 169.01622 
L 555.10262 99.354991 
L 556.006739 121.014014 
L 556.910857 172.548362 
L 557.814976 64.541725 
L 558.719095 93.935298 
L 559.623213 174.491473 
L 560.527332 167.256898 
L 561.43145 63.537796 
L 562.335569 121.595694 
L 563.239688 143.908433 
L 564.143806 179.672335 
L 565.047925 43.699642 
L 565.952043 138.337788 
L 566.856162 147.490521 
L 567.760281 93.559982 
L 569.568518 132.026962 
L 570.472636 131.695046 
L 571.376755 122.743397 
L 572.280873 117.407976 
L 573.184992 141.938991 
L 574.089111 109.905897 
L 574.993229 123.069251 
L 575.897348 104.844748 
L 576.801466 178.949335 
L 577.705585 88.58329 
L 578.609704 88.366699 
L 579.513822 179.255404 
L 580.417941 120.975002 
L 581.322059 94.436649 
L 582.226178 129.625751 
L 583.130296 144.051203 
L 584.034415 81.951296 
L 584.938534 128.745923 
L 585.842652 186.090676 
L 586.746771 104.504539 
L 587.650889 88.266882 
L 588.555008 152.71151 
L 589.459127 136.623689 
L 590.363245 102.894087 
L 591.267364 62.725839 
L 592.171482 183.930118 
L 593.075601 104.187425 
L 593.979719 187.775581 
L 594.883838 80.395587 
L 595.787957 106.82464 
L 596.692075 122.840499 
L 597.596194 75.925713 
L 598.500312 193.210968 
L 599.404431 113.216019 
L 600.30855 129.079587 
L 601.212668 124.054474 
L 602.116787 115.353966 
L 603.020905 152.643267 
L 603.925024 98.939845 
L 604.829143 107.572706 
L 605.733261 152.992402 
L 606.63738 106.20789 
L 607.541498 92.967219 
L 608.445617 136.399511 
L 609.349735 154.335499 
L 610.253854 120.86414 
L 611.157973 129.008964 
L 612.062091 79.281354 
L 612.96621 164.246264 
L 613.870328 135.483201 
L 614.774447 142.662586 
L 616.582684 91.938001 
L 617.486803 151.008903 
L 618.390921 66.383198 
L 619.29504 143.454127 
L 620.199158 168.852809 
L 621.103277 58.575347 
L 622.007396 152.16516 
L 622.911514 142.716362 
L 624.719751 81.833256 
L 625.62387 188.591927 
L 626.527989 111.741717 
L 627.432107 111.439627 
L 628.336226 109.101192 
L 629.240344 145.915845 
L 630.144463 113.847012 
L 631.048581 92.917757 
L 631.9527 144.554153 
L 632.856819 132.216889 
L 633.760937 144.963684 
L 634.665056 58.497435 
L 635.569174 131.830974 
L 636.473293 195.841601 
L 637.377412 74.316265 
L 638.28153 135.658735 
L 639.185649 144.460771 
L 640.089767 79.183843 
L 640.993886 131.593742 
L 641.898005 130.382742 
L 642.802123 120.884483 
L 643.706242 138.784062 
L 644.61036 119.591926 
L 645.514479 158.371707 
L 646.418597 90.160346 
L 647.322716 77.370523 
L 648.226835 180.495486 
L 649.130953 121.762228 
L 650.035072 76.26105 
L 650.93919 154.783557 
L 651.843309 126.182529 
L 652.747428 175.031018 
L 653.651546 97.975969 
L 654.555665 58.795286 
L 655.459783 204.310382 
L 656.363902 100.604147 
L 657.26802 87.817559 
L 658.172139 180.357291 
L 659.076258 108.108048 
L 659.980376 111.668752 
L 660.884495 113.619041 
L 661.788613 133.340233 
L 662.692732 114.356433 
L 663.596851 72.938693 
L 664.500969 169.571979 
L 665.405088 160.550488 
L 666.309206 70.450422 
L 667.213325 93.389468 
L 668.117443 205.402933 
L 669.021562 89.624669 
L 669.925681 92.5025 
L 670.829799 157.606683 
L 671.733918 100.769305 
L 672.638036 152.533484 
L 673.542155 99.230889 
L 674.446274 133.383708 
L 675.350392 154.068665 
L 676.254511 96.066476 
L 677.158629 98.98979 
L 678.062748 137.258736 
L 678.966866 186.344122 
L 679.870985 70.535028 
L 680.775104 109.504884 
L 681.679222 172.362191 
L 682.583341 93.876241 
L 683.487459 104.030299 
L 684.391578 174.989775 
L 685.295697 145.898292 
L 686.199815 43.466688 
L 687.103934 162.082656 
L 688.008052 129.498377 
L 688.912171 75.812768 
L 689.81629 153.001885 
L 690.720408 154.130176 
L 691.624527 81.472816 
L 692.528645 130.286384 
L 693.432764 127.599819 
L 694.336882 92.56271 
L 695.241001 174.143863 
L 696.14512 120.407714 
L 697.049238 102.451086 
L 697.953357 89.337306 
L 698.857475 201.184572 
L 699.761594 81.944862 
L 700.665713 141.67119 
L 701.569831 95.704326 
L 702.47395 140.895455 
L 703.378068 115.000926 
L 704.282187 129.133549 
L 705.186305 116.904691 
L 706.090424 138.010038 
L 706.994543 150.583195 
L 707.898661 88.43364 
L 708.80278 124.155555 
L 709.706898 148.27942 
L 710.611017 52.657465 
L 711.515136 183.317124 
L 713.323373 72.935272 
L 714.227491 153.86535 
L 715.13161 120.935879 
L 716.035728 162.588916 
L 716.939847 59.28574 
L 717.843966 165.429297 
L 718.748084 104.060832 
L 719.652203 140.320953 
L 720.556321 92.632403 
L 721.46044 163.947856 
L 722.364559 103.678636 
L 723.268677 134.424677 
L 724.172796 114.149251 
L 725.076914 86.192046 
L 725.981033 198.607194 
L 726.885152 69.3199 
L 727.78927 117.202058 
L 728.693389 179.949136 
L 729.597507 81.306542 
L 730.501626 98.658804 
L 731.405744 195.402356 
L 732.309863 86.649253 
L 733.213982 113.535811 
L 734.1181 101.928203 
L 735.022219 170.612167 
L 735.926337 119.606244 
L 736.830456 111.310654 
L 737.734575 145.360569 
L 738.638693 110.545072 
L 739.542812 104.831323 
L 740.44693 144.154478 
L 741.351049 101.847427 
L 742.255167 155.520987 
L 743.159286 103.66231 
L 744.063405 112.808683 
L 744.967523 156.924963 
L 745.871642 116.39553 
L 746.77576 119.41431 
L 747.679879 78.892538 
L 748.583998 195.510689 
L 749.488116 79.553989 
L 750.392235 131.570164 
L 751.296353 99.145949 
L 752.200472 176.890118 
L 753.10459 97.570009 
L 754.008709 97.967378 
L 754.912828 150.503387 
L 755.816946 98.437527 
L 756.721065 160.196072 
L 757.625183 91.156354 
L 758.529302 127.160128 
L 759.433421 140.364911 
L 760.337539 118.505325 
L 761.241658 127.923776 
L 762.145776 131.126234 
L 763.049895 112.040497 
L 763.954014 131.603783 
L 764.858132 98.80481 
L 765.762251 194.245616 
L 766.666369 76.362763 
L 767.570488 120.977531 
L 768.474606 110.304457 
L 769.378725 179.997483 
L 770.282844 86.453078 
L 771.186962 110.820349 
L 772.091081 124.108957 
L 772.995199 122.835144 
L 773.899318 159.672928 
L 774.803437 62.586155 
L 775.707555 178.219232 
L 776.611674 95.694545 
L 777.515792 129.787414 
L 778.419911 113.410147 
L 779.324029 160.396747 
L 780.228148 89.697449 
L 781.132267 128.410735 
L 782.036385 91.353644 
L 782.940504 179.301036 
L 783.844622 97.717465 
L 784.748741 107.440088 
L 785.65286 151.126421 
L 786.556978 107.776727 
L 787.461097 91.214704 
L 788.365215 173.456826 
L 789.269334 128.341971 
L 790.173452 105.484295 
L 791.077571 139.620006 
L 791.98169 117.32337 
L 792.885808 132.221463 
L 793.789927 109.659257 
L 794.694045 163.482727 
L 795.598164 54.708203 
L 796.502283 170.028442 
L 797.406401 124.955574 
L 798.31052 120.01477 
L 799.214638 101.068383 
L 800.118757 148.04773 
L 801.022876 130.649465 
L 801.926994 81.183631 
L 802.831113 178.314251 
L 803.735231 100.276359 
L 804.63935 104.377388 
L 805.543468 147.696067 
L 806.447587 107.501823 
L 807.351706 130.761256 
L 808.255824 136.021109 
L 809.159943 75.046926 
L 810.064061 165.464925 
L 810.96818 100.315371 
L 811.872299 133.107167 
L 812.776417 135.946395 
L 813.680536 110.32956 
L 814.584654 121.210262 
L 815.488773 119.090947 
L 816.392891 114.469972 
L 817.29701 152.567327 
L 818.201129 98.888635 
L 819.105247 116.038363 
L 820.009366 173.599224 
L 820.913484 52.956171 
L 821.817603 143.863731 
L 822.721722 176.839875 
L 823.62584 70.25778 
L 824.529959 130.750918 
L 825.434077 124.432096 
L 826.338196 145.59702 
L 827.242314 114.18499 
L 828.146433 107.26593 
L 829.050552 178.515781 
L 829.95467 70.388501 
L 830.858789 116.441497 
L 831.762907 190.932036 
L 832.667026 31.666922 
L 833.571145 171.923839 
L 834.475263 138.004608 
L 835.379382 74.128198 
L 836.2835 178.051954 
L 837.187619 118.865877 
L 838.091737 75.236852 
L 838.995856 202.549945 
L 839.899975 86.428347 
L 840.804093 94.725946 
L 841.708212 167.898305 
L 842.61233 113.214159 
L 843.516449 102.90636 
L 844.420568 129.400569 
L 845.324686 142.474296 
L 846.228805 104.023308 
L 847.132923 105.260861 
L 848.037042 154.091685 
L 848.941161 145.91194 
L 849.845279 79.52394 
L 850.749398 159.734737 
L 851.653516 101.860444 
L 852.557635 90.537781 
L 853.461753 210.219562 
L 854.365872 68.610027 
L 855.269991 115.260992 
L 856.174109 127.141496 
L 857.078228 96.686759 
L 857.982346 127.159421 
L 858.886465 165.709148 
L 859.790584 81.634962 
L 860.694702 129.411651 
L 861.598821 159.511675 
L 862.502939 90.628635 
L 863.407058 149.505519 
L 864.311176 127.987444 
L 865.215295 97.794149 
L 866.119414 147.855498 
L 867.023532 65.514229 
L 867.927651 142.534357 
L 868.831769 125.032482 
L 869.735888 162.065437 
L 870.640007 144.752076 
L 871.544125 51.580087 
L 872.448244 181.163409 
L 873.352362 117.088035 
L 874.256481 98.337301 
L 875.160599 164.816936 
L 876.064718 114.63911 
L 876.968837 130.475344 
L 877.872955 118.245705 
L 878.777074 128.676453 
L 879.681192 113.220258 
L 880.585311 110.486127 
L 881.48943 140.943616 
L 882.393548 105.539819 
L 883.297667 116.197943 
L 884.201785 132.853907 
L 885.105904 181.220383 
L 886.010023 77.848184 
L 886.914141 163.505041 
L 887.81826 72.633145 
L 889.626497 146.963435 
L 890.530615 127.114087 
L 891.434734 82.156953 
L 892.338853 201.210976 
L 893.242971 55.212417 
L 894.14709 169.521364 
L 895.051208 72.509415 
L 895.955327 206.820632 
L 896.859446 30.432716 
L 897.763564 156.463665 
L 898.667683 129.51065 
L 899.571801 99.120771 
L 900.47592 158.751857 
L 901.380038 122.622532 
L 902.284157 111.385145 
L 903.188276 113.305124 
L 904.092394 144.841739 
L 904.996513 97.898801 
L 905.900631 132.865324 
L 906.80475 140.477186 
L 907.708869 113.345103 
L 908.612987 114.973666 
L 909.517106 120.270931 
L 910.421224 127.01018 
L 911.325343 114.208568 
L 912.229461 130.147965 
L 913.13358 124.63991 
L 914.037699 101.744413 
L 914.941817 160.563579 
L 915.845936 107.366825 
L 916.750054 162.929646 
L 917.654173 86.543746 
L 918.558292 123.326714 
L 919.46241 171.375221 
L 920.366529 69.379775 
L 921.270647 139.136655 
L 922.174766 147.655047 
L 923.078885 105.037204 
L 923.983003 81.654226 
L 924.887122 162.412043 
L 925.79124 136.704056 
L 926.695359 95.942636 
L 927.599477 160.038835 
L 928.503596 100.569672 
L 929.407715 140.959644 
L 930.311833 104.434028 
L 931.215952 148.20043 
L 932.12007 115.385316 
L 933.024189 102.936 
L 933.928308 134.010424 
L 934.832426 102.928785 
L 935.736545 158.20878 
L 936.640663 91.854771 
L 937.544782 117.565213 
L 938.4489 150.761035 
L 939.353019 111.044266 
L 940.257138 89.234217 
L 941.161256 170.467984 
L 942.065375 149.455574 
L 942.969493 67.767463 
L 943.873612 94.690839 
L 944.777731 178.008888 
L 945.681849 103.734941 
L 946.585968 151.384962 
L 947.490086 101.987632 
L 948.394205 146.266727 
L 949.298323 107.165853 
L 950.202442 87.12565 
L 951.106561 185.466303 
L 952.010679 102.002991 
L 952.914798 111.615794 
L 953.818916 155.997904 
L 954.723035 114.326644 
L 955.627154 82.184102 
L 956.531272 183.544463 
L 957.435391 93.384745 
L 958.339509 142.606951 
L 959.243628 89.173598 
L 960.147747 133.76754 
L 961.051865 142.090129 
L 961.955984 160.94544 
L 962.860102 84.097276 
L 963.764221 123.27595 
L 964.668339 109.266611 
L 965.572458 136.91399 
L 966.476577 79.55637 
L 967.380695 169.62423 
L 968.284814 148.014892 
L 969.188932 94.099638 
L 970.093051 92.344445 
L 970.99717 122.125048 
L 971.901288 129.908168 
L 972.805407 146.005211 
L 973.709525 146.652903 
L 974.613644 90.138701 
L 975.517762 108.846407 
L 976.421881 162.983013 
L 977.326 94.27904 
L 978.230118 156.945045 
L 979.134237 97.731931 
L 980.038355 136.180912 
L 980.942474 105.130252 
L 981.846593 142.848236 
L 982.750711 92.672195 
L 983.65483 141.873166 
L 984.558948 146.577111 
L 985.463067 82.876495 
L 986.367185 161.425109 
L 987.271304 73.859281 
L 988.175423 189.532931 
L 989.98366 88.105777 
L 990.887778 94.376328 
L 991.791897 153.086938 
L 992.696016 115.304913 
L 993.600134 159.967357 
L 994.504253 41.649611 
L 995.408371 196.185343 
L 996.31249 62.668641 
L 997.216608 180.772585 
L 998.120727 114.668676 
L 999.024846 78.422091 
L 999.928964 164.471074 
L 1000.833083 94.769011 
L 1001.737201 158.557691 
L 1002.64132 79.567601 
L 1003.545439 163.677897 
L 1004.449557 100.202241 
L 1005.353676 136.611789 
L 1006.257794 113.991679 
L 1007.161913 103.370521 
L 1008.066032 153.335735 
L 1009.874269 108.274471 
L 1010.778387 112.572901 
L 1011.682506 115.171105 
L 1012.586624 169.997537 
L 1013.490743 119.069526 
L 1014.394862 128.022402 
L 1015.29898 71.138724 
L 1016.203099 158.475317 
L 1017.107217 170.036475 
L 1018.011336 65.405933 
L 1018.915455 153.746121 
L 1018.915455 153.746121 
" clip-path="url(#p11f78d144b)" style="fill: none; stroke: #d2dbe0; stroke-width: 1.5; stroke-linecap: square"/>
   </g>
   <g id="line2d_11">
    <path d="M 142.824545 123.341132 
L 143.728664 124.564804 
L 144.632783 123.420041 
L 145.536901 124.345277 
L 146.44102 124.387666 
L 147.345138 121.761257 
L 148.249257 124.872936 
L 149.153376 122.049915 
L 150.057494 122.664571 
L 150.961613 121.027896 
L 151.865731 122.751499 
L 152.76985 123.141224 
L 153.673968 123.859999 
L 154.578087 125.579039 
L 155.482206 123.74691 
L 156.386324 124.206242 
L 157.290443 123.959903 
L 158.194561 124.268066 
L 159.09868 124.040104 
L 160.002799 122.596999 
L 160.906917 123.461725 
L 161.811036 123.174124 
L 162.715154 125.233629 
L 163.619273 124.097701 
L 164.523392 123.594772 
L 165.42751 124.507388 
L 166.331629 123.72778 
L 167.235747 125.695903 
L 168.139866 123.201954 
L 169.043984 124.894727 
L 169.948103 124.390829 
L 170.852222 125.399892 
L 171.75634 123.571619 
L 172.660459 122.330262 
L 173.564577 122.095605 
L 174.468696 124.304129 
L 175.372815 121.858906 
L 176.276933 124.258497 
L 177.181052 123.76739 
L 178.08517 126.566726 
L 178.989289 123.499306 
L 179.893407 124.481792 
L 180.797526 122.125958 
L 181.701645 122.108378 
L 182.605763 124.026519 
L 184.414 123.350091 
L 185.318119 121.989712 
L 186.222238 123.885141 
L 187.126356 123.178854 
L 188.030475 122.948324 
L 188.934593 122.229783 
L 189.838712 122.563302 
L 190.74283 123.728042 
L 191.646949 125.646532 
L 192.551068 123.203104 
L 193.455186 125.654217 
L 194.359305 122.185305 
L 195.263423 122.740995 
L 196.167542 122.374807 
L 197.071661 123.931416 
L 197.975779 124.133905 
L 198.879898 123.486885 
L 199.784016 125.88747 
L 200.688135 122.170221 
L 201.592253 123.643159 
L 202.496372 123.314752 
L 203.400491 125.787222 
L 205.208728 123.5227 
L 206.112846 123.487627 
L 207.016965 124.11807 
L 207.921084 125.492692 
L 208.825202 125.094611 
L 209.729321 122.057174 
L 210.633439 123.405297 
L 211.537558 123.033323 
L 212.441677 125.564535 
L 213.345795 125.456526 
L 214.249914 121.936381 
L 215.154032 122.862221 
L 216.058151 122.560308 
L 216.962269 124.747864 
L 217.866388 122.407045 
L 218.770507 124.666402 
L 219.674625 122.848642 
L 220.578744 124.107761 
L 221.482862 121.887914 
L 222.386981 121.851929 
L 223.2911 124.856128 
L 224.195218 123.887743 
L 225.099337 124.491179 
L 226.003455 121.847189 
L 226.907574 121.385404 
L 227.811692 124.375663 
L 230.524048 121.389796 
L 231.428167 122.922954 
L 232.332285 126.422964 
L 234.140523 123.126257 
L 235.044641 123.296016 
L 235.94876 122.926641 
L 236.852878 123.653038 
L 237.756997 124.745819 
L 238.661115 122.583302 
L 239.565234 123.70417 
L 240.469353 125.219575 
L 241.373471 122.478374 
L 242.27759 123.722713 
L 243.181708 122.600372 
L 244.085827 125.828128 
L 244.989946 125.992552 
L 245.894064 124.416532 
L 246.798183 123.786063 
L 247.702301 125.823786 
L 248.60642 123.429189 
L 249.510539 122.901088 
L 250.414657 122.213167 
L 251.318776 122.846386 
L 252.222894 124.985607 
L 253.127013 123.622669 
L 254.031131 122.895344 
L 254.93525 122.800907 
L 256.743487 125.140577 
L 257.647606 124.54112 
L 258.551724 121.855609 
L 259.455843 122.960203 
L 260.359962 122.861046 
L 261.26408 123.508576 
L 262.168199 121.951976 
L 263.072317 122.427709 
L 263.976436 122.536386 
L 264.880554 121.923489 
L 265.784673 122.971785 
L 266.688792 126.121784 
L 267.59291 124.732765 
L 268.497029 123.884332 
L 269.401147 124.485942 
L 270.305266 122.640926 
L 271.209385 121.864367 
L 272.113503 127.417016 
L 273.92174 122.936775 
L 274.825859 122.864683 
L 276.634096 124.918353 
L 277.538215 125.531107 
L 279.346452 124.712354 
L 281.154689 123.904712 
L 282.058808 123.233374 
L 282.962926 127.365246 
L 283.867045 123.096706 
L 284.771163 122.318153 
L 285.675282 123.357473 
L 286.579401 123.826758 
L 287.483519 122.088833 
L 288.387638 124.340851 
L 289.291756 127.101642 
L 290.195875 120.995131 
L 291.099993 122.804133 
L 292.004112 123.783555 
L 292.908231 124.252768 
L 293.812349 120.931511 
L 294.716468 123.542712 
L 295.620586 123.581569 
L 296.524705 123.077117 
L 297.428824 122.735939 
L 298.332942 124.021963 
L 299.237061 121.557655 
L 300.141179 124.453437 
L 301.045298 121.996847 
L 301.949416 123.116848 
L 302.853535 123.703674 
L 303.757654 121.340424 
L 304.661772 122.804652 
L 305.565891 124.913059 
L 306.470009 124.043609 
L 307.374128 122.421644 
L 308.278247 124.35125 
L 309.182365 123.82104 
L 310.086484 123.643428 
L 310.990602 121.359994 
L 311.894721 126.967565 
L 312.798839 123.810067 
L 313.702958 121.557459 
L 314.607077 122.919136 
L 315.511195 122.232431 
L 316.415314 121.998448 
L 317.319432 127.106755 
L 318.223551 124.547956 
L 319.12767 123.242831 
L 320.031788 124.511789 
L 320.935907 123.152134 
L 321.840025 127.280415 
L 322.744144 124.005942 
L 323.648263 123.798521 
L 325.4565 121.692208 
L 326.360618 123.621773 
L 327.264737 124.175128 
L 328.168855 123.836174 
L 329.072974 126.837805 
L 329.977093 120.461289 
L 330.881211 122.655193 
L 331.78533 126.12374 
L 332.689448 124.232526 
L 333.593567 127.292872 
L 334.497686 124.446873 
L 335.401804 122.55155 
L 336.305923 122.097311 
L 337.210041 124.347453 
L 338.11416 123.543554 
L 339.018278 123.872653 
L 339.922397 122.446224 
L 340.826516 124.001232 
L 341.730634 123.668474 
L 342.634753 124.218197 
L 343.538871 125.26797 
L 344.44299 122.757416 
L 345.347109 121.673414 
L 346.251227 123.257356 
L 347.155346 121.963445 
L 348.059464 125.217702 
L 348.963583 122.945489 
L 349.867701 121.789382 
L 350.77182 123.562683 
L 351.675939 122.096245 
L 352.580057 123.533169 
L 353.484176 123.68985 
L 354.388294 124.788527 
L 355.292413 123.70681 
L 356.196532 123.576214 
L 358.004769 123.026138 
L 358.908887 123.490569 
L 359.813006 122.184304 
L 360.717124 123.491251 
L 361.621243 122.152273 
L 362.525362 123.105346 
L 363.42948 124.647984 
L 364.333599 123.394711 
L 365.237717 124.126598 
L 366.141836 121.494261 
L 367.045955 125.264396 
L 367.950073 123.662665 
L 368.854192 124.143563 
L 369.75831 122.375302 
L 370.662429 123.863385 
L 372.470666 123.019899 
L 373.374785 122.155241 
L 374.278903 122.398558 
L 375.183022 125.816112 
L 376.991259 123.234488 
L 377.895378 123.813308 
L 378.799496 123.74283 
L 379.703615 127.292349 
L 380.607733 125.350287 
L 381.511852 123.116586 
L 382.415971 123.871636 
L 383.320089 122.928525 
L 384.224208 130.234844 
L 385.128326 122.762256 
L 386.032445 125.295508 
L 386.936563 124.32865 
L 387.840682 124.197358 
L 388.744801 123.493728 
L 389.648919 122.400328 
L 390.553038 122.757764 
L 391.457156 124.470412 
L 392.361275 125.550206 
L 393.265394 123.078634 
L 394.169512 122.674052 
L 395.073631 124.023906 
L 395.977749 124.664693 
L 396.881868 122.377198 
L 397.785986 120.793012 
L 399.594224 126.047856 
L 400.498342 122.499031 
L 401.402461 124.24155 
L 402.306579 119.723707 
L 403.210698 125.895787 
L 404.114817 120.898888 
L 405.018935 121.166699 
L 405.923054 123.934326 
L 406.827172 124.813208 
L 407.731291 123.707231 
L 408.63541 125.301693 
L 409.539528 123.958356 
L 410.443647 123.400937 
L 411.347765 121.630639 
L 412.251884 124.513751 
L 413.156002 124.241277 
L 414.060121 124.729926 
L 414.96424 125.446895 
L 415.868358 123.783372 
L 416.772477 123.233117 
L 417.676595 121.634432 
L 418.580714 125.501006 
L 419.484833 123.542136 
L 420.388951 123.03944 
L 421.29307 122.974208 
L 422.197188 126.024557 
L 423.101307 125.966021 
L 424.005425 123.277163 
L 424.909544 123.341076 
L 425.813663 124.282577 
L 426.717781 122.796651 
L 427.6219 123.540345 
L 428.526018 122.789966 
L 429.430137 124.306256 
L 430.334256 123.236083 
L 431.238374 122.358572 
L 432.142493 122.221633 
L 433.046611 123.173233 
L 433.95073 123.93587 
L 434.854848 123.765899 
L 435.758967 122.376468 
L 436.663086 121.939975 
L 437.567204 124.159551 
L 438.471323 122.622459 
L 439.375441 122.037843 
L 440.27956 123.072782 
L 441.183679 122.091656 
L 442.087797 124.37319 
L 442.991916 122.536949 
L 444.800153 123.912976 
L 445.704272 123.325717 
L 446.60839 124.61194 
L 447.512509 123.91974 
L 448.416627 122.958962 
L 449.320746 125.255236 
L 450.224864 124.196257 
L 451.128983 121.468697 
L 452.033102 124.003848 
L 452.93722 124.258283 
L 453.841339 126.971243 
L 454.745457 125.899467 
L 455.649576 122.260165 
L 456.553695 125.579732 
L 457.457813 123.821635 
L 458.361932 125.186101 
L 459.26605 122.823066 
L 460.170169 123.188148 
L 461.978406 127.442539 
L 462.882525 121.802132 
L 463.786643 123.788586 
L 464.690762 122.200991 
L 465.59488 125.701675 
L 466.498999 124.458954 
L 467.403118 122.812943 
L 468.307236 122.885985 
L 469.211355 126.219372 
L 470.115473 123.520491 
L 471.019592 122.783603 
L 471.92371 122.541077 
L 472.827829 123.48632 
L 473.731948 125.0951 
L 474.636066 123.312219 
L 475.540185 124.707484 
L 476.444303 122.088562 
L 477.348422 126.13787 
L 478.252541 125.077184 
L 479.156659 122.820636 
L 480.060778 120.048256 
L 480.964896 127.486437 
L 481.869015 124.328655 
L 482.773134 124.977483 
L 483.677252 121.99353 
L 484.581371 125.109232 
L 485.485489 122.646759 
L 486.389608 123.105983 
L 487.293726 123.962183 
L 488.197845 124.461293 
L 489.101964 123.684517 
L 490.006082 123.074354 
L 490.910201 121.391222 
L 491.814319 122.996226 
L 492.718438 123.00372 
L 493.622557 123.304153 
L 494.526675 121.975673 
L 495.430794 122.348512 
L 496.334912 121.976099 
L 497.239031 121.875825 
L 498.143149 125.000644 
L 499.047268 121.637796 
L 499.951387 120.761421 
L 500.855505 123.65735 
L 501.759624 123.506045 
L 502.663742 120.937866 
L 503.567861 125.137593 
L 504.47198 125.854722 
L 505.376098 122.841617 
L 506.280217 121.285651 
L 507.184335 123.77637 
L 508.088454 123.458647 
L 508.992572 126.730558 
L 509.896691 124.290419 
L 510.80081 122.485325 
L 511.704928 123.053492 
L 512.609047 126.686079 
L 514.417284 124.223857 
L 515.321403 124.799481 
L 516.225521 121.078781 
L 517.12964 122.391838 
L 518.033758 127.736754 
L 518.937877 121.933917 
L 519.841995 123.563968 
L 520.746114 124.679156 
L 521.650233 121.776604 
L 522.554351 122.735762 
L 523.45847 123.350734 
L 524.362588 123.765927 
L 526.170826 124.119929 
L 527.074944 120.794244 
L 527.979063 123.596663 
L 528.883181 127.87039 
L 529.7873 121.828124 
L 530.691419 121.961988 
L 532.499656 123.234499 
L 533.403774 124.336757 
L 534.307893 127.28503 
L 535.212011 124.941755 
L 536.11613 121.33803 
L 537.020249 123.461243 
L 537.924367 123.250418 
L 538.828486 124.46928 
L 539.732604 124.995072 
L 540.636723 121.611144 
L 541.540842 124.212842 
L 542.44496 127.678761 
L 543.349079 123.530778 
L 544.253197 122.27404 
L 545.157316 125.903428 
L 546.061434 123.107538 
L 546.965553 120.780055 
L 547.869672 128.064473 
L 548.77379 123.233965 
L 549.677909 121.001317 
L 550.582027 124.210315 
L 551.486146 125.963903 
L 552.390265 121.371304 
L 554.198502 124.606046 
L 555.10262 128.34786 
L 556.006739 123.317244 
L 556.910857 122.932225 
L 557.814976 124.756185 
L 558.719095 125.008039 
L 559.623213 122.360649 
L 560.527332 120.455913 
L 561.43145 123.443937 
L 562.335569 124.656279 
L 563.239688 122.075867 
L 564.143806 124.205067 
L 565.047925 123.649661 
L 565.952043 121.175706 
L 566.856162 123.190857 
L 567.760281 127.441559 
L 569.568518 119.20164 
L 570.472636 124.98752 
L 571.376755 124.956486 
L 573.184992 119.980567 
L 574.089111 124.998145 
L 574.993229 122.178821 
L 575.897348 121.241591 
L 576.801466 125.868125 
L 577.705585 125.458402 
L 578.609704 123.270398 
L 579.513822 124.321221 
L 580.417941 125.015236 
L 581.322059 124.289541 
L 582.226178 120.328884 
L 583.130296 124.030095 
L 584.034415 123.086003 
L 584.938534 127.232545 
L 585.842652 122.304858 
L 586.746771 123.216925 
L 587.650889 124.940615 
L 588.555008 119.77413 
L 589.459127 123.385929 
L 590.363245 124.324897 
L 591.267364 124.297589 
L 592.171482 123.297753 
L 593.075601 124.967886 
L 593.979719 126.162753 
L 594.883838 121.805212 
L 595.787957 121.95862 
L 596.692075 125.194896 
L 598.500312 120.686892 
L 599.404431 122.362163 
L 600.30855 126.942646 
L 601.212668 123.789347 
L 602.116787 125.030424 
L 603.020905 119.605712 
L 603.925024 123.798246 
L 604.829143 125.231174 
L 605.733261 126.222279 
L 606.63738 128.303558 
L 607.541498 123.23991 
L 608.445617 125.129554 
L 609.349735 121.994735 
L 610.253854 122.964717 
L 611.157973 125.639659 
L 612.062091 120.936263 
L 612.96621 123.597529 
L 613.870328 125.354712 
L 614.774447 123.387615 
L 615.678566 122.168884 
L 616.582684 126.950119 
L 617.486803 125.717229 
L 618.390921 123.572436 
L 619.29504 122.984288 
L 620.199158 123.829632 
L 621.103277 125.557915 
L 622.007396 121.99149 
L 622.911514 122.445038 
L 623.815633 121.922753 
L 624.719751 123.293372 
L 625.62387 121.621343 
L 626.527989 120.662447 
L 627.432107 127.135367 
L 628.336226 123.678474 
L 629.240344 122.01877 
L 630.144463 126.313041 
L 631.048581 122.663976 
L 631.9527 122.107845 
L 632.856819 122.944458 
L 633.760937 124.89702 
L 634.665056 122.406626 
L 635.569174 122.799137 
L 636.473293 125.145741 
L 637.377412 124.198699 
L 638.28153 120.771432 
L 639.185649 124.103856 
L 640.089767 125.54608 
L 640.993886 122.131425 
L 641.898005 123.259758 
L 642.802123 122.3207 
L 643.706242 128.147379 
L 644.61036 126.454629 
L 645.514479 119.602313 
L 646.418597 126.102019 
L 647.322716 124.34929 
L 648.226835 121.517129 
L 649.130953 126.575802 
L 650.035072 125.401517 
L 650.93919 124.465817 
L 652.747428 123.830354 
L 653.651546 123.568579 
L 654.555665 119.296928 
L 656.363902 127.426508 
L 657.26802 121.924255 
L 658.172139 120.505617 
L 659.076258 126.962711 
L 659.980376 123.704767 
L 660.884495 122.020765 
L 661.788613 121.149549 
L 662.692732 121.289216 
L 663.596851 125.976125 
L 664.500969 120.722151 
L 665.405088 122.361129 
L 666.309206 125.673684 
L 667.213325 121.459143 
L 668.117443 121.003231 
L 669.021562 122.28273 
L 669.925681 125.918984 
L 670.829799 122.778724 
L 671.733918 122.536146 
L 672.638036 127.507321 
L 673.542155 123.722534 
L 674.446274 120.896525 
L 675.350392 126.123492 
L 676.254511 128.748934 
L 677.158629 120.652121 
L 678.062748 124.275021 
L 678.966866 126.124814 
L 679.870985 122.035119 
L 680.775104 124.646748 
L 681.679222 124.726582 
L 682.583341 123.838679 
L 683.487459 123.683812 
L 684.391578 122.36037 
L 685.295697 122.185182 
L 686.199815 125.942886 
L 687.103934 125.100334 
L 688.008052 120.905683 
L 688.912171 121.845797 
L 689.81629 126.429781 
L 690.720408 121.908914 
L 691.624527 124.298662 
L 692.528645 123.882363 
L 694.336882 120.632779 
L 695.241001 124.916122 
L 696.14512 122.657224 
L 697.049238 123.082807 
L 697.953357 126.821328 
L 698.857475 123.592916 
L 699.761594 122.094185 
L 700.665713 125.434515 
L 701.569831 121.553069 
L 702.47395 124.338934 
L 703.378068 126.264931 
L 704.282187 121.204502 
L 705.186305 122.877383 
L 706.090424 123.801623 
L 706.994543 127.464204 
L 707.898661 120.369262 
L 708.80278 124.543484 
L 709.706898 122.662966 
L 710.611017 124.893797 
L 711.515136 122.480645 
L 712.419254 124.927991 
L 713.323373 123.655245 
L 714.227491 124.531245 
L 715.13161 123.338205 
L 716.035728 120.118648 
L 716.939847 125.627326 
L 717.843966 122.885543 
L 718.748084 121.331675 
L 719.652203 127.696258 
L 720.556321 122.595729 
L 721.46044 120.974537 
L 722.364559 127.097891 
L 723.268677 123.737086 
L 724.172796 123.367083 
L 725.076914 120.334047 
L 725.981033 125.900369 
L 726.885152 123.609216 
L 728.693389 124.223688 
L 729.597507 125.119321 
L 730.501626 122.163495 
L 731.405744 124.187287 
L 732.309863 122.558424 
L 733.213982 124.627011 
L 734.1181 125.500524 
L 735.022219 121.210599 
L 735.926337 125.590852 
L 736.830456 125.550526 
L 737.734575 122.523784 
L 738.638693 122.403084 
L 739.542812 127.245678 
L 740.44693 121.45326 
L 741.351049 123.699306 
L 742.255167 122.979813 
L 743.159286 126.727908 
L 744.063405 123.0758 
L 744.967523 121.993857 
L 745.871642 123.953494 
L 746.77576 121.607342 
L 747.679879 124.089892 
L 748.583998 123.406143 
L 749.488116 122.556426 
L 750.392235 124.4823 
L 751.296353 122.631517 
L 752.200472 123.84459 
L 753.10459 124.760467 
L 754.008709 122.516244 
L 754.912828 123.276657 
L 755.816946 122.246182 
L 756.721065 128.013836 
L 757.625183 122.056439 
L 758.529302 124.127616 
L 759.433421 123.064331 
L 760.337539 127.106908 
L 761.241658 122.585056 
L 762.145776 123.247573 
L 763.049895 124.554652 
L 763.954014 123.17124 
L 764.858132 126.23301 
L 765.762251 121.352514 
L 766.666369 125.705658 
L 767.570488 124.132379 
L 768.474606 123.603504 
L 769.378725 123.348745 
L 770.282844 124.972393 
L 771.186962 122.900954 
L 772.091081 123.719466 
L 772.995199 121.706959 
L 773.899318 125.73177 
L 774.803437 120.905363 
L 776.611674 123.966674 
L 777.515792 123.840287 
L 778.419911 119.401148 
L 779.324029 123.751336 
L 780.228148 124.627417 
L 781.132267 123.696184 
L 782.036385 124.535427 
L 782.940504 122.417949 
L 783.844622 125.899714 
L 784.748741 122.471715 
L 785.65286 125.861125 
L 786.556978 122.107164 
L 787.461097 124.938079 
L 788.365215 123.16602 
L 789.269334 124.681886 
L 790.173452 123.314769 
L 791.077571 126.149473 
L 791.98169 123.716894 
L 792.885808 122.890203 
L 793.789927 126.433911 
L 794.694045 123.891408 
L 795.598164 123.721441 
L 796.502283 126.545509 
L 797.406401 123.247759 
L 798.31052 123.368723 
L 799.214638 124.895564 
L 800.118757 121.66691 
L 801.022876 124.073987 
L 801.926994 122.478683 
L 802.831113 123.651078 
L 803.735231 122.274262 
L 804.63935 125.05533 
L 805.543468 122.614421 
L 807.351706 122.043949 
L 808.255824 124.618897 
L 809.159943 122.160942 
L 810.064061 121.430387 
L 810.96818 126.051166 
L 811.872299 119.783262 
L 812.776417 121.962631 
L 813.680536 125.585755 
L 814.584654 121.713841 
L 815.488773 122.876296 
L 816.392891 122.559838 
L 817.29701 123.038633 
L 818.201129 124.995536 
L 819.105247 122.085587 
L 820.009366 125.995607 
L 820.913484 122.859674 
L 821.817603 121.884429 
L 822.721722 125.914553 
L 823.62584 121.437386 
L 824.529959 124.07903 
L 825.434077 125.255762 
L 826.338196 121.333806 
L 827.242314 125.291972 
L 828.146433 125.433347 
L 829.050552 120.515229 
L 829.95467 127.994917 
L 830.858789 125.123148 
L 831.762907 121.017452 
L 832.667026 125.899478 
L 833.571145 125.02264 
L 834.475263 123.946353 
L 835.379382 123.136531 
L 836.2835 124.550996 
L 837.187619 124.388865 
L 838.091737 120.726119 
L 838.995856 124.911278 
L 839.899975 126.3848 
L 840.804093 120.814396 
L 841.708212 127.217786 
L 842.61233 123.714617 
L 843.516449 121.341275 
L 844.420568 128.145843 
L 845.324686 122.673747 
L 846.228805 122.493503 
L 847.132923 125.088735 
L 848.037042 119.795576 
L 848.941161 121.832129 
L 849.845279 125.38129 
L 850.749398 121.068122 
L 851.653516 121.877997 
L 852.557635 124.708263 
L 853.461753 122.769666 
L 854.365872 123.121227 
L 855.269991 124.319434 
L 857.078228 123.634289 
L 857.982346 119.614404 
L 858.886465 122.764924 
L 859.790584 121.029812 
L 861.598821 126.750776 
L 862.502939 118.818802 
L 863.407058 124.446471 
L 864.311176 124.537824 
L 865.215295 123.097614 
L 866.119414 126.504123 
L 867.023532 125.878107 
L 867.927651 124.116417 
L 868.831769 125.946954 
L 869.735888 125.910194 
L 870.640007 123.595623 
L 871.544125 124.588498 
L 872.448244 124.160403 
L 873.352362 123.038021 
L 874.256481 123.958211 
L 875.160599 123.208132 
L 876.064718 128.993439 
L 876.968837 125.759131 
L 877.872955 127.682759 
L 878.777074 123.211144 
L 879.681192 121.377693 
L 880.585311 126.14686 
L 881.48943 123.444394 
L 882.393548 121.69784 
L 883.297667 126.841524 
L 884.201785 121.361298 
L 885.105904 124.105411 
L 886.010023 121.207114 
L 886.914141 125.635861 
L 887.81826 120.723674 
L 888.722378 122.885844 
L 889.626497 123.83707 
L 890.530615 121.745928 
L 891.434734 124.40653 
L 892.338853 124.727759 
L 893.242971 123.654321 
L 894.14709 120.258558 
L 895.051208 123.608236 
L 895.955327 120.327924 
L 896.859446 123.339533 
L 897.763564 124.959239 
L 898.667683 123.278323 
L 899.571801 122.671302 
L 900.47592 124.577001 
L 901.380038 120.866961 
L 902.284157 123.816768 
L 903.188276 121.848099 
L 904.092394 124.454623 
L 904.996513 119.200812 
L 905.900631 125.707355 
L 906.80475 123.252513 
L 907.708869 124.923463 
L 908.612987 124.294612 
L 909.517106 122.523355 
L 910.421224 124.960989 
L 911.325343 122.860721 
L 912.229461 124.152297 
L 913.13358 124.292963 
L 914.037699 124.649883 
L 914.941817 122.089328 
L 916.750054 124.354018 
L 917.654173 123.402467 
L 918.558292 125.390862 
L 919.46241 124.068837 
L 920.366529 125.406391 
L 921.270647 124.120694 
L 922.174766 125.29872 
L 923.078885 125.980765 
L 923.983003 123.099386 
L 924.887122 124.431566 
L 925.79124 121.431523 
L 926.695359 125.014774 
L 927.599477 123.441177 
L 928.503596 120.750677 
L 929.407715 124.81974 
L 930.311833 123.415121 
L 931.215952 120.494079 
L 933.024189 127.155685 
L 933.928308 122.423457 
L 934.832426 120.322796 
L 935.736545 124.426108 
L 936.640663 121.610914 
L 937.544782 124.151678 
L 938.4489 122.203077 
L 939.353019 124.294712 
L 940.257138 122.242984 
L 941.161256 120.83 
L 942.065375 124.956515 
L 942.969493 123.356144 
L 943.873612 123.790494 
L 944.777731 123.67995 
L 945.681849 124.803544 
L 946.585968 123.034488 
L 947.490086 124.67366 
L 948.394205 123.790684 
L 949.298323 126.459321 
L 950.202442 122.394601 
L 951.106561 121.6102 
L 952.914798 128.639063 
L 953.818916 123.943482 
L 954.723035 124.920533 
L 955.627154 122.814615 
L 956.531272 124.560933 
L 957.435391 121.225415 
L 959.243628 127.392796 
L 960.147747 122.824463 
L 961.051865 122.341536 
L 961.955984 122.866998 
L 962.860102 121.562511 
L 963.764221 123.14644 
L 964.668339 126.36988 
L 965.572458 121.699592 
L 966.476577 122.472675 
L 967.380695 123.491478 
L 968.284814 123.74675 
L 969.188932 124.905625 
L 970.093051 122.687715 
L 970.99717 121.449489 
L 972.805407 123.479752 
L 973.709525 122.650031 
L 974.613644 122.89799 
L 975.517762 126.249027 
L 976.421881 121.91164 
L 977.326 122.582151 
L 978.230118 121.570133 
L 979.134237 126.429558 
L 980.038355 127.317034 
L 980.942474 125.226914 
L 981.846593 122.64547 
L 982.750711 122.967172 
L 983.65483 124.225482 
L 984.558948 126.78153 
L 985.463067 120.71486 
L 986.367185 125.810175 
L 987.271304 121.096355 
L 988.175423 125.248387 
L 989.079541 124.172776 
L 989.98366 122.837368 
L 990.887778 123.91851 
L 991.791897 124.02335 
L 992.696016 124.857577 
L 993.600134 121.507101 
L 994.504253 125.547171 
L 995.408371 122.486028 
L 996.31249 125.623653 
L 997.216608 121.846591 
L 998.120727 120.021388 
L 999.024846 123.282886 
L 999.928964 125.036752 
L 1000.833083 122.796128 
L 1001.737201 122.659528 
L 1002.64132 120.419715 
L 1003.545439 126.837111 
L 1004.449557 122.981321 
L 1005.353676 126.249009 
L 1006.257794 120.767316 
L 1007.161913 122.957648 
L 1008.066032 127.538367 
L 1008.97015 122.58511 
L 1009.874269 125.533965 
L 1009.874269 125.533965 
" clip-path="url(#p11f78d144b)" style="fill: none; stroke: #5dc694; stroke-width: 1.5; stroke-linecap: square"/>
   </g>
   <g id="patch_3">
    <path d="M 99.02 228.04 
L 99.02 17.28 
" style="fill: none; stroke: #000000; stroke-width: 0.8; stroke-linejoin: miter; stroke-linecap: square"/>
   </g>
   <g id="patch_4">
    <path d="M 1062.72 228.04 
L 1062.72 17.28 
" style="fill: none; stroke: #000000; stroke-width: 0.8; stroke-linejoin: miter; stroke-linecap: square"/>
   </g>
   <g id="patch_5">
    <path d="M 99.02 228.04 
L 1062.72 228.04 
" style="fill: none; stroke: #000000; stroke-width: 0.8; stroke-linejoin: miter; stroke-linecap: square"/>
   </g>
   <g id="patch_6">
    <path d="M 99.02 17.28 
L 1062.72 17.28 
" style="fill: none; stroke: #000000; stroke-width: 0.8; stroke-linejoin: miter; stroke-linecap: square"/>
   </g>
   <g id="legend_1">
    <g id="patch_7">
     <path d="M 854.2975 76.605 
L 1051.52 76.605 
Q 1054.72 76.605 1054.72 73.405 
L 1054.72 28.48 
Q 1054.72 25.28 1051.52 25.28 
L 854.2975 25.28 
Q 851.0975 25.28 851.0975 28.48 
L 851.0975 73.405 
Q 851.0975 76.605 854.2975 76.605 
z
" style="fill: #ffffff; opacity: 0.8; stroke: #cccccc; stroke-linejoin: miter"/>
    </g>
    <g id="line2d_12">
     <path d="M 857.4975 37.44 
L 873.4975 37.44 
L 889.4975 37.44 
" style="fill: none; stroke: #d2dbe0; stroke-width: 1.5; stroke-linecap: square"/>
    </g>
    <g id="text_12">
     <!-- 2nd. Difference -->
     <g transform="translate(902.2975 43.04) scale(0.16 -0.16)">
      <use xlink:href="#Bahnschrift-32"/>
      <use xlink:href="#Bahnschrift-6e" x="51.660156"/>
      <use xlink:href="#Bahnschrift-64" x="107.519531"/>
      <use xlink:href="#Bahnschrift-2e" x="161.425781"/>
      <use xlink:href="#Bahnschrift-20" x="184.082031"/>
      <use xlink:href="#Bahnschrift-44" x="210.9375"/>
      <use xlink:href="#Bahnschrift-69" x="276.5625"/>
      <use xlink:href="#Bahnschrift-66" x="301.660156"/>
      <use xlink:href="#Bahnschrift-66" x="333.349609"/>
      <use xlink:href="#Bahnschrift-65" x="365.039062"/>
      <use xlink:href="#Bahnschrift-72" x="418.652344"/>
      <use xlink:href="#Bahnschrift-65" x="461.328125"/>
      <use xlink:href="#Bahnschrift-6e" x="514.941406"/>
      <use xlink:href="#Bahnschrift-63" x="570.800781"/>
      <use xlink:href="#Bahnschrift-65" x="620.605469"/>
     </g>
    </g>
    <g id="line2d_13">
     <path d="M 857.4975 61.3075 
L 873.4975 61.3075 
L 889.4975 61.3075 
" style="fill: none; stroke: #5dc694; stroke-width: 1.5; stroke-linecap: square"/>
    </g>
    <g id="text_13">
     <!-- Rolling Average (20) -->
     <g transform="translate(902.2975 66.9075) scale(0.16 -0.16)">
      <defs>
       <path id="Bahnschrift-52" d="M 841 1922 
L 841 2528 
L 2391 2528 
Q 2669 2528 2837 2722 
Q 3006 2916 3006 3234 
L 3006 3234 
Q 3006 3553 2837 3747 
Q 2669 3941 2391 3941 
L 841 3941 
L 841 4547 
L 2366 4547 
Q 2763 4547 3059 4383 
Q 3356 4219 3520 3925 
Q 3684 3631 3684 3234 
L 3684 3234 
Q 3684 2841 3518 2545 
Q 3353 2250 3058 2086 
Q 2763 1922 2366 1922 
L 841 1922 
z
M 563 0 
L 563 4547 
L 1200 4547 
L 1200 0 
L 563 0 
z
M 3119 0 
L 2078 2063 
L 2713 2206 
L 3875 0 
L 3119 0 
z
" transform="scale(0.015625)"/>
       <path id="Bahnschrift-6f" d="M 1744 -47 
Q 1106 -47 756 323 
Q 406 694 406 1366 
L 406 1894 
Q 406 2559 756 2925 
Q 1106 3291 1744 3291 
Q 2381 3291 2731 2925 
Q 3081 2559 3081 1894 
L 3081 1356 
Q 3081 688 2731 320 
Q 2381 -47 1744 -47 
z
M 1744 559 
Q 2078 559 2261 768 
Q 2444 978 2444 1356 
L 2444 1894 
Q 2444 2272 2261 2478 
Q 2078 2684 1744 2684 
Q 1413 2684 1228 2478 
Q 1044 2272 1044 1894 
L 1044 1356 
Q 1044 978 1228 768 
Q 1413 559 1744 559 
z
" transform="scale(0.015625)"/>
       <path id="Bahnschrift-6c" d="M 1138 4544 
L 1138 838 
Q 1138 722 1189 656 
Q 1241 591 1334 591 
L 1634 591 
L 1634 -16 
L 1259 -16 
Q 900 -16 700 209 
Q 500 434 500 844 
L 500 4544 
L 1138 4544 
z
" transform="scale(0.015625)"/>
       <path id="Bahnschrift-67" d="M 1588 -1319 
Q 1222 -1319 933 -1183 
Q 644 -1047 484 -800 
L 484 -800 
L 916 -409 
L 916 -409 
Q 1041 -581 1214 -675 
Q 1388 -769 1578 -769 
Q 1944 -769 2144 -567 
Q 2344 -366 2344 3 
L 2344 3244 
L 2981 3244 
L 2981 97 
Q 2981 -578 2617 -948 
Q 2253 -1319 1588 -1319 
z
M 1528 -56 
Q 991 -56 698 289 
Q 406 634 406 1263 
L 406 1978 
Q 406 2609 692 2954 
Q 978 3300 1497 3300 
Q 1784 3300 2023 3150 
Q 2263 3000 2409 2728 
L 2344 2066 
Q 2344 2272 2269 2419 
Q 2194 2566 2051 2642 
Q 1909 2719 1706 2719 
Q 1391 2719 1217 2522 
Q 1044 2325 1044 1969 
L 1044 1263 
Q 1044 909 1217 717 
Q 1391 525 1706 525 
Q 1909 525 2051 604 
Q 2194 684 2269 834 
Q 2344 984 2344 1194 
L 2388 509 
Q 2300 291 2086 117 
Q 1872 -56 1528 -56 
z
" transform="scale(0.015625)"/>
       <path id="Bahnschrift-41" d="M 125 0 
L 1800 4544 
L 2344 4544 
L 4019 0 
L 3331 0 
L 2072 3666 
L 813 0 
L 125 0 
z
M 897 997 
L 897 1603 
L 3288 1603 
L 3288 997 
L 897 997 
z
" transform="scale(0.015625)"/>
       <path id="Bahnschrift-76" d="M 1616 928 
L 2409 3244 
L 3075 3244 
L 1856 0 
L 1375 0 
L 156 3244 
L 822 3244 
L 1616 928 
z
" transform="scale(0.015625)"/>
       <path id="Bahnschrift-28" d="M 1672 -978 
Q 1116 -375 839 373 
Q 563 1122 563 2025 
Q 563 2928 839 3676 
Q 1116 4425 1672 5028 
L 2109 4631 
Q 1638 4106 1403 3456 
Q 1169 2806 1169 2025 
Q 1169 1244 1403 594 
Q 1638 -56 2109 -584 
L 1672 -978 
z
" transform="scale(0.015625)"/>
       <path id="Bahnschrift-29" d="M 500 -978 
L 63 -584 
Q 534 -56 768 594 
Q 1003 1244 1003 2025 
Q 1003 2806 768 3456 
Q 534 4106 63 4631 
L 500 5028 
Q 1056 4425 1332 3676 
Q 1609 2928 1609 2025 
Q 1609 1122 1332 373 
Q 1056 -375 500 -978 
z
" transform="scale(0.015625)"/>
      </defs>
      <use xlink:href="#Bahnschrift-52"/>
      <use xlink:href="#Bahnschrift-6f" x="65.185547"/>
      <use xlink:href="#Bahnschrift-6c" x="119.677734"/>
      <use xlink:href="#Bahnschrift-6c" x="148.632812"/>
      <use xlink:href="#Bahnschrift-69" x="177.587891"/>
      <use xlink:href="#Bahnschrift-6e" x="202.685547"/>
      <use xlink:href="#Bahnschrift-67" x="258.544922"/>
      <use xlink:href="#Bahnschrift-20" x="312.451172"/>
      <use xlink:href="#Bahnschrift-41" x="339.306641"/>
      <use xlink:href="#Bahnschrift-76" x="404.052734"/>
      <use xlink:href="#Bahnschrift-65" x="454.052734"/>
      <use xlink:href="#Bahnschrift-72" x="507.666016"/>
      <use xlink:href="#Bahnschrift-61" x="550.341797"/>
      <use xlink:href="#Bahnschrift-67" x="603.564453"/>
      <use xlink:href="#Bahnschrift-65" x="657.470703"/>
      <use xlink:href="#Bahnschrift-20" x="711.083984"/>
      <use xlink:href="#Bahnschrift-28" x="737.939453"/>
      <use xlink:href="#Bahnschrift-32" x="771.875"/>
      <use xlink:href="#Bahnschrift-30" x="823.535156"/>
      <use xlink:href="#Bahnschrift-29" x="878.710938"/>
     </g>
    </g>
   </g>
  </g>
 </g>
 <defs>
  <clipPath id="p11f78d144b">
   <rect x="99.02" y="17.28" width="963.7" height="210.76"/>
  </clipPath>
 </defs>
</svg>
