<?xml version="1.0" encoding="utf-8" standalone="no"?>
<!DOCTYPE svg PUBLIC "-//W3C//DTD SVG 1.1//EN"
  "http://www.w3.org/Graphics/SVG/1.1/DTD/svg11.dtd">
<svg xmlns:xlink="http://www.w3.org/1999/xlink" width="576pt" height="288pt" viewBox="0 0 576 288" xmlns="http://www.w3.org/2000/svg" version="1.1">
 <metadata>
  <rdf:RDF xmlns:dc="http://purl.org/dc/elements/1.1/" xmlns:cc="http://creativecommons.org/ns#" xmlns:rdf="http://www.w3.org/1999/02/22-rdf-syntax-ns#">
   <cc:Work>
    <dc:type rdf:resource="http://purl.org/dc/dcmitype/StillImage"/>
    <dc:date>2024-05-29T21:43:41.063320</dc:date>
    <dc:format>image/svg+xml</dc:format>
    <dc:creator>
     <cc:Agent>
      <dc:title>Matplotlib v3.8.2, https://matplotlib.org/</dc:title>
     </cc:Agent>
    </dc:creator>
   </cc:Work>
  </rdf:RDF>
 </metadata>
 <defs>
  <style type="text/css">*{stroke-linejoin: round; stroke-linecap: butt}</style>
 </defs>
 <g id="figure_1">
  <g id="patch_1">
   <path d="M 0 288 
L 576 288 
L 576 0 
L 0 0 
z
" style="fill: #ffffff"/>
  </g>
  <g id="axes_1">
   <g id="patch_2">
    <path d="M 65.72 228.04 
L 558.72 228.04 
L 558.72 17.28 
L 65.72 17.28 
z
" style="fill: #ffffff"/>
   </g>
   <g id="matplotlib.axis_1">
    <g id="xtick_1">
     <g id="line2d_1">
      <defs>
       <path id="m9119edcde7" d="M 0 0 
L 0 3.5 
" style="stroke: #000000; stroke-width: 0.8"/>
      </defs>
      <g>
       <use xlink:href="#m9119edcde7" x="137.927071" y="228.04" style="stroke: #000000; stroke-width: 0.8"/>
      </g>
     </g>
     <g id="text_1">
      <!-- 2 -->
      <g transform="translate(133.794571 246.4) scale(0.16 -0.16)">
       <defs>
        <path id="Bahnschrift-32" d="M 400 0 
L 400 553 
L 1984 2666 
Q 2122 2847 2198 3040 
Q 2275 3234 2275 3406 
L 2275 3413 
Q 2275 3684 2115 3834 
Q 1956 3984 1663 3984 
Q 1388 3984 1214 3820 
Q 1041 3656 1003 3356 
L 1003 3353 
L 344 3353 
L 344 3356 
Q 428 3944 772 4267 
Q 1116 4591 1656 4591 
Q 2269 4591 2603 4281 
Q 2938 3972 2938 3406 
L 2938 3403 
Q 2938 3163 2838 2898 
Q 2738 2634 2559 2394 
L 1244 606 
L 2963 606 
L 2963 0 
L 400 0 
z
" transform="scale(0.015625)"/>
       </defs>
       <use xlink:href="#Bahnschrift-32"/>
      </g>
     </g>
    </g>
    <g id="xtick_2">
     <g id="line2d_2">
      <g>
       <use xlink:href="#m9119edcde7" x="237.52303" y="228.04" style="stroke: #000000; stroke-width: 0.8"/>
      </g>
     </g>
     <g id="text_2">
      <!-- 4 -->
      <g transform="translate(232.97178 246.4) scale(0.16 -0.16)">
       <defs>
        <path id="Bahnschrift-34" d="M 406 697 
L 406 1250 
L 1931 4541 
L 2588 4541 
L 1100 1288 
L 3328 1288 
L 3328 697 
L 406 697 
z
M 2366 -3 
L 2366 2672 
L 2988 2672 
L 2988 -3 
L 2366 -3 
z
" transform="scale(0.015625)"/>
       </defs>
       <use xlink:href="#Bahnschrift-34"/>
      </g>
     </g>
    </g>
    <g id="xtick_3">
     <g id="line2d_3">
      <g>
       <use xlink:href="#m9119edcde7" x="337.11899" y="228.04" style="stroke: #000000; stroke-width: 0.8"/>
      </g>
     </g>
     <g id="text_3">
      <!-- 6 -->
      <g transform="translate(333.01399 246.4) scale(0.16 -0.16)">
       <defs>
        <path id="Bahnschrift-36" d="M 1641 -47 
Q 1038 -47 706 312 
Q 375 672 375 1325 
L 375 1328 
Q 375 1622 456 1951 
Q 538 2281 691 2588 
L 1678 4544 
L 2366 4544 
L 1206 2278 
L 1209 2391 
Q 1372 2700 1788 2700 
Q 2322 2700 2615 2345 
Q 2909 1991 2909 1344 
L 2909 1341 
Q 2909 681 2578 317 
Q 2247 -47 1641 -47 
z
M 1641 566 
Q 1947 566 2109 753 
Q 2272 941 2272 1288 
L 2272 1291 
Q 2272 1672 2100 1880 
Q 1928 2088 1609 2088 
Q 1325 2088 1169 1878 
Q 1013 1669 1013 1288 
L 1013 1284 
Q 1013 938 1177 752 
Q 1341 566 1641 566 
z
" transform="scale(0.015625)"/>
       </defs>
       <use xlink:href="#Bahnschrift-36"/>
      </g>
     </g>
    </g>
    <g id="xtick_4">
     <g id="line2d_4">
      <g>
       <use xlink:href="#m9119edcde7" x="436.714949" y="228.04" style="stroke: #000000; stroke-width: 0.8"/>
      </g>
     </g>
     <g id="text_4">
      <!-- 8 -->
      <g transform="translate(432.214949 246.4) scale(0.16 -0.16)">
       <defs>
        <path id="Bahnschrift-38" d="M 1800 -47 
Q 1384 -47 1075 109 
Q 766 266 594 550 
Q 422 834 422 1216 
L 422 1291 
Q 422 1631 592 1931 
Q 763 2231 1047 2384 
Q 809 2516 662 2764 
Q 516 3013 516 3288 
L 516 3397 
Q 516 3938 867 4264 
Q 1219 4591 1800 4591 
Q 2381 4591 2732 4264 
Q 3084 3938 3084 3397 
L 3084 3288 
Q 3084 3006 2936 2759 
Q 2788 2513 2544 2384 
Q 2831 2231 3004 1931 
Q 3178 1631 3178 1291 
L 3178 1216 
Q 3178 834 3006 550 
Q 2834 266 2525 109 
Q 2216 -47 1800 -47 
z
M 1800 566 
Q 2134 566 2339 758 
Q 2544 950 2544 1263 
L 2544 1306 
Q 2544 1622 2339 1814 
Q 2134 2006 1800 2006 
Q 1466 2006 1261 1814 
Q 1056 1622 1056 1303 
L 1056 1256 
Q 1056 944 1261 755 
Q 1466 566 1800 566 
z
M 1800 2619 
Q 2091 2619 2269 2803 
Q 2447 2988 2447 3291 
L 2447 3334 
Q 2447 3625 2269 3801 
Q 2091 3978 1800 3978 
Q 1509 3978 1331 3801 
Q 1153 3625 1153 3331 
L 1153 3284 
Q 1153 2984 1331 2801 
Q 1509 2619 1800 2619 
z
" transform="scale(0.015625)"/>
       </defs>
       <use xlink:href="#Bahnschrift-38"/>
      </g>
     </g>
    </g>
    <g id="xtick_5">
     <g id="line2d_5">
      <g>
       <use xlink:href="#m9119edcde7" x="536.310909" y="228.04" style="stroke: #000000; stroke-width: 0.8"/>
      </g>
     </g>
     <g id="text_5">
      <!-- 10 -->
      <g transform="translate(529.237159 246.4) scale(0.16 -0.16)">
       <defs>
        <path id="Bahnschrift-31" d="M 1566 4544 
L 1566 0 
L 928 0 
L 928 3850 
L 281 3453 
L 281 4113 
L 928 4544 
L 1566 4544 
z
" transform="scale(0.015625)"/>
        <path id="Bahnschrift-30" d="M 1766 -47 
Q 1116 -47 792 301 
Q 469 650 469 1244 
L 469 3309 
Q 469 3913 797 4256 
Q 1125 4600 1766 4600 
Q 2409 4600 2736 4258 
Q 3063 3916 3063 3309 
L 3063 1244 
Q 3063 641 2736 297 
Q 2409 -47 1766 -47 
z
M 1766 559 
Q 2116 559 2270 742 
Q 2425 925 2425 1244 
L 2425 3309 
Q 2425 3631 2270 3812 
Q 2116 3994 1766 3994 
Q 1416 3994 1261 3812 
Q 1106 3631 1106 3309 
L 1106 1244 
Q 1106 925 1261 742 
Q 1416 559 1766 559 
z
" transform="scale(0.015625)"/>
       </defs>
       <use xlink:href="#Bahnschrift-31"/>
       <use xlink:href="#Bahnschrift-30" x="33.251953"/>
      </g>
     </g>
    </g>
    <g id="text_6">
     <!-- GF Class -->
     <g transform="translate(280.60625 265.0575) scale(0.16 -0.16)">
      <defs>
       <path id="Bahnschrift-47" d="M 2094 2447 
L 3669 2447 
L 3669 1653 
Q 3669 1141 3470 758 
Q 3272 375 2915 164 
Q 2559 -47 2078 -47 
Q 1594 -47 1231 151 
Q 869 350 669 711 
Q 469 1072 469 1553 
L 469 2894 
Q 469 3406 667 3787 
Q 866 4169 1222 4380 
Q 1578 4591 2059 4591 
Q 2456 4591 2782 4422 
Q 3109 4253 3331 3950 
Q 3553 3647 3631 3241 
L 3631 3241 
L 2941 3241 
L 2941 3241 
Q 2853 3594 2600 3781 
Q 2347 3969 2059 3969 
Q 1634 3969 1378 3673 
Q 1122 3378 1122 2894 
L 1122 1553 
Q 1122 1109 1384 842 
Q 1647 575 2078 575 
Q 2503 575 2759 856 
Q 3016 1138 3016 1641 
L 3016 1838 
L 2094 1838 
L 2094 2447 
z
" transform="scale(0.015625)"/>
       <path id="Bahnschrift-46" d="M 563 0 
L 563 4544 
L 1200 4544 
L 1200 0 
L 563 0 
z
M 875 1913 
L 875 2519 
L 3078 2519 
L 3078 1913 
L 875 1913 
z
M 875 3938 
L 875 4544 
L 3422 4544 
L 3422 3938 
L 875 3938 
z
" transform="scale(0.015625)"/>
       <path id="Bahnschrift-20" transform="scale(0.015625)"/>
       <path id="Bahnschrift-43" d="M 2050 -47 
Q 1575 -47 1219 164 
Q 863 375 666 756 
Q 469 1138 469 1647 
L 469 2894 
Q 469 3406 666 3787 
Q 863 4169 1219 4380 
Q 1575 4591 2050 4591 
Q 2444 4591 2770 4422 
Q 3097 4253 3317 3950 
Q 3538 3647 3616 3241 
L 3616 3241 
L 2963 3241 
L 2963 3241 
Q 2903 3459 2764 3623 
Q 2625 3788 2437 3878 
Q 2250 3969 2050 3969 
Q 1631 3969 1376 3673 
Q 1122 3378 1122 2894 
L 1122 1647 
Q 1122 1163 1376 869 
Q 1631 575 2050 575 
Q 2347 575 2609 762 
Q 2872 950 2963 1303 
L 2963 1303 
L 3616 1303 
L 3616 1303 
Q 3538 897 3316 594 
Q 3094 291 2769 122 
Q 2444 -47 2050 -47 
z
" transform="scale(0.015625)"/>
       <path id="Bahnschrift-6c" d="M 1138 4544 
L 1138 838 
Q 1138 722 1189 656 
Q 1241 591 1334 591 
L 1634 591 
L 1634 -16 
L 1259 -16 
Q 900 -16 700 209 
Q 500 434 500 844 
L 500 4544 
L 1138 4544 
z
" transform="scale(0.015625)"/>
       <path id="Bahnschrift-61" d="M 2331 0 
L 2331 2056 
Q 2331 2375 2161 2551 
Q 1991 2728 1678 2728 
Q 1488 2728 1302 2670 
Q 1116 2613 969 2503 
L 503 2822 
Q 688 3044 989 3167 
Q 1291 3291 1659 3291 
Q 2269 3291 2603 2975 
Q 2938 2659 2938 2084 
L 2938 0 
L 2331 0 
z
M 1538 -47 
Q 941 -47 642 200 
Q 344 447 344 956 
Q 344 1441 617 1680 
Q 891 1919 1438 1919 
L 2359 1919 
L 2403 1406 
L 1441 1406 
Q 1194 1406 1069 1295 
Q 944 1184 944 956 
Q 944 709 1109 590 
Q 1275 472 1606 472 
Q 1969 472 2150 550 
Q 2331 628 2331 794 
L 2397 338 
Q 2313 206 2188 122 
Q 2063 38 1902 -4 
Q 1741 -47 1538 -47 
z
" transform="scale(0.015625)"/>
       <path id="Bahnschrift-73" d="M 1647 -47 
Q 1216 -47 864 79 
Q 513 206 234 459 
L 234 459 
L 613 925 
L 613 925 
Q 878 725 1136 625 
Q 1394 525 1647 525 
Q 2025 525 2214 642 
Q 2403 759 2403 994 
Q 2403 1175 2276 1250 
Q 2150 1325 1945 1348 
Q 1741 1372 1506 1388 
Q 1309 1403 1115 1436 
Q 922 1469 762 1555 
Q 603 1641 508 1809 
Q 413 1978 413 2263 
Q 413 2778 728 3034 
Q 1044 3291 1669 3291 
Q 2050 3291 2378 3187 
Q 2706 3084 2994 2872 
L 2994 2872 
L 2609 2406 
L 2609 2406 
Q 2366 2563 2130 2641 
Q 1894 2719 1669 2719 
Q 1344 2719 1181 2608 
Q 1019 2497 1019 2275 
Q 1019 2128 1131 2064 
Q 1244 2000 1428 1981 
Q 1613 1963 1825 1947 
Q 2028 1934 2236 1901 
Q 2444 1869 2619 1775 
Q 2794 1681 2900 1497 
Q 3006 1313 3006 994 
Q 3006 472 2667 212 
Q 2328 -47 1647 -47 
z
" transform="scale(0.015625)"/>
      </defs>
      <use xlink:href="#Bahnschrift-47"/>
      <use xlink:href="#Bahnschrift-46" x="64.648438"/>
      <use xlink:href="#Bahnschrift-20" x="120.556641"/>
      <use xlink:href="#Bahnschrift-43" x="147.412109"/>
      <use xlink:href="#Bahnschrift-6c" x="209.277344"/>
      <use xlink:href="#Bahnschrift-61" x="238.232422"/>
      <use xlink:href="#Bahnschrift-73" x="291.455078"/>
      <use xlink:href="#Bahnschrift-73" x="343.310547"/>
     </g>
    </g>
   </g>
   <g id="matplotlib.axis_2">
    <g id="ytick_1">
     <g id="line2d_6">
      <defs>
       <path id="m8e9cd880fb" d="M 0 0 
L -3.5 0 
" style="stroke: #000000; stroke-width: 0.8"/>
      </defs>
      <g>
       <use xlink:href="#m8e9cd880fb" x="65.72" y="218.465485" style="stroke: #000000; stroke-width: 0.8"/>
      </g>
     </g>
     <g id="text_7">
      <!-- 0.0 -->
      <g transform="translate(37.44 224.145485) scale(0.16 -0.16)">
       <defs>
        <path id="Bahnschrift-2e" d="M 391 0 
L 391 669 
L 1059 669 
L 1059 0 
L 391 0 
z
" transform="scale(0.015625)"/>
       </defs>
       <use xlink:href="#Bahnschrift-30"/>
       <use xlink:href="#Bahnschrift-2e" x="55.175781"/>
       <use xlink:href="#Bahnschrift-30" x="77.832031"/>
      </g>
     </g>
    </g>
    <g id="ytick_2">
     <g id="line2d_7">
      <g>
       <use xlink:href="#m8e9cd880fb" x="65.72" y="175.838618" style="stroke: #000000; stroke-width: 0.8"/>
      </g>
     </g>
     <g id="text_8">
      <!-- 0.2 -->
      <g transform="translate(38.0025 181.518618) scale(0.16 -0.16)">
       <use xlink:href="#Bahnschrift-30"/>
       <use xlink:href="#Bahnschrift-2e" x="55.175781"/>
       <use xlink:href="#Bahnschrift-32" x="77.832031"/>
      </g>
     </g>
    </g>
    <g id="ytick_3">
     <g id="line2d_8">
      <g>
       <use xlink:href="#m8e9cd880fb" x="65.72" y="133.211751" style="stroke: #000000; stroke-width: 0.8"/>
      </g>
     </g>
     <g id="text_9">
      <!-- 0.4 -->
      <g transform="translate(37.165 138.891751) scale(0.16 -0.16)">
       <use xlink:href="#Bahnschrift-30"/>
       <use xlink:href="#Bahnschrift-2e" x="55.175781"/>
       <use xlink:href="#Bahnschrift-34" x="77.832031"/>
      </g>
     </g>
    </g>
    <g id="ytick_4">
     <g id="line2d_9">
      <g>
       <use xlink:href="#m8e9cd880fb" x="65.72" y="90.584885" style="stroke: #000000; stroke-width: 0.8"/>
      </g>
     </g>
     <g id="text_10">
      <!-- 0.6 -->
      <g transform="translate(38.0575 96.264885) scale(0.16 -0.16)">
       <use xlink:href="#Bahnschrift-30"/>
       <use xlink:href="#Bahnschrift-2e" x="55.175781"/>
       <use xlink:href="#Bahnschrift-36" x="77.832031"/>
      </g>
     </g>
    </g>
    <g id="ytick_5">
     <g id="line2d_10">
      <g>
       <use xlink:href="#m8e9cd880fb" x="65.72" y="47.958018" style="stroke: #000000; stroke-width: 0.8"/>
      </g>
     </g>
     <g id="text_11">
      <!-- 0.8 -->
      <g transform="translate(37.2675 53.638018) scale(0.16 -0.16)">
       <use xlink:href="#Bahnschrift-30"/>
       <use xlink:href="#Bahnschrift-2e" x="55.175781"/>
       <use xlink:href="#Bahnschrift-38" x="77.832031"/>
      </g>
     </g>
    </g>
    <g id="text_12">
     <!-- Gene Frequency -->
     <g transform="translate(29.7825 180.57) rotate(-90) scale(0.16 -0.16)">
      <defs>
       <path id="Bahnschrift-65" d="M 1828 -47 
Q 1150 -47 778 331 
Q 406 709 406 1406 
L 406 1772 
Q 406 2497 764 2894 
Q 1122 3291 1772 3291 
Q 2384 3291 2720 2841 
Q 3056 2391 3056 1578 
L 3056 1366 
L 869 1366 
L 869 1878 
L 2450 1878 
L 2450 1878 
Q 2422 2272 2245 2494 
Q 2069 2716 1772 2716 
Q 1413 2716 1213 2478 
Q 1013 2241 1013 1806 
L 1013 1394 
Q 1013 991 1227 775 
Q 1441 559 1828 559 
Q 2022 559 2212 637 
Q 2403 716 2553 856 
L 2553 856 
L 2972 438 
L 2972 438 
Q 2731 206 2431 79 
Q 2131 -47 1828 -47 
z
" transform="scale(0.015625)"/>
       <path id="Bahnschrift-6e" d="M 500 0 
L 500 3244 
L 1138 3244 
L 1138 0 
L 500 0 
z
M 2469 0 
L 2469 1966 
Q 2469 2309 2292 2496 
Q 2116 2684 1791 2684 
Q 1478 2684 1308 2518 
Q 1138 2353 1138 2053 
L 1072 2678 
Q 1222 2972 1464 3131 
Q 1706 3291 2000 3291 
Q 2528 3291 2817 2945 
Q 3106 2600 3106 1969 
L 3106 0 
L 2469 0 
z
" transform="scale(0.015625)"/>
       <path id="Bahnschrift-72" d="M 500 0 
L 500 3244 
L 1138 3244 
L 1138 0 
L 500 0 
z
M 2284 2475 
Q 2200 2578 2072 2631 
Q 1944 2684 1775 2684 
Q 1472 2684 1305 2517 
Q 1138 2350 1138 2053 
L 1072 2678 
Q 1219 2966 1458 3128 
Q 1697 3291 1984 3291 
Q 2206 3291 2386 3227 
Q 2566 3163 2700 3038 
L 2284 2475 
z
" transform="scale(0.015625)"/>
       <path id="Bahnschrift-71" d="M 2344 -1319 
L 2344 3244 
L 2981 3244 
L 2981 -1319 
L 2344 -1319 
z
M 1528 -56 
Q 991 -56 698 289 
Q 406 634 406 1263 
L 406 1978 
Q 406 2609 692 2954 
Q 978 3300 1497 3300 
Q 1784 3300 2023 3150 
Q 2263 3000 2409 2728 
L 2344 2066 
Q 2344 2272 2269 2419 
Q 2194 2566 2051 2642 
Q 1909 2719 1706 2719 
Q 1391 2719 1217 2522 
Q 1044 2325 1044 1969 
L 1044 1263 
Q 1044 909 1217 717 
Q 1391 525 1706 525 
Q 1909 525 2051 604 
Q 2194 684 2269 834 
Q 2344 984 2344 1194 
L 2388 509 
Q 2300 291 2086 117 
Q 1872 -56 1528 -56 
z
" transform="scale(0.015625)"/>
       <path id="Bahnschrift-75" d="M 2456 0 
L 2456 3244 
L 3091 3244 
L 3091 0 
L 2456 0 
z
M 1138 3244 
L 1138 1272 
Q 1138 931 1311 745 
Q 1484 559 1800 559 
Q 2116 559 2286 726 
Q 2456 894 2456 1197 
L 2500 519 
Q 2413 300 2194 126 
Q 1975 -47 1622 -47 
Q 1084 -47 792 298 
Q 500 644 500 1272 
L 500 3244 
L 1138 3244 
z
" transform="scale(0.015625)"/>
       <path id="Bahnschrift-63" d="M 1809 -47 
Q 1141 -47 773 322 
Q 406 691 406 1363 
L 406 1897 
Q 406 2563 773 2927 
Q 1141 3291 1809 3291 
Q 2191 3291 2497 3156 
Q 2803 3022 2984 2772 
L 2984 2772 
L 2525 2359 
L 2525 2359 
Q 2391 2516 2206 2600 
Q 2022 2684 1819 2684 
Q 1450 2684 1247 2478 
Q 1044 2272 1044 1897 
L 1044 1363 
Q 1044 978 1247 768 
Q 1450 559 1819 559 
Q 2022 559 2206 650 
Q 2391 741 2525 906 
L 2525 906 
L 2984 463 
L 2984 463 
Q 2803 219 2495 86 
Q 2188 -47 1809 -47 
z
" transform="scale(0.015625)"/>
       <path id="Bahnschrift-79" d="M 2378 3244 
L 3028 3244 
L 1647 -759 
Q 1531 -1094 1312 -1223 
Q 1094 -1353 713 -1353 
L 584 -1353 
L 584 -741 
L 713 -741 
Q 891 -741 995 -669 
Q 1100 -597 1178 -422 
L 2378 3244 
z
M 1450 -266 
L 156 3244 
L 806 3244 
L 1803 425 
L 1450 -266 
z
" transform="scale(0.015625)"/>
      </defs>
      <use xlink:href="#Bahnschrift-47"/>
      <use xlink:href="#Bahnschrift-65" x="64.648438"/>
      <use xlink:href="#Bahnschrift-6e" x="118.261719"/>
      <use xlink:href="#Bahnschrift-65" x="174.121094"/>
      <use xlink:href="#Bahnschrift-20" x="227.734375"/>
      <use xlink:href="#Bahnschrift-46" x="254.589844"/>
      <use xlink:href="#Bahnschrift-72" x="310.498047"/>
      <use xlink:href="#Bahnschrift-65" x="353.173828"/>
      <use xlink:href="#Bahnschrift-71" x="406.787109"/>
      <use xlink:href="#Bahnschrift-75" x="460.693359"/>
      <use xlink:href="#Bahnschrift-65" x="516.308594"/>
      <use xlink:href="#Bahnschrift-6e" x="569.921875"/>
      <use xlink:href="#Bahnschrift-63" x="625.78125"/>
      <use xlink:href="#Bahnschrift-79" x="675.585938"/>
     </g>
    </g>
   </g>
   <g id="line2d_11">
    <path d="M 88.129091 171.757079 
L 137.927071 193.443125 
L 187.725051 200.431351 
L 237.52303 203.67186 
L 287.32101 205.315596 
L 337.11899 206.012938 
L 386.91697 205.908295 
L 436.714949 204.731058 
L 486.512929 201.024943 
L 536.310909 179.224267 
" clip-path="url(#p379bbb9597)" style="fill: none; stroke: #5dc694; stroke-width: 1.5; stroke-linecap: square"/>
   </g>
   <g id="line2d_12">
    <path d="M 88.129091 183.717966 
L 137.927071 215.821429 
L 187.725051 213.337703 
L 237.52303 213.960977 
L 287.32101 214.613055 
L 337.11899 214.759851 
L 386.91697 215.284567 
L 436.714949 214.49194 
L 486.512929 190.248807 
L 536.310909 95.284217 
" clip-path="url(#p379bbb9597)" style="fill: none; stroke: #204e66; stroke-width: 1.5; stroke-linecap: square"/>
   </g>
   <g id="line2d_13">
    <path d="M 88.129091 208.27356 
L 137.927071 218.428359 
L 187.725051 218.459578 
L 237.52303 218.46 
L 287.32101 218.459156 
L 337.11899 218.459578 
L 386.91697 218.456203 
L 436.714949 218.190837 
L 486.512929 207.473242 
L 536.310909 26.86 
" clip-path="url(#p379bbb9597)" style="fill: none; stroke: #2398ff; stroke-width: 1.5; stroke-linecap: square"/>
   </g>
   <g id="patch_3">
    <path d="M 65.72 228.04 
L 65.72 17.28 
" style="fill: none; stroke: #000000; stroke-width: 0.8; stroke-linejoin: miter; stroke-linecap: square"/>
   </g>
   <g id="patch_4">
    <path d="M 558.72 228.04 
L 558.72 17.28 
" style="fill: none; stroke: #000000; stroke-width: 0.8; stroke-linejoin: miter; stroke-linecap: square"/>
   </g>
   <g id="patch_5">
    <path d="M 65.72 228.04 
L 558.72 228.04 
" style="fill: none; stroke: #000000; stroke-width: 0.8; stroke-linejoin: miter; stroke-linecap: square"/>
   </g>
   <g id="patch_6">
    <path d="M 65.72 17.28 
L 558.72 17.28 
" style="fill: none; stroke: #000000; stroke-width: 0.8; stroke-linejoin: miter; stroke-linecap: square"/>
   </g>
   <g id="legend_1">
    <g id="patch_7">
     <path d="M 76.92 98.4725 
L 208.8225 98.4725 
Q 212.0225 98.4725 212.0225 95.2725 
L 212.0225 28.48 
Q 212.0225 25.28 208.8225 25.28 
L 76.92 25.28 
Q 73.72 25.28 73.72 28.48 
L 73.72 95.2725 
Q 73.72 98.4725 76.92 98.4725 
z
" style="fill: #ffffff; opacity: 0.8; stroke: #cccccc; stroke-linejoin: miter"/>
    </g>
    <g id="line2d_14">
     <path d="M 80.12 37.58 
L 96.12 37.58 
L 112.12 37.58 
" style="fill: none; stroke: #5dc694; stroke-width: 1.5; stroke-linecap: square"/>
    </g>
    <g id="text_13">
     <!-- γ = 0 -->
     <g transform="translate(124.92 43.18) scale(0.16 -0.16)">
      <defs>
       <path id="Bahnschrift-3b3" d="M 1413 -1319 
L 1413 38 
Q 1413 119 1398 195 
Q 1384 272 1356 347 
L 572 2438 
Q 525 2563 456 2623 
Q 388 2684 294 2684 
L 156 2684 
L 156 3291 
L 450 3291 
Q 694 3291 873 3073 
Q 1053 2856 1206 2431 
L 1978 306 
L 2050 419 
L 2050 -1319 
L 1413 -1319 
z
M 1988 -122 
L 1522 222 
L 2525 3244 
L 3191 3244 
L 1988 -122 
z
" transform="scale(0.015625)"/>
       <path id="Bahnschrift-3d" d="M 438 2288 
L 438 2894 
L 2531 2894 
L 2531 2288 
L 438 2288 
z
M 438 1269 
L 438 1875 
L 2531 1875 
L 2531 1269 
L 438 1269 
z
" transform="scale(0.015625)"/>
      </defs>
      <use xlink:href="#Bahnschrift-3b3"/>
      <use xlink:href="#Bahnschrift-20" x="51.806641"/>
      <use xlink:href="#Bahnschrift-3d" x="78.662109"/>
      <use xlink:href="#Bahnschrift-20" x="124.560547"/>
      <use xlink:href="#Bahnschrift-30" x="151.416016"/>
     </g>
    </g>
    <g id="line2d_15">
     <path d="M 80.12 60.3775 
L 96.12 60.3775 
L 112.12 60.3775 
" style="fill: none; stroke: #204e66; stroke-width: 1.5; stroke-linecap: square"/>
    </g>
    <g id="text_14">
     <!-- γ = 0.00005 -->
     <g transform="translate(124.92 65.9775) scale(0.16 -0.16)">
      <defs>
       <path id="Bahnschrift-35" d="M 1738 -47 
Q 1219 -47 886 251 
Q 553 550 469 1094 
L 469 1097 
L 1106 1097 
L 1106 1094 
Q 1141 844 1306 705 
Q 1472 566 1738 566 
Q 2044 566 2211 770 
Q 2378 975 2378 1347 
L 2378 1728 
Q 2378 2100 2211 2303 
Q 2044 2506 1738 2506 
Q 1572 2506 1419 2412 
Q 1266 2319 1150 2150 
L 569 2150 
L 569 4544 
L 2884 4544 
L 2884 3938 
L 1206 3938 
L 1206 2916 
Q 1325 3013 1472 3066 
Q 1619 3119 1772 3119 
Q 2366 3119 2691 2755 
Q 3016 2391 3016 1728 
L 3016 1347 
Q 3016 681 2681 317 
Q 2347 -47 1738 -47 
z
" transform="scale(0.015625)"/>
      </defs>
      <use xlink:href="#Bahnschrift-3b3"/>
      <use xlink:href="#Bahnschrift-20" x="51.806641"/>
      <use xlink:href="#Bahnschrift-3d" x="78.662109"/>
      <use xlink:href="#Bahnschrift-20" x="124.560547"/>
      <use xlink:href="#Bahnschrift-30" x="151.416016"/>
      <use xlink:href="#Bahnschrift-2e" x="206.591797"/>
      <use xlink:href="#Bahnschrift-30" x="229.248047"/>
      <use xlink:href="#Bahnschrift-30" x="284.423828"/>
      <use xlink:href="#Bahnschrift-30" x="339.599609"/>
      <use xlink:href="#Bahnschrift-30" x="394.775391"/>
      <use xlink:href="#Bahnschrift-35" x="449.951172"/>
     </g>
    </g>
    <g id="line2d_16">
     <path d="M 80.12 83.175 
L 96.12 83.175 
L 112.12 83.175 
" style="fill: none; stroke: #2398ff; stroke-width: 1.5; stroke-linecap: square"/>
    </g>
    <g id="text_15">
     <!-- γ = 0.00050 -->
     <g transform="translate(124.92 88.775) scale(0.16 -0.16)">
      <use xlink:href="#Bahnschrift-3b3"/>
      <use xlink:href="#Bahnschrift-20" x="51.806641"/>
      <use xlink:href="#Bahnschrift-3d" x="78.662109"/>
      <use xlink:href="#Bahnschrift-20" x="124.560547"/>
      <use xlink:href="#Bahnschrift-30" x="151.416016"/>
      <use xlink:href="#Bahnschrift-2e" x="206.591797"/>
      <use xlink:href="#Bahnschrift-30" x="229.248047"/>
      <use xlink:href="#Bahnschrift-30" x="284.423828"/>
      <use xlink:href="#Bahnschrift-30" x="339.599609"/>
      <use xlink:href="#Bahnschrift-35" x="394.775391"/>
      <use xlink:href="#Bahnschrift-30" x="449.21875"/>
     </g>
    </g>
   </g>
  </g>
 </g>
 <defs>
  <clipPath id="p379bbb9597">
   <rect x="65.72" y="17.28" width="493" height="210.76"/>
  </clipPath>
 </defs>
</svg>
