<?xml version="1.0" encoding="utf-8" standalone="no"?>
<!DOCTYPE svg PUBLIC "-//W3C//DTD SVG 1.1//EN"
  "http://www.w3.org/Graphics/SVG/1.1/DTD/svg11.dtd">
<svg xmlns:xlink="http://www.w3.org/1999/xlink" width="576pt" height="288pt" viewBox="0 0 576 288" xmlns="http://www.w3.org/2000/svg" version="1.1">
 <metadata>
  <rdf:RDF xmlns:dc="http://purl.org/dc/elements/1.1/" xmlns:cc="http://creativecommons.org/ns#" xmlns:rdf="http://www.w3.org/1999/02/22-rdf-syntax-ns#">
   <cc:Work>
    <dc:type rdf:resource="http://purl.org/dc/dcmitype/StillImage"/>
    <dc:date>2024-05-29T21:43:40.569125</dc:date>
    <dc:format>image/svg+xml</dc:format>
    <dc:creator>
     <cc:Agent>
      <dc:title>Matplotlib v3.8.2, https://matplotlib.org/</dc:title>
     </cc:Agent>
    </dc:creator>
   </cc:Work>
  </rdf:RDF>
 </metadata>
 <defs>
  <style type="text/css">*{stroke-linejoin: round; stroke-linecap: butt}</style>
 </defs>
 <g id="figure_1">
  <g id="patch_1">
   <path d="M 0 288 
L 576 288 
L 576 0 
L 0 0 
z
" style="fill: #ffffff"/>
  </g>
  <g id="axes_1">
   <g id="patch_2">
    <path d="M 87.68 228.04 
L 555.160909 228.04 
L 555.160909 17.28 
L 87.68 17.28 
z
" style="fill: #ffffff"/>
   </g>
   <g id="matplotlib.axis_1">
    <g id="xtick_1">
     <g id="line2d_1">
      <defs>
       <path id="mef9bf17c74" d="M 0 0 
L 0 3.5 
" style="stroke: #000000; stroke-width: 0.8"/>
      </defs>
      <g>
       <use xlink:href="#mef9bf17c74" x="108.929132" y="228.04" style="stroke: #000000; stroke-width: 0.8"/>
      </g>
     </g>
     <g id="text_1">
      <!-- 0.0000 -->
      <g transform="translate(85.047882 246.4) scale(0.16 -0.16)">
       <defs>
        <path id="Bahnschrift-30" d="M 1766 -47 
Q 1116 -47 792 301 
Q 469 650 469 1244 
L 469 3309 
Q 469 3913 797 4256 
Q 1125 4600 1766 4600 
Q 2409 4600 2736 4258 
Q 3063 3916 3063 3309 
L 3063 1244 
Q 3063 641 2736 297 
Q 2409 -47 1766 -47 
z
M 1766 559 
Q 2116 559 2270 742 
Q 2425 925 2425 1244 
L 2425 3309 
Q 2425 3631 2270 3812 
Q 2116 3994 1766 3994 
Q 1416 3994 1261 3812 
Q 1106 3631 1106 3309 
L 1106 1244 
Q 1106 925 1261 742 
Q 1416 559 1766 559 
z
" transform="scale(0.015625)"/>
        <path id="Bahnschrift-2e" d="M 391 0 
L 391 669 
L 1059 669 
L 1059 0 
L 391 0 
z
" transform="scale(0.015625)"/>
       </defs>
       <use xlink:href="#Bahnschrift-30"/>
       <use xlink:href="#Bahnschrift-2e" x="55.175781"/>
       <use xlink:href="#Bahnschrift-30" x="77.832031"/>
       <use xlink:href="#Bahnschrift-30" x="133.007812"/>
       <use xlink:href="#Bahnschrift-30" x="188.183594"/>
       <use xlink:href="#Bahnschrift-30" x="243.359375"/>
      </g>
     </g>
    </g>
    <g id="xtick_2">
     <g id="line2d_2">
      <g>
       <use xlink:href="#mef9bf17c74" x="193.925661" y="228.04" style="stroke: #000000; stroke-width: 0.8"/>
      </g>
     </g>
     <g id="text_2">
      <!-- 0.0001 -->
      <g transform="translate(171.798161 246.4) scale(0.16 -0.16)">
       <defs>
        <path id="Bahnschrift-31" d="M 1566 4544 
L 1566 0 
L 928 0 
L 928 3850 
L 281 3453 
L 281 4113 
L 928 4544 
L 1566 4544 
z
" transform="scale(0.015625)"/>
       </defs>
       <use xlink:href="#Bahnschrift-30"/>
       <use xlink:href="#Bahnschrift-2e" x="55.175781"/>
       <use xlink:href="#Bahnschrift-30" x="77.832031"/>
       <use xlink:href="#Bahnschrift-30" x="133.007812"/>
       <use xlink:href="#Bahnschrift-30" x="188.183594"/>
       <use xlink:href="#Bahnschrift-31" x="243.359375"/>
      </g>
     </g>
    </g>
    <g id="xtick_3">
     <g id="line2d_3">
      <g>
       <use xlink:href="#mef9bf17c74" x="278.92219" y="228.04" style="stroke: #000000; stroke-width: 0.8"/>
      </g>
     </g>
     <g id="text_3">
      <!-- 0.0002 -->
      <g transform="translate(255.32219 246.4) scale(0.16 -0.16)">
       <defs>
        <path id="Bahnschrift-32" d="M 400 0 
L 400 553 
L 1984 2666 
Q 2122 2847 2198 3040 
Q 2275 3234 2275 3406 
L 2275 3413 
Q 2275 3684 2115 3834 
Q 1956 3984 1663 3984 
Q 1388 3984 1214 3820 
Q 1041 3656 1003 3356 
L 1003 3353 
L 344 3353 
L 344 3356 
Q 428 3944 772 4267 
Q 1116 4591 1656 4591 
Q 2269 4591 2603 4281 
Q 2938 3972 2938 3406 
L 2938 3403 
Q 2938 3163 2838 2898 
Q 2738 2634 2559 2394 
L 1244 606 
L 2963 606 
L 2963 0 
L 400 0 
z
" transform="scale(0.015625)"/>
       </defs>
       <use xlink:href="#Bahnschrift-30"/>
       <use xlink:href="#Bahnschrift-2e" x="55.175781"/>
       <use xlink:href="#Bahnschrift-30" x="77.832031"/>
       <use xlink:href="#Bahnschrift-30" x="133.007812"/>
       <use xlink:href="#Bahnschrift-30" x="188.183594"/>
       <use xlink:href="#Bahnschrift-32" x="243.359375"/>
      </g>
     </g>
    </g>
    <g id="xtick_4">
     <g id="line2d_4">
      <g>
       <use xlink:href="#mef9bf17c74" x="363.918719" y="228.04" style="stroke: #000000; stroke-width: 0.8"/>
      </g>
     </g>
     <g id="text_4">
      <!-- 0.0003 -->
      <g transform="translate(340.221219 246.4) scale(0.16 -0.16)">
       <defs>
        <path id="Bahnschrift-33" d="M 1644 -47 
Q 1259 -47 970 92 
Q 681 231 506 493 
Q 331 756 281 1131 
L 281 1131 
L 931 1131 
L 931 1131 
Q 975 838 1162 702 
Q 1350 566 1644 566 
Q 1959 566 2134 734 
Q 2309 903 2309 1209 
L 2309 1347 
Q 2309 1688 2143 1873 
Q 1978 2059 1675 2059 
L 1353 2059 
L 1353 2666 
L 1675 2666 
Q 1944 2666 2089 2825 
Q 2234 2984 2234 3275 
L 2234 3416 
Q 2234 3684 2079 3831 
Q 1925 3978 1641 3978 
Q 1400 3978 1233 3842 
Q 1066 3706 1003 3413 
L 1003 3413 
L 356 3413 
L 356 3413 
Q 453 3975 789 4283 
Q 1125 4591 1641 4591 
Q 2228 4591 2550 4281 
Q 2872 3972 2872 3409 
L 2872 3334 
Q 2872 2994 2687 2742 
Q 2503 2491 2166 2372 
Q 2538 2294 2742 2008 
Q 2947 1722 2947 1281 
L 2947 1206 
Q 2947 609 2606 281 
Q 2266 -47 1644 -47 
z
" transform="scale(0.015625)"/>
       </defs>
       <use xlink:href="#Bahnschrift-30"/>
       <use xlink:href="#Bahnschrift-2e" x="55.175781"/>
       <use xlink:href="#Bahnschrift-30" x="77.832031"/>
       <use xlink:href="#Bahnschrift-30" x="133.007812"/>
       <use xlink:href="#Bahnschrift-30" x="188.183594"/>
       <use xlink:href="#Bahnschrift-33" x="243.359375"/>
      </g>
     </g>
    </g>
    <g id="xtick_5">
     <g id="line2d_5">
      <g>
       <use xlink:href="#mef9bf17c74" x="448.915248" y="228.04" style="stroke: #000000; stroke-width: 0.8"/>
      </g>
     </g>
     <g id="text_5">
      <!-- 0.0004 -->
      <g transform="translate(424.896498 246.4) scale(0.16 -0.16)">
       <defs>
        <path id="Bahnschrift-34" d="M 406 697 
L 406 1250 
L 1931 4541 
L 2588 4541 
L 1100 1288 
L 3328 1288 
L 3328 697 
L 406 697 
z
M 2366 -3 
L 2366 2672 
L 2988 2672 
L 2988 -3 
L 2366 -3 
z
" transform="scale(0.015625)"/>
       </defs>
       <use xlink:href="#Bahnschrift-30"/>
       <use xlink:href="#Bahnschrift-2e" x="55.175781"/>
       <use xlink:href="#Bahnschrift-30" x="77.832031"/>
       <use xlink:href="#Bahnschrift-30" x="133.007812"/>
       <use xlink:href="#Bahnschrift-30" x="188.183594"/>
       <use xlink:href="#Bahnschrift-34" x="243.359375"/>
      </g>
     </g>
    </g>
    <g id="xtick_6">
     <g id="line2d_6">
      <g>
       <use xlink:href="#mef9bf17c74" x="533.911777" y="228.04" style="stroke: #000000; stroke-width: 0.8"/>
      </g>
     </g>
     <g id="text_6">
      <!-- 0.0005 -->
      <g transform="translate(510.089277 246.4) scale(0.16 -0.16)">
       <defs>
        <path id="Bahnschrift-35" d="M 1738 -47 
Q 1219 -47 886 251 
Q 553 550 469 1094 
L 469 1097 
L 1106 1097 
L 1106 1094 
Q 1141 844 1306 705 
Q 1472 566 1738 566 
Q 2044 566 2211 770 
Q 2378 975 2378 1347 
L 2378 1728 
Q 2378 2100 2211 2303 
Q 2044 2506 1738 2506 
Q 1572 2506 1419 2412 
Q 1266 2319 1150 2150 
L 569 2150 
L 569 4544 
L 2884 4544 
L 2884 3938 
L 1206 3938 
L 1206 2916 
Q 1325 3013 1472 3066 
Q 1619 3119 1772 3119 
Q 2366 3119 2691 2755 
Q 3016 2391 3016 1728 
L 3016 1347 
Q 3016 681 2681 317 
Q 2347 -47 1738 -47 
z
" transform="scale(0.015625)"/>
       </defs>
       <use xlink:href="#Bahnschrift-30"/>
       <use xlink:href="#Bahnschrift-2e" x="55.175781"/>
       <use xlink:href="#Bahnschrift-30" x="77.832031"/>
       <use xlink:href="#Bahnschrift-30" x="133.007812"/>
       <use xlink:href="#Bahnschrift-30" x="188.183594"/>
       <use xlink:href="#Bahnschrift-35" x="243.359375"/>
      </g>
     </g>
    </g>
    <g id="text_7">
     <!-- HGT Rate -->
     <g transform="translate(288.446705 265.0575) scale(0.16 -0.16)">
      <defs>
       <path id="Bahnschrift-48" d="M 3144 0 
L 3144 4544 
L 3781 4544 
L 3781 0 
L 3144 0 
z
M 563 0 
L 563 4544 
L 1200 4544 
L 1200 0 
L 563 0 
z
M 959 1934 
L 959 2541 
L 3481 2541 
L 3481 1934 
L 959 1934 
z
" transform="scale(0.015625)"/>
       <path id="Bahnschrift-47" d="M 2094 2447 
L 3669 2447 
L 3669 1653 
Q 3669 1141 3470 758 
Q 3272 375 2915 164 
Q 2559 -47 2078 -47 
Q 1594 -47 1231 151 
Q 869 350 669 711 
Q 469 1072 469 1553 
L 469 2894 
Q 469 3406 667 3787 
Q 866 4169 1222 4380 
Q 1578 4591 2059 4591 
Q 2456 4591 2782 4422 
Q 3109 4253 3331 3950 
Q 3553 3647 3631 3241 
L 3631 3241 
L 2941 3241 
L 2941 3241 
Q 2853 3594 2600 3781 
Q 2347 3969 2059 3969 
Q 1634 3969 1378 3673 
Q 1122 3378 1122 2894 
L 1122 1553 
Q 1122 1109 1384 842 
Q 1647 575 2078 575 
Q 2503 575 2759 856 
Q 3016 1138 3016 1641 
L 3016 1838 
L 2094 1838 
L 2094 2447 
z
" transform="scale(0.015625)"/>
       <path id="Bahnschrift-54" d="M 1222 0 
L 1222 4172 
L 1859 4172 
L 1859 0 
L 1222 0 
z
M -63 3938 
L -63 4544 
L 3144 4544 
L 3144 3938 
L -63 3938 
z
" transform="scale(0.015625)"/>
       <path id="Bahnschrift-20" transform="scale(0.015625)"/>
       <path id="Bahnschrift-52" d="M 841 1922 
L 841 2528 
L 2391 2528 
Q 2669 2528 2837 2722 
Q 3006 2916 3006 3234 
L 3006 3234 
Q 3006 3553 2837 3747 
Q 2669 3941 2391 3941 
L 841 3941 
L 841 4547 
L 2366 4547 
Q 2763 4547 3059 4383 
Q 3356 4219 3520 3925 
Q 3684 3631 3684 3234 
L 3684 3234 
Q 3684 2841 3518 2545 
Q 3353 2250 3058 2086 
Q 2763 1922 2366 1922 
L 841 1922 
z
M 563 0 
L 563 4547 
L 1200 4547 
L 1200 0 
L 563 0 
z
M 3119 0 
L 2078 2063 
L 2713 2206 
L 3875 0 
L 3119 0 
z
" transform="scale(0.015625)"/>
       <path id="Bahnschrift-61" d="M 2331 0 
L 2331 2056 
Q 2331 2375 2161 2551 
Q 1991 2728 1678 2728 
Q 1488 2728 1302 2670 
Q 1116 2613 969 2503 
L 503 2822 
Q 688 3044 989 3167 
Q 1291 3291 1659 3291 
Q 2269 3291 2603 2975 
Q 2938 2659 2938 2084 
L 2938 0 
L 2331 0 
z
M 1538 -47 
Q 941 -47 642 200 
Q 344 447 344 956 
Q 344 1441 617 1680 
Q 891 1919 1438 1919 
L 2359 1919 
L 2403 1406 
L 1441 1406 
Q 1194 1406 1069 1295 
Q 944 1184 944 956 
Q 944 709 1109 590 
Q 1275 472 1606 472 
Q 1969 472 2150 550 
Q 2331 628 2331 794 
L 2397 338 
Q 2313 206 2188 122 
Q 2063 38 1902 -4 
Q 1741 -47 1538 -47 
z
" transform="scale(0.015625)"/>
       <path id="Bahnschrift-74" d="M 1344 -16 
Q 944 -16 764 206 
Q 584 428 584 844 
L 584 4188 
L 1222 4188 
L 1222 838 
Q 1222 722 1269 656 
Q 1316 591 1406 591 
L 1713 591 
L 1713 -16 
L 1344 -16 
z
M 250 2669 
L 250 3244 
L 1713 3244 
L 1713 2669 
L 250 2669 
z
" transform="scale(0.015625)"/>
       <path id="Bahnschrift-65" d="M 1828 -47 
Q 1150 -47 778 331 
Q 406 709 406 1406 
L 406 1772 
Q 406 2497 764 2894 
Q 1122 3291 1772 3291 
Q 2384 3291 2720 2841 
Q 3056 2391 3056 1578 
L 3056 1366 
L 869 1366 
L 869 1878 
L 2450 1878 
L 2450 1878 
Q 2422 2272 2245 2494 
Q 2069 2716 1772 2716 
Q 1413 2716 1213 2478 
Q 1013 2241 1013 1806 
L 1013 1394 
Q 1013 991 1227 775 
Q 1441 559 1828 559 
Q 2022 559 2212 637 
Q 2403 716 2553 856 
L 2553 856 
L 2972 438 
L 2972 438 
Q 2731 206 2431 79 
Q 2131 -47 1828 -47 
z
" transform="scale(0.015625)"/>
      </defs>
      <use xlink:href="#Bahnschrift-48"/>
      <use xlink:href="#Bahnschrift-47" x="67.871094"/>
      <use xlink:href="#Bahnschrift-54" x="132.519531"/>
      <use xlink:href="#Bahnschrift-20" x="180.664062"/>
      <use xlink:href="#Bahnschrift-52" x="207.519531"/>
      <use xlink:href="#Bahnschrift-61" x="272.705078"/>
      <use xlink:href="#Bahnschrift-74" x="325.927734"/>
      <use xlink:href="#Bahnschrift-65" x="358.544922"/>
     </g>
    </g>
   </g>
   <g id="matplotlib.axis_2">
    <g id="ytick_1">
     <g id="line2d_7">
      <defs>
       <path id="m62bc1bcf14" d="M 0 0 
L -3.5 0 
" style="stroke: #000000; stroke-width: 0.8"/>
      </defs>
      <g>
       <use xlink:href="#m62bc1bcf14" x="87.68" y="221.030138" style="stroke: #000000; stroke-width: 0.8"/>
      </g>
     </g>
     <g id="text_8">
      <!-- 0 -->
      <g transform="translate(71.8525 226.710138) scale(0.16 -0.16)">
       <use xlink:href="#Bahnschrift-30"/>
      </g>
     </g>
    </g>
    <g id="ytick_2">
     <g id="line2d_8">
      <g>
       <use xlink:href="#m62bc1bcf14" x="87.68" y="182.388865" style="stroke: #000000; stroke-width: 0.8"/>
      </g>
     </g>
     <g id="text_9">
      <!-- 5000 -->
      <g transform="translate(45.4875 188.068865) scale(0.16 -0.16)">
       <use xlink:href="#Bahnschrift-35"/>
       <use xlink:href="#Bahnschrift-30" x="54.443359"/>
       <use xlink:href="#Bahnschrift-30" x="109.619141"/>
       <use xlink:href="#Bahnschrift-30" x="164.794922"/>
      </g>
     </g>
    </g>
    <g id="ytick_3">
     <g id="line2d_9">
      <g>
       <use xlink:href="#m62bc1bcf14" x="87.68" y="143.747591" style="stroke: #000000; stroke-width: 0.8"/>
      </g>
     </g>
     <g id="text_10">
      <!-- 10000 -->
      <g transform="translate(40.05 149.427591) scale(0.16 -0.16)">
       <use xlink:href="#Bahnschrift-31"/>
       <use xlink:href="#Bahnschrift-30" x="33.251953"/>
       <use xlink:href="#Bahnschrift-30" x="88.427734"/>
       <use xlink:href="#Bahnschrift-30" x="143.603516"/>
       <use xlink:href="#Bahnschrift-30" x="198.779297"/>
      </g>
     </g>
    </g>
    <g id="ytick_4">
     <g id="line2d_10">
      <g>
       <use xlink:href="#m62bc1bcf14" x="87.68" y="105.106318" style="stroke: #000000; stroke-width: 0.8"/>
      </g>
     </g>
     <g id="text_11">
      <!-- 15000 -->
      <g transform="translate(40.1675 110.786318) scale(0.16 -0.16)">
       <use xlink:href="#Bahnschrift-31"/>
       <use xlink:href="#Bahnschrift-35" x="33.251953"/>
       <use xlink:href="#Bahnschrift-30" x="87.695312"/>
       <use xlink:href="#Bahnschrift-30" x="142.871094"/>
       <use xlink:href="#Bahnschrift-30" x="198.046875"/>
      </g>
     </g>
    </g>
    <g id="ytick_5">
     <g id="line2d_11">
      <g>
       <use xlink:href="#m62bc1bcf14" x="87.68" y="66.465044" style="stroke: #000000; stroke-width: 0.8"/>
      </g>
     </g>
     <g id="text_12">
      <!-- 20000 -->
      <g transform="translate(37.105 72.145044) scale(0.16 -0.16)">
       <use xlink:href="#Bahnschrift-32"/>
       <use xlink:href="#Bahnschrift-30" x="51.660156"/>
       <use xlink:href="#Bahnschrift-30" x="106.835938"/>
       <use xlink:href="#Bahnschrift-30" x="162.011719"/>
       <use xlink:href="#Bahnschrift-30" x="217.1875"/>
      </g>
     </g>
    </g>
    <g id="ytick_6">
     <g id="line2d_12">
      <g>
       <use xlink:href="#m62bc1bcf14" x="87.68" y="27.82377" style="stroke: #000000; stroke-width: 0.8"/>
      </g>
     </g>
     <g id="text_13">
      <!-- 25000 -->
      <g transform="translate(37.2225 33.50377) scale(0.16 -0.16)">
       <use xlink:href="#Bahnschrift-32"/>
       <use xlink:href="#Bahnschrift-35" x="51.660156"/>
       <use xlink:href="#Bahnschrift-30" x="106.103516"/>
       <use xlink:href="#Bahnschrift-30" x="161.279297"/>
       <use xlink:href="#Bahnschrift-30" x="216.455078"/>
      </g>
     </g>
    </g>
    <g id="text_14">
     <!-- Mean χ²-like error -->
     <g transform="translate(29.69 188.31875) rotate(-90) scale(0.16 -0.16)">
      <defs>
       <path id="Bahnschrift-4d" d="M 2494 1544 
L 3828 4544 
L 4425 4544 
L 4425 0 
L 3803 0 
L 3803 3403 
L 3834 3203 
L 2716 631 
L 2272 631 
L 1153 3141 
L 1184 3403 
L 1184 0 
L 563 0 
L 563 4544 
L 1159 4544 
L 2494 1544 
z
" transform="scale(0.015625)"/>
       <path id="Bahnschrift-6e" d="M 500 0 
L 500 3244 
L 1138 3244 
L 1138 0 
L 500 0 
z
M 2469 0 
L 2469 1966 
Q 2469 2309 2292 2496 
Q 2116 2684 1791 2684 
Q 1478 2684 1308 2518 
Q 1138 2353 1138 2053 
L 1072 2678 
Q 1222 2972 1464 3131 
Q 1706 3291 2000 3291 
Q 2528 3291 2817 2945 
Q 3106 2600 3106 1969 
L 3106 0 
L 2469 0 
z
" transform="scale(0.015625)"/>
       <path id="Bahnschrift-3c7" d="M 2753 -1366 
Q 2606 -1366 2481 -1303 
Q 2356 -1241 2253 -1111 
Q 2150 -981 2059 -788 
L 600 2438 
Q 547 2556 481 2620 
Q 416 2684 322 2684 
L 94 2684 
L 94 3291 
L 416 3291 
Q 566 3291 689 3228 
Q 813 3166 917 3037 
Q 1022 2909 1109 2713 
L 2569 -513 
Q 2622 -628 2703 -693 
Q 2784 -759 2972 -759 
L 3078 -759 
L 3078 -1366 
L 2753 -1366 
z
M 125 -1319 
L 1350 1141 
L 1688 594 
L 822 -1319 
L 125 -1319 
z
M 1897 784 
L 1559 1331 
L 2334 3244 
L 3031 3244 
L 1897 784 
z
" transform="scale(0.015625)"/>
       <path id="Bahnschrift-b2" d="M 378 2597 
L 378 3038 
L 800 3403 
Q 1050 3616 1122 3723 
Q 1194 3831 1194 3963 
L 1194 3963 
Q 1194 4125 1034 4125 
Q 947 4125 894 4070 
Q 841 4016 825 3906 
L 825 3906 
L 313 3906 
L 313 3906 
Q 334 4238 521 4402 
Q 709 4566 1013 4566 
Q 1366 4566 1542 4416 
Q 1719 4266 1719 3969 
L 1719 3966 
Q 1719 3803 1622 3659 
Q 1525 3516 1303 3297 
L 1063 3063 
L 1719 3063 
L 1719 2597 
L 378 2597 
z
" transform="scale(0.015625)"/>
       <path id="Bahnschrift-2d" d="M 500 1931 
L 2600 1931 
L 2600 1325 
L 500 1325 
L 500 1931 
z
" transform="scale(0.015625)"/>
       <path id="Bahnschrift-6c" d="M 1138 4544 
L 1138 838 
Q 1138 722 1189 656 
Q 1241 591 1334 591 
L 1634 591 
L 1634 -16 
L 1259 -16 
Q 900 -16 700 209 
Q 500 434 500 844 
L 500 4544 
L 1138 4544 
z
" transform="scale(0.015625)"/>
       <path id="Bahnschrift-69" d="M 500 3906 
L 500 4544 
L 1138 4544 
L 1138 3906 
L 500 3906 
z
M 500 0 
L 500 3244 
L 1138 3244 
L 1138 0 
L 500 0 
z
" transform="scale(0.015625)"/>
       <path id="Bahnschrift-6b" d="M 734 475 
L 775 1231 
L 2444 3244 
L 3194 3244 
L 734 475 
z
M 500 0 
L 500 4544 
L 1138 4544 
L 1138 0 
L 500 0 
z
M 2659 0 
L 1528 1872 
L 1938 2297 
L 3353 0 
L 2659 0 
z
" transform="scale(0.015625)"/>
       <path id="Bahnschrift-72" d="M 500 0 
L 500 3244 
L 1138 3244 
L 1138 0 
L 500 0 
z
M 2284 2475 
Q 2200 2578 2072 2631 
Q 1944 2684 1775 2684 
Q 1472 2684 1305 2517 
Q 1138 2350 1138 2053 
L 1072 2678 
Q 1219 2966 1458 3128 
Q 1697 3291 1984 3291 
Q 2206 3291 2386 3227 
Q 2566 3163 2700 3038 
L 2284 2475 
z
" transform="scale(0.015625)"/>
       <path id="Bahnschrift-6f" d="M 1744 -47 
Q 1106 -47 756 323 
Q 406 694 406 1366 
L 406 1894 
Q 406 2559 756 2925 
Q 1106 3291 1744 3291 
Q 2381 3291 2731 2925 
Q 3081 2559 3081 1894 
L 3081 1356 
Q 3081 688 2731 320 
Q 2381 -47 1744 -47 
z
M 1744 559 
Q 2078 559 2261 768 
Q 2444 978 2444 1356 
L 2444 1894 
Q 2444 2272 2261 2478 
Q 2078 2684 1744 2684 
Q 1413 2684 1228 2478 
Q 1044 2272 1044 1894 
L 1044 1356 
Q 1044 978 1228 768 
Q 1413 559 1744 559 
z
" transform="scale(0.015625)"/>
      </defs>
      <use xlink:href="#Bahnschrift-4d"/>
      <use xlink:href="#Bahnschrift-65" x="77.929688"/>
      <use xlink:href="#Bahnschrift-61" x="131.542969"/>
      <use xlink:href="#Bahnschrift-6e" x="184.765625"/>
      <use xlink:href="#Bahnschrift-20" x="240.625"/>
      <use xlink:href="#Bahnschrift-3c7" x="267.480469"/>
      <use xlink:href="#Bahnschrift-b2" x="318.017578"/>
      <use xlink:href="#Bahnschrift-2d" x="349.267578"/>
      <use xlink:href="#Bahnschrift-6c" x="397.216797"/>
      <use xlink:href="#Bahnschrift-69" x="426.171875"/>
      <use xlink:href="#Bahnschrift-6b" x="451.269531"/>
      <use xlink:href="#Bahnschrift-65" x="504.150391"/>
      <use xlink:href="#Bahnschrift-20" x="557.763672"/>
      <use xlink:href="#Bahnschrift-65" x="584.619141"/>
      <use xlink:href="#Bahnschrift-72" x="638.232422"/>
      <use xlink:href="#Bahnschrift-72" x="680.908203"/>
      <use xlink:href="#Bahnschrift-6f" x="723.583984"/>
      <use xlink:href="#Bahnschrift-72" x="778.076172"/>
     </g>
    </g>
   </g>
   <g id="line2d_13">
    <path d="M 108.929132 128.603948 
L 117.428785 124.855329 
L 125.928438 116.125391 
L 134.428091 107.70831 
L 142.927744 98.584802 
L 151.427397 88.777877 
L 159.92705 78.954967 
L 168.426702 69.075982 
L 176.926355 59.241721 
L 185.426008 49.29464 
L 193.925661 39.325673 
L 202.425314 33.216924 
L 210.924967 31.991319 
L 219.42462 30.560119 
L 227.924273 29.737915 
L 236.423926 29.619154 
L 244.923579 29.463996 
L 253.423231 29.477679 
L 261.922884 29.375275 
L 270.422537 29.436538 
L 278.92219 29.476742 
L 287.421843 29.362367 
L 295.921496 29.333249 
L 304.421149 29.125205 
L 312.920802 29.081561 
L 321.420455 28.896058 
L 329.920107 28.866369 
L 338.41976 28.785971 
L 346.919413 28.639323 
L 355.419066 28.47506 
L 363.918719 28.39304 
L 372.418372 28.224571 
L 380.918025 28.098248 
L 389.417678 28.084662 
L 397.917331 27.94169 
L 406.416983 27.937485 
L 414.916636 27.879122 
L 423.416289 27.709273 
L 431.915942 27.599183 
L 440.415595 27.515162 
L 448.915248 27.354159 
L 457.414901 27.364033 
L 465.914554 27.278772 
L 474.414207 27.282615 
L 482.91386 27.309001 
L 491.413512 27.249543 
L 499.913165 27.181598 
L 508.412818 27.079564 
L 516.912471 27.032353 
L 525.412124 26.913378 
L 533.911777 26.86 
" clip-path="url(#pcadb3825f2)" style="fill: none; stroke: #204e66; stroke-width: 1.5; stroke-linecap: square"/>
   </g>
   <g id="line2d_14">
    <path d="M 108.929132 131.820344 
L 117.428785 134.220403 
L 125.928438 137.591698 
L 134.428091 141.758244 
L 142.927744 147.103121 
L 151.427397 152.361464 
L 159.92705 159.014432 
L 168.426702 165.65205 
L 176.926355 172.551083 
L 185.426008 179.05599 
L 193.925661 186.590112 
L 202.425314 191.679421 
L 210.924967 195.908489 
L 219.42462 199.722398 
L 227.924273 202.302163 
L 236.423926 204.724738 
L 244.923579 206.049241 
L 253.423231 207.231564 
L 261.922884 208.34732 
L 270.422537 210.151661 
L 278.92219 210.859509 
L 287.421843 211.526942 
L 295.921496 212.117348 
L 304.421149 212.429663 
L 312.920802 212.889776 
L 321.420455 213.51442 
L 329.920107 213.969405 
L 338.41976 214.491739 
L 346.919413 214.901596 
L 355.419066 215.018255 
L 363.918719 215.273707 
L 372.418372 215.578221 
L 380.918025 215.889164 
L 389.417678 216.101746 
L 397.917331 216.304353 
L 406.416983 216.631451 
L 414.916636 216.828657 
L 423.416289 217.092541 
L 431.915942 217.283806 
L 440.415595 217.466745 
L 448.915248 217.552878 
L 457.414901 217.721803 
L 465.914554 217.865722 
L 474.414207 217.967248 
L 482.91386 218.04602 
L 491.413512 218.036862 
L 499.913165 218.10476 
L 508.412818 218.171672 
L 516.912471 218.212852 
L 525.412124 218.295901 
L 533.911777 218.46 
" clip-path="url(#pcadb3825f2)" style="fill: none; stroke: #5dc694; stroke-width: 1.5; stroke-linecap: square"/>
   </g>
   <g id="line2d_15">
    <path d="M 533.911777 228.04 
L 533.911777 17.28 
" clip-path="url(#pcadb3825f2)" style="fill: none; stroke-dasharray: 5.55,2.4; stroke-dashoffset: 0; stroke: #2398ff; stroke-width: 1.5"/>
   </g>
   <g id="patch_3">
    <path d="M 87.68 228.04 
L 87.68 17.28 
" style="fill: none; stroke: #000000; stroke-width: 0.8; stroke-linejoin: miter; stroke-linecap: square"/>
   </g>
   <g id="patch_4">
    <path d="M 555.160909 228.04 
L 555.160909 17.28 
" style="fill: none; stroke: #000000; stroke-width: 0.8; stroke-linejoin: miter; stroke-linecap: square"/>
   </g>
   <g id="patch_5">
    <path d="M 87.68 228.04 
L 555.160909 228.04 
" style="fill: none; stroke: #000000; stroke-width: 0.8; stroke-linejoin: miter; stroke-linecap: square"/>
   </g>
   <g id="patch_6">
    <path d="M 87.68 17.28 
L 555.160909 17.28 
" style="fill: none; stroke: #000000; stroke-width: 0.8; stroke-linejoin: miter; stroke-linecap: square"/>
   </g>
   <g id="legend_1">
    <g id="patch_7">
     <path d="M 196.701705 159.37 
L 446.139205 159.37 
Q 449.339205 159.37 449.339205 156.17 
L 449.339205 89.15 
Q 449.339205 85.95 446.139205 85.95 
L 196.701705 85.95 
Q 193.501705 85.95 193.501705 89.15 
L 193.501705 156.17 
Q 193.501705 159.37 196.701705 159.37 
z
" style="fill: #ffffff; opacity: 0.8; stroke: #cccccc; stroke-linejoin: miter"/>
    </g>
    <g id="line2d_16">
     <path d="M 199.901705 98.25 
L 215.901705 98.25 
L 231.901705 98.25 
" style="fill: none; stroke: #204e66; stroke-width: 1.5; stroke-linecap: square"/>
    </g>
    <g id="text_15">
     <!-- Against random tree, γ = 0. -->
     <g transform="translate(244.701705 103.85) scale(0.16 -0.16)">
      <defs>
       <path id="Bahnschrift-41" d="M 125 0 
L 1800 4544 
L 2344 4544 
L 4019 0 
L 3331 0 
L 2072 3666 
L 813 0 
L 125 0 
z
M 897 997 
L 897 1603 
L 3288 1603 
L 3288 997 
L 897 997 
z
" transform="scale(0.015625)"/>
       <path id="Bahnschrift-67" d="M 1588 -1319 
Q 1222 -1319 933 -1183 
Q 644 -1047 484 -800 
L 484 -800 
L 916 -409 
L 916 -409 
Q 1041 -581 1214 -675 
Q 1388 -769 1578 -769 
Q 1944 -769 2144 -567 
Q 2344 -366 2344 3 
L 2344 3244 
L 2981 3244 
L 2981 97 
Q 2981 -578 2617 -948 
Q 2253 -1319 1588 -1319 
z
M 1528 -56 
Q 991 -56 698 289 
Q 406 634 406 1263 
L 406 1978 
Q 406 2609 692 2954 
Q 978 3300 1497 3300 
Q 1784 3300 2023 3150 
Q 2263 3000 2409 2728 
L 2344 2066 
Q 2344 2272 2269 2419 
Q 2194 2566 2051 2642 
Q 1909 2719 1706 2719 
Q 1391 2719 1217 2522 
Q 1044 2325 1044 1969 
L 1044 1263 
Q 1044 909 1217 717 
Q 1391 525 1706 525 
Q 1909 525 2051 604 
Q 2194 684 2269 834 
Q 2344 984 2344 1194 
L 2388 509 
Q 2300 291 2086 117 
Q 1872 -56 1528 -56 
z
" transform="scale(0.015625)"/>
       <path id="Bahnschrift-73" d="M 1647 -47 
Q 1216 -47 864 79 
Q 513 206 234 459 
L 234 459 
L 613 925 
L 613 925 
Q 878 725 1136 625 
Q 1394 525 1647 525 
Q 2025 525 2214 642 
Q 2403 759 2403 994 
Q 2403 1175 2276 1250 
Q 2150 1325 1945 1348 
Q 1741 1372 1506 1388 
Q 1309 1403 1115 1436 
Q 922 1469 762 1555 
Q 603 1641 508 1809 
Q 413 1978 413 2263 
Q 413 2778 728 3034 
Q 1044 3291 1669 3291 
Q 2050 3291 2378 3187 
Q 2706 3084 2994 2872 
L 2994 2872 
L 2609 2406 
L 2609 2406 
Q 2366 2563 2130 2641 
Q 1894 2719 1669 2719 
Q 1344 2719 1181 2608 
Q 1019 2497 1019 2275 
Q 1019 2128 1131 2064 
Q 1244 2000 1428 1981 
Q 1613 1963 1825 1947 
Q 2028 1934 2236 1901 
Q 2444 1869 2619 1775 
Q 2794 1681 2900 1497 
Q 3006 1313 3006 994 
Q 3006 472 2667 212 
Q 2328 -47 1647 -47 
z
" transform="scale(0.015625)"/>
       <path id="Bahnschrift-64" d="M 2344 0 
L 2344 4544 
L 2981 4544 
L 2981 0 
L 2344 0 
z
M 1528 -56 
Q 991 -56 698 289 
Q 406 634 406 1263 
L 406 1978 
Q 406 2609 692 2954 
Q 978 3300 1497 3300 
Q 1784 3300 2023 3150 
Q 2263 3000 2409 2728 
L 2344 2066 
Q 2344 2272 2269 2419 
Q 2194 2566 2051 2642 
Q 1909 2719 1706 2719 
Q 1391 2719 1217 2522 
Q 1044 2325 1044 1969 
L 1044 1263 
Q 1044 909 1217 717 
Q 1391 525 1706 525 
Q 1909 525 2051 604 
Q 2194 684 2269 834 
Q 2344 984 2344 1194 
L 2388 509 
Q 2300 291 2086 117 
Q 1872 -56 1528 -56 
z
" transform="scale(0.015625)"/>
       <path id="Bahnschrift-6d" d="M 4375 0 
L 4375 1966 
Q 4375 2309 4198 2496 
Q 4022 2684 3697 2684 
Q 3400 2684 3237 2503 
Q 3075 2322 3075 1991 
L 2947 2616 
Q 3103 2941 3353 3116 
Q 3603 3291 3906 3291 
Q 4434 3291 4723 2945 
Q 5013 2600 5013 1969 
L 5013 0 
L 4375 0 
z
M 500 0 
L 500 3244 
L 1138 3244 
L 1138 0 
L 500 0 
z
M 2438 0 
L 2438 1966 
Q 2438 2309 2269 2496 
Q 2100 2684 1791 2684 
Q 1478 2684 1308 2518 
Q 1138 2353 1138 2053 
L 1072 2678 
Q 1222 2972 1464 3131 
Q 1706 3291 2000 3291 
Q 2513 3291 2794 2945 
Q 3075 2600 3075 1969 
L 3075 0 
L 2438 0 
z
" transform="scale(0.015625)"/>
       <path id="Bahnschrift-2c" d="M 391 -1038 
L 391 669 
L 1059 669 
L 1059 -344 
L 391 -1038 
z
" transform="scale(0.015625)"/>
       <path id="Bahnschrift-3b3" d="M 1413 -1319 
L 1413 38 
Q 1413 119 1398 195 
Q 1384 272 1356 347 
L 572 2438 
Q 525 2563 456 2623 
Q 388 2684 294 2684 
L 156 2684 
L 156 3291 
L 450 3291 
Q 694 3291 873 3073 
Q 1053 2856 1206 2431 
L 1978 306 
L 2050 419 
L 2050 -1319 
L 1413 -1319 
z
M 1988 -122 
L 1522 222 
L 2525 3244 
L 3191 3244 
L 1988 -122 
z
" transform="scale(0.015625)"/>
       <path id="Bahnschrift-3d" d="M 438 2288 
L 438 2894 
L 2531 2894 
L 2531 2288 
L 438 2288 
z
M 438 1269 
L 438 1875 
L 2531 1875 
L 2531 1269 
L 438 1269 
z
" transform="scale(0.015625)"/>
      </defs>
      <use xlink:href="#Bahnschrift-41"/>
      <use xlink:href="#Bahnschrift-67" x="64.746094"/>
      <use xlink:href="#Bahnschrift-61" x="118.652344"/>
      <use xlink:href="#Bahnschrift-69" x="171.875"/>
      <use xlink:href="#Bahnschrift-6e" x="196.972656"/>
      <use xlink:href="#Bahnschrift-73" x="252.832031"/>
      <use xlink:href="#Bahnschrift-74" x="304.6875"/>
      <use xlink:href="#Bahnschrift-20" x="337.304688"/>
      <use xlink:href="#Bahnschrift-72" x="364.160156"/>
      <use xlink:href="#Bahnschrift-61" x="406.835938"/>
      <use xlink:href="#Bahnschrift-6e" x="460.058594"/>
      <use xlink:href="#Bahnschrift-64" x="515.917969"/>
      <use xlink:href="#Bahnschrift-6f" x="569.824219"/>
      <use xlink:href="#Bahnschrift-6d" x="624.316406"/>
      <use xlink:href="#Bahnschrift-20" x="709.960938"/>
      <use xlink:href="#Bahnschrift-74" x="736.816406"/>
      <use xlink:href="#Bahnschrift-72" x="769.433594"/>
      <use xlink:href="#Bahnschrift-65" x="812.109375"/>
      <use xlink:href="#Bahnschrift-65" x="865.722656"/>
      <use xlink:href="#Bahnschrift-2c" x="919.335938"/>
      <use xlink:href="#Bahnschrift-20" x="941.992188"/>
      <use xlink:href="#Bahnschrift-3b3" x="968.847656"/>
      <use xlink:href="#Bahnschrift-20" x="1020.654297"/>
      <use xlink:href="#Bahnschrift-3d" x="1047.509766"/>
      <use xlink:href="#Bahnschrift-20" x="1093.408203"/>
      <use xlink:href="#Bahnschrift-30" x="1120.263672"/>
      <use xlink:href="#Bahnschrift-2e" x="1175.439453"/>
     </g>
    </g>
    <g id="line2d_17">
     <path d="M 199.901705 120.9075 
L 215.901705 120.9075 
L 231.901705 120.9075 
" style="fill: none; stroke: #5dc694; stroke-width: 1.5; stroke-linecap: square"/>
    </g>
    <g id="text_16">
     <!-- Against random, identical γ. -->
     <g transform="translate(244.701705 126.5075) scale(0.16 -0.16)">
      <defs>
       <path id="Bahnschrift-63" d="M 1809 -47 
Q 1141 -47 773 322 
Q 406 691 406 1363 
L 406 1897 
Q 406 2563 773 2927 
Q 1141 3291 1809 3291 
Q 2191 3291 2497 3156 
Q 2803 3022 2984 2772 
L 2984 2772 
L 2525 2359 
L 2525 2359 
Q 2391 2516 2206 2600 
Q 2022 2684 1819 2684 
Q 1450 2684 1247 2478 
Q 1044 2272 1044 1897 
L 1044 1363 
Q 1044 978 1247 768 
Q 1450 559 1819 559 
Q 2022 559 2206 650 
Q 2391 741 2525 906 
L 2525 906 
L 2984 463 
L 2984 463 
Q 2803 219 2495 86 
Q 2188 -47 1809 -47 
z
" transform="scale(0.015625)"/>
      </defs>
      <use xlink:href="#Bahnschrift-41"/>
      <use xlink:href="#Bahnschrift-67" x="64.746094"/>
      <use xlink:href="#Bahnschrift-61" x="118.652344"/>
      <use xlink:href="#Bahnschrift-69" x="171.875"/>
      <use xlink:href="#Bahnschrift-6e" x="196.972656"/>
      <use xlink:href="#Bahnschrift-73" x="252.832031"/>
      <use xlink:href="#Bahnschrift-74" x="304.6875"/>
      <use xlink:href="#Bahnschrift-20" x="337.304688"/>
      <use xlink:href="#Bahnschrift-72" x="364.160156"/>
      <use xlink:href="#Bahnschrift-61" x="406.835938"/>
      <use xlink:href="#Bahnschrift-6e" x="460.058594"/>
      <use xlink:href="#Bahnschrift-64" x="515.917969"/>
      <use xlink:href="#Bahnschrift-6f" x="569.824219"/>
      <use xlink:href="#Bahnschrift-6d" x="624.316406"/>
      <use xlink:href="#Bahnschrift-2c" x="709.960938"/>
      <use xlink:href="#Bahnschrift-20" x="732.617188"/>
      <use xlink:href="#Bahnschrift-69" x="759.472656"/>
      <use xlink:href="#Bahnschrift-64" x="784.570312"/>
      <use xlink:href="#Bahnschrift-65" x="838.476562"/>
      <use xlink:href="#Bahnschrift-6e" x="892.089844"/>
      <use xlink:href="#Bahnschrift-74" x="947.949219"/>
      <use xlink:href="#Bahnschrift-69" x="980.566406"/>
      <use xlink:href="#Bahnschrift-63" x="1005.664062"/>
      <use xlink:href="#Bahnschrift-61" x="1055.46875"/>
      <use xlink:href="#Bahnschrift-6c" x="1108.691406"/>
      <use xlink:href="#Bahnschrift-20" x="1137.646484"/>
      <use xlink:href="#Bahnschrift-3b3" x="1164.501953"/>
      <use xlink:href="#Bahnschrift-2e" x="1216.308594"/>
     </g>
    </g>
    <g id="line2d_18">
     <path d="M 199.901705 144.0725 
L 215.901705 144.0725 
L 231.901705 144.0725 
" style="fill: none; stroke-dasharray: 5.55,2.4; stroke-dashoffset: 0; stroke: #2398ff; stroke-width: 1.5"/>
    </g>
    <g id="text_17">
     <!-- Minimum: (0.0005, 25190) -->
     <g transform="translate(244.701705 149.6725) scale(0.16 -0.16)">
      <defs>
       <path id="Bahnschrift-75" d="M 2456 0 
L 2456 3244 
L 3091 3244 
L 3091 0 
L 2456 0 
z
M 1138 3244 
L 1138 1272 
Q 1138 931 1311 745 
Q 1484 559 1800 559 
Q 2116 559 2286 726 
Q 2456 894 2456 1197 
L 2500 519 
Q 2413 300 2194 126 
Q 1975 -47 1622 -47 
Q 1084 -47 792 298 
Q 500 644 500 1272 
L 500 3244 
L 1138 3244 
z
" transform="scale(0.015625)"/>
       <path id="Bahnschrift-3a" d="M 391 0 
L 391 669 
L 1059 669 
L 1059 0 
L 391 0 
z
M 391 2606 
L 391 3275 
L 1059 3275 
L 1059 2606 
L 391 2606 
z
" transform="scale(0.015625)"/>
       <path id="Bahnschrift-28" d="M 1672 -978 
Q 1116 -375 839 373 
Q 563 1122 563 2025 
Q 563 2928 839 3676 
Q 1116 4425 1672 5028 
L 2109 4631 
Q 1638 4106 1403 3456 
Q 1169 2806 1169 2025 
Q 1169 1244 1403 594 
Q 1638 -56 2109 -584 
L 1672 -978 
z
" transform="scale(0.015625)"/>
       <path id="Bahnschrift-39" d="M 934 0 
L 2078 2256 
L 2075 2144 
Q 1994 1997 1834 1931 
Q 1675 1866 1466 1866 
Q 975 1866 675 2230 
Q 375 2594 375 3197 
L 375 3200 
Q 375 3863 708 4227 
Q 1041 4591 1644 4591 
Q 2247 4591 2578 4223 
Q 2909 3856 2909 3184 
L 2909 3181 
Q 2909 2903 2828 2579 
Q 2747 2256 2591 1947 
L 1622 0 
L 934 0 
z
M 1644 2447 
Q 1944 2447 2108 2650 
Q 2272 2853 2272 3222 
L 2272 3225 
Q 2272 3584 2108 3781 
Q 1944 3978 1644 3978 
Q 1341 3978 1177 3781 
Q 1013 3584 1013 3222 
L 1013 3219 
Q 1013 2850 1177 2648 
Q 1341 2447 1644 2447 
z
" transform="scale(0.015625)"/>
       <path id="Bahnschrift-29" d="M 500 -978 
L 63 -584 
Q 534 -56 768 594 
Q 1003 1244 1003 2025 
Q 1003 2806 768 3456 
Q 534 4106 63 4631 
L 500 5028 
Q 1056 4425 1332 3676 
Q 1609 2928 1609 2025 
Q 1609 1122 1332 373 
Q 1056 -375 500 -978 
z
" transform="scale(0.015625)"/>
      </defs>
      <use xlink:href="#Bahnschrift-4d"/>
      <use xlink:href="#Bahnschrift-69" x="77.929688"/>
      <use xlink:href="#Bahnschrift-6e" x="103.027344"/>
      <use xlink:href="#Bahnschrift-69" x="158.886719"/>
      <use xlink:href="#Bahnschrift-6d" x="183.984375"/>
      <use xlink:href="#Bahnschrift-75" x="269.628906"/>
      <use xlink:href="#Bahnschrift-6d" x="325.244141"/>
      <use xlink:href="#Bahnschrift-3a" x="410.888672"/>
      <use xlink:href="#Bahnschrift-20" x="433.544922"/>
      <use xlink:href="#Bahnschrift-28" x="460.400391"/>
      <use xlink:href="#Bahnschrift-30" x="494.335938"/>
      <use xlink:href="#Bahnschrift-2e" x="549.511719"/>
      <use xlink:href="#Bahnschrift-30" x="572.167969"/>
      <use xlink:href="#Bahnschrift-30" x="627.34375"/>
      <use xlink:href="#Bahnschrift-30" x="682.519531"/>
      <use xlink:href="#Bahnschrift-35" x="737.695312"/>
      <use xlink:href="#Bahnschrift-2c" x="792.138672"/>
      <use xlink:href="#Bahnschrift-20" x="814.794922"/>
      <use xlink:href="#Bahnschrift-32" x="841.650391"/>
      <use xlink:href="#Bahnschrift-35" x="893.310547"/>
      <use xlink:href="#Bahnschrift-31" x="947.753906"/>
      <use xlink:href="#Bahnschrift-39" x="981.005859"/>
      <use xlink:href="#Bahnschrift-30" x="1032.324219"/>
      <use xlink:href="#Bahnschrift-29" x="1087.5"/>
     </g>
    </g>
   </g>
  </g>
 </g>
 <defs>
  <clipPath id="pcadb3825f2">
   <rect x="87.68" y="17.28" width="467.480909" height="210.76"/>
  </clipPath>
 </defs>
</svg>
