<?xml version="1.0" encoding="utf-8" standalone="no"?>
<!DOCTYPE svg PUBLIC "-//W3C//DTD SVG 1.1//EN"
  "http://www.w3.org/Graphics/SVG/1.1/DTD/svg11.dtd">
<svg xmlns:xlink="http://www.w3.org/1999/xlink" width="576pt" height="288pt" viewBox="0 0 576 288" xmlns="http://www.w3.org/2000/svg" version="1.1">
 <metadata>
  <rdf:RDF xmlns:dc="http://purl.org/dc/elements/1.1/" xmlns:cc="http://creativecommons.org/ns#" xmlns:rdf="http://www.w3.org/1999/02/22-rdf-syntax-ns#">
   <cc:Work>
    <dc:type rdf:resource="http://purl.org/dc/dcmitype/StillImage"/>
    <dc:date>2024-05-29T21:44:14.651575</dc:date>
    <dc:format>image/svg+xml</dc:format>
    <dc:creator>
     <cc:Agent>
      <dc:title>Matplotlib v3.8.2, https://matplotlib.org/</dc:title>
     </cc:Agent>
    </dc:creator>
   </cc:Work>
  </rdf:RDF>
 </metadata>
 <defs>
  <style type="text/css">*{stroke-linejoin: round; stroke-linecap: butt}</style>
 </defs>
 <g id="figure_1">
  <g id="patch_1">
   <path d="M 0 288 
L 576 288 
L 576 0 
L 0 0 
z
" style="fill: #ffffff"/>
  </g>
  <g id="axes_1">
   <g id="patch_2">
    <path d="M 70.85 228.04 
L 558.72 228.04 
L 558.72 17.28 
L 70.85 17.28 
z
" style="fill: #ffffff"/>
   </g>
   <g id="matplotlib.axis_1">
    <g id="xtick_1">
     <g id="line2d_1">
      <defs>
       <path id="m024630c02e" d="M 0 0 
L 0 3.5 
" style="stroke: #000000; stroke-width: 0.8"/>
      </defs>
      <g>
       <use xlink:href="#m024630c02e" x="93.025909" y="228.04" style="stroke: #000000; stroke-width: 0.8"/>
      </g>
     </g>
     <g id="text_1">
      <!-- 0.000 -->
      <g transform="translate(73.558409 246.4) scale(0.16 -0.16)">
       <defs>
        <path id="Bahnschrift-30" d="M 1766 -47 
Q 1116 -47 792 301 
Q 469 650 469 1244 
L 469 3309 
Q 469 3913 797 4256 
Q 1125 4600 1766 4600 
Q 2409 4600 2736 4258 
Q 3063 3916 3063 3309 
L 3063 1244 
Q 3063 641 2736 297 
Q 2409 -47 1766 -47 
z
M 1766 559 
Q 2116 559 2270 742 
Q 2425 925 2425 1244 
L 2425 3309 
Q 2425 3631 2270 3812 
Q 2116 3994 1766 3994 
Q 1416 3994 1261 3812 
Q 1106 3631 1106 3309 
L 1106 1244 
Q 1106 925 1261 742 
Q 1416 559 1766 559 
z
" transform="scale(0.015625)"/>
        <path id="Bahnschrift-2e" d="M 391 0 
L 391 669 
L 1059 669 
L 1059 0 
L 391 0 
z
" transform="scale(0.015625)"/>
       </defs>
       <use xlink:href="#Bahnschrift-30"/>
       <use xlink:href="#Bahnschrift-2e" x="55.175781"/>
       <use xlink:href="#Bahnschrift-30" x="77.832031"/>
       <use xlink:href="#Bahnschrift-30" x="133.007812"/>
       <use xlink:href="#Bahnschrift-30" x="188.183594"/>
      </g>
     </g>
    </g>
    <g id="xtick_2">
     <g id="line2d_2">
      <g>
       <use xlink:href="#m024630c02e" x="181.729545" y="228.04" style="stroke: #000000; stroke-width: 0.8"/>
      </g>
     </g>
     <g id="text_2">
      <!-- 0.002 -->
      <g transform="translate(162.543295 246.4) scale(0.16 -0.16)">
       <defs>
        <path id="Bahnschrift-32" d="M 400 0 
L 400 553 
L 1984 2666 
Q 2122 2847 2198 3040 
Q 2275 3234 2275 3406 
L 2275 3413 
Q 2275 3684 2115 3834 
Q 1956 3984 1663 3984 
Q 1388 3984 1214 3820 
Q 1041 3656 1003 3356 
L 1003 3353 
L 344 3353 
L 344 3356 
Q 428 3944 772 4267 
Q 1116 4591 1656 4591 
Q 2269 4591 2603 4281 
Q 2938 3972 2938 3406 
L 2938 3403 
Q 2938 3163 2838 2898 
Q 2738 2634 2559 2394 
L 1244 606 
L 2963 606 
L 2963 0 
L 400 0 
z
" transform="scale(0.015625)"/>
       </defs>
       <use xlink:href="#Bahnschrift-30"/>
       <use xlink:href="#Bahnschrift-2e" x="55.175781"/>
       <use xlink:href="#Bahnschrift-30" x="77.832031"/>
       <use xlink:href="#Bahnschrift-30" x="133.007812"/>
       <use xlink:href="#Bahnschrift-32" x="188.183594"/>
      </g>
     </g>
    </g>
    <g id="xtick_3">
     <g id="line2d_3">
      <g>
       <use xlink:href="#m024630c02e" x="270.433182" y="228.04" style="stroke: #000000; stroke-width: 0.8"/>
      </g>
     </g>
     <g id="text_3">
      <!-- 0.004 -->
      <g transform="translate(250.828182 246.4) scale(0.16 -0.16)">
       <defs>
        <path id="Bahnschrift-34" d="M 406 697 
L 406 1250 
L 1931 4541 
L 2588 4541 
L 1100 1288 
L 3328 1288 
L 3328 697 
L 406 697 
z
M 2366 -3 
L 2366 2672 
L 2988 2672 
L 2988 -3 
L 2366 -3 
z
" transform="scale(0.015625)"/>
       </defs>
       <use xlink:href="#Bahnschrift-30"/>
       <use xlink:href="#Bahnschrift-2e" x="55.175781"/>
       <use xlink:href="#Bahnschrift-30" x="77.832031"/>
       <use xlink:href="#Bahnschrift-30" x="133.007812"/>
       <use xlink:href="#Bahnschrift-34" x="188.183594"/>
      </g>
     </g>
    </g>
    <g id="xtick_4">
     <g id="line2d_4">
      <g>
       <use xlink:href="#m024630c02e" x="359.136818" y="228.04" style="stroke: #000000; stroke-width: 0.8"/>
      </g>
     </g>
     <g id="text_4">
      <!-- 0.006 -->
      <g transform="translate(339.978068 246.4) scale(0.16 -0.16)">
       <defs>
        <path id="Bahnschrift-36" d="M 1641 -47 
Q 1038 -47 706 312 
Q 375 672 375 1325 
L 375 1328 
Q 375 1622 456 1951 
Q 538 2281 691 2588 
L 1678 4544 
L 2366 4544 
L 1206 2278 
L 1209 2391 
Q 1372 2700 1788 2700 
Q 2322 2700 2615 2345 
Q 2909 1991 2909 1344 
L 2909 1341 
Q 2909 681 2578 317 
Q 2247 -47 1641 -47 
z
M 1641 566 
Q 1947 566 2109 753 
Q 2272 941 2272 1288 
L 2272 1291 
Q 2272 1672 2100 1880 
Q 1928 2088 1609 2088 
Q 1325 2088 1169 1878 
Q 1013 1669 1013 1288 
L 1013 1284 
Q 1013 938 1177 752 
Q 1341 566 1641 566 
z
" transform="scale(0.015625)"/>
       </defs>
       <use xlink:href="#Bahnschrift-30"/>
       <use xlink:href="#Bahnschrift-2e" x="55.175781"/>
       <use xlink:href="#Bahnschrift-30" x="77.832031"/>
       <use xlink:href="#Bahnschrift-30" x="133.007812"/>
       <use xlink:href="#Bahnschrift-36" x="188.183594"/>
      </g>
     </g>
    </g>
    <g id="xtick_5">
     <g id="line2d_5">
      <g>
       <use xlink:href="#m024630c02e" x="447.840455" y="228.04" style="stroke: #000000; stroke-width: 0.8"/>
      </g>
     </g>
     <g id="text_5">
      <!-- 0.008 -->
      <g transform="translate(428.286705 246.4) scale(0.16 -0.16)">
       <defs>
        <path id="Bahnschrift-38" d="M 1800 -47 
Q 1384 -47 1075 109 
Q 766 266 594 550 
Q 422 834 422 1216 
L 422 1291 
Q 422 1631 592 1931 
Q 763 2231 1047 2384 
Q 809 2516 662 2764 
Q 516 3013 516 3288 
L 516 3397 
Q 516 3938 867 4264 
Q 1219 4591 1800 4591 
Q 2381 4591 2732 4264 
Q 3084 3938 3084 3397 
L 3084 3288 
Q 3084 3006 2936 2759 
Q 2788 2513 2544 2384 
Q 2831 2231 3004 1931 
Q 3178 1631 3178 1291 
L 3178 1216 
Q 3178 834 3006 550 
Q 2834 266 2525 109 
Q 2216 -47 1800 -47 
z
M 1800 566 
Q 2134 566 2339 758 
Q 2544 950 2544 1263 
L 2544 1306 
Q 2544 1622 2339 1814 
Q 2134 2006 1800 2006 
Q 1466 2006 1261 1814 
Q 1056 1622 1056 1303 
L 1056 1256 
Q 1056 944 1261 755 
Q 1466 566 1800 566 
z
M 1800 2619 
Q 2091 2619 2269 2803 
Q 2447 2988 2447 3291 
L 2447 3334 
Q 2447 3625 2269 3801 
Q 2091 3978 1800 3978 
Q 1509 3978 1331 3801 
Q 1153 3625 1153 3331 
L 1153 3284 
Q 1153 2984 1331 2801 
Q 1509 2619 1800 2619 
z
" transform="scale(0.015625)"/>
       </defs>
       <use xlink:href="#Bahnschrift-30"/>
       <use xlink:href="#Bahnschrift-2e" x="55.175781"/>
       <use xlink:href="#Bahnschrift-30" x="77.832031"/>
       <use xlink:href="#Bahnschrift-30" x="133.007812"/>
       <use xlink:href="#Bahnschrift-38" x="188.183594"/>
      </g>
     </g>
    </g>
    <g id="xtick_6">
     <g id="line2d_6">
      <g>
       <use xlink:href="#m024630c02e" x="536.544091" y="228.04" style="stroke: #000000; stroke-width: 0.8"/>
      </g>
     </g>
     <g id="text_6">
      <!-- 0.010 -->
      <g transform="translate(518.830341 246.4) scale(0.16 -0.16)">
       <defs>
        <path id="Bahnschrift-31" d="M 1566 4544 
L 1566 0 
L 928 0 
L 928 3850 
L 281 3453 
L 281 4113 
L 928 4544 
L 1566 4544 
z
" transform="scale(0.015625)"/>
       </defs>
       <use xlink:href="#Bahnschrift-30"/>
       <use xlink:href="#Bahnschrift-2e" x="55.175781"/>
       <use xlink:href="#Bahnschrift-30" x="77.832031"/>
       <use xlink:href="#Bahnschrift-31" x="133.007812"/>
       <use xlink:href="#Bahnschrift-30" x="166.259766"/>
      </g>
     </g>
    </g>
    <g id="text_7">
     <!-- Gene Conversion -->
     <g transform="translate(253.9525 265.0575) scale(0.16 -0.16)">
      <defs>
       <path id="Bahnschrift-47" d="M 2094 2447 
L 3669 2447 
L 3669 1653 
Q 3669 1141 3470 758 
Q 3272 375 2915 164 
Q 2559 -47 2078 -47 
Q 1594 -47 1231 151 
Q 869 350 669 711 
Q 469 1072 469 1553 
L 469 2894 
Q 469 3406 667 3787 
Q 866 4169 1222 4380 
Q 1578 4591 2059 4591 
Q 2456 4591 2782 4422 
Q 3109 4253 3331 3950 
Q 3553 3647 3631 3241 
L 3631 3241 
L 2941 3241 
L 2941 3241 
Q 2853 3594 2600 3781 
Q 2347 3969 2059 3969 
Q 1634 3969 1378 3673 
Q 1122 3378 1122 2894 
L 1122 1553 
Q 1122 1109 1384 842 
Q 1647 575 2078 575 
Q 2503 575 2759 856 
Q 3016 1138 3016 1641 
L 3016 1838 
L 2094 1838 
L 2094 2447 
z
" transform="scale(0.015625)"/>
       <path id="Bahnschrift-65" d="M 1828 -47 
Q 1150 -47 778 331 
Q 406 709 406 1406 
L 406 1772 
Q 406 2497 764 2894 
Q 1122 3291 1772 3291 
Q 2384 3291 2720 2841 
Q 3056 2391 3056 1578 
L 3056 1366 
L 869 1366 
L 869 1878 
L 2450 1878 
L 2450 1878 
Q 2422 2272 2245 2494 
Q 2069 2716 1772 2716 
Q 1413 2716 1213 2478 
Q 1013 2241 1013 1806 
L 1013 1394 
Q 1013 991 1227 775 
Q 1441 559 1828 559 
Q 2022 559 2212 637 
Q 2403 716 2553 856 
L 2553 856 
L 2972 438 
L 2972 438 
Q 2731 206 2431 79 
Q 2131 -47 1828 -47 
z
" transform="scale(0.015625)"/>
       <path id="Bahnschrift-6e" d="M 500 0 
L 500 3244 
L 1138 3244 
L 1138 0 
L 500 0 
z
M 2469 0 
L 2469 1966 
Q 2469 2309 2292 2496 
Q 2116 2684 1791 2684 
Q 1478 2684 1308 2518 
Q 1138 2353 1138 2053 
L 1072 2678 
Q 1222 2972 1464 3131 
Q 1706 3291 2000 3291 
Q 2528 3291 2817 2945 
Q 3106 2600 3106 1969 
L 3106 0 
L 2469 0 
z
" transform="scale(0.015625)"/>
       <path id="Bahnschrift-20" transform="scale(0.015625)"/>
       <path id="Bahnschrift-43" d="M 2050 -47 
Q 1575 -47 1219 164 
Q 863 375 666 756 
Q 469 1138 469 1647 
L 469 2894 
Q 469 3406 666 3787 
Q 863 4169 1219 4380 
Q 1575 4591 2050 4591 
Q 2444 4591 2770 4422 
Q 3097 4253 3317 3950 
Q 3538 3647 3616 3241 
L 3616 3241 
L 2963 3241 
L 2963 3241 
Q 2903 3459 2764 3623 
Q 2625 3788 2437 3878 
Q 2250 3969 2050 3969 
Q 1631 3969 1376 3673 
Q 1122 3378 1122 2894 
L 1122 1647 
Q 1122 1163 1376 869 
Q 1631 575 2050 575 
Q 2347 575 2609 762 
Q 2872 950 2963 1303 
L 2963 1303 
L 3616 1303 
L 3616 1303 
Q 3538 897 3316 594 
Q 3094 291 2769 122 
Q 2444 -47 2050 -47 
z
" transform="scale(0.015625)"/>
       <path id="Bahnschrift-6f" d="M 1744 -47 
Q 1106 -47 756 323 
Q 406 694 406 1366 
L 406 1894 
Q 406 2559 756 2925 
Q 1106 3291 1744 3291 
Q 2381 3291 2731 2925 
Q 3081 2559 3081 1894 
L 3081 1356 
Q 3081 688 2731 320 
Q 2381 -47 1744 -47 
z
M 1744 559 
Q 2078 559 2261 768 
Q 2444 978 2444 1356 
L 2444 1894 
Q 2444 2272 2261 2478 
Q 2078 2684 1744 2684 
Q 1413 2684 1228 2478 
Q 1044 2272 1044 1894 
L 1044 1356 
Q 1044 978 1228 768 
Q 1413 559 1744 559 
z
" transform="scale(0.015625)"/>
       <path id="Bahnschrift-76" d="M 1616 928 
L 2409 3244 
L 3075 3244 
L 1856 0 
L 1375 0 
L 156 3244 
L 822 3244 
L 1616 928 
z
" transform="scale(0.015625)"/>
       <path id="Bahnschrift-72" d="M 500 0 
L 500 3244 
L 1138 3244 
L 1138 0 
L 500 0 
z
M 2284 2475 
Q 2200 2578 2072 2631 
Q 1944 2684 1775 2684 
Q 1472 2684 1305 2517 
Q 1138 2350 1138 2053 
L 1072 2678 
Q 1219 2966 1458 3128 
Q 1697 3291 1984 3291 
Q 2206 3291 2386 3227 
Q 2566 3163 2700 3038 
L 2284 2475 
z
" transform="scale(0.015625)"/>
       <path id="Bahnschrift-73" d="M 1647 -47 
Q 1216 -47 864 79 
Q 513 206 234 459 
L 234 459 
L 613 925 
L 613 925 
Q 878 725 1136 625 
Q 1394 525 1647 525 
Q 2025 525 2214 642 
Q 2403 759 2403 994 
Q 2403 1175 2276 1250 
Q 2150 1325 1945 1348 
Q 1741 1372 1506 1388 
Q 1309 1403 1115 1436 
Q 922 1469 762 1555 
Q 603 1641 508 1809 
Q 413 1978 413 2263 
Q 413 2778 728 3034 
Q 1044 3291 1669 3291 
Q 2050 3291 2378 3187 
Q 2706 3084 2994 2872 
L 2994 2872 
L 2609 2406 
L 2609 2406 
Q 2366 2563 2130 2641 
Q 1894 2719 1669 2719 
Q 1344 2719 1181 2608 
Q 1019 2497 1019 2275 
Q 1019 2128 1131 2064 
Q 1244 2000 1428 1981 
Q 1613 1963 1825 1947 
Q 2028 1934 2236 1901 
Q 2444 1869 2619 1775 
Q 2794 1681 2900 1497 
Q 3006 1313 3006 994 
Q 3006 472 2667 212 
Q 2328 -47 1647 -47 
z
" transform="scale(0.015625)"/>
       <path id="Bahnschrift-69" d="M 500 3906 
L 500 4544 
L 1138 4544 
L 1138 3906 
L 500 3906 
z
M 500 0 
L 500 3244 
L 1138 3244 
L 1138 0 
L 500 0 
z
" transform="scale(0.015625)"/>
      </defs>
      <use xlink:href="#Bahnschrift-47"/>
      <use xlink:href="#Bahnschrift-65" x="64.648438"/>
      <use xlink:href="#Bahnschrift-6e" x="118.261719"/>
      <use xlink:href="#Bahnschrift-65" x="174.121094"/>
      <use xlink:href="#Bahnschrift-20" x="227.734375"/>
      <use xlink:href="#Bahnschrift-43" x="254.589844"/>
      <use xlink:href="#Bahnschrift-6f" x="316.455078"/>
      <use xlink:href="#Bahnschrift-6e" x="370.947266"/>
      <use xlink:href="#Bahnschrift-76" x="426.806641"/>
      <use xlink:href="#Bahnschrift-65" x="476.806641"/>
      <use xlink:href="#Bahnschrift-72" x="530.419922"/>
      <use xlink:href="#Bahnschrift-73" x="573.095703"/>
      <use xlink:href="#Bahnschrift-69" x="624.951172"/>
      <use xlink:href="#Bahnschrift-6f" x="650.048828"/>
      <use xlink:href="#Bahnschrift-6e" x="704.541016"/>
     </g>
    </g>
   </g>
   <g id="matplotlib.axis_2">
    <g id="ytick_1">
     <g id="line2d_7">
      <defs>
       <path id="m47a0e527c6" d="M 0 0 
L -3.5 0 
" style="stroke: #000000; stroke-width: 0.8"/>
      </defs>
      <g>
       <use xlink:href="#m47a0e527c6" x="70.85" y="223.698005" style="stroke: #000000; stroke-width: 0.8"/>
      </g>
     </g>
     <g id="text_8">
      <!-- 0 -->
      <g transform="translate(55.0225 229.378005) scale(0.16 -0.16)">
       <use xlink:href="#Bahnschrift-30"/>
      </g>
     </g>
    </g>
    <g id="ytick_2">
     <g id="line2d_8">
      <g>
       <use xlink:href="#m47a0e527c6" x="70.85" y="174.359496" style="stroke: #000000; stroke-width: 0.8"/>
      </g>
     </g>
     <g id="text_9">
      <!-- 100 -->
      <g transform="translate(40.875 180.039496) scale(0.16 -0.16)">
       <use xlink:href="#Bahnschrift-31"/>
       <use xlink:href="#Bahnschrift-30" x="33.251953"/>
       <use xlink:href="#Bahnschrift-30" x="88.427734"/>
      </g>
     </g>
    </g>
    <g id="ytick_3">
     <g id="line2d_9">
      <g>
       <use xlink:href="#m47a0e527c6" x="70.85" y="125.020986" style="stroke: #000000; stroke-width: 0.8"/>
      </g>
     </g>
     <g id="text_10">
      <!-- 200 -->
      <g transform="translate(37.93 130.700986) scale(0.16 -0.16)">
       <use xlink:href="#Bahnschrift-32"/>
       <use xlink:href="#Bahnschrift-30" x="51.660156"/>
       <use xlink:href="#Bahnschrift-30" x="106.835938"/>
      </g>
     </g>
    </g>
    <g id="ytick_4">
     <g id="line2d_10">
      <g>
       <use xlink:href="#m47a0e527c6" x="70.85" y="75.682477" style="stroke: #000000; stroke-width: 0.8"/>
      </g>
     </g>
     <g id="text_11">
      <!-- 300 -->
      <g transform="translate(37.735 81.362477) scale(0.16 -0.16)">
       <defs>
        <path id="Bahnschrift-33" d="M 1644 -47 
Q 1259 -47 970 92 
Q 681 231 506 493 
Q 331 756 281 1131 
L 281 1131 
L 931 1131 
L 931 1131 
Q 975 838 1162 702 
Q 1350 566 1644 566 
Q 1959 566 2134 734 
Q 2309 903 2309 1209 
L 2309 1347 
Q 2309 1688 2143 1873 
Q 1978 2059 1675 2059 
L 1353 2059 
L 1353 2666 
L 1675 2666 
Q 1944 2666 2089 2825 
Q 2234 2984 2234 3275 
L 2234 3416 
Q 2234 3684 2079 3831 
Q 1925 3978 1641 3978 
Q 1400 3978 1233 3842 
Q 1066 3706 1003 3413 
L 1003 3413 
L 356 3413 
L 356 3413 
Q 453 3975 789 4283 
Q 1125 4591 1641 4591 
Q 2228 4591 2550 4281 
Q 2872 3972 2872 3409 
L 2872 3334 
Q 2872 2994 2687 2742 
Q 2503 2491 2166 2372 
Q 2538 2294 2742 2008 
Q 2947 1722 2947 1281 
L 2947 1206 
Q 2947 609 2606 281 
Q 2266 -47 1644 -47 
z
" transform="scale(0.015625)"/>
       </defs>
       <use xlink:href="#Bahnschrift-33"/>
       <use xlink:href="#Bahnschrift-30" x="52.880859"/>
       <use xlink:href="#Bahnschrift-30" x="108.056641"/>
      </g>
     </g>
    </g>
    <g id="ytick_5">
     <g id="line2d_11">
      <g>
       <use xlink:href="#m47a0e527c6" x="70.85" y="26.343968" style="stroke: #000000; stroke-width: 0.8"/>
      </g>
     </g>
     <g id="text_12">
      <!-- 400 -->
      <g transform="translate(37.0925 32.023968) scale(0.16 -0.16)">
       <use xlink:href="#Bahnschrift-34"/>
       <use xlink:href="#Bahnschrift-30" x="56.884766"/>
       <use xlink:href="#Bahnschrift-30" x="112.060547"/>
      </g>
     </g>
    </g>
    <g id="text_13">
     <!-- Mean χ²-like error -->
     <g transform="translate(29.6775 188.31875) rotate(-90) scale(0.16 -0.16)">
      <defs>
       <path id="Bahnschrift-4d" d="M 2494 1544 
L 3828 4544 
L 4425 4544 
L 4425 0 
L 3803 0 
L 3803 3403 
L 3834 3203 
L 2716 631 
L 2272 631 
L 1153 3141 
L 1184 3403 
L 1184 0 
L 563 0 
L 563 4544 
L 1159 4544 
L 2494 1544 
z
" transform="scale(0.015625)"/>
       <path id="Bahnschrift-61" d="M 2331 0 
L 2331 2056 
Q 2331 2375 2161 2551 
Q 1991 2728 1678 2728 
Q 1488 2728 1302 2670 
Q 1116 2613 969 2503 
L 503 2822 
Q 688 3044 989 3167 
Q 1291 3291 1659 3291 
Q 2269 3291 2603 2975 
Q 2938 2659 2938 2084 
L 2938 0 
L 2331 0 
z
M 1538 -47 
Q 941 -47 642 200 
Q 344 447 344 956 
Q 344 1441 617 1680 
Q 891 1919 1438 1919 
L 2359 1919 
L 2403 1406 
L 1441 1406 
Q 1194 1406 1069 1295 
Q 944 1184 944 956 
Q 944 709 1109 590 
Q 1275 472 1606 472 
Q 1969 472 2150 550 
Q 2331 628 2331 794 
L 2397 338 
Q 2313 206 2188 122 
Q 2063 38 1902 -4 
Q 1741 -47 1538 -47 
z
" transform="scale(0.015625)"/>
       <path id="Bahnschrift-3c7" d="M 2753 -1366 
Q 2606 -1366 2481 -1303 
Q 2356 -1241 2253 -1111 
Q 2150 -981 2059 -788 
L 600 2438 
Q 547 2556 481 2620 
Q 416 2684 322 2684 
L 94 2684 
L 94 3291 
L 416 3291 
Q 566 3291 689 3228 
Q 813 3166 917 3037 
Q 1022 2909 1109 2713 
L 2569 -513 
Q 2622 -628 2703 -693 
Q 2784 -759 2972 -759 
L 3078 -759 
L 3078 -1366 
L 2753 -1366 
z
M 125 -1319 
L 1350 1141 
L 1688 594 
L 822 -1319 
L 125 -1319 
z
M 1897 784 
L 1559 1331 
L 2334 3244 
L 3031 3244 
L 1897 784 
z
" transform="scale(0.015625)"/>
       <path id="Bahnschrift-b2" d="M 378 2597 
L 378 3038 
L 800 3403 
Q 1050 3616 1122 3723 
Q 1194 3831 1194 3963 
L 1194 3963 
Q 1194 4125 1034 4125 
Q 947 4125 894 4070 
Q 841 4016 825 3906 
L 825 3906 
L 313 3906 
L 313 3906 
Q 334 4238 521 4402 
Q 709 4566 1013 4566 
Q 1366 4566 1542 4416 
Q 1719 4266 1719 3969 
L 1719 3966 
Q 1719 3803 1622 3659 
Q 1525 3516 1303 3297 
L 1063 3063 
L 1719 3063 
L 1719 2597 
L 378 2597 
z
" transform="scale(0.015625)"/>
       <path id="Bahnschrift-2d" d="M 500 1931 
L 2600 1931 
L 2600 1325 
L 500 1325 
L 500 1931 
z
" transform="scale(0.015625)"/>
       <path id="Bahnschrift-6c" d="M 1138 4544 
L 1138 838 
Q 1138 722 1189 656 
Q 1241 591 1334 591 
L 1634 591 
L 1634 -16 
L 1259 -16 
Q 900 -16 700 209 
Q 500 434 500 844 
L 500 4544 
L 1138 4544 
z
" transform="scale(0.015625)"/>
       <path id="Bahnschrift-6b" d="M 734 475 
L 775 1231 
L 2444 3244 
L 3194 3244 
L 734 475 
z
M 500 0 
L 500 4544 
L 1138 4544 
L 1138 0 
L 500 0 
z
M 2659 0 
L 1528 1872 
L 1938 2297 
L 3353 0 
L 2659 0 
z
" transform="scale(0.015625)"/>
      </defs>
      <use xlink:href="#Bahnschrift-4d"/>
      <use xlink:href="#Bahnschrift-65" x="77.929688"/>
      <use xlink:href="#Bahnschrift-61" x="131.542969"/>
      <use xlink:href="#Bahnschrift-6e" x="184.765625"/>
      <use xlink:href="#Bahnschrift-20" x="240.625"/>
      <use xlink:href="#Bahnschrift-3c7" x="267.480469"/>
      <use xlink:href="#Bahnschrift-b2" x="318.017578"/>
      <use xlink:href="#Bahnschrift-2d" x="349.267578"/>
      <use xlink:href="#Bahnschrift-6c" x="397.216797"/>
      <use xlink:href="#Bahnschrift-69" x="426.171875"/>
      <use xlink:href="#Bahnschrift-6b" x="451.269531"/>
      <use xlink:href="#Bahnschrift-65" x="504.150391"/>
      <use xlink:href="#Bahnschrift-20" x="557.763672"/>
      <use xlink:href="#Bahnschrift-65" x="584.619141"/>
      <use xlink:href="#Bahnschrift-72" x="638.232422"/>
      <use xlink:href="#Bahnschrift-72" x="680.908203"/>
      <use xlink:href="#Bahnschrift-6f" x="723.583984"/>
      <use xlink:href="#Bahnschrift-72" x="778.076172"/>
     </g>
    </g>
   </g>
   <g id="line2d_12">
    <path d="M 93.025909 26.86 
L 97.461091 29.301276 
L 101.896273 32.771516 
L 106.331455 36.308078 
L 110.766636 42.105506 
L 115.201818 48.56984 
L 119.637 54.168894 
L 124.072182 61.003745 
L 128.507364 69.239385 
L 132.942545 77.635889 
L 137.377727 84.546397 
L 141.812909 91.942346 
L 146.248091 96.613912 
L 150.683273 101.908023 
L 155.118455 107.570968 
L 159.553636 112.085833 
L 163.988818 115.545002 
L 168.424 118.525747 
L 172.859182 120.5996 
L 177.294364 123.080621 
L 181.729545 127.854938 
L 186.164727 129.796428 
L 190.599909 132.109848 
L 195.035091 134.253299 
L 199.470273 134.841673 
L 203.905455 135.588255 
L 208.340636 138.442033 
L 212.775818 140.717175 
L 217.211 142.697622 
L 221.646182 143.067889 
L 226.081364 145.173947 
L 230.516545 147.566271 
L 234.951727 151.003636 
L 239.386909 153.724591 
L 243.822091 155.245996 
L 248.257273 158.150523 
L 252.692455 159.625468 
L 257.127636 160.669108 
L 261.562818 161.103194 
L 265.998 161.205299 
L 270.433182 160.279672 
L 274.868364 159.779302 
L 279.303545 160.167956 
L 283.738727 161.355343 
L 288.173909 160.260941 
L 292.609091 158.861983 
L 297.044273 159.803854 
L 301.479455 160.757104 
L 305.914636 161.055789 
L 310.349818 163.446433 
L 314.785 164.3294 
L 319.220182 164.790287 
L 323.655364 163.528284 
L 328.090545 162.937318 
L 332.525727 164.34872 
L 336.960909 164.46996 
L 341.396091 162.263216 
L 345.831273 163.471541 
L 350.266455 164.245946 
L 354.701636 164.534933 
L 359.136818 164.830369 
L 363.572 165.019608 
L 368.007182 166.333573 
L 372.442364 166.808183 
L 376.877545 166.844537 
L 381.312727 167.093908 
L 385.747909 169.437138 
L 390.183091 167.812036 
L 394.618273 168.884241 
L 399.053455 168.263584 
L 403.488636 169.070547 
L 407.923818 170.05681 
L 412.359 170.200625 
L 416.794182 170.747342 
L 421.229364 170.780148 
L 425.664545 172.788573 
L 430.099727 173.355688 
L 434.534909 174.968365 
L 438.970091 174.449278 
L 443.405273 174.731076 
L 447.840455 175.200736 
L 452.275636 172.787 
L 456.710818 173.102941 
L 461.146 172.608141 
L 465.581182 173.496003 
L 470.016364 173.753919 
L 474.451545 174.551718 
L 478.886727 173.87366 
L 483.321909 174.854655 
L 487.757091 176.354031 
L 492.192273 176.25296 
L 496.627455 178.26534 
L 501.062636 176.920116 
L 505.497818 177.192222 
L 509.933 178.141327 
L 514.368182 176.270529 
L 518.803364 175.931872 
L 523.238545 176.815446 
L 527.673727 175.498903 
L 532.108909 175.493589 
L 536.544091 175.203 
" clip-path="url(#p72569eeb9e)" style="fill: none; stroke: #204e66; stroke-width: 1.5; stroke-linecap: square"/>
   </g>
   <g id="line2d_13">
    <path d="M 93.025909 162.592712 
L 97.461091 163.536922 
L 101.896273 161.531617 
L 106.331455 160.593123 
L 110.766636 158.468376 
L 115.201818 157.108173 
L 119.637 151.835113 
L 124.072182 152.536672 
L 128.507364 151.932548 
L 132.942545 150.229538 
L 137.377727 141.953684 
L 141.812909 143.951037 
L 146.248091 146.860947 
L 150.683273 150.083343 
L 155.118455 156.502777 
L 159.553636 159.455931 
L 163.988818 163.534017 
L 168.424 163.858415 
L 172.859182 167.581002 
L 177.294364 172.382119 
L 181.729545 184.140997 
L 186.164727 184.074792 
L 190.599909 186.583644 
L 195.035091 185.917898 
L 199.470273 184.979452 
L 203.905455 187.818179 
L 208.340636 193.773492 
L 212.775818 197.35273 
L 217.211 198.690076 
L 221.646182 199.035136 
L 226.081364 200.726366 
L 230.516545 203.117209 
L 234.951727 204.072865 
L 239.386909 207.294235 
L 243.822091 208.283412 
L 248.257273 209.375159 
L 252.692455 208.885456 
L 257.127636 208.505371 
L 261.562818 209.208371 
L 265.998 210.820818 
L 270.433182 208.993305 
L 274.868364 209.142027 
L 279.303545 209.872285 
L 283.738727 208.815924 
L 288.173909 209.879665 
L 292.609091 209.908072 
L 297.044273 210.701328 
L 301.479455 211.910873 
L 305.914636 211.367699 
L 310.349818 211.462826 
L 314.785 213.189303 
L 319.220182 211.926707 
L 323.655364 212.535935 
L 328.090545 214.166405 
L 332.525727 214.28083 
L 336.960909 213.923957 
L 341.396091 214.056827 
L 345.831273 214.544313 
L 350.266455 215.428784 
L 354.701636 216.235954 
L 359.136818 216.168359 
L 363.572 215.267352 
L 368.007182 215.090039 
L 372.442364 213.857324 
L 376.877545 214.248332 
L 381.312727 214.806015 
L 385.747909 215.110849 
L 390.183091 214.835862 
L 394.618273 214.479795 
L 399.053455 213.969492 
L 403.488636 214.518558 
L 407.923818 216.597876 
L 412.359 216.794493 
L 416.794182 218.46 
L 421.229364 218.282867 
L 425.664545 217.486354 
L 430.099727 217.236744 
L 434.534909 216.778881 
L 438.970091 216.777438 
L 443.405273 216.753114 
L 447.840455 216.016416 
L 452.275636 216.130733 
L 456.710818 216.207963 
L 461.146 215.674792 
L 465.581182 215.846101 
L 470.016364 215.347076 
L 474.451545 215.298923 
L 478.886727 214.994352 
L 483.321909 215.833607 
L 487.757091 216.136661 
L 492.192273 216.67869 
L 496.627455 216.507707 
L 501.062636 216.482833 
L 505.497818 216.318467 
L 509.933 216.29749 
L 514.368182 217.867358 
L 518.803364 216.942873 
L 523.238545 217.468762 
L 527.673727 216.968674 
L 532.108909 216.96577 
L 536.544091 216.797119 
" clip-path="url(#p72569eeb9e)" style="fill: none; stroke: #5dc694; stroke-width: 1.5; stroke-linecap: square"/>
   </g>
   <g id="line2d_14">
    <path d="M 93.025909 228.04 
L 93.025909 17.28 
" clip-path="url(#p72569eeb9e)" style="fill: none; stroke-dasharray: 5.55,2.4; stroke-dashoffset: 0; stroke: #5dc694; stroke-width: 1.5"/>
   </g>
   <g id="line2d_15">
    <path d="M 314.785 228.04 
L 314.785 17.28 
" clip-path="url(#p72569eeb9e)" style="fill: none; stroke-dasharray: 5.55,2.4; stroke-dashoffset: 0; stroke: #2398ff; stroke-width: 1.5"/>
   </g>
   <g id="patch_3">
    <path d="M 70.85 228.04 
L 70.85 17.28 
" style="fill: none; stroke: #000000; stroke-width: 0.8; stroke-linejoin: miter; stroke-linecap: square"/>
   </g>
   <g id="patch_4">
    <path d="M 558.72 228.04 
L 558.72 17.28 
" style="fill: none; stroke: #000000; stroke-width: 0.8; stroke-linejoin: miter; stroke-linecap: square"/>
   </g>
   <g id="patch_5">
    <path d="M 70.85 228.04 
L 558.72 228.04 
" style="fill: none; stroke: #000000; stroke-width: 0.8; stroke-linejoin: miter; stroke-linecap: square"/>
   </g>
   <g id="patch_6">
    <path d="M 70.85 17.28 
L 558.72 17.28 
" style="fill: none; stroke: #000000; stroke-width: 0.8; stroke-linejoin: miter; stroke-linecap: square"/>
   </g>
   <g id="legend_1">
    <g id="patch_7">
     <path d="M 207.755 120.71 
L 547.52 120.71 
Q 550.72 120.71 550.72 117.51 
L 550.72 28.48 
Q 550.72 25.28 547.52 25.28 
L 207.755 25.28 
Q 204.555 25.28 204.555 28.48 
L 204.555 117.51 
Q 204.555 120.71 207.755 120.71 
z
" style="fill: #ffffff; opacity: 0.8; stroke: #cccccc; stroke-linejoin: miter"/>
    </g>
    <g id="line2d_16">
     <path d="M 210.955 37.44 
L 226.955 37.44 
L 242.955 37.44 
" style="fill: none; stroke: #204e66; stroke-width: 1.5; stroke-linecap: square"/>
    </g>
    <g id="text_14">
     <!-- Against random trees, neutral evolution. -->
     <g transform="translate(255.755 43.04) scale(0.16 -0.16)">
      <defs>
       <path id="Bahnschrift-41" d="M 125 0 
L 1800 4544 
L 2344 4544 
L 4019 0 
L 3331 0 
L 2072 3666 
L 813 0 
L 125 0 
z
M 897 997 
L 897 1603 
L 3288 1603 
L 3288 997 
L 897 997 
z
" transform="scale(0.015625)"/>
       <path id="Bahnschrift-67" d="M 1588 -1319 
Q 1222 -1319 933 -1183 
Q 644 -1047 484 -800 
L 484 -800 
L 916 -409 
L 916 -409 
Q 1041 -581 1214 -675 
Q 1388 -769 1578 -769 
Q 1944 -769 2144 -567 
Q 2344 -366 2344 3 
L 2344 3244 
L 2981 3244 
L 2981 97 
Q 2981 -578 2617 -948 
Q 2253 -1319 1588 -1319 
z
M 1528 -56 
Q 991 -56 698 289 
Q 406 634 406 1263 
L 406 1978 
Q 406 2609 692 2954 
Q 978 3300 1497 3300 
Q 1784 3300 2023 3150 
Q 2263 3000 2409 2728 
L 2344 2066 
Q 2344 2272 2269 2419 
Q 2194 2566 2051 2642 
Q 1909 2719 1706 2719 
Q 1391 2719 1217 2522 
Q 1044 2325 1044 1969 
L 1044 1263 
Q 1044 909 1217 717 
Q 1391 525 1706 525 
Q 1909 525 2051 604 
Q 2194 684 2269 834 
Q 2344 984 2344 1194 
L 2388 509 
Q 2300 291 2086 117 
Q 1872 -56 1528 -56 
z
" transform="scale(0.015625)"/>
       <path id="Bahnschrift-74" d="M 1344 -16 
Q 944 -16 764 206 
Q 584 428 584 844 
L 584 4188 
L 1222 4188 
L 1222 838 
Q 1222 722 1269 656 
Q 1316 591 1406 591 
L 1713 591 
L 1713 -16 
L 1344 -16 
z
M 250 2669 
L 250 3244 
L 1713 3244 
L 1713 2669 
L 250 2669 
z
" transform="scale(0.015625)"/>
       <path id="Bahnschrift-64" d="M 2344 0 
L 2344 4544 
L 2981 4544 
L 2981 0 
L 2344 0 
z
M 1528 -56 
Q 991 -56 698 289 
Q 406 634 406 1263 
L 406 1978 
Q 406 2609 692 2954 
Q 978 3300 1497 3300 
Q 1784 3300 2023 3150 
Q 2263 3000 2409 2728 
L 2344 2066 
Q 2344 2272 2269 2419 
Q 2194 2566 2051 2642 
Q 1909 2719 1706 2719 
Q 1391 2719 1217 2522 
Q 1044 2325 1044 1969 
L 1044 1263 
Q 1044 909 1217 717 
Q 1391 525 1706 525 
Q 1909 525 2051 604 
Q 2194 684 2269 834 
Q 2344 984 2344 1194 
L 2388 509 
Q 2300 291 2086 117 
Q 1872 -56 1528 -56 
z
" transform="scale(0.015625)"/>
       <path id="Bahnschrift-6d" d="M 4375 0 
L 4375 1966 
Q 4375 2309 4198 2496 
Q 4022 2684 3697 2684 
Q 3400 2684 3237 2503 
Q 3075 2322 3075 1991 
L 2947 2616 
Q 3103 2941 3353 3116 
Q 3603 3291 3906 3291 
Q 4434 3291 4723 2945 
Q 5013 2600 5013 1969 
L 5013 0 
L 4375 0 
z
M 500 0 
L 500 3244 
L 1138 3244 
L 1138 0 
L 500 0 
z
M 2438 0 
L 2438 1966 
Q 2438 2309 2269 2496 
Q 2100 2684 1791 2684 
Q 1478 2684 1308 2518 
Q 1138 2353 1138 2053 
L 1072 2678 
Q 1222 2972 1464 3131 
Q 1706 3291 2000 3291 
Q 2513 3291 2794 2945 
Q 3075 2600 3075 1969 
L 3075 0 
L 2438 0 
z
" transform="scale(0.015625)"/>
       <path id="Bahnschrift-2c" d="M 391 -1038 
L 391 669 
L 1059 669 
L 1059 -344 
L 391 -1038 
z
" transform="scale(0.015625)"/>
       <path id="Bahnschrift-75" d="M 2456 0 
L 2456 3244 
L 3091 3244 
L 3091 0 
L 2456 0 
z
M 1138 3244 
L 1138 1272 
Q 1138 931 1311 745 
Q 1484 559 1800 559 
Q 2116 559 2286 726 
Q 2456 894 2456 1197 
L 2500 519 
Q 2413 300 2194 126 
Q 1975 -47 1622 -47 
Q 1084 -47 792 298 
Q 500 644 500 1272 
L 500 3244 
L 1138 3244 
z
" transform="scale(0.015625)"/>
      </defs>
      <use xlink:href="#Bahnschrift-41"/>
      <use xlink:href="#Bahnschrift-67" x="64.746094"/>
      <use xlink:href="#Bahnschrift-61" x="118.652344"/>
      <use xlink:href="#Bahnschrift-69" x="171.875"/>
      <use xlink:href="#Bahnschrift-6e" x="196.972656"/>
      <use xlink:href="#Bahnschrift-73" x="252.832031"/>
      <use xlink:href="#Bahnschrift-74" x="304.6875"/>
      <use xlink:href="#Bahnschrift-20" x="337.304688"/>
      <use xlink:href="#Bahnschrift-72" x="364.160156"/>
      <use xlink:href="#Bahnschrift-61" x="406.835938"/>
      <use xlink:href="#Bahnschrift-6e" x="460.058594"/>
      <use xlink:href="#Bahnschrift-64" x="515.917969"/>
      <use xlink:href="#Bahnschrift-6f" x="569.824219"/>
      <use xlink:href="#Bahnschrift-6d" x="624.316406"/>
      <use xlink:href="#Bahnschrift-20" x="709.960938"/>
      <use xlink:href="#Bahnschrift-74" x="736.816406"/>
      <use xlink:href="#Bahnschrift-72" x="769.433594"/>
      <use xlink:href="#Bahnschrift-65" x="812.109375"/>
      <use xlink:href="#Bahnschrift-65" x="865.722656"/>
      <use xlink:href="#Bahnschrift-73" x="919.335938"/>
      <use xlink:href="#Bahnschrift-2c" x="971.191406"/>
      <use xlink:href="#Bahnschrift-20" x="993.847656"/>
      <use xlink:href="#Bahnschrift-6e" x="1020.703125"/>
      <use xlink:href="#Bahnschrift-65" x="1076.5625"/>
      <use xlink:href="#Bahnschrift-75" x="1130.175781"/>
      <use xlink:href="#Bahnschrift-74" x="1185.791016"/>
      <use xlink:href="#Bahnschrift-72" x="1218.408203"/>
      <use xlink:href="#Bahnschrift-61" x="1261.083984"/>
      <use xlink:href="#Bahnschrift-6c" x="1314.306641"/>
      <use xlink:href="#Bahnschrift-20" x="1343.261719"/>
      <use xlink:href="#Bahnschrift-65" x="1370.117188"/>
      <use xlink:href="#Bahnschrift-76" x="1423.730469"/>
      <use xlink:href="#Bahnschrift-6f" x="1473.730469"/>
      <use xlink:href="#Bahnschrift-6c" x="1528.222656"/>
      <use xlink:href="#Bahnschrift-75" x="1557.177734"/>
      <use xlink:href="#Bahnschrift-74" x="1612.792969"/>
      <use xlink:href="#Bahnschrift-69" x="1645.410156"/>
      <use xlink:href="#Bahnschrift-6f" x="1670.507812"/>
      <use xlink:href="#Bahnschrift-6e" x="1725"/>
      <use xlink:href="#Bahnschrift-2e" x="1780.859375"/>
     </g>
    </g>
    <g id="line2d_17">
     <path d="M 210.955 60.0975 
L 226.955 60.0975 
L 242.955 60.0975 
" style="fill: none; stroke: #5dc694; stroke-width: 1.5; stroke-linecap: square"/>
    </g>
    <g id="text_15">
     <!-- Against random trees, indentical κ. -->
     <g transform="translate(255.755 65.6975) scale(0.16 -0.16)">
      <defs>
       <path id="Bahnschrift-63" d="M 1809 -47 
Q 1141 -47 773 322 
Q 406 691 406 1363 
L 406 1897 
Q 406 2563 773 2927 
Q 1141 3291 1809 3291 
Q 2191 3291 2497 3156 
Q 2803 3022 2984 2772 
L 2984 2772 
L 2525 2359 
L 2525 2359 
Q 2391 2516 2206 2600 
Q 2022 2684 1819 2684 
Q 1450 2684 1247 2478 
Q 1044 2272 1044 1897 
L 1044 1363 
Q 1044 978 1247 768 
Q 1450 559 1819 559 
Q 2022 559 2206 650 
Q 2391 741 2525 906 
L 2525 906 
L 2984 463 
L 2984 463 
Q 2803 219 2495 86 
Q 2188 -47 1809 -47 
z
" transform="scale(0.015625)"/>
       <path id="Bahnschrift-3ba" d="M 1106 756 
L 866 1225 
L 2353 2941 
Q 2506 3116 2673 3203 
Q 2841 3291 3022 3291 
L 3191 3291 
L 3191 2622 
L 3084 2622 
Q 2969 2622 2859 2567 
Q 2750 2513 2647 2403 
L 1106 756 
z
M 500 0 
L 500 3244 
L 1138 3244 
L 1138 0 
L 500 0 
z
M 2659 0 
L 1528 1872 
L 1938 2297 
L 3353 0 
L 2659 0 
z
" transform="scale(0.015625)"/>
      </defs>
      <use xlink:href="#Bahnschrift-41"/>
      <use xlink:href="#Bahnschrift-67" x="64.746094"/>
      <use xlink:href="#Bahnschrift-61" x="118.652344"/>
      <use xlink:href="#Bahnschrift-69" x="171.875"/>
      <use xlink:href="#Bahnschrift-6e" x="196.972656"/>
      <use xlink:href="#Bahnschrift-73" x="252.832031"/>
      <use xlink:href="#Bahnschrift-74" x="304.6875"/>
      <use xlink:href="#Bahnschrift-20" x="337.304688"/>
      <use xlink:href="#Bahnschrift-72" x="364.160156"/>
      <use xlink:href="#Bahnschrift-61" x="406.835938"/>
      <use xlink:href="#Bahnschrift-6e" x="460.058594"/>
      <use xlink:href="#Bahnschrift-64" x="515.917969"/>
      <use xlink:href="#Bahnschrift-6f" x="569.824219"/>
      <use xlink:href="#Bahnschrift-6d" x="624.316406"/>
      <use xlink:href="#Bahnschrift-20" x="709.960938"/>
      <use xlink:href="#Bahnschrift-74" x="736.816406"/>
      <use xlink:href="#Bahnschrift-72" x="769.433594"/>
      <use xlink:href="#Bahnschrift-65" x="812.109375"/>
      <use xlink:href="#Bahnschrift-65" x="865.722656"/>
      <use xlink:href="#Bahnschrift-73" x="919.335938"/>
      <use xlink:href="#Bahnschrift-2c" x="971.191406"/>
      <use xlink:href="#Bahnschrift-20" x="993.847656"/>
      <use xlink:href="#Bahnschrift-69" x="1020.703125"/>
      <use xlink:href="#Bahnschrift-6e" x="1045.800781"/>
      <use xlink:href="#Bahnschrift-64" x="1101.660156"/>
      <use xlink:href="#Bahnschrift-65" x="1155.566406"/>
      <use xlink:href="#Bahnschrift-6e" x="1209.179688"/>
      <use xlink:href="#Bahnschrift-74" x="1265.039062"/>
      <use xlink:href="#Bahnschrift-69" x="1297.65625"/>
      <use xlink:href="#Bahnschrift-63" x="1322.753906"/>
      <use xlink:href="#Bahnschrift-61" x="1372.558594"/>
      <use xlink:href="#Bahnschrift-6c" x="1425.78125"/>
      <use xlink:href="#Bahnschrift-20" x="1454.736328"/>
      <use xlink:href="#Bahnschrift-3ba" x="1481.591797"/>
      <use xlink:href="#Bahnschrift-2e" x="1534.472656"/>
     </g>
    </g>
    <g id="line2d_18">
     <path d="M 210.955 82.755 
L 226.955 82.755 
L 242.955 82.755 
" style="fill: none; stroke-dasharray: 5.55,2.4; stroke-dashoffset: 0; stroke: #5dc694; stroke-width: 1.5"/>
    </g>
    <g id="text_16">
     <!-- κ = 0.0000 -->
     <g transform="translate(255.755 88.355) scale(0.16 -0.16)">
      <defs>
       <path id="Bahnschrift-3d" d="M 438 2288 
L 438 2894 
L 2531 2894 
L 2531 2288 
L 438 2288 
z
M 438 1269 
L 438 1875 
L 2531 1875 
L 2531 1269 
L 438 1269 
z
" transform="scale(0.015625)"/>
      </defs>
      <use xlink:href="#Bahnschrift-3ba"/>
      <use xlink:href="#Bahnschrift-20" x="52.880859"/>
      <use xlink:href="#Bahnschrift-3d" x="79.736328"/>
      <use xlink:href="#Bahnschrift-20" x="125.634766"/>
      <use xlink:href="#Bahnschrift-30" x="152.490234"/>
      <use xlink:href="#Bahnschrift-2e" x="207.666016"/>
      <use xlink:href="#Bahnschrift-30" x="230.322266"/>
      <use xlink:href="#Bahnschrift-30" x="285.498047"/>
      <use xlink:href="#Bahnschrift-30" x="340.673828"/>
      <use xlink:href="#Bahnschrift-30" x="395.849609"/>
     </g>
    </g>
    <g id="line2d_19">
     <path d="M 210.955 105.4125 
L 226.955 105.4125 
L 242.955 105.4125 
" style="fill: none; stroke-dasharray: 5.55,2.4; stroke-dashoffset: 0; stroke: #2398ff; stroke-width: 1.5"/>
    </g>
    <g id="text_17">
     <!-- κ = 0.0050 -->
     <g transform="translate(255.755 111.0125) scale(0.16 -0.16)">
      <defs>
       <path id="Bahnschrift-35" d="M 1738 -47 
Q 1219 -47 886 251 
Q 553 550 469 1094 
L 469 1097 
L 1106 1097 
L 1106 1094 
Q 1141 844 1306 705 
Q 1472 566 1738 566 
Q 2044 566 2211 770 
Q 2378 975 2378 1347 
L 2378 1728 
Q 2378 2100 2211 2303 
Q 2044 2506 1738 2506 
Q 1572 2506 1419 2412 
Q 1266 2319 1150 2150 
L 569 2150 
L 569 4544 
L 2884 4544 
L 2884 3938 
L 1206 3938 
L 1206 2916 
Q 1325 3013 1472 3066 
Q 1619 3119 1772 3119 
Q 2366 3119 2691 2755 
Q 3016 2391 3016 1728 
L 3016 1347 
Q 3016 681 2681 317 
Q 2347 -47 1738 -47 
z
" transform="scale(0.015625)"/>
      </defs>
      <use xlink:href="#Bahnschrift-3ba"/>
      <use xlink:href="#Bahnschrift-20" x="52.880859"/>
      <use xlink:href="#Bahnschrift-3d" x="79.736328"/>
      <use xlink:href="#Bahnschrift-20" x="125.634766"/>
      <use xlink:href="#Bahnschrift-30" x="152.490234"/>
      <use xlink:href="#Bahnschrift-2e" x="207.666016"/>
      <use xlink:href="#Bahnschrift-30" x="230.322266"/>
      <use xlink:href="#Bahnschrift-30" x="285.498047"/>
      <use xlink:href="#Bahnschrift-35" x="340.673828"/>
      <use xlink:href="#Bahnschrift-30" x="395.117188"/>
     </g>
    </g>
   </g>
  </g>
 </g>
 <defs>
  <clipPath id="p72569eeb9e">
   <rect x="70.85" y="17.28" width="487.87" height="210.76"/>
  </clipPath>
 </defs>
</svg>
